<?xml version="1.0" encoding="UTF-8"?>
<svg id="Layer_2" data-name="Layer 2" xmlns="http://www.w3.org/2000/svg" viewBox="0 0 1000 600">
  <defs>
    <style>
      .cls-1, .cls-2 {
        fill: none;
        stroke: #f5f5f7;
        stroke-linecap: round;
        stroke-linejoin: round;
        stroke-width: 12.78px;
      }

      .cls-3 {
        font-family: Inter-Regular, Inter;
        font-size: 36px;
      }

      .cls-3, .cls-4, .cls-5 {
        fill: #f5f5f7;
      }

      .cls-2 {
        stroke-dasharray: 0 0 0 19.17;
      }

      .cls-6 {
        fill: #333;
      }

      .cls-5 {
        font-family: Inter-SemiBold, Inter;
        font-size: 60px;
        font-weight: 600;
      }
    </style>
  </defs>
  <g id="Layer_1-2" data-name="Layer 1">
    <g>
      <rect class="cls-6" width="1000" height="600"/>
      <g>
        <rect class="cls-4" x="100.06" y="101.8" width="100" height="100"/>
        <g>
          <g>
            <rect class="cls-6" x="141.16" y="174.32" width="18.44" height="6.65"/>
            <path class="cls-6" d="m159.65,135.11l-7.88-12.47h-.21c-.38,0-.69.31-.69.69v20.76c0,.63.39,1.18.96,1.43,1.54.68,2.62,2.22,2.63,4.02,0,2.32-1.85,4.29-4.16,4.41-2.54.14-4.65-1.89-4.65-4.4,0-1.8,1.08-3.35,2.63-4.03.58-.25.96-.81.96-1.44v-20.75c0-.38-.31-.69-.69-.69h-.21l-7.88,12.47-6.99,10.77c-1.36,2.1-1.61,4.73-.66,7.04l8.24,20.11h18.01l8.24-20.11c.95-2.31.7-4.94-.66-7.04l-6.99-10.77Z"/>
          </g>
          <path class="cls-6" d="m160.38,175.04h-20.05c-.25,0-.46-.2-.46-.46h0c0-.25.2-.46.46-.46h20.05c.25,0,.46.2.46.46h0c0,.25-.2.46-.46.46Z"/>
        </g>
      </g>
      <text class="cls-5" transform="translate(99.06 327.9)"><tspan x="0" y="0">Unique Designs</tspan></text>
      <text class="cls-3" transform="translate(100.06 257.56)"><tspan x="0" y="0">Graphic &amp; Designing</tspan></text>
      <g>
        <path class="cls-4" d="m670,270v25.56h25.56v-25.56h-25.56Zm19.17,19.17h-12.78v-12.78h12.78v12.78Z"/>
        <path class="cls-4" d="m670,474.44v25.56h25.56v-25.56h-25.56Zm19.17,19.17h-12.78v-12.78h12.78v12.78Z"/>
        <path class="cls-4" d="m874.44,270v25.56h25.56v-25.56h-25.56Zm19.17,19.17h-12.78v-12.78h12.78v12.78Z"/>
        <path class="cls-4" d="m874.44,474.44v25.56h25.56v-25.56h-25.56Zm19.17,19.17h-12.78v-12.78h12.78v12.78Z"/>
        <g>
          <line class="cls-1" x1="708.33" y1="282.78" x2="708.33" y2="282.78"/>
          <line class="cls-2" x1="727.5" y1="282.78" x2="852.08" y2="282.78"/>
          <line class="cls-1" x1="861.67" y1="282.78" x2="861.67" y2="282.78"/>
        </g>
        <g>
          <line class="cls-1" x1="887.22" y1="308.33" x2="887.22" y2="308.33"/>
          <line class="cls-2" x1="887.22" y1="327.5" x2="887.22" y2="452.08"/>
          <line class="cls-1" x1="887.22" y1="461.67" x2="887.22" y2="461.67"/>
        </g>
        <g>
          <line class="cls-1" x1="861.67" y1="487.22" x2="861.67" y2="487.22"/>
          <line class="cls-2" x1="842.5" y1="487.22" x2="717.92" y2="487.22"/>
          <line class="cls-1" x1="708.33" y1="487.22" x2="708.33" y2="487.22"/>
        </g>
        <g>
          <line class="cls-1" x1="682.78" y1="461.67" x2="682.78" y2="461.67"/>
          <line class="cls-2" x1="682.78" y1="442.5" x2="682.78" y2="317.92"/>
          <line class="cls-1" x1="682.78" y1="308.33" x2="682.78" y2="308.33"/>
        </g>
        <path class="cls-4" d="m836.47,362.28h-5.84c-1.54-4.54-4.02-9.41-7.43-14.6-3.41-5.19-6.56-7.99-9.45-8.39-1.59-.2-3.56-.37-5.9-.52-2.34-.15-4.36-.22-6.05-.22h-3.51v83.33c0,1.8.32,3.38.97,4.75.65,1.37,1.92,2.46,3.82,3.26,1.15.45,2.93.91,5.35,1.39,2.42.47,4.48.81,6.18,1.01v5.84h-59.22v-5.84c1.45-.15,3.48-.36,6.1-.64,2.62-.27,4.41-.61,5.35-1.01,1.95-.8,3.24-1.87,3.89-3.22.65-1.35.97-2.95.97-4.79v-84.08h-3.51c-1.69,0-3.71.07-6.05.22-2.34.15-4.31.32-5.9.52-2.89.4-6.04,3.19-9.45,8.39-3.41,5.19-5.89,10.06-7.43,14.6h-5.84v-30.4h102.95v30.4Z"/>
      </g>
    </g>
  </g>
</svg>