<?xml version="1.0" encoding="UTF-8"?>
<svg id="Layer_2" data-name="Layer 2" xmlns="http://www.w3.org/2000/svg" viewBox="0 0 1000 600">
  <defs>
    <style>
      .cls-1 {
        letter-spacing: -.08em;
      }

      .cls-2 {
        font-family: Inter-Regular, Inter;
        font-size: 36px;
      }

      .cls-2, .cls-3, .cls-4, .cls-5, .cls-6 {
        fill: #f5f5f7;
      }

      .cls-7 {
        fill: #999;
      }

      .cls-8 {
        fill: #666;
      }

      .cls-9, .cls-10 {
        fill: #333;
      }

      .cls-11 {
        fill: #c4c4c4;
      }

      .cls-12 {
        letter-spacing: 0em;
      }

      .cls-4 {
        font-family: Inter-SemiBold, Inter;
        font-size: 60px;
        font-weight: 600;
      }

      .cls-10, .cls-5 {
        opacity: .2;
      }

      .cls-6 {
        opacity: .4;
      }
    </style>
  </defs>
  <g id="Layer_1-2" data-name="Layer 1">
    <g>
      <rect class="cls-9" width="1000" height="600"/>
      <text class="cls-4" transform="translate(99.06 327.9)"><tspan x="0" y="0">Comple</tspan><tspan class="cls-12" x="223.63" y="0">t</tspan><tspan x="246.09" y="0">e Solutions</tspan></text>
      <text class="cls-2" transform="translate(100.06 257.56)"><tspan class="cls-1" x="0" y="0">T</tspan><tspan x="20.25" y="0">ech Solutions</tspan></text>
      <g>
        <rect class="cls-3" x="100.06" y="101.8" width="100" height="100"/>
        <g>
          <path class="cls-9" d="m173.98,127.92v37.2h-47.85v-37.2h47.85m5.24-5.24h-58.33v47.68h58.33v-47.68h0Z"/>
          <g>
            <g>
              <rect class="cls-9" x="159.29" y="133.61" width="5.24" height="17.29" transform="translate(-53.17 156.16) rotate(-45)"/>
              <rect class="cls-9" x="153.27" y="148.16" width="17.29" height="5.24" transform="translate(-59.19 158.65) rotate(-45)"/>
            </g>
            <g>
              <rect class="cls-9" x="135.58" y="142.13" width="5.24" height="17.29" transform="translate(-66.14 141.88) rotate(-45)"/>
              <rect class="cls-9" x="129.55" y="139.64" width="17.29" height="5.24" transform="translate(-60.11 139.39) rotate(-45)"/>
            </g>
          </g>
          <rect class="cls-9" x="142.11" y="170.44" width="15.89" height="5.24"/>
          <polygon class="cls-9" points="169.97 175.68 130.15 175.68 125.15 180.92 174.96 180.92 169.97 175.68"/>
        </g>
      </g>
      <g>
        <g>
          <g>
            <g>
              <path class="cls-3" d="m677.88,313.91h218.63c1.93,0,3.49,1.56,3.49,3.49v158.81c0,1.93-1.56,3.49-3.49,3.49h-218.63c-1.93,0-3.49-1.57-3.49-3.49v-158.81c0-1.93,1.57-3.49,3.49-3.49Z"/>
              <path class="cls-7" d="m686.47,320.41h201.46c1.78,0,3.22,1.44,3.22,3.22v134.12c0,1.78-1.44,3.22-3.22,3.22h-201.46c-1.78,0-3.22-1.44-3.22-3.22v-134.11c0-1.78,1.44-3.22,3.22-3.22Z"/>
              <g>
                <g>
                  <path class="cls-7" d="m891.14,469.65c0,.68-.55,1.23-1.23,1.23h-205.44c-.68,0-1.23-.55-1.23-1.23h0c0-.68.55-1.23,1.23-1.23h205.44c.68,0,1.23.55,1.23,1.23h0Z"/>
                  <path class="cls-9" d="m821.28,469.65c0,.68-.55,1.23-1.23,1.23h-135.58c-.68,0-1.23-.55-1.23-1.23h0c0-.68.55-1.23,1.23-1.23h135.58c.68,0,1.23.55,1.23,1.23h0Z"/>
                </g>
                <path class="cls-9" d="m824.42,469.79c0,2.65-2.15,4.8-4.8,4.8s-4.8-2.15-4.8-4.8,2.15-4.8,4.8-4.8,4.8,2.15,4.8,4.8Z"/>
              </g>
            </g>
            <g>
              <path class="cls-10" d="m842.5,392.66c0,30.55-24.76,55.31-55.31,55.31s-55.31-24.77-55.31-55.31,24.76-55.31,55.31-55.31,55.31,24.76,55.31,55.31Z"/>
              <path class="cls-9" d="m830.42,392.66c0,23.87-19.35,43.23-43.23,43.23s-43.23-19.35-43.23-43.23,19.35-43.22,43.23-43.22,43.23,19.35,43.23,43.22Z"/>
              <polygon class="cls-7" points="778.65 374.54 778.65 410.78 802.27 393.04 778.65 374.54"/>
            </g>
          </g>
          <path class="cls-5" d="m896.51,479.7c1.92,0,3.49-1.57,3.49-3.49v-158.81c0-1.92-1.57-3.49-3.49-3.49h-20.48c.02,109.97-56.69,151.45-87.18,165.79h107.67Z"/>
        </g>
        <g>
          <g>
            <g>
              <path class="cls-3" d="m651.94,390.45h148.07c1.07,0,1.94.87,1.94,1.94v105.67c0,1.07-.87,1.94-1.94,1.94h-148.07c-1.07,0-1.94-.87-1.94-1.94v-105.67c0-1.07.87-1.94,1.94-1.94Z"/>
              <path class="cls-7" d="m801.94,403.76v-11.37c0-1.07-.87-1.94-1.94-1.94h-148.07c-1.07,0-1.94.87-1.94,1.94v11.37h151.94Z"/>
            </g>
            <g>
              <path class="cls-8" d="m672.94,397.11c0,1.54-1.25,2.79-2.79,2.79s-2.79-1.25-2.79-2.79,1.25-2.79,2.79-2.79,2.79,1.25,2.79,2.79Z"/>
              <path class="cls-8" d="m661.32,397.11c0,1.54-1.25,2.79-2.79,2.79s-2.79-1.25-2.79-2.79,1.25-2.79,2.79-2.79,2.79,1.25,2.79,2.79Z"/>
              <path class="cls-8" d="m684.56,397.11c0,1.54-1.25,2.79-2.79,2.79s-2.79-1.25-2.79-2.79,1.25-2.79,2.79-2.79,2.79,1.25,2.79,2.79Z"/>
            </g>
          </g>
          <g>
            <rect class="cls-8" x="693.05" y="430.32" width="98.04" height="3.94"/>
            <g>
              <rect class="cls-11" x="660.86" y="417.59" width="29.07" height="3.94"/>
              <rect class="cls-11" x="660.86" y="443.05" width="15.38" height="3.94"/>
              <rect class="cls-11" x="660.86" y="455.77" width="29.07" height="3.94"/>
              <rect class="cls-11" x="660.86" y="468.5" width="22.61" height="3.94"/>
              <g>
                <rect class="cls-8" x="706.54" y="417.59" width="56.45" height="3.94"/>
                <rect class="cls-9" x="660.86" y="430.32" width="22.61" height="3.94"/>
                <rect class="cls-9" x="682.76" y="443.05" width="66.7" height="3.94"/>
                <rect class="cls-9" x="706.54" y="455.77" width="56.45" height="3.94"/>
                <rect class="cls-9" x="693.05" y="468.5" width="98.04" height="3.94"/>
                <rect class="cls-11" x="660.86" y="481.22" width="15.38" height="3.94"/>
                <rect class="cls-9" x="682.76" y="481.22" width="66.7" height="3.94"/>
              </g>
            </g>
          </g>
          <path class="cls-6" d="m801.94,392.39c0-1.07-.87-1.94-1.94-1.94h-36.34c-.88,67.75-47.28,98.83-68.6,109.55h104.94c1.07,0,1.94-.87,1.94-1.94v-105.67Z"/>
        </g>
        <g>
          <g>
            <g>
              <path class="cls-3" d="m751.29,288.09h129.89c1.07,0,1.94.87,1.94,1.94v69.31c0,1.07-.87,1.94-1.94,1.94h-129.89c-1.07,0-1.94-.87-1.94-1.94v-69.31c0-1.07.87-1.94,1.94-1.94Z"/>
              <path class="cls-7" d="m883.12,301.39v-11.37c0-1.07-.87-1.94-1.94-1.94h-129.89c-1.07,0-1.94.87-1.94,1.94v11.37h133.76Z"/>
            </g>
            <g>
              <path class="cls-8" d="m772.29,294.74c0,1.54-1.25,2.79-2.79,2.79s-2.79-1.25-2.79-2.79,1.25-2.79,2.79-2.79,2.79,1.25,2.79,2.79Z"/>
              <path class="cls-8" d="m760.68,294.74c0,1.54-1.25,2.79-2.79,2.79s-2.79-1.25-2.79-2.79,1.25-2.79,2.79-2.79,2.79,1.25,2.79,2.79Z"/>
              <path class="cls-8" d="m783.91,294.74c0,1.54-1.25,2.79-2.79,2.79s-2.79-1.25-2.79-2.79,1.25-2.79,2.79-2.79,2.79,1.25,2.79,2.79Z"/>
            </g>
          </g>
          <g>
            <path class="cls-11" d="m819.37,315.76c-3.04,9.22-6.09,18.44-9.13,27.66-.61,1.83,2.27,2.61,2.87.79,3.05-9.22,6.09-18.43,9.14-27.65.6-1.83-2.27-2.6-2.87-.79h0Z"/>
            <g>
              <path class="cls-11" d="m808.36,335.18c-2.52-1.73-5.04-3.47-7.56-5.2,2.52-1.73,5.04-3.46,7.56-5.2,1.57-1.08.09-3.66-1.5-2.57-3.14,2.16-6.29,4.32-9.43,6.48-.95.66-.95,1.92,0,2.57,3.14,2.16,6.29,4.32,9.43,6.48,1.59,1.09,3.08-1.49,1.5-2.57Z"/>
              <path class="cls-11" d="m824.12,335.18c2.51-1.73,5.03-3.47,7.55-5.2-2.52-1.73-5.04-3.46-7.55-5.2-1.57-1.08-.08-3.66,1.5-2.57,3.14,2.16,6.28,4.32,9.43,6.48.96.66.96,1.92,0,2.57-3.14,2.16-6.28,4.32-9.43,6.48-1.58,1.09-3.07-1.49-1.5-2.57Z"/>
            </g>
          </g>
          <path class="cls-6" d="m881.18,361.27c1.07,0,1.94-.87,1.94-1.94v-69.31c0-1.07-.87-1.94-1.94-1.94h-29.08c-2.2,43.01-26.75,63.54-46.95,73.19h76.02Z"/>
        </g>
      </g>
    </g>
  </g>
</svg>