<?xml version="1.0" encoding="UTF-8"?>
<svg id="Layer_2" data-name="Layer 2" xmlns="http://www.w3.org/2000/svg" viewBox="0 0 1000 600">
  <defs>
    <style>
      .cls-1 {
        letter-spacing: -.02em;
      }

      .cls-2 {
        font-family: Inter-Regular, Inter;
        font-size: 36px;
      }

      .cls-2, .cls-3, .cls-4 {
        fill: #f5f5f7;
      }

      .cls-5 {
        fill: #333;
      }

      .cls-6 {
        letter-spacing: -.02em;
      }

      .cls-4 {
        font-family: Inter-SemiBold, Inter;
        font-size: 60px;
        font-weight: 600;
      }
    </style>
  </defs>
  <g id="Layer_1-2" data-name="Layer 1">
    <g>
      <rect class="cls-5" width="1000" height="600"/>
      <g>
        <rect class="cls-3" x="100.06" y="101.8" width="100" height="100"/>
        <g>
          <g>
            <rect class="cls-5" x="141.16" y="174.32" width="18.44" height="6.65"/>
            <path class="cls-5" d="m159.65,135.11l-7.88-12.47h-.21c-.38,0-.69.31-.69.69v20.76c0,.63.39,1.18.96,1.43,1.54.68,2.62,2.22,2.63,4.02,0,2.32-1.85,4.29-4.16,4.41-2.54.14-4.65-1.89-4.65-4.4,0-1.8,1.08-3.35,2.63-4.03.58-.25.96-.81.96-1.44v-20.75c0-.38-.31-.69-.69-.69h-.21l-7.88,12.47-6.99,10.77c-1.36,2.1-1.61,4.73-.66,7.04l8.24,20.11h18.01l8.24-20.11c.95-2.31.7-4.94-.66-7.04l-6.99-10.77Z"/>
          </g>
          <path class="cls-5" d="m160.38,175.04h-20.05c-.25,0-.46-.2-.46-.46h0c0-.25.2-.46.46-.46h20.05c.25,0,.46.2.46.46h0c0,.25-.2.46-.46.46Z"/>
        </g>
      </g>
      <text class="cls-4" transform="translate(99.06 327.9)"><tspan x="0" y="0">C</tspan><tspan class="cls-6" x="44.62" y="0">r</tspan><tspan x="67.05" y="0">eati</tspan><tspan class="cls-1" x="175.52" y="0">v</tspan><tspan x="208.95" y="0">e Ideas</tspan></text>
      <text class="cls-2" transform="translate(100.06 257.56)"><tspan x="0" y="0">Graphic &amp; Designing</tspan></text>
      <g>
        <g>
          <path class="cls-3" d="m853.44,441.08c-1.09-23.22,4.37-30.09,11.93-39.59,3.67-4.61,7.83-9.84,12.23-18.19,13.67-25.93,24.47-46.42,2.71-88.08-20.92-40.05-65.41-38.29-65.86-38.26h-.17s-.17,0-.17,0c-1.84-.08-45.01-1.66-65.86,38.26-21.77,41.67-10.97,62.15,2.71,88.08l2.87,4.63,20.48-22.41,2.49,3.56c.04.06,4.45,6.35,9.88,11.78,5.43,5.43,11.71,9.84,11.77,9.88l3.36,2.35-42.02,42.96-4.97-4.86,36.37-37.18c-2.51-1.94-6.08-4.88-9.44-8.23-3.27-3.27-6.15-6.76-8.09-9.25l-20.91,22.89-7.82-12.66c-13.58-25.73-26.3-49.84-2.84-94.75,22.27-42.63,68.96-42.08,72.19-41.99,3.23-.09,49.93-.64,72.2,41.99,23.45,44.9,10.74,69.01-2.73,94.54-4.71,8.93-9.27,14.67-12.94,19.28-7.11,8.93-11.4,14.32-10.43,34.93l-6.94.33Z"/>
          <polygon class="cls-3" points="857.84 454.01 767.24 454.01 767.24 433.12 774.19 433.12 774.19 447.06 857.84 447.06 857.84 454.01"/>
          <g>
            <path class="cls-3" d="m860.54,319.66c-3.05,3.04-8,3.04-11.05-.01-3.05-3.04-3.05-7.98,0-11.03,3.06-3.05,8-3.05,11.06,0,3.05,3.05,3.05,7.99,0,11.04Z"/>
            <path class="cls-3" d="m845.41,325.14l-17.97,17.97c.79,1.82.45,4-1.03,5.49-1.94,1.94-5.09,1.94-7.02,0-1.94-1.94-1.94-5.08,0-7.02,1.48-1.49,3.67-1.82,5.49-1.03l17.96-17.97c-9.96,5.36-30.49,14.67-49.17,12.24,0,0-3.16,16.99-13.04,30.02,0,0,4.54,6.52,10.27,12.24,5.73,5.73,12.24,10.27,12.24,10.27,13.04-9.87,30.02-13.04,30.02-13.04-2.43-18.68,6.88-39.21,12.24-49.17Z"/>
          </g>
        </g>
        <polygon class="cls-3" points="826.78 500 804.86 500 789.99 482.24 841.62 482.24 826.78 500"/>
        <rect class="cls-3" x="772.24" y="461.67" width="87.13" height="12.08"/>
      </g>
    </g>
  </g>
</svg>