<?xml version="1.0" encoding="UTF-8"?>
<svg id="Layer_2" data-name="Layer 2" xmlns="http://www.w3.org/2000/svg" viewBox="0 0 1000 600">
  <defs>
    <style>
      .cls-1 {
        letter-spacing: -.08em;
      }

      .cls-2 {
        font-family: Inter-Regular, Inter;
        font-size: 36px;
      }

      .cls-2, .cls-3, .cls-4 {
        fill: #f5f5f7;
      }

      .cls-5 {
        fill: #333;
      }

      .cls-4 {
        font-family: Inter-SemiBold, Inter;
        font-size: 60px;
        font-weight: 600;
      }

      .cls-6 {
        letter-spacing: -.02em;
      }

      .cls-7 {
        letter-spacing: -.02em;
      }
    </style>
  </defs>
  <g id="Layer_1-2" data-name="Layer 1">
    <g>
      <rect class="cls-5" width="1000" height="600"/>
      <text class="cls-4" transform="translate(99.06 327.9)"><tspan class="cls-7" x="0" y="0">A</tspan><tspan x="42.4" y="0">d</tspan><tspan class="cls-6" x="80.22" y="0">v</tspan><tspan x="113.82" y="0">anced </tspan><tspan class="cls-1" x="307.8" y="0">T</tspan><tspan x="342.61" y="0">ech</tspan></text>
      <text class="cls-2" transform="translate(100.06 257.56)"><tspan class="cls-1" x="0" y="0">T</tspan><tspan x="20.25" y="0">ech Solutions</tspan></text>
      <g>
        <rect class="cls-3" x="100.06" y="101.8" width="100" height="100"/>
        <g>
          <path class="cls-5" d="m173.98,127.92v37.2h-47.85v-37.2h47.85m5.24-5.24h-58.33v47.68h58.33v-47.68h0Z"/>
          <g>
            <g>
              <rect class="cls-5" x="159.29" y="133.61" width="5.24" height="17.29" transform="translate(-53.17 156.16) rotate(-45)"/>
              <rect class="cls-5" x="153.27" y="148.16" width="17.29" height="5.24" transform="translate(-59.19 158.65) rotate(-45)"/>
            </g>
            <g>
              <rect class="cls-5" x="135.58" y="142.13" width="5.24" height="17.29" transform="translate(-66.14 141.88) rotate(-45)"/>
              <rect class="cls-5" x="129.55" y="139.64" width="17.29" height="5.24" transform="translate(-60.11 139.39) rotate(-45)"/>
            </g>
          </g>
          <rect class="cls-5" x="142.11" y="170.44" width="15.89" height="5.24"/>
          <polygon class="cls-5" points="169.97 175.68 130.15 175.68 125.15 180.92 174.96 180.92 169.97 175.68"/>
        </g>
      </g>
      <g>
        <path class="cls-3" d="m887.42,429.67c0,22.88-16.14,41.44-36.09,41.44h-65.12v-45.45h3.72c3.55,0,6.7-2.42,8.06-6.17,1.36-3.77.62-8.05-1.88-10.94l-27.53-31.56c-1.63-1.92-3.82-2.94-6.16-2.94s-4.53,1.04-6.18,2.94l-27.49,31.56c-2.52,2.9-3.27,7.17-1.9,10.94,1.36,3.75,4.53,6.17,8.06,6.17h3.72v45.45h-65.12c-19.92,0-36.09-18.56-36.09-41.44s16.16-41.44,36.09-41.44h.45c3.7-36.95,31.02-65.67,64.22-65.67,25.15,0,46.92,16.49,57.62,40.53,3.24-.78,6.59-1.21,10.05-1.21,2.52,0,4.98.24,7.4.66,14.24,2.54,26.37,12.36,33.48,26.03,1.51-.24,3.04-.36,4.61-.36,19.94,0,36.09,18.53,36.09,41.44Z"/>
        <path class="cls-3" d="m777.47,488.87c.97,0,1.76-.9,1.76-2.02v-63.96c0-2.88,2.04-5.23,4.55-5.23h6.14c1.06,0,1.49-.87,1.62-1.24.14-.37.37-1.34-.38-2.2l-27.51-31.59c-.33-.38-.77-.59-1.24-.59s-.91.21-1.24.59l-27.5,31.59c-.75.86-.52,1.82-.38,2.2.14.38.56,1.25,1.62,1.25h6.14c2.51,0,4.55,2.34,4.55,5.23v63.96c0,1.11.79,2.02,1.75,2.02h30.11Z"/>
      </g>
    </g>
  </g>
</svg>