<?xml version="1.0" encoding="UTF-8"?>
<svg id="Layer_2" data-name="Layer 2" xmlns="http://www.w3.org/2000/svg" viewBox="0 0 1200 1200">
  <defs>
    <style>
      .cls-1 {
        fill: #f5f5f7;
      }

      .cls-2 {
        fill: #333;
      }
    </style>
  </defs>
  <g id="Layer_1-2" data-name="Layer 1">
    <g>
      <rect class="cls-2" width="1200" height="1200"/>
      <g>
        <path class="cls-1" d="m698,498.76c-14.11,25.26-28.55,50.34-43.32,75.22-5.86,9.86-18.45,13.59-27.65,6.77-7.87-5.82-11.21-7.67-19.29-6.97-8.08.7-8.15,6.57-22.85,12.11-3.12,1.17-5.93,1.98-8,4.8-2.24,3.04-2.62,7.14-1.97,12.08,1.77,13.27-2.74,23.47-15.51,29.11h-95.98c-12.47-5.87-17.17-15.97-15.41-29.25,1.03-7.75-.82-12.84-7.82-16.14-.66-.31-1.36-.6-2.11-.88-7.13-2.66-13.54-7.5-19.87-11.95-3.26-2.29-5.57-2.36-8.74-.24-4.1,2.73-8.44,5.14-12.81,7.42-8.22,4.29-16.86,3.78-23.28-1.21v-163.65h79.77c-3.36,7.78-5.2,16.34-5.17,25.31.15,34.78,28.75,63.3,63.49,63.3,35.12,0,63.61-28.69,63.49-63.94-.03-8.75-1.85-17.09-5.1-24.68h111.05c-2.69,2.12-4.69,4.52-6.03,7.25-1.94,3.92-.21,4.36-1.22,17.39-.58,7.54-1.52,11.34-1.48,14.13.02,1.56.34,2.81,1.2,4.21,1.5,2.46,3.5,5.07,9.04,7.46,2.78,1.2,5.38,2.9,7.93,4.58,9.77,6.47,13.3,17.62,7.65,27.75Z"/>
        <path class="cls-1" d="m877.7,415.98v398.09h-258.04l-113.22,135.93v-135.93h-133.06v-189.64c2.37-.34,4.65.47,7.43,2.42,8.86,6.23,17.84,13.01,27.83,16.74,12.24,4.57,15.5,11.98,13.92,23.86-2.46,18.58,4.12,32.74,21.58,40.97h134.45c17.89-7.9,24.21-22.18,21.73-40.78-.92-6.92-.38-12.67,2.75-16.92,2.9-3.94,6.83-5.07,11.2-6.72,20.59-7.77,20.69-15.99,32.01-16.97,11.33-.98,16,1.6,27.02,9.76,12.9,9.54,30.54,4.33,38.74-9.48,20.7-34.85,40.92-69.99,60.68-105.38,7.93-14.2,2.97-29.82-10.71-38.88-3.56-2.36-7.2-4.75-11.11-6.43-7.76-3.34-10.56-7-12.66-10.44-3.36-5.5-.87-9.23.4-25.69,1.4-18.26-1.01-18.87,1.7-24.37.02-.05.05-.1.08-.14h137.26Z"/>
        <path class="cls-1" d="m690.34,471c-2.55-1.69-5.14-3.39-7.93-4.58-5.54-2.39-7.54-5-9.04-7.46-.85-1.4-1.18-2.65-1.2-4.21l-231.98,131.74c7,3.3,8.85,8.39,7.82,16.14-1.75,13.27,2.95,23.37,15.41,29.25h95.98c12.77-5.64,17.28-15.84,15.51-29.11-.66-4.94-.27-9.04,1.97-12.08,2.07-2.82,4.87-3.62,8-4.8,14.7-5.55,14.77-11.41,22.85-12.11,8.09-.69,11.42,1.15,19.29,6.97,9.2,6.82,21.8,3.1,27.65-6.77,14.77-24.88,29.21-49.96,43.32-75.22,5.65-10.14,2.11-21.28-7.65-27.75Zm-93.5-55.03c-10.79-36.95-45.01-64.08-85.28-64.11-40.27-.02-74.54,27.17-85.43,64.11-2.39,8.08-3.65,16.63-3.62,25.46.21,48.73,40.27,88.67,88.95,88.68,49.18,0,89.11-40.2,88.94-89.57-.03-8.51-1.27-16.76-3.56-24.57Zm-85.37,88.62c-34.74,0-63.34-28.52-63.49-63.3-.04-8.97,1.81-17.53,5.17-25.31,9.76-22.65,32.32-38.63,58.4-38.62,26.09.02,48.61,15.97,58.32,38.62,3.25,7.59,5.07,15.93,5.1,24.68.12,35.25-28.37,63.95-63.49,63.94Z"/>
        <path class="cls-1" d="m690.34,471c-2.55-1.69-5.14-3.39-7.93-4.58-5.54-2.39-7.54-5-9.04-7.46-.85-1.4-1.18-2.65-1.2-4.21-.04-2.78.9-6.58,1.48-14.13,1.01-13.04-.72-13.47,1.22-17.39,1.34-2.72,3.35-5.13,6.03-7.25,2.37-1.88,5.27-3.55,8.72-5.06,11.5-5.01,14.04-17.98,7.76-29.08-13.8-24.36-27.78-48.62-41.97-72.75-6.45-10.96-18.07-13.79-29.3-7.83-2.07,1.11-4.22,2.16-6.06,3.58-4.79,3.69-8.78,4.6-12.34,4.62-4.39.02-5.46-2.65-14.86-9.02-10.37-7.03-11.87-5.61-14.53-9.36-3.63-5.13-4.68-11.92-3.72-20.46,1.24-11.12-8.64-20.29-19.95-20.4-28.68-.3-57.38-.27-86.07-.02-11.26.1-19.87,8.96-20.54,20.24-.28,4.7-.35,9.44,0,14.13.24,3.21-.48,4.81-1.11,6.19-2.11,4.58-6.51,5.46-14.66,9.29-12.37,5.8-12,8.33-17.26,8.48-3.49.11-5.3,1.44-15.08-5.21-14.33-9.76-25.57-6.01-34.41,9.31-12.59,21.8-25.15,43.61-37.7,65.43-9.29,16.15-6.87,26.78,9.71,35.44,7.48,3.91,10.42,6.23,12.11,10.86,1.09,2.98.38,4.7-.24,10.43-1.68,15.26,1.8,17.39-.88,23.39-3.23,7.23-6.94,9.34-15.46,13.04-10.7,4.65-13.62,17.68-7.83,27.98,13.94,24.82,28.16,49.48,42.61,74.01,1.54,2.62,3.43,4.77,5.56,6.42,6.42,4.98,15.05,5.49,23.28,1.21,4.37-2.28,8.71-4.69,12.81-7.42,3.17-2.12,5.49-2.05,8.74.24,6.33,4.46,12.74,9.29,19.87,11.95.76.28,1.46.58,2.11.88,7,3.3,8.85,8.39,7.82,16.14-1.75,13.27,2.95,23.37,15.41,29.25h95.98c12.77-5.64,17.28-15.84,15.51-29.11-.66-4.94-.27-9.04,1.97-12.08,2.07-2.82,4.87-3.62,8-4.8,14.7-5.55,14.77-11.41,22.85-12.11,8.09-.69,11.42,1.15,19.29,6.97,9.2,6.82,21.8,3.1,27.65-6.77,14.77-24.88,29.21-49.96,43.32-75.22,5.65-10.14,2.11-21.28-7.65-27.75Zm-237.19-55.03c9.76-22.65,32.32-38.63,58.4-38.62,26.09.02,48.61,15.97,58.32,38.62,3.25,7.59,5.07,15.93,5.1,24.68.12,35.25-28.37,63.95-63.49,63.94-34.74,0-63.34-28.52-63.49-63.3-.04-8.97,1.81-17.53,5.17-25.31Z"/>
      </g>
    </g>
  </g>
</svg>