<?xml version="1.0" encoding="UTF-8"?>
<svg id="Layer_2" data-name="Layer 2" xmlns="http://www.w3.org/2000/svg" viewBox="0 0 748.16 777.68">
  <defs>
    <style>
      .cls-1 {
        fill: #e9e9e9;
      }

      .cls-2 {
        fill: #fff;
      }

      .cls-3 {
        fill: #7e8080;
      }

      .cls-4 {
        fill: #323334;
      }

      .cls-5 {
        fill: #333;
      }

      .cls-6 {
        fill: #e0dcdd;
      }

      .cls-7 {
        fill: #444;
      }

      .cls-8 {
        opacity: .3;
      }

      .cls-9 {
        opacity: .6;
      }

      .cls-10 {
        opacity: .7;
      }
    </style>
  </defs>
  <g id="Layer_1-2" data-name="Layer 1">
    <g>
      <path class="cls-4" d="m711.64,337.01c0,.77,0,1.53-.01,2.3-.07,11.24-.69,22.34-1.85,33.3-17.78,169.39-161.05,301.4-335.15,301.4-186.12,0-337.01-150.88-337.01-337S188.5,0,374.62,0c137.99,0,256.61,82.94,308.73,201.68,4.75,10.81,8.94,21.92,12.55,33.3,10.22,32.19,15.73,66.47,15.73,102.04"/>
      <path class="cls-3" d="m533.18,764.47c-4.14.53-8.67.82-13.58.82H228.67c-4.91,0-9.44-.3-13.58-.82-27.93-3.62-46.97-30.43-41.54-58.08,17.88-91.06,63.92-147.62,80.66-165.72,3.9-4.21,6.21-6.34,6.21-6.34h227.42s2.31,2.13,6.21,6.34c16.74,18.1,62.79,74.67,80.66,165.72,5.43,27.65-13.61,54.46-41.54,58.08"/>
      <g class="cls-8">
        <path class="cls-5" d="m494.06,540.67c-7.21,10.12-36.87,42.98-119.92,46.03-83.05-3.05-112.71-35.91-119.92-46.03,3.9-4.21,6.21-6.35,6.21-6.35h227.42s2.31,2.13,6.21,6.35"/>
      </g>
      <g class="cls-8">
        <path class="cls-5" d="m558.34,700.1s-6.07-45.95-28.2-87.58v73.15s9.01-.25,28.2,14.42"/>
      </g>
      <g class="cls-8">
        <path class="cls-5" d="m574.72,706.39c-1.82-9.29-3.95-18.2-6.3-26.76.79,3.47,1.55,6.98,2.25,10.56,5.43,27.65-13.61,54.46-41.54,58.08-4.14.53-8.67.82-13.58.82H224.62c-4.91,0-9.44-.3-13.58-.82-17.58-2.28-31.63-13.74-38.28-28.82,1.66,22.54,18.85,41.98,42.33,45.02,4.14.53,8.67.82,13.58.82h290.92c4.91,0,9.44-.3,13.58-.82,27.93-3.62,46.97-30.43,41.54-58.08"/>
      </g>
      <g class="cls-9">
        <path class="cls-2" d="m183.01,707.75c22.03-112.24,86.87-172.07,86.87-172.07h219.36c-.9-.89-1.4-1.35-1.4-1.35h-227.41s-64.85,59.83-86.87,172.07c-5.42,27.64,13.6,54.45,41.54,58.07,1.49.19,3.04.34,4.62.47-25.26-5.9-41.81-31.17-36.71-57.19"/>
      </g>
      <path class="cls-5" d="m189.33,699.65c1.21-2.07,2.75-3.69,4.42-5.24,1.65-1.57,3.51-2.85,5.36-4.17,3.82-2.37,7.85-4.48,12.06-5.99l3.16-1.15c1.06-.34,2.14-.63,3.21-.95,2.15-.6,4.3-1.24,6.48-1.63,2.18-.44,4.35-.93,6.54-1.32l6.58-.93c2.2-.35,4.4-.47,6.6-.64,2.2-.16,4.4-.37,6.6-.48l6.6-.1c2.2,0,4.41-.15,6.59,0,4.38.22,8.77.31,13.14.7,4.36.43,8.7.92,13.04,1.45,2.1.26,3.6,2.17,3.34,4.28-.25,2-1.99,3.45-3.97,3.37h-.18c-4.27-.21-8.53-.45-12.78-.76-2.12-.19-4.25-.13-6.38-.23l-6.37-.22c-4.25-.08-8.48.02-12.72.02l-6.33.31c-2.11.11-4.23.16-6.31.43-8.42.61-16.69,2.12-24.75,4.24-1,.28-2.03.49-3.03.79l-2.96.97c-2.02.56-3.9,1.41-5.87,2.12-1.9.82-3.81,1.68-5.64,2.66-.48.23-.92.49-1.36.77l-1.36.8c-.84.58-1.77,1.17-2.5,1.8l-.07.06c-.31.27-.79.23-1.06-.08-.21-.25-.23-.6-.08-.87"/>
      <path class="cls-5" d="m557.74,700.54c-.74-.63-1.66-1.22-2.5-1.8l-1.36-.8c-.44-.28-.88-.54-1.36-.77-1.83-.99-3.74-1.84-5.64-2.66-1.97-.72-3.85-1.56-5.87-2.12l-2.96-.97c-.99-.3-2.03-.51-3.03-.8-8.06-2.11-16.32-3.63-24.75-4.24-2.08-.27-4.21-.32-6.31-.43l-6.33-.31c-4.24,0-8.47-.1-12.72-.02l-6.37.22c-2.12.11-4.25.04-6.38.23-4.25.31-8.51.55-12.78.75h-.17c-2.12.11-3.91-1.53-4.01-3.65-.09-2.02,1.4-3.74,3.36-3.99,4.34-.53,8.69-1.02,13.04-1.45,4.36-.39,8.76-.48,13.14-.7,2.19-.15,4.4,0,6.59,0l6.6.1c2.2.12,4.41.32,6.61.48,2.2.18,4.4.3,6.59.65l6.58.93c2.18.39,4.36.88,6.54,1.32,2.18.4,4.33,1.03,6.48,1.63,1.07.32,2.14.61,3.21.95l3.16,1.15c4.21,1.51,8.24,3.62,12.06,5.99,1.85,1.33,3.7,2.6,5.36,4.17,1.68,1.54,3.21,3.16,4.43,5.24.21.36.09.82-.27,1.02-.28.16-.63.12-.86-.08l-.07-.06Z"/>
      <path class="cls-5" d="m519.6,769.14H228.67c-4.91,0-9.65-.29-14.07-.86-14.47-1.87-27.18-9.48-35.77-21.41-8.55-11.87-11.85-26.89-9.04-41.2,22.01-112.18,87.38-173.55,88.04-174.15.71-.65,1.64-1.02,2.6-1.02h113.5c.07,0,.14,0,.21,0,.07,0,.14,0,.21,0h113.5c.97,0,1.89.36,2.6,1.02.66.61,66.03,61.98,88.04,174.15,2.81,14.31-.49,29.33-9.04,41.2-8.59,11.93-21.3,19.54-35.77,21.41-4.43.57-9.16.86-14.07.86Zm-257.62-230.97c-8.41,8.32-64.68,67.17-84.66,168.97-2.4,12.24.42,25.08,7.74,35.24,7.34,10.19,18.18,16.68,30.53,18.28,4.1.53,8.5.8,13.09.8h290.93c4.58,0,8.98-.27,13.08-.8,12.35-1.6,23.19-8.09,30.53-18.28,7.32-10.16,10.13-23,7.73-35.24-20-101.95-76.25-160.67-84.66-168.97h-111.95c-.07,0-.14,0-.21,0-.07,0-.14,0-.21,0h-111.94Z"/>
      <path class="cls-5" d="m271.15,510.67s-3.11-13.62-3.11-27.7c0,0,19.03,15.32,51.24,13.24,0,0-66.83-14.02-81.44-95.36,0,0-3.58,68.84,33.31,109.82"/>
      <path class="cls-5" d="m477.12,510.67s3.11-13.62,3.11-27.7c0,0-19.03,15.32-51.24,13.24,0,0,66.83-14.02,81.44-95.36,0,0,3.58,68.84-33.32,109.82"/>
      <path class="cls-3" d="m487.85,534.32s-21.95,42.35-113.71,45.72c-91.76-3.38-113.71-45.72-113.71-45.72,0-27.9,24.38-34.64,24.38-34.64,0-4.36.58-8.11,1.57-11.34,5.39-17.62,22.77-19.45,22.77-19.45h129.98s13.34,1.4,20.26,13.58c.98,1.73,1.83,3.69,2.51,5.87.99,3.23,1.57,6.98,1.57,11.34,0,0,24.38,6.74,24.38,34.64"/>
      <g class="cls-8">
        <path class="cls-5" d="m463.47,499.68c0-4.36-.58-8.11-1.57-11.34-.43-1.4-.94-2.69-1.5-3.89-.32-.69-.65-1.35-1.01-1.98h0c-6.93-12.17-20.26-13.58-20.26-13.58h-129.98s-17.39,1.84-22.77,19.45c25.62,16.85,59.41,25.57,87.76,25.57,21.54,0,46.2-5.05,68.04-14.86,8.35-3.75,17.5,3.65,15.24,12.52-.11.41-.18.63-.18.63,0,0,8.67-.73,4.67,22.13-4,22.87-87.76,45.72-87.76,45.72,91.76-3.38,113.71-45.72,113.71-45.72,0-27.9-24.38-34.64-24.38-34.64"/>
      </g>
      <g class="cls-8">
        <path class="cls-5" d="m319.28,539.46s-31.43-6.98-41.05-36.85l6.58-2.92s3.34,18.69,34.47,39.78"/>
      </g>
      <g class="cls-9">
        <path class="cls-2" d="m265.83,538.37c0-27.9,24.38-34.64,24.38-34.64,0-4.36.58-8.11,1.57-11.34,5.39-17.62,22.77-19.45,22.77-19.45h129.98s4.89.52,10.29,3.63c-6.99-6.76-15.69-7.68-15.69-7.68h-129.98s-17.39,1.84-22.77,19.45c-.99,3.23-1.57,6.98-1.57,11.34,0,0-24.38,6.74-24.38,34.64,0,0,4.9,9.44,19.73,19.77-10.64-8.62-14.33-15.72-14.33-15.72"/>
      </g>
      <path class="cls-5" d="m466.73,500.52c-.24.75-.45,1.27-.7,1.85-.23.58-.49,1.12-.74,1.67-.51,1.1-1.05,2.16-1.63,3.2-.58,1.04-1.16,2.06-1.8,3.05-.61,1.01-1.27,1.98-1.95,2.93-2.69,3.83-5.74,7.34-8.99,10.6-1.71,1.56-3.32,3.18-5.13,4.6-.89.72-1.75,1.48-2.66,2.17l-2.76,2.02-1.38,1-1.44.92-2.86,1.84c-1.94,1.17-3.95,2.24-5.9,3.36-.16.09-.36.03-.45-.12-.09-.15-.04-.33.09-.43h.02c1.82-1.34,3.66-2.61,5.44-3.97l2.6-2.12,1.29-1.06,1.23-1.13,2.45-2.26c.81-.76,1.55-1.59,2.33-2.38,1.58-1.55,2.95-3.29,4.4-4.95,2.74-3.45,5.22-7.07,7.3-10.87.53-.95,1.03-1.9,1.48-2.88.48-.96.9-1.95,1.31-2.93.41-.98.78-1.98,1.11-2.97.16-.5.33-.99.46-1.48.14-.47.28-1.03.34-1.36.35-1.83,2.12-3.04,3.95-2.7,1.83.35,3.04,2.11,2.7,3.95-.03.13-.06.27-.1.39v.03Z"/>
      <path class="cls-5" d="m288.08,498.84c.06.33.2.89.34,1.36.13.49.3.98.46,1.48.33.99.7,1.99,1.11,2.97.41.98.83,1.97,1.31,2.93.45.98.95,1.93,1.48,2.88,2.07,3.81,4.56,7.42,7.3,10.87,1.45,1.65,2.82,3.39,4.4,4.95.78.79,1.52,1.61,2.33,2.38l2.45,2.26,1.23,1.13,1.3,1.06,2.6,2.12c1.77,1.36,3.62,2.63,5.44,3.96h.02c.15.12.18.33.07.48-.1.14-.29.18-.43.09-1.96-1.12-3.96-2.18-5.9-3.36l-2.87-1.84-1.44-.92-1.38-1-2.76-2.02c-.91-.69-1.77-1.44-2.66-2.17-1.81-1.42-3.43-3.05-5.13-4.6-3.25-3.26-6.3-6.77-8.99-10.6-.68-.95-1.34-1.92-1.95-2.93-.64-.99-1.22-2.01-1.8-3.05-.58-1.04-1.12-2.1-1.63-3.2-.25-.55-.51-1.09-.74-1.67-.24-.59-.45-1.1-.69-1.85v-.02c-.58-1.78.4-3.68,2.17-4.26,1.78-.57,3.68.4,4.26,2.18.04.13.08.28.11.41"/>
      <path class="cls-5" d="m374.14,583.41s-.08,0-.12,0c-92.66-3.4-115.65-45.73-116.58-47.53-.25-.48-.38-1.01-.38-1.55,0-24.67,17.83-34.3,24.44-37.02,1.35-28.7,27.03-31.75,27.3-31.78.12-.01.23-.02.35-.02h129.99c.12,0,.24,0,.35.02.27.03,25.95,3.08,27.3,31.78,6.61,2.72,24.44,12.35,24.44,37.02,0,.54-.13,1.07-.38,1.55-.93,1.8-23.92,44.13-116.58,47.53-.04,0-.08,0-.12,0Zm-110.32-49.99c3.29,5.23,28.32,40.19,110.32,43.24,82.37-3.06,107.07-37.96,110.32-43.23-.5-24.15-21.02-30.25-21.91-30.5-1.45-.41-2.47-1.74-2.47-3.25,0-24.05-19.06-27.15-21.15-27.42h-129.59c-2.04.28-21.16,3.5-21.16,27.42,0,1.52-1.01,2.85-2.48,3.25-.87.25-21.4,6.34-21.9,30.49Zm203.03-33.74h.01-.01Z"/>
      <path class="cls-1" d="m374.14,580.04c-38.11-31.04-37-54.62-37-54.62,3.17-6.29,5.59-12.51,7.42-18.14,0,0,.01-.04.03-.11.05-.11.08-.23.11-.34.42-1.24.78-2.44,1.12-3.62.01-.07.03-.14.05-.2,3.2-10.92,4.06-18.72,4.06-18.72h48.41s2.24,20.21,12.8,41.13c0,0,1.11,23.58-37,54.62"/>
      <g class="cls-8">
        <path class="cls-5" d="m374.14,580.04c-38.11-31.04-37-54.62-37-54.62,13.84,36.98,36.8,39.06,36.8,39.06,24.64-13.8,17.86-49.4,17.86-49.4-29.59,1.32-47.24-7.8-47.24-7.8,0,0,.01-.04.03-.11.05-.11.08-.23.11-.34.18-.62.55-1.89,1.12-3.62.01-.07.03-.14.05-.2,1.42-4.41,3.92-11.64,7.14-18.72h45.33s2.24,20.21,12.8,41.13c0,0,1.11,23.58-37,54.62"/>
      </g>
      <path class="cls-5" d="m374.14,583.41c-.76,0-1.51-.25-2.13-.76-38.98-31.75-38.29-56.36-38.24-57.39.02-.47.14-.94.36-1.36,10.13-20.1,12.43-39.8,12.45-40,.19-1.71,1.64-3,3.35-3h48.41c1.72,0,3.16,1.29,3.35,3,.02.2,2.32,19.9,12.45,40,.21.42.33.89.36,1.36.05,1.03.74,25.64-38.24,57.39-.62.5-1.38.76-2.13.76Zm-33.61-57.23c.23,3.67,2.92,23.69,33.61,49.47,30.64-25.74,33.37-45.74,33.6-49.48-8.14-16.43-11.3-32.12-12.33-38.53h-42.55c-1.03,6.41-4.19,22.1-12.33,38.53Z"/>
      <path class="cls-1" d="m511.05,398.05c-2.15,10.04-5.28,21.78-9.83,33.16-3.82,9.57-8.61,18.87-14.63,26.69-24.22,31.43-73.47,47.91-112.45,47.91s-88.24-16.48-112.45-47.91c-6.02-7.82-10.81-17.12-14.63-26.69-4.55-11.38-7.68-23.11-9.83-33.16-5.98-28.13-3.52-57.52,8.1-83.82,15.47-35.01,50.33-73.18,128.82-73.18s113.35,38.18,128.82,73.18c11.62,26.3,14.08,55.69,8.1,83.82"/>
      <g class="cls-8">
        <path class="cls-5" d="m511.05,385.9c-2.15,10.04-5.28,21.78-9.83,33.16-3.82,9.57-8.61,18.87-14.63,26.69-24.22,31.43-73.47,47.91-112.45,47.91s-88.24-16.48-112.45-47.91c-6.02-7.82-10.81-17.12-14.63-26.69-4.55-11.38-7.68-23.11-9.83-33.16-1.67-7.84-2.65-15.78-2.99-23.72-.53,11.96.48,24.02,2.99,35.87,2.15,10.04,5.28,21.78,9.83,33.16,3.82,9.57,8.61,18.87,14.63,26.69,24.22,31.43,73.47,47.91,112.45,47.91s88.24-16.48,112.45-47.91c6.02-7.82,10.81-17.12,14.63-26.69,4.55-11.38,7.68-23.11,9.83-33.16,2.52-11.84,3.52-23.9,2.99-35.87-.34,7.94-1.33,15.88-2.99,23.72"/>
      </g>
      <path class="cls-5" d="m334.53,404.09c0,12.65-8.38,22.91-18.72,22.91s-18.72-10.26-18.72-22.91,8.38-22.91,18.72-22.91,18.72,10.26,18.72,22.91"/>
      <path class="cls-5" d="m308.48,389.58c-.26-.07-.35-.11-.49-.16l-.36-.14c-.23-.1-.45-.2-.65-.31-.42-.21-.8-.44-1.18-.68-.73-.5-1.41-1.04-2.02-1.65-1.23-1.19-2.16-2.6-2.9-4.02-.66-1.47-1.14-2.96-1.36-4.46-.13-.74-.13-1.5-.2-2.22.02-.74.05-1.47.11-2.18.02-.24.23-.42.47-.4.15.01.28.1.35.23v.03c.67,1.25,1.3,2.43,2.06,3.49.73,1.06,1.55,2,2.43,2.78.87.79,1.82,1.39,2.76,1.85.46.25.96.41,1.42.56.23.06.46.14.68.18.11.03.22.05.31.05.05,0,.1.02.12.02.02,0,.1.01,0-.02,1.95.43,3.18,2.36,2.75,4.31-.43,1.95-2.36,3.18-4.31,2.75"/>
      <path class="cls-5" d="m306.52,397.22c-.26.07-.36.08-.51.11l-.39.06c-.25.03-.49.05-.72.06-.47.03-.91.02-1.36,0-.88-.07-1.75-.2-2.57-.42-1.66-.42-3.17-1.17-4.52-2.03-1.31-.95-2.46-2-3.4-3.18-.48-.58-.87-1.23-1.28-1.83-.36-.65-.69-1.3-.99-1.95-.1-.22,0-.48.21-.58.14-.06.29-.05.41.02l.03.02c1.19.75,2.33,1.46,3.51,2,1.17.55,2.34.95,3.49,1.19,1.14.25,2.27.29,3.32.22.52-.02,1.03-.12,1.51-.23.23-.06.47-.11.68-.18.11-.03.21-.07.29-.11.04-.02.1-.03.11-.05.02-.01.09-.04-.01-.02,1.9-.6,3.93.45,4.53,2.35.6,1.9-.45,3.93-2.35,4.53"/>
      <path class="cls-2" d="m326.42,409.59c0,4.83-3.2,8.74-7.14,8.74s-7.14-3.92-7.14-8.74,3.2-8.74,7.14-8.74,7.14,3.91,7.14,8.74"/>
      <path class="cls-5" d="m413.74,404.09c0,12.65,8.38,22.91,18.71,22.91s18.72-10.26,18.72-22.91-8.38-22.91-18.72-22.91-18.71,10.26-18.71,22.91"/>
      <path class="cls-5" d="m438.23,382.53c-.1.03-.03.02,0,.02.02,0,.08,0,.12-.02.09,0,.2-.03.31-.05.22-.04.45-.11.68-.18.47-.15.96-.31,1.42-.56.94-.46,1.9-1.06,2.76-1.85.87-.78,1.69-1.72,2.43-2.78.75-1.06,1.38-2.24,2.04-3.49v-.02c.13-.21.39-.3.6-.18.14.07.22.21.23.35.06.72.09,1.44.11,2.18-.06.72-.07,1.48-.2,2.22-.22,1.5-.69,2.98-1.35,4.46-.74,1.42-1.67,2.83-2.9,4.02-.6.6-1.29,1.14-2.02,1.65-.38.23-.76.47-1.18.68-.21.11-.42.21-.65.31l-.36.14c-.14.05-.23.09-.5.16-1.95.43-3.88-.8-4.31-2.75-.43-1.95.8-3.88,2.75-4.31"/>
      <path class="cls-5" d="m443.93,390.34c-.1-.02-.03,0-.01.02.02.01.07.03.12.05.08.04.18.08.29.11.2.08.45.13.68.18.48.1.99.21,1.51.23,1.05.07,2.17.03,3.32-.22,1.15-.24,2.32-.64,3.49-1.19,1.18-.54,2.32-1.25,3.51-2h.02c.21-.14.48-.08.6.12.08.13.09.29.03.42-.3.65-.64,1.3-.99,1.95-.42.6-.8,1.25-1.28,1.83-.94,1.19-2.09,2.24-3.4,3.18-1.35.86-2.86,1.61-4.52,2.03-.82.22-1.69.35-2.57.42-.45.01-.89.03-1.36,0-.23,0-.47-.03-.72-.06l-.38-.06c-.15-.03-.24-.04-.51-.11-1.9-.6-2.96-2.63-2.35-4.54.6-1.9,2.63-2.96,4.54-2.35"/>
      <path class="cls-2" d="m421.85,409.59c0,4.83,3.2,8.74,7.14,8.74s7.14-3.92,7.14-8.74-3.2-8.74-7.14-8.74-7.14,3.91-7.14,8.74"/>
      <path class="cls-5" d="m395.1,447.57c.66,5.08-1.95,10.39-6.31,13.65-4.39,3.19-9.75,4.36-14.65,4.36-4.9.06-10.29-1.04-14.76-4.2-2.19-1.62-4.03-3.75-5.18-6.15-1.13-2.44-1.71-4.94-1.41-7.64.08-.75.76-1.3,1.51-1.22.5.06.9.37,1.1.79l.12.26c.38.83.87,1.81,1.38,2.64.57.82,1.09,1.63,1.78,2.29,1.28,1.38,2.75,2.44,4.34,3.24,3.26,1.53,7.06,2.16,11.12,2.17,4.06.05,7.88-.5,11.23-2,1.64-.79,3.16-1.85,4.49-3.25,1.36-1.36,2.47-3.19,3.3-5.07l.07-.16c.22-.5.8-.72,1.3-.5.32.14.53.44.58.77"/>
      <g class="cls-8">
        <path class="cls-5" d="m511.05,398.05c-2.15,10.04-5.28,21.78-9.83,33.16,4.89-39.73-.23-74.21-.23-74.21-16.59,9.34-32.55,1.7-32.55,1.7-7.55,9.67-15.51,5.12-15.51,5.12-42.4,9.02-62.61-1.47-62.61-1.47-29.01,12.19-44.6-2.66-44.6-2.66-21.2,12.42-37.53-5.37-37.53-5.37-17.05-29.73-22.25-48.82-22.25-48.82-22.75,22.75-38.66,51.5-38.66,51.5,0,0-5.12,34.48-.23,74.21-4.55-11.38-7.68-23.11-9.83-33.16-5.98-28.13-3.52-57.52,8.1-83.82,15.47-35.01,50.33-73.18,128.82-73.18s113.35,38.18,128.82,73.18c11.62,26.3,14.08,55.69,8.1,83.82"/>
      </g>
      <path class="cls-5" d="m374.14,509.18c-37.18,0-89.07-15.4-115.12-49.22-13.77-17.87-21.25-43.15-25.09-61.21-6.3-29.63-3.43-59.33,8.31-85.88,15.16-34.3,50.35-75.2,131.91-75.2s116.75,40.89,131.91,75.2c11.74,26.55,14.61,56.25,8.31,85.88-3.84,18.05-11.31,43.33-25.09,61.21-26.05,33.82-77.94,49.22-115.12,49.22Zm0-264.76c-77.92,0-111.38,38.71-125.73,71.18-11.16,25.25-13.89,53.52-7.88,81.75,3.7,17.37,10.83,41.62,23.84,58.5,24.66,32.01,74.19,46.59,109.78,46.59s85.11-14.58,109.78-46.59c13-16.88,20.14-41.13,23.84-58.5,6.01-28.23,3.28-56.5-7.88-81.75-14.35-32.47-47.81-71.18-125.73-71.18Z"/>
      <path class="cls-7" d="m544.97,510.1l-4.12-25.42c-27.82,48.42-81.04,43.27-81.04,43.27,67.47-52.54,48.41-180.79,48.41-180.79-17.54,9.87-34.4,1.8-34.4,1.8-7.98,10.22-16.39,5.41-16.39,5.41-44.82,9.53-66.19-1.55-66.19-1.55-30.66,12.88-47.14-2.82-47.14-2.82-22.4,13.14-39.66-5.67-39.66-5.67-18.02-31.43-23.52-51.6-23.52-51.6-24.04,24.04-40.86,54.43-40.86,54.43,0,0-19.06,128.25,48.41,180.79,0,0-53.22,5.16-81.04-43.27l-4.12,25.42s-30.4-37.41-34.79-109.26c-1.61-26.23.26-57.05,8.34-92.33,30.23-131.87,101.28-177.88,197.28-177.88,72.85,0,131.31,26.49,168.49,96.88,11.83,22.38,21.49,49.19,28.78,81,30.21,131.87-26.45,201.58-26.45,201.58"/>
      <g class="cls-8">
        <path class="cls-5" d="m544.97,510.1l-4.12-25.42c-27.82,48.42-81.04,43.27-81.04,43.27,67.47-52.54,48.41-180.79,48.41-180.79-17.54,9.87-34.4,1.8-34.4,1.8-7.98,10.22-16.39,5.41-16.39,5.41-44.82,9.53-66.19-1.55-66.19-1.55-30.66,12.88-47.14-2.82-47.14-2.82-22.4,13.14-39.66-5.67-39.66-5.67-18.02-31.43-23.52-51.6-23.52-51.6-24.04,24.04-40.86,54.43-40.86,54.43,0,0-19.06,128.25,48.41,180.79,0,0-53.22,5.16-81.04-43.27l-4.12,25.42s-30.4-37.41-34.79-109.26c0,0,2.39,37.76,33.18,62.53,0,0-7.03-26.73-2.22-47.67,0,0,10.71,39.36,34.58,63.25-.46-1.97-27.28-117.84,18.36-189.24,0,0,4.64,5.78,16.19-2.4,0,0-10.31-58.45,21.67-93.15,0,0-33.69,52.74,9.59,141.93,0,0,37.27,16.72,41.89-.66,0,0,21.51,12.66,37.38,3.2,0,0-6.57-21.8,0-42.66,0,0,9.29,69.3,74.74,48.44,0,0,9.26,1.93,6.25-7.84,0,0-6.13-24.56-1.92-40.67,0,0,13.95,54.38,46.67,43.31,32.71-11.07,5.33-108.86-20.88-130.6.96.43,31.68,15.05,44.94,116.88,0,0,13,22.14-7.7,29.84,0,0,3.58,61.91-7.03,107.78,0,0,13.14-7.96,28.53-46.91,0,0,4,17.51,2.9,39.54.96-1.7,47.83-85.52-2.94-228.08-.01-.04-.03-.1-.05-.14,11.83,22.38,21.49,49.19,28.78,81,30.21,131.87-26.45,201.58-26.45,201.58"/>
      </g>
      <g class="cls-9">
        <path class="cls-2" d="m374.14,130.64c-96,0-167.05,46.01-197.28,177.88-8.09,35.28-9.95,66.1-8.34,92.33,3.25,53.24,20.78,87.55,29.64,101.76-9.23-17.53-21.57-48.5-24.24-92.31-1.61-26.23.26-57.05,8.34-92.33,14.02-61.17,36.83-103.86,66.84-132.06,3.93,1.55,11.3-.23,18.41-4.82,8.7-5.61,13.74-13.28,11.44-17.3,29.04-16.6,62.89-23.7,100.59-23.7,68.67,0,124.56,23.56,161.89,85.22-37.23-68.72-95.21-94.67-167.29-94.67"/>
      </g>
      <g class="cls-9">
        <path class="cls-2" d="m290.27,194.16s-29.93,86.42,33.99,159.4c0,0-9.87.56-20.5-8.94,0,0-52.62-77.76-13.5-150.46"/>
      </g>
      <path class="cls-5" d="m508.29,343.78c-.05,0,.19-.01.31-.02l.5-.05c.34-.04.71-.1,1.07-.17.73-.13,1.48-.31,2.23-.5,1.5-.4,3.01-.92,4.51-1.48,1.5-.56,2.98-1.22,4.46-1.91l1.1-.54.55-.27.39-.22c.51-.3.98-.65,1.41-1.05.84-.82,1.5-1.82,1.87-2.92.19-.55.31-1.12.37-1.7.01-.29.04-.58.02-.87,0-.12,0-.32-.03-.54l-.04-.63c-.22-3.35-.48-6.71-.81-10.07-.63-6.72-1.64-13.4-2.77-20.06-.65-3.31-1.19-6.65-1.97-9.93l-1.09-4.95c-.38-1.64-.82-3.27-1.22-4.91-3.32-13.08-7.72-25.91-13.63-38.02-5.97-12.1-13.22-23.44-21.72-34.21-.07-.09-.06-.23.04-.3.08-.06.19-.06.27,0,10.84,8.61,19.09,20.2,25.48,32.44,6.46,12.27,11.39,25.28,15.21,38.57,3.82,13.3,6.37,26.93,8,40.66.39,3.44.75,6.88.97,10.35l.05.65c.02.21.03.43.04.74.03.56,0,1.12-.04,1.69-.1,1.12-.34,2.23-.7,3.3-.72,2.14-1.98,4.07-3.59,5.63-.81.77-1.72,1.45-2.68,2.02l-.73.41-.6.3-1.2.59c-1.62.76-3.25,1.5-4.95,2.14-1.69.65-3.43,1.22-5.23,1.69-.91.23-1.82.44-2.77.6-.48.08-.96.16-1.46.21l-.77.07c-.3.02-.48.04-.97.03-1.86-.04-3.34-1.58-3.3-3.45.04-1.86,1.58-3.34,3.45-3.3"/>
      <path class="cls-5" d="m277.68,293.67c-1.21-4.34-2.01-8.49-2.71-12.78-.7-4.26-1.21-8.53-1.51-12.83-.6-8.58-.71-17.22.2-25.79.43-4.28,1.01-8.55,1.85-12.78.82-4.23,1.83-8.42,3.11-12.52.62-2.06,1.38-4.08,2.13-6.09.39-1,.84-1.98,1.26-2.97.41-.99.86-1.97,1.36-2.92,1.82-3.89,4.16-7.52,6.64-10.97.1-.14.29-.17.42-.07.11.08.16.23.1.36h0c-3.14,7.89-5.9,15.72-7.81,23.81-1.03,4.01-1.8,8.09-2.38,12.19-.61,4.1-.96,8.23-1.16,12.37-.38,8.27-.16,16.58.7,24.82.44,4.12,1,8.22,1.69,12.3.69,4.04,1.57,8.18,2.57,11.99l.03.12c.48,1.8-.6,3.65-2.4,4.12-1.79.47-3.62-.58-4.11-2.36"/>
      <path class="cls-5" d="m236.7,346.74c.66-4.99,1.54-9.81,2.55-14.66.96-4.85,2.16-9.64,3.38-14.42,1.19-4.79,2.65-9.51,4.12-14.22,1.53-4.69,3.22-9.33,5.1-13.89.13-.31.48-.45.79-.33.27.11.41.39.36.66h0c-.88,4.85-1.9,9.63-2.74,14.45-.49,2.39-.9,4.8-1.34,7.2l-1.25,7.21c-.85,4.8-1.53,9.62-2.28,14.43-.7,4.8-1.38,9.66-1.98,14.39v.05c-.24,1.85-1.93,3.16-3.78,2.92-1.85-.23-3.16-1.93-2.92-3.77v-.02Z"/>
      <path class="cls-5" d="m388.31,354.51c-1.03-2.15-1.72-4.04-2.43-6.07-.7-2-1.3-4.01-1.87-6.02-1.12-4.03-2-8.09-2.74-12.17-.7-4.08-1.26-8.17-1.62-12.27-.22-2.04-.3-4.1-.46-6.14-.1-2.05-.15-4.1-.23-6.14,0-.09.07-.16.15-.16.08,0,.15.06.16.14.35,2.02.66,4.03,1.03,6.03.42,2,.76,4,1.24,5.98.89,3.96,1.96,7.88,3.15,11.73,1.23,3.84,2.59,7.63,4.16,11.31.79,1.83,1.6,3.65,2.5,5.41.87,1.73,1.86,3.57,2.79,5l.04.06c1.02,1.56.59,3.66-.98,4.69-1.56,1.02-3.66.59-4.69-.98-.08-.12-.16-.27-.22-.4"/>
      <path class="cls-5" d="m471.3,351.2c-.43-.55-.66-.91-.95-1.35l-.77-1.26c-.48-.84-.94-1.67-1.36-2.52-.86-1.68-1.61-3.39-2.32-5.1-1.4-3.43-2.51-6.92-3.49-10.43-1-3.5-1.73-7.05-2.42-10.59-.32-1.77-.59-3.56-.89-5.33l-.7-5.34c-.03-.22.13-.42.35-.45.2-.03.39.1.44.29h0s1.42,5.17,1.42,5.17c.54,1.7,1.04,3.4,1.6,5.09,1.15,3.36,2.34,6.69,3.77,9.91,1.4,3.23,2.92,6.39,4.66,9.37.88,1.49,1.78,2.95,2.75,4.33.48.7.98,1.36,1.49,2.02l.77.93c.24.28.56.63.7.76,1.44,1.21,1.62,3.36.4,4.8-1.21,1.44-3.36,1.62-4.8.4-.17-.15-.33-.31-.47-.48l-.18-.23Z"/>
      <path class="cls-5" d="m284.49,531.45c-12.72,0-50.73-3.06-75.14-37.51l-2.71,16.69c-.21,1.31-1.18,2.38-2.46,2.72-1.28.35-2.65-.1-3.49-1.13-.59-.73-14.7-18.33-25.16-52.48-9.6-31.33-17.73-83.14-1.95-151.98,14.79-64.53,39.35-110.4,75.1-140.23,32.48-27.1,73.52-40.27,125.46-40.27s92.99,13.17,125.46,40.27c35.74,29.83,60.31,75.69,75.1,140.23,15.78,68.85,7.65,120.65-1.95,151.98-10.46,34.15-24.57,51.75-25.16,52.48-.84,1.03-2.21,1.48-3.49,1.13-1.29-.34-2.25-1.41-2.46-2.72l-2.71-16.69c-29.52,41.65-78.92,37.42-79.45,37.36-1.38-.13-2.53-1.09-2.92-2.42-.38-1.33.08-2.76,1.17-3.6,58.01-45.17,50.24-149.8,47.72-173.03-13.36,5.6-25.57,2.51-30.63.72-6.57,6.93-13.82,6.52-17.8,4.92-38.73,8.01-60.19.94-65.84-1.41-25.79,10.29-42.01,1.44-47.42-2.46-23.49,12.08-41.62-7.22-41.8-7.43-.17-.18-.32-.39-.44-.6-12.75-22.22-19.28-38.79-22.09-46.88-19.7,20.92-33.89,45.24-36.11,49.14-1.27,9.55-15.56,128.14,47.24,177.04,1.09.85,1.55,2.28,1.17,3.6-.39,1.33-1.54,2.28-2.92,2.42-.09,0-1.65.14-4.31.14Zm223.73-187.68c.51,0,1.02.11,1.48.34,1,.49,1.69,1.44,1.85,2.54.05.32,4.78,32.92,1.12,71.51-4.48,47.14-19.58,83.72-43.85,106.49,15.75-.79,49.06-6.79,69.09-41.66.71-1.24,2.13-1.9,3.53-1.64,1.41.26,2.5,1.37,2.73,2.78l2.78,17.12c4.96-7.89,12.99-22.65,19.45-43.87,9.28-30.49,17.11-80.93,1.71-148.12-27.4-119.57-89.04-175.26-193.98-175.26s-166.58,55.69-193.98,175.26c-15.4,67.19-7.57,117.63,1.71,148.12,6.46,21.22,14.5,35.98,19.45,43.87l2.78-17.12c.23-1.41,1.32-2.52,2.73-2.78,1.39-.26,2.82.4,3.53,1.64,20.03,34.87,53.34,40.87,69.09,41.66-24.27-22.78-39.37-59.35-43.85-106.49-3.67-38.59,1.07-71.19,1.12-71.51.06-.4.19-.79.38-1.14.7-1.26,17.34-31.08,41.43-55.18.85-.85,2.09-1.18,3.25-.88,1.16.31,2.07,1.21,2.39,2.37.05.2,5.59,20.05,22.99,50.45,2.08,2.11,16.61,15.71,35.23,4.79,1.3-.76,2.95-.57,4.04.47.6.56,15.45,13.95,43.5,2.16.92-.39,1.97-.35,2.86.11.19.1,21.1,10.35,63.94,1.24.81-.17,1.66-.04,2.38.37.58.31,6.18,2.98,12.06-4.56.97-1.25,2.69-1.65,4.12-.97.62.29,15.56,7.15,31.28-1.7.51-.29,1.08-.43,1.66-.43Z"/>
      <path class="cls-6" d="m546.44,589.68l-22.68,176.03H224.51l-7.44-57.73-15.24-118.3c-1.19-9.15,5.94-17.26,15.18-17.26h314.25c9.24,0,16.36,8.12,15.18,17.26"/>
      <g class="cls-10">
        <path class="cls-2" d="m546.15,584.23c-1.57-6.69-7.56-11.81-14.89-11.81H217.01c-9.23,0-16.36,8.12-15.18,17.26l15.24,118.3,7.44,57.73h8.46l-6.02-46.76-15.25-118.3c-1.18-9.15,5.95-17.26,15.18-17.26h26.78c.53,4.4,12.21,7.92,26.55,7.92s26.02-3.52,26.55-7.92h234.37c1.77,0,3.45.3,5.02.85"/>
      </g>
      <path class="cls-5" d="m523.76,769.56H224.51c-1.93,0-3.56-1.43-3.81-3.35l-22.69-176.04c-.7-5.46.98-10.96,4.61-15.09,3.63-4.13,8.87-6.5,14.37-6.5h314.27c5.5,0,10.74,2.37,14.38,6.5,3.63,4.13,5.31,9.63,4.61,15.09l-22.69,176.04c-.25,1.91-1.88,3.35-3.81,3.35Zm-295.87-7.68h292.5l22.26-172.69c.42-3.27-.59-6.56-2.76-9.04-2.18-2.48-5.31-3.89-8.61-3.89H217c-3.29,0-6.43,1.42-8.61,3.89-2.18,2.47-3.18,5.77-2.76,9.04l22.26,172.69Z"/>
      <path class="cls-6" d="m518.4,773.12H229.88c-5.71,0-10.34-4.63-10.34-10.34s4.63-10.34,10.34-10.34h288.52c5.71,0,10.34,4.63,10.34,10.34s-4.63,10.34-10.34,10.34"/>
      <g class="cls-8">
        <path class="cls-5" d="m518.4,752.44h-46.71c0,.16.02.31.02.47,0,5.71-4.63,10.34-10.34,10.34h-241.8c.25,5.49,4.76,9.87,10.32,9.87h288.52c5.71,0,10.34-4.63,10.34-10.34s-4.63-10.34-10.34-10.34"/>
      </g>
      <path class="cls-5" d="m518.4,776.96H229.88c-7.82,0-14.18-6.36-14.18-14.18s6.36-14.18,14.18-14.18h288.52c7.82,0,14.18,6.36,14.18,14.18s-6.36,14.18-14.18,14.18Zm-288.52-20.68c-3.59,0-6.5,2.92-6.5,6.5s2.92,6.5,6.5,6.5h288.52c3.58,0,6.5-2.92,6.5-6.5s-2.92-6.5-6.5-6.5H229.88Z"/>
      <path class="cls-5" d="m.71,772.29c15.56-2.44,31.12-2.62,46.68-2.6l46.68-.16,93.36-.33,186.71-.63h93.36s93.36.13,93.36.13l93.36.26,46.68.14c7.78.05,15.56.3,23.34.79,7.78.54,15.56,1.21,23.34,2.53.39.07.66.44.59.83-.05.31-.3.54-.59.59-7.78,1.32-15.56,1.98-23.34,2.53-7.78.49-15.56.74-23.34.79l-46.68.14-93.36.26-93.36.11h-93.36s-186.71-.62-186.71-.62l-93.36-.33-46.68-.16c-15.56.01-31.12-.16-46.68-2.6-.46-.07-.77-.5-.7-.96.06-.37.35-.65.7-.7"/>
      <g id="assets">
        <path class="cls-4" d="m413.75,643.32c.02.59-.12,1.17-.41,1.68l-4.37,7.81c-.03.06-.07.12-.12.19l-13.63,19.37c-.09.13-.19.24-.3.35l-3.8,3.47c-.25.23-.44.51-.56.82l-6.15,16.55c-.02.06-.05.13-.06.2l-8.5,32.12c-.24.92-1.08,1.57-2.04,1.57s-1.79-.65-2.04-1.57l-8.5-32.12c-.02-.07-.04-.13-.06-.2l-6.15-16.55c-.12-.31-.31-.6-.56-.82l-3.8-3.47c-.11-.1-.21-.22-.3-.35l-13.63-19.37c-.04-.06-.08-.12-.12-.19l-4.35-7.78c-.3-.53-.44-1.14-.41-1.75l.41-7.7c.02-.37.1-.74.24-1.08l8.87-21.93c.03-.07.06-.13.1-.19,1.21-1.79,4.06-.8,3.84,1.4l-1.42,23.19c-.08.82.32,1.61,1.03,2.03l4.02,2.37c.14.08.26.17.38.28l8.38,7.92c.84.79,2.16.77,2.96-.07l3.49-3.6c.35-.37.56-.85.59-1.35v-.05c.02-.32.11-.64.27-.92l4.91-8.76c.81-1.44,2.88-1.44,3.68,0l4.91,8.76c.16.28.25.59.27.92v.05c.03.51.24.99.59,1.35l3.49,3.6c.8.83,2.13.86,2.96.07l8.38-7.92c.12-.11.24-.21.38-.28l4.02-2.37c.71-.42,1.11-1.21,1.03-2.03l-1.42-23.19c-.1-.98.5-1.9,1.43-2.21.9-.3,1.88.04,2.41.81.04.06.07.12.1.19,2.97,7.35,5.94,14.7,8.92,22.04.12.29.19.59.22.89.2,1.95.34,6.01.4,7.81h0Z"/>
      </g>
    </g>
  </g>
</svg>