<svg xmlns="http://www.w3.org/2000/svg" enable-background="new 0 0 2384 1684" viewBox="0 0 2384 1684"><rect width="2384" height="1684" fill="none"/><path fill="#009344" d="M2166.29,737.77c0,0-530.62,769.59-1165.37,946.23h-66.39l1218.95-957.02L2166.29,737.77z"/><polygon fill="#39b44a" points="2238.64 333.85 2238.64 786.29 2208.53 773.33"/><path fill="#95e288" d="M0,1684c0,0,1132.76,8.16,1967.12-1047.95l-50.82-56.88l322.35-245.32l-30.11,439.48l-55.06-46.35
		c0,0-578.6,820.61-1218.95,957.02L0,1684z"/><path fill="#414042" d="M1850.91,361.13l-29.16,76.71l-82.21,59.14c0,0,13.69,26.49,18.98,24.78c5.29-1.71,104.96-65.79,112.71-78.25
		c7.74-12.46,42.98-65.02,42.98-65.02l87.63,10.88c0,0,10.92,24.29,18.46,35.94c7.53,11.65,31.12,41.12,31.12,41.12l20.23-18.2
		c0,0-36.45-88.51-55.86-100.78c-19.41-12.28-85.74-25.22-85.74-25.22l-72.71,17.28L1850.91,361.13z"/><path fill="#231f20" d="M1892.96,181.72c0,0,5.4-2.43,2.22-15.48c-3.18-13.05-8.18-14.19-8.18-14.19s2.04,7.93-6.67,10.73
		c-8.71,2.81-28.63,0.65-37.76,14.93c-9.13,14.28,12.03,38.35,18.43,39.04c6.4,0.68,2.18-0.7,2.18-0.7L1892.96,181.72z"/><path fill="#f99e8a" d="M1886.05,180.52c0,0,5.59,20.52,3.24,28.14c-2.35,7.62-9.05,6.01-9.05,6.01l3.95,8.06
		c-0.13,0.85-0.88,5.38-4.53,7.51c-4.31,2.52-11.13,0.82-15.23-4.98l-2.24-16.53c0,0-7.52,0.11-7.77-5.99
		c-0.25-6.1,2.99-9.89,4.33-9.98c1.34-0.09,4.21,2.42,4.21,2.42l0.07-7.23c0,0,4.23-10.29,10.62-8.58
		C1880.05,181.08,1886.05,180.52,1886.05,180.52z"/><path fill="#27a9e0" d="M1928.23,327.26l-44.94,9.69l-16.28-89.86l-2.58-21.83c6.76,4.2,13.82,3.95,16.87,0.46
		c0.57-0.66,1.76-2.3,1.78-5.45l24.84,28.04L1928.23,327.26z"/><path fill="#58595b" d="M1861.98,221.93c0,0-22.29,7.53-32.55,21.49c-10.26,13.95-28.51,41.47-28.51,41.47l-33.64,47.93l15.08,11.62
		l60.5-78.57c0,0,4.37,28.46,6.29,43.98c1.92,15.52-4.2,49.77-4.2,49.77l48.9-12.34c0,0-20.8-61.28-18.41-83.68
		c2.39-22.4-7.99-39.66-7.99-39.66L1861.98,221.93z"/><path fill="#58595b" d="M1883.08,220.27c0,0,11.23,14.58,16.76,29.62c5.54,15.04,4.36,40.14,10.02,53.42
		c5.66,13.28,18.7,35.51,18.7,35.51l12.54-6.79c0,0-15.84-28.88-20.35-43.91c-4.5-15.03-2.63-27.31-2.63-27.31l29.96,11.97
		l41.7-27.19l-10.56-18.91l-37.84,21.82c0,0-29.19-26.29-39.4-28.15C1891.78,218.5,1883.08,220.27,1883.08,220.27z"/><path fill="#f99e8a" d="M1981.69,226.49c2.81-1.33,6.12-3.42,6.28-6.23c0.05-0.86-0.22-1.37-0.62-2.46
		c-1.07-2.88-2.94-9.32-1.32-10.48c1.13-0.81,3.87,1.01,6.41,2.83c6.95,4.97,10.03,10.45,14.32,18.3c1.4,2.56,2.48,5.36,1.65,7.58
		c-0.2,0.55-0.8,1-2.02,1.55c-3.98,1.8-18.46,5.95-18.46,5.95l-7.36-14.44L1981.69,226.49z"/><path fill="#8a5e3c" d="M2111.98,432.33l-6.42,3.35L1919.93,79.4c0.02-0.2,0.31-2.28,2.27-3.34c2.03-1.1,4.01-0.09,4.16-0.01
		C1988.23,194.81,2050.1,313.57,2111.98,432.33z"/><path fill="#f99e8a" d="M2002.17,219.01l-4.27,2.88c-1.18,0.79-2.78,0.48-3.57-0.7l0,0c-0.79-1.18-0.48-2.78,0.7-3.57l4.27-2.88
		c1.18-0.79,2.78-0.48,3.57,0.7v0C2003.66,216.62,2003.35,218.22,2002.17,219.01z"/><path fill="#f99e8a" d="M2006.07,222.91l-4.27,2.88c-1.18,0.79-2.78,0.48-3.57-0.7l0,0c-0.79-1.18-0.48-2.78,0.7-3.57l4.27-2.88
		c1.18-0.79,2.78-0.48,3.57,0.7l0,0C2007.56,220.52,2007.25,222.12,2006.07,222.91z"/><path fill="#f99e8a" d="M2008.51,228.41l-4.27,2.88c-1.18,0.79-2.78,0.48-3.57-0.7l0,0c-0.79-1.18-0.48-2.78,0.7-3.57l4.27-2.88
		c1.18-0.79,2.78-0.48,3.57,0.7l0,0C2010,226.02,2009.69,227.62,2008.51,228.41z"/><path fill="#f99e8a" d="M2010.5,233.26l-4.27,2.88c-1.18,0.79-2.78,0.48-3.57-0.7l0,0c-0.79-1.18-0.48-2.78,0.7-3.57l4.27-2.88
		c1.18-0.79,2.78-0.48,3.57,0.7l0,0C2011.99,230.87,2011.68,232.47,2010.5,233.26z"/><rect width="7.11" height="4.17" x="1757.29" y="352.17" fill="#594a42" transform="rotate(-17.88 1760.812 354.309)"/><rect width="3.68" height="10.54" x="1757.96" y="352.67" fill="#594a42" transform="rotate(-17.88 1759.728 357.993)"/><path fill="#f99e8a" d="M1767.6,333.84c0,0-7.89,8.81-7.88,10.7c0.01,1.89-0.83,8.6,1.7,10.87c2.54,2.27,6.03,3.8,8.62,3.31
		c2.59-0.49,6.76-1.92,6.29-3.92c-0.47-1.99-3.12-3.29-3.43-3.19c-0.31,0.1-4.14,0.22-4.29-0.25c-0.15-0.47,1.56,0.27,6.27-1.08
		c4.71-1.35,6.26-6.77,6.26-6.77l-12.85-9.9L1767.6,333.84z"/><rect width="85.29" height="53.92" x="1738.05" y="358.11" fill="#594a42" transform="rotate(-17.88 1780.663 385.122)"/><rect width="5.56" height="8.99" x="1780.08" y="346.83" fill="#594a42" transform="rotate(-17.88 1782.837 351.374)"/><path fill="#594a42" d="M1784.92,348.68l-15.39,4.97c-0.96-0.15-1.74-0.86-1.95-1.78c-0.28-1.23,0.62-2.14,0.67-2.19
		c5.13-1.66,10.26-3.31,15.39-4.97L1784.92,348.68z"/><path fill="#3c2415" d="M1754.35,519.67c0.19,9.23-0.61,18.5,0.41,27.68c0.75,6.68,1.7,9.92-0.24,14.15
		c-0.34,0.76-2.64,5.8-6.96,7.08c-8.64,2.54-18.98-11.8-20.15-13.43c-1.97-2.72-0.8-22.14-6.1-42.33c-0.44-1.7,1.08-3.54,3.43-5.29
		c5.55-4.13,15.71-7.75,15.71-7.75L1754.35,519.67z"/><path fill="#8a5e3c" d="M1747.55,568.57c-8.64,2.54-18.98-11.8-20.15-13.43c-1.97-2.72-0.8-22.14-6.1-42.33
		c-0.44-1.7,1.08-3.54,3.43-5.29c0,0,4.29,20.68,5.89,30.97c1.6,10.29,4.5,20.34,7.37,22.85
		C1740.85,563.85,1747.55,568.57,1747.55,568.57z"/><path fill="#3c2415" d="M2066.22,449.87c8.81-2.74,17.95-4.54,26.48-8.07c6.21-2.57,9.06-4.38,13.67-3.69
		c0.82,0.12,6.3,0.93,8.73,4.73c4.84,7.59-6.07,21.5-7.32,23.09c-2.07,2.64-21.05,6.91-38.97,17.6c-1.51,0.9-3.7-0.05-6.04-1.83
		c-5.51-4.18-11.8-12.95-11.8-12.95L2066.22,449.87z"/><path fill="#8a5e3c" d="M2115.09,442.84c4.84,7.59-6.07,21.5-7.32,23.09c-2.07,2.64-21.05,6.91-38.97,17.6
		c-1.51,0.9-3.7-0.05-6.04-1.83c0,0,18.68-9.85,28.12-14.25c9.44-4.39,18.3-9.96,19.91-13.42
		C2112.41,450.59,2115.09,442.84,2115.09,442.84z"/><polygon fill="#603913" points="1737.12 388.91 1778.51 385.78 1819.06 365.11 1813 346.32 1731.83 372.5"/><path fill="#ec1c24" d="M1920.93,80.96c0,0-26.21,3.24-33.2,14.47c-6.99,11.23-14.22,22.34-17.24,23.72
		c-3.02,1.38-15.37,8.02-15.37,8.02s7.95,15.8,30.26,1.46c22.31-14.34,38.3-19.94,45.06-18.21c6.75,1.74,7.87,0.73,7.87,0.73
		l1.3-1.03l-15.24-30.79L1920.93,80.96z"/><path fill="#e6e7e8" d="M645.46,1259.65c0.18,0.26,9.51,17.88,9.51,17.88l3.77-1.99l-9.89-18.8L645.46,1259.65z"/><polygon fill="#914739" points="605.3 1316.62 597.85 1324.25 592.1 1322.37 603.02 1314.15 654.42 1332.56"/><path fill="#754c29" d="M600.82,1239.84c0,0,25.45,8.72,25.8,9.51c0.35,0.79,50.28,85.06,50.28,85.06l-22.47-1.85L600.82,1239.84z"/><polygon fill="#603913" points="599.5 1386.48 654.42 1332.56 676.9 1334.41 623.27 1391.51"/><polygon fill="#754c29" points="600.82 1239.84 599.5 1241.48 556.17 1295.57 599.5 1386.48 654.42 1332.56"/><path fill="#603913" d="M640.67,1267.13l-7.84,10.07c0,0-1.57,0.25-2.97-0.03c-0.92-0.18-1.76-0.58-2.06-1.41
		c-0.76-2.11-1.18-3.17-1.18-3.17s7.98-9.92,12.39-7.16l0.65,0.66L640.67,1267.13z"/><path fill="#e6e7e8" d="M640.67,1267.13l-7.84,10.07c0,0-1.57,0.25-2.97-0.03l9.8-11.08L640.67,1267.13z"/><path fill="#f9b884" d="M647.05,1263.96c0,0-14.26,5.99-14.44,10.92c-0.18,4.93,5.28,16.38,7.22,16.73
		c1.94,0.35,12.86-0.7,13.38-4.58c0.53-3.87,1.21-10.55,1.21-10.55L647.05,1263.96z"/><path fill="#603913" d="M646.93,1300.77c-1.03,0.57-2.14,0.79-3.17,0.67c-0.89-0.09-1.72-0.44-2.35-1.03c-1.09-1-1.26-2.37-1.29-2.82
		c0,0,7.16-6.52,6.93-7.31c-0.23-0.79-1.58-3.14-1.58-3.14c0.05-0.29,0.36-1.82,1.82-2.82c0.62-0.42,1.26-0.62,1.83-0.7
		c0.93-0.13,1.66,0.07,1.81,0.11c0.56,0.63,1.33,1.55,2.11,2.76c0.78,1.2,1.86,3.11,2.11,4.17
		C655.83,1293.54,652.28,1297.61,646.93,1300.77z"/><path fill="#754c29" d="M637.77,1292.46"/><path fill="#e6e7e8" d="M646.93,1300.77c-1.03,0.57-2.14,0.79-3.17,0.67c2.51-2.59,9.13-9.61,9.04-11.15
		c-0.07-1.24-2.21-4.51-3.69-6.66c0.93-0.13,1.66,0.07,1.81,0.11c0.56,0.63,1.33,1.55,2.11,2.76c0.78,1.2,1.86,3.11,2.11,4.17
		C655.83,1293.54,652.28,1297.61,646.93,1300.77z"/><path fill="#603913" d="M592.1,1294.25c0-0.79,8.72-54.42,8.72-54.42l53.61,92.72l-53.61-19.4L592.1,1294.25z"/><polygon fill="#414042" points="590.22 1294.19 583.68 1303.49 592.1 1322.37 596.21 1322.37 605.04 1312.48 593.74 1293.49"/><polygon fill="#6d6e71" points="590.22 1296.07 582.35 1305 591.28 1321.9 600.49 1312.44"/><path fill="#e59b6a" d="M850.72,1220.02c-0.79,0.79-20.87,6.6-20.87,6.6c-0.36,2.03-3.28,19.81,8.21,30.12
		c1.78,1.6,4.42,3.48,8.19,4.84c7.92-5.58,15.84-11.15,23.75-16.73L850.72,1220.02z"/><path fill="#231f20" d="M892.29,1201.67c5.93,0.56,10.7-6.91,12.15-11.84c1.12-3.79-0.3-9.6-3.72-11.91
		c-0.06,1.12,0.41,2.89-0.44,3.78c-1.3-0.73-1.82-2.76-2.87-3.83c-2.43-2.47-6.34-4.37-9.66-5.61c-2.54-0.95-5.35-0.86-8.05-1.21
		c1.28,0.79,4.54,2.73,4.48,4.34c-3.28,0.23-6.12-1.3-9.31-1.7c-3.01-0.37-6.11-0.31-9.14-0.31c-3.29,0-6.3-0.01-9.49,0.72
		c-0.95,0.22-1.83,0.63-2.71,1.04c-1.47,0.68-3.02,0.92-4.47,1.56c-6.98,3.09-10.62,11.09-11.19,18.39
		c-0.48,6.19-0.06,11.64,1.06,17.68c0.81,4.33,0.94,8.73,2.03,13c0.27,1.07,0.52,2.63,1.59,3.24c0.36,0.21,1.33,0.16,1.68,0.21
		c1.65,0.25,3.25,0.81,4.9,1.09c4.2,0.7,9.19,1.18,13.39,0.54c0.98-0.15,2.01-0.73,2.94-1.05c3.47-1.19,7.03-2.01,10.39-3.53
		c2.89-1.31,5.57-3.13,7.76-5.44c2.53-2.67,6.19-4.7,7.09-8.4C891.55,1208.87,891.56,1205.66,892.29,1201.67z"/><path fill="#f9b884" d="M891.71,1200.8c0,0-1.96,13.49-2.61,16.32c-0.65,2.83-2.83,4.79-2.83,4.79s0.65,3.7,0,8.05
		c-0.65,4.35-5.44,8.92-7.18,13.27c-1.74,4.35-3.7,7.4-8.7,7.18s-24.37-8.27-25.67-23.28c0,0-5.22-5.44-4.13-9.57
		c1.09-4.13,3.92-10.44,6.31-10.01c2.39,0.44,5.22,4.57,5.22,4.57s1.31-15.66,3.7-17.4c2.39-1.74,17.19-2.83,24.58-1.31
		C887.79,1194.93,892.06,1198.37,891.71,1200.8z"/><path fill="#27a9e0" d="M852.63,1254.58c0,0,1.23,0.93,1.23,2.04c0,1.12,8.22,31.93-60.99,80.39c0,0-14.09,11.48-14.27,15.17
		c-0.18,3.7-2.64,14.09-5.64,15.15c-2.99,1.06-41.91-4.76-49.13-7.4c-7.22-2.64-25.66-16.38-25.66-16.38l10.87-14.09l72.38-36.28
		l39.8-48.08c2.83,0.59,6.84,1.81,10.89,4.56c5.2,3.53,6.62,7.01,10.79,7.82C845.1,1257.92,848.29,1257.64,852.63,1254.58z"/><path fill="#58595b" d="M685.61,1281.84c0,0-39.1,16.38-22.98,52.83c6.82,0.93,14.12,1.63,21.86,1.98
		c18.62,0.84,35.28-0.55,49.39-2.79l-1.51-56.34C732.37,1277.52,692.48,1285.27,685.61,1281.84z"/><path fill="#58595b" d="M856.26,1259.65c0,0,8.98,10.83,8.45,15.59c-0.53,4.76-1.8,11.36,0.02,14.53s13.98,35.4,14.77,36.45
		c0.79,1.06,64.72-7.13,64.72-7.13l8.19,23.25c-11.45,3.03-24.11,5.82-37.87,8.02c-17.44,2.79-33.56,4.16-47.98,4.66
		c-3.61-5.12-7.22-10.32-10.83-15.59c-7.31-10.67-14.36-21.25-21.13-31.72c-13.91,9.77-27.83,19.54-41.74,29.31
		c0,0,48.61-39.86,54.42-54.12c5.81-14.26,6.34-27.21,6.34-27.21L856.26,1259.65z"/><path fill="#414042" d="M514.26,1470.54c1.06,0,112.36-26.06,112.36-26.06l65.16-92.28l77.84,23.6c0,0,54.42,97.57,53.1,108.13
		c-1.32,10.57-23.51,120.11-23.51,120.11l-33.11-5.99c0,0,1.41-42.27,6.34-67.63s11.98-44.03,11.98-44.03L727.35,1417
		c0,0-62.7,61.99-81.72,66.92c-19.02,4.93-131.38,14.44-131.38,14.44V1470.54z"/><path fill="#754c29" d="M691.78,1352.19c0,0,21.49,13.99,24.3,15.27c2.82,1.28,52.83,10.09,52.83,10.09l4.05-10.21l-49.66-9.69
		l-25.13-14.09L691.78,1352.19z"/><line x1="772.96" x2="772.96" y1="1364.52" y2="1373.15" fill="none" stroke="#fff" stroke-miterlimit="10" stroke-width="7"/><path fill="none" stroke="#fff" stroke-miterlimit="10" stroke-width="7" d="M765.16,1431.44"/><line x1="803.78" x2="794.04" y1="1401.5" y2="1400.89" fill="none" stroke="#fff" stroke-miterlimit="10" stroke-width="7"/><polygon fill="#f1f2f2" points="949.6 1322.08 954.89 1341.28 952.42 1342.33 945.65 1323.1"/><path fill="#f9b884" d="M949.6,1322.08c0,0,5.52-6.52,9.28-7.46c3.76-0.94,15.15-1.88,15.97-0.82c0.82,1.06,2.58,1.94-3.05,3.91
		c-5.64,1.97-8.45,5.14-8.45,7.72s0.82,9.28,0.82,9.28s-7.12,2.17-10.82,0.95L949.6,1322.08z"/><path fill="#231f20" d="M796.74,1604.03c0,0,27.83,12.33,32.4,12.33c4.58,0,11.09,5.81,1.06,9.33c-10.04,3.52-42.97-1.76-51.6-1.94
		c-8.63-0.18-18.49,0.18-17.26-6.87c1.23-7.04,2.64-19.9,6.69-19.37L796.74,1604.03z"/><path fill="#231f20" d="M514.09,1470.67c0,0-17.12-6.52-19.77-1.83c-2.65,4.69-7.95,32-12.23,39.33c-4.28,7.34-4.69,16.91-1.43,24.46
		c3.26,7.54,11.21,6.93,12.43,1.63c1.22-5.3,5.71-16.1,11.41-22.01c5.71-5.91,10.65-16.48,10.65-16.48L514.09,1470.67z"/><path fill="#58595b" d="M829.85,1226.63c0,0-27.24-8.07-72.96,7.3c-45.72,15.37-110.37,27.87-110.37,27.87l13.29,20.29
		c0,0,37.96-5.78,52.1-10.72c14.14-4.94,49.33-4.24,49.33-4.24l-43.07,15.47l15.72,51.27c0,0,62.29-37.79,78.69-48.8
		c16.69-11.2,25.49-28.32,25.49-28.32L829.85,1226.63z"/><path fill="#ebac81" d="M957.51,1338.7c0,0,16.13,2.32,17.87-4.84s-2.98-16.24-2.98-16.24l-14.89,2.63c-0.8,1.11-3.12,4.65-2.97,9.68
		C954.67,1334.42,956.68,1337.54,957.51,1338.7z"/><g><polygon fill="#f9b087" points="1132.28 1072.27 1113.13 1080.97 1100.55 1052.48 1120.99 1046.09"/><path fill="#f9b087" d="M1112.05,1078.54l-8.81,21.28l27.62,98.18l54.83-30.32c0,0-31.52-89.02-36.02-92.16
		c-4.51-3.14-18.68-6.05-18.68-6.05L1112.05,1078.54z"/><path fill="#231f20" d="M1109.54,1000.94c-5.32-3.23-11.71-4.42-17.93-4.11c-10.83,0.55-21.58,5.89-27.61,14.9
		c-6.03,9.01-6.68,21.66-0.65,30.67c-4.95,2.07-8.8,6.27-11.28,11.03c-2.47,4.76-3.68,10.08-4.46,15.39
		c-0.53,3.63-0.88,7.32-0.51,10.97c0.78,7.69,4.78,14.87,10.39,20.19c5.61,5.32,12.73,8.88,20.18,10.97
		c-6.06-13.9-9.21-29.05-9.19-44.22c0-2.7,0.13-5.48,1.24-7.94s3.46-4.54,6.16-4.57c0.95,1.43,8.36,12.27,19.29,12.13
		c14.05-0.18,21.06-18.33,22.46-21.97C1122.95,1030.66,1122.91,1009.06,1109.54,1000.94z"/><path fill="#f9b087" d="M1079.8,1019.21c-0.77,1.88-1.33,3.83-1.82,5.75c-1.35,5.23-2.07,11.2-1.96,16.42
		c0.09,4.04,0.55,7.73,2.86,10.98c3.29,4.62,8.36,7.13,13.71,9.42c4.17,1.78,8.44,3.53,13.39,3.52c4.48-0.01,9.13-1.25,13.49-2.78
		c4.3-1.51,13.2-2.79,13.86-8.28c0.25-2.09-2.43-3.88-3.27-5.59c-0.46-0.93-0.73-1.91-0.51-3c0.19-0.95,0.88-1.77,0.77-2.68
		c-1.48,0.03-3.01,0.31-4.26-0.37c1.73-1.38,3.01-2.21,2.03-4.02c-0.5-0.92-1.04-1.73-0.89-2.83c0.13-0.98,0.79-1.63,1.27-2.55
		c1.63-3.13-0.71-3.06-3.07-4.01c-1.94-0.78-4.56-1.87-5.26-3.72c-0.78-2.04-0.74-4.16-2.12-6.09c-1.25-1.75-8.82-9.66-21.01-10.77
		L1079.8,1019.21z"/><path fill="#f9b086" d="M1220.01,1204.52c38.19,31.56,62.18,62.86,62.18,62.86c6.88,16.35,63.04,102.93,63.04,102.93l-11.41,3.77
		c-28.7-32.79-61.72-53.94-67.96-78.05c-0.5-1.93-97.65-40.11-104.83-67c-5.38-20.17-8.44-28.43-6.14-39.05
		c0.5-2.31-1.83,3.62-1.83,3.62C1171.81,1198.92,1220.01,1204.52,1220.01,1204.52z"/><path fill="#262262" d="M1363.87,1387.29c12.36-0.36,21.28-9.01,21.51-11.18c0,0-2.79-9.18-21.5-9.58c-4.48-0.41-11.11-1.27-15.44-1
		c-8.98,0.56-9.29,1.48-12.27,5.03c-3.6,1.81-4.17,4.84-4.19,6.38c-0.07,4.33,2.22,7.84,8.17,9.77
		C1341.9,1387.28,1347.12,1387.78,1363.87,1387.29z"/><path fill="#262262" d="M1061.68,1402.17c-2.32,0.57-3.87,0.94-6.32-3.9c-1.89-3.75,5.79-21.19,3.6-30.04
		c-0.32-1.29-12.62,4.12-13.93,3.86c-1.15-0.23-2.7-3.1-1.79-4.02c14.56-14.71,19.31-14.97,19.31-14.97s-6.62,22.81-7.08,25.78
		C1055.01,1381.83,1061.68,1402.17,1061.68,1402.17z"/><path fill="#262262" d="M1050.85,1382.14c-2.1,12.19,4.61,22.65,6.69,23.3c0,0,9.55-0.92,13.66-19.17
		c1.29-4.31,3.45-10.64,4.05-14.94c1.23-8.92,0.39-9.41-2.5-13.03c-1.06-3.89-3.92-5.06-5.42-5.39c-4.23-0.92-8.13,0.62-11.19,6.07
		C1055.22,1360.6,1053.69,1365.62,1050.85,1382.14z"/><path fill="#f9b086" d="M1064.72,1392.08c-5.46-6.69-1.6-28.04,1.38-33.09c3.05-6.25,7.78-3.08,11.96-5.19
		c2.22-1.12,0.44,3.76,0.44,3.76C1071.33,1372.26,1070.99,1387.11,1064.72,1392.08z"/><path fill="#f9b086" d="M1180.32,1233.11c15.86,46.93,11.14,114.07,11.14,114.07c-8.69,21.18-116.72,15.42-116.72,15.42l-5.36-7.2
		c76.38-23.32,83.04-21.23,88.5-21.22c16.46,0.02-22.2-77.08-20.87-102.8c1.07-20.85,7.78-28.62,15.33-36.44
		c1.64-1.7-3.47,2.11-3.47,2.11C1162.01,1211.46,1180.32,1233.11,1180.32,1233.11z"/><path fill="#1c75bb" d="M1187.98,1170.59c23.07,29.87,60.42,48.01,87.82,73.85c9.55,8.38,17.05,18.98,22.04,30.98
		c3.56,8.41,3.6,9.48-4.44,11.74c-6.14,1.75-11.2,3.46-16.83,7.12c-18.56,11.9-34.85,26.91-54.79,36.3
		c-20.78,9.85-41.76,4.51-62.93-0.18c5.99-20.8-9.71-43.26-15.47-63.57c-4.84-18.63-12.04-42.52-7.95-62.81L1187.98,1170.59z"/><path fill="#f9b087" d="M1210.89,1086.88l4.38-9.51l-3.14-10.41l5.34-13.99c4.4,1.62,2.98,8.21,1.29,10.9l-0.31,0.45l1.42-4.67
			l17.55,8.38l-4.43,10.44l-6.69,6.36l-5.11,11.79l-12.29-6.99L1210.89,1086.88z"/><path fill="#f58c6d" d="M1233.08,1067.78c-0.65,1.38-2.3,1.92-3.67,1.2c-1.2-0.64-1.8-2.04-1.49-3.31l-0.63,1.34
				c-0.65,1.38-0.06,3.1,1.31,3.82c1.37,0.72,3.02,0.18,3.67-1.2l3.44-7.31c0.08-0.17,0.14-0.34,0.18-0.52L1233.08,1067.78z"/><path fill="#f58c6d" d="M1228.67,1066.1c-0.69,1.46-2.44,2.03-3.89,1.27l-0.07-0.04c-1.29-0.67-1.91-2.18-1.57-3.53l-0.63,1.34
				c-0.69,1.46-0.07,3.28,1.38,4.05l0.07,0.04c1.45,0.76,3.2,0.19,3.88-1.27l3.89-8.26c0.08-0.17,0.14-0.34,0.18-0.52
				L1228.67,1066.1z"/><path fill="#f58c6d" d="M1224.04,1064.36c-0.69,1.46-2.44,2.03-3.89,1.27l-0.07-0.04c-1.28-0.68-1.91-2.18-1.56-3.53l-0.64,1.35
				c-0.69,1.46-0.06,3.28,1.39,4.04l0.07,0.04c1.45,0.76,3.2,0.19,3.89-1.27l3.89-8.26c0.08-0.17,0.14-0.34,0.18-0.52
				L1224.04,1064.36z"/><path fill="#f58c6d" d="M1237.21,1068.69c-0.71,1.27-2.32,1.67-3.59,0.9c-0.97-0.6-1.45-1.72-1.32-2.78l-0.51,0.91
				c-0.71,1.27-0.25,2.95,1.01,3.73c1.26,0.78,2.88,0.37,3.59-0.9l3.15-5.65c0.16-0.3,0.26-0.62,0.3-0.95L1237.21,1068.69z"/><path fill="#f9b087" d="M1236.35,1060.84l-3.44,7.31c-0.65,1.38-2.31,1.92-3.67,1.2l0,0c-1.37-0.72-1.96-2.44-1.3-3.82l3.44-7.31
			c0.65-1.38,2.31-1.92,3.68-1.2l0,0C1236.41,1057.73,1237,1059.45,1236.35,1060.84z"/><path fill="#f9b087" d="M1232.39,1058.21l-3.89,8.26c-0.69,1.46-2.38,2.06-3.78,1.32l-0.07-0.03c-1.39-0.74-1.96-2.53-1.27-3.99
			l3.89-8.26c0.68-1.46,2.39-2.06,3.78-1.32l0.07,0.03C1232.5,1054.96,1233.08,1056.75,1232.39,1058.21z"/><path fill="#f9b087" d="M1227.76,1056.47l-3.89,8.26c-0.69,1.46-2.44,2.03-3.89,1.27l-0.07-0.04c-1.45-0.77-2.07-2.59-1.38-4.05
			l3.89-8.26c0.69-1.46,2.44-2.03,3.89-1.27l0.07,0.04C1227.83,1053.19,1228.45,1055.01,1227.76,1056.47z"/><path fill="#f9b087" d="M1235.59,1060.57l-3.15,5.65c-0.71,1.27-0.25,2.95,1.01,3.73l0,0c1.26,0.78,2.88,0.38,3.59-0.9l3.15-5.65
			c0.71-1.27,0.26-2.95-1.01-3.73l0,0C1237.91,1058.9,1236.3,1059.3,1235.59,1060.57z"/><path fill="#1c75bb" d="M1192.95,1141.5c-0.3,0.17-0.56,0.29-0.78,0.4c-9.39,4.54-18.22-1.99-37.81-27.92
			c-10.37-13.72-4.62-13.58-5.01-14.17l1.77-25.16c11.74,17.75,26.85,37.99,34.72,45.81c5.83-8.09,16.09-26.18,24.03-41.84
			l17.91,9.08C1205.01,1132.62,1196.29,1139.65,1192.95,1141.5z"/><path fill="#fff" d="M1111.33,1082c0,0,20.92,4.57,29.77,7c8.85,2.44-0.8-18.29-5.02-18.83c-4.21-0.53,10.77,3.97,10.77,3.97
		c17.24,18.61,30.04,58.66,39.84,94.42c0,0-47.34,24.72-48.75,24.48c-1.41-0.24-34.69-93.22-34.69-93.22L1111.33,1082z"/><path fill="#f9b086" d="M1147.28,1220.94c1.1,2,0.35,4.46-1.68,5.5c-2.03,1.04-4.58,0.26-5.68-1.73c-1.11-2-0.35-4.46,1.68-5.5
		C1143.63,1218.16,1146.18,1218.94,1147.28,1220.94z"/><path fill="#f9b086" d="M1370.87,1371.72c-5.47,6.68-27.17,7.13-32.7,5.21c-6.73-1.75-4.56-7.01-7.46-10.69
		c-1.54-1.95,3.59-1.18,3.59-1.18C1350.13,1369.18,1364.75,1366.56,1370.87,1371.72z"/><path fill="#fff" d="M1181.11,1160.35c3.1,6.6,20.36,17.28-16.6,34.11c-36.96,16.83-28.02-13.6-26.79-15.38
		C1138.96,1177.29,1181.11,1160.35,1181.11,1160.35z"/><path fill="#27a9e0" d="M1111.33,1082c-26.56,22.69,21.3,117.91-8.78,146.18c18.04,6.41,53.96,5.9,76.39-10.65l-21.45-76.07
		C1150.78,1102.58,1132.49,1090.18,1111.33,1082z"/><path fill="#27a9e0" d="M1135.15,1070.4c0,0,8.54-0.63,14,3.62c13.67,4.24,72.46,90.25,54.92,112.81
		c-0.65,0.84-20.55-20.26-21.87-26.71C1175.48,1127.23,1157.45,1072.2,1135.15,1070.4z"/><path fill="#f9b087" d="M1158.51,1157.71l9.51-4.39l4.38-9.95l13.15-7.16c2.3,4.09-3.07,8.18-6.11,9.12l-0.52,0.14l4.11-2.63
				l7.89,17.78l-10.15,5.05l-9.21,0.48l-11.55,5.64l-4.8-13.29L1158.51,1157.71z"/><path fill="#f9b087" d="M1194.78,1154.46l-7.37,3.32c-1.4,0.63-3-0.04-3.57-1.48l0,0c-0.57-1.44,0.1-3.13,1.49-3.76l7.37-3.32
				c1.4-0.63,3,0.04,3.57,1.47l0,0C1196.84,1152.14,1196.17,1153.83,1194.78,1154.46z"/><path fill="#f9b087" d="M1193.47,1149.89l-8.32,3.75c-1.47,0.66-3.15,0.01-3.73-1.45l-0.03-0.07c-0.58-1.46,0.15-3.2,1.62-3.86
				l8.32-3.75c1.48-0.67,3.15-0.01,3.73,1.45l0.03,0.07C1195.68,1147.49,1194.95,1149.23,1193.47,1149.89z"/><path fill="#f9b087" d="M1191.09,1145.56l-8.32,3.75c-1.47,0.66-3.17-0.04-3.78-1.56l-0.03-0.07c-0.6-1.52,0.11-3.31,1.58-3.98
				l8.32-3.75c1.48-0.67,3.17,0.04,3.78,1.56l0.03,0.07C1193.27,1143.1,1192.56,1144.89,1191.09,1145.56z"/><path fill="#f9b087" d="M1194.37,1153.76l-6.07,2.25c-1.36,0.5-2.11,2.08-1.66,3.49l0,0c0.46,1.41,1.95,2.16,3.31,1.65l6.07-2.25
				c1.37-0.51,2.11-2.08,1.66-3.49l0,0C1197.23,1154,1195.74,1153.25,1194.37,1153.76z"/><path fill="#1c75bb" d="M1174.04,1169.54l-70.09,29.97c-3.39,1.45-7.3,0.93-10.19-1.36c-2.89-2.29-4.3-5.97-3.67-9.6l14.73-85.14
			c3.07-9.53,16.7-9.13,19.82,3.43l-11.57,66.9l53.07-22.69L1174.04,1169.54z"/><path fill="#231f20" d="M1109.52,1012.47c-3.04-0.13-5.37,0.8-6.18,1.16c-5.46,2.41-9.54,7.77-10.27,13.7
		c-0.81,6.62,2.31,13.02,5.44,18.91c-4.1,0.08-6.77-1.02-8.55-2.22c-2.64-1.78-3.85-4.18-5.2-3.77c-1.25,0.37-1.54,2.79-1.68,3.91
		c-0.56,4.61,1.53,8.33,1.86,8.9c1.79,3.08,3.36,3.39,7.96,8.03c2,2.02,3.52,3.79,4.46,4.95c-2.42,0.01-4.6-1.35-6.62-2.67
		c-2.36-1.53-4.72-3.05-7.07-4.58c-1.34-0.87-2.7-1.75-3.76-2.94c-1.72-1.93-2.5-4.5-3.18-7c-2.31-8.46-3.9-17.9,0.16-25.67
		c1.36-2.6,3.28-4.85,5.18-7.08c2.5-2.92,5.1-5.93,8.57-7.57c2.61-1.23,5.54-1.61,8.41-1.92c3.77-0.41,9.14-0.78,14.13,2.14
		c4.45,2.6,6.91,6.87,6.4,7.44C1119.04,1016.79,1115.42,1012.72,1109.52,1012.47z"/><path fill="#e5e6e7" d="M1127.1,1060.27l-18.82,4.54c0,0,5.17,7.01,22.72,4.66L1127.1,1060.27z"/><path fill="#262262" d="M1332.89,1381.28l8.36,15.08l5.54-1.32v-7.63C1346.78,1387.41,1333.8,1385.61,1332.89,1381.28z"/></g><g><path fill="#414042" d="M1455.31,761.86c0,0-32.15,32.05-32.36,51.43c-0.21,19.38,13.8,36.4,13.8,36.4s15.67-21.43,19.46-46.75
		C1460.01,777.62,1455.31,761.86,1455.31,761.86z"/><path fill="#231f20" d="M1533.92,857.98c0,0,105.28,6.71,112.58,11.36c7.3,4.65,59.38,123.39,59.38,123.39l-27.65,10.73
		c0,0-42.34-54.53-54.63-80.95c0,0-3.84-7.55-13.19-7.45c-9.34,0.1-42.79,1.11-42.79,1.11l-45.95-56.64L1533.92,857.98z"/><path fill="#414042" d="M1471.75,889.9c0.18,3.31,0.9,6.48,2.05,9.5c1.1,2.92,2.61,5.71,4.41,8.35
		c14.94,21.88,50.43,34.05,50.43,34.05l63.4,28.42c-16.37,6.38-26.52,42.57-26.52,42.57l-19.53,45.28l-0.96,2.24l7.94,4.99
		l16.75,10.54c0,0,0.2-0.28,0.57-0.8c7.15-10.07,78.98-111.65,77.93-125.56c-1.11-14.64-118.59-90.94-118.59-90.94l-36.95,20.04
		l-3.95,2.14l-0.01,0L1471.75,889.9z"/><polygon fill="#e5e6e7" points="1522.77 805.38 1533.92 857.98 1471.76 889.9 1458.3 747.73 1495.22 751.91"/><path fill="#323233" d="M1457.8,919.47l0.5,5.53c2.97,3.44,4.86,5.56,4.86,5.56s6.79-8.7,15.05-22.8
		c14.94,21.88,50.43,34.05,50.43,34.05l63.4,28.42c-16.37,6.38-26.52,42.57-26.52,42.57l-19.53,45.28c0,0-10.66,8.94-11.98,17.21
		c-1.32,8.27,10.18,8.62,14.76,16.78c4.27,7.62,25.77,16.34,40,17.32c-25.93-10.91-35.05-38.1-36.51-40.35
		c-0.32-0.5-0.03-1.8,0.72-3.73c0.21-0.56,0.47-1.17,0.76-1.83c4.09-9.41,15.01-28.78,20.92-46.59c7.77-23.39,26.46-39.3,25.2-48.07
		c-1.25-8.78-96.49-50.73-102.44-57.42c-5.94-6.69,1.47-34.13,1.47-34.13l-6.53,2.22l-3.62,1.23l-0.01,0l-14.92,18.7L1457.8,919.47z
		"/><path fill="#58595b" d="M1458.31,925c2.97,3.44,4.86,5.56,4.86,5.56s0.88-1.13,2.39-3.23c2.69-3.73,7.37-10.55,12.66-19.57
		c3.69-6.3,7.68-13.67,11.48-21.83c0.92-1.98,1.81-4.14,2.66-6.45c0.11-0.3,0.22-0.61,0.33-0.91c3.89-10.88,7.01-24.78,9.38-37.86
		c3.12-17.24,4.95-33.03,5.54-38.51c0.15-1.32,0.21-2.05,0.21-2.05c0.27-2.03,0.46-3.99,0.56-5.89
		c0.96-18.17-5.55-30.39-10.58-37.01c-3.04-4-5.54-5.96-5.54-5.96s-33.72-9.94-34.46-6.47c-0.58,2.74-6,48.96-10.24,73.08
		c-1.14,6.44-2.2,11.77-3.1,14.97c-4.24,15.16-28.75,44.23-30.21,44.89C1407.32,880.87,1445.98,910.72,1458.31,925z"/><path fill="#6d6e71" d="M1466.85,773.42c0.1,11.29,3.98,22,12.86,24.94c4.69,1.55,15.7,2.83,27.89,3.84
		c21.79,1.81,47.37,2.74,47.37,2.74l41.14-72.1l-3.92-1.71l-25.96-11.34l-33.16,51.51c0,0-18.24-8.8-35.29-14.06
		c-13.67-4.22-26.57-6.16-28.67,0.54C1467.6,762.62,1466.8,768.08,1466.85,773.42z"/><path fill="#3c2415" d="M1705.89,992.74c0,0,26.54,9.23,31.23,6.6c4.7-2.63,23.43,4.33,13.86,10.39
		c-9.57,6.06-50.34,17.64-59.16,15.26c-8.82-2.38-13.58-21.52-13.58-21.52L1705.89,992.74z"/><path fill="#3c2415" d="M1534.01,1075.28c-1.32,8.27,10.18,8.62,14.76,16.78c4.27,7.62,25.77,16.34,40,17.32
		c0.99,0.06,1.94,0.1,2.85,0.09c14.01-0.15,2.98-9.21-2.26-11.36c-5.24-2.15-17.16-21.75-17.16-21.75l-1.91-1.33l-16.57-11.56
		l-7.73-5.4C1545.99,1058.07,1535.33,1067.01,1534.01,1075.28z"/><path fill="#f9a88c" d="M1577.08,706.89c0.82-4.9,0.94-8.81,0.89-11.55c-0.01-0.7-0.09-3.74,0.58-7.65c0.42-2.46,0.87-4.95,1.94-5.11
		c1.35-0.21,2.96,3.38,3.04,3.58c0.58,1.32,0.75,2.45,0.86,3.29c0.24,1.86,0.48,4.52,0.41,7.86c4.45-7.98,8.9-15.96,13.35-23.94
		c0.85-1.04,2.3-1.3,3.34-0.67c0.85,0.51,1.31,1.54,1.17,2.59c-2.99,6.93-5.98,13.86-8.96,20.79c4.01-7.27,8.02-14.53,12.03-21.8
		c1.11-1.96,3.53-2.48,5.02-1.47c1.15,0.78,1.68,2.42,1.18,3.99c-3.79,7.3-7.58,14.6-11.36,21.9c3.65-5.24,7.3-10.47,10.96-15.71
		c1.06-1.1,2.69-1.23,3.69-0.5c1.22,0.89,1.45,2.99,0.12,4.35c-3.47,4.96-6.93,9.93-10.4,14.89c3.45-3.24,6.9-6.48,10.34-9.73
		c1.34-0.57,2.81-0.08,3.38,0.96c0.41,0.74,0.33,1.69-0.15,2.48c-5.13,7.62-9.51,13.65-12.54,17.72c0,0-2.42,3.26-13.77,17.96l0,0
		l0,0l-21.95-9.59L1577.08,706.89z"/><polygon fill="#a87c50" points="1531.71 847.55 1497.1 865.04 1491.86 880.78 1536.81 858.17"/><path fill="#231f20" d="M1492.88,687.84c1.25-3.74,2.71-8.18,1.72-12.1c-0.93-3.69-2.68-6.74-4.72-9.9c-2.42-3.75-5.52-3.85-10-4.83
			c-4.71-1.03-9.38-2.02-14.17-2.47c1.85,0.97,3.89,2.94,5.98,3.33c-5.47-1.24-18.67-4.62-23.71,0.16c3.04,0.47,7.44,0.59,9.86,2.87
			c-0.26,4.37-12.86,5.95-15.51,7.29c-3.89,1.96-6.87,4.71-9.93,7.74c-3.73,3.7-6.02,8.73-6.34,13.91c0.77-2.51,3.72-3.98,6.12-4.33
			c-1.08,5.14-2.63,9.68-3.9,14.71c-1.05,4.16,0.13,7.92-0.39,11.85c3.09-1.42,2.28-7.85,5.59-9.45
			c-1.68,7.84-0.49,17.01,3.46,23.91c0.9,1.57,0.61,2.45,2.72,2.53c1.96,0.07,4.33-3.27,4.43-5.54c0.77,3.54,1.69,7.52,3,10.93
			c1.24,3.23,3.5,4.47,6.2,6.3c1.39,0.94,2.38,2.94,3.58,3.74c2.25,1.49,4.27-0.83,5.91-2.87c1.94-2.41,5.32-5.83,5.75-8.91
			c0.54-3.85-0.09-8.64-0.4-12.41c-0.22-2.61-1.56-4.87-2.65-7.16c-0.71-1.49-1.24-4.11-2.89-4.86c1.02-2.88,3.8,18.59,5.97,16.9
			c2.07-1.6,3.26-25.92,5.35-27.53c2.54-1.95,5.67-2.62,8.22-4.4c1.78-1.24,2.74-2.11,4.71-3.05
			C1489.55,692.89,1490.75,688.8,1492.88,687.84z"/><path fill="#f9a88c" d="M1491.92,747.1l-2.82-9.24c0,0,15.55-1.96,16.44-6.18c2.1-9.92-18.21-48.22-18.21-48.22
			s-4.66,12.22-14.69,16.84l-1.59-4.74c0,0,0.54,17.68-0.41,20.32c-0.95,2.65-8.02,6.08-8.02,6.08l-4.83,22.84l0.33,4.38l34.75,1.22
			L1491.92,747.1z"/><path fill="#f9a88c" d="M1458.83,717.53c2.67,4.76,7.24,7.27,10.2,5.61c2.96-1.66,3.2-6.87,0.53-11.63
			c-2.67-4.76-7.24-7.27-10.2-5.61C1456.39,707.57,1456.16,712.77,1458.83,717.53z"/><path fill="#ea947d" d="M1489.1,737.86c0,0-13.86-3.84-18.51-9.08c0,0,6.69,20.7,20.93,17L1489.1,737.86z"/><path fill="#474849" d="M1463.37,769.78c0,0,3.38,60.08,36.91,71.12c0,0,0.63-0.06,1.78-0.2c3.12-17.24,4.95-33.03,5.54-38.51
		c21.79,1.81,47.37,2.74,47.37,2.74l41.14-72.1l-3.92-1.71c0,0-31.15,59.3-41.59,61.75c-6.31,1.49-25.69,2.49-42.23,1.38
		c-10.78-0.73-20.37-2.36-24.34-5.34c-6.5-4.89-13.24-11.46-17.19-15.49C1464.69,771.22,1463.37,769.78,1463.37,769.78z"/><path fill="#474849" d="M1458.31,925c2.97,3.44,4.86,5.56,4.86,5.56s0.88-1.13,2.39-3.23c-3.45-4.16-6.92-8.25-9.83-12.42
		c-8.5-12.2-20.81-25.8-17.64-40.92c4.05-19.34,8.17-38.67,12.26-58.01c-0.9,0.72-1.84,1.36-2.8,1.92
		c-1.14,6.44-2.2,11.77-3.1,14.97c-4.24,15.16-28.75,44.23-30.21,44.89C1407.32,880.87,1445.98,910.72,1458.31,925z"/></g><path fill="#fff" d="M465.92,328.94c2.74-20.8-11.91-39.89-32.71-42.62c-1.77-0.23-3.52-0.33-5.26-0.32
	c-5.55-10.56-15.96-18.37-28.69-20.04c-8.7-1.14-17.08,0.76-24.11,4.87c-5.72-5.79-13.34-9.79-22.03-10.94
	c-6.86-0.9-13.54,0.1-19.5,2.57c-5.12-3.94-11.31-6.63-18.17-7.53c-20.8-2.74-39.89,11.91-42.62,32.71
	c-0.01,0.09-0.02,0.18-0.03,0.27c-19-0.27-35.62,13.73-38.16,33.03c-2.74,20.8,11.91,39.89,32.71,42.62
	c3.54,0.46,7.02,0.42,10.38-0.07c5.38,11.14,16.08,19.44,29.27,21.17c6.86,0.9,13.54-0.1,19.5-2.57c5.12,3.94,11.31,6.63,18.17,7.53
	c9.99,1.31,19.58-1.39,27.15-6.85c3.57,1.73,7.46,2.93,11.61,3.48c17.95,2.36,34.6-8.22,40.6-24.53
	C444.55,364.03,463.22,349.5,465.92,328.94z"/><path fill="#fff" d="M1136.28,723.35c1.46-11.14-6.38-21.35-17.51-22.81c-0.95-0.12-1.89-0.18-2.82-0.17
	c-2.97-5.65-8.54-9.83-15.36-10.73c-4.65-0.61-9.14,0.41-12.91,2.61c-3.06-3.1-7.14-5.24-11.79-5.85
	c-3.67-0.48-7.24,0.05-10.44,1.38c-2.74-2.11-6.05-3.55-9.73-4.03c-11.14-1.46-21.35,6.38-22.81,17.51
	c-0.01,0.05-0.01,0.1-0.02,0.14c-10.17-0.14-19.06,7.35-20.42,17.68c-1.46,11.14,6.38,21.35,17.51,22.81
	c1.89,0.25,3.76,0.22,5.56-0.04c2.88,5.96,8.61,10.41,15.67,11.33c3.67,0.48,7.24-0.05,10.44-1.38c2.74,2.11,6.05,3.55,9.73,4.03
	c5.35,0.7,10.48-0.74,14.53-3.67c1.91,0.92,3.99,1.57,6.21,1.86c9.61,1.26,18.52-4.4,21.73-13.13
	C1124.84,742.14,1134.84,734.36,1136.28,723.35z"/><path fill="#fff" d="M2238.47,162.15c1.46-11.14-6.38-21.35-17.51-22.81c-0.95-0.12-1.89-0.18-2.82-0.17
	c-2.97-5.65-8.54-9.83-15.36-10.73c-4.65-0.61-9.14,0.41-12.91,2.61c-3.06-3.1-7.14-5.24-11.79-5.85
	c-3.67-0.48-7.24,0.05-10.44,1.38c-2.74-2.11-6.05-3.55-9.73-4.03c-11.14-1.46-21.35,6.38-22.81,17.51
	c-0.01,0.05-0.01,0.1-0.02,0.14c-10.17-0.14-19.06,7.35-20.42,17.68c-1.46,11.14,6.38,21.35,17.51,22.81
	c1.89,0.25,3.76,0.22,5.56-0.04c2.88,5.96,8.61,10.41,15.67,11.33c3.67,0.48,7.24-0.05,10.44-1.38c2.74,2.11,6.05,3.55,9.73,4.03
	c5.35,0.7,10.48-0.74,14.53-3.67c1.91,0.92,3.99,1.57,6.21,1.86c9.61,1.26,18.52-4.4,21.73-13.13
	C2227.03,180.94,2237.02,173.16,2238.47,162.15z"/></svg>