<?xml version="1.0" encoding="UTF-8"?>
<svg id="Layer_2" data-name="Layer 2" xmlns="http://www.w3.org/2000/svg" viewBox="0 0 799.92 506.59">
  <defs>
    <style>
      .cls-1 {
        opacity: .1;
      }

      .cls-2, .cls-3 {
        fill: #f3f6f8;
      }

      .cls-4 {
        fill: #f7f9fb;
      }

      .cls-5 {
        fill: #f2f5f8;
      }

      .cls-6 {
        fill: #f8fbfc;
      }

      .cls-7 {
        fill: #f8fafb;
      }

      .cls-8 {
        fill: #eef2f5;
      }

      .cls-9 {
        fill: #ebeff3;
      }

      .cls-10 {
        fill: #eaeef2;
      }

      .cls-11 {
        fill: #eaeff2;
      }

      .cls-12 {
        fill: #e6ebf0;
      }

      .cls-13 {
        fill: #e9edf1;
      }

      .cls-14 {
        fill: #e9eef2;
      }

      .cls-15 {
        fill: #f5f8f9;
      }

      .cls-16, .cls-17 {
        fill: #e7ecf0;
      }

      .cls-18 {
        fill: #e3e9ee;
      }

      .cls-19 {
        fill: #e3e8ed;
      }

      .cls-20, .cls-21 {
        fill: #e8edf1;
      }

      .cls-22 {
        fill: #edf1f4;
      }

      .cls-23 {
        fill: #e2e7ed;
      }

      .cls-24 {
        fill: #e2e8ed;
      }

      .cls-25 {
        fill: #f0f3f6;
      }

      .cls-26 {
        fill: #f0f4f6;
      }

      .cls-27 {
        fill: #f1f4f7;
      }

      .cls-28 {
        fill: #e5eaef;
      }

      .cls-29 {
        fill: #ecf0f4;
      }

      .cls-30 {
        fill: #e4e9ee;
      }

      .cls-31 {
        fill: #eff3f6;
      }

      .cls-32 {
        fill: #eff2f5;
      }

      .cls-33 {
        fill: #e4eaee;
      }

      .cls-34 {
        fill: #ced6df;
      }

      .cls-35 {
        fill: #ced7df;
      }

      .cls-36 {
        fill: #cdd6de;
      }

      .cls-37 {
        fill: #cdd6df;
      }

      .cls-38 {
        fill: #d2dae2;
      }

      .cls-39 {
        fill: #d8dfe6;
      }

      .cls-40 {
        fill: #ccd5de;
      }

      .cls-41 {
        fill: #cbd4dd;
      }

      .cls-42 {
        fill: #cad3dc;
      }

      .cls-43 {
        fill: #cad3dd;
      }

      .cls-44 {
        fill: #c9d2dc;
      }

      .cls-45 {
        fill: #c9d3dc;
      }

      .cls-46 {
        fill: #d0d8e0;
      }

      .cls-47 {
        fill: #c7d0da;
      }

      .cls-48 {
        fill: #c7d1db;
      }

      .cls-49 {
        fill: #dde4e9;
      }

      .cls-50 {
        fill: #dde3e9;
      }

      .cls-51 {
        fill: #dce3e9;
      }

      .cls-52 {
        fill: #dce2e8;
      }

      .cls-53 {
        fill: #d1d9e1;
      }

      .cls-54 {
        fill: #cfd7e0;
      }

      .cls-55 {
        fill: #cfd8e0;
      }

      .cls-56 {
        fill: #d0d9e1;
      }

      .cls-57 {
        fill: #d6dee5;
      }

      .cls-58 {
        fill: #dbe2e8;
      }

      .cls-59 {
        fill: #dbe1e8;
      }

      .cls-60 {
        fill: #d9e0e7;
      }

      .cls-61 {
        fill: #d9e0e6;
      }

      .cls-62 {
        fill: #d6dde4;
      }

      .cls-63 {
        fill: #d4dbe3;
      }

      .cls-64 {
        fill: #dae1e7;
      }

      .cls-65 {
        fill: #d4dce3;
      }

      .cls-66 {
        fill: #dfe5ea;
      }

      .cls-67 {
        fill: #dfe5eb;
      }

      .cls-68 {
        fill: #d7dee5;
      }

      .cls-69 {
        fill: #d3dbe3;
      }

      .cls-70 {
        fill: #d3dbe2;
      }

      .cls-71 {
        fill: #c6d0da;
      }

      .cls-72 {
        fill: #e1e7ec;
      }

      .cls-73 {
        fill: #e0e6eb;
      }

      .cls-74 {
        fill: #e0e6ec;
      }

      .cls-75 {
        fill: #c8d1db;
      }

      .cls-76 {
        fill: #c8d2db;
      }

      .cls-77, .cls-78 {
        fill: #dee4ea;
      }

      .cls-79 {
        fill: #d5dde4;
      }

      .cls-80 {
        fill: #d5dce4;
      }

      .cls-81 {
        fill: #f7fafb;
      }

      .cls-81, .cls-82, .cls-83, .cls-84, .cls-85, .cls-3, .cls-86, .cls-78, .cls-87, .cls-88, .cls-21, .cls-17, .cls-89, .cls-90, .cls-91, .cls-92 {
        fill-rule: evenodd;
      }

      .cls-82 {
        fill: #f9fbfc;
      }

      .cls-83 {
        fill: #f2f5f7;
      }

      .cls-84 {
        fill: #f6f8fa;
      }

      .cls-85 {
        fill: #f6f9fa;
      }

      .cls-86 {
        fill: #272c30;
      }

      .cls-87 {
        fill: #ebf0f3;
      }

      .cls-88 {
        fill: #f1f5f7;
      }

      .cls-89 {
        fill: #f5f8fa;
      }

      .cls-90 {
        fill: #f4f7f9;
      }

      .cls-91 {
        fill: #e6ebef;
      }

      .cls-92 {
        fill: #ecf0f3;
      }
    </style>
  </defs>
  <g id="Capa_1" data-name="Capa 1">
    <g>
      <g class="cls-1">
        <ellipse class="cls-71" cx="399.96" cy="359.92" rx="399.96" ry="146.67"/>
        <ellipse class="cls-47" cx="399.96" cy="359.92" rx="396.66" ry="145.46"/>
        <ellipse class="cls-48" cx="399.96" cy="359.92" rx="393.36" ry="144.25"/>
        <ellipse class="cls-75" cx="399.96" cy="359.92" rx="390.05" ry="143.03"/>
        <ellipse class="cls-76" cx="399.96" cy="359.92" rx="386.75" ry="141.82"/>
        <ellipse class="cls-44" cx="399.96" cy="359.92" rx="383.45" ry="140.61"/>
        <ellipse class="cls-45" cx="399.96" cy="359.92" rx="380.15" ry="139.4"/>
        <ellipse class="cls-42" cx="399.96" cy="359.92" rx="376.84" ry="138.19"/>
        <ellipse class="cls-43" cx="399.96" cy="359.92" rx="373.54" ry="136.98"/>
        <ellipse class="cls-41" cx="399.96" cy="359.92" rx="370.24" ry="135.77"/>
        <ellipse class="cls-41" cx="399.96" cy="359.92" rx="366.94" ry="134.56"/>
        <ellipse class="cls-40" cx="399.96" cy="359.92" rx="363.63" ry="133.35"/>
        <ellipse class="cls-40" cx="399.96" cy="359.92" rx="360.33" ry="132.14"/>
        <ellipse class="cls-36" cx="399.96" cy="359.92" rx="357.03" ry="130.92"/>
        <ellipse class="cls-37" cx="399.96" cy="359.92" rx="353.73" ry="129.71"/>
        <ellipse class="cls-34" cx="399.96" cy="359.92" rx="350.43" ry="128.5"/>
        <ellipse class="cls-35" cx="399.96" cy="359.92" rx="347.12" ry="127.29"/>
        <ellipse class="cls-54" cx="399.96" cy="359.92" rx="343.82" ry="126.08"/>
        <ellipse class="cls-55" cx="399.96" cy="359.92" rx="340.52" ry="124.87"/>
        <ellipse class="cls-46" cx="399.96" cy="359.92" rx="337.22" ry="123.66"/>
        <ellipse class="cls-56" cx="399.96" cy="359.92" rx="333.91" ry="122.45"/>
        <ellipse class="cls-53" cx="399.96" cy="359.92" rx="330.61" ry="121.24"/>
        <ellipse class="cls-53" cx="399.96" cy="359.92" rx="327.31" ry="120.03"/>
        <ellipse class="cls-38" cx="399.96" cy="359.92" rx="324.01" ry="118.82"/>
        <ellipse class="cls-38" cx="399.96" cy="359.92" rx="320.71" ry="117.61"/>
        <ellipse class="cls-70" cx="399.96" cy="359.92" rx="317.4" ry="116.39"/>
        <ellipse class="cls-69" cx="399.96" cy="359.92" rx="314.1" ry="115.18"/>
        <ellipse class="cls-63" cx="399.96" cy="359.92" rx="310.8" ry="113.97"/>
        <ellipse class="cls-65" cx="399.96" cy="359.92" rx="307.5" ry="112.76"/>
        <ellipse class="cls-80" cx="399.96" cy="359.92" rx="304.19" ry="111.55"/>
        <ellipse class="cls-79" cx="399.96" cy="359.92" rx="300.89" ry="110.34"/>
        <ellipse class="cls-62" cx="399.96" cy="359.92" rx="297.59" ry="109.13"/>
        <ellipse class="cls-57" cx="399.96" cy="359.92" rx="294.29" ry="107.92"/>
        <ellipse class="cls-68" cx="399.96" cy="359.92" rx="290.99" ry="106.71"/>
        <ellipse class="cls-68" cx="399.96" cy="359.92" rx="287.68" ry="105.5"/>
        <ellipse class="cls-39" cx="399.96" cy="359.92" rx="284.38" ry="104.28"/>
        <ellipse class="cls-39" cx="399.96" cy="359.92" rx="281.08" ry="103.07"/>
        <ellipse class="cls-61" cx="399.96" cy="359.92" rx="277.78" ry="101.86"/>
        <ellipse class="cls-60" cx="399.96" cy="359.92" rx="274.47" ry="100.65"/>
        <ellipse class="cls-64" cx="399.96" cy="359.92" rx="271.17" ry="99.44"/>
        <ellipse class="cls-64" cx="399.96" cy="359.92" rx="267.87" ry="98.23"/>
        <ellipse class="cls-59" cx="399.96" cy="359.92" rx="264.57" ry="97.02"/>
        <ellipse class="cls-58" cx="399.96" cy="359.92" rx="261.26" ry="95.81"/>
        <ellipse class="cls-52" cx="399.96" cy="359.92" rx="257.96" ry="94.6"/>
        <ellipse class="cls-51" cx="399.96" cy="359.92" rx="254.66" ry="93.38"/>
        <ellipse class="cls-50" cx="399.96" cy="359.92" rx="251.36" ry="92.17"/>
        <ellipse class="cls-49" cx="399.96" cy="359.92" rx="248.06" ry="90.96"/>
        <ellipse class="cls-77" cx="399.96" cy="359.92" rx="244.75" ry="89.75"/>
        <ellipse class="cls-77" cx="399.96" cy="359.92" rx="241.45" ry="88.54"/>
        <ellipse class="cls-66" cx="399.96" cy="359.92" rx="238.15" ry="87.33"/>
        <ellipse class="cls-67" cx="399.96" cy="359.92" rx="234.85" ry="86.12"/>
        <ellipse class="cls-73" cx="399.96" cy="359.92" rx="231.54" ry="84.91"/>
        <ellipse class="cls-74" cx="399.96" cy="359.92" rx="228.24" ry="83.7"/>
        <ellipse class="cls-72" cx="399.96" cy="359.92" rx="224.94" ry="82.49"/>
        <ellipse class="cls-72" cx="399.96" cy="359.92" rx="221.64" ry="81.28"/>
        <ellipse class="cls-23" cx="399.96" cy="359.92" rx="218.34" ry="80.07"/>
        <ellipse class="cls-24" cx="399.96" cy="359.92" rx="215.03" ry="78.85"/>
        <ellipse class="cls-19" cx="399.96" cy="359.92" rx="211.73" ry="77.64"/>
        <ellipse class="cls-18" cx="399.96" cy="359.92" rx="208.43" ry="76.43"/>
        <ellipse class="cls-30" cx="399.96" cy="359.92" rx="205.13" ry="75.22"/>
        <ellipse class="cls-33" cx="399.96" cy="359.92" rx="201.82" ry="74.01"/>
        <ellipse class="cls-28" cx="399.96" cy="359.92" rx="198.52" ry="72.8"/>
        <ellipse class="cls-28" cx="399.96" cy="359.92" rx="195.22" ry="71.59"/>
        <path class="cls-91" d="m399.96,289.54c105.99,0,191.92,31.51,191.92,70.38s-85.92,70.38-191.92,70.38-191.92-31.51-191.92-70.38,85.92-70.38,191.92-70.38Z"/>
        <ellipse class="cls-12" cx="399.96" cy="359.92" rx="188.62" ry="69.17"/>
        <path class="cls-17" d="m399.96,291.96c102.35,0,185.31,30.42,185.31,67.95s-82.97,67.96-185.31,67.96-185.31-30.42-185.31-67.96,82.97-67.95,185.31-67.95Z"/>
        <ellipse class="cls-16" cx="399.96" cy="359.92" rx="182.01" ry="66.74"/>
        <path class="cls-21" d="m399.96,294.38c98.7,0,178.71,29.34,178.71,65.53s-80.01,65.53-178.71,65.53-178.71-29.34-178.71-65.53,80.01-65.53,178.71-65.53Z"/>
        <ellipse class="cls-20" cx="399.96" cy="359.92" rx="175.41" ry="64.32"/>
        <ellipse class="cls-13" cx="399.96" cy="359.92" rx="172.1" ry="63.11"/>
        <ellipse class="cls-14" cx="399.96" cy="359.92" rx="168.8" ry="61.9"/>
        <ellipse class="cls-10" cx="399.96" cy="359.92" rx="165.5" ry="60.69"/>
        <ellipse class="cls-11" cx="399.96" cy="359.92" rx="162.2" ry="59.48"/>
        <ellipse class="cls-9" cx="399.96" cy="359.92" rx="158.89" ry="58.27"/>
        <path class="cls-87" d="m399.96,302.86c85.93,0,155.59,25.54,155.59,57.06s-69.66,57.06-155.59,57.06-155.59-25.54-155.59-57.06,69.66-57.06,155.59-57.06Z"/>
        <path class="cls-92" d="m399.96,304.07c84.11,0,152.29,25,152.29,55.84s-68.18,55.85-152.29,55.85-152.29-25-152.29-55.85,68.18-55.84,152.29-55.84Z"/>
        <ellipse class="cls-29" cx="399.96" cy="359.92" rx="148.99" ry="54.63"/>
        <ellipse class="cls-22" cx="399.96" cy="359.92" rx="145.69" ry="53.42"/>
        <ellipse class="cls-22" cx="399.96" cy="359.92" rx="142.38" ry="52.21"/>
        <ellipse class="cls-8" cx="399.96" cy="359.92" rx="139.08" ry="51"/>
        <ellipse class="cls-8" cx="399.96" cy="359.92" rx="135.78" ry="49.79"/>
        <ellipse class="cls-32" cx="399.96" cy="359.92" rx="132.48" ry="48.58"/>
        <ellipse class="cls-31" cx="399.96" cy="359.92" rx="129.17" ry="47.37"/>
        <ellipse class="cls-25" cx="399.96" cy="359.92" rx="125.87" ry="46.16"/>
        <ellipse class="cls-26" cx="399.96" cy="359.92" rx="122.57" ry="44.95"/>
        <ellipse class="cls-27" cx="399.96" cy="359.92" rx="119.27" ry="43.74"/>
        <path class="cls-88" d="m399.96,317.39c64.05,0,115.97,19.04,115.97,42.52s-51.92,42.53-115.97,42.53-115.97-19.04-115.97-42.53,51.92-42.52,115.97-42.52Z"/>
        <path class="cls-83" d="m399.96,318.6c62.22,0,112.66,18.5,112.66,41.31s-50.44,41.31-112.66,41.31-112.66-18.5-112.66-41.31,50.44-41.31,112.66-41.31Z"/>
        <ellipse class="cls-5" cx="399.96" cy="359.92" rx="109.36" ry="40.1"/>
        <path class="cls-3" d="m399.96,321.03c58.58,0,106.06,17.41,106.06,38.89s-47.48,38.89-106.06,38.89-106.06-17.41-106.06-38.89,47.48-38.89,106.06-38.89Z"/>
        <ellipse class="cls-2" cx="399.96" cy="359.92" rx="102.76" ry="37.68"/>
        <path class="cls-90" d="m399.96,323.45c54.93,0,99.45,16.33,99.45,36.47s-44.53,36.47-99.45,36.47-99.45-16.33-99.45-36.47,44.53-36.47,99.45-36.47Z"/>
        <path class="cls-90" d="m399.96,324.66c53.1,0,96.15,15.79,96.15,35.26s-43.05,35.26-96.15,35.26-96.15-15.79-96.15-35.26,43.05-35.26,96.15-35.26Z"/>
        <ellipse class="cls-15" cx="399.96" cy="359.92" rx="92.85" ry="34.05"/>
        <path class="cls-89" d="m399.96,327.08c49.45,0,89.55,14.7,89.55,32.84s-40.09,32.84-89.55,32.84-89.55-14.7-89.55-32.84,40.09-32.84,89.55-32.84Z"/>
        <path class="cls-84" d="m399.96,328.29c47.63,0,86.25,14.16,86.25,31.63s-38.61,31.63-86.25,31.63-86.24-14.16-86.24-31.63,38.61-31.63,86.24-31.63Z"/>
        <path class="cls-85" d="m399.96,329.5c45.81,0,82.94,13.62,82.94,30.42s-37.13,30.42-82.94,30.42-82.94-13.62-82.94-30.42,37.13-30.42,82.94-30.42Z"/>
        <ellipse class="cls-4" cx="399.96" cy="359.92" rx="79.64" ry="29.2"/>
        <path class="cls-81" d="m399.96,331.92c42.16,0,76.34,12.53,76.34,27.99s-34.18,27.99-76.34,27.99-76.34-12.53-76.34-27.99,34.18-27.99,76.34-27.99Z"/>
        <ellipse class="cls-7" cx="399.96" cy="359.92" rx="73.04" ry="26.78"/>
        <ellipse class="cls-6" cx="399.96" cy="359.92" rx="69.73" ry="25.57"/>
        <path class="cls-82" d="m399.96,384.28c36.59,0,66.43-10.94,66.43-24.36s-29.84-24.36-66.43-24.36-66.43,10.94-66.43,24.36,29.84,24.36,66.43,24.36Z"/>
      </g>
      <path class="cls-78" d="m725.06,213.25v-14.11c.54.03,1.07.06,1.61.09v-6.79c-.54-.04-1.07-.09-1.61-.13v-2.97l1.61.16v-6.79c-.54-.07-1.07-.14-1.61-.21v-12.78l1.61.29v-6.79l-1.61-.33v-2.97c.54.12,1.07.24,1.61.36v-6.79l-1.61-.4v-12.79c.54.16,1.07.32,1.61.49v-6.79c-.54-.18-1.07-.35-1.61-.53v-2.97l1.61.55v-6.79l-1.61-.6v-3.87l6.02,2.32v91.13h-6.02Zm0-93.45v3.87c-2.36-.88-4.73-1.75-7.09-2.62v-3.98l7.09,2.73h0Zm0,10.7c-2.36-.81-4.73-1.62-7.09-2.43v-7.03c.53.2,1.07.39,1.61.58v7c-.54-.18-1.07-.36-1.61-.55v3.06l1.61.53v6.98l-1.61-.48v3.06c.53.16,1.07.31,1.61.46v6.99c-.54-.14-1.07-.28-1.61-.42v3.06l1.61.4v6.99l-1.61-.35v-7.03c.53.13,1.07.26,1.61.39v6.99l-1.61-.35v3.05c2.36.49,4.72.99,7.09,1.48v-2.97c-.54-.12-1.07-.24-1.61-.35v-6.87l1.61.4v-12.79l-1.61-.48v-6.87c.54.17,1.07.35,1.61.52v-2.97h0Zm0,39.22v12.78c-1.18-.15-2.36-.29-3.54-.44-1.18-.15-2.36-.3-3.54-.45v7.03l1.61.16v-6.99c-.54-.06-1.07-.13-1.61-.2v-13.16c.53.1,1.07.19,1.61.28v-6.98l-1.61-.33v7.03c2.36.42,4.72.85,7.09,1.28h0Zm0,19.62l-3.54-.35-3.54-.35v3.06l1.61.14v6.98c-.54-.03-1.07-.06-1.61-.09v3.06c.53.02,1.07.05,1.61.08v6.99l-1.61-.03v4.42h7.09v-14.11c-.54-.03-1.07-.06-1.61-.09v-6.88c.54.05,1.07.1,1.61.14v-2.97Zm-7.09-72.28v3.98h0c-2.36-.87-4.72-1.75-7.09-2.62v7.24c2.36.81,4.73,1.61,7.09,2.42h0s0-7.03,0-7.03c-.54-.2-1.07-.4-1.61-.6v7.09c.54.19,1.07.37,1.61.55v3.06c-2.37-.78-4.73-1.55-7.09-2.33v7.22l1.61.48v-7.18l-1.61-.53v-3.14c.54.18,1.07.36,1.61.54v-7.19l-1.61-.59v-4.09l7.09,2.74h0Zm0,21.11c-2.36-.71-4.73-1.42-7.09-2.13v3.15c.54.15,1.07.31,1.61.46v7.19c-.53-.14-1.07-.28-1.61-.42v3.15c.54.13,1.07.26,1.61.39v7.19l-1.61-.35v-7.23c2.36.59,4.73,1.17,7.09,1.75v-3.06c-.54-.14-1.07-.28-1.61-.42v-7.08c.54.16,1.07.31,1.61.47v-3.06h0Zm0,13.16l-1.61-.4v7.08l1.61.35v3.05h0c-2.36-.49-4.72-.98-7.09-1.47v-3.14l7.09,1.56v-7.03h0Zm0,10.09v7.03h0c-2.36-.42-4.72-.84-7.09-1.27v3.15c.54.09,1.07.18,1.61.27v7.19l-1.61-.23v13.53l1.61.14v7.19l-1.61-.09v3.15c.54.02,1.07.05,1.61.07v7.19l-1.61-.03v4.55h7.09v-4.42l-1.61-.03v-7.08c.54.03,1.07.05,1.61.07v-3.06l-1.61-.1v-7.08c.54.04,1.07.09,1.61.13v-3.06l-1.61-.16v-7.08c.54.07,1.07.14,1.61.21v-13.16c-.54-.1-1.07-.2-1.61-.29v-7.08l1.61.34h0Zm0,20.19v7.03l-1.61-.16v-7.08l1.61.21h0Zm-7.09-14.43l1.61.29v-7.18l-1.61-.34v7.23Zm0-52.85v4.09l-1.61-.59v7.28c.54.19,1.07.37,1.61.55v3.14l-1.61-.53v7.28l1.61.48v-7.22h0c-1.18-.39-2.36-.78-3.54-1.17v-14.68l3.54,1.37h0Zm0,4.09l-1.61-.59v7.28l1.61.55v-7.24h0Zm0,17.62h0l-3.54-1.07v13.73h0l3.54.88v7.23l-1.61-.35v-7.28c.54.13,1.07.26,1.61.4v-3.15c-.54-.14-1.07-.28-1.61-.42v-7.28c.54.16,1.07.31,1.61.47v-3.15h0Zm0,20.77v3.14l-1.61-.34v7.28l1.61.29v3.15c-.54-.09-1.07-.18-1.61-.27v7.28l1.61.22v13.53l-3.54-.3v-34.76h0l3.54.78h0Zm0,3.14l-1.61-.34v7.28l1.61.29v-7.23h0Zm0,38.37v3.15c-.54-.02-1.07-.05-1.61-.07v7.27l1.61.03v4.55h-3.54v-15.14l3.54.21Zm-3.54-85.36v14.68c-1.18-.39-2.36-.78-3.54-1.17v-14.88l3.54,1.37h0Zm0,22.01l-3.54-1.07v-7.43c.53.18,1.07.36,1.61.54v7.39c-.54-.17-1.07-.33-1.61-.49v13.91c.53.14,1.07.27,1.61.41v7.38c-.54-.12-1.07-.24-1.61-.36v-7.42l3.54.88v-13.73h0Zm0,21.06v34.76l-3.54-.31v7.43l1.61.1v-7.39c-.54-.05-1.07-.1-1.61-.14v-3.23l1.61.16v-7.38l-1.61-.21v-3.23l1.61.22v-7.39l-1.61-.27v-13.89l3.54.78h0Zm0,42.09l-3.54-.21v3.24c.53.02,1.07.05,1.61.07v7.38l-1.61-.03v4.67h3.54v-15.14Zm-3.54-86.52v14.88l-1.61-.53v7.47l1.61.48v-7.43l-1.61-.53v7.47c.54.16,1.07.33,1.61.49v13.91c-.54-.14-1.07-.27-1.61-.41v7.48c.54.12,1.07.24,1.61.35v-7.42l-7.09-1.76v-3.33l1.61.42v-7.59c-.54-.16-1.07-.31-1.61-.46v-3.32l1.61.48v-7.59l-1.61-.53v-3.32c.54.18,1.07.36,1.61.55v-7.6l-1.61-.59v-4.32l7.09,2.74h0Zm0,43.65c-2.36-.52-4.73-1.04-7.09-1.56v3.32c.54.11,1.07.22,1.61.33v7.59l-1.61-.29v3.32c.54.09,1.07.18,1.61.27v7.6l-1.61-.22v3.32c.54.07,1.07.13,1.61.2v7.59l-1.61-.16v3.32c2.36.21,4.73.41,7.09.62h0v7.43l-1.61-.1v-7.47c.54.04,1.07.09,1.61.13v-3.23l-1.61-.16v-7.48l1.61.21v-3.23l-1.61-.22v-7.49l1.61.27v-13.89h0Zm0,42.66v3.24c-.54-.02-1.07-.05-1.61-.07v7.48c.54,0,1.07.01,1.61.02v4.67h-7.09v-4.8c.54,0,1.07.02,1.61.03v-7.59c-.54-.02-1.07-.04-1.61-.07v-3.33c2.36.14,4.73.27,7.09.41h0Zm-27.15,15.35h14.05v-106.72l-6.72,2.6v-6.76l-7.33-2.83v4.71l1.95.73v8.26l-1.95-.67v3.62c.65.22,1.3.43,1.95.65v8.26c-.65-.2-1.3-.4-1.95-.6v3.62l1.95.56v8.26l-1.95-.51v15.56l1.95.41v8.26l-1.95-.35v3.62l1.95.33v8.26l-1.95-.27v3.62c.65.08,1.3.17,1.95.25v8.26l-1.95-.19v3.61c.65.06,1.3.11,1.95.16v8.26c-.65-.04-1.3-.08-1.95-.12v3.63l1.95.09v8.25l-1.95-.03v5.23h0Zm20.06-104.4v4.32l-1.61-.59v7.68c.54.19,1.07.37,1.61.55v3.32l-1.61-.53v7.67c.54.16,1.07.33,1.61.49v3.32c-.54-.15-1.07-.31-1.61-.47v7.68l1.61.42v3.33l-1.61-.4v7.67l1.61.35v3.32c-.54-.11-1.07-.22-1.61-.33v7.67l1.61.29v3.32c-.54-.09-1.07-.18-1.61-.27v7.68l1.61.22v3.32c-.54-.07-1.07-.13-1.61-.2v7.67l1.61.16v3.32l-1.61-.14v7.68l1.61.09v3.33c-.54-.02-1.07-.05-1.61-.07v7.67c.54.01,1.07.02,1.61.03v4.8h-6.02v-106.72l6.02,2.33Zm-28.69,104.4h8.62v-5.23c-2.87-.05-5.75-.1-8.62-.15v5.38h0Zm8.62-113.71l-8.62-3.33v4.85c2.87,1.06,5.75,2.13,8.62,3.2v-4.71h0Zm0,13.03v3.62c-.65-.22-1.3-.43-1.95-.64v8.36c.65.19,1.3.39,1.95.59v3.62c-1.44-.41-2.87-.83-4.31-1.25-1.44-.42-2.88-.83-4.31-1.25v-3.72l1.95.58v-8.49l-1.95-.64v-3.72c.65.22,1.3.44,1.95.66v-8.52c-.65-.23-1.3-.47-1.95-.71v8.56c2.87.98,5.75,1.97,8.62,2.95h0Zm0,23.86c-1.44-.37-2.88-.74-4.31-1.12-1.44-.38-2.88-.76-4.31-1.14v-8.55c.65.19,1.3.38,1.95.56v8.51c-.65-.17-1.3-.34-1.95-.51v3.73l1.95.48v8.51l-1.95-.43v-8.55c.65.16,1.3.32,1.95.47v8.51l-1.95-.43v3.71c2.87.6,5.75,1.21,8.62,1.8v-15.56h0Zm0,23.87v3.62l-1.95-.33v8.38l1.95.27v3.62c-1.44-.18-2.87-.36-4.31-.54-1.44-.18-2.88-.37-4.31-.55v8.55l1.95.19v-8.5c-.65-.08-1.3-.16-1.95-.24v-3.72l1.95.27v-8.52l-1.95-.32v-3.72c.65.12,1.3.24,1.95.35v-8.49l-1.95-.41v8.55c2.87.51,5.75,1.04,8.62,1.56h0Zm0,23.87v3.61c-.65-.06-1.3-.11-1.95-.17v8.38c.65.03,1.3.07,1.95.1v3.63c-2.87-.13-5.75-.27-8.62-.4v8.55l1.95.04v-8.51c-.65-.03-1.3-.06-1.95-.09v-16.01l4.31.43,4.31.43Zm-17.25,29.09h8.62v-5.38l-4.31-.08-4.31-.08v-8.79l4.31.2,4.31.2v8.55l-1.95-.04v-8.61c.65.03,1.3.06,1.95.09v-16.01l-1.95-.19v-8.61c.65.08,1.3.17,1.95.25v-3.72l-8.62-1.21v-8.8c.65.11,1.3.21,1.95.33v8.75l-1.95-.27v16.46l1.95.17v8.75l-1.95-.12v3.84c.65.03,1.3.06,1.95.08v8.75l-1.95-.04v5.53h0Zm8.62-117.04l-8.62-3.33v4.99c2.87,1.06,5.75,2.13,8.62,3.19h0s0-4.85,0-4.85h0Zm0,4.85v8.56h0c-2.87-.98-5.75-1.96-8.62-2.94v-8.8l1.95.72v8.75c-.65-.22-1.3-.44-1.95-.66v3.83l1.95.64v8.74l-1.95-.58v-8.79c2.87.95,5.75,1.89,8.62,2.84v-3.72c-.65-.22-1.3-.45-1.95-.67v-8.62c.65.25,1.3.49,1.95.73h0Zm0,20.84c-2.88-.86-5.75-1.73-8.62-2.6v3.83c.65.19,1.3.37,1.95.56v8.75c-.65-.17-1.3-.34-1.95-.51v3.84c.65.16,1.3.32,1.95.48v8.75l-1.95-.43v-8.8c2.87.71,5.75,1.43,8.62,2.14v-3.73c-.65-.17-1.3-.34-1.95-.52v-8.61c.65.19,1.3.38,1.95.57v8.55c-.65-.17-1.3-.34-1.95-.51v-8.61c.65.19,1.3.38,1.95.57v-3.72h0Zm0,16.02c-.65-.16-1.3-.32-1.95-.49v8.61l1.95.43v3.71h0c-2.87-.6-5.75-1.19-8.62-1.79v-3.82c2.87.63,5.75,1.26,8.62,1.89v-8.55h0Zm0,12.27l-1.95-.41v8.61c.65.12,1.3.24,1.95.36v3.72c-2.88-.48-5.75-.96-8.62-1.44v-3.83c2.87.52,5.75,1.03,8.62,1.54h0v-8.55h0Zm0,24.57v8.55l-1.95-.19v-8.61l1.95.25h0Zm-8.62,20.33v-8.8c.65.06,1.3.11,1.95.16v8.75l-1.95-.12h0Zm0-37.89l1.95.35v-8.74l-1.95-.41v8.8Zm-4.31,56.06h4.31v-5.53l-1.95-.04v-8.84c.65.03,1.3.05,1.95.08v-3.84l-4.31-.25v3.89l4.31.2v8.79l-4.31-.08v5.61h0Zm4.31-120.37l-4.31-1.66v17.87c1.44.48,2.87.95,4.31,1.42h0v8.79l-1.95-.58v-8.86l1.95.64v-3.83c-.65-.22-1.3-.45-1.95-.67v-8.86l1.95.72v8.8l-1.95-.67v-8.86l1.95.72v-4.99h0Zm0,26.42v3.83c-.65-.19-1.3-.38-1.95-.57v8.86c.65.17,1.3.34,1.95.51v3.84c-.65-.16-1.3-.32-1.95-.48v8.86l1.95.43v-8.8l-4.31-1.07v-16.7l4.31,1.3h0Zm0,25.27c-1.44-.32-2.88-.63-4.31-.95v16.68l4.31.72h0v8.8h0l-4.31-.6v16.69l4.31.37v-16.46l-1.95-.27v-8.86c.65.11,1.3.22,1.95.32v-3.83l-1.95-.35v-8.86l1.95.41v-3.82h0Zm0,3.82v8.8l-1.95-.35v-8.86l1.95.41h0Zm0,37.89v8.8l-1.95-.12v-8.86c.65.06,1.3.12,1.95.17Zm-8.62,26.97h4.31v-5.61l-4.31-.07v5.68h0Zm4.31-122.04l-4.31-1.66v5.12l1.95.72v9c-.65-.22-1.3-.45-1.95-.67v3.93c1.44.47,2.87.95,4.31,1.43v-17.87h0Zm0,26.78v16.7h0l-4.31-1.07v9.03c.65.14,1.3.29,1.95.44v-8.99c-.65-.16-1.3-.33-1.95-.49v-16.92c.65.2,1.3.4,1.95.6v-8.99c-.65-.22-1.3-.44-1.95-.65v9.04l4.31,1.3h0Zm0,25.62h0l-4.31-.95v16.91c1.44.24,2.87.48,4.31.73v-16.68h0Zm0,25.6v16.69l-4.31-.37v9.04l4.31.25v3.89l-4.31-.2v9.04c.65.01,1.3.02,1.95.04v-8.99c-.65-.03-1.3-.06-1.95-.09v-3.95l1.95.12v-8.99c-.65-.06-1.3-.12-1.95-.17v-16.9l1.95.27v-9l-1.95-.33v9.05c1.44.2,2.87.4,4.31.6Zm-12.94,44.03h8.63v-5.68l-1.95-.03v-9.1l1.95.09v9.04c-.65-.01-1.3-.02-1.95-.03v-9.1c.65.03,1.3.06,1.95.09v-3.95l-1.95-.12v-9.09c.65.05,1.3.11,1.95.16v-16.9l-1.95-.27v-9.12l1.95.33v9.05l-1.95-.27v-9.12l1.95.33v-16.91c-2.88-.64-5.75-1.27-8.63-1.9v4.04c.65.13,1.3.27,1.95.4v9.23l-1.95-.35v4.04c.65.11,1.3.21,1.95.32v9.25l-1.95-.27v4.04c.65.08,1.3.16,1.95.25v9.23l-1.95-.19v4.04c2.87.25,5.75.5,8.62.75h0v9.04h0c-2.87-.17-5.75-.33-8.62-.5v4.05c.65.03,1.3.06,1.95.08v9.23c-.65-.01-1.3-.02-1.95-.03v5.84h0Zm8.63-123.7v5.12c-.65-.24-1.3-.49-1.95-.73v9.12c.65.22,1.3.44,1.95.67v3.93l-1.95-.64v9.09l1.95.59v-9.04c-.65-.22-1.3-.43-1.95-.65v9.09c.65.2,1.3.4,1.95.6v16.92c-.65-.17-1.3-.33-1.95-.49v9.1c.65.14,1.3.29,1.95.43v-9.03l-8.63-2.14v-4.06l1.95.51v-9.23c-.65-.19-1.3-.37-1.95-.56v-4.04c.65.2,1.3.39,1.95.59v-9.23l-1.95-.64v-18.6l8.63,3.33Zm-15.95-6.16l-7.32,2.83v5.26l1.95-.72v9.35c-.65.23-1.3.45-1.95.67v4.04l1.95-.64v9.34c-.65.2-1.3.4-1.95.6v4.04c.65-.19,1.3-.37,1.95-.57v9.35l-1.95.51v4.06l1.95-.49v9.34l-1.95.43v4.04c.65-.13,1.3-.27,1.95-.4v9.34l-1.95.35v17.38c.65-.08,1.3-.16,1.95-.25v9.34l-1.95.19v4.04l1.95-.17v9.35l-1.95.11v4.05c.65-.03,1.3-.06,1.95-.08v9.34c-.65.01-1.3.02-1.95.03v5.84h14.64v-5.84c-.65,0-1.3-.02-1.95-.03v-9.34c.65.03,1.3.06,1.95.08v-4.05l-1.95-.11v-9.35l1.95.17v-4.04l-1.95-.19v-9.34c.65.08,1.3.17,1.95.25v-4.04l-1.95-.27v-9.35c.65.11,1.3.22,1.95.33v-4.04l-1.95-.35v-9.34c.65.14,1.3.27,1.95.4v-4.04l-1.95-.43v-9.34l1.95.49v-4.06l-1.95-.51v-9.35c.65.2,1.3.38,1.95.57v-4.04c-.65-.2-1.3-.39-1.95-.6v-9.34l1.95.64v-18.6l-7.32-2.83Zm-7.32,2.83l-8.63,3.33v31.08c.65-.19,1.3-.38,1.95-.57v9.1c-.65.17-1.3.34-1.95.51v3.95c.65-.17,1.3-.33,1.95-.49v9.1c-.65.14-1.3.29-1.95.43v-9.03l8.63-2.14v-4.06l-1.95.51v-9.23c.65-.19,1.3-.37,1.95-.56v-4.04c-.65.2-1.3.39-1.95.59v-9.23l1.95-.64v-4.04c-.65.22-1.3.44-1.95.67v-9.25l1.95-.72v-5.26h0Zm-8.63,127.03v-5.68l1.95-.03v-9.1l-1.95.09v9.04c.65-.01,1.3-.02,1.95-.03v-9.1c-.65.03-1.3.06-1.95.09v-3.95l1.95-.12v-9.09c-.65.05-1.3.11-1.95.16v-16.9l1.95-.27v-9.12l-1.95.33v9.05l1.95-.27v-9.12l-1.95.33v-3.93c.65-.12,1.3-.24,1.95-.36v-9.09l-1.95.41v-3.93c2.88-.64,5.75-1.27,8.63-1.9v4.04c-.65.13-1.3.27-1.95.4v9.23l1.95-.35v17.38c-.65.08-1.3.16-1.95.25v9.23l1.95-.19v4.04c-2.87.25-5.75.5-8.62.75h0v9.04h0c2.87-.17,5.75-.33,8.62-.5v4.05c-.65.03-1.3.06-1.95.08v9.23c.65-.01,1.3-.02,1.95-.03v5.84h-8.63Zm0-123.7l-4.31,1.66v43.49h0l4.31-1.07v9.03c-.65.14-1.3.29-1.95.44v-8.99c.65-.16,1.3-.33,1.95-.49v-3.95c-.65.17-1.3.34-1.95.52v-8.99c.65-.2,1.3-.39,1.95-.58v-31.08h0Zm-4.31,123.7h4.31v-5.68l-4.31.07v5.61h0Zm4.31-70.58v3.93l-1.95.41v8.99c.65-.12,1.3-.24,1.95-.36v3.93c-1.44.24-2.87.48-4.31.73v-16.68h0l4.31-.95h0Zm0,16.91l-1.95.33v9l1.95-.27v16.9c-.65.06-1.3.12-1.95.17v8.99l1.95-.12v3.95c-.65.03-1.3.06-1.95.09v8.99l1.95-.04v-9.04l-4.31.2v-3.89l4.31-.25v-9.04l-4.31.37v-16.69c1.44-.2,2.87-.4,4.31-.6v-9.05Zm-4.31-68.36l-4.31,1.66v4.99l1.95-.72v8.86c-.65.23-1.3.45-1.95.67v3.83l1.95-.64v8.86l-1.95.58v3.83c.65-.19,1.3-.38,1.95-.57v8.86c-.65.17-1.3.34-1.95.51v3.84c.65-.16,1.3-.32,1.95-.48v8.86l-1.95.43v-8.8l4.31-1.07v-43.49h0Zm-4.31,122.04h4.31v-5.61l-4.31.08v-8.79l4.31-.2v-3.89l-4.31.25v3.84c.65-.03,1.3-.06,1.95-.08v8.84l-1.95.04v5.53h0Zm4.31-69.63v16.68l-4.31.72h0v-16.45c1.44-.32,2.88-.63,4.31-.95h0Zm0,25.6l-4.31.6h0v-8.8c.65-.11,1.3-.21,1.95-.32v8.86l-1.95.27v3.83c.65-.08,1.3-.16,1.95-.25v8.86c-.65.07-1.3.13-1.95.19v3.83l4.31-.37v-16.69h0Zm-4.31,25.86v-8.8c.65-.06,1.3-.12,1.95-.17v8.86l-1.95.12h0Zm0-88.41v-8.8l1.95-.72v8.86l-1.95.67Zm0-13.79l-8.62,3.33v4.85h0c2.87-1.06,5.75-2.13,8.62-3.19v8.8c-2.87.98-5.75,1.96-8.62,2.94h0s0-8.55,0-8.55c.65-.24,1.3-.48,1.95-.73v8.62c-.65.23-1.3.45-1.95.67v16c.65-.19,1.3-.38,1.95-.57v8.61c-.65.18-1.3.35-1.95.52v3.73c2.88-.71,5.75-1.42,8.62-2.14v8.8l-1.95.43v-8.75c.65-.16,1.3-.32,1.95-.48v-3.84c-.65.17-1.3.34-1.95.51v-8.75c.65-.19,1.3-.37,1.95-.56v-3.83l-1.95.58v-8.74l1.95-.64v-3.83c-.65.22-1.3.44-1.95.66v-8.75l1.95-.72v-4.99h0Zm-8.62,120.37h8.62v-5.53l-1.95.04v-8.75c.65-.03,1.3-.06,1.95-.08v-3.84l-1.95.12v-8.75l1.95-.17v-3.83c-.65.06-1.3.12-1.95.19v-8.74c.65-.08,1.3-.17,1.95-.25v-3.83l-1.95.27v-8.75c.65-.11,1.3-.22,1.95-.33v8.8l-8.62,1.21v3.72c.65-.08,1.3-.17,1.95-.25v8.61l-1.95.19v-8.55l1.95-.25v8.61l-1.95.19v16.01c.65-.03,1.3-.06,1.95-.09v8.61l-1.95.04v-8.55l4.31-.2,4.31-.2v8.79l-4.31.08-4.31.08v5.38h0Zm8.62-68.68v16.45c-2.87.48-5.75.96-8.62,1.44v-3.72c.65-.12,1.3-.24,1.95-.36v-8.61l-1.95.41v-3.72l1.95-.43v-8.61c-.65.16-1.3.33-1.95.49v8.55c2.88-.63,5.75-1.26,8.62-1.89h0Zm0,41.71v8.8l-1.95.12v-8.75c.65-.05,1.3-.11,1.95-.16Zm-8.62-90.08l-8.62,3.33v4.71c2.88-1.07,5.75-2.14,8.62-3.19v-4.85h0Zm-8.62,117.04h8.62v-5.38c-2.88.05-5.75.1-8.62.15v5.23h0Zm8.62-112.19c-.65.24-1.3.48-1.95.71v8.52c.65-.22,1.3-.44,1.95-.66v16c-.65.19-1.3.38-1.95.56v8.51c.65-.17,1.3-.34,1.95-.51v3.73l-1.95.48v8.51l1.95-.43v-8.55c-.65.16-1.3.32-1.95.47v8.51l1.95-.43v3.72l-1.95.41v8.49c.65-.11,1.3-.23,1.95-.35v3.72l-1.95.32v8.52l1.95-.27v3.72c-.65.08-1.3.16-1.95.24v8.5l1.95-.19v-8.55c-1.44.19-2.88.37-4.31.55-1.44.18-2.87.36-4.31.54v-3.62l1.96-.27v-8.38l-1.96.33v-39.42c.65-.2,1.3-.39,1.96-.58v-8.36c-.65.21-1.3.42-1.96.64v-3.62c2.88-.99,5.75-1.97,8.62-2.95v-8.56h0Zm0,82.25v16.01c-.65.03-1.3.06-1.95.09v8.51l1.95-.04v-8.55c-2.87.13-5.75.26-8.62.4v-3.63c.65-.04,1.3-.07,1.96-.1v-8.38c-.65.06-1.3.12-1.96.17v-3.61l4.31-.43,4.31-.43Zm-8.62-83.77l-7.33,2.83v110.89h7.33v-5.23l-1.95.03v-8.25l1.95-.09v-3.63c-.65.04-1.3.08-1.95.12v-8.26c.65-.05,1.3-.11,1.95-.16v-3.61l-1.95.19v-8.26c.65-.08,1.3-.17,1.95-.25v-3.62l-1.95.27v-8.26l1.95-.33v-39.42c-.65.2-1.3.4-1.95.6v-8.26c.65-.21,1.3-.43,1.95-.65v-3.62l-1.95.67v-8.26l1.95-.73v-4.71h0Zm-23.69,113.71v-28.53h4.37v-13.81h-4.37v-6.01h4.37v-13.81h-4.37v-25.83h4.37v-13.81h-4.37v-21.63h8.74v12.41h7.63v111.03h-16.37Zm0-123.44v21.63h-4.37v13.81h4.37v25.83h-4.37v13.81h4.37v6.01h-4.37v13.81h4.37v28.53h-19.28v-8.7h4.37v-13.81h-4.37v-6.01h4.37v-13.81h-4.37v-6.01h4.37v-13.81h-4.37v-6.01h4.37v-13.81h-4.37v-6.01h4.37v-13.81h-4.37v-21.63h19.28Zm-19.28,0v21.63h-4.37v13.81h4.37v6.01h-4.37v13.81h4.37v6.01h-4.37v13.81h4.37v6.01h-4.37v13.81h4.37v6.01h-4.37v13.81h4.37v8.7h-19.28v-48.35h4.37v-13.81h-4.37v-61.28h5.72v-9.03c0-3.16-2.56-5.71-5.72-5.71h0v-19.48h0c1.65,0,2.99,1.34,2.99,2.99,0,1.29-.81,2.39-1.96,2.81v6.54c6.66.53,11.9,6.1,11.9,12.9v8.99h6.34Zm-19.28-34.23v19.48c-3.16,0-5.71,2.56-5.71,5.71v9.03h5.71v61.28h-4.37v13.81h4.37v48.35h-19.28v-8.7h4.37v-13.81h-4.37v-25.83h4.37v-13.81h-4.37v-6.01h4.37v-13.81h-4.37v-41.46h6.34v-8.99c0-6.8,5.24-12.37,11.9-12.9v-6.54c-1.14-.42-1.96-1.52-1.96-2.81,0-1.65,1.34-2.99,2.99-2.99Zm-19.28,34.23v41.46h-4.37v13.81h4.37v6.01h-4.37v13.81h4.37v25.83h-4.37v13.81h4.37v8.7h-19.28v-8.7h4.37v-13.81h-4.37v-6.01h4.37v-13.81h-4.37v-25.83h4.37v-13.81h-4.37v-6.01h4.37v-13.81h-4.37v-21.63h19.28Zm-19.28,0v21.63h-4.37v13.81h4.37v6.01h-4.37v13.81h4.37v25.83h-4.37v13.81h4.37v6.01h-4.37v13.81h4.37v8.7h-16.37v-111.03h7.63v-12.41h8.74Zm-23.56,123.44h7.19V84.39l-7.19-4.42v7.49l1.92,1.12v14.16c-.64-.33-1.28-.66-1.92-.99v26.73c.64.25,1.28.5,1.92.75v14.14l-1.92-.62v6.22c.64.19,1.28.37,1.92.56v14.17c-.64-.15-1.28-.3-1.92-.44v6.21c.64.13,1.28.26,1.92.38v14.16l-1.92-.26v6.22c.64.07,1.28.14,1.92.21v14.16c-.64-.02-1.28-.05-1.92-.08v8.99Zm0-133.28v7.49l-1.92-1.12v14.41c.64.33,1.28.66,1.92.99v26.73c-.64-.25-1.28-.5-1.92-.75v14.41l1.92.62v6.22c-.64-.19-1.28-.37-1.92-.56v14.41c.64.15,1.28.3,1.92.44v6.21c-.64-.13-1.28-.26-1.92-.39v14.41l1.92.26v6.22c-.64-.07-1.28-.14-1.92-.2v14.41c.64.02,1.28.05,1.92.08v8.99h-8.48v-9.34c.64.03,1.28.06,1.92.08v-14.73c-.64-.06-1.28-.13-1.92-.2v-27.75c.64.15,1.28.29,1.92.44v-14.73c-.64-.19-1.28-.38-1.92-.56v-6.47c.64.21,1.28.42,1.92.63v-14.71c-.64-.25-1.28-.5-1.92-.75v-6.46l1.92.81v-14.73l-1.92-.93v-29.09l8.48,5.21Zm-8.48-5.21v29.09l-1.92-.93v14.97l1.92.81v6.46c-.64-.25-1.28-.5-1.92-.75v14.97c.64.21,1.28.41,1.92.62v6.47c-.64-.19-1.28-.38-1.92-.58v14.98c.64.15,1.28.3,1.92.44v27.75c-.64-.07-1.28-.14-1.92-.21v14.98c.64.02,1.28.05,1.92.08v9.34h-8.48v-31.79l1.92.26v-15.28l-1.92-.38v-28.82c.64.21,1.28.42,1.92.63v-15.27c-.64-.25-1.28-.5-1.92-.75v-6.71c.64.27,1.28.53,1.92.8v-15.28l-1.92-.93v-30.18h0s8.47,5.21,8.47,5.21Zm-8.48-5.21v30.18l-1.92-.93v15.54c.64.27,1.28.53,1.92.8v6.71c-.64-.25-1.28-.49-1.92-.74v15.5c.64.21,1.28.41,1.92.62v28.82l-1.92-.38v15.52l1.92.26v31.79h-8.48v-32.95l1.92.26v-15.84l-1.92-.38v-29.86c.64.21,1.28.42,1.92.63v-15.82c-.64-.25-1.28-.5-1.92-.75v-6.96c.64.27,1.28.53,1.92.79v-15.84c-.64-.3-1.28-.61-1.92-.92v-6.94c.64.33,1.28.66,1.92.98v-15.84c-.64-.36-1.28-.73-1.92-1.1v-8.37l8.48,5.21Zm-8.48-5.21v8.37c-.64-.37-1.28-.74-1.92-1.1v16.08c.64.33,1.28.65,1.92.98v6.94c-.64-.31-1.28-.62-1.92-.92v16.08c.64.27,1.28.54,1.92.81v6.96c-.64-.25-1.28-.5-1.92-.75v16.06c.64.21,1.28.42,1.92.63v29.86l-1.92-.38v16.08l1.92.26v32.95h-8.48v-10.39c.64.03,1.28.05,1.92.07v-16.39c-.64-.07-1.28-.14-1.92-.21v-7.17l1.92.26v-16.41l-1.92-.38v-7.18c.64.15,1.28.29,1.92.44v-16.39l-1.92-.57v-30.91c.64.27,1.28.54,1.92.81v-16.41l-1.92-.93v-32.37l8.48,5.21Zm-8.48-5.21v32.37l-1.92-.93v16.65c.64.27,1.28.53,1.92.8v30.91l-1.92-.57v16.65c.64.15,1.28.3,1.92.44v7.18l-1.92-.38v16.65l1.92.26v7.17c-.64-.07-1.28-.13-1.92-.21v16.65c.64.03,1.28.06,1.92.08v10.39h-7.2V54.71l7.2,4.42h0Zm-41.02,154.12v-12.09c.86.04,1.72.07,2.58.11v-19.04c-.86-.1-1.72-.19-2.58-.29v-8.36l2.58.35v-19.04c-.86-.17-1.72-.34-2.58-.51v-8.36c.86.2,1.72.39,2.58.6v-19.06c-.86-.26-1.72-.51-2.58-.76v-8.37l2.58.83v-19.02c-.86-.34-1.72-.68-2.58-1.01v-35.95c.86.44,1.72.88,2.58,1.33v-19.04l-2.58-1.5v-10.07l9.68,5.95v173.33h-9.68Zm9.68-128.86v128.86h24.15V54.71c-4.03,4.95-8.05,9.89-12.08,14.84-4.02,4.95-8.05,9.89-12.07,14.84Zm-9.68-50.42v10.07l-2.58-1.5v19.38c.86.45,1.72.89,2.58,1.33v35.95c-.86-.34-1.72-.67-2.58-1.01v19.39l2.58.83v8.37c-.86-.25-1.72-.5-2.58-.76v19.38c.86.2,1.72.4,2.58.6v8.36c-.86-.17-1.72-.35-2.58-.53v19.38l2.58.35v8.36c-.86-.09-1.72-.18-2.58-.27v19.39c.86.03,1.72.07,2.58.11v12.09h-11.4v-41.21l2.58.35v-19.81c-.86-.17-1.72-.34-2.58-.51v-66l2.58,1.09v-19.81l-2.58-1.25V26.97l11.4,7.01Zm-11.4-7.01v39.13l-2.58-1.25v20.13l2.58,1.09v66c-.86-.17-1.72-.35-2.58-.53v20.15l2.58.35v41.21h-11.4v-13.04c.86.03,1.72.07,2.58.11v-20.56c-.86-.1-1.72-.19-2.58-.28v-9.01l2.58.35v-20.56l-2.58-.51v-9.01c.86.2,1.72.39,2.58.59v-20.54l-2.58-.77v-38.76c.86.36,1.72.71,2.58,1.08v-20.56l-2.58-1.25V19.96h0s11.4,7.01,11.4,7.01Zm-11.4-7.01v40.59l-2.58-1.25v20.9c.86.36,1.72.72,2.58,1.08v38.76l-2.58-.77v20.9c.86.19,1.72.39,2.58.59v9.01l-2.58-.51v20.88l2.58.35v9.01c-.86-.09-1.72-.18-2.58-.28v20.9c.86.03,1.72.06,2.58.1v13.04h-11.4v-75.12c.86.2,1.72.4,2.58.59v-21.3c-.86-.26-1.72-.51-2.58-.76v-9.35c.86.28,1.72.57,2.58.84v-21.28c-.86-.33-1.72-.67-2.58-1v-40.18c.86.44,1.72.88,2.58,1.32v-21.3c-.86-.49-1.72-.99-2.58-1.48v-11.26c3.8,2.34,7.6,4.67,11.4,7.01Zm-11.4-7.01v11.26c-.86-.5-1.72-.99-2.58-1.48v21.62c.86.44,1.72.88,2.58,1.32v40.18c-.86-.34-1.72-.67-2.58-1v21.6c.86.28,1.72.56,2.58.84v9.35c-.86-.25-1.72-.5-2.58-.75v21.62c.86.2,1.72.41,2.58.6v75.12h-11.4v-13.98c.86.03,1.72.07,2.58.1v-22.05c-.86-.1-1.72-.19-2.58-.28v-41.54c.86.2,1.72.39,2.58.6v-22.05l-2.58-.77v-41.57c.86.36,1.72.72,2.58,1.1v-22.07l-2.58-1.25V5.95l11.4,7Zm-11.4-7v43.54l-2.58-1.25v22.39c.86.36,1.72.72,2.58,1.08v41.57l-2.58-.77v22.39c.86.2,1.72.4,2.58.6v41.54c-.86-.09-1.72-.18-2.58-.28v22.39c.86.04,1.72.08,2.58.11v13.98h-9.68V0l9.68,5.95h0Zm-19.37,207.3h9.68V0l-9.68,5.95v43.54l2.58-1.25v22.39c-.86.36-1.72.72-2.58,1.08v9.68c.86-.34,1.72-.67,2.58-1.01v22.37c-.86.29-1.72.57-2.58.85v9.68l2.58-.77v22.39c-.86.2-1.72.4-2.58.6v41.54c.86-.09,1.72-.18,2.58-.28v22.39c-.86.04-1.72.08-2.58.11v13.98Zm0-207.3v43.54l-2.58,1.25v22.07c.86-.37,1.72-.74,2.58-1.1v9.68c-.86.34-1.72.67-2.58,1.01v22.03c.86-.28,1.72-.55,2.58-.83v9.68l-2.58.77v22.05c.86-.2,1.72-.4,2.58-.6v41.54c-.86.09-1.72.18-2.58.28v22.05c.86-.03,1.72-.06,2.58-.1v13.98h-11.4v-44.32l2.58-.35v-21.62l-2.58.51v-9.33c.86-.2,1.72-.4,2.58-.61v-21.62c-.86.24-1.72.5-2.58.75v-40.16c.86-.36,1.72-.72,2.58-1.08v-21.62c-.86.4-1.72.82-2.58,1.24V12.95l11.4-7Zm-11.4,7v42.07c-.86.42-1.72.83-2.58,1.24v21.3c.86-.35,1.72-.71,2.58-1.07v40.16c-.86.25-1.72.51-2.58.77v21.3c.86-.19,1.72-.39,2.58-.59v9.33l-2.58.51v21.3l2.58-.35v44.32h-11.4v-13.04c.86-.04,1.72-.07,2.58-.1v-20.9c-.86.1-1.72.19-2.58.28v-98.21c.86-.36,1.72-.71,2.58-1.08v-20.9l-2.58,1.25v-9l2.58-1.31v-20.9c-.86.49-1.72.99-2.58,1.48v-10.87c3.8-2.34,7.6-4.67,11.4-7.01Zm-11.4,7.01v10.87c-.86.5-1.72,1-2.58,1.5v20.54l2.58-1.31v9l-2.58,1.25v20.56c.86-.36,1.72-.72,2.58-1.08v98.21c-.86.09-1.72.18-2.58.28v20.56c.86-.04,1.72-.08,2.58-.12v13.04h-11.4v-41.21l2.58-.35v-20.15c-.86.18-1.72.36-2.58.53v-37.36c.86-.28,1.72-.56,2.58-.83v-20.13c-.86.34-1.72.68-2.58,1.01V26.97l11.4-7.01h0Zm-11.4,7.01v67.79c-.86.34-1.72.67-2.58,1.01v19.79c.86-.29,1.72-.57,2.58-.85v37.36c-.86.17-1.72.34-2.58.51v19.81l2.58-.35v41.21h-11.4v-12.09c.86-.04,1.72-.07,2.58-.11v-19.39c-.86.09-1.72.18-2.58.27v-8.36l2.58-.35v-19.38c-.86.18-1.72.36-2.58.53v-8.36c.86-.2,1.72-.39,2.58-.6v-19.38c-.86.26-1.72.51-2.58.76v-8.37l2.58-.83v-19.39c-.86.34-1.72.68-2.58,1.01v-8.37l2.58-1.09v-19.38l-2.58,1.25v-8.36c.86-.44,1.72-.89,2.58-1.33v-19.38l-2.58,1.5v-10.07l11.4-7.01Zm-11.4,7.01v10.07l-2.58,1.5v19.04c.86-.45,1.72-.89,2.58-1.33v8.36l-2.58,1.25v19.06l2.58-1.09v8.37c-.86.34-1.72.67-2.58,1.01v19.02l2.58-.83v8.37c-.86.25-1.72.5-2.58.76v19.06c.86-.2,1.72-.4,2.58-.6v8.36c-.86.17-1.72.34-2.58.51v19.04l2.58-.35v8.36c-.86.09-1.72.19-2.58.29v19.04c.86-.03,1.72-.07,2.58-.11v12.09h-9.68V39.92l9.68-5.95h0Zm-41.02,179.28v-10.39c.64-.03,1.28-.05,1.92-.08v-16.65c-.64.07-1.28.14-1.92.21v-30.88c.64-.15,1.28-.29,1.92-.44v-16.65l-1.92.57v-7.2c.64-.21,1.28-.42,1.92-.63v-16.63c-.64.25-1.28.5-1.92.75v-7.2c.64-.27,1.28-.53,1.92-.8v-16.65l-1.92.93v-7.18c.64-.33,1.28-.66,1.92-.99v-16.65c-.64.37-1.28.74-1.92,1.11v-8.66l7.2-4.42v158.54h-7.2Zm31.35-147.25c-4.02-1.89-8.05-3.77-12.07-5.64-4.02-1.88-8.05-3.77-12.08-5.64v158.54h24.15V66Zm-31.35-6.87v8.66c-.64.37-1.28.74-1.92,1.12v16.39c.64-.33,1.28-.66,1.92-.99v7.18l-1.92.93v16.41c.64-.28,1.28-.55,1.92-.81v7.2c-.64.25-1.28.5-1.92.75v16.38c.64-.21,1.28-.41,1.92-.62v7.2l-1.92.57v16.39c.64-.15,1.28-.3,1.92-.44v30.88c-.64.07-1.28.13-1.92.21v16.39c.64-.02,1.28-.05,1.92-.07v10.39h-8.48v-10.04c.64-.03,1.28-.05,1.92-.08v-16.08c-.64.06-1.28.13-1.92.2v-29.84c.64-.15,1.28-.3,1.92-.45v-16.08c-.64.18-1.28.37-1.92.56v-29.86c.64-.27,1.28-.54,1.92-.81v-16.08c-.64.3-1.28.61-1.92.92v-31.27l8.48-5.21Zm-8.48,5.21v31.27c-.64.31-1.28.62-1.92.92v15.84c.64-.26,1.28-.53,1.92-.79v29.86c-.64.19-1.28.38-1.92.57v15.84c.64-.14,1.28-.29,1.92-.44v29.84c-.64.07-1.28.13-1.92.2v15.84c.64-.02,1.28-.05,1.92-.07v10.04h-8.48v-53.89c.64-.15,1.28-.29,1.92-.44v-15.54l-1.92.57v-6.72c.64-.21,1.28-.41,1.92-.62v-15.5c-.64.25-1.28.49-1.92.74v-28.81l1.92-.97v-15.54c-.64.36-1.28.73-1.92,1.1v-8.08l8.48-5.21Zm-8.48,5.21v8.08c-.64.37-1.28.74-1.92,1.11v15.27l1.92-.97v28.81c-.64.25-1.28.5-1.92.75v15.27c.64-.21,1.28-.42,1.92-.63v6.72l-1.92.57v15.27c.64-.14,1.28-.29,1.92-.44v53.89h-8.48v-9.34c.64-.03,1.28-.06,1.92-.08v-14.98c-.64.07-1.28.14-1.92.21v-6.45l1.92-.26v-14.98c-.64.13-1.28.27-1.92.39v-6.45c.64-.15,1.28-.29,1.92-.44v-14.98c-.64.2-1.28.39-1.92.58v-71.71l8.47-5.21h0Zm-8.48,5.21v71.71c-.64.19-1.28.37-1.92.56v14.73c.64-.15,1.28-.3,1.92-.44v6.45c-.64.13-1.28.26-1.92.38v14.73l1.92-.26v6.45c-.64.07-1.28.14-1.92.2v14.73c.64-.02,1.28-.05,1.92-.08v9.34h-8.48v-29.5l1.92-.26v-14.41c-.64.13-1.28.26-1.92.39v-26.73l1.92-.62v-14.41c-.64.25-1.28.5-1.92.75v-6.22l1.92-.81v-14.41l-1.92.93v-6.22c.64-.33,1.28-.66,1.92-.99v-14.41l-1.92,1.12v-7.49l8.48-5.21Zm-8.48,5.21v7.49l-1.92,1.12v14.16c.64-.33,1.28-.66,1.92-.99v6.22l-1.92.93v14.17l1.92-.81v6.22c-.64.25-1.28.5-1.92.75v14.14l1.92-.62v26.73c-.64.13-1.28.26-1.92.38v14.16l1.92-.26v29.5h-7.19V84.39l7.19-4.42h0Zm-17.84,133.28h10.65V24.34h-10.65v7.8h2.84v13.81h-2.84v6.01h2.84v13.81h-2.84v6.01h2.84v13.81h-2.84v6.01h2.84v13.81h-2.84v6.01h2.84v13.81h-2.84v25.83h2.84v13.81h-2.84v6.01h2.84v13.81h-2.84v6.01h2.84v13.81h-2.84v8.7Zm0-188.91v7.8h-25.1v-7.8h25.1Zm0,21.61v6.01h-2.84v13.81h2.84v6.01h-15.39v13.81h15.39v6.01h-2.84v13.81h2.84v6.01h-25.1v-6.01h15.39v-13.81h-15.39v-6.01h2.84v-13.81h-2.84v-6.01h15.39v-13.81h-15.39v-6.01h25.1Zm0,79.3v25.83h-15.39v13.81h15.39v6.01h-2.84v13.81h2.84v6.01h-25.1v-6.01h2.84v-13.81h-2.84v-25.83h15.39v-13.81h-15.39v-6.01h25.1Zm0,79.3v8.7h-25.1v-8.7h25.1Zm-25.1-180.21v7.8h-2.84v13.81h2.84v6.01h-6.27v-27.62h6.27Zm0,41.44v6.01h-2.84v13.81h2.84v6.01h-6.27v-25.83h6.27Zm0,39.65v6.01h-2.84v13.81h2.84v6.01h-6.27v-25.83h6.27Zm0,39.65v25.83h-6.27v-25.83h6.27Zm0,39.65v6.01h-6.27v-6.01h6.27Zm0,19.82v8.7h-6.27v-8.7h6.27Zm-6.27-180.21v27.62h-6.27v-27.62h6.27Zm0,41.44v25.83h-6.27v-25.83h6.27Zm0,39.65v25.83h-6.27v-25.83h6.27Zm0,39.65v25.83h-6.27v-6.01h2.84v-13.81h-2.84v-6.01h6.27Zm0,39.65v6.01h-6.27v-6.01h6.27Zm0,19.82v8.7h-6.27v-8.7h6.27Zm-6.27-180.21v27.62h-2.84v13.81h2.84v25.83h-12.55v-25.83h2.84v-13.81h-2.84v-6.01h2.84v-13.81h-2.84v-7.8h12.55Zm0,81.09v25.83h-2.84v13.81h2.84v6.01h-2.84v13.81h2.84v6.01h-12.55v-25.83h2.84v-13.81h-2.84v-6.01h2.84v-13.81h-2.84v-6.01h12.55Zm0,79.3v6.01h-2.84v13.81h2.84v8.7h-12.55v-8.7h2.84v-13.81h-2.84v-6.01h12.55Zm-12.55-160.38v7.8h-2.84v13.81h2.84v6.01h-2.84v13.81h2.84v25.83h-2.84v13.81h2.84v6.01h-2.84v13.81h2.84v6.01h-2.84v13.81h2.84v25.83h-2.84v13.81h2.84v6.01h-2.84v13.81h2.84v8.7h-10.65V24.34h10.65Zm-40.99,188.91v-8.7h23.73v-6.63h-23.73v-6.7h23.73v-6.63h-23.73v-33.36h23.73v-6.63h-23.73v-23.55h30.34v92.2h-30.34Zm0-92.2v23.55h-23.73v6.63h23.73v33.36h-23.73v6.63h23.73v6.7h-23.73v6.63h23.73v8.7h-30.34v-92.2h30.34Z"/>
      <g>
        <path class="cls-86" d="m480.84,110.86c6.28,2.69-.67,6.05,1.34,9.19,2.02,3.14-2.46,5.38-1.34,9.64,1.12,4.26,10.76,4.03,15.46,3.59,4.71-.45-2.02-31.16-15.47-22.41Z"/>
        <path class="cls-86" d="m473.88,83.54c7.73-10.56,27.86-6.25,27.67,7.47-.19,13.72,8.37,4.98,5.53,11.88-2.84,6.89,6.13,6.11,2.38,11.78-3.74,5.67,5.41,6.94-3.37,13.52-8.78,6.58-13.85,4.53-13.85,4.53,0,0,2.7-38.47-13.17-33.98-4.92,1.39-8.94-10.08-5.19-15.19Z"/>
        <path class="cls-86" d="m485.3,77.59c5.47-.01,10.33,2.63,12.76,8.51,2.43,5.87,2.84,12.56,2.03,16-.69,2.91,1.95,11.37,3.13,14.25,1.47,3.59,3.76,8.63,3.76,8.63,0,0,2.43,3.64,2.43,8.71s-.2,12.35,1.62,21.67c1.82,9.32,1.62,11.34,0,16s-6.88,13.57-6.88,13.57c0,0,5.06,2.43,3.24,4.66-1.82,2.23-3.44,3.04-3.44,3.04,0,0,5.47,7.9,2.63,16.4-2.83,8.5-3.37,14.73-3.04,22.52.33,7.79.33,14.6.33,14.6l-3.25.65s0,7.14,3.25,11.68c3.24,4.54,8.44,12.01,9.41,24.01.97,12.01,3.57,22.39,7.14,25.31,3.57,2.92,7.21,2.6,7.21,7.52s-.95,10.59-.95,13.05v5.86l-1.51.38s.38-2.84,0-6.05c-.38-3.21-1.32-7.56-3.4-6.24-2.08,1.32-5.29,7.38-6.81,10.21-1.51,2.84-4.54,5.48-10.59,3.78-6.05-1.7-8.13-5.67-4.92-6.62,3.21-.95,7.19.57,7.94-2.84.76-3.4,2.08-12.1.76-16.64-1.32-4.54-6.05-18.72-7.94-24.02-1.89-5.3-4.54-11.54-4.54-11.54,0,0,.19,8.32-1.51,12.29-1.7,3.97-7.57,19.29-8.7,22.51-1.13,3.21.95,5.29,2.65,7,1.7,1.7.76,5.86-.57,9.08-1.32,3.22-1.89,7.19-1.89,8.89v5.29h-2.46s.76-3.97.76-7.19.57-5.48-.57-6.05c-1.14-.57-6.24,3.97-8.32,7.19-2.08,3.21-2.46,7.75-9.27,6.05-6.81-1.7-11.35-5.29-9.65-7.38,1.7-2.08,5.11-.38,7.19-1.51,2.08-1.13,6.05-11.16,8.51-17.21,2.46-6.05,5.29-18.54,6.05-25.91.76-7.38,1.89-13.05,2.08-15.51.19-2.46.19-7,.19-7,0,0-2.27-8.51-3.03-12.1-.76-3.59-.76-6.24-.76-6.24,0,0-3.97.76-3.97-1.7s1.32-12.86.95-17.78c-.38-4.92-2.08-4.54-2.08-4.54,0,0-.38,2.65-.38,4.73s-1.51,1.51-2.08,0c-.57-1.51-2.65,0-2.65-1.51s-.94-4.73-.57-7.19c.38-2.46,2.08-7,2.08-7l-17.02-.57,2.25-34.54,15.88.21s.84-10.87.84-16.09-.63-12.12,2.93-17.97c3.55-5.85,8.15-10.66,11.08-14.42,2.93-3.76,3.34-3.97,2.51-7.31-.84-3.34-.84-7.52-2.93-7.31-2.09.21-3.97,0-5.02-2.72-1.04-2.72-3.55-7.73-3.76-11.29-.21-3.55.6-4.07.09-5.19-.51-1.12.2-4.59.31-7.44.1-2.85,3.77-9.6,10.5-9.62Z"/>
        <path class="cls-82" d="m501.52,111.3c.28.96.57,1.89.85,2.71-8.17-.4-12.65,5.8-16.03,10.46,1.26-2.06,1.1-5.24,1.03-6.79,1.99-1.97,4.95-3.98,7.6-5.06,2.26-.92,4.83-1.27,6.55-1.32Z"/>
      </g>
      <g>
        <path class="cls-86" d="m419.24,51.54c2.42.19,5.22,1.86,7.09,7.09,1.87,5.22,2.05,9.14.37,13.06-1.68,3.92-1.68,6.9-2.42,10.44-.75,3.54-3.17,9.33-4.85,9.7-1.68.37-1.12,1.49-1.12,3.17s1.12,3.92,1.12,3.92c0,0,4.66,2.61,9.33,3.73,4.66,1.12,11.75,6.34,12.31,12.87.56,6.53,3.54,9.33,7.46,12.87,3.92,3.54,7.83,3.36,9.14,9.51,1.31,6.15,2.05,14.55-1.87,16.23-3.92,1.68-13.43.93-13.43.93,0,0-.19,3.36-1.68,4.85-1.49,1.49-3.92,2.61-3.92,2.61,0,0,3.13,11.3,3.9,18.99.77,7.69,1.79,23.83,2.56,27.67.77,3.84,1.28,7.17-.26,8.45-1.54,1.28-2.56,1.54-2.56,1.54,0,0-.71,17.4-2.27,28.08-1.56,10.68-4.17,22.66-6.25,35.16-2.08,12.5-3.91,32.82-4.69,39.07-.78,6.25-1.04,6.77,0,9.38,1.04,2.6,8.33,8.07,7.03,8.85l-1.3.78s5.21,7.03,9.64,7.03,9.64,1.3,9.64,4.69-13.28,1.3-17.71,1.3-9.12-2.34-11.46-3.39c-2.34-1.04-2.08,1.04-2.08,1.04,0,0-5.73.26-9.9-.26s-5.99-.52-5.99-2.87v-3.38s0-6.51,1.04-13.8c1.04-7.29.52-35.42,0-44.02-.52-8.59-1.3-17.19-1.3-17.19,0,0-8.59,29.69-13.28,46.1-4.69,16.41-10.16,34.12-11.46,34.9-1.3.78-1.04,1.82-1.04,1.82,0,0,4.95,5.73,5.21,9.64.26,3.91,1.3,5.21-2.6,5.73-3.91.52-13.28-1.82-16.41-4.17-3.13-2.34-3.39-4.69-4.95-5.73-1.56-1.04-2.34-2.87-1.56-5.47.78-2.6.78-3.38.78-3.38,0,0-1.3-.78.26-9.9,1.56-9.12,8.6-57.82,13.28-79.7,4.69-21.88,5.99-40.11,5.99-42.97s-.78-2.6-2.6-3.65c-1.82-1.04,1.82-12.76,2.34-19.01.52-6.25,1.11-10.59.88-14.74-.23-4.15,1.61-6.91,2.07-10.14.46-3.23,1.61-11.75-.92-19.12-2.53-7.37-5.07-16.13-6.22-17.74-1.15-1.61,0-6.91.69-13.82.69-6.91,2.3-14.05,9.22-17.74,6.91-3.69,9.91-4.84,11.75-7.83,1.84-3,.63-3.33,1.65-3.94,1.02-.61,1.23-.92,1.23-.92,0,0-.1-2.66-.31-3.89-.2-1.23-1.43-1.33-1.94-2.66-.51-1.33-1.64-5.11-1.33-7.46.31-2.35.82-2.76.82-2.76,0,0-1.13-13.09,3.99-16.77,5.11-3.68,13.8-6.54,18.91-2.77Z"/>
        <path class="cls-82" d="m418.36,95.69c.23,1.54,1.06,3.22,1.06,3.22,0,0,.08.04.23.12-.17,1.88.39,5.78.93,8.71-.33.06-.67-.19-1-.92-1.47-3.28-2.03-5.09-3.17-4.41-.83.5-1.54,2.7-2.08,4.55-3.84-4.73-13.15-14.69-16.87-17.82.07-.13.18-.25.4-.38.68-.41,1-.68,1.13-.82.81,2.03,3.55,5.86,6.45,7.46,3.28,1.81,10.74,6.1,10.74,6.1,0,0,1.58-3.5,2.15-5.76v-.05Z"/>
        <path class="cls-82" d="m426.23,145.7s4.18-1.29,4.18-4.66-3.21-5.62-4.82-5.78c-1.61-.16.96-2.41,4.18.16s5.78,13.98,5.78,13.98c0,0-6.75-2.57-9.32-3.7Z"/>
        <path class="cls-82" d="m435.54,151.33l1.93,10.44-2.73,2.09s.48-9,.8-12.53Z"/>
      </g>
      <g>
        <path class="cls-86" d="m317.32,27.17c8.45-.15,15.52,7.77,17.16,15.16,1.65,7.44,3.03,6.89,3.03,11.02s1.65,8.54,2.48,15.15c.83,6.61,1.38,11.02,4.68,14.88,3.31,3.86,2.76,7.71,2.76,7.71,0,0,11.02.55,13.78,7.99,2.75,7.44,3.31,20.11,4.41,28.65,1.1,8.54.28,18.46-2.76,24.8s-9.64,7.16-9.64,7.16c0,0-1.1,13.22,2.75,24.8,3.86,11.57,6.61,17.63,3.31,18.18-3.31.55-4.96.83-4.96.83,0,0,.1,14.93-2.16,24.53-2.26,9.6-7.34,34.45-7.34,40.66s-.21,5.08-2.6,5.08h-3.59s.3,9.87-.9,12.26c-1.2,2.39.9,13.46-2.69,25.13-3.59,11.67-10.77,31.41-10.77,39.79s3.59,18.55,7.48,22.73c3.89,4.19,9.57,12.56,6.58,14.66-2.99,2.09-7.18,1.79-9.87.9-2.69-.9-4.79-3.29-4.79-3.29,0,0,.3,4.19,1.5,7.48,1.2,3.29,0,17.65-5.68,17.65-.74,0-1.47-.11-2.16-.32v-113.94c.18-2.3.5-5.05,1.06-6.46,1.09-2.72.18-8.69,0-17.38,0,0-.48,3.25-1.06,6.7V27.17Zm-.2,0h.2s0,252.5,0,252.5c-.43,2.53-.91,5.17-1.29,6.7-.91,3.62.54,5.98.54,8.51s.54,5.79.54,5.79c0,0,.04-1.74.2-3.86v113.94c-4.62-1.38-7.97-7.18-7.71-15.24.3-9.27-1.79-10.77-.3-16.15,1.49-5.38-.3-9.27-2.99-17.65-2.69-8.38-12.86-44.57-12.26-53.85.6-9.27,1.5-17.35.6-23.63-.9-6.28-1.5-11.67-1.5-11.67,0,0-6.58,2.99-6.58-5.98s-1.5-34.7-2.09-42.48c-.6-7.78.6-23.03.6-23.03,0,0-6.28-.6-8.38-1.5-2.09-.9,5.38-14.36,6.88-19.74,1.5-5.38,1.2-14.66,1.2-14.66,0,0-11.37-.6-11.97-10.17-.6-9.57-.9-23.33,0-29.02s1.2-5.09,2.09-12.56c.9-7.48,4.79-20.64,8.68-21.24,3.89-.6,8.67-3.59,8.67-3.59,0,0-3.89-4.49.9-8.38,4.79-3.89,7.48-5.38,5.39-10.47-2.09-5.09-.6-8.97.6-15.55,1.2-6.58,4.49-26.92,17.99-27.03Z"/>
        <path class="cls-82" d="m310.5,82.32s5.98,5.08,5.98,8.97,2.69,16.75,3.89,20.64c1.2,3.89,1.79-4.79,3.89-8.67,2.09-3.89,2.99-7.18,1.79-10.17-1.2-2.99,3.41-4.3,6.4-11.78.39,2.82.19,5.1.09,7.91-.1,2.81-4.89,16.74-6.24,19.45-1.35,2.7-4.99,11.34-5.3,13.83-.31,2.5-3.53-4.89-5.41-12.9-1.87-8.01-5.3-19.66-5.09-27.28Z"/>
        <path class="cls-82" d="m301.79,150.87s.8-2.57.96-5.62c.16-3.05,0-4.01,0-4.01l-3.21.48s-.26,5.96-.9,7.89c1.42,1.29,3.14,1.26,3.14,1.26Z"/>
        <path class="cls-82" d="m331.56,160.55s-.89,6.01-1.11,7.79c-.22,1.78,4.45,0,4.45,0v-7.79h-3.34Z"/>
      </g>
      <g>
        <path class="cls-86" d="m248.22,120.33c4.3,1.31,7.48,2.44,7.62,8.13.16,6.4.78,18.95,1.68,27.33.9,8.38,3.39,26.33,3.54,32,.15,5.67.75,17.75.6,19.09-.15,1.34-1.19,1.19-.75,3.43.45,2.24.45,4.33-.75,5.82-1.19,1.49-.6,3.43-.6,3.43l10.44-.45-.75,41.32-16.41,12.68s-2.36-1.71-4.63-1.92v-50.34l1.86-.28s-.39-2.92.19-4.87c.58-1.95.39-3.7,0-5.84,0,0-.69,2.06-2.06,2.31v-91.84Zm-23.09-45.13c4.64,0,9.92,3.36,10.56,8.16.64,4.8.32,11.52.32,11.52,0,0,1.6,3.2.32,5.76-1.28,2.56-4.32,2.08-4.32,2.08,0,0-.8,4-.8,6.24s.16,3.68,1.92,5.12c1.76,1.44,8.32,4.16,13.44,5.76.57.18,1.12.34,1.66.51v91.84c-.09.02-.18.03-.28.03-1.56,0-2.14.19-2.14.19,0,0,.58,2.34.58,4.48s-.2,4.29-.2,4.29l2.04-.31v50.34c-.15-.01-.3-.02-.44-.02-2.39,0-3.58.15-3.58.15,0,0,.65,12.27.65,17.12s-.43,12.54-2.56,16.1c-2.14,3.56-2.42,4.7-2.42,7.84s4.56,11.54,4.42,14.39c-.14,2.85-.85,7.27-5.56,7.12-4.7-.14-8.26-1.99-8.26-5.84s.57-6.27-1-7.69c-1.57-1.42.85-4.84-1.85-8.55-2.71-3.7.29-4.13-.43-7.55-.71-3.42.57-13.82.85-17.95.28-4.13-.43-8.97-2.56-26.64-2.14-17.67-3.42-25.36-3.99-29.21-.57-3.85-1.57-8.69-1.57-8.69,0,0-2.71,16.53-4.99,20.66-2.28,4.13-4.7,24.65-5.41,30.63-.71,5.98-.29,23.65-1.71,25.5-1.42,1.85-2.14,4.42-2.14,4.42,0,0,3.7,2.14,3.7,5.13s-2.71,5.41-2.56,9.26c.14,3.85-.29,7.12-1.85,7.98-1.57.86-1.28,7.41-3.28,9.69-1.99,2.28-5.27,4.13-9.26,2.99-3.99-1.14-3.99-6.41-1.99-11.4,1.99-4.99,4.42-8.41,3.7-10.4-.71-1.99-1.43-4.99.57-6.98,2-1.99-.14-4.13-1.42-5.84-1.28-1.71-1-9.69-1.14-13.96-.14-4.27.43-25.64.14-33.48-.28-7.84-1-31.34.14-37.9,1.14-6.55.14-11.4.14-11.4,0,0-2.56,1.28-2.56-1.14s1-2.85-.14-7.12c-1.14-4.27-1.42-8.26-2.71-11.54-1.28-3.28-1.57-8.83,0-10.54,1.57-1.71-.71-11.11.71-18.24,1.42-7.12,2.42-18.52,2.56-24.65.14-6.13.43-10.54,8.41-12.54,7.98-2,13.82-4.27,14.96-5.98,1.14-1.71,1.57-6.13,1.28-8.12-.28-1.99-.43-3.56-.43-4.7s-2.28.57-2.85-1.57c-.57-2.14-.92-6.76-.52-7.14.4-.38.75-.33,1.24-.27-.06-.74-.32-5.05.03-9.72.32-4.23,4.67-7.91,12.59-8.2Z"/>
        <path class="cls-82" d="m191.43,202.85s-2.11-3.37,0-6.12c2.11-2.74,6.96-.63,6.96-.63,0,0-3.38,0-5.27,1.48-1.9,1.48-1.27,2.53-1.69,5.27Z"/>
        <path class="cls-82" d="m250.28,209.18s0-3.58,4.85-3.58,5.7,3.8,5.7,3.8c0,0-2.61-1.97-5.84-1.87-3.23.1-3.28.14-4.71,1.66Z"/>
        <path class="cls-82" d="m231.43,111.53c.18.72.51,1.37,1.1,1.99-.98,5.27-3.19,20.99-4.04,32.61-.97,13.29,1.46,38.89,1.46,38.89,0,0-1.78.32-7.78.32s-17.83-3.73-17.83-3.73c0,0,1.94-3.57,3.56-8.27,1.62-4.7,4.54-25.12,5.35-42.3.41-8.71.45-13.08-.06-15.51.26-.21.46-.42.6-.63.38-.57.68-1.43.9-2.41,1.84,3.68,6.27,7.2,8.94,7.2s6.18-5.17,7.8-8.18Z"/>
        <path class="cls-86" d="m217.31,123.77s2.11-3.24,5.67-3.24,5.83,3.24,5.83,3.24c0,0-3.89-.81-3.73,1.78.16,2.59,1.46,16.21,1.46,25.12s.65,32.09-.32,36.46c-.97,4.38-4.05,6-4.7.32-.65-5.67-.49-36.14-.32-41.97.16-5.83,1.13-18.15.49-19.77-.65-1.62-2.43-2.92-4.38-1.95Z"/>
      </g>
      <g>
        <path class="cls-86" d="m156.89,115.87c5.01.03,6.17,4.07,6.23,8.64,1.18,0,.49,5.28-.92,5.24.21.56-.46,2.76-1.1,3.18-.64.42-.67,1.03-.67,2.09s.74,1.7.74,1.7c0,0,2.02.32,2.23,1.49.21,1.17,2.02,1.8,4.03,1.91,2.02.11,5.63,1.38,5.63,2.87s.11,4.46.74,4.25c.64-.21.74,2.65,1.27,5.2.53,2.55,3.69,11.09,1.69,13.66-2,2.57-6.68,2.48-6.68,2.48,0,0,.11,1.59.53,4.99.42,3.4,1.06,5.73.42,5.73s-.21,11.36-.21,17.2v17.62c0,1.06-3.61.96-4.78.96s-2.12-.11-2.12-.11c0,0-.21,3.5-.43,5.84-.21,2.34-.21,13.91-.53,16.77-.32,2.87-1.38,9.34-1.27,13.38.11,4.03,1.17,8.07,2.44,10.08,1.27,2.02,1.7,2.87,2.55,3.61.85.74,2.55,1.8.53,1.91-2.02.11-6.58.21-7.43-.53-.85-.74-.21-2.97-.96-4.25-.74-1.27-1.8-2.55-1.8-2.55v1.49s1.91,3.61,1.59,4.56c-.32.96-.21,2.65-1.7,2.65s-5.73-1.17-6.16-2.55c-.42-1.38-.11-5.41-.64-6.58-.53-1.17-.21-3.4.11-5.63.32-2.23-.32-9.02-1.91-13.27-1.59-4.25-1.91-12.53-1.8-16.14.11-3.61.64-6.26.53-7.96-.11-1.7-.11-2.02-.11-2.02,0,0-4.56,0-4.46-.85.11-.85.53-10.3.53-14.54s.21-10.09.58-13.6c.37-3.51.37-4.71.37-4.71,0,0-.37-.52,0-3.14.37-2.62.67-4.86.67-4.86,0,0-2.62.07-3.37-2.77-.75-2.84-.89-7.43-.79-13.18.1-5.75.68-9.94.68-11.4s-.39-2.05,1.75-2.63c2.14-.58,3.51-.29,5.36-1.66,1.85-1.36,2.53-2.73,3.41-3.41.88-.68,1.92-1.8,1.35-2.76-.56-.96-1.66-1.99-1.52-4.05-1.7-.03-2.33-5.75-1.16-5.85.32-4.08.88-8.54,6.53-8.5Z"/>
        <path class="cls-82" d="m160.89,136.4c.15.2.28.31.28.31,0,0,.27.04.62.15.75,1.55,1.09,8.05,1.09,10.13s-1.34,6.33-2.11,8.51c-.77,2.18-.84,4.29-.84,4.29,0,0-.91-3.73-1.97-6.68-1.06-2.96-3.17-6.82-4.64-9.57-1.23-2.28-1.68-4.51-1.8-6.37.06-.05.12-.1.17-.14.28-.21.57-.47.82-.75.17,1.14.73,2.74,1.29,3.68.63,1.05,2.18,1.62,2.81,2.32.63.7-.63,1.48,0,2.6.63,1.13,1.2,1.76,1.2,1.76,0,0-.21-1.2.07-2.18.28-.99,1.05-.07,1.62-1.62.52-1.44.99-4.34,1.39-6.44Z"/>
        <path class="cls-82" d="m157.9,172.65h1.16s1.17,3.5,2.95,4.27c1.79.78,4.97.85,4.97.85,0,0-1.63,1.4-3.81,1.4s-2.87-.93-2.87-.93c0,0-3.19,2.1-6.21,1.63-3.03-.47-3.81-1.48-3.81-1.48,0,0,4.04.7,5.75-.7,1.71-1.4,1.79-2.72,1.86-5.05Z"/>
      </g>
      <g>
        <path class="cls-86" d="m645.54,86.46c2.8,1.83,5.03,4.66,5.96,9.65,1.7,9.04,10.98,39.41,15.57,47.78,4.59,8.37,5.18,19.76.59,26.78-4.59,7.02-15.5,24.14-17.12,26.57-1.62,2.43-2.1,4.17-4.53,3.9-.16-.02-.32-.03-.47-.05v-39.21c2.15-3.32,4.5-6.13,3.59-7.87-1.35-2.61-2.45-2.82-3.59-4.74v-62.8Zm-36.14-68.91c1.98,1.7,4.52,5.09,6.5,3.96,1.98-1.13,1.41,4.24,3.67,4.24s4.8,7.91,4.52,12.15c-.28,4.24-1.41,8.48-1.7,10.17-.28,1.7-1.13,8.76-2.54,8.76s-1.98.28-1.98.28c0,0-1.7,5.37-1.7,9.61s.56,4.24.56,4.24l2.54,3.96s12.71,6.78,18.65,8.48c2.66.76,5.32,1.58,7.6,3.07v62.8c-.74-1.24-1.49-3.2-2.34-7,.02,8.14-2.71,20.12-.72,28.04-.17-2.95,1.39-5.85,3.06-8.43v39.21c-2.17-.19-3.58.05-3.58.05,0,0-1.08,4.59-2.97,5.94-1.89,1.35-4.32,5.94-4.86,4.32-.54-1.62-2.16,11.88-3.78,19.17-1.62,7.29-9.43,58.11-9.43,65.33s-2.89,14.74-2.6,19.94c.29,5.2-.87,18.79-1.16,26.3-.29,7.51-7.23,15.32-7.23,20.81s1.73,8.09.87,11.27c-.87,3.18-.58,5.49,2.89,9.25,3.47,3.76,4.91,7.23,4.62,10.12-.29,2.89-1.16,4.05-8.09,4.34-6.94.29-13.58-1.74-13.58-3.47s-2.31-2.31-4.33-2.31-1.73-2.02-.87-6.07c.87-4.05,3.76-9.54,2.02-8.96-1.73.58-3.18-.58-3.18-6.36s-.87-7.51,1.73-10.98c2.6-3.47,2.02-9.83,1.45-15.03-.58-5.2-2.31-8.96-.87-15.32,1.45-6.36,1.73-14.16.87-17.34-.87-3.18-.29-6.94,2.02-9.54,2.31-2.6-1.16-7.23-1.16-10.12s.87-15.03-.58-27.17c-1.45-12.14-1.73-21.39-2.02-24.57-.29-3.18-2.02-1.73-6.36,10.41-4.33,12.14-15.32,50-17.34,58.38-1.74,7.2-7.74,33.59-10.32,45.47v-187.86c.59-.78.15-7.22,1.64-11.95,1.73-5.49,2.31-13.01,2.6-21.97,0,0-2.16,7.64-4.25,12.33v-63.83c1.98-.88,5.05-1.62,9.74-2.26,10.69-1.45,18.5-4.34,21.1-6.36,1.52-1.18,2.51-2.2,3.39-3.18.71-.78,2.04-2.32.83-2.43-2.71-.25-3.2-10.48-4.57-13.47-1.37-2.99-.9-5.12.06-7.8.95-2.69-.87-6.65,1.44-10.98,2.31-4.34-.87-9.54,2.31-10.12,3.18-.58,2.02-4.33,5.2-4.33s3.47-4.34,6.65-2.89,3.18-3.47,5.53-.3Zm-51.69,337.39c-.42,1.95-.75,3.51-.96,4.53-1.45,7.22-3.18,21.67-5.2,21.67s-1.45,1.45-1.73,5.49c-.29,4.05-4.34,4.62-6.65,5.49-2.31.87-2.89-1.45-2.89-1.45,0,0-3.76,7.8-10.4,8.67-6.65.87-19.36,3.47-19.36.29s1.45-6.07,5.78-8.67c4.33-2.6,7.51-9.54,9.25-11.27,1.73-1.73-.58-1.16.87-4.62,1.45-3.47,5.78-23.99,6.65-30.64.87-6.65.29-29.48,3.47-40.17,3.18-10.69,13.01-45.09,14.45-54.62,1.45-9.54,3.47-19.07,3.47-24.28s.58-8.67,2.02-12.43c1.45-3.76-.29-8.96-.29-8.96,0,0-3.76,2.89-6.07,4.91-2.31,2.02-2.31-1.16-1.16-5.78,1.16-4.62.29-7.22-.87-5.78-1.16,1.44-2.02-7.52-4.91-13.01s-9.25-16.76-7.8-23.12c1.45-6.36,2.02-17.63,3.76-23.12,1.73-5.49,3.47-15.32,5.49-21.39,2.02-6.07,1.73-8.96,4.34-15.03,2.6-6.07,5.49-13.01,5.49-15.9,0-1.62.73-2.98,3.27-4.1v63.83c-.87,1.95-1.72,3.4-2.4,3.57-2.31.58-2.6,3.76,0,5.2,2.6,1.45.87,11.27,2.02,12.72.16.2.28.22.38.1v187.86Z"/>
        <path class="cls-82" d="m616.38,70.03c.16.93.37.93.37.93l2.22,3.45c-.06.24-.1.48-.13.72-.73,5.84-1.83,25.92-1.83,39.43s-1.83,20.81.37,31.76c2.19,10.95,2.55,17.16,5.48,23.73,2.92,6.57,4.75,11.32,4.75,11.32,0,0-9.49-1.09-19.35-1.09s-28.11,1.46-31.76.37c-3.65-1.1-6.21-2.56-6.21-2.56,0,0,4.38-9.86,7.3-20.81,2.92-10.95,5.84-25.92,5.84-40.89s-.37-29.21,2.56-36.87c1.05-2.76,1.82-4.81,2.37-6.31.07-.05-.57.45.2-.15.77-.6,2.4-2.24,3.41-3.2,1.56,1.93,2.39,3.24,5.7,7.1,3.31,3.86,3.65,6.57,9.13,2.92,3.91-2.6,6.88-6.51,9.59-9.86Z"/>
        <path class="cls-86" d="m602.41,82.8l-5.48,5.48s2.93.91,2,3.24c-.93,2.33-4.81,15.51-8.53,33.03-3.72,17.52-8.84,48.23-9.92,52.57-1.09,4.34.31,7.44,3.26,11.94s3.26,4.34,6.2.47c2.95-3.88,5.12-2.33,6.98-13.49,1.86-11.16,4.96-33.19,6.51-42.96,1.55-9.77,3.26-28.69,2.02-33.03-1.24-4.34-2.17-6.67-1.71-8.53.47-1.86,3.26-3.57,3.26-3.57,0,0-2.02-4.03-4.58-5.15Z"/>
      </g>
    </g>
  </g>
</svg>