<?xml version="1.0" encoding="UTF-8"?>
<svg xmlns="http://www.w3.org/2000/svg" viewBox="0 0 6000 4000">
  <defs>
    <style>
      .cls-1 {
        fill: #f2f2f2;
      }

      .cls-2 {
        fill: #006eff;
      }

      .cls-3 {
        fill: #e6e6e6;
      }

      .cls-4 {
        fill: #ffad66;
      }

      .cls-5 {
        fill: #fff;
      }

      .cls-6 {
        fill: #999;
      }

      .cls-7 {
        fill: #b3d4ff;
      }

      .cls-8 {
        fill: #666;
      }

      .cls-9 {
        fill: #737373;
      }

      .cls-10 {
        fill: #333;
      }

      .cls-11 {
        fill: #bfbfbf;
      }

      .cls-12 {
        fill: #ccc;
      }

      .cls-13 {
        fill: #d9d9d9;
      }

      .cls-14 {
        fill: #1f2125;
      }

      .cls-15 {
        fill: #444;
      }

      .cls-16 {
        fill: #4a4a4a;
      }

      .cls-17 {
        fill: #4d4d4d;
      }

      .cls-18 {
        fill: #bdbdbd;
        mix-blend-mode: multiply;
      }

      .cls-19 {
        isolation: isolate;
      }
    </style>
  </defs>
  <g class="cls-19">
    <g id="Layer_2" data-name="Layer 2">
      <g id="Layer_1-2" data-name="Layer 1">
        <g>
          <rect class="cls-15" width="6000" height="4000"/>
          <g>
            <g>
              <g>
                <rect class="cls-14" x="3852.8" y="2442.47" width="35.42" height="49.42"/>
                <g>
                  <g class="cls-19">
                    <path class="cls-11" d="m4013.08,2577.64l-849.33,493.58c-16.27,9.45-42.79,9.45-59.17,0l-1239.76-715.78c-8.23-4.75-12.33-10.98-12.31-17.21l-.2,69.92c-.02,6.23,4.08,12.46,12.31,17.21l1239.76,715.77c16.37,9.45,42.9,9.45,59.17,0l849.33-493.58c8.08-4.7,12.13-10.85,12.15-17.02l.2-69.92c-.02,6.16-4.07,12.32-12.15,17.02Z"/>
                    <path class="cls-1" d="m4012.89,2543.36c16.37,9.45,16.46,24.82.19,34.27l-849.33,493.58c-16.27,9.45-42.8,9.45-59.17,0l-1239.76-715.78c-16.38-9.45-16.41-24.79-.14-34.24l849.33-493.58c16.27-9.46,42.74-9.49,59.11-.03l1239.76,715.77Z"/>
                  </g>
                  <g>
                    <path class="cls-13" d="m3466.12,2820.6l-1175.77-678.83c-9.73-5.62-8.51-15.43,2.73-21.91l435.6-251.49c11.23-6.49,28.22-7.19,37.95-1.57l1175.77,678.83c9.73,5.62,8.51,15.43-2.73,21.91l-435.6,251.49c-11.23,6.49-28.22,7.19-37.95,1.57Z"/>
                    <path class="cls-11" d="m2293.08,2129.25l435.6-251.49c11.23-6.48,28.22-7.19,37.95-1.57l1175.77,678.83c2.42,1.4,4.16,3.06,5.24,4.86,2.71-5.14,1.1-10.58-5.24-14.25l-1175.77-678.83c-9.73-5.62-26.72-4.91-37.95,1.57l-435.6,251.49c-8.44,4.87-11.22,11.61-7.97,17.05,1.45-2.74,4.06-5.41,7.97-7.67Z"/>
                  </g>
                  <g>
                    <path class="cls-13" d="m2770.39,2849.06l-536.25-309.61c-9.2-5.31-8.05-14.59,2.58-20.73l313.38-180.93c10.63-6.14,26.7-6.8,35.9-1.49l536.25,309.61c9.2,5.31,8.05,14.59-2.58,20.73l-313.37,180.93c-10.63,6.14-26.7,6.8-35.9,1.49Z"/>
                    <path class="cls-11" d="m2236.71,2528.64l313.38-180.93c10.63-6.14,26.7-6.8,35.9-1.49l536.25,309.61c2.08,1.2,3.56,2.62,4.59,4.15,3.02-5.04,1.66-10.46-4.59-14.07l-536.25-309.61c-9.2-5.31-25.27-4.64-35.9,1.49l-313.38,180.93c-8.22,4.75-10.7,11.36-7.17,16.58,1.43-2.39,3.75-4.69,7.17-6.66Z"/>
                  </g>
                  <g>
                    <g class="cls-19">
                      <path class="cls-14" d="m2820.75,1922.45l-38.42,22.33c-2.67,1.55-7.06,1.55-9.8-.03l-64.02-36.96c-1.35-.78-2.03-1.81-2.02-2.84l-.02,6.86c0,1.03.67,2.06,2.02,2.84l64.02,36.96c2.74,1.58,7.13,1.58,9.8.03l38.42-22.33c1.35-.79,2.03-1.81,2.03-2.83l.02-6.86c0,1.02-.68,2.05-2.03,2.83Z"/>
                      <path class="cls-17" d="m2820.72,1916.74c2.74,1.58,2.76,4.12.03,5.71l-38.42,22.33c-2.67,1.55-7.06,1.55-9.8-.03l-64.02-36.96c-2.69-1.55-2.7-4.09-.03-5.64l38.42-22.33c2.72-1.58,7.11-1.58,9.8-.03l64.02,36.96Z"/>
                    </g>
                    <g class="cls-19">
                      <path class="cls-14" d="m2759.85,1953.93l-58.59,34.05c-3.15,1.83-8.29,1.83-11.46,0l-58.98-34.05c-1.59-.92-2.39-2.13-2.39-3.34l-.02,6.86c0,1.21.79,2.42,2.39,3.34l58.97,34.05c3.17,1.83,8.31,1.83,11.46,0l58.59-34.05c1.56-.91,2.35-2.1,2.35-3.3l.02-6.86c0,1.19-.79,2.39-2.35,3.3Z"/>
                      <path class="cls-17" d="m2759.81,1947.29c3.17,1.83,3.18,4.81.04,6.64l-58.59,34.05c-3.15,1.83-8.29,1.83-11.46,0l-58.98-34.05c-3.17-1.83-3.18-4.81-.04-6.64l58.59-34.05c3.15-1.83,8.29-1.83,11.46,0l58.98,34.05Z"/>
                    </g>
                    <g class="cls-19">
                      <path class="cls-14" d="m2899.28,1967.66l-38.58,22.42c-2.67,1.55-6.95,1.55-9.58.03l-61.39-35.44c-1.32-.76-1.98-1.76-1.98-2.77l-.02,6.86c0,1.01.66,2.01,1.98,2.77l61.39,35.44c2.63,1.52,6.92,1.52,9.58-.03l38.58-22.42c1.33-.77,2-1.78,2-2.78l.02-6.86c0,1-.66,2.01-2,2.78Z"/>
                      <path class="cls-17" d="m2899.3,1962.11c2.63,1.52,2.65,4-.02,5.55l-38.58,22.42c-2.67,1.55-6.95,1.55-9.58.03l-61.39-35.44c-2.63-1.52-2.65-4,.02-5.55l38.58-22.42c2.67-1.55,6.95-1.55,9.58-.03l61.39,35.44Z"/>
                    </g>
                    <g class="cls-19">
                      <path class="cls-14" d="m2841.43,2001.03l-58.59,34.05c-3.15,1.83-8.29,1.83-11.51-.03l-58.92-34.02c-1.63-.94-2.44-2.16-2.44-3.38l-.02,6.86c0,1.22.81,2.44,2.44,3.38l58.92,34.02c3.22,1.86,8.36,1.86,11.51.03l58.59-34.05c1.56-.9,2.34-2.09,2.34-3.28l.02-6.86c0,1.19-.79,2.38-2.34,3.28Z"/>
                      <path class="cls-17" d="m2841.34,1994.36c3.22,1.86,3.24,4.84.09,6.67l-58.59,34.05c-3.15,1.83-8.29,1.83-11.51-.03l-58.92-34.02c-3.22-1.86-3.24-4.84-.09-6.67l58.59-34.05c3.15-1.83,8.29-1.83,11.51.03l58.92,34.02Z"/>
                    </g>
                    <g class="cls-19">
                      <path class="cls-14" d="m2979.31,2013.87l-38.58,22.42c-2.67,1.55-6.95,1.55-9.64,0l-61.34-35.41c-1.35-.78-2.03-1.8-2.02-2.81l-.02,6.86c0,1.02.67,2.03,2.02,2.81l61.34,35.41c2.69,1.55,6.97,1.55,9.64,0l38.58-22.42c1.33-.77,1.99-1.77,1.99-2.77l.02-6.86c0,1-.67,2-1.99,2.77Z"/>
                      <path class="cls-17" d="m2979.28,2008.29c2.69,1.55,2.7,4.03.03,5.58l-38.58,22.42c-2.67,1.55-6.95,1.55-9.64,0l-61.34-35.41c-2.69-1.55-2.7-4.03-.03-5.58l38.58-22.42c2.67-1.55,6.95-1.55,9.64,0l61.34,35.41Z"/>
                    </g>
                    <g class="cls-19">
                      <path class="cls-14" d="m3059.34,2060.07l-38.58,22.42c-2.67,1.55-7.01,1.52-9.64,0l-61.39-35.44c-1.32-.76-1.98-1.76-1.97-2.77l-.02,6.86c0,1.01.66,2.01,1.98,2.77l61.39,35.44c2.63,1.52,6.97,1.55,9.64,0l38.58-22.42c1.32-.77,1.97-1.77,1.97-2.77l.02-6.86c0,1-.65,2-1.97,2.77Z"/>
                      <path class="cls-17" d="m3059.3,2054.49c2.63,1.52,2.7,4.03.03,5.58l-38.58,22.42c-2.67,1.55-7.01,1.52-9.64,0l-61.39-35.44c-2.63-1.52-2.65-4,.02-5.55l38.58-22.42c2.67-1.55,6.95-1.55,9.58-.03l61.39,35.44Z"/>
                    </g>
                    <g class="cls-19">
                      <path class="cls-14" d="m3139.31,2106.24l-38.58,22.42c-2.67,1.55-6.95,1.55-9.58.03l-61.39-35.45c-1.35-.78-2.03-1.8-2.02-2.81l-.02,6.86c0,1.01.67,2.03,2.02,2.81l61.39,35.44c2.63,1.52,6.92,1.52,9.58-.03l38.58-22.42c1.33-.77,2-1.78,2-2.78l.02-6.86c0,1-.67,2.01-2,2.78Z"/>
                      <path class="cls-17" d="m3139.33,2100.69c2.63,1.52,2.65,4-.02,5.55l-38.58,22.42c-2.67,1.55-6.95,1.55-9.58.03l-61.39-35.45c-2.69-1.55-2.7-4.03-.03-5.58l38.58-22.42c2.67-1.55,6.95-1.55,9.64,0l61.39,35.44Z"/>
                    </g>
                    <g class="cls-19">
                      <path class="cls-14" d="m3219.34,2152.45l-38.58,22.42c-2.67,1.55-6.95,1.55-9.64,0l-61.34-35.41c-1.35-.78-2.03-1.8-2.02-2.81l-.02,6.86c0,1.01.67,2.03,2.02,2.81l61.34,35.41c2.69,1.55,6.97,1.55,9.64,0l38.58-22.42c1.33-.77,1.99-1.77,1.99-2.77l.02-6.86c0,1-.66,2-1.99,2.77Z"/>
                      <path class="cls-17" d="m3219.31,2146.87c2.69,1.55,2.7,4.03.03,5.58l-38.58,22.42c-2.67,1.55-6.95,1.55-9.64,0l-61.34-35.41c-2.69-1.55-2.7-4.03-.03-5.58l38.58-22.42c2.67-1.55,6.95-1.55,9.63,0l61.34,35.41Z"/>
                    </g>
                    <g class="cls-19">
                      <path class="cls-14" d="m3299.31,2198.62l-38.58,22.42c-2.67,1.55-6.95,1.55-9.58.03l-61.39-35.44c-1.32-.76-1.98-1.76-1.98-2.77l-.02,6.86c0,1.01.66,2.01,1.98,2.77l61.39,35.45c2.63,1.52,6.91,1.52,9.58-.03l38.58-22.42c1.33-.77,2-1.78,2-2.78l.02-6.86c0,1-.67,2.01-2,2.78Z"/>
                      <path class="cls-17" d="m3299.33,2193.07c2.63,1.52,2.65,4-.02,5.55l-38.58,22.42c-2.67,1.55-6.95,1.55-9.58.03l-61.39-35.44c-2.63-1.52-2.65-4,.02-5.55l38.58-22.42c2.67-1.55,6.95-1.55,9.58-.03l61.39,35.44Z"/>
                    </g>
                    <g class="cls-19">
                      <path class="cls-14" d="m3379.34,2244.83l-38.58,22.42c-2.67,1.55-6.95,1.55-9.64,0l-61.33-35.41c-1.35-.78-2.03-1.8-2.02-2.81l-.02,6.86c0,1.02.67,2.03,2.02,2.81l61.34,35.42c2.69,1.55,6.97,1.55,9.64,0l38.58-22.42c1.32-.77,1.99-1.77,1.99-2.77l.02-6.86c0,1-.67,2-1.99,2.77Z"/>
                      <path class="cls-17" d="m3379.31,2239.24c2.68,1.55,2.7,4.03.03,5.58l-38.58,22.42c-2.67,1.55-6.95,1.55-9.64,0l-61.34-35.41c-2.69-1.55-2.7-4.03-.03-5.58l38.58-22.42c2.67-1.55,6.95-1.55,9.64,0l61.34,35.41Z"/>
                    </g>
                    <g class="cls-19">
                      <path class="cls-14" d="m3459.32,2291l-38.58,22.42c-2.67,1.55-6.95,1.55-9.58.03l-61.39-35.44c-1.32-.76-1.98-1.76-1.98-2.77l-.02,6.86c0,1.01.66,2.01,1.98,2.77l61.39,35.45c2.63,1.52,6.92,1.52,9.58-.03l38.58-22.42c1.33-.78,1.99-1.78,2-2.78l.02-6.86c0,1-.67,2.01-2,2.78Z"/>
                      <path class="cls-17" d="m3459.34,2285.45c2.63,1.52,2.65,4-.02,5.55l-38.58,22.42c-2.67,1.55-6.95,1.55-9.58.03l-61.39-35.44c-2.63-1.52-2.64-4,.02-5.55l38.58-22.42c2.67-1.55,6.95-1.55,9.58-.03l61.39,35.44Z"/>
                    </g>
                    <g class="cls-19">
                      <path class="cls-14" d="m3539.34,2337.21l-38.58,22.42c-2.67,1.55-6.95,1.55-9.64,0l-61.34-35.41c-1.35-.78-2.02-1.8-2.02-2.81l-.02,6.86c0,1.02.67,2.03,2.02,2.81l61.34,35.41c2.68,1.55,6.97,1.55,9.64,0l38.58-22.42c1.33-.77,1.99-1.77,1.99-2.77l.02-6.86c0,1-.66,2-1.99,2.77Z"/>
                      <path class="cls-17" d="m3539.31,2331.62c2.69,1.55,2.7,4.03.03,5.58l-38.58,22.42c-2.67,1.55-6.95,1.55-9.64,0l-61.34-35.41c-2.68-1.55-2.7-4.03-.03-5.58l38.58-22.42c2.67-1.55,6.95-1.55,9.63,0l61.34,35.41Z"/>
                    </g>
                    <g class="cls-19">
                      <path class="cls-14" d="m3619.37,2383.41l-38.58,22.42c-2.67,1.55-7,1.52-9.64,0l-61.39-35.44c-1.32-.76-1.98-1.76-1.98-2.77l-.02,6.86c0,1.01.66,2.01,1.98,2.77l61.39,35.44c2.63,1.52,6.97,1.55,9.63,0l38.58-22.42c1.32-.77,1.97-1.77,1.97-2.77l.02-6.86c0,1-.65,2-1.97,2.77Z"/>
                      <path class="cls-17" d="m3619.34,2377.83c2.63,1.52,2.7,4.03.03,5.58l-38.58,22.42c-2.67,1.55-7,1.52-9.63,0l-61.39-35.44c-2.63-1.52-2.65-4,.02-5.55l38.58-22.42c2.67-1.55,6.95-1.55,9.58-.03l61.39,35.44Z"/>
                    </g>
                    <g class="cls-19">
                      <path class="cls-14" d="m3699.35,2429.58l-38.58,22.42c-2.67,1.55-6.95,1.55-9.58.03l-61.39-35.44c-1.33-.77-2-1.79-2-2.81l-.02,6.86c0,1.02.67,2.05,2,2.81l61.39,35.44c2.63,1.52,6.92,1.52,9.58-.03l38.58-22.42c1.33-.78,1.99-1.78,2-2.78l.02-6.86c0,1-.66,2.01-2,2.78Z"/>
                      <path class="cls-17" d="m3699.37,2424.03c2.63,1.52,2.65,4-.02,5.55l-38.58,22.42c-2.67,1.55-6.95,1.55-9.58.03l-61.39-35.44c-2.63-1.52-2.7-4.03-.03-5.58l38.58-22.42c2.67-1.55,7-1.52,9.64,0l61.39,35.44Z"/>
                    </g>
                    <g class="cls-19">
                      <path class="cls-14" d="m3671.05,2468.14l.02-6.86c0,1.37.9,2.75,2.73,3.81l-.02,6.86c-1.83-1.06-2.74-2.43-2.73-3.81Z"/>
                      <path class="cls-14" d="m3844.03,2509.79l-.02,6.86c0,1.37-.9,2.75-2.71,3.8l.02-6.86c1.81-1.05,2.71-2.43,2.72-3.8Z"/>
                      <polygon class="cls-14" points="3841.32 2513.59 3841.3 2520.45 3806.18 2540.85 3806.2 2533.99 3841.32 2513.59"/>
                      <polygon class="cls-14" points="3793.14 2533.99 3793.12 2540.85 3673.78 2471.95 3673.8 2465.09 3793.14 2533.99"/>
                      <path class="cls-14" d="m3806.2,2533.99l-.02,6.86c-3.58,2.08-9.47,2.08-13.06,0l.02-6.86c3.6,2.08,9.49,2.08,13.06,0Z"/>
                      <path class="cls-17" d="m3841.32,2505.99c3.6,2.08,3.62,5.49,0,7.6l-35.11,20.4c-3.58,2.08-9.47,2.08-13.06,0l-119.34-68.9c-3.65-2.11-3.62-5.49-.04-7.57l35.11-20.4c3.63-2.11,9.46-2.14,13.12-.03l119.34,68.9Z"/>
                    </g>
                    <g class="cls-19">
                      <path class="cls-14" d="m2921.25,2047.11l-58.59,34.05c-3.15,1.83-8.29,1.83-11.51-.03l-58.92-34.02c-1.61-.93-2.42-2.16-2.42-3.39l-.02,6.86c0,1.22.81,2.46,2.41,3.39l58.92,34.02c3.22,1.86,8.36,1.86,11.51.03l58.59-34.05c1.56-.9,2.34-2.09,2.34-3.28l.02-6.86c0,1.19-.79,2.38-2.35,3.28Z"/>
                      <path class="cls-17" d="m2921.15,2040.44c3.22,1.86,3.24,4.84.09,6.67l-58.59,34.05c-3.15,1.83-8.29,1.83-11.51-.03l-58.92-34.02c-3.17-1.83-3.24-4.84-.09-6.67l58.59-34.05c3.15-1.83,8.34-1.8,11.51.03l58.92,34.02Z"/>
                    </g>
                    <g class="cls-19">
                      <path class="cls-14" d="m2722.12,2022.71l-55.66,32.34c-3.95,2.29-10.48,2.29-14.46,0l-96.41-55.66c-2.02-1.17-3.02-2.69-3.01-4.21l-.02,6.86c0,1.52.99,3.05,3.01,4.21l96.41,55.66c3.97,2.3,10.51,2.3,14.45,0l55.66-32.34c1.96-1.14,2.94-2.65,2.95-4.16l.02-6.86c0,1.51-.99,3.02-2.95,4.16Z"/>
                      <path class="cls-17" d="m2722.07,2014.33c3.98,2.29,4,6.08.05,8.37l-55.66,32.34c-3.95,2.3-10.48,2.3-14.46,0l-96.41-55.66c-4.03-2.33-4-6.08-.05-8.37l55.65-32.34c3.95-2.3,10.43-2.33,14.46,0l96.41,55.66Z"/>
                    </g>
                    <g class="cls-19">
                      <path class="cls-14" d="m2806.22,2069.59l-58.54,34.02c-3.15,1.83-8.34,1.86-11.56,0l-58.92-34.02c-1.6-.92-2.39-2.15-2.39-3.37l-.02,6.86c0,1.22.79,2.45,2.39,3.37l58.92,34.02c3.22,1.86,8.42,1.83,11.56,0l58.54-34.02c1.59-.92,2.39-2.13,2.39-3.33l.02-6.86c0,1.2-.8,2.4-2.39,3.32Z"/>
                      <path class="cls-17" d="m2806.18,2062.9c3.22,1.86,3.24,4.84.04,6.7l-58.54,34.02c-3.15,1.83-8.34,1.86-11.56,0l-58.92-34.02c-3.17-1.83-3.19-4.87-.04-6.7l58.54-34.02c3.2-1.86,8.39-1.83,11.57,0l58.92,34.02Z"/>
                    </g>
                    <g class="cls-19">
                      <path class="cls-14" d="m2662.17,2081.13l-54.38,31.6c-4.32,2.51-11.39,2.51-15.74,0l-115.48-66.67c-2.21-1.28-3.3-2.93-3.3-4.59l-.02,6.86c0,1.65,1.09,3.31,3.3,4.59l115.48,66.67c4.35,2.51,11.42,2.51,15.74,0l54.38-31.6c2.15-1.25,3.22-2.89,3.23-4.53l.02-6.86c0,1.64-1.08,3.28-3.23,4.53Z"/>
                      <path class="cls-17" d="m2662.11,2072.01c4.35,2.51,4.37,6.61.05,9.12l-54.38,31.6c-4.32,2.51-11.39,2.51-15.74,0l-115.48-66.67c-4.4-2.54-4.37-6.6-.05-9.12l54.37-31.6c4.32-2.51,11.33-2.54,15.74,0l115.48,66.67Z"/>
                    </g>
                    <g class="cls-19">
                      <path class="cls-14" d="m3001.06,2093.19l-58.59,34.05c-3.15,1.83-8.29,1.83-11.51-.03l-58.92-34.02c-1.61-.93-2.42-2.16-2.42-3.39l-.02,6.86c0,1.23.81,2.46,2.42,3.39l58.92,34.02c3.22,1.86,8.36,1.86,11.51.03l58.59-34.05c1.56-.9,2.34-2.09,2.34-3.28l.02-6.86c0,1.19-.79,2.38-2.34,3.28Z"/>
                      <path class="cls-17" d="m3000.97,2086.52c3.22,1.86,3.24,4.84.09,6.67l-58.59,34.05c-3.15,1.83-8.29,1.83-11.51-.03l-58.92-34.02c-3.17-1.83-3.24-4.84-.09-6.67l58.59-34.05c3.15-1.83,8.34-1.8,11.51.03l58.92,34.02Z"/>
                    </g>
                    <g class="cls-19">
                      <path class="cls-14" d="m2886.78,2116.11l-58.54,34.02c-3.15,1.83-8.34,1.86-11.56,0l-58.92-34.02c-1.6-.92-2.39-2.15-2.39-3.37l-.02,6.86c0,1.22.79,2.45,2.39,3.37l58.92,34.02c3.22,1.86,8.42,1.83,11.56,0l58.54-34.02c1.59-.92,2.39-2.12,2.39-3.33l.02-6.86c0,1.2-.8,2.4-2.39,3.33Z"/>
                      <path class="cls-17" d="m2886.75,2109.41c3.22,1.86,3.24,4.84.04,6.7l-58.54,34.02c-3.15,1.83-8.34,1.86-11.56,0l-58.92-34.02c-3.17-1.83-3.19-4.87-.04-6.7l58.54-34.02c3.2-1.86,8.4-1.83,11.57,0l58.92,34.02Z"/>
                    </g>
                    <g class="cls-19">
                      <path class="cls-14" d="m2747.06,2126.43l-58.54,34.02c-3.2,1.86-8.34,1.86-11.56,0l-58.92-34.02c-1.59-.92-2.38-2.12-2.38-3.33l-.02,6.86c0,1.21.79,2.41,2.38,3.33l58.92,34.02c3.22,1.86,8.36,1.86,11.57,0l58.54-34.02c1.57-.91,2.37-2.12,2.37-3.33l.02-6.86c0,1.21-.8,2.42-2.37,3.33Z"/>
                      <path class="cls-17" d="m2747.02,2119.74c3.22,1.86,3.19,4.87.04,6.7l-58.54,34.02c-3.2,1.86-8.34,1.86-11.56,0l-58.92-34.02c-3.17-1.83-3.18-4.81.02-6.67l58.54-34.02c3.15-1.83,8.34-1.86,11.51-.03l58.92,34.02Z"/>
                    </g>
                    <g class="cls-19">
                      <path class="cls-14" d="m2547.67,2102.74l-56.88,33.06c-3.63,2.11-9.52,2.11-13.17,0l-79.28-45.77c-1.84-1.06-2.76-2.45-2.75-3.84l-.02,6.86c0,1.39.91,2.78,2.75,3.84l79.28,45.77c3.65,2.11,9.54,2.11,13.17,0l56.88-33.06c1.82-1.05,2.73-2.44,2.73-3.83l.02-6.86c0,1.39-.92,2.78-2.73,3.83Z"/>
                      <path class="cls-17" d="m2547.68,2095.08c3.65,2.11,3.62,5.55,0,7.66l-56.88,33.06c-3.63,2.11-9.52,2.11-13.17,0l-79.28-45.77c-3.65-2.11-3.67-5.52-.04-7.63l56.88-33.06c3.63-2.11,9.57-2.14,13.22-.03l79.28,45.77Z"/>
                    </g>
                    <g class="cls-19">
                      <path class="cls-14" d="m2628.45,2149.26l-58.54,34.02c-3.2,1.86-8.34,1.86-11.51.03l-58.98-34.05c-1.59-.92-2.38-2.12-2.38-3.33l-.02,6.86c0,1.21.79,2.41,2.38,3.33l58.98,34.05c3.17,1.83,8.31,1.83,11.51-.03l58.54-34.02c1.6-.93,2.39-2.14,2.4-3.34l.02-6.86c0,1.2-.8,2.41-2.4,3.34Z"/>
                      <path class="cls-17" d="m2628.46,2142.59c3.17,1.83,3.19,4.81-.02,6.67l-58.54,34.02c-3.2,1.86-8.34,1.86-11.51.03l-58.98-34.05c-3.17-1.83-3.18-4.8.02-6.67l58.54-34.02c3.2-1.86,8.34-1.86,11.51-.03l58.97,34.05Z"/>
                    </g>
                    <g class="cls-19">
                      <path class="cls-14" d="m2449.07,2134.53l-58.59,34.05c-3.15,1.83-8.29,1.83-11.46,0l-58.98-34.05c-1.59-.92-2.39-2.13-2.39-3.34l-.02,6.86c0,1.21.79,2.42,2.39,3.34l58.97,34.05c3.17,1.83,8.31,1.83,11.46,0l58.59-34.05c1.57-.91,2.35-2.1,2.35-3.29l.02-6.86c0,1.19-.79,2.39-2.35,3.29Z"/>
                      <path class="cls-17" d="m2449.04,2127.89c3.17,1.83,3.18,4.8.04,6.63l-58.59,34.05c-3.15,1.83-8.29,1.83-11.46,0l-58.98-34.05c-3.17-1.83-3.18-4.81-.04-6.64l58.59-34.05c3.15-1.83,8.29-1.83,11.46,0l58.98,34.05Z"/>
                    </g>
                    <g class="cls-19">
                      <path class="cls-14" d="m2532.27,2182.56l-58.59,34.05c-3.15,1.83-8.29,1.83-11.51-.03l-58.92-34.02c-1.61-.93-2.42-2.16-2.41-3.39l-.02,6.86c0,1.23.81,2.46,2.42,3.39l58.92,34.02c3.22,1.86,8.36,1.86,11.51.03l58.59-34.05c1.56-.9,2.34-2.09,2.34-3.28l.02-6.86c0,1.19-.79,2.38-2.34,3.28Z"/>
                      <path class="cls-17" d="m2532.18,2175.89c3.22,1.86,3.24,4.84.09,6.67l-58.59,34.05c-3.15,1.83-8.29,1.83-11.51-.03l-58.92-34.02c-3.17-1.83-3.24-4.84-.09-6.67l58.59-34.05c3.15-1.83,8.34-1.8,11.51.03l58.92,34.02Z"/>
                    </g>
                    <g class="cls-19">
                      <path class="cls-14" d="m3080.87,2139.27l-58.59,34.05c-3.15,1.83-8.29,1.83-11.51-.03l-58.92-34.02c-1.6-.92-2.39-2.13-2.39-3.34l-.02,6.86c0,1.21.79,2.42,2.39,3.34l58.92,34.02c3.22,1.86,8.36,1.86,11.51.03l58.59-34.05c1.56-.9,2.34-2.09,2.34-3.29l.02-6.86c0,1.19-.79,2.38-2.34,3.29Z"/>
                      <path class="cls-17" d="m3080.78,2132.6c3.22,1.86,3.24,4.84.09,6.67l-58.59,34.05c-3.15,1.83-8.29,1.83-11.51-.03l-58.92-34.02c-3.17-1.83-3.19-4.81-.04-6.64l58.59-34.05c3.15-1.83,8.29-1.83,11.45,0l58.92,34.02Z"/>
                    </g>
                    <g class="cls-19">
                      <path class="cls-14" d="m2967.35,2162.62l-58.54,34.02c-3.15,1.83-8.34,1.86-11.56,0l-58.92-34.02c-1.59-.92-2.39-2.15-2.39-3.37l-.02,6.86c0,1.22.79,2.45,2.39,3.37l58.92,34.02c3.22,1.86,8.42,1.83,11.56,0l58.54-34.02c1.59-.92,2.39-2.12,2.39-3.33l.02-6.86c0,1.2-.8,2.4-2.39,3.33Z"/>
                      <path class="cls-17" d="m2967.31,2155.92c3.22,1.86,3.24,4.84.04,6.7l-58.54,34.02c-3.15,1.83-8.34,1.86-11.57,0l-58.92-34.02c-3.17-1.83-3.19-4.87-.04-6.7l58.54-34.02c3.2-1.86,8.39-1.83,11.56,0l58.92,34.02Z"/>
                    </g>
                    <g class="cls-19">
                      <path class="cls-14" d="m2827.25,2172.73l-58.54,34.02c-3.2,1.86-8.34,1.86-11.56,0l-58.92-34.02c-1.59-.92-2.38-2.12-2.38-3.33l-.02,6.86c0,1.21.79,2.41,2.38,3.33l58.92,34.02c3.22,1.86,8.36,1.86,11.56,0l58.54-34.02c1.57-.91,2.37-2.12,2.37-3.33l.02-6.86c0,1.21-.8,2.42-2.37,3.33Z"/>
                      <path class="cls-17" d="m2827.21,2166.03c3.22,1.86,3.18,4.87.04,6.7l-58.54,34.02c-3.2,1.86-8.34,1.86-11.56,0l-58.92-34.02c-3.17-1.83-3.18-4.81.02-6.67l58.54-34.02c3.15-1.83,8.34-1.86,11.51-.03l58.92,34.02Z"/>
                    </g>
                    <g class="cls-19">
                      <path class="cls-14" d="m2708.26,2195.34l-58.54,34.02c-3.2,1.86-8.34,1.86-11.51.03l-58.98-34.05c-1.59-.92-2.38-2.12-2.38-3.33l-.02,6.86c0,1.21.79,2.41,2.38,3.33l58.98,34.05c3.17,1.83,8.31,1.83,11.51-.03l58.54-34.02c1.6-.93,2.39-2.13,2.4-3.34l.02-6.86c0,1.2-.8,2.41-2.4,3.34Z"/>
                      <path class="cls-17" d="m2708.28,2188.67c3.17,1.83,3.19,4.81-.02,6.67l-58.54,34.02c-3.2,1.86-8.34,1.86-11.51.03l-58.98-34.05c-3.17-1.83-3.18-4.81.02-6.67l58.54-34.02c3.2-1.86,8.34-1.86,11.51-.03l58.97,34.05Z"/>
                    </g>
                    <g class="cls-19">
                      <path class="cls-14" d="m2612.84,2229.08l-58.59,34.05c-3.15,1.83-8.29,1.83-11.51-.03l-58.92-34.02c-1.61-.93-2.42-2.16-2.41-3.39l-.02,6.86c0,1.23.81,2.46,2.41,3.39l58.92,34.02c3.22,1.86,8.36,1.86,11.51.03l58.59-34.05c1.56-.9,2.34-2.09,2.34-3.28l.02-6.86c0,1.19-.79,2.38-2.34,3.28Z"/>
                      <path class="cls-17" d="m2612.74,2222.41c3.22,1.86,3.24,4.84.09,6.67l-58.59,34.05c-3.15,1.83-8.29,1.83-11.51-.03l-58.92-34.02c-3.17-1.83-3.24-4.84-.09-6.67l58.59-34.05c3.15-1.83,8.34-1.8,11.51.03l58.92,34.02Z"/>
                    </g>
                    <g class="cls-19">
                      <path class="cls-14" d="m3160.69,2185.35l-58.59,34.05c-3.15,1.83-8.29,1.83-11.46,0l-58.97-34.05c-1.6-.92-2.39-2.13-2.39-3.34l-.02,6.86c0,1.21.79,2.42,2.39,3.34l58.98,34.05c3.17,1.83,8.31,1.83,11.46,0l58.59-34.05c1.56-.91,2.34-2.1,2.35-3.29l.02-6.86c0,1.19-.79,2.39-2.35,3.3Z"/>
                      <path class="cls-17" d="m3160.65,2178.71c3.17,1.83,3.19,4.81.04,6.64l-58.59,34.05c-3.15,1.83-8.29,1.83-11.46,0l-58.97-34.05c-3.17-1.83-3.19-4.81-.04-6.64l58.59-34.05c3.15-1.83,8.29-1.83,11.45,0l58.98,34.05Z"/>
                    </g>
                    <g class="cls-19">
                      <path class="cls-14" d="m3047.91,2209.14l-58.54,34.02c-3.15,1.83-8.34,1.86-11.57,0l-58.92-34.02c-1.6-.92-2.39-2.15-2.39-3.37l-.02,6.86c0,1.22.79,2.45,2.39,3.37l58.92,34.02c3.22,1.86,8.42,1.83,11.56,0l58.54-34.02c1.59-.92,2.39-2.13,2.39-3.33l.02-6.86c0,1.2-.8,2.4-2.39,3.33Z"/>
                      <path class="cls-17" d="m3047.88,2202.44c3.22,1.86,3.24,4.84.04,6.7l-58.54,34.02c-3.15,1.83-8.34,1.86-11.57,0l-58.92-34.02c-3.17-1.83-3.19-4.87-.04-6.7l58.54-34.02c3.2-1.86,8.39-1.83,11.56,0l58.92,34.02Z"/>
                    </g>
                    <g class="cls-19">
                      <path class="cls-14" d="m2907.44,2219.03l-58.54,34.02c-3.2,1.86-8.34,1.86-11.56,0l-58.92-34.02c-1.59-.92-2.38-2.12-2.38-3.33l-.02,6.86c0,1.21.79,2.41,2.38,3.33l58.92,34.02c3.22,1.86,8.36,1.86,11.57,0l58.54-34.02c1.57-.91,2.37-2.12,2.37-3.33l.02-6.86c0,1.21-.8,2.42-2.37,3.33Z"/>
                      <path class="cls-17" d="m2907.4,2212.33c3.22,1.86,3.19,4.87.04,6.7l-58.54,34.02c-3.2,1.86-8.34,1.86-11.56,0l-58.92-34.02c-3.17-1.83-3.18-4.81.02-6.67l58.54-34.02c3.15-1.83,8.34-1.86,11.51-.03l58.92,34.02Z"/>
                    </g>
                    <g class="cls-19">
                      <path class="cls-14" d="m2788.07,2241.42l-58.54,34.02c-3.2,1.86-8.34,1.86-11.51.03l-58.92-34.02c-1.62-.94-2.43-2.15-2.43-3.37l-.02,6.86c0,1.22.81,2.43,2.43,3.37l58.92,34.02c3.17,1.83,8.31,1.83,11.51-.03l58.54-34.02c1.6-.93,2.39-2.13,2.4-3.34l.02-6.86c0,1.2-.8,2.41-2.4,3.34Z"/>
                      <path class="cls-17" d="m2788.09,2234.75c3.17,1.83,3.19,4.81-.02,6.67l-58.54,34.02c-3.2,1.86-8.34,1.86-11.51.03l-58.92-34.02c-3.22-1.86-3.24-4.84-.04-6.7l58.54-34.02c3.2-1.86,8.34-1.86,11.56,0l58.92,34.02Z"/>
                    </g>
                    <g class="cls-19">
                      <path class="cls-14" d="m2711.29,2286.79l-57.1,33.18c-3.58,2.08-9.36,2.08-12.96,0l-76.16-43.97c-1.79-1.03-2.7-2.41-2.69-3.78l-.02,6.86c0,1.38.9,2.75,2.69,3.78l76.16,43.97c3.6,2.08,9.38,2.08,12.96,0l57.1-33.18c1.78-1.03,2.66-2.38,2.67-3.73l.02-6.86c0,1.35-.89,2.69-2.67,3.73Z"/>
                      <path class="cls-17" d="m2711.25,2279.28c3.6,2.08,3.62,5.43.04,7.5l-57.1,33.18c-3.58,2.08-9.36,2.08-12.96,0l-76.16-43.97c-3.54-2.05-3.62-5.43-.04-7.5l57.09-33.18c3.58-2.08,9.41-2.05,12.96,0l76.16,43.97Z"/>
                    </g>
                    <g class="cls-19">
                      <path class="cls-14" d="m2987.63,2265.32l-58.54,34.02c-3.2,1.86-8.34,1.86-11.51.03l-58.97-34.05c-1.59-.92-2.39-2.12-2.38-3.33l-.02,6.86c0,1.21.79,2.41,2.38,3.33l58.97,34.05c3.17,1.83,8.31,1.83,11.51-.03l58.54-34.02c1.58-.92,2.37-2.13,2.38-3.34l.02-6.86c0,1.21-.8,2.42-2.38,3.34Z"/>
                      <path class="cls-17" d="m2987.64,2258.66c3.17,1.83,3.13,4.84-.02,6.67l-58.54,34.02c-3.2,1.86-8.34,1.86-11.51.03l-58.97-34.05c-3.17-1.83-3.19-4.81.02-6.67l58.54-34.02c3.15-1.83,8.34-1.86,11.51-.03l58.98,34.05Z"/>
                    </g>
                    <g class="cls-19">
                      <path class="cls-14" d="m2867.94,2287.53l-58.54,34.02c-3.2,1.86-8.39,1.83-11.56,0l-58.92-34.02c-1.62-.94-2.43-2.15-2.43-3.37l-.02,6.86c0,1.22.81,2.43,2.43,3.37l58.92,34.02c3.17,1.83,8.36,1.86,11.56,0l58.54-34.02c1.58-.92,2.37-2.12,2.37-3.32l.02-6.86c0,1.2-.79,2.4-2.37,3.32Z"/>
                      <path class="cls-17" d="m2867.9,2280.83c3.17,1.83,3.24,4.84.04,6.7l-58.54,34.02c-3.2,1.86-8.39,1.83-11.56,0l-58.92-34.02c-3.22-1.86-3.24-4.84-.04-6.7l58.54-34.02c3.2-1.86,8.34-1.86,11.56,0l58.92,34.02Z"/>
                    </g>
                    <g class="cls-19">
                      <path class="cls-14" d="m3240.5,2231.43l-58.59,34.05c-3.15,1.83-8.29,1.83-11.46,0l-58.97-34.05c-1.6-.92-2.39-2.13-2.39-3.34l-.02,6.86c0,1.21.79,2.42,2.39,3.34l58.98,34.05c3.17,1.83,8.31,1.83,11.46,0l58.59-34.05c1.56-.91,2.34-2.1,2.35-3.29l.02-6.86c0,1.19-.79,2.39-2.35,3.29Z"/>
                      <path class="cls-17" d="m3240.46,2224.79c3.17,1.83,3.19,4.81.04,6.64l-58.59,34.05c-3.15,1.83-8.29,1.83-11.46,0l-58.97-34.05c-3.17-1.83-3.19-4.81-.04-6.64l58.59-34.05c3.15-1.83,8.29-1.83,11.45,0l58.98,34.05Z"/>
                    </g>
                    <g class="cls-19">
                      <path class="cls-14" d="m3128.48,2255.65l-58.54,34.02c-3.15,1.83-8.34,1.86-11.57,0l-58.92-34.02c-1.6-.92-2.39-2.15-2.39-3.37l-.02,6.86c0,1.22.79,2.45,2.39,3.37l58.92,34.02c3.22,1.86,8.42,1.83,11.56,0l58.54-34.02c1.59-.92,2.39-2.12,2.39-3.32l.02-6.86c0,1.2-.8,2.4-2.39,3.32Z"/>
                      <path class="cls-17" d="m3128.44,2248.95c3.22,1.86,3.24,4.84.04,6.7l-58.54,34.02c-3.15,1.83-8.34,1.86-11.57,0l-58.92-34.02c-3.17-1.83-3.19-4.87-.04-6.7l58.54-34.02c3.2-1.86,8.39-1.83,11.56,0l58.92,34.02Z"/>
                    </g>
                    <g class="cls-19">
                      <path class="cls-14" d="m3067.82,2311.62l-58.54,34.02c-3.2,1.86-8.34,1.86-11.51.03l-58.97-34.05c-1.59-.92-2.38-2.12-2.38-3.33l-.02,6.86c0,1.21.79,2.41,2.38,3.33l58.98,34.05c3.17,1.83,8.31,1.83,11.51-.03l58.54-34.02c1.58-.92,2.37-2.13,2.38-3.34l.02-6.86c0,1.21-.8,2.43-2.38,3.34Z"/>
                      <path class="cls-17" d="m3067.83,2304.96c3.17,1.83,3.13,4.84-.01,6.67l-58.54,34.02c-3.2,1.86-8.34,1.86-11.51.03l-58.97-34.05c-3.17-1.83-3.18-4.81.02-6.67l58.54-34.02c3.15-1.83,8.34-1.86,11.51-.03l58.97,34.05Z"/>
                    </g>
                    <g class="cls-19">
                      <path class="cls-14" d="m2947.75,2333.61l-58.54,34.02c-3.2,1.86-8.39,1.83-11.56,0l-58.92-34.02c-1.62-.93-2.43-2.16-2.43-3.37l-.02,6.86c0,1.21.81,2.44,2.43,3.37l58.92,34.02c3.17,1.83,8.36,1.86,11.56,0l58.54-34.02c1.58-.92,2.37-2.12,2.37-3.32l.02-6.86c0,1.2-.79,2.4-2.37,3.32Z"/>
                      <path class="cls-17" d="m2947.72,2326.91c3.17,1.83,3.24,4.84.04,6.7l-58.54,34.02c-3.2,1.86-8.39,1.83-11.56,0l-58.92-34.02c-3.22-1.86-3.24-4.84-.04-6.7l58.54-34.02c3.2-1.86,8.34-1.86,11.56,0l58.92,34.02Z"/>
                    </g>
                    <g class="cls-19">
                      <path class="cls-14" d="m3320.31,2277.51l-58.59,34.05c-3.15,1.83-8.29,1.83-11.46,0l-58.92-34.02c-1.63-.94-2.44-2.17-2.43-3.38l-.02,6.86c0,1.22.81,2.44,2.44,3.38l58.92,34.02c3.17,1.83,8.31,1.83,11.46,0l58.59-34.05c1.56-.91,2.35-2.1,2.35-3.29l.02-6.86c0,1.2-.79,2.39-2.35,3.3Z"/>
                      <path class="cls-17" d="m3320.28,2270.88c3.17,1.83,3.19,4.81.04,6.64l-58.59,34.05c-3.15,1.83-8.29,1.83-11.46,0l-58.92-34.02c-3.22-1.86-3.24-4.84-.09-6.67l58.59-34.05c3.15-1.83,8.29-1.83,11.51.03l58.92,34.02Z"/>
                    </g>
                    <g class="cls-19">
                      <path class="cls-14" d="m3209.05,2302.16l-58.54,34.02c-3.15,1.83-8.34,1.86-11.57,0l-58.92-34.02c-1.59-.92-2.39-2.15-2.39-3.37l-.02,6.86c0,1.22.79,2.45,2.39,3.37l58.92,34.02c3.22,1.86,8.42,1.83,11.57,0l58.54-34.02c1.59-.92,2.39-2.12,2.39-3.33l.02-6.86c0,1.2-.8,2.4-2.39,3.32Z"/>
                      <path class="cls-17" d="m3209.01,2295.47c3.22,1.86,3.24,4.84.04,6.7l-58.54,34.02c-3.15,1.83-8.34,1.86-11.57,0l-58.92-34.02c-3.17-1.83-3.19-4.87-.04-6.7l58.54-34.02c3.2-1.86,8.39-1.83,11.56,0l58.92,34.02Z"/>
                    </g>
                    <g class="cls-19">
                      <path class="cls-14" d="m3148.01,2357.92l-58.54,34.02c-3.2,1.86-8.34,1.86-11.51.03l-58.98-34.05c-1.59-.92-2.38-2.12-2.38-3.33l-.02,6.86c0,1.21.79,2.41,2.38,3.33l58.97,34.05c3.17,1.83,8.31,1.83,11.51-.03l58.54-34.02c1.58-.92,2.37-2.13,2.38-3.34l.02-6.86c0,1.21-.8,2.43-2.38,3.34Z"/>
                      <path class="cls-17" d="m3148.02,2351.25c3.17,1.83,3.13,4.84-.02,6.67l-58.54,34.02c-3.2,1.86-8.34,1.86-11.51.03l-58.98-34.05c-3.17-1.83-3.19-4.81.02-6.67l58.54-34.02c3.15-1.83,8.34-1.86,11.51-.03l58.98,34.05Z"/>
                    </g>
                    <g class="cls-19">
                      <path class="cls-14" d="m3027.57,2379.69l-58.54,34.02c-3.2,1.86-8.34,1.86-11.56,0l-58.92-34.02c-1.6-.92-2.41-2.15-2.41-3.38l-.02,6.86c0,1.22.81,2.45,2.41,3.38l58.92,34.02c3.22,1.86,8.36,1.86,11.56,0l58.54-34.02c1.59-.93,2.39-2.13,2.39-3.33l.02-6.86c0,1.2-.8,2.4-2.39,3.33Z"/>
                      <path class="cls-17" d="m3027.53,2372.99c3.22,1.86,3.24,4.84.04,6.7l-58.54,34.02c-3.2,1.86-8.34,1.86-11.56,0l-58.92-34.02c-3.17-1.83-3.24-4.84-.04-6.7l58.54-34.02c3.2-1.86,8.4-1.83,11.56,0l58.92,34.02Z"/>
                    </g>
                    <g class="cls-19">
                      <path class="cls-14" d="m3400.18,2323.62l-58.59,34.05c-3.15,1.83-8.34,1.8-11.51-.03l-58.92-34.02c-1.63-.94-2.44-2.16-2.43-3.38l-.02,6.86c0,1.22.81,2.44,2.43,3.38l58.92,34.02c3.17,1.83,8.36,1.86,11.51.03l58.59-34.05c1.55-.9,2.32-2.09,2.32-3.28l.02-6.86c0,1.19-.77,2.38-2.32,3.28Z"/>
                      <path class="cls-17" d="m3400.09,2316.96c3.17,1.83,3.24,4.84.09,6.67l-58.59,34.05c-3.15,1.83-8.34,1.8-11.51-.03l-58.92-34.02c-3.22-1.86-3.24-4.84-.09-6.67l58.59-34.05c3.15-1.83,8.29-1.83,11.51.03l58.92,34.02Z"/>
                    </g>
                    <g class="cls-19">
                      <path class="cls-14" d="m3289.61,2348.68l-58.54,34.02c-3.15,1.83-8.34,1.86-11.57,0l-58.92-34.02c-1.6-.92-2.39-2.15-2.39-3.37l-.02,6.86c0,1.23.79,2.45,2.39,3.37l58.92,34.02c3.22,1.86,8.42,1.83,11.57,0l58.54-34.02c1.59-.92,2.39-2.12,2.39-3.33l.02-6.86c0,1.2-.8,2.4-2.39,3.33Z"/>
                      <path class="cls-17" d="m3289.57,2341.98c3.22,1.86,3.24,4.84.04,6.7l-58.54,34.02c-3.15,1.83-8.34,1.86-11.57,0l-58.92-34.02c-3.17-1.83-3.19-4.87-.04-6.7l58.54-34.02c3.2-1.86,8.39-1.83,11.56,0l58.92,34.02Z"/>
                    </g>
                    <g class="cls-19">
                      <path class="cls-14" d="m3228.2,2404.22l-58.54,34.02c-3.2,1.86-8.34,1.86-11.51.03l-58.97-34.05c-1.59-.92-2.38-2.12-2.38-3.33l-.02,6.86c0,1.21.79,2.41,2.38,3.33l58.98,34.05c3.17,1.83,8.31,1.83,11.51-.03l58.54-34.02c1.58-.92,2.37-2.13,2.38-3.34l.02-6.86c0,1.21-.8,2.43-2.38,3.34Z"/>
                      <path class="cls-17" d="m3228.21,2397.55c3.17,1.83,3.13,4.84-.02,6.67l-58.54,34.02c-3.2,1.86-8.34,1.86-11.51.03l-58.97-34.05c-3.17-1.83-3.18-4.81.02-6.67l58.54-34.02c3.15-1.83,8.34-1.86,11.51-.03l58.97,34.05Z"/>
                    </g>
                    <g class="cls-19">
                      <path class="cls-14" d="m3107.38,2425.77l-58.54,34.02c-3.2,1.86-8.34,1.86-11.56,0l-58.92-34.02c-1.6-.92-2.41-2.15-2.41-3.38l-.02,6.86c0,1.23.81,2.45,2.41,3.38l58.92,34.02c3.22,1.86,8.36,1.86,11.56,0l58.54-34.02c1.59-.92,2.39-2.13,2.39-3.33l.02-6.86c0,1.2-.8,2.4-2.39,3.33Z"/>
                      <path class="cls-17" d="m3107.34,2419.07c3.22,1.86,3.24,4.84.04,6.7l-58.54,34.02c-3.2,1.86-8.34,1.86-11.56,0l-58.92-34.02c-3.17-1.83-3.24-4.84-.04-6.7l58.54-34.02c3.2-1.86,8.4-1.83,11.56,0l58.92,34.02Z"/>
                    </g>
                    <g class="cls-19">
                      <path class="cls-14" d="m3480,2369.7l-58.59,34.05c-3.15,1.83-8.34,1.8-11.51-.03l-58.92-34.02c-1.63-.94-2.44-2.16-2.43-3.38l-.02,6.86c0,1.22.81,2.44,2.43,3.38l58.92,34.02c3.17,1.83,8.36,1.86,11.51.03l58.59-34.05c1.55-.9,2.32-2.09,2.32-3.28l.02-6.86c0,1.19-.77,2.38-2.32,3.28Z"/>
                      <path class="cls-17" d="m3479.9,2363.04c3.17,1.83,3.24,4.84.09,6.67l-58.59,34.05c-3.15,1.83-8.34,1.8-11.51-.03l-58.92-34.02c-3.22-1.86-3.24-4.84-.09-6.67l58.59-34.05c3.15-1.83,8.29-1.83,11.51.03l58.92,34.02Z"/>
                    </g>
                    <g class="cls-19">
                      <path class="cls-14" d="m3370.18,2395.19l-58.54,34.02c-3.15,1.83-8.34,1.86-11.56,0l-58.92-34.02c-1.6-.92-2.39-2.15-2.39-3.37l-.02,6.86c0,1.22.79,2.45,2.39,3.37l58.92,34.02c3.22,1.86,8.42,1.83,11.57,0l58.54-34.02c1.59-.92,2.39-2.13,2.39-3.32l.02-6.86c0,1.2-.8,2.4-2.39,3.33Z"/>
                      <path class="cls-17" d="m3370.14,2388.49c3.22,1.86,3.24,4.84.04,6.7l-58.54,34.02c-3.15,1.83-8.34,1.86-11.56,0l-58.92-34.02c-3.17-1.83-3.19-4.87-.04-6.7l58.54-34.02c3.2-1.86,8.4-1.83,11.57,0l58.92,34.02Z"/>
                    </g>
                    <g class="cls-19">
                      <path class="cls-14" d="m3308.39,2450.52l-58.54,34.02c-3.2,1.86-8.34,1.86-11.51.03l-58.97-34.05c-1.59-.92-2.38-2.12-2.38-3.33l-.02,6.86c0,1.21.79,2.41,2.38,3.33l58.97,34.05c3.17,1.83,8.31,1.83,11.51-.03l58.54-34.02c1.58-.92,2.37-2.13,2.38-3.34l.02-6.86c0,1.21-.8,2.42-2.38,3.34Z"/>
                      <path class="cls-17" d="m3308.4,2443.85c3.17,1.83,3.13,4.84-.02,6.67l-58.54,34.02c-3.2,1.86-8.34,1.86-11.51.03l-58.98-34.05c-3.17-1.83-3.19-4.8.02-6.67l58.54-34.02c3.15-1.83,8.34-1.86,11.51-.03l58.98,34.05Z"/>
                    </g>
                    <g class="cls-19">
                      <path class="cls-14" d="m3187.19,2471.85l-58.54,34.02c-3.2,1.86-8.34,1.86-11.56,0l-58.92-34.01c-1.59-.92-2.39-2.12-2.38-3.33l-.02,6.86c0,1.21.79,2.42,2.38,3.33l58.92,34.02c3.22,1.86,8.36,1.86,11.56,0l58.54-34.02c1.59-.92,2.39-2.12,2.39-3.33l.02-6.86c0,1.2-.8,2.4-2.39,3.33Z"/>
                      <path class="cls-17" d="m3187.16,2465.15c3.22,1.86,3.24,4.84.04,6.7l-58.54,34.02c-3.2,1.86-8.34,1.86-11.56,0l-58.92-34.02c-3.17-1.83-3.19-4.81.02-6.67l58.54-34.02c3.2-1.86,8.34-1.86,11.51-.03l58.92,34.02Z"/>
                    </g>
                    <g class="cls-19">
                      <path class="cls-14" d="m3105.79,2522.77l-42.9,24.93c-7.52,4.37-19.68,4.34-27.19,0l-364.96-210.71c-3.81-2.2-5.71-5.07-5.71-7.93l-.02,6.86c0,2.86,1.9,5.73,5.71,7.93l364.96,210.71c7.52,4.34,19.67,4.37,27.2,0l42.9-24.93c3.73-2.17,5.59-4.99,5.6-7.82l.02-6.86c0,2.83-1.87,5.65-5.6,7.82Z"/>
                      <path class="cls-17" d="m3105.7,2507.02c7.52,4.34,7.61,11.38.09,15.75l-42.9,24.93c-7.52,4.37-19.68,4.34-27.19,0l-364.96-210.71c-7.57-4.37-7.61-11.38-.09-15.75l42.9-24.93c7.52-4.37,19.62-4.37,27.2,0l364.96,210.71Z"/>
                    </g>
                    <g class="cls-19">
                      <path class="cls-14" d="m3559.81,2415.78l-58.59,34.05c-3.15,1.83-8.29,1.83-11.51-.03l-58.92-34.02c-1.63-.94-2.44-2.16-2.43-3.38l-.02,6.86c0,1.22.81,2.44,2.43,3.38l58.92,34.02c3.22,1.86,8.36,1.86,11.51.03l58.59-34.05c1.56-.9,2.34-2.09,2.34-3.28l.02-6.86c0,1.19-.79,2.38-2.34,3.28Z"/>
                      <path class="cls-17" d="m3559.72,2409.12c3.22,1.86,3.24,4.84.09,6.67l-58.59,34.05c-3.15,1.83-8.29,1.83-11.51-.03l-58.92-34.02c-3.22-1.86-3.24-4.84-.09-6.67l58.59-34.05c3.15-1.83,8.29-1.83,11.51.03l58.92,34.02Z"/>
                    </g>
                    <g class="cls-19">
                      <path class="cls-14" d="m3450.74,2441.71l-58.54,34.02c-3.15,1.83-8.34,1.86-11.56,0l-58.92-34.02c-1.59-.92-2.39-2.15-2.39-3.37l-.02,6.86c0,1.22.79,2.45,2.39,3.37l58.92,34.02c3.22,1.86,8.42,1.83,11.56,0l58.54-34.02c1.59-.92,2.39-2.12,2.39-3.32l.02-6.86c0,1.2-.8,2.4-2.39,3.32Z"/>
                      <path class="cls-17" d="m3450.7,2435.01c3.22,1.86,3.24,4.84.04,6.7l-58.54,34.02c-3.15,1.83-8.34,1.86-11.56,0l-58.92-34.02c-3.17-1.83-3.19-4.87-.04-6.7l58.54-34.02c3.2-1.86,8.4-1.83,11.57,0l58.92,34.02Z"/>
                    </g>
                    <g class="cls-19">
                      <path class="cls-14" d="m3388.57,2496.81l-58.54,34.02c-3.2,1.86-8.34,1.86-11.51.03l-58.92-34.02c-1.62-.94-2.43-2.16-2.43-3.37l-.02,6.86c0,1.22.81,2.44,2.43,3.37l58.92,34.02c3.17,1.83,8.31,1.83,11.51-.03l58.54-34.02c1.58-.92,2.37-2.13,2.38-3.34l.02-6.86c0,1.21-.8,2.42-2.38,3.34Z"/>
                      <path class="cls-17" d="m3388.59,2490.15c3.17,1.83,3.13,4.84-.02,6.67l-58.54,34.02c-3.2,1.86-8.34,1.86-11.51.03l-58.92-34.02c-3.22-1.86-3.24-4.84-.04-6.7l58.54-34.02c3.15-1.83,8.34-1.86,11.56,0l58.92,34.02Z"/>
                    </g>
                    <g class="cls-19">
                      <path class="cls-14" d="m3267.01,2517.93l-58.54,34.02c-3.2,1.86-8.34,1.86-11.51.03l-58.97-34.05c-1.59-.92-2.39-2.12-2.38-3.33l-.02,6.86c0,1.21.79,2.41,2.38,3.33l58.97,34.05c3.17,1.83,8.31,1.83,11.51-.03l58.54-34.02c1.6-.93,2.39-2.13,2.4-3.34l.02-6.86c0,1.2-.8,2.41-2.4,3.34Z"/>
                      <path class="cls-17" d="m3267.02,2511.26c3.17,1.83,3.18,4.81-.02,6.67l-58.54,34.02c-3.2,1.86-8.34,1.86-11.51.03l-58.97-34.05c-3.17-1.83-3.19-4.81.02-6.67l58.54-34.02c3.2-1.86,8.34-1.86,11.51-.03l58.97,34.05Z"/>
                    </g>
                    <g class="cls-19">
                      <path class="cls-14" d="m3642.79,2463.69l-58.59,34.05c-3.15,1.83-8.29,1.83-11.51-.03l-58.92-34.02c-1.61-.93-2.42-2.16-2.41-3.39l-.02,6.86c0,1.23.81,2.46,2.42,3.39l58.92,34.02c3.22,1.86,8.36,1.86,11.51.03l58.59-34.05c1.56-.9,2.34-2.09,2.34-3.28l.02-6.86c0,1.19-.79,2.38-2.34,3.28Z"/>
                      <path class="cls-17" d="m3642.7,2457.03c3.22,1.86,3.24,4.84.09,6.67l-58.59,34.05c-3.15,1.83-8.29,1.83-11.51-.03l-58.92-34.02c-3.17-1.83-3.24-4.84-.09-6.67l58.59-34.05c3.15-1.83,8.34-1.8,11.51.03l58.92,34.02Z"/>
                    </g>
                    <g class="cls-19">
                      <path class="cls-14" d="m3531.31,2488.22l-58.54,34.02c-3.15,1.83-8.34,1.86-11.56,0l-58.92-34.02c-1.59-.92-2.39-2.15-2.39-3.37l-.02,6.86c0,1.22.79,2.45,2.39,3.37l58.92,34.02c3.22,1.86,8.42,1.83,11.56,0l58.54-34.02c1.59-.92,2.39-2.12,2.39-3.33l.02-6.86c0,1.2-.8,2.4-2.39,3.33Z"/>
                      <path class="cls-17" d="m3531.27,2481.52c3.22,1.86,3.24,4.84.04,6.7l-58.54,34.02c-3.15,1.83-8.34,1.86-11.56,0l-58.92-34.02c-3.17-1.83-3.19-4.87-.04-6.7l58.54-34.02c3.2-1.86,8.4-1.83,11.57,0l58.92,34.02Z"/>
                    </g>
                    <g class="cls-19">
                      <path class="cls-14" d="m3468.77,2543.11l-58.54,34.02c-3.2,1.86-8.34,1.86-11.51.03l-58.92-34.02c-1.62-.94-2.43-2.16-2.43-3.37l-.02,6.86c0,1.22.81,2.44,2.43,3.37l58.92,34.02c3.17,1.83,8.31,1.83,11.51-.03l58.54-34.02c1.58-.92,2.38-2.13,2.38-3.34l.02-6.86c0,1.21-.8,2.42-2.37,3.34Z"/>
                      <path class="cls-17" d="m3468.78,2536.44c3.17,1.83,3.13,4.84-.02,6.67l-58.54,34.02c-3.2,1.86-8.34,1.86-11.51.03l-58.92-34.02c-3.22-1.86-3.24-4.84-.04-6.7l58.54-34.02c3.15-1.83,8.34-1.86,11.57,0l58.92,34.02Z"/>
                    </g>
                    <g class="cls-19">
                      <path class="cls-14" d="m3349.56,2565.59l-58.54,34.02c-3.2,1.86-8.34,1.86-11.51.03l-58.97-34.05c-1.59-.92-2.38-2.12-2.38-3.33l-.02,6.86c0,1.21.79,2.41,2.38,3.33l58.97,34.05c3.17,1.83,8.31,1.83,11.51-.03l58.54-34.02c1.6-.93,2.39-2.14,2.4-3.34l.02-6.86c0,1.2-.8,2.41-2.4,3.34Z"/>
                      <path class="cls-17" d="m3349.58,2558.93c3.17,1.83,3.18,4.81-.02,6.67l-58.54,34.02c-3.2,1.86-8.34,1.86-11.51.03l-58.97-34.05c-3.17-1.83-3.19-4.81.02-6.67l58.54-34.02c3.2-1.86,8.34-1.86,11.51-.03l58.98,34.05Z"/>
                    </g>
                    <g class="cls-19">
                      <path class="cls-14" d="m3211.12,2575.36l-57.09,33.18c-3.57,2.08-9.41,2.05-12.96,0l-76.16-43.97c-1.81-1.05-2.71-2.41-2.71-3.78l-.02,6.86c0,1.37.9,2.73,2.71,3.78l76.16,43.97c3.54,2.05,9.38,2.08,12.96,0l57.1-33.18c1.77-1.03,2.64-2.37,2.65-3.72l.02-6.86c0,1.35-.88,2.69-2.65,3.72Z"/>
                      <path class="cls-17" d="m3211.08,2567.86c3.54,2.05,3.62,5.43.04,7.5l-57.09,33.18c-3.57,2.08-9.41,2.05-12.96,0l-76.16-43.97c-3.6-2.08-3.62-5.43-.04-7.5l57.1-33.18c3.57-2.08,9.36-2.08,12.96,0l76.16,43.97Z"/>
                    </g>
                    <g class="cls-19">
                      <path class="cls-14" d="m3723.73,2510.43l-58.59,34.05c-3.15,1.83-8.29,1.83-11.51-.03l-58.92-34.02c-1.63-.94-2.44-2.16-2.43-3.38l-.02,6.86c0,1.22.81,2.44,2.44,3.38l58.92,34.02c3.22,1.86,8.36,1.86,11.51.03l58.59-34.05c1.56-.9,2.34-2.09,2.34-3.28l.02-6.86c0,1.19-.79,2.38-2.35,3.28Z"/>
                      <path class="cls-17" d="m3723.64,2503.76c3.22,1.86,3.24,4.84.09,6.67l-58.59,34.05c-3.15,1.83-8.29,1.83-11.51-.03l-58.92-34.02c-3.22-1.86-3.24-4.84-.09-6.67l58.59-34.05c3.15-1.83,8.29-1.83,11.51.03l58.92,34.02Z"/>
                    </g>
                    <g class="cls-19">
                      <path class="cls-14" d="m3611.87,2534.74l-58.54,34.02c-3.15,1.83-8.34,1.86-11.56,0l-58.92-34.02c-1.59-.92-2.39-2.15-2.39-3.37l-.02,6.86c0,1.22.79,2.45,2.39,3.37l58.92,34.01c3.22,1.86,8.42,1.83,11.56,0l58.54-34.02c1.59-.92,2.39-2.12,2.39-3.33l.02-6.86c0,1.2-.8,2.4-2.39,3.33Z"/>
                      <path class="cls-17" d="m3611.84,2528.04c3.22,1.86,3.24,4.84.04,6.7l-58.54,34.02c-3.15,1.83-8.34,1.86-11.56,0l-58.92-34.02c-3.17-1.83-3.19-4.87-.04-6.7l58.54-34.02c3.2-1.86,8.4-1.83,11.56,0l58.92,34.02Z"/>
                    </g>
                    <g class="cls-19">
                      <path class="cls-14" d="m3549.01,2589.44l-58.54,34.02c-3.2,1.86-8.4,1.83-11.56,0l-58.92-34.02c-1.62-.94-2.43-2.16-2.43-3.37l-.02,6.86c0,1.22.81,2.44,2.43,3.37l58.92,34.02c3.17,1.83,8.36,1.86,11.56,0l58.54-34.02c1.56-.91,2.35-2.12,2.35-3.33l.02-6.86c0,1.21-.79,2.41-2.35,3.32Z"/>
                      <path class="cls-17" d="m3548.97,2582.74c3.17,1.83,3.19,4.87.04,6.7l-58.54,34.02c-3.2,1.86-8.4,1.83-11.56,0l-58.92-34.02c-3.22-1.86-3.24-4.84-.04-6.7l58.54-34.02c3.15-1.83,8.34-1.86,11.56,0l58.92,34.02Z"/>
                    </g>
                    <g class="cls-19">
                      <path class="cls-14" d="m3429.16,2611.55l-58.54,34.02c-3.2,1.86-8.39,1.83-11.56,0l-58.92-34.02c-1.62-.94-2.43-2.16-2.43-3.37l-.02,6.86c0,1.22.81,2.44,2.43,3.37l58.92,34.02c3.17,1.83,8.36,1.86,11.56,0l58.54-34.02c1.58-.92,2.37-2.12,2.37-3.32l.02-6.86c0,1.2-.79,2.4-2.37,3.32Z"/>
                      <path class="cls-17" d="m3429.12,2604.85c3.17,1.83,3.24,4.84.04,6.7l-58.54,34.02c-3.2,1.86-8.39,1.83-11.56,0l-58.92-34.02c-3.22-1.86-3.24-4.84-.04-6.7l58.54-34.02c3.2-1.86,8.34-1.86,11.56,0l58.92,34.02Z"/>
                    </g>
                    <g class="cls-19">
                      <path class="cls-14" d="m3293.51,2622.25l-58.27,33.86c-3.26,1.89-8.56,1.86-11.78,0l-61.93-35.75c-1.65-.95-2.47-2.19-2.47-3.44l-.02,6.86c0,1.24.82,2.48,2.47,3.43l61.93,35.75c3.22,1.86,8.52,1.89,11.78,0l58.27-33.86c1.61-.94,2.41-2.16,2.41-3.38l.02-6.86c0,1.22-.8,2.45-2.41,3.38Z"/>
                      <path class="cls-17" d="m3293.47,2615.43c3.22,1.86,3.29,4.93.04,6.82l-58.27,33.86c-3.26,1.89-8.56,1.86-11.78,0l-61.93-35.75c-3.28-1.89-3.29-4.93-.04-6.82l58.27-33.86c3.25-1.89,8.5-1.89,11.78,0l61.93,35.75Z"/>
                    </g>
                    <g class="cls-19">
                      <path class="cls-14" d="m3343.02,2688.11l-27.75,16.13c-2.35,1.36-6.15,1.33-8.51-.03l-65.2-37.65c-1.19-.69-1.78-1.58-1.78-2.47l-.02,6.86c0,.89.59,1.78,1.78,2.47l65.2,37.65c2.37,1.37,6.16,1.4,8.51.03l27.75-16.13c1.15-.67,1.72-1.54,1.73-2.42l.02-6.86c0,.87-.57,1.75-1.73,2.42Z"/>
                      <path class="cls-17" d="m3342.94,2683.18c2.36,1.36,2.43,3.57.08,4.93l-27.75,16.13c-2.35,1.36-6.15,1.33-8.51-.03l-65.2-37.65c-2.36-1.37-2.38-3.54-.03-4.9l27.75-16.13c2.35-1.37,6.1-1.37,8.46,0l65.21,37.65Z"/>
                    </g>
                    <g class="cls-19">
                      <path class="cls-14" d="m3907.95,2549.34l-39.75,23.1c-2.35,1.37-6.1,1.37-8.46,0l-46.62-26.92c-1.17-.67-1.76-1.57-1.76-2.47l-.02,6.86c0,.9.59,1.8,1.76,2.47l46.62,26.92c2.36,1.37,6.11,1.37,8.46,0l39.75-23.1c1.17-.68,1.75-1.56,1.75-2.43l.02-6.86c0,.88-.59,1.76-1.76,2.43Z"/>
                      <path class="cls-17" d="m3907.93,2544.44c2.36,1.37,2.38,3.53.03,4.9l-39.75,23.1c-2.35,1.37-6.1,1.37-8.46,0l-46.62-26.92c-2.31-1.33-2.38-3.53-.03-4.9l39.75-23.1c2.35-1.37,6.15-1.33,8.46,0l46.62,26.92Z"/>
                    </g>
                    <g class="cls-19">
                      <path class="cls-14" d="m3848.03,2584.17l-55.18,32.07c-4.11,2.39-10.75,2.39-14.88,0l-102.91-59.41c-2.09-1.21-3.15-2.8-3.14-4.39l-.02,6.86c0,1.59,1.05,3.18,3.14,4.39l102.91,59.41c4.13,2.39,10.77,2.39,14.88,0l55.18-32.07c2.04-1.19,3.06-2.73,3.07-4.28l.02-6.86c0,1.55-1.03,3.09-3.07,4.28Z"/>
                      <path class="cls-17" d="m3847.98,2575.55c4.14,2.39,4.16,6.23.05,8.62l-55.18,32.07c-4.11,2.39-10.75,2.39-14.88,0l-102.91-59.41c-4.13-2.39-4.21-6.26-.1-8.65l55.18-32.07c4.11-2.39,10.8-2.36,14.94.03l102.91,59.41Z"/>
                    </g>
                    <g class="cls-19">
                      <path class="cls-14" d="m3692.44,2581.25l-58.54,34.02c-3.15,1.83-8.34,1.86-11.57,0l-58.92-34.01c-1.59-.92-2.39-2.15-2.39-3.37l-.02,6.86c0,1.22.79,2.45,2.39,3.37l58.92,34.02c3.22,1.86,8.42,1.83,11.56,0l58.54-34.02c1.59-.92,2.39-2.13,2.39-3.33l.02-6.86c0,1.2-.8,2.4-2.39,3.33Z"/>
                      <path class="cls-17" d="m3692.4,2574.55c3.22,1.86,3.24,4.84.04,6.7l-58.54,34.02c-3.15,1.83-8.34,1.86-11.57,0l-58.92-34.02c-3.17-1.83-3.19-4.87-.04-6.7l58.54-34.02c3.2-1.86,8.4-1.83,11.56,0l58.92,34.02Z"/>
                    </g>
                    <g class="cls-19">
                      <path class="cls-14" d="m3629.2,2635.74l-58.54,34.02c-3.2,1.86-8.4,1.83-11.56,0l-58.92-34.02c-1.62-.94-2.43-2.16-2.43-3.37l-.02,6.86c0,1.22.81,2.44,2.43,3.37l58.92,34.02c3.17,1.83,8.36,1.86,11.56,0l58.54-34.02c1.57-.91,2.35-2.12,2.35-3.33l.02-6.86c0,1.21-.79,2.42-2.35,3.33Z"/>
                      <path class="cls-17" d="m3629.16,2629.04c3.17,1.83,3.18,4.87.03,6.7l-58.54,34.02c-3.2,1.86-8.4,1.83-11.56,0l-58.92-34.02c-3.22-1.86-3.24-4.84-.04-6.7l58.54-34.02c3.15-1.83,8.34-1.86,11.56,0l58.92,34.02Z"/>
                    </g>
                    <g class="cls-19">
                      <path class="cls-14" d="m3773,2627.76l-58.54,34.02c-3.15,1.83-8.34,1.86-11.56,0l-58.92-34.02c-1.59-.92-2.39-2.15-2.39-3.37l-.02,6.86c0,1.23.8,2.45,2.39,3.37l58.92,34.02c3.22,1.86,8.42,1.83,11.56,0l58.54-34.02c1.59-.92,2.39-2.12,2.39-3.33l.02-6.86c0,1.2-.8,2.4-2.39,3.33Z"/>
                      <path class="cls-17" d="m3772.97,2621.07c3.22,1.86,3.24,4.84.04,6.7l-58.54,34.02c-3.15,1.83-8.34,1.86-11.57,0l-58.92-34.02c-3.17-1.83-3.19-4.87-.04-6.7l58.54-34.02c3.2-1.86,8.39-1.83,11.56,0l58.92,34.02Z"/>
                    </g>
                    <g class="cls-19">
                      <path class="cls-14" d="m3695.1,2673.04l-59.87,34.79c-2.78,1.61-7.38,1.61-10.17,0l-44.85-25.89c-1.44-.83-2.15-1.92-2.15-3.01l-.02,6.86c0,1.09.71,2.18,2.15,3.01l44.85,25.89c2.79,1.61,7.4,1.61,10.17,0l59.87-34.79c1.41-.82,2.11-1.9,2.12-2.97l.02-6.86c0,1.07-.71,2.15-2.12,2.97Z"/>
                      <path class="cls-17" d="m3695.12,2667.12c2.79,1.61,2.81,4.28-.02,5.92l-59.87,34.79c-2.77,1.61-7.38,1.61-10.17,0l-44.85-25.89c-2.85-1.64-2.86-4.31-.08-5.92l59.87-34.79c2.83-1.65,7.43-1.65,10.28,0l44.85,25.89Z"/>
                    </g>
                    <g class="cls-19">
                      <path class="cls-14" d="m3612.28,2721.17l-51.81,30.11c-5.01,2.92-13.26,2.92-18.31,0l-159.68-92.19c-2.54-1.47-3.81-3.41-3.8-5.34l-.02,6.86c0,1.93,1.26,3.87,3.8,5.34l159.68,92.19c5.05,2.92,13.29,2.92,18.31,0l51.81-30.11c2.49-1.45,3.74-3.35,3.74-5.26l.02-6.86c0,1.91-1.25,3.82-3.74,5.26Z"/>
                      <path class="cls-17" d="m3612.22,2710.56c5.05,2.92,5.08,7.69.06,10.61l-51.81,30.11c-5.02,2.92-13.26,2.92-18.31,0l-159.68-92.19c-5.05-2.92-5.07-7.69-.06-10.61l51.81-30.11c5.02-2.92,13.26-2.92,18.31,0l159.68,92.19Z"/>
                    </g>
                    <g class="cls-19">
                      <path class="cls-14" d="m3458.13,2717.29l-58.27,33.86c-3.25,1.89-8.56,1.86-11.78,0l-61.93-35.75c-1.65-.95-2.47-2.19-2.47-3.43l-.02,6.86c0,1.24.82,2.48,2.47,3.43l61.93,35.75c3.22,1.86,8.52,1.89,11.78,0l58.27-33.86c1.61-.94,2.41-2.16,2.41-3.38l.02-6.86c0,1.22-.8,2.45-2.41,3.38Z"/>
                      <path class="cls-17" d="m3458.09,2710.47c3.22,1.86,3.29,4.93.04,6.82l-58.27,33.86c-3.25,1.89-8.56,1.86-11.78,0l-61.93-35.75c-3.28-1.89-3.29-4.93-.04-6.82l58.27-33.86c3.26-1.89,8.5-1.89,11.78,0l61.93,35.75Z"/>
                    </g>
                    <g class="cls-19">
                      <path class="cls-14" d="m3506.62,2782.57l-27.75,16.13c-2.35,1.36-6.15,1.33-8.46,0l-65.26-37.68c-1.17-.67-1.76-1.57-1.76-2.47l-.02,6.86c0,.9.59,1.8,1.76,2.47l65.26,37.67c2.31,1.33,6.11,1.37,8.46,0l27.75-16.12c1.16-.67,1.73-1.55,1.73-2.43l.02-6.86c0,.88-.57,1.76-1.73,2.43Z"/>
                      <path class="cls-17" d="m3506.6,2777.67c2.31,1.33,2.38,3.53.03,4.9l-27.75,16.13c-2.35,1.36-6.15,1.33-8.46,0l-65.26-37.68c-2.31-1.33-2.37-3.54-.03-4.9l27.75-16.13c2.35-1.36,6.15-1.33,8.46,0l65.26,37.68Z"/>
                    </g>
                  </g>
                </g>
                <path class="cls-14" d="m2859.44,1854.96l-25.5,14.72h-8.69l.1,6.93c.08.8.49,1.57,1.49,2.14l1020.17,588.99c2.38,1.37,6.53,1.2,9.28-.38l31.93-18.44-1028.78-593.97Z"/>
                <path class="cls-17" d="m3847,2461.29l-1020.17-588.99c-2.38-1.37-2.08-3.77.67-5.36l31.93-18.44,1028.78,593.97-31.93,18.44c-2.75,1.59-6.9,1.76-9.28.38Z"/>
                <g class="cls-19">
                  <path class="cls-17" d="m4160.2,1409.41l-1239.76-715.77c-7.56-4.37-14.79-4.94-20.55-2.33l-36.03,16.28c5.76-2.61,12.98-2.04,20.55,2.33l1239.76,715.78c16.37,9.45,28.17,33.12,26.3,52.94l-97.26,1031.15c-1,10.6-5.73,17.9-12.44,20.93l36.03-16.28c6.7-3.03,11.44-10.33,12.43-20.94l97.26-1031.15c1.87-19.82-9.93-43.48-26.31-52.94Z"/>
                  <path class="cls-14" d="m4124.17,1425.69c16.38,9.45,28.17,33.12,26.3,52.94l-97.26,1031.15c-1.86,19.75-16.68,28.05-33.05,18.6l-1239.76-715.78c-16.37-9.45-28.12-33.09-26.26-52.84l97.26-1031.15c1.87-19.82,16.63-28.15,33-18.7l1239.76,715.78Z"/>
                  <path class="cls-16" d="m4105.08,1440.35c15.65,9.03,26.92,31.65,25.14,50.59l-84.71,897.58c-1.78,18.87-15.94,26.81-31.58,17.77l-1201.23-693.82c-15.65-9.03-26.87-31.62-25.09-50.49l84.71-897.58c1.79-18.94,15.89-26.9,31.54-17.87l1201.23,693.82Z"/>
                </g>
              </g>
              <path class="cls-18" d="m3246.47,2500.43l-47.49,27.34c-20.68,11.92-51.87,13.32-69.75,2.98l-815.43-470.54,121.8-70.8,815.78,470.89c17.88,10.16,15.6,28.21-4.91,40.13Z"/>
              <g>
                <path class="cls-2" d="m2981.55,970.02l-43.58-25.16c-7-4.05-11.83-14.78-10.78-23.97h0c1.05-9.19,7.58-13.37,14.58-9.33l43.58,25.16c7,4.04,11.83,14.78,10.78,23.97h0c-1.05,9.19-7.58,13.37-14.58,9.33Z"/>
                <path class="cls-2" d="m2914.98,1553.9l-43.58-25.16c-7-4.04-11.83-14.78-10.78-23.97h0c1.05-9.19,7.57-13.37,14.58-9.33l43.58,25.16c7,4.04,11.83,14.77,10.78,23.97h0c-1.05,9.19-7.58,13.37-14.58,9.33Z"/>
                <path class="cls-7" d="m3037.6,1624.69l-87.26-50.38c-7-4.05-11.83-14.78-10.78-23.97h0c1.05-9.19,7.58-13.37,14.58-9.33l87.26,50.38c7,4.05,11.83,14.78,10.78,23.97h0c-1.05,9.19-7.58,13.37-14.58,9.33Z"/>
                <path class="cls-4" d="m3352.31,1806.39l-278.82-160.97c-7-4.04-11.83-14.78-10.78-23.97h0c1.05-9.19,7.58-13.37,14.58-9.33l278.82,160.97c7,4.04,11.83,14.78,10.78,23.97h0c-1.05,9.19-7.58,13.37-14.58,9.33Z"/>
                <path class="cls-7" d="m3153.64,1069.38l-132.17-76.3c-7-4.05-11.83-14.78-10.78-23.97h0c1.05-9.19,7.58-13.37,14.58-9.33l132.17,76.3c7,4.04,11.83,14.78,10.78,23.97h0c-1.05,9.19-7.58,13.37-14.58,9.33Z"/>
                <path class="cls-4" d="m3591.49,1322.17l-397.4-229.44c-7-4.04-11.83-14.78-10.78-23.97h0c1.05-9.19,7.58-13.37,14.58-9.33l397.4,229.44c7,4.04,11.83,14.78,10.78,23.97h0c-1.05,9.19-7.58,13.37-14.58,9.33Z"/>
                <path class="cls-2" d="m3016.09,1050.8l-43.58-25.16c-7-4.04-11.83-14.77-10.78-23.97h0c1.05-9.19,7.58-13.37,14.58-9.33l43.58,25.16c7,4.04,11.83,14.78,10.78,23.97h0c-1.05,9.19-7.58,13.37-14.58,9.33Z"/>
                <path class="cls-7" d="m3188.18,1150.16l-132.17-76.31c-7-4.04-11.83-14.77-10.78-23.97h0c1.05-9.19,7.58-13.37,14.58-9.33l132.17,76.31c7,4.04,11.83,14.78,10.78,23.97h0c-1.05,9.19-7.58,13.37-14.58,9.33Z"/>
                <path class="cls-4" d="m3626.03,1402.95l-397.4-229.44c-7-4.04-11.83-14.78-10.78-23.97h0c1.05-9.19,7.57-13.37,14.58-9.33l397.4,229.44c7,4.04,11.83,14.78,10.78,23.97h0c-1.05,9.19-7.58,13.37-14.58,9.33Z"/>
                <path class="cls-2" d="m3009.04,1112.64l-43.58-25.16c-7-4.04-11.83-14.78-10.78-23.97h0c1.05-9.19,7.58-13.37,14.58-9.33l43.58,25.16c7,4.04,11.83,14.77,10.78,23.97h0c-1.05,9.19-7.58,13.37-14.58,9.33Z"/>
                <path class="cls-2" d="m3002.36,1171.3l-43.58-25.16c-7-4.04-11.83-14.77-10.78-23.97h0c1.05-9.19,7.58-13.37,14.58-9.33l43.58,25.16c7,4.04,11.83,14.77,10.78,23.97h0c-1.05,9.19-7.57,13.37-14.58,9.33Z"/>
                <path class="cls-2" d="m2975.37,1407.95l-43.58-25.16c-7-4.05-11.83-14.78-10.78-23.97h0c1.05-9.19,7.58-13.37,14.58-9.33l43.58,25.16c7,4.04,11.83,14.78,10.78,23.97h0c-1.05,9.19-7.58,13.37-14.58,9.33Z"/>
                <path class="cls-2" d="m2968.81,1465.55l-43.58-25.16c-7-4.04-11.83-14.78-10.78-23.97h0c1.05-9.19,7.58-13.37,14.58-9.33l43.58,25.16c7,4.05,11.83,14.78,10.78,23.97h0c-1.05,9.19-7.58,13.37-14.58,9.33Z"/>
                <path class="cls-2" d="m2950.07,1629.92l-43.58-25.16c-7-4.05-11.83-14.78-10.78-23.97h0c1.05-9.19,7.58-13.37,14.58-9.33l43.58,25.16c7,4.04,11.83,14.78,10.78,23.97h0c-1.05,9.19-7.57,13.37-14.58,9.33Z"/>
                <path class="cls-7" d="m3069.18,1698.69l-84.8-48.96c-7-4.04-11.83-14.78-10.78-23.97h0c1.05-9.19,7.58-13.37,14.58-9.33l84.8,48.96c7,4.05,11.83,14.78,10.78,23.97h0c-1.05,9.19-7.58,13.37-14.58,9.33Z"/>
                <path class="cls-4" d="m3397.92,1888.49l-289.87-167.36c-7-4.04-11.83-14.78-10.78-23.97h0c1.05-9.19,7.58-13.37,14.58-9.33l289.87,167.36c7,4.04,11.83,14.78,10.78,23.97h0c-1.05,9.19-7.58,13.37-14.58,9.33Z"/>
                <path class="cls-2" d="m3571.9,1813.75l-43.58-25.16c-7-4.04-11.83-14.77-10.78-23.97h0c1.05-9.19,7.58-13.37,14.58-9.33l43.58,25.16c7,4.04,11.83,14.77,10.78,23.97h0c-1.05,9.19-7.58,13.37-14.58,9.33Z"/>
                <path class="cls-2" d="m2971.88,1209.05l-43.58-25.16c-7-4.04-11.83-14.77-10.78-23.97h0c1.05-9.19,7.58-13.37,14.58-9.33l43.58,25.16c7,4.04,11.83,14.77,10.78,23.97h0c-1.05,9.19-7.58,13.37-14.58,9.33Z"/>
                <path class="cls-7" d="m3092.39,1278.63l-83.4-48.15c-7-4.04-11.83-14.77-10.78-23.97h0c1.05-9.19,7.58-13.37,14.58-9.33l83.4,48.15c7,4.04,11.83,14.77,10.78,23.97h0c-1.05,9.19-7.58,13.37-14.58,9.33Z"/>
                <path class="cls-7" d="m3540.77,1537.5l-58.84-33.97c-7-4.04-11.83-14.77-10.78-23.97h0c1.05-9.19,7.58-13.37,14.58-9.33l58.84,33.97c7,4.04,11.83,14.78,10.78,23.97h0c-1.05,9.19-7.58,13.37-14.58,9.33Z"/>
                <path class="cls-4" d="m3265.71,1378.69l-135.67-78.33c-7-4.04-11.83-14.78-10.78-23.97h0c1.05-9.19,7.58-13.37,14.58-9.33l135.67,78.33c7,4.04,11.83,14.77,10.78,23.97h0c-1.05,9.19-7.58,13.37-14.58,9.33Z"/>
                <path class="cls-2" d="m2964.55,1273.27l-43.58-25.16c-7-4.04-11.83-14.77-10.78-23.97h0c1.05-9.19,7.57-13.37,14.58-9.33l43.58,25.16c7,4.04,11.83,14.78,10.78,23.97h0c-1.05,9.19-7.58,13.37-14.58,9.33Z"/>
                <path class="cls-2" d="m2937.84,1507.53l-43.58-25.16c-7-4.04-11.83-14.77-10.78-23.97h0c1.05-9.19,7.58-13.37,14.58-9.33l43.58,25.16c7,4.04,11.83,14.77,10.78,23.97h0c-1.05,9.19-7.58,13.37-14.58,9.33Z"/>
                <path class="cls-7" d="m3085.07,1342.84l-83.4-48.15c-7-4.05-11.83-14.78-10.78-23.97h0c1.05-9.19,7.58-13.37,14.58-9.33l83.4,48.15c7,4.04,11.83,14.77,10.78,23.97h0c-1.05,9.19-7.58,13.37-14.58,9.33Z"/>
                <path class="cls-7" d="m3064.76,1520.95l-55.33-31.94c-7-4.05-11.83-14.78-10.78-23.97h0c1.05-9.19,7.58-13.37,14.58-9.33l55.33,31.94c7,4.04,11.83,14.77,10.78,23.97h0c-1.05,9.19-7.58,13.37-14.58,9.33Z"/>
                <path class="cls-7" d="m3301.58,1657.68l-55.33-31.94c-7-4.04-11.83-14.78-10.78-23.97h0c1.05-9.19,7.58-13.37,14.58-9.33l55.33,31.94c7,4.04,11.83,14.78,10.78,23.97h0c-1.05,9.19-7.58,13.37-14.58,9.33Z"/>
                <path class="cls-1" d="m3693.16,1763.64l-734.74-424.2c-7-4.04-11.83-14.77-10.78-23.97h0c1.05-9.19,7.58-13.37,14.58-9.33l734.74,424.2c7,4.04,11.83,14.77,10.78,23.97h0c-1.05,9.19-7.58,13.37-14.58,9.33Z"/>
                <path class="cls-4" d="m3227.51,1425.08l-104.8-60.51c-7-4.04-11.83-14.78-10.78-23.97h0c1.05-9.19,7.58-13.37,14.58-9.33l104.8,60.51c7,4.05,11.83,14.78,10.78,23.97h0c-1.05,9.19-7.58,13.37-14.58,9.33Z"/>
                <path class="cls-4" d="m3207.21,1603.19l-104.8-60.51c-7-4.04-11.83-14.78-10.78-23.97h0c1.05-9.19,7.58-13.37,14.58-9.33l104.8,60.51c7,4.04,11.83,14.78,10.78,23.97h0c-1.05,9.19-7.57,13.37-14.58,9.33Z"/>
                <path class="cls-1" d="m3489.28,1766.05l-147.95-85.42c-7-4.04-11.83-14.77-10.78-23.97h0c1.05-9.19,7.58-13.37,14.58-9.33l147.95,85.42c7,4.04,11.83,14.77,10.78,23.97h0c-1.05,9.19-7.58,13.37-14.58,9.33Z"/>
                <path class="cls-1" d="m3445.69,1482.61l-135.67-78.33c-7-4.05-11.83-14.78-10.78-23.97h0c1.05-9.19,7.58-13.37,14.58-9.33l135.67,78.33c7,4.04,11.83,14.77,10.78,23.97h0c-1.05,9.19-7.58,13.37-14.58,9.33Z"/>
                <path class="cls-7" d="m3181.13,1211.99l-132.17-76.31c-7-4.04-11.83-14.78-10.78-23.97h0c1.05-9.19,7.58-13.37,14.58-9.33l132.16,76.31c7,4.04,11.83,14.77,10.78,23.97h0c-1.05,9.19-7.58,13.37-14.58,9.33Z"/>
                <path class="cls-7" d="m3465.31,1376.07l-132.16-76.31c-7-4.04-11.83-14.77-10.78-23.97h0c1.05-9.19,7.58-13.37,14.58-9.33l132.16,76.31c7,4.04,11.83,14.78,10.78,23.97h0c-1.05,9.19-7.58,13.37-14.58,9.33Z"/>
                <path class="cls-4" d="m3288.49,1273.98l-66.91-38.63c-7-4.05-11.83-14.78-10.78-23.97h0c1.05-9.19,7.58-13.37,14.58-9.33l66.91,38.63c7,4.04,11.83,14.78,10.78,23.97h0c-1.05,9.19-7.58,13.37-14.58,9.33Z"/>
                <path class="cls-4" d="m3725.81,1526.47l-215.84-124.62c-7-4.04-11.83-14.77-10.78-23.97h0c1.05-9.19,7.58-13.37,14.58-9.33l215.84,124.62c7,4.04,11.83,14.78,10.78,23.97h0c-1.05,9.19-7.58,13.37-14.58,9.33Z"/>
                <path class="cls-2" d="m2944.1,1682.25l-43.58-25.16c-7-4.04-11.83-14.77-10.78-23.97h0c1.05-9.19,7.58-13.37,14.58-9.33l43.58,25.16c7,4.04,11.83,14.77,10.78,23.97h0c-1.05,9.19-7.58,13.37-14.58,9.33Z"/>
                <path class="cls-7" d="m3116.19,1781.6l-132.16-76.31c-7-4.04-11.83-14.77-10.78-23.97h0c1.05-9.19,7.58-13.37,14.58-9.33l132.16,76.31c7,4.04,11.83,14.77,10.78,23.97h0c-1.05,9.19-7.58,13.37-14.58,9.33Z"/>
                <path class="cls-7" d="m3400.37,1945.67l-132.17-76.3c-7-4.04-11.83-14.78-10.78-23.97h0c1.05-9.19,7.58-13.37,14.58-9.33l132.17,76.3c7,4.04,11.83,14.78,10.78,23.97h0c-1.05,9.19-7.58,13.37-14.58,9.33Z"/>
                <path class="cls-4" d="m3223.55,1843.58l-66.91-38.63c-7-4.04-11.83-14.78-10.78-23.97h0c1.05-9.19,7.58-13.37,14.58-9.33l66.91,38.63c7,4.04,11.83,14.77,10.78,23.97h0c-1.05,9.19-7.58,13.37-14.58,9.33Z"/>
                <path class="cls-4" d="m3660.87,2096.07l-215.84-124.62c-7-4.04-11.83-14.77-10.78-23.97h0c1.05-9.19,7.58-13.37,14.58-9.33l215.84,124.62c7,4.04,11.83,14.78,10.78,23.97h0c-1.05,9.19-7.58,13.37-14.58,9.33Z"/>
              </g>
              <g>
                <g class="cls-19">
                  <path class="cls-9" d="m3280.55,1219.97L1948.39,450.85c-5.57-3.22-10.61-3.52-14.25-1.41l-43.6,25.33c3.63-2.11,8.67-1.81,14.25,1.41l1332.16,769.13c10.98,6.34,19.88,21.75,19.84,34.36l-2.82,992.91c-.02,6.27-2.24,10.68-5.81,12.76l43.6-25.34c3.57-2.08,5.79-6.49,5.81-12.76l2.82-992.91c.03-12.61-8.86-28.02-19.84-34.36Z"/>
                  <path class="cls-14" d="m3256.94,1279.51l-.25,102.19-2.6,890.72c0,12.62-8.91,17.69-19.92,11.38l-1332.12-769.11c-11.13-6.43-20.04-21.77-19.92-34.39l2.47-890.72.25-102.19c.13-12.62,9.03-17.69,20.04-11.38l1332.24,769.11c10.89,6.43,19.8,21.77,19.8,34.39Z"/>
                  <path class="cls-16" d="m3232.65,1283.2l-.27,98.3-2.45,859.41c0,11.98-8.71,16.88-19.33,10.89l-1026.6-592.54-258.42-149.22c-10.62-6.26-19.06-21.24-19.06-33.22l2.45-859.14.27-98.58c0-12.25,8.71-17.15,19.33-11.16l255.43,147.59,1029.6,594.45c10.35,5.99,19.06,20.97,19.06,33.22Z"/>
                  <path class="cls-6" d="m2183.99,655.53v1003.73l-258.42-149.22c-10.62-6.26-19.06-21.24-19.06-33.22l2.45-859.14.27-98.58c0-12.25,8.71-17.15,19.33-11.16l255.43,147.59Z"/>
                  <path class="cls-14" d="m3256.94,1279.51l-.25,102.19-1372.08-792.12.25-102.19c.13-12.62,9.03-17.69,20.04-11.38l1332.24,769.11c10.89,6.43,19.8,21.77,19.8,34.39Z"/>
                </g>
                <g>
                  <path class="cls-6" d="m2092.93,650.94c0,17.9,12.64,39.7,28.23,48.7,15.6,9,28.24,1.8,28.24-16.1s-12.64-39.7-28.24-48.7c-15.59-9-28.23-1.8-28.23,16.1Z"/>
                  <path class="cls-6" d="m2014.04,605.39c0,17.9,12.64,39.7,28.24,48.7,15.6,9,28.24,1.8,28.24-16.1s-12.64-39.7-28.24-48.7c-15.59-9-28.24-1.8-28.24,16.1Z"/>
                  <path class="cls-6" d="m1935.14,559.84c0,17.9,12.64,39.7,28.24,48.7,15.6,9,28.24,1.8,28.24-16.1s-12.64-39.7-28.24-48.7c-15.59-9-28.24-1.8-28.24,16.1Z"/>
                </g>
                <g>
                  <path class="cls-12" d="m3164.21,2050.8l-398.49-230.07c-7.21-4.16-13.05-15.32-13.05-24.94v-110.13c0-9.61,5.84-14.03,13.05-9.87l398.49,230.07c7.21,4.16,13.05,15.32,13.05,24.93v110.13c0,9.61-5.84,14.03-13.05,9.87Z"/>
                  <path class="cls-5" d="m2294.65,1000.37c0,13.07-9.23,18.33-20.62,11.75-11.39-6.57-20.62-22.5-20.62-35.56s9.23-18.33,20.62-11.75c11.39,6.57,20.62,22.49,20.62,35.56Z"/>
                  <path class="cls-5" d="m2669.36,1233.98l-328.18-189.47c-6.62-3.82-11.99-14.08-11.99-22.91h0c0-8.83,5.37-12.89,11.99-9.06l328.18,189.47c6.62,3.82,11.99,14.08,11.99,22.91h0c0,8.83-5.37,12.89-11.99,9.06Z"/>
                  <path class="cls-5" d="m2668.8,1628.8l-403.4-232.9c-6.62-3.82-11.99-14.08-11.99-22.91h0c0-8.83,5.37-12.89,11.99-9.06l403.4,232.9c6.62,3.82,11.99,14.08,11.99,22.91h0c0,8.83-5.37,12.89-11.99,9.06Z"/>
                  <path class="cls-5" d="m2668.8,1695.3l-403.4-232.9c-6.62-3.82-11.99-14.08-11.99-22.91h0c0-8.83,5.37-12.89,11.99-9.06l403.4,232.9c6.62,3.82,11.99,14.08,11.99,22.91h0c0,8.83-5.37,12.89-11.99,9.06Z"/>
                  <path class="cls-5" d="m2668.8,1764.78l-403.4-232.9c-6.62-3.82-11.99-14.08-11.99-22.91h0c0-8.83,5.37-12.89,11.99-9.06l403.4,232.9c6.62,3.82,11.99,14.08,11.99,22.91h0c0,8.83-5.37,12.89-11.99,9.06Z"/>
                  <path class="cls-5" d="m3169.17,1865.26l-403.4-232.9c-6.62-3.82-11.99-14.08-11.99-22.91h0c0-8.83,5.37-12.89,11.99-9.06l403.4,232.9c6.62,3.82,11.99,14.08,11.99,22.91h0c0,8.83-5.37,12.89-11.99,9.06Z"/>
                  <path class="cls-5" d="m3169.17,1797.91l-403.4-232.9c-6.62-3.82-11.99-14.08-11.99-22.91h0c0-8.83,5.37-12.89,11.99-9.06l403.4,232.9c6.62,3.82,11.99,14.08,11.99,22.91h0c0,8.83-5.37,12.89-11.99,9.06Z"/>
                  <path class="cls-5" d="m3169.17,1521.69l-403.4-232.9c-6.62-3.82-11.99-14.08-11.99-22.91h0c0-8.83,5.37-12.89,11.99-9.06l403.4,232.9c6.62,3.82,11.99,14.08,11.99,22.91h0c0,8.83-5.37,12.89-11.99,9.06Z"/>
                  <path class="cls-12" d="m2478.46,1443.45l-211.61-122.17c-7.42-4.29-13.44-15.78-13.44-25.68v-237.82c0-9.9,6.02-14.45,13.44-10.16l211.61,122.17c7.42,4.28,13.44,15.78,13.44,25.68v237.82c0,9.9-6.02,14.45-13.44,10.16Z"/>
                  <path class="cls-5" d="m2134.44,1049.22l-187.66-108.34c-6.58-3.8-11.92-14-11.92-22.77v-210.9c0-8.77,5.34-12.81,11.92-9.01l187.66,108.34c6.58,3.8,11.92,14,11.92,22.77v210.9c0,8.78-5.34,12.81-11.92,9.01Z"/>
                  <path class="cls-5" d="m2134.44,1114.4l-187.66-108.34c-6.58-3.8-11.92-14-11.92-22.77v.77c0-8.78,5.34-12.81,11.92-9.01l187.66,108.34c6.58,3.8,11.92,14,11.92,22.77v-.77c0,8.78-5.34,12.81-11.92,9.01Z"/>
                  <path class="cls-5" d="m2134.44,1466.1l-187.66-108.34c-6.58-3.8-11.92-14-11.92-22.77v.77c0-8.78,5.34-12.81,11.92-9.01l187.66,108.34c6.58,3.8,11.92,14,11.92,22.77v-.77c0,8.78-5.34,12.81-11.92,9.01Z"/>
                  <path class="cls-5" d="m2134.44,1531.9l-187.66-108.34c-6.58-3.8-11.92-14-11.92-22.77v.77c0-8.78,5.34-12.81,11.92-9.01l187.66,108.34c6.58,3.8,11.92,14,11.92,22.77v-.77c0,8.78-5.34,12.81-11.92,9.01Z"/>
                  <path class="cls-5" d="m2134.44,1597.71l-187.66-108.34c-6.58-3.8-11.92-14-11.92-22.77v.77c0-8.78,5.34-12.81,11.92-9.01l187.66,108.34c6.58,3.8,11.92,14,11.92,22.77v-.77c0,8.78-5.34,12.81-11.92,9.01Z"/>
                  <path class="cls-12" d="m3164.21,1710.64l-398.49-230.07c-7.21-4.16-13.05-15.33-13.05-24.94v-110.13c0-9.61,5.84-14.03,13.05-9.87l398.49,230.07c7.21,4.16,13.05,15.33,13.05,24.93v110.13c0,9.61-5.84,14.03-13.05,9.87Z"/>
                </g>
              </g>
            </g>
            <g>
              <g class="cls-19">
                <path class="cls-10" d="m4377.2,1921.12l-53.23,30.94c.18-.11.35-.24.51-.39l53.23-30.94c-.16.16-.33.29-.51.39Z"/>
                <path class="cls-10" d="m4253.53,1802.6l53.23-30.94c.57-.33,1.27-.44,2.09-.27l-53.24,30.94c-.82-.16-1.52-.05-2.08.27Z"/>
                <polygon class="cls-10" points="4335.82 1940.3 4389.06 1909.36 4377.71 1920.73 4324.47 1951.66 4335.82 1940.3"/>
                <polygon class="cls-10" points="4255.61 1802.32 4308.85 1771.39 4327.16 1775.14 4273.93 1806.08 4255.61 1802.32"/>
                <path class="cls-10" d="m4454.09,1982.42l-53.24,30.94c.92-.54,1.49-1.68,1.5-3.33l53.24-30.94c0,1.65-.57,2.79-1.5,3.33Z"/>
                <polygon class="cls-10" points="4402.42 1987.98 4455.65 1957.04 4455.59 1979.09 4402.35 2010.03 4402.42 1987.98"/>
                <path class="cls-10" d="m4263.57,1718.93l53.23-30.94c.96-.56,2.28-.44,3.66.36.54.31,1.08.72,1.62,1.24l-53.23,30.94c-.54-.51-1.08-.93-1.62-1.24-1.38-.8-2.7-.92-3.66-.36Z"/>
                <polygon class="cls-10" points="4268.86 1720.52 4322.09 1689.59 4340.33 1706.94 4287.09 1737.87 4268.86 1720.52"/>
                <path class="cls-10" d="m4327.86,1760.73l53.24-30.94c-13.64,7.93-22.1,24.78-22.17,48.74-.14,48.29,33.82,107.1,75.85,131.37l-53.24,30.94c-42.02-24.26-75.98-83.08-75.84-131.37.07-23.96,8.53-40.81,22.17-48.74Z"/>
                <path class="cls-10" d="m4488.88,1915.19l-53.23,30.94c-13.83,8.04-32.98,6.91-54.11-5.29l53.24-30.94c21.13,12.2,40.27,13.33,54.1,5.29Z"/>
                <path class="cls-10" d="m4525.08,1985.1l-53.24,30.94c1.76-1.02,2.07-4.09.55-7.4l53.24-30.94c1.52,3.32,1.21,6.38-.55,7.4Z"/>
                <polygon class="cls-10" points="4461.12 1984.25 4514.35 1953.31 4525.63 1977.7 4472.4 2008.64 4461.12 1984.25"/>
                <path class="cls-10" d="m4476.48,1969.01l53.24-30.94c-4.3,6.24-9.45,11.31-15.36,15.24l-53.24,30.94c5.91-3.92,11.07-8.99,15.36-15.24Z"/>
                <polygon class="cls-10" points="4325.22 1689.47 4378.45 1658.54 4389.7 1682.91 4336.46 1713.85 4325.22 1689.47"/>
                <path class="cls-6" d="m4374.31,1653.68c-1.06-.61-2.13-.85-3.05-.61l-25.69,6.58c-.23.06-.45.15-.64.26l-53.24,30.94c.2-.11.41-.2.64-.26l25.69-6.58c.93-.24,2,0,3.05.61,1.58.91,3.14,2.66,4.14,4.86l53.23-30.94c-1.01-2.2-2.56-3.94-4.14-4.86Z"/>
                <path class="cls-10" d="m4553.2,1956.98l-53.24,30.94c.55-.32.98-.86,1.24-1.62l53.24-30.94c-.26.76-.69,1.3-1.24,1.62Z"/>
                <path class="cls-10" d="m4336.46,1713.85l53.24-30.94c7.76.36,16,1.98,24.65,5.04l-53.23,30.94c-8.65-3.05-16.89-4.68-24.66-5.04Z"/>
                <polygon class="cls-10" points="4511.12 1957.33 4564.35 1926.4 4554.44 1955.36 4501.2 1986.3 4511.12 1957.33"/>
                <path class="cls-6" d="m4561.03,1916.98l-18.27-17.37-53.24,30.94,18.27,17.37c2.72,2.6,4.19,6.78,3.32,9.41l53.23-30.94c.87-2.63-.6-6.81-3.32-9.41Z"/>
                <path class="cls-10" d="m4489.61,1900.79l53.24-30.94c.5,5.17.76,10.31.75,15.3-.01,5.07-.3,9.89-.83,14.47l-53.24,30.94c.53-4.57.82-9.4.83-14.47.01-4.99-.25-10.13-.75-15.3Z"/>
                <path class="cls-10" d="m4403.11,1743.13l53.24-30.94c8.64,6.93,16.87,14.81,24.64,23.42l-53.24,30.94c-7.77-8.61-16-16.49-24.64-23.42Z"/>
                <polygon class="cls-10" points="4403.17 1721.04 4456.41 1690.1 4456.35 1712.19 4403.11 1743.13 4403.17 1721.04"/>
                <path class="cls-6" d="m4451.26,1681.18l-31.66-18.28c-1.44-.83-2.74-.91-3.68-.36l-53.24,30.94c.94-.55,2.24-.47,3.68.36l31.66,18.28c2.86,1.65,5.16,5.64,5.15,8.92l53.23-30.94c.01-3.28-2.29-7.27-5.15-8.92Z"/>
                <path class="cls-10" d="m4461.6,1814.52l53.24-30.94c5.87,10.68,10.98,21.72,15.23,32.9l-53.24,30.94c-4.25-11.17-9.36-22.21-15.23-32.9Z"/>
                <path class="cls-10" d="m4563.24,1873.33l-53.23,30.94c1.32-.77,1.87-2.74,1.28-5.28l53.24-30.94c.6,2.54.04,4.51-1.28,5.28Z"/>
                <polygon class="cls-10" points="4501.57 1858.69 4554.8 1827.75 4564.52 1868.05 4511.28 1898.99 4501.57 1858.69"/>
                <path class="cls-6" d="m4549.94,1820.84c-.53-.31-1.07-.53-1.61-.63l-18.28-3.73-53.24,30.94,18.28,3.73c.53.1,1.07.32,1.61.63,2.16,1.25,4.18,4,4.86,6.91l53.23-30.94c-.68-2.91-2.7-5.67-4.86-6.91Z"/>
                <polygon class="cls-10" points="4472.98 1803.21 4526.22 1772.27 4514.83 1783.58 4461.6 1814.52 4472.98 1803.21"/>
                <path class="cls-8" d="m4507.8,1947.92c2.72,2.6,4.19,6.78,3.32,9.41l-9.92,28.97c-.7,2.08-2.73,2.52-4.9,1.27-.53-.3-1.06-.71-1.59-1.21l-18.24-17.35c-4.3,6.24-9.45,11.31-15.36,15.24l11.28,24.39c1.68,3.67,1.12,7.03-1.16,7.66l-25.72,6.56c-.91.25-1.96,0-3.02-.6-1.59-.92-3.17-2.68-4.18-4.86l-11.21-24.39c-7.8-.34-16.04-1.97-24.69-5.02l-.06,22.05c0,3.33-2.32,4.6-5.18,2.95l-31.66-18.28c-2.86-1.65-5.16-5.59-5.15-8.92l.06-22.05c-8.64-6.93-16.86-14.81-24.6-23.44l-11.35,11.37c-1.02,1.01-2.59.96-4.18.04-1.05-.61-2.11-1.59-3.02-2.89l-25.57-36.17c-2.3-3.27-2.84-7.27-1.15-8.99l11.38-11.31c-5.87-10.72-10.98-21.72-15.19-32.88l-18.28-3.73c-.53-.11-1.07-.32-1.6-.63-2.18-1.26-4.21-4.05-4.89-6.93l-9.72-40.3c-.85-3.63.64-6.1,3.36-5.55l18.31,3.75c-.47-5.15-.76-10.31-.75-15.38.02-4.99.34-9.8.83-14.39l-18.27-17.37c-2.72-2.6-4.19-6.78-3.32-9.41l9.92-28.97c.7-2.11,2.72-2.53,4.9-1.28.54.31,1.08.72,1.62,1.24l18.24,17.35c4.26-6.26,9.42-11.37,15.33-15.26l-11.28-24.39c-1.68-3.67-1.12-7.03,1.2-7.64l25.69-6.58c.93-.24,2,0,3.05.61,1.58.91,3.14,2.66,4.14,4.86l11.25,24.37c7.76.36,16,1.98,24.66,5.04l.06-22.09c0-3.28,2.32-4.6,5.18-2.95l31.66,18.28c2.86,1.65,5.16,5.64,5.15,8.92l-.06,22.09c8.64,6.93,16.87,14.81,24.64,23.42l11.31-11.35c1.02-1.03,2.59-.97,4.17-.05,1.06.61,2.12,1.6,3.03,2.9l25.6,36.19c2.27,3.25,2.81,7.25,1.11,8.97l-11.38,11.31c5.87,10.68,10.98,21.72,15.23,32.9l18.28,3.73c.53.1,1.07.32,1.6.63,2.16,1.25,4.18,4,4.86,6.91l9.72,40.3c.85,3.62-.64,6.09-3.36,5.55l-18.31-3.75c.5,5.17.77,10.31.75,15.3-.01,5.07-.3,9.89-.83,14.47l18.27,17.37Zm-126.26-7.08c41.99,24.24,76.17,4.77,76.31-43.52.14-48.25-33.82-107.03-75.81-131.27-42.02-24.26-76.2-4.83-76.34,43.43-.14,48.29,33.82,107.1,75.84,131.37h0Z"/>
                <path class="cls-6" d="m4525.1,1763.31l-25.6-36.19c-.91-1.3-1.97-2.29-3.03-2.9-1.33-.77-2.65-.93-3.65-.36l-53.23,30.94c.99-.58,2.31-.41,3.64.36,1.06.61,2.12,1.6,3.03,2.9l25.6,36.19c2.27,3.25,2.81,7.25,1.11,8.97l53.23-30.94c1.7-1.72,1.16-5.72-1.11-8.97Z"/>
              </g>
              <g class="cls-19">
                <path class="cls-10" d="m4548.05,1974.7l53.24-30.94c.14-.08.29-.14.46-.19l-53.24,30.94c-.17.04-.32.11-.46.19Z"/>
                <path class="cls-10" d="m4668.83,2040.94l-53.24,30.94c.39-.23.7-.61.88-1.16l53.24-30.94c-.18.54-.49.93-.88,1.16Z"/>
                <polygon class="cls-10" points="4548.51 1974.51 4601.74 1943.57 4612.9 1940.69 4559.66 1971.63 4548.51 1974.51"/>
                <polygon class="cls-10" points="4620.76 2058.13 4674 2027.19 4669.72 2039.79 4616.48 2070.72 4620.76 2058.13"/>
                <path class="cls-10" d="m4537.69,1905.33l53.24-30.94c.68-.39,1.62-.33,2.67.28l-53.24,30.94c-1.05-.61-1.99-.67-2.67-.28Z"/>
                <polygon class="cls-10" points="4540.35 1905.61 4593.59 1874.67 4607.33 1882.61 4554.1 1913.55 4540.35 1905.61"/>
                <path class="cls-10" d="m4724.47,2065l-53.24,30.94c.94-.55,1.34-1.96.91-3.78l53.24-30.94c.43,1.83.03,3.24-.91,3.78Z"/>
                <polygon class="cls-10" points="4667.95 2074.71 4721.18 2043.77 4725.38 2061.22 4672.14 2092.16 4667.95 2074.71"/>
                <path class="cls-10" d="m4722.08,2010.26l-53.24,30.94c-9.9,5.75-23.6,4.94-38.71-3.78l53.23-30.94c15.11,8.72,28.81,9.53,38.71,3.78Z"/>
                <path class="cls-10" d="m4591.74,1908.47l53.24-30.94c-9.78,5.68-15.84,17.76-15.89,34.93-.1,34.55,24.21,76.66,54.28,94.02l-53.23,30.94c-30.07-17.36-54.38-59.47-54.28-94.02.05-17.17,6.11-29.25,15.89-34.93Z"/>
                <path class="cls-6" d="m4561.72,1860.8l53.24-30.94c.72-.42,1.67-.3,2.64.26.75.43,1.51,1.13,2.16,2.06l-53.23,30.94c-.65-.93-1.41-1.63-2.16-2.06-.97-.56-1.93-.67-2.64-.26Z"/>
                <path class="cls-10" d="m4752.11,2057.92l-53.24,30.94c.13-.08.25-.17.37-.28l53.24-30.94c-.11.11-.24.21-.37.28Z"/>
                <polygon class="cls-10" points="4566.52 1863.12 4619.76 1832.18 4630.86 1847.9 4577.62 1878.84 4566.52 1863.12"/>
                <path class="cls-10" d="m4577.62,1878.84l53.24-30.94c4.56-2.2,9.6-3.54,15.02-3.9l-53.24,30.94c-5.42.36-10.46,1.69-15.02,3.89Z"/>
                <polygon class="cls-10" points="4712.63 2075.17 4765.87 2044.23 4752.47 2057.63 4699.24 2088.57 4712.63 2075.17"/>
                <path class="cls-6" d="m4765.05,2037.86l-11.1-15.73-53.24,30.94,11.1,15.73c1.65,2.34,2.02,5.21.81,6.37l53.24-30.94c1.21-1.16.84-4.04-.81-6.37Z"/>
                <path class="cls-10" d="m4706.5,2036.11l53.24-30.94c-1.23,6.43-3.17,12.08-5.78,16.96l-53.24,30.94c2.6-4.88,4.55-10.54,5.78-16.96Z"/>
                <polygon class="cls-10" points="4617.07 1863.32 4670.31 1832.38 4674.5 1849.87 4621.26 1880.8 4617.07 1863.32"/>
                <path class="cls-6" d="m4666.83,1827.41c-.39-.22-.78-.38-1.16-.45l-21.59-4.41c-.57-.11-1.07-.03-1.47.2l-53.24,30.94c.4-.23.9-.31,1.47-.2l21.59,4.41c.39.07.78.23,1.16.45,1.55.89,2.99,2.87,3.48,4.96l53.24-30.94c-.49-2.09-1.93-4.07-3.48-4.97Z"/>
                <path class="cls-10" d="m4776.14,2013.37l-53.24,30.94c.66-.39,1.07-1.2,1.07-2.36l53.24-30.94c0,1.15-.41,1.97-1.07,2.35Z"/>
                <path class="cls-10" d="m4621.26,1880.8l53.24-30.94c3.07,1.37,6.13,2.87,9.3,4.7,3.13,1.81,6.2,3.86,9.26,6.02l-53.24,30.94c-3.06-2.17-6.13-4.21-9.26-6.02-3.17-1.83-6.24-3.32-9.3-4.7Z"/>
                <path class="cls-10" d="m4700.93,1978.02l53.24-30.94c2.57,7.87,4.48,15.75,5.66,23.57l-53.23,30.94c-1.19-7.82-3.1-15.7-5.66-23.57Z"/>
                <polygon class="cls-10" points="4724.04 2015.91 4777.28 1984.97 4777.21 2011.02 4723.97 2041.95 4724.04 2015.91"/>
                <path class="cls-6" d="m4773.57,1978.59l-13.74-7.93-53.24,30.94,13.74,7.94c2.07,1.19,3.71,4.01,3.71,6.38l53.24-30.94c0-2.38-1.64-5.19-3.71-6.38Z"/>
                <path class="cls-10" d="m4668.39,1918.68l53.24-30.94c5.4,6.61,10.41,13.74,14.95,21.2l-53.24,30.94c-4.53-7.45-9.55-14.59-14.95-21.2Z"/>
                <polygon class="cls-10" points="4672.67 1906.12 4725.91 1875.18 4721.63 1887.74 4668.39 1918.68 4672.67 1906.12"/>
                <path class="cls-6" d="m4723.54,1868.43l-21.54-20.48c-.38-.37-.78-.67-1.16-.89-.98-.56-1.91-.65-2.6-.25l-53.23,30.94c.68-.4,1.62-.31,2.6.25.39.22.78.52,1.16.89l21.54,20.48c1.93,1.87,2.99,4.86,2.36,6.76l53.23-30.94c.63-1.9-.43-4.89-2.36-6.76Z"/>
                <polygon class="cls-10" points="4683.34 1939.88 4736.58 1908.94 4747.73 1906.06 4694.49 1937 4683.34 1939.88"/>
                <path class="cls-8" d="m4720.34,2009.53c2.07,1.19,3.71,4.01,3.71,6.38l-.07,26.04c0,2.33-1.67,3.28-3.73,2.09l-13.74-7.94c-1.23,6.43-3.17,12.08-5.78,16.96l11.1,15.73c1.65,2.34,2.02,5.21.81,6.37l-13.39,13.4c-.73.73-1.86.69-3.01.03-.75-.43-1.51-1.13-2.16-2.06l-11.1-15.73c-4.56,2.2-9.6,3.54-15.02,3.9l4.19,17.45c.61,2.61-.46,4.37-2.39,3.97l-21.59-4.38c-.37-.08-.75-.23-1.12-.45-1.56-.9-3.02-2.89-3.52-4.97l-4.19-17.49c-3.07-1.37-6.13-2.91-9.27-4.72-3.17-1.83-6.23-3.84-9.3-6l-4.28,12.6c-.51,1.5-1.98,1.8-3.54.9-.37-.22-.75-.5-1.12-.85l-21.54-20.52c-1.93-1.83-2.99-4.82-2.36-6.72l4.28-12.56c-5.4-6.61-10.42-13.74-14.95-21.2l-11.15,2.88c-.65.17-1.41,0-2.16-.44-1.15-.66-2.28-1.93-3-3.5l-13.27-28.79c-1.2-2.56-.81-4.99.84-5.42l11.15-2.88c-2.56-7.87-4.48-15.75-5.66-23.57l-13.74-7.93c-2.07-1.19-3.71-4.05-3.71-6.38l.08-26.05c0-2.37,1.66-3.28,3.73-2.09l13.74,7.93c1.23-6.43,3.17-12.08,5.78-16.96l-11.1-15.73c-1.65-2.34-2.02-5.21-.81-6.41l13.39-13.36c.73-.73,1.86-.69,3.01-.03.75.43,1.51,1.13,2.16,2.06l11.1,15.72c4.56-2.2,9.6-3.53,15.02-3.89l-4.19-17.45c-.61-2.61.46-4.37,2.39-4.01l21.59,4.41c.39.07.78.23,1.16.45,1.55.89,2.99,2.87,3.48,4.97l4.19,17.49c3.07,1.37,6.13,2.87,9.3,4.7,3.13,1.81,6.2,3.86,9.26,6.02l4.28-12.6c.5-1.52,1.95-1.83,3.5-.94.39.22.78.52,1.16.89l21.54,20.48c1.93,1.87,2.99,4.86,2.36,6.76l-4.28,12.56c5.4,6.61,10.42,13.75,14.95,21.2l11.15-2.88c.66-.17,1.41,0,2.16.44,1.15.66,2.28,1.93,3,3.5l13.27,28.75c1.2,2.6.81,5.03-.84,5.46l-11.15,2.88c2.57,7.87,4.48,15.75,5.66,23.57l13.74,7.94Zm-90.2,27.89c30.04,17.34,54.51,3.4,54.6-31.15.1-34.56-24.21-76.66-54.25-94-30.07-17.36-54.54-3.42-54.64,31.14-.1,34.56,24.21,76.66,54.28,94.02h0Z"/>
                <path class="cls-6" d="m4766.16,1938.75l-13.27-28.75c-.73-1.57-1.85-2.83-3-3.5-.75-.43-1.51-.61-2.16-.44l-53.24,30.94c.66-.17,1.41,0,2.16.44,1.15.66,2.28,1.93,3,3.5l13.27,28.75c1.08,2.34.88,4.54-.38,5.27l53.24-30.94c1.26-.73,1.46-2.94.38-5.27Z"/>
              </g>
            </g>
            <g>
              <path class="cls-10" d="m3594.36,3579.07l258.9-149.47c4.9-2.83,7.37-6.58,7.36-10.33l-.14-26.13c.01,3.75-2.46,7.5-7.36,10.33l-258.9,149.47c-9.83,5.68-25.61,5.68-35.37,0l-257.22-149.48c-4.77-2.77-7.17-6.42-7.18-10.07l.14,26.13c.01,3.66,2.41,7.3,7.18,10.07l257.22,149.48c9.77,5.68,25.55,5.68,35.37,0Z"/>
              <path class="cls-8" d="m3594.22,3552.94c-9.83,5.68-25.61,5.68-35.37,0l-257.22-149.48c-9.64-5.6-9.59-14.74.24-20.42l258.9-149.47c9.7-5.6,25.61-5.68,35.25-.07l257.22,149.48c9.77,5.68,9.59,14.89-.12,20.49l-258.9,149.47Z"/>
              <g>
                <path d="m3488.27,3342.97l17.07,37.29-15.74,9.09-29.11-62.41,107.94,16.9-15.74,9.09-64.43-9.95Z"/>
                <path d="m3498.99,3419.59l-13.19-7.61c48-12.66,83.95-22.18,107.85-28.57l53.93-14.29,13.2,7.62-161.79,42.85Z"/>
                <path d="m3659.34,3441.74l-17.22-37.38,15.58-8.99,29.42,62.41-108.25-16.9,15.89-9.18,64.58,10.03Z"/>
              </g>
            </g>
            <g>
              <path class="cls-14" d="m4710.02,3579.07l258.9-149.48c4.9-2.83,7.37-6.58,7.36-10.33l-.14-26.13c.01,3.75-2.46,7.5-7.36,10.33l-258.9,149.47c-9.83,5.67-25.61,5.67-35.38,0l-257.22-149.48c-4.77-2.77-7.17-6.42-7.18-10.07l.14,26.13c.01,3.66,2.41,7.3,7.18,10.07l257.22,149.48c9.77,5.68,25.55,5.68,35.38,0Z"/>
              <path class="cls-17" d="m4709.88,3552.94c-9.83,5.68-25.61,5.68-35.38,0l-257.22-149.48c-9.64-5.6-9.59-14.74.24-20.42l258.9-149.47c9.7-5.6,25.61-5.68,35.25-.08l257.22,149.48c9.77,5.68,9.59,14.89-.12,20.49l-258.9,149.47Z"/>
              <path class="cls-5" d="m4714.3,3352.94c22.32-5.52,42.91-8.41,61.78-8.68l6.36,12.95c-17.95.8-36.54,3.72-55.78,8.75-19.24,5.03-37.42,12.49-54.54,22.37-17.11,9.88-30.07,20.39-38.85,31.54-8.78,11.14-13.81,21.86-15.06,32.15l-22.62-3.56c.59-10.96,5.67-22.9,15.23-35.78,9.56-12.88,23.62-24.68,42.17-35.39,18.55-10.71,38.98-18.83,61.3-24.35Z"/>
            </g>
            <g>
              <g>
                <polygon class="cls-1" points="1572.12 2180.32 1265.01 2003.01 1570.2 1826.8 1877.31 2004.11 1572.12 2180.32"/>
                <polygon class="cls-3" points="1572.01 2160.97 1298.51 2003.07 1570.31 1846.15 1843.8 2004.05 1572.01 2160.97"/>
                <polygon class="cls-11" points="1572.12 2336.13 1572.12 2180.32 1877.31 2004.11 1877.31 2159.93 1572.12 2336.13"/>
                <polygon class="cls-3" points="1265.01 2003.01 1265.01 2158.83 1572.12 2336.13 1572.12 2180.32 1265.01 2003.01"/>
              </g>
              <g>
                <g class="cls-19">
                  <polygon class="cls-8" points="1365.17 2041.55 1343.55 2029.13 1339.87 1979.14 1332.2 1872.41 1353.67 1882.84 1359.81 1967.64 1365.17 2041.55"/>
                  <polygon class="cls-6" points="1353.66 1882.82 1332.13 1872.4 1600 1717.74 1621.54 1728.16 1353.66 1882.82"/>
                  <polygon class="cls-10" points="1644.73 2047.84 1528.64 2114.85 1510.39 2125.43 1508.86 2126.35 1508.71 2124.36 1497.21 2117.77 1475.58 2105.35 1464.24 2098.75 1442.61 2086.33 1431.11 2079.74 1409.49 2067.16 1398.3 2060.72 1376.52 2048.14 1365.17 2041.55 1359.81 1967.64 1353.67 1882.84 1621.57 1728.11 1622.64 1743.44 1624.33 1765.22 1625.41 1780.55 1625.41 1780.7 1626.94 1802.48 1628.01 1817.82 1629.7 1839.75 1630.77 1854.93 1632.31 1876.86 1632.77 1882.22 1633.38 1892.19 1635.07 1914.12 1644.73 2047.84"/>
                </g>
                <g class="cls-19">
                  <polygon class="cls-8" points="1398.3 2060.72 1376.52 2048.14 1370.23 1961.66 1365.17 1892.04 1386.8 1902.46 1390.17 1950.15 1398.3 2060.72"/>
                  <polygon class="cls-6" points="1386.73 1902.47 1365.19 1892.05 1633.07 1737.39 1654.6 1747.81 1386.73 1902.47"/>
                  <polygon class="cls-10" points="1677.85 2067.47 1543.98 2144.76 1530.33 2136.93 1510.39 2125.43 1508.86 2126.35 1508.71 2124.36 1497.21 2117.77 1475.58 2105.35 1464.24 2098.75 1442.61 2086.33 1431.11 2079.74 1409.49 2067.16 1398.3 2060.72 1390.17 1950.15 1386.8 1902.46 1624.33 1765.22 1654.54 1747.74 1655.61 1763.22 1657.3 1785 1658.37 1800.18 1659.91 1822.26 1661.13 1837.44 1662.67 1859.37 1663.74 1874.55 1663.74 1874.71 1665.43 1896.48 1665.43 1896.64 1665.74 1901.24 1677.85 2067.47"/>
                </g>
                <g class="cls-19">
                  <polygon class="cls-8" points="1431.11 2079.74 1409.49 2067.16 1400.6 1944.17 1398.3 1911.67 1419.76 1922.09 1420.53 1932.67 1431.11 2079.74"/>
                  <polygon class="cls-6" points="1419.79 1922.12 1398.26 1911.7 1666.13 1757.04 1687.67 1767.46 1419.79 1922.12"/>
                  <polygon class="cls-10" points="1710.36 2081.12 1572.04 2161.01 1543.98 2144.76 1530.33 2136.93 1510.39 2125.43 1508.86 2126.35 1508.71 2124.36 1497.21 2117.77 1475.58 2105.35 1464.24 2098.75 1442.61 2086.33 1431.11 2079.74 1420.53 1932.67 1419.76 1922.09 1626.94 1802.48 1687.66 1767.52 1688.74 1782.7 1690.43 1804.63 1691.5 1819.81 1691.5 1819.96 1693.03 1841.74 1694.11 1857.07 1695.79 1879 1698.71 1920.25 1710.36 2081.12"/>
                </g>
                <g class="cls-19">
                  <polygon class="cls-8" points="1464.24 2098.75 1442.61 2086.33 1431.27 1931.29 1452.89 1941.72 1464.24 2098.75"/>
                  <polygon class="cls-6" points="1452.86 1941.76 1431.32 1931.34 1699.2 1776.69 1720.73 1787.1 1452.86 1941.76"/>
                  <polygon class="cls-10" points="1740.88 2063.48 1710.36 2081.12 1572.04 2161.01 1543.98 2144.76 1530.33 2136.93 1510.39 2125.43 1508.86 2126.35 1508.71 2124.36 1497.21 2117.77 1475.58 2105.35 1464.24 2098.75 1452.89 1941.72 1594.43 1860.14 1629.7 1839.75 1659.91 1822.26 1690.43 1804.63 1720.79 1787.15 1721.86 1802.33 1723.55 1824.26 1724.62 1839.44 1726.15 1861.52 1731.83 1939.42 1740.88 2063.48"/>
                </g>
                <g class="cls-19">
                  <polygon class="cls-8" points="1497.21 2117.77 1475.58 2105.35 1464.39 1950.92 1485.86 1961.35 1497.21 2117.77"/>
                  <polygon class="cls-6" points="1485.92 1961.41 1464.39 1950.99 1732.27 1796.33 1753.8 1806.75 1485.92 1961.41"/>
                  <polygon class="cls-10" points="1771.24 2046 1740.88 2063.48 1710.36 2081.12 1572.04 2161.01 1543.98 2144.76 1530.33 2136.93 1510.39 2125.43 1508.86 2126.35 1508.71 2124.36 1497.21 2117.77 1485.86 1961.35 1627.86 1879.46 1632.31 1876.86 1662.67 1859.37 1693.03 1841.74 1723.55 1824.26 1753.76 1806.77 1754.83 1821.96 1756.52 1843.89 1756.52 1844.04 1764.8 1958.44 1771.24 2046"/>
                </g>
                <g class="cls-19">
                  <polygon class="cls-8" points="1530.33 2136.93 1510.39 2125.43 1508.86 2126.35 1508.71 2124.36 1497.51 1970.71 1518.98 1981.13 1528.64 2114.85 1530.33 2136.93"/>
                  <polygon class="cls-6" points="1518.99 1981.06 1497.46 1970.64 1765.33 1815.98 1786.87 1826.4 1518.99 1981.06"/>
                  <polygon class="cls-10" points="1801.45 2028.36 1771.24 2046 1740.88 2063.48 1710.36 2081.12 1572.04 2161.01 1543.98 2144.76 1530.33 2136.93 1528.64 2114.85 1518.98 1981.13 1635.07 1914.12 1661.6 1898.78 1665.43 1896.64 1692.42 1881 1695.79 1879 1726.15 1861.52 1756.52 1844.04 1786.88 1826.4 1797.77 1977.45 1801.45 2028.36"/>
                  <g>
                    <path class="cls-1" d="m1594.53,2077.82l38.73,3.66v17.23l-65.08-5.68,65.08-80.66v17.23l-38.73,48.21Z"/>
                    <path class="cls-1" d="m1662.55,2105.36l-12.51,7.22c12.37-45.43,21.59-79.48,27.68-102.15l13.84-51.07,12.52-7.23-41.53,153.23Z"/>
                    <path class="cls-1" d="m1756.79,1984.14l-38.87-3.58v-17.06l65.22,5.43-65.22,80.91v-17.41l38.87-48.29Z"/>
                  </g>
                </g>
              </g>
            </g>
            <path class="cls-18" d="m3775.08,2604.18l-316.87-182.83c-8.52-4.92-7.45-13.52,2.39-19.2l22.61-13.05c9.84-5.68,24.73-6.3,33.25-1.38l316.87,182.83c8.52,4.92,7.45,13.52-2.39,19.2l-22.61,13.05c-9.84,5.68-24.73,6.3-33.25,1.38Z"/>
            <g>
              <g>
                <polygon class="cls-1" points="2745.74 3425.71 2472.06 3267.7 2744.03 3110.68 3017.71 3268.69 2745.74 3425.71"/>
                <polygon class="cls-3" points="2745.65 3408.47 2501.92 3267.76 2744.13 3127.92 2987.85 3268.64 2745.65 3408.47"/>
                <polygon class="cls-11" points="2745.74 3564.57 2745.74 3425.71 3017.71 3268.69 3017.71 3407.55 2745.74 3564.57"/>
                <polygon class="cls-3" points="2472.06 3267.7 2472.06 3406.56 2745.74 3564.57 2745.74 3425.71 2472.06 3267.7"/>
              </g>
              <g>
                <g class="cls-19">
                  <polygon class="cls-17" points="2561.32 3302.05 2542.05 3290.99 2538.77 3246.44 2531.94 3151.32 2551.07 3160.62 2556.54 3236.19 2561.32 3302.05"/>
                  <polygon class="cls-9" points="2551.07 3160.6 2531.87 3151.32 2770.59 3013.49 2789.78 3022.78 2551.07 3160.6"/>
                  <polygon class="cls-14" points="2810.45 3307.66 2707 3367.38 2690.74 3376.81 2689.37 3377.63 2689.23 3375.85 2678.98 3369.97 2659.71 3358.9 2649.6 3353.03 2630.33 3341.96 2620.08 3336.08 2600.82 3324.87 2590.84 3319.14 2571.44 3307.93 2561.32 3302.05 2556.54 3236.19 2551.07 3160.62 2789.81 3022.73 2790.77 3036.4 2792.27 3055.8 2793.23 3069.47 2793.23 3069.6 2794.59 3089.01 2795.55 3102.67 2797.05 3122.22 2798.01 3135.74 2799.38 3155.29 2799.79 3160.07 2800.33 3168.95 2801.84 3188.49 2810.45 3307.66"/>
                </g>
                <g class="cls-19">
                  <polygon class="cls-17" points="2590.84 3319.14 2571.44 3307.93 2565.83 3230.86 2561.32 3168.82 2580.59 3178.11 2583.6 3220.61 2590.84 3319.14"/>
                  <polygon class="cls-9" points="2580.53 3178.11 2561.34 3168.83 2800.06 3031 2819.25 3040.29 2580.53 3178.11"/>
                  <polygon class="cls-14" points="2839.97 3325.15 2720.66 3394.02 2708.5 3387.05 2690.74 3376.81 2689.37 3377.63 2689.23 3375.85 2678.98 3369.97 2659.71 3358.9 2649.6 3353.03 2630.33 3341.96 2620.08 3336.08 2600.82 3324.87 2590.84 3319.14 2583.6 3220.61 2580.59 3178.11 2792.27 3055.8 2819.19 3040.22 2820.15 3054.02 2821.65 3073.43 2822.61 3086.96 2823.97 3106.64 2825.07 3120.16 2826.44 3139.71 2827.39 3153.24 2827.39 3153.37 2828.9 3172.78 2828.9 3172.91 2829.17 3177.01 2839.97 3325.15"/>
                </g>
                <g class="cls-19">
                  <polygon class="cls-17" points="2620.08 3336.08 2600.82 3324.87 2592.89 3215.28 2590.84 3186.31 2609.97 3195.6 2610.66 3205.03 2620.08 3336.08"/>
                  <polygon class="cls-9" points="2610 3195.62 2590.81 3186.33 2829.53 3048.51 2848.71 3057.8 2610 3195.62"/>
                  <polygon class="cls-14" points="2868.94 3337.31 2745.67 3408.51 2720.66 3394.02 2708.5 3387.05 2690.74 3376.81 2689.37 3377.63 2689.23 3375.85 2678.98 3369.97 2659.71 3358.9 2649.6 3353.03 2630.33 3341.96 2620.08 3336.08 2610.66 3205.03 2609.97 3195.6 2794.59 3089.01 2848.71 3057.85 2849.67 3071.38 2851.17 3090.92 2852.13 3104.45 2852.13 3104.59 2853.49 3123.99 2854.45 3137.66 2855.95 3157.2 2858.55 3193.96 2868.94 3337.31"/>
                </g>
                <g class="cls-19">
                  <polygon class="cls-17" points="2649.6 3353.03 2630.33 3341.96 2620.22 3203.8 2639.49 3213.09 2649.6 3353.03"/>
                  <polygon class="cls-9" points="2639.46 3213.13 2620.28 3203.84 2858.99 3066.02 2878.18 3075.31 2639.46 3213.13"/>
                  <polygon class="cls-14" points="2896.13 3321.6 2868.94 3337.31 2745.67 3408.51 2720.66 3394.02 2708.5 3387.05 2690.74 3376.81 2689.37 3377.63 2689.23 3375.85 2678.98 3369.97 2659.71 3358.9 2649.6 3353.03 2639.49 3213.09 2765.62 3140.39 2797.05 3122.22 2823.97 3106.64 2851.17 3090.92 2878.23 3075.34 2879.18 3088.87 2880.69 3108.41 2881.64 3121.94 2883.01 3141.62 2888.07 3211.04 2896.13 3321.6"/>
                </g>
                <g class="cls-19">
                  <polygon class="cls-17" points="2678.98 3369.97 2659.71 3358.9 2649.74 3221.29 2668.87 3230.58 2678.98 3369.97"/>
                  <polygon class="cls-9" points="2668.93 3230.64 2649.74 3221.35 2888.46 3083.53 2907.65 3092.82 2668.93 3230.64"/>
                  <polygon class="cls-14" points="2923.19 3306.02 2896.13 3321.6 2868.94 3337.31 2745.67 3408.51 2720.66 3394.02 2708.5 3387.05 2690.74 3376.81 2689.37 3377.63 2689.23 3375.85 2678.98 3369.97 2668.87 3230.58 2795.41 3157.61 2799.38 3155.29 2826.44 3139.71 2853.49 3123.99 2880.69 3108.41 2907.61 3092.83 2908.56 3106.36 2910.07 3125.9 2910.07 3126.04 2917.45 3227.99 2923.19 3306.02"/>
                </g>
                <g class="cls-19">
                  <polygon class="cls-17" points="2708.5 3387.05 2690.74 3376.81 2689.37 3377.63 2689.23 3375.85 2679.26 3238.92 2698.39 3248.21 2707 3367.38 2708.5 3387.05"/>
                  <polygon class="cls-9" points="2698.4 3248.15 2679.21 3238.86 2917.92 3101.04 2937.11 3110.32 2698.4 3248.15"/>
                  <polygon class="cls-14" points="2950.11 3290.3 2923.19 3306.02 2896.13 3321.6 2868.94 3337.31 2745.67 3408.51 2720.66 3394.02 2708.5 3387.05 2707 3367.38 2698.39 3248.21 2801.84 3188.49 2825.48 3174.83 2828.9 3172.91 2852.95 3158.98 2855.95 3157.2 2883.01 3141.62 2910.07 3126.04 2937.13 3110.33 2946.83 3244.93 2950.11 3290.3"/>
                  <g>
                    <path class="cls-1" d="m2765.71,3334.37l34.51,3.26v15.36l-57.99-5.07,57.99-71.88v15.36l-34.51,42.96Z"/>
                    <path class="cls-1" d="m2826.33,3358.91l-11.15,6.44c11.02-40.49,19.24-70.83,24.67-91.03l12.33-45.52,11.16-6.44-37.01,136.55Z"/>
                    <path class="cls-1" d="m2910.31,3250.89l-34.64-3.19v-15.2l58.12,4.84-58.12,72.1v-15.51l34.64-43.04Z"/>
                  </g>
                </g>
              </g>
            </g>
            <g>
              <path class="cls-8" d="m3697.59,583.96v276.3c0,5.23-1.86,8.94-4.87,10.66l-51.1,28.78c3-1.72,4.86-5.44,4.86-10.66v-276.3c0-10.49-7.29-23.12-16.35-28.32l-238.51-136.81c-4.43-2.54-8.45-2.77-11.38-1.09l51.1-28.78c2.93-1.68,6.96-1.45,11.38,1.09l238.51,136.8c9.06,5.19,16.35,17.82,16.35,28.32Z"/>
              <path class="cls-10" d="m3646.49,612.74c0-10.49-7.29-23.12-16.35-28.32l-238.51-136.8c-8.94-5.13-16.23-.86-16.23,9.63v276.31c0,10.35,7.29,23.12,16.23,28.25l238.51,136.8c9.06,5.19,16.35.79,16.35-9.56v-276.3Z"/>
              <g>
                <path class="cls-5" d="m3592.34,707.98l-158.62-91.58c-10.3-5.94-18.64-21.89-18.64-35.62h0c0-13.73,8.35-20.04,18.64-14.09l158.62,91.58c10.3,5.94,18.64,21.89,18.64,35.62h0c0,13.73-8.35,20.04-18.64,14.09Z"/>
                <path class="cls-5" d="m3592.34,789.03l-158.62-91.58c-10.3-5.94-18.64-21.89-18.64-35.62h0c0-13.73,8.35-20.04,18.64-14.09l158.62,91.58c10.3,5.94,18.64,21.89,18.64,35.62h0c0,13.73-8.35,20.04-18.64,14.09Z"/>
              </g>
            </g>
            <g>
              <path class="cls-8" d="m4049.98,907.1v276.3c0,5.23-1.86,8.94-4.86,10.66l-51.1,28.78c3-1.72,4.86-5.44,4.86-10.66v-276.3c0-10.49-7.29-23.12-16.35-28.32l-238.51-136.81c-4.43-2.54-8.45-2.77-11.38-1.09l51.1-28.78c2.93-1.68,6.96-1.45,11.38,1.09l238.51,136.81c9.06,5.19,16.35,17.82,16.35,28.32Z"/>
              <path class="cls-10" d="m3998.88,935.87c0-10.49-7.29-23.12-16.35-28.32l-238.51-136.8c-8.94-5.13-16.23-.86-16.23,9.63v276.31c0,10.35,7.29,23.12,16.23,28.25l238.51,136.8c9.06,5.19,16.35.79,16.35-9.56v-276.3Z"/>
              <g>
                <path class="cls-5" d="m3940.59,1032.59l-158.62-91.58c-10.3-5.94-18.64-21.89-18.64-35.62h0c0-13.73,8.35-20.04,18.64-14.09l158.62,91.58c10.3,5.94,18.64,21.89,18.64,35.62h0c0,13.73-8.35,20.04-18.64,14.09Z"/>
                <path class="cls-5" d="m3940.59,1113.65l-158.62-91.58c-10.3-5.94-18.64-21.89-18.64-35.62h0c0-13.73,8.35-20.04,18.64-14.09l158.62,91.58c10.3,5.94,18.64,21.89,18.64,35.62h0c0,13.73-8.35,20.04-18.64,14.09Z"/>
              </g>
            </g>
          </g>
        </g>
      </g>
    </g>
  </g>
</svg>