<?xml version="1.0" encoding="UTF-8"?>
<svg id="Layer_2" data-name="Layer 2" xmlns="http://www.w3.org/2000/svg" viewBox="0 0 945.42 788.25">
  <defs>
    <style>
      .cls-1 {
        fill: #f5f5f7;
      }

      .cls-2 {
        fill: #333;
      }
    </style>
  </defs>
  <g id="Layer_1-2" data-name="Layer 1">
    <g>
      <rect class="cls-1" x=".96" y=".49" width="578.98" height="231"/>
      <g>
        <path class="cls-2" d="m214.39,76.63c-1.25-4.62-3.08-8.7-5.5-12.26-2.42-3.55-5.39-6.58-8.91-9.07-3.52-2.49-7.55-4.38-12.09-5.66-4.55-1.28-9.53-1.92-14.95-1.92-10.92,0-20.36,2.64-28.31,7.92-7.95,5.28-14.09,12.96-18.42,23.03-4.33,10.08-6.49,22.3-6.49,36.67s2.09,26.75,6.27,36.94c4.18,10.19,10.22,17.96,18.14,23.31,7.92,5.35,17.52,8.03,28.81,8.03,9.97,0,18.42-1.63,25.34-4.89,6.93-3.26,12.19-7.9,15.78-13.91,3.59-6.01,5.39-13.08,5.39-21.22l10.12,1.21h-54.75v-39.69h97.08v29.8c0,20.16-4.27,37.42-12.81,51.78-8.54,14.37-20.27,25.4-35.18,33.09-14.92,7.7-32.05,11.54-51.4,11.54-21.48,0-40.35-4.65-56.62-13.96-16.27-9.31-28.95-22.59-38.04-39.85-9.09-17.26-13.63-37.77-13.63-61.51,0-18.47,2.75-34.87,8.25-49.2,5.5-14.33,13.17-26.48,23.03-36.45,9.86-9.97,21.29-17.52,34.3-22.65,13.01-5.13,27.03-7.7,42.05-7.7,13.05,0,25.19,1.87,36.45,5.61,11.25,3.74,21.22,9.02,29.9,15.83,8.69,6.82,15.74,14.92,21.17,24.3,5.42,9.38,8.8,19.68,10.12,30.89h-55.08Z"/>
        <path class="cls-2" d="m516.52,115.66c0,24.78-4.77,45.78-14.29,63-9.53,17.23-22.41,30.31-38.65,39.25-16.24,8.94-34.43,13.41-54.59,13.41s-38.45-4.51-54.64-13.52c-16.2-9.02-29.04-22.12-38.54-39.31-9.49-17.19-14.24-38.13-14.24-62.83s4.74-45.77,14.24-63c9.49-17.22,22.34-30.31,38.54-39.25,16.2-8.94,34.41-13.41,54.64-13.41s38.35,4.47,54.59,13.41c16.23,8.94,29.12,22.03,38.65,39.25,9.53,17.23,14.29,38.22,14.29,63Zm-55.63,0c0-14.66-2.07-27.05-6.21-37.16-4.14-10.11-10.08-17.77-17.81-22.98-7.73-5.2-17.02-7.81-27.87-7.81s-20.05,2.6-27.82,7.81c-7.77,5.21-13.73,12.86-17.87,22.98-4.14,10.12-6.21,22.5-6.21,37.16s2.07,27.05,6.21,37.16c4.14,10.12,10.1,17.78,17.87,22.98,7.77,5.21,17.04,7.81,27.82,7.81s20.14-2.6,27.87-7.81c7.73-5.2,13.67-12.86,17.81-22.98,4.14-10.11,6.21-22.5,6.21-37.16Z"/>
        <path class="cls-1" d="m191.63,283.08v225.17h-46.18l-89.61-129.96h-1.43v129.96H0v-225.17h46.84l88.62,129.74h1.87v-129.74h54.31Z"/>
        <path class="cls-1" d="m225.71,508.25v-225.17h157v44.2h-102.58v46.18h94.55v44.31h-94.55v46.29h102.58v44.2h-157Z"/>
        <path class="cls-1" d="m471.88,283.08l41.12,71.14h1.76l41.56-71.14h60.91l-67.95,112.58,70.15,112.58h-62.45l-42.22-71.9h-1.76l-42.22,71.9h-62.01l69.82-112.58-68.06-112.58h61.35Z"/>
        <path class="cls-1" d="m638.12,327.28v-44.2h190.32v44.2h-68.28v180.97h-53.65v-180.97h-68.39Z"/>
        <path class="cls-1" d="m0,788.25v-225.17h54.42v180.97h93.67v44.2H0Z"/>
        <path class="cls-1" d="m176.24,788.25v-225.17h157v44.2h-102.58v46.18h94.55v44.31h-94.55v46.29h102.58v44.2h-157Z"/>
        <path class="cls-1" d="m418.45,563.08l50.36,164.92h1.87l50.36-164.92h60.91l-75.97,225.17h-72.45l-75.97-225.17h60.91Z"/>
        <path class="cls-1" d="m606.24,788.25v-225.17h157v44.2h-102.58v46.18h94.55v44.31h-94.55v46.29h102.58v44.2h-157Z"/>
        <path class="cls-1" d="m797.32,788.25v-225.17h54.42v180.97h93.67v44.2h-148.1Z"/>
      </g>
    </g>
  </g>
</svg>