<?xml version="1.0" encoding="UTF-8"?>
<svg id="Layer_2" data-name="Layer 2" xmlns="http://www.w3.org/2000/svg" xmlns:xlink="http://www.w3.org/1999/xlink" viewBox="0 0 575.3 180">
  <defs>
    <style>
      .cls-1 {
        fill: #01579b;
      }

      .cls-2 {
        fill: #40c4ff;
      }

      .cls-3 {
        fill: #29b6f6;
      }

      .cls-4 {
        fill: #263238;
      }

      .cls-4, .cls-5, .cls-6 {
        opacity: .2;
      }

      .cls-5 {
        fill: #fff;
      }

      .cls-7 {
        opacity: .54;
      }

      .cls-6 {
        fill: url(#radial-gradient);
      }
    </style>
    <radialGradient id="radial-gradient" cx="90" cy="90" fx="90" fy="90" r="90" gradientUnits="userSpaceOnUse">
      <stop offset="0" stop-color="#fff" stop-opacity=".1"/>
      <stop offset=".14" stop-color="#fff" stop-opacity=".08"/>
      <stop offset=".61" stop-color="#fff" stop-opacity=".02"/>
      <stop offset="1" stop-color="#fff" stop-opacity="0"/>
    </radialGradient>
  </defs>
  <g id="Layer_1-2" data-name="Layer 1">
    <g>
      <g class="cls-7">
        <path d="m271.43,26.42h36.38c12.35,0,23.13,2.56,32.34,7.66,9.21,5.11,16.28,12.21,21.22,21.31,4.94,9.1,7.41,19.54,7.41,31.33s-2.47,22.23-7.41,31.33c-4.94,9.1-12.02,16.2-21.22,21.31-9.21,5.11-19.99,7.66-32.34,7.66h-36.38V26.42Zm36.38,106.96c14.26,0,25.57-4.1,33.94-12.3,8.36-8.2,12.55-19.65,12.55-34.36s-4.18-26.16-12.55-34.36c-8.37-8.2-19.68-12.3-33.94-12.3h-22.23v93.32h22.23Z"/>
        <path d="m390.85,146.01c-4.94-2.47-8.76-5.87-11.45-10.19-2.7-4.32-4.04-9.24-4.04-14.74,0-9.1,3.42-16.2,10.27-21.31,6.85-5.11,15.5-7.66,25.94-7.66,5.16,0,9.96.56,14.4,1.68,4.43,1.12,7.83,2.42,10.19,3.87v-5.22c0-6.4-2.25-11.54-6.74-15.41-4.49-3.87-10.16-5.81-17.01-5.81-4.83,0-9.26,1.04-13.31,3.12-4.04,2.08-7.24,4.97-9.6,8.67l-10.78-8.09c3.37-5.16,8-9.21,13.9-12.13,5.9-2.92,12.44-4.38,19.62-4.38,11.68,0,20.86,3.06,27.54,9.18,6.68,6.12,10.02,14.46,10.02,25.01v54.41h-13.64v-12.3h-.67c-2.47,4.16-6.18,7.69-11.12,10.61-4.94,2.92-10.5,4.38-16.68,4.38s-11.9-1.24-16.84-3.71Zm31.67-12.63c4.15-2.47,7.47-5.78,9.94-9.94,2.47-4.15,3.71-8.7,3.71-13.64-2.69-1.79-6.01-3.26-9.94-4.38-3.93-1.12-8.09-1.68-12.46-1.68-7.86,0-13.79,1.63-17.77,4.88-3.99,3.26-5.98,7.47-5.98,12.63,0,4.72,1.8,8.54,5.39,11.45,3.59,2.92,8.14,4.38,13.64,4.38,4.83,0,9.32-1.23,13.48-3.71Z"/>
        <path d="m464.91,62.47h13.64v13.64h.67c2.02-5.05,5.45-8.98,10.27-11.79,4.83-2.81,10.11-4.21,15.83-4.21,2.47,0,4.55.17,6.23.51v14.65c-1.91-.45-4.49-.67-7.75-.67-7.3,0-13.22,2.42-17.77,7.24-4.55,4.83-6.82,11.12-6.82,18.87v47.67h-14.32V62.47Zm88.91,85.54c-2.98-1.14-5.47-2.69-7.5-4.63-2.25-2.17-3.93-4.69-5.05-7.55-1.12-2.86-1.68-6.35-1.68-10.46v-51.28h-14.99v-12.97h14.99v-24.26h14.32v24.26h20.89v12.97h-20.89v47.86c0,4.82.9,8.38,2.69,10.68,2.13,2.53,5.22,3.79,9.26,3.79,3.26,0,6.4-.95,9.43-2.86v13.98c-1.68.78-3.4,1.35-5.14,1.68-1.74.34-3.96.51-6.65.51-3.48,0-6.71-.57-9.69-1.71Z"/>
      </g>
      <g>
        <path class="cls-1" d="m36.71,143.29l-30.79-30.79c-3.65-3.75-5.92-9.04-5.92-14.21,0-2.39,1.35-6.14,2.37-8.29L30.79,30.79l5.92,112.5Z"/>
        <path class="cls-2" d="m142.11,36.71l-30.79-30.79c-2.69-2.7-8.29-5.92-13.03-5.92-4.07,0-8.07.81-10.66,2.37L30.79,30.79l111.32,5.92Z"/>
        <polygon class="cls-2" points="73.42 180 148.03 180 148.03 148.03 92.37 130.26 41.45 148.03 73.42 180"/>
        <path class="cls-3" d="m30.79,126.71c0,9.5,1.19,11.83,5.92,16.58l4.74,4.74h106.58l-52.11-59.21L30.79,30.79v95.92Z"/>
        <path class="cls-1" d="m125.53,30.79H30.79l117.24,117.24h31.97v-73.42l-37.89-37.89c-5.32-5.34-10.05-5.92-16.58-5.92Z"/>
        <path class="cls-5" d="m37.89,144.47c-4.74-4.76-5.92-9.44-5.92-17.76V31.97l-1.18-1.18v95.92c0,8.32,0,10.63,7.11,17.76l3.55,3.55h0l-3.55-3.55Z"/>
        <polygon class="cls-4" points="178.82 73.42 178.82 146.84 146.84 146.84 148.03 148.03 180 148.03 180 74.61 178.82 73.42"/>
        <path class="cls-5" d="m142.11,36.71c-5.87-5.87-10.69-5.92-17.76-5.92H30.79l1.18,1.18h92.37c3.54,0,12.45-.59,17.76,4.74h0Z"/>
        <path class="cls-6" d="m178.82,73.42l-36.71-36.71-30.79-30.79c-2.69-2.7-8.29-5.92-13.03-5.92-4.07,0-8.07.81-10.66,2.37L30.79,30.79,2.37,90c-1.02,2.15-2.37,5.9-2.37,8.29,0,5.17,2.27,10.46,5.92,14.21l28.37,28.17c.68.83,1.47,1.68,2.41,2.62l1.18,1.18,3.55,3.55,30.79,30.79,1.18,1.18h74.61v-31.97h31.97v-73.42l-1.18-1.18Z"/>
      </g>
    </g>
  </g>
</svg>