<?xml version="1.0" encoding="UTF-8"?>
<svg xmlns="http://www.w3.org/2000/svg" viewBox="0 0 3100.88 1705.53">
  <defs>
    <style>
      .cls-1, .cls-2, .cls-3, .cls-4 {
        fill: none;
      }

      .cls-5 {
        fill: #e6e6e6;
      }

      .cls-6 {
        fill: #f4f4f4;
      }

      .cls-7, .cls-8 {
        fill: #e7e7e7;
      }

      .cls-9 {
        fill: #f1f1f1;
      }

      .cls-10 {
        fill: #929292;
      }

      .cls-11 {
        fill: #c2c2c2;
      }

      .cls-12 {
        fill: #8f8f8f;
      }

      .cls-13 {
        fill: #666;
      }

      .cls-14 {
        fill: #333;
      }

      .cls-15 {
        fill: #cecece;
      }

      .cls-16 {
        fill: #acacac;
      }

      .cls-17 {
        fill: #b2b2b2;
      }

      .cls-18 {
        fill: #bdbdbd;
      }

      .cls-19 {
        fill: #d1d1d1;
      }

      .cls-20 {
        fill: #c4c4c4;
      }

      .cls-21 {
        fill: #d4d4d4;
      }

      .cls-22 {
        fill: #1a1a1a;
      }

      .cls-23 {
        fill: #6e6e6e;
      }

      .cls-24 {
        fill: gray;
      }

      .cls-25 {
        fill: #3b3b3b;
      }

      .cls-26 {
        fill: #3d3d3d;
      }

      .cls-27 {
        fill: #7a7a7a;
      }

      .cls-8 {
        mix-blend-mode: multiply;
      }

      .cls-2 {
        stroke: #000;
        stroke-miterlimit: 10;
        stroke-width: 4px;
      }

      .cls-28 {
        isolation: isolate;
      }

      .cls-3, .cls-4 {
        stroke: #929292;
        stroke-linecap: round;
        stroke-linejoin: round;
        stroke-width: 9.28px;
      }

      .cls-4 {
        stroke-dasharray: 0 0 0 13.92;
      }
    </style>
  </defs>
  <g class="cls-28">
    <g id="Layer_2" data-name="Layer 2">
      <g id="Layer_1-2" data-name="Layer 1">
        <g>
          <g id="Circuit_Board" data-name="Circuit Board">
            <path class="cls-25" d="m630.68,1248.73c2.38,12.32,13.24,21.66,26.25,21.66,14.74,0,26.74-12,26.74-26.74s-12-26.75-26.74-26.75c-11.25,0-20.88,6.99-24.83,16.85h-302.28c-3.15-11.86-13.93-20.61-26.78-20.61-15.32,0-27.74,12.42-27.74,27.74s12.42,27.74,27.74,27.74c12.59,0,23.21-8.4,26.59-19.89h301.04Zm-327.64,4.13c-6.6,0-11.97-5.37-11.97-11.97s5.37-11.97,11.97-11.97,11.97,5.37,11.97,11.97-5.37,11.97-11.97,11.97Z"/>
            <path class="cls-25" d="m1323.36,473.22c14.74,0,26.74-12,26.74-26.74,0-12.15-8.15-22.41-19.25-25.66v-197.23l105.9-93.87V54.63c12.08-3,21.04-13.88,21.04-26.89,0-15.32-12.42-27.74-27.74-27.74s-27.74,12.42-27.74,27.74c0,12.43,8.18,22.96,19.46,26.48v68.77l-105.91,93.87v203.97c-11.11,3.25-19.26,13.51-19.26,25.66,0,14.74,12,26.74,26.75,26.74Zm94.72-445.49c0-6.6,5.37-11.97,11.97-11.97s11.97,5.37,11.97,11.97-5.37,11.97-11.97,11.97-11.97-5.37-11.97-11.97Zm-94.72,406.97c6.49,0,11.77,5.28,11.77,11.77s-5.28,11.77-11.77,11.77-11.77-5.28-11.77-11.77,5.28-11.77,11.77-11.77Z"/>
            <polygon class="cls-25" points="341.35 1182.13 341.35 1199.21 391.86 1199.21 391.86 1148.69 341.35 1148.69 341.35 1167.16 157.19 1167.16 157.19 1150.03 106.68 1150.03 106.68 1168.5 106.68 1183.47 106.68 1200.55 157.19 1200.55 157.19 1182.13 341.35 1182.13"/>
            <polygon class="cls-25" points="1528.52 241.26 1508.96 241.26 1508.96 51.25 1493.99 51.25 1493.99 241.26 1478.01 241.26 1478.01 291.78 1528.52 291.78 1528.52 241.26"/>
            <path class="cls-25" d="m2948.58,242.21c-13.24,0-24.3,9.29-27.06,21.71h-287.96v-80.76h-761.15v86.6h-285.24v234.22c-8.6-1.44-17.31-2.55-26.12-3.31V54.84c11.79-3.2,20.47-13.94,20.47-26.74,0-15.32-12.42-27.74-27.74-27.74s-27.74,12.42-27.74,27.74c0,12.64,8.47,23.29,20.03,26.63v445c-4.42-.18-8.85-.29-13.31-.29-26.56,0-52.37,3.2-77.11,9.2v-106.3c11.11-3.25,19.26-13.51,19.26-25.66,0-14.75-12-26.74-26.74-26.74s-26.74,12-26.74,26.74c0,12.14,8.15,22.41,19.25,25.66v110.31c-16.74,4.92-32.93,11.13-48.45,18.54v-266.34l84.9-70.75-9.59-11.5-90.29,75.24v280.88h.17c-5.77,3.12-11.43,6.43-16.99,9.89h-163.67l-27.74-34.14c9.95-22.63,15.51-47.62,15.51-73.89,0-82.12-54.01-151.84-128.37-175.57v-53.44h-14.98v49.38c-9.36-2.13-18.98-3.55-28.82-4.19v-115.08h18.8v-50.51h-50.51v50.51h16.73v114.72c-89,1.38-162.85,66.15-178.33,151.07h-157.05l-93.57-33.52c12.1-21.12,19.06-45.55,19.06-71.59,0-79.69-64.83-144.53-144.53-144.53s-144.53,64.83-144.53,144.53,64.83,144.53,144.53,144.53c47.31,0,89.38-22.85,115.76-58.08l100.24,36.19h157.77c-.43,5.15-.71,10.34-.71,15.59,0,2.43.09,4.85.18,7.26h-141.12v14.97h142.33c11.02,91.15,88.8,162.02,182.87,162.02,19.07,0,37.48-2.91,54.79-8.32l63.68,67.77,119.71-.69c-9.94,20.36-17.83,41.89-23.4,64.33v-.83h-223.16l-128.77-128.77h-446.57v14.97h440.36l128.77,128.77h226.17c-1.72,8.53-3.09,17.19-4.13,25.94h-234.96l-120.35-127.57h-231.81c-3.12-11.31-13.47-19.66-25.76-19.66-14.74,0-26.74,12-26.74,26.74s12,26.75,26.74,26.75c12,0,22.18-7.95,25.55-18.86h225.56l120.35,127.57h239.99c-.57,7.86-.87,15.8-.87,23.8s.32,16.48.92,24.61h-171.02v14.97h172.49c.9,7.39,2.04,14.7,3.42,21.93h-292.17c-3.12-11.31-13.47-19.66-25.76-19.66-14.75,0-26.74,12-26.74,26.74s12,26.74,26.74,26.74c12,0,22.18-7.95,25.55-18.86h295.6c4.12,17.13,9.57,33.74,16.27,49.71h-413.41l-67.4-68.64h-173.56c-3.95-97.01-84.06-174.72-182.01-174.72s-178.07,77.71-182.02,174.71H54.54c-3.12-11.91-13.92-20.7-26.8-20.7-15.32,0-27.74,12.42-27.74,27.74s12.42,27.74,27.74,27.74c12.56,0,23.15-8.35,26.57-19.8h158.03c.4,9.82,1.55,19.44,3.45,28.8h-55.45v14.97h59.2c22.2,75.59,92.14,130.95,174.82,130.95s152.61-55.37,174.81-130.95h154.46l71.41,71.41h124.05v17.08h50.51v-50.51h-50.51v18.46h-117.84l-71.41-71.41h-156.91c1.9-9.36,3.05-18.98,3.45-28.79h167.28l67.4,68.64h426.41c10.4,21.67,23.11,42.03,37.83,60.75h-245.26l-128.17,140.21h-423.04v14.97h429.63l128.17-140.21h251.2c6.64,7.49,13.61,14.67,20.89,21.52h-260.68l-231.13,245.78c-19.27-10.16-41.19-15.94-64.45-15.94-76.47,0-138.69,62.22-138.69,138.69s62.22,138.69,138.69,138.69,138.69-62.22,138.69-138.69c0-29.75-9.44-57.31-25.45-79.92l96.68-104.11v145.37h175.15v129.3h14.97v-129.3h20.33v179.12c-11.87,3.14-20.63,13.93-20.63,26.78,0,15.32,12.42,27.74,27.74,27.74s27.74-12.42,27.74-27.74c0-12.59-8.39-23.2-19.87-26.59v-179.31h210.04v-189.21h-210.6v-35.79l65.42-65.42h107.28c23.83,14.88,49.7,26.78,77.1,35.18v85.72c-11.11,3.25-19.25,13.51-19.25,25.66,0,14.74,12,26.74,26.74,26.74s26.74-12,26.74-26.74c0-12.15-8.15-22.41-19.26-25.66v-81.52c11.62,2.96,23.5,5.28,35.57,6.96v207.03l-90.67,90.67v160.97c-11.51,2.98-20.06,13.43-20.06,25.86,0,14.75,12,26.74,26.74,26.74s26.74-12,26.74-26.74c0-11.85-7.76-21.91-18.45-25.41v-155.22l90.66-90.67v-211.51c7.77.72,15.62,1.16,23.54,1.32v226.55l-85.85,89.86v70.06h14.98v-64.05l85.85-89.86v-232.57c7.65-.19,15.23-.67,22.74-1.37v150.71h14.97v-152.48c5.21-.74,10.38-1.59,15.51-2.57v329.87c-58.19,5.03-104.01,53.98-104.01,113.45,0,62.8,51.1,113.9,113.9,113.9s113.9-51.1,113.9-113.9-48.37-111.11-108.82-113.78v-332.76c12.39-2.98,24.51-6.64,36.3-10.99v249.99h-16.25v50.51h50.51v-50.51h-19.29v-255.94c12.63-5.37,24.84-11.53,36.6-18.38v124.62l192.48,170.54h452.94c.58,8.72,2.01,17.22,4.2,25.41h-351.83c-3.43-11.43-14.02-19.76-26.56-19.76-15.32,0-27.74,12.42-27.74,27.74s12.42,27.74,27.74,27.74c12.89,0,23.7-8.81,26.81-20.73h356.6c19.62,48.73,67.35,83.24,123.02,83.24s107.95-37.88,125.64-90.32l-8.54,7.03h107.51c3.54,11.24,14.04,19.4,26.46,19.4,15.32,0,27.74-12.42,27.74-27.74s-12.42-27.74-27.74-27.74c-13.03,0-23.92,8.99-26.9,21.1h-96.1c2.94-10.95,4.53-22.44,4.53-34.31,0-1.1-.06-2.18-.08-3.27h174.2c3.73,10.92,14.05,18.79,26.23,18.79,15.32,0,27.74-12.42,27.74-27.74s-12.42-27.74-27.74-27.74c-13.25,0-24.31,9.29-27.06,21.71h-174.4v1.41c-8.3-65.18-64.08-115.75-131.48-115.75-56.96,0-105.65,36.12-124.37,86.65h-434.71l-164.68-144.8v-134.75c27.07-24.27,50.08-52.97,67.89-84.95h178.64l96.64,60.13c-5.18,13.56-8.76,27.9-10.56,42.78l-92.67-56.51h-83.55c-3.25-11.11-13.51-19.25-25.66-19.25-14.75,0-26.74,12-26.74,26.74s12,26.74,26.74,26.74c12.14,0,22.41-8.15,25.66-19.26h79.35l95.63,58.31c-.05,1.73-.13,3.46-.13,5.21,0,18.34,2.75,36.04,7.81,52.74h-181.56v-18.03h-50.51v50.51h50.51v-17.5h186.85c26.94,67.02,92.56,114.48,169.1,114.48s142.16-47.46,169.1-114.48h182.97v-14.98h-177.67c3.51-11.6,5.89-23.68,7.02-36.11h352.52c3.23,11.74,13.95,20.37,26.72,20.37,15.32,0,27.74-12.42,27.74-27.74s-12.42-27.74-27.74-27.74c-12.68,0-23.34,8.51-26.65,20.12h-351.83c0-.55.04-1.09.04-1.65,0-100.47-81.74-182.2-182.21-182.2-72.3,0-134.89,42.33-164.31,103.51l-98.32-61.18h-175.07c7.97-16.23,14.63-33.21,19.85-50.8h369.41l99.27-140.15h625.87v16.05h50.51v-50.51h-50.51v19.49h-633.62l-99.27,140.15h-357.6c2.65-10.81,4.77-21.84,6.32-33.04h341.53l101.1-142.01h436.57c3.65,11.06,14.05,19.04,26.33,19.04,15.32,0,27.74-12.42,27.74-27.74s-12.42-27.74-27.74-27.74c-13.16,0-24.15,9.17-27,21.46h-443.62l-101.09,142.01h-332.1c.9-9.88,1.39-19.89,1.39-30,0-7.46-.27-14.86-.77-22.2h151.21c3.36,10.93,13.55,18.9,25.57,18.9,14.75,0,26.74-12,26.74-26.74s-12-26.74-26.74-26.74c-12.27,0-22.61,8.32-25.75,19.61h-152.39c-1.53-13.46-3.87-26.67-6.99-39.58h320.02c3.36,10.93,13.55,18.91,25.57,18.91,14.74,0,26.74-12,26.74-26.74s-12-26.74-26.74-26.74c-12.27,0-22.61,8.32-25.75,19.61h-323.83c-3.81-13.01-8.4-25.69-13.72-37.98h230.31l139.6-182.93h516.51v-14.97h-523.92l-139.61,182.93h-229.85c-26.83-54.22-68.25-100-119.09-132.16v-155.38c10.86-3.76,18.66-14.05,18.66-26.19,0-15.32-12.42-27.74-27.74-27.74s-27.74,12.42-27.74,27.74c0,13.29,9.35,24.38,21.83,27.09v145.56c-13.88-7.78-28.38-14.57-43.41-20.3v-195.11h223.55v25.9h-94.79v14.98h94.79v90.24h270l-91.01,113.76h-98.58v-17.06h-50.51v50.51h50.51v-18.48h105.77l102.99-128.74h471.97v-88.29h51.29v-14.98h-51.29v-33.2h172.59v240.01h-279.93c-2.94-12.17-13.87-21.22-26.94-21.22-15.32,0-27.74,12.42-27.74,27.74s12.42,27.74,27.74,27.74c12.37,0,22.83-8.1,26.41-19.27h295.43v-269.97h-187.57v-26.38h288.79c3.73,10.92,14.05,18.79,26.23,18.79,15.32,0,27.74-12.42,27.74-27.74s-12.42-27.74-27.74-27.74ZM442.96,430.81c-70.84,0-128.47-57.63-128.47-128.47s57.63-128.47,128.47-128.47,128.47,57.63,128.47,128.47-57.63,128.47-128.47,128.47Zm450.35,476.34c-6.49,0-11.77-5.28-11.77-11.77s5.28-11.77,11.77-11.77,11.77,5.28,11.77,11.77-5.28,11.77-11.77,11.77Zm-498.95,144.26c-88,0-159.59-71.59-159.59-159.59s71.59-159.59,159.59-159.59,159.59,71.59,159.59,159.59-71.59,159.59-159.59,159.59Zm797.55,549.56c0,6.6-5.37,11.97-11.97,11.97s-11.97-5.37-11.97-11.97,5.37-11.97,11.97-11.97,11.97,5.37,11.97,11.97Zm223.46,34.55c0,6.49-5.28,11.77-11.77,11.77s-11.77-5.28-11.77-11.77c0-5.33,3.58-9.79,8.45-11.23h6.64c4.87,1.44,8.45,5.9,8.45,11.23Zm283.73-43.9c0,52.34-42.58,94.92-94.92,94.92s-94.92-42.58-94.92-94.92,42.58-94.92,94.92-94.92,94.92,42.58,94.92,94.92Zm1026.78-166.66c6.6,0,11.97,5.37,11.97,11.97s-5.37,11.97-11.97,11.97-11.97-5.37-11.97-11.97,5.37-11.97,11.97-11.97Zm-844.09-373.75c-6.49,0-11.77-5.28-11.77-11.77s5.28-11.77,11.77-11.77,11.77,5.28,11.77,11.77-5.28,11.77-11.77,11.77Zm943.36,56.52c6.6,0,11.97,5.37,11.97,11.97s-5.37,11.97-11.97,11.97-11.97-5.37-11.97-11.97,5.37-11.97,11.97-11.97Zm-560.65-156.88c88,0,159.59,71.59,159.59,159.59s-71.59,159.59-159.59,159.59-159.59-71.59-159.59-159.59,71.59-159.59,159.59-159.59Zm-67.89-220.44c6.49,0,11.77,5.28,11.77,11.77s-5.28,11.77-11.77,11.77-11.77-5.28-11.77-11.77,5.28-11.77,11.77-11.77Zm-510.38-362.05c0-6.6,5.37-11.97,11.97-11.97s11.97,5.37,11.97,11.97-5.37,11.97-11.97,11.97-11.97-5.37-11.97-11.97Zm-496.58,195.2h148.74c-8.92,6.6-17.5,13.64-25.69,21.09h-131.03v14.97h115.63c-10.51,10.89-20.27,22.51-29.2,34.77h-124.07l-40.03-41.64c23.87-16.32,43.72-38.1,57.75-63.53l27.9,34.34Zm-350.74-123.01c0-88.99,72.4-161.39,161.38-161.39s161.39,72.4,161.39,161.39-72.4,161.38-161.39,161.38-161.38-72.39-161.38-161.38Zm286.35,228.7l-54.86-58.34c7.1-2.93,13.96-6.31,20.58-10.07l46.47,48.53h120.34c-4.05,6.25-7.88,12.65-11.5,19.18l-121.04.7Zm-372.79,881.91c-64.76,0-117.44-52.68-117.44-117.44s52.68-117.44,117.44-117.44,117.44,52.68,117.44,117.44-52.68,117.44-117.44,117.44Zm630.33-171.16h-405.35v-159.09h405.35v159.09Zm-136.33-290.33l-74.19,74.19v42h-209.89v21.82l-106.08,114.24c-7.11-8.04-15.14-15.23-23.92-21.45l222.26-240.31,271.01-.11c4.03,3.3,8.13,6.5,12.31,9.61h-91.5Zm1228.36,191.14c63.5,0,115.16,51.66,115.16,115.16s-51.66,115.16-115.16,115.16-115.16-51.66-115.16-115.16,51.66-115.16,115.16-115.16Zm-566.85,82.34l2.12,1.87h435.83c-1.93,8.05-3.15,16.38-3.53,24.92h-447.07l-183.18-162.3v-127.17c8.25-5.42,16.24-11.2,23.95-17.33v128.87l171.89,151.14Zm-76.73-536.39c0,164.58-133.89,298.47-298.47,298.47s-298.47-133.89-298.47-298.47,133.89-298.46,298.47-298.46,298.47,133.89,298.47,298.46Zm-197.35-516.15v204.8c-10.36-3.37-20.95-6.24-31.73-8.58v-222.12h270.26v25.89h-238.53Zm979.24,125.66h-720.27v-232.69h720.27v232.69Zm335.46-154.37c-6.6,0-11.97-5.37-11.97-11.97s5.37-11.97,11.97-11.97,11.97,5.37,11.97,11.97-5.37,11.97-11.97,11.97Z"/>
            <path class="cls-25" d="m2878.95,627.41h-270.02c-3.25-11.11-13.51-19.25-25.66-19.25-14.74,0-26.74,12-26.74,26.74s12,26.75,26.74,26.75c12.15,0,22.41-8.15,25.66-19.26h270.76c3.68,11,14.05,18.93,26.29,18.93,15.32,0,27.74-12.42,27.74-27.74s-12.42-27.74-27.74-27.74c-13.2,0-24.22,9.22-27.02,21.57Zm-295.68,19.26c-6.49,0-11.77-5.28-11.77-11.77s5.28-11.77,11.77-11.77,11.77,5.28,11.77,11.77-5.28,11.77-11.77,11.77Zm334.68-13.09c0,6.6-5.37,11.97-11.97,11.97s-11.97-5.37-11.97-11.97,5.37-11.97,11.97-11.97,11.97,5.37,11.97,11.97Z"/>
            <path class="cls-25" d="m3073.15,918.74c-12.08,0-22.32,7.73-26.13,18.5h-490.58c-2.98-11.52-13.43-20.06-25.86-20.06-14.74,0-26.74,12-26.74,26.74s12,26.74,26.74,26.74c11.85,0,21.91-7.76,25.41-18.45h490.03c2.64,12.56,13.78,22,27.13,22,15.32,0,27.74-12.42,27.74-27.74s-12.42-27.74-27.74-27.74Zm-531.34,28.51c-1.44,4.86-5.9,8.45-11.23,8.45-6.49,0-11.77-5.28-11.77-11.77s5.28-11.77,11.77-11.77c5.33,0,9.79,3.58,11.23,8.45v6.64Zm531.34,11.2c-6.6,0-11.97-5.37-11.97-11.97s5.37-11.97,11.97-11.97,11.97,5.37,11.97,11.97-5.37,11.97-11.97,11.97Z"/>
          </g>
          <g>
            <path class="cls-10" d="m1982.74,367.34c0,7.26-3.63,10.89-10.89,10.89h-37.17c-7.06,0-10.59-3.63-10.59-10.89v-97.33c0-7.31,3.53-10.97,10.59-10.97h37.17c7.26,0,10.89,3.66,10.89,10.97v27.88h-17.75v-23.53h-23.08v88.58h23.08v-25.06h17.75v29.47Z"/>
            <path class="cls-10" d="m2065.56,378.23h-18.58l-19.65-55.37v-10.74h17.52v-37.78h-22.47v103.88h-17.82v-119.19h47.3c7.16,0,10.74,3.66,10.74,10.97v43.34c0,5.03-1.7,8.28-5.1,9.75-1.83.76-5.69,1.14-11.58,1.14l19.65,54Z"/>
            <path class="cls-10" d="m2133.68,378.23h-49.43v-119.19h48.97v15.76h-31.15v34.81h26.81v15.46h-26.81v37.4h31.61v15.77Z"/>
            <path class="cls-10" d="m2214.06,378.23h-17.67l-3.58-22.62h-22.32l-3.58,22.62h-17.59v-.3l23.08-119.04h18.74l22.92,119.34Zm-23.76-37.93l-8.68-53.77-8.76,53.77h17.44Z"/>
            <path class="cls-10" d="m2283.63,274.8h-19.65v103.43h-17.75v-103.43h-19.65v-15.76h57.05v15.76Z"/>
            <path class="cls-10" d="m2318.61,378.23h-17.82v-119.19h17.82v119.19Z"/>
            <path class="cls-10" d="m2400.36,259.04l-22.85,119.34h-17.75l-22.77-119.34h17.9l13.33,81.72c.1,2.34.25,5.74.46,10.21-.05-2.33.1-5.74.46-10.21l13.4-81.72h17.82Z"/>
            <path class="cls-10" d="m2436.34,378.23h-17.82v-119.19h17.82v119.19Z"/>
            <path class="cls-10" d="m2510.56,274.8h-19.65v103.43h-17.75v-103.43h-19.65v-15.76h57.05v15.76Z"/>
            <path class="cls-10" d="m2587.36,259.72l-15.77,49.81c-1.93,4.92-4.54,13.23-7.84,24.9v43.79h-17.9v-43.79c-.81-3.96-1.98-8.15-3.5-12.57-2.69-7.57-4.14-11.68-4.34-12.34l-15.69-49.81c-.05-.05-.05-.28,0-.69h18.35l14.24,51.79,14.17-51.79h18.28v.69Z"/>
          </g>
          <g>
            <path class="cls-10" d="m1067.16,1338.35c0,5.46-2.75,8.19-8.25,8.19h-28.48c-5.43,0-8.14-2.73-8.14-8.19v-81.48h13.41v78.16h18.05v-78.16h13.41v81.48Z"/>
            <path class="cls-10" d="m1129.24,1346.54h-11.75l-21.49-56.44c.57,2.75.86,4.91.86,6.48v49.97h-13.06v-89.68h11.75l21.49,55.3c-.57-2.75-.86-4.91-.86-6.47v-48.82h13.06v89.68Z"/>
            <path class="cls-10" d="m1159.52,1346.54h-13.41v-89.68h13.41v89.68Z"/>
            <path class="cls-10" d="m1227.68,1346.66h-.92l-6.02-4.58c-1.07,2.98-3.5,4.47-7.28,4.47h-29.11c-5.31,0-7.97-2.73-7.97-8.19v-73.23c0-5.5,2.71-8.25,8.14-8.25h28.94c5.42,0,8.14,2.75,8.14,8.25v64.87l6.07,4.36v12.32Zm-19.48-11.63v-3.15l-7.85-5.96v-12.21h.8l7.05,5.27v-50.6h-18.39v66.64h18.39Z"/>
            <path class="cls-10" d="m1284.89,1338.35c0,5.46-2.75,8.19-8.25,8.19h-28.48c-5.43,0-8.14-2.73-8.14-8.19v-81.48h13.41v78.16h18.05v-78.16h13.41v81.48Z"/>
            <path class="cls-10" d="m1338.72,1346.54h-37.19v-89.68h36.85v11.86h-23.44v26.19h20.17v11.63h-20.17v28.14h23.78v11.86Z"/>
          </g>
          <g>
            <rect class="cls-1" x="1213.19" y="510.86" width="650" height="650"/>
            <g>
              <g>
                <rect class="cls-26" x="1480.34" y="982.23" width="119.88" height="43.21"/>
                <path class="cls-26" d="m1600.59,727.35l-51.24-81.08h-1.39c-2.46,0-4.45,1.99-4.45,4.45v134.93c0,4.08,2.52,7.65,6.25,9.3,10.03,4.43,17.05,14.44,17.09,26.1.05,15.09-12,27.89-27.07,28.7-16.53.88-30.22-12.26-30.22-28.6,0-11.7,7.02-21.75,17.08-26.19,3.74-1.65,6.25-5.24,6.25-9.33v-134.9c0-2.46-1.99-4.45-4.45-4.45h-1.39l-51.24,81.08-45.46,70.02c-8.85,13.63-10.45,30.72-4.29,45.76l53.59,130.73h117.1l53.59-130.73c6.16-15.03,4.56-32.13-4.29-45.76l-45.46-70.02Z"/>
              </g>
              <path class="cls-26" d="m1605.29,986.94h-130.32c-1.64,0-2.96-1.33-2.96-2.96h0c0-1.64,1.33-2.96,2.96-2.96h130.32c1.64,0,2.96,1.33,2.96,2.96h0c0,1.64-1.33,2.96-2.96,2.96Z"/>
            </g>
          </g>
          <g>
            <g>
              <rect class="cls-26" x="2223.02" y="1033.35" width="96.53" height="216.04" transform="translate(882.32 3270.28) rotate(-83.56)"/>
              <rect class="cls-14" x="2156.65" y="1110.04" width="82.46" height="46.08" transform="translate(825.45 3190.02) rotate(-83.56)"/>
              <rect class="cls-18" x="2211.13" y="1116.19" width="82.47" height="46.08" transform="translate(867.61 3249.55) rotate(-83.56)"/>
              <rect class="cls-24" x="2265.61" y="1122.34" width="82.47" height="46.08" transform="translate(909.99 3309.24) rotate(-83.56)"/>
              <path d="m2357.54,1138.5c6.87.78,11.82,6.98,11.04,13.85-.78,6.88-6.98,11.82-13.85,11.04-6.87-.78-11.81-6.98-11.04-13.85.78-6.87,6.97-11.81,13.84-11.04Z"/>
            </g>
            <g>
              <polygon class="cls-26" points="2398.47 1118.54 2353.99 1204.22 2162.25 1104.66 2206.73 1018.98 2398.47 1118.54"/>
              <rect class="cls-16" x="2173.56" y="1054.52" width="82.47" height="46.09" transform="translate(237.76 2546.49) rotate(-62.56)"/>
              <rect class="cls-5" x="2222.23" y="1079.79" width="82.46" height="46.08" transform="translate(241.72 2603.51) rotate(-62.56)"/>
              <rect class="cls-6" x="2270.89" y="1105.05" width="82.47" height="46.09" transform="translate(245.46 2660.22) rotate(-62.56)"/>
              <path d="m2361.9,1139.84c6.14,3.19,8.53,10.75,5.35,16.89-3.19,6.13-10.75,8.52-16.89,5.34-6.13-3.19-8.52-10.75-5.34-16.88,3.19-6.14,10.74-8.53,16.88-5.34Z"/>
            </g>
            <g>
              <rect class="cls-26" x="2263.11" y="971.22" width="96.54" height="216.05" transform="translate(-217.55 1413.5) rotate(-32.56)"/>
              <rect class="cls-22" x="2230.38" y="993.94" width="82.47" height="46.09" transform="translate(-190.29 1382.4) rotate(-32.56)"/>
              <rect class="cls-27" x="2259.89" y="1040.16" width="82.47" height="46.08" transform="translate(-210.52 1405.54) rotate(-32.56)"/>
              <rect class="cls-11" x="2289.4" y="1086.37" width="82.47" height="46.08" transform="translate(-230.76 1428.64) rotate(-32.56)"/>
              <path d="m2367.88,1144.47c3.72,5.83,2.01,13.57-3.81,17.29-5.83,3.72-13.57,2.01-17.29-3.82-3.73-5.83-2.01-13.57,3.81-17.28,5.83-3.72,13.58-2.03,17.29,3.81Z"/>
            </g>
          </g>
          <g>
            <g>
              <path class="cls-23" d="m840.35,1401.16l-14.86-15.88-132.88,124.3,14.86,15.88,132.88-124.3Zm-16.44-6.35c1.15-1.07,2.94-1.01,4.02.13,1.07,1.15,1.01,2.95-.13,4.02-1.15,1.07-2.94,1.01-4.02-.13-1.07-1.15-1.01-2.94.13-4.02Z"/>
              <g>
                <rect class="cls-7" x="828.42" y="1400.76" width="11.77" height="5.1" transform="translate(-733.64 948.45) rotate(-43.09)"/>
                <rect class="cls-9" x="828.95" y="1405.2" width="1.23" height="5.1" transform="translate(-738.15 947.07) rotate(-43.11)"/>
              </g>
              <g>
                <rect class="cls-7" x="818.93" y="1409.64" width="11.77" height="5.1" transform="translate(-742.25 944.32) rotate(-43.09)"/>
                <rect class="cls-9" x="819.45" y="1414.08" width="1.23" height="5.1" transform="translate(-746.21 941.1) rotate(-43.05)"/>
              </g>
              <g>
                <rect class="cls-7" x="809.44" y="1418.52" width="11.76" height="5.1" transform="translate(-750.93 940.41) rotate(-43.1)"/>
                <rect class="cls-9" x="809.96" y="1422.96" width="1.23" height="5.1" transform="translate(-754.55 936.14) rotate(-43.01)"/>
              </g>
              <g>
                <rect class="cls-7" x="799.95" y="1427.4" width="11.76" height="5.1" transform="translate(-759.54 936.27) rotate(-43.09)"/>
                <rect class="cls-9" x="800.47" y="1431.84" width="1.23" height="5.1" transform="translate(-763.44 932.92) rotate(-43.05)"/>
              </g>
              <g>
                <rect class="cls-7" x="790.46" y="1436.28" width="11.76" height="5.1" transform="translate(-768.16 932.16) rotate(-43.09)"/>
                <rect class="cls-9" x="790.98" y="1440.71" width="1.23" height="5.1" transform="translate(-772.34 929.7) rotate(-43.08)"/>
              </g>
              <g>
                <rect class="cls-7" x="780.97" y="1445.15" width="11.77" height="5.1" transform="translate(-776.74 927.93) rotate(-43.09)"/>
                <rect class="cls-9" x="781.49" y="1449.59" width="1.23" height="5.1" transform="translate(-780.96 925.61) rotate(-43.08)"/>
              </g>
              <g>
                <rect class="cls-7" x="771.48" y="1454.03" width="11.76" height="5.1" transform="translate(-785.39 923.93) rotate(-43.09)"/>
                <rect class="cls-9" x="772" y="1458.47" width="1.23" height="5.1" transform="translate(-789.58 921.52) rotate(-43.08)"/>
              </g>
              <g>
                <rect class="cls-7" x="761.98" y="1462.91" width="11.77" height="5.1" transform="translate(-794.03 919.88) rotate(-43.09)"/>
                <rect class="cls-9" x="762.51" y="1467.35" width="1.23" height="5.1" transform="translate(-798.39 917.96) rotate(-43.1)"/>
              </g>
              <g>
                <rect class="cls-7" x="752.49" y="1471.79" width="11.76" height="5.1" transform="translate(-802.61 915.64) rotate(-43.09)"/>
                <rect class="cls-9" x="753.01" y="1476.23" width="1.23" height="5.1" transform="translate(-806.32 911.94) rotate(-43.03)"/>
              </g>
              <g>
                <rect class="cls-7" x="743" y="1480.67" width="11.76" height="5.1" transform="translate(-811.32 911.79) rotate(-43.1)"/>
                <rect class="cls-9" x="743.52" y="1485.11" width="1.23" height="5.1" transform="translate(-815.82 910.26) rotate(-43.11)"/>
              </g>
              <g>
                <rect class="cls-7" x="733.51" y="1489.55" width="11.77" height="5.1" transform="translate(-819.88 907.52) rotate(-43.09)"/>
                <rect class="cls-9" x="734.03" y="1493.99" width="1.23" height="5.1" transform="translate(-823.74 904.3) rotate(-43.05)"/>
              </g>
              <g>
                <rect class="cls-7" x="724.02" y="1498.42" width="11.76" height="5.1" transform="translate(-828.48 903.37) rotate(-43.09)"/>
                <rect class="cls-9" x="724.54" y="1502.86" width="1.23" height="5.1" transform="translate(-833.36 902.79) rotate(-43.14)"/>
              </g>
              <g>
                <rect class="cls-7" x="714.53" y="1507.3" width="11.76" height="5.1" transform="translate(-837.09 899.25) rotate(-43.09)"/>
                <rect class="cls-9" x="715.05" y="1511.74" width="1.23" height="5.1" transform="translate(-841.74 898.05) rotate(-43.12)"/>
              </g>
              <g>
                <rect class="cls-7" x="705.04" y="1516.18" width="11.77" height="5.1" transform="translate(-845.75 895.24) rotate(-43.09)"/>
                <rect class="cls-9" x="705.55" y="1520.62" width="1.23" height="5.1" transform="translate(-849.74 892.41) rotate(-43.06)"/>
              </g>
            </g>
            <g>
              <path class="cls-15" d="m700.2,1389.09l22.66,22.66,1.15,1.55c2.28-1.46,5.34-1.2,7.33.79,2.3,2.3,2.3,6.02,0,8.32-2.3,2.3-6.02,2.3-8.32,0-1.97-1.97-2.24-4.99-.82-7.26l-1.58-1.16-22.66-22.66s10.32,35.88,15.04,40.6c4.73,4.73,23.01,8.77,23.01,8.77l6.81-6.81,6.81-6.81s-4.05-18.28-8.77-23.01c-4.73-4.73-40.66-14.99-40.66-14.99Z"/>
              <path class="cls-26" d="m739.56,1442.78l55.82,60.44c4.68,4.68,12.27,4.68,16.95,0,4.68-4.68,4.68-12.27,0-16.96l-60.44-55.82-12.33,12.33Z"/>
            </g>
            <g>
              <g>
                <path class="cls-10" d="m687.73,1385.81c-15.94,15.1-23.75,36.91-21.04,58.71.9-.73,1.84-1.01,2.74-.98-2.39-20.82,5.2-41.59,20.52-55.94-.9-.34-1.67-1-2.22-1.79Z"/>
                <path class="cls-10" d="m757.1,1370.41c-21.36-7.09-44.81-3.36-62.88,9.99.69.69,1.19,1.57,1.36,2.51,17.38-13,40.02-16.67,60.63-9.82-.05-.91.21-1.84.88-2.68Z"/>
              </g>
              <path class="cls-10" d="m676.71,1449.62l-8.17,6.81-6.81-8.17,8.17-6.81,6.81,8.17Zm-7.81,2.84l3.84-3.2-3.2-3.84-3.84,3.2,3.2,3.84Z"/>
              <path class="cls-10" d="m767.78,1373.77l-8.17,6.81-6.81-8.17,8.17-6.81,6.81,8.17Zm-7.81,2.84l3.84-3.2-3.2-3.84-3.84,3.2,3.2,3.84Z"/>
              <path class="cls-10" d="m698.86,1384.58l-8.17,6.81-6.81-8.17,8.17-6.81,6.81,8.17Zm-7.81,2.84l3.84-3.2-3.2-3.84-3.84,3.2,3.2,3.84Z"/>
              <rect class="cls-10" x="639.98" y="1402.54" width="54.63" height="2.82" transform="translate(-743.94 752.21) rotate(-39.79)"/>
              <circle class="cls-10" cx="646.3" cy="1421.43" r="3.91"/>
              <rect class="cls-10" x="688.12" y="1362.44" width="54.63" height="2.82" transform="translate(-707.13 773.74) rotate(-39.79)"/>
              <path class="cls-10" d="m733.43,1348.87c1.38,1.66,3.85,1.88,5.51.5,1.66-1.38,1.88-3.85.5-5.51-1.38-1.66-3.85-1.88-5.51-.5-1.66,1.38-1.88,3.85-.5,5.51Z"/>
            </g>
          </g>
          <g>
            <g>
              <path class="cls-9" d="m1557.3,1647.99c-1.36,0-2.64-.53-3.6-1.49-.96-.96-1.49-2.24-1.49-3.6,0-1.36.53-2.64,1.49-3.6l3.78-3.78c-2.02-4.92-.93-10.59,2.84-14.36l61.17-61.17c2.5-2.5,5.83-3.88,9.36-3.88s6.85,1.38,9.35,3.88c2.5,2.5,3.88,5.82,3.88,9.36s-1.38,6.86-3.88,9.36l-61.17,61.17c-2.48,2.48-5.78,3.84-9.29,3.84h0c-1.73,0-3.47-.34-5.07-1l-3.78,3.78c-.96.96-2.24,1.49-3.6,1.49Z"/>
              <path class="cls-7" d="m1630.85,1557.33c3.07,0,6.15,1.17,8.49,3.52,4.7,4.69,4.7,12.3,0,16.99l-61.17,61.17c-2.33,2.33-5.37,3.49-8.42,3.49-1.83,0-3.66-.42-5.34-1.24l-4.38,4.38c-.76.76-1.75,1.14-2.74,1.14s-1.98-.38-2.74-1.13c-1.51-1.51-1.51-3.96,0-5.47l4.37-4.38c-2.2-4.49-1.48-10.03,2.25-13.76l61.17-61.17c2.35-2.35,5.42-3.52,8.5-3.52m0-2.44c-3.86,0-7.49,1.5-10.22,4.24l-61.17,61.17c-3.93,3.92-5.2,9.73-3.4,14.92l-3.22,3.22c-1.19,1.19-1.85,2.78-1.85,4.46,0,1.69.65,3.27,1.85,4.46,1.19,1.19,2.78,1.85,4.46,1.85s3.27-.66,4.47-1.85l3.23-3.22c1.53.53,3.15.8,4.76.8,3.84,0,7.44-1.49,10.15-4.2l61.17-61.17c2.73-2.73,4.24-6.36,4.24-10.22s-1.51-7.49-4.24-10.22c-2.73-2.73-6.36-4.23-10.22-4.23h0Z"/>
            </g>
            <path class="cls-10" d="m1570.25,1612.95l-9.07,9.07c-3.73,3.73-4.44,9.28-2.25,13.76l-4.37,4.38c-1.51,1.51-1.51,3.96,0,5.47,1.51,1.51,3.96,1.51,5.48,0l4.38-4.38c4.48,2.2,10.03,1.48,13.76-2.25l9.07-9.07-16.98-16.99Z"/>
            <rect class="cls-26" x="1624.24" y="1545.88" width="13.08" height="47.07" transform="translate(-632.1 1612.78) rotate(-45)"/>
            <path class="cls-26" d="m1641.9,1577l17.65-17.65c5.16-5.16,5.16-13.54,0-18.71-5.17-5.16-13.54-5.16-18.71,0l-17.65,17.65,18.71,18.71Z"/>
          </g>
          <g>
            <g>
              <path d="m397.1,956.53c13.25,0,23.99,9.23,23.99,20.6v7.66c0,11.38-10.74,20.6-23.99,20.61h0c-13.24,0-23.98-9.23-23.98-20.61v-7.66c0-11.38,10.74-20.6,23.98-20.6h0Z"/>
              <path class="cls-10" d="m449.08,901.37c0-28.73-23.28-52.01-52.01-52.01s-52.01,23.28-52.01,52.01c0,9.8,2.76,18.93,7.47,26.76l-.04-.02s20.56,33.9,20.56,47.96h48.03c0-14.06,20.55-47.96,20.55-47.96l-.03.02c4.71-7.83,7.47-16.95,7.47-26.75Z"/>
              <g>
                <rect x="374.55" y="906.77" width="4.52" height="75.44" transform="translate(-228.16 127.14) rotate(-14.76)"/>
                <path d="m373.12,908.01c0,3.26-2.65,5.92-5.92,5.92s-5.91-2.65-5.91-5.92,2.65-5.92,5.91-5.92,5.92,2.65,5.92,5.92Z"/>
              </g>
              <g>
                <rect x="375.79" y="942.23" width="75.44" height="4.52" transform="translate(-605.15 1103.82) rotate(-75.24)"/>
                <path d="m417.21,908.01c0,3.26,2.65,5.92,5.91,5.92s5.91-2.65,5.91-5.92-2.65-5.92-5.91-5.92-5.91,2.65-5.91,5.92Z"/>
              </g>
            </g>
            <path class="cls-10" d="m397.1,829.33c-8.07-9.98-8.12-25.95,0-35.92,8.12,9.97,8.07,25.94,0,35.92h0Z"/>
            <path class="cls-10" d="m436.64,840.4c-2-12.68,5.94-26.53,17.96-31.11,2.05,12.69-5.98,26.49-17.96,31.11h0Z"/>
            <path class="cls-10" d="m465.34,869.75c4.61-11.98,18.41-20.01,31.1-17.96-4.57,12.02-18.42,19.95-31.1,17.96h0Z"/>
            <path class="cls-10" d="m475.53,909.53c9.98-8.07,25.94-8.12,35.92,0-9.97,8.12-25.93,8.07-35.92,0h0Z"/>
            <path class="cls-10" d="m436.64,840.4c-2-12.68,5.94-26.53,17.96-31.11,2.05,12.69-5.98,26.49-17.96,31.11h0Z"/>
            <path class="cls-10" d="m465.34,869.75c4.61-11.98,18.41-20.01,31.1-17.96-4.57,12.02-18.42,19.95-31.1,17.96h0Z"/>
            <path class="cls-10" d="m475.53,909.53c9.98-8.07,25.94-8.12,35.92,0-9.97,8.12-25.93,8.07-35.92,0h0Z"/>
            <path class="cls-10" d="m357.57,840.4c-11.98-4.61-20-18.41-17.96-31.11,12.02,4.57,19.95,18.43,17.96,31.11h0Z"/>
            <path class="cls-10" d="m328.86,869.75c-12.68,2-26.53-5.94-31.11-17.96,12.69-2.05,26.49,5.98,31.11,17.96h0Z"/>
            <path class="cls-10" d="m318.67,909.53c-9.98,8.07-25.94,8.12-35.91,0,9.97-8.12,25.93-8.07,35.91,0h0Z"/>
          </g>
          <path class="cls-26" d="m2533.98,1395.46h-31.19l-10.11-37.74c2.63-3.58,4.21-8,4.21-12.79,0-10.03-6.84-18.44-16.11-20.88v-16.22h-11v16.22c-9.27,2.45-16.12,10.86-16.12,20.88,0,4.79,1.58,9.19,4.21,12.78l-10.12,37.75h-31.18v2.2h30.58l-16.18,60.39,4.45,10.31,9.02-6.7,17.15-64h27.35l17.16,64.05,2.84-.76,1.04,3.9,2.85-.76,2.07,7.74,2.12-.57-2.07-7.74,2.83-.76-1.04-3.9,2.85-.76-16.2-60.44h30.59v-2.2Zm-58.69-62.58c6.66,0,12.05,5.4,12.05,12.05s-5.39,12.05-12.05,12.05-12.05-5.4-12.05-12.05,5.4-12.05,12.05-12.05Zm-13.09,62.58l7.93-29.56c1.65.41,3.38.65,5.17.65s3.5-.25,5.16-.65l7.92,29.56h-26.17Z"/>
          <g>
            <path class="cls-26" d="m355.52,223.22v18.56h18.56v-18.56h-18.56Zm13.92,13.92h-9.28v-9.28h9.28v9.28Z"/>
            <path class="cls-26" d="m355.52,371.66v18.56h18.56v-18.56h-18.56Zm13.92,13.92h-9.28v-9.28h9.28v9.28Z"/>
            <path class="cls-26" d="m503.97,223.22v18.56h18.56v-18.56h-18.56Zm13.92,13.92h-9.28v-9.28h9.28v9.28Z"/>
            <path class="cls-26" d="m503.97,371.66v18.56h18.56v-18.56h-18.56Zm13.92,13.92h-9.28v-9.28h9.28v9.28Z"/>
            <g>
              <line class="cls-3" x1="383.36" y1="232.49" x2="383.36" y2="232.49"/>
              <line class="cls-4" x1="397.27" y1="232.49" x2="487.73" y2="232.49"/>
              <line class="cls-3" x1="494.69" y1="232.49" x2="494.69" y2="232.49"/>
            </g>
            <g>
              <line class="cls-3" x1="513.24" y1="251.05" x2="513.24" y2="251.05"/>
              <line class="cls-4" x1="513.24" y1="264.97" x2="513.24" y2="355.42"/>
              <line class="cls-3" x1="513.24" y1="362.38" x2="513.24" y2="362.38"/>
            </g>
            <g>
              <line class="cls-3" x1="494.69" y1="380.94" x2="494.69" y2="380.94"/>
              <line class="cls-4" x1="480.77" y1="380.94" x2="390.31" y2="380.94"/>
              <line class="cls-3" x1="383.36" y1="380.94" x2="383.36" y2="380.94"/>
            </g>
            <g>
              <line class="cls-3" x1="364.8" y1="362.38" x2="364.8" y2="362.38"/>
              <line class="cls-4" x1="364.8" y1="348.47" x2="364.8" y2="258.01"/>
              <line class="cls-3" x1="364.8" y1="251.05" x2="364.8" y2="251.05"/>
            </g>
            <path class="cls-10" d="m476.4,290.22h-4.24c-1.12-3.3-2.92-6.83-5.4-10.6-2.48-3.77-4.77-5.8-6.86-6.09-1.16-.14-2.58-.27-4.28-.38-1.7-.11-3.16-.16-4.39-.16h-2.55v60.51c0,1.3.24,2.46.71,3.45.47,1,1.4,1.78,2.77,2.36.83.33,2.13.66,3.89,1.01,1.76.34,3.25.59,4.48.73v4.24h-43v-4.24c1.05-.11,2.53-.26,4.43-.46,1.9-.2,3.2-.44,3.89-.73,1.41-.58,2.36-1.36,2.83-2.34.47-.98.71-2.14.71-3.48v-61.05h-2.55c-1.23,0-2.7.05-4.39.16-1.7.11-3.13.24-4.28.38-2.1.29-4.39,2.32-6.86,6.09-2.48,3.77-4.27,7.3-5.4,10.6h-4.24v-22.07h74.75v22.07Z"/>
          </g>
          <g>
            <g>
              <rect class="cls-26" x="904.02" y="329.96" width="128" height="160"/>
              <rect class="cls-7" x="912.02" y="337.96" width="112" height="112"/>
              <polygon class="cls-13" points="968.02 361.96 978.54 383.27 1002.05 386.68 985.04 403.27 989.05 426.68 968.02 415.63 946.99 426.68 951.01 403.27 934 386.68 957.51 383.27 968.02 361.96"/>
            </g>
            <rect class="cls-8" x="928.02" y="353.96" width="104" height="136"/>
            <g>
              <rect class="cls-26" x="936.02" y="361.96" width="128" height="160"/>
              <rect class="cls-19" x="944.02" y="369.96" width="112" height="112"/>
              <polygon class="cls-21" points="1048.02 481.96 1008.02 401.96 968.02 481.96 1048.02 481.96"/>
              <polygon class="cls-20" points="952.02 481.96 976.02 433.96 1000.02 481.96 952.02 481.96"/>
              <polygon class="cls-26" points="968.02 449.96 984.02 449.96 976.02 433.96 968.02 449.96"/>
              <polygon class="cls-26" points="1016.02 417.96 1000.02 417.96 1008.02 401.96 1016.02 417.96"/>
              <path d="m1008.02,457.96c-4.42,0-8,3.58-8,8v16h16v-16c0-4.42-3.58-8-8-8Z"/>
            </g>
            <rect class="cls-8" x="960.02" y="385.96" width="104" height="136"/>
            <g>
              <rect class="cls-26" x="968.02" y="393.96" width="128" height="160"/>
              <rect class="cls-17" x="976.02" y="401.96" width="112" height="112"/>
              <rect class="cls-12" x="976.02" y="489.96" width="112" height="24"/>
              <polygon points="1056.02 489.96 1008.02 489.96 1000.02 473.96 1064.02 473.96 1056.02 489.96"/>
              <line class="cls-2" x1="1032.02" y1="425.96" x2="1032.02" y2="473.96"/>
              <rect class="cls-26" x="1016.02" y="433.96" width="32" height="32"/>
            </g>
          </g>
        </g>
      </g>
    </g>
  </g>
</svg>