<?xml version="1.0" encoding="UTF-8"?>
<svg id="Layer_2" data-name="Layer 2" xmlns="http://www.w3.org/2000/svg" viewBox="0 0 205 307.5">
  <defs>
    <style>
      .cls-1 {
        fill: #f24e1e;
      }

      .cls-2 {
        fill: #ff7262;
      }

      .cls-3 {
        fill: #a259ff;
      }

      .cls-4 {
        fill: #0acf83;
      }

      .cls-5 {
        fill: #1abcfe;
      }
    </style>
  </defs>
  <g id="Layer_1-2" data-name="Layer 1">
    <g>
      <path class="cls-4" d="m0,256.25c0-28.3,22.94-51.25,51.25-51.25h51.25v51.25c0,28.3-22.95,51.25-51.25,51.25S0,284.55,0,256.25Z"/>
      <path class="cls-5" d="m102.5,153.75c0-28.3,22.95-51.25,51.25-51.25s51.25,22.95,51.25,51.25-22.95,51.25-51.25,51.25-51.25-22.95-51.25-51.25Z"/>
      <path class="cls-3" d="m0,153.75c0,28.3,22.94,51.25,51.25,51.25h51.25v-102.5h-51.25C22.94,102.5,0,125.45,0,153.75Z"/>
      <path class="cls-2" d="m102.5,0v102.5h51.25c28.3,0,51.25-22.94,51.25-51.25S182.05,0,153.75,0h-51.25Z"/>
      <path class="cls-1" d="m0,51.25c0,28.31,22.94,51.25,51.25,51.25h51.25V0h-51.25C22.94,0,0,22.95,0,51.25Z"/>
    </g>
  </g>
</svg>