<?xml version="1.0" encoding="UTF-8"?>
<svg id="Layer_2" data-name="Layer 2" xmlns="http://www.w3.org/2000/svg" viewBox="0 0 1148.97 180">
  <defs>
    <style>
      .cls-1 {
        fill: #fbbc05;
      }

      .cls-2 {
        fill: #ea4335;
      }

      .cls-3 {
        fill: #4285f4;
      }

      .cls-4 {
        fill: #34a853;
      }

      .cls-5 {
        fill: #5f6368;
      }
    </style>
  </defs>
  <g id="Layer_1-2" data-name="Layer 1">
    <g>
      <path class="cls-2" d="m135.15,47.2h6.5l18.51-18.51.91-7.86C126.61-9.59,74.02-6.31,43.61,28.15c-8.45,9.57-14.58,20.96-17.92,33.28,2.06-.85,4.35-.98,6.5-.39l37.03-6.11s1.88-3.12,2.86-2.92c16.47-18.09,44.19-20.2,63.21-4.81h-.13Z"/>
      <path class="cls-3" d="m186.53,61.43c-4.26-15.67-12.99-29.76-25.14-40.53l-25.98,25.98c10.97,8.97,17.22,22.47,16.95,36.64v4.61c12.77,0,23.13,10.35,23.13,23.13s-10.35,23.13-23.13,23.13h-46.25l-4.61,4.68v27.74l4.61,4.61h46.25c33.22.26,60.36-26.46,60.62-59.68.16-20.13-9.77-39.01-26.45-50.29Z"/>
      <path class="cls-4" d="m59.79,171.14h46.25v-37.03h-46.25c-3.3,0-6.55-.71-9.55-2.08l-6.5,2.01-18.64,18.51-1.62,6.5c10.45,7.89,23.21,12.14,36.31,12.08Z"/>
      <path class="cls-1" d="m59.79,51.03C26.57,51.23-.2,78.32,0,111.54c.11,18.55,8.77,36.01,23.48,47.32l26.83-26.83c-11.64-5.26-16.81-18.96-11.55-30.6,5.26-11.64,18.96-16.81,30.6-11.55,5.13,2.32,9.24,6.42,11.55,11.55l26.83-26.83c-11.41-14.92-29.15-23.65-47.94-23.58Z"/>
      <path class="cls-5" d="m336.13,145.29c-16.09.2-31.57-6.15-42.87-17.6-11.67-10.97-18.19-26.34-17.99-42.35-.19-16.01,6.33-31.38,17.99-42.35,11.25-11.57,26.74-18.05,42.87-17.93,15.37-.2,30.18,5.76,41.12,16.56l-11.56,11.76c-7.92-7.65-18.55-11.86-29.56-11.69-11.55-.14-22.63,4.57-30.53,12.99-8.21,8.15-12.74,19.29-12.54,30.86-.1,11.43,4.42,22.41,12.54,30.47,16.73,16.67,43.69,16.99,60.8.71,5.1-5.58,8.22-12.68,8.9-20.2h-38.98v-16.63h55.15c.54,3.35.76,6.74.65,10.13.69,14.18-4.45,28.03-14.23,38.33-10.88,11.33-26.07,17.49-41.77,16.95Zm128.23-11.04c-15.38,14.74-39.64,14.74-55.02,0-7.45-7.22-11.53-17.24-11.24-27.61-.28-10.37,3.8-20.38,11.24-27.61,15.39-14.71,39.63-14.71,55.02,0,7.44,7.23,11.52,17.24,11.24,27.61.27,10.38-3.83,20.4-11.3,27.61h.06Zm-42.87-10.85c7.95,8.48,21.26,8.92,29.75.98.34-.31.66-.64.98-.98,4.34-4.48,6.68-10.53,6.5-16.76.19-6.25-2.15-12.32-6.5-16.82-8.17-8.52-21.7-8.81-30.22-.64-.22.21-.43.42-.64.64-4.35,4.5-6.69,10.57-6.5,16.82-.17,6.24,2.2,12.29,6.56,16.76h.06Zm127.45,10.85c-15.38,14.74-39.64,14.74-55.02,0-7.45-7.22-11.53-17.24-11.24-27.61-.28-10.37,3.8-20.38,11.24-27.61,15.38-14.74,39.64-14.74,55.02,0,7.44,7.23,11.52,17.24,11.24,27.61.29,10.37-3.79,20.39-11.24,27.61Zm-42.87-10.85c7.95,8.48,21.26,8.92,29.75.98.34-.31.66-.64.98-.98,4.34-4.48,6.68-10.53,6.5-16.76.19-6.25-2.15-12.32-6.5-16.82-8.17-8.52-21.7-8.81-30.22-.64-.22.21-.43.42-.64.64-4.35,4.5-6.69,10.57-6.5,16.82-.17,6.24,2.2,12.29,6.56,16.76h.06Zm98.48,56.58c-7.79.25-15.42-2.18-21.63-6.89-5.51-4.15-9.86-9.65-12.6-15.98l14.81-6.17c1.61,3.78,4.13,7.11,7.34,9.68,3.43,2.77,7.74,4.22,12.15,4.09,5.66.34,11.18-1.79,15.14-5.85,3.91-4.72,5.85-10.77,5.39-16.89v-5.59h-.58c-5.02,5.96-12.55,9.21-20.33,8.77-9.86.03-19.28-4.07-25.98-11.3-7.27-7.17-11.28-17.01-11.11-27.22-.18-10.27,3.83-20.17,11.11-27.41,6.68-7.26,16.11-11.39,25.98-11.37,4.13,0,8.21.9,11.95,2.66,3.23,1.41,6.12,3.52,8.44,6.17h.58v-6.17h16.11v69.18c.86,11.06-2.88,21.99-10.33,30.21-7.09,6.79-16.63,10.42-26.44,10.07Zm1.17-49.89c5.62.12,11-2.26,14.68-6.5,4.01-4.59,6.12-10.54,5.91-16.63.24-6.2-1.87-12.25-5.91-16.95-3.68-4.25-9.06-6.63-14.68-6.5-5.76-.12-11.3,2.25-15.2,6.5-4.3,4.53-6.63,10.58-6.5,16.82-.13,6.19,2.2,12.17,6.5,16.63,3.88,4.29,9.42,6.7,15.2,6.63Zm64.24-100.69v113.55h-16.95V29.4h16.95Zm46.51,115.89c-10.26.26-20.17-3.76-27.35-11.11-7.28-7.29-11.24-17.25-10.98-27.54-.39-10.32,3.43-20.36,10.59-27.8,6.75-7.11,16.18-11.05,25.98-10.85,4.46-.05,8.88.81,12.99,2.53,3.71,1.5,7.08,3.7,9.94,6.5,2.45,2.37,4.63,5,6.5,7.86,1.51,2.41,2.79,4.95,3.83,7.6l1.75,4.42-51.97,21.37c3.22,7.39,10.65,12.04,18.71,11.69,7.79.02,15.01-4.05,19.03-10.72l12.99,8.77c-3.32,4.74-7.56,8.77-12.47,11.82-5.84,3.69-12.64,5.59-19.55,5.46Zm-21.7-39.82l34.56-14.36c-1.06-2.53-2.97-4.62-5.39-5.91-2.71-1.53-5.78-2.32-8.9-2.27-5.29.14-10.31,2.35-13.97,6.17-4.44,4.24-6.75,10.25-6.3,16.37Z"/>
      <path class="cls-5" d="m838.53,145.29c-29.56.51-53.93-23.04-54.44-52.59-.01-.72-.01-1.44,0-2.17-.69-29.55,22.72-54.07,52.27-54.75.72-.02,1.44-.02,2.17,0,14.78-.46,28.97,5.85,38.52,17.15l-9.35,9.09c-7.02-8.83-17.83-13.78-29.1-13.32-10.81-.24-21.25,3.93-28.91,11.56-7.97,8.01-12.23,18.98-11.76,30.27-.47,11.29,3.79,22.26,11.76,30.27,7.66,7.63,18.1,11.81,28.91,11.56,12.58.14,24.53-5.45,32.48-15.2l9.35,9.35c-4.9,5.86-11.05,10.54-17.99,13.71-7.49,3.46-15.66,5.19-23.91,5.07Z"/>
      <path class="cls-5" d="m905.56,142.95h-13.45V38.04h13.45v104.91Z"/>
      <path class="cls-5" d="m927.52,79.81c14.67-14.57,38.34-14.57,53.01,0,6.96,7.35,10.7,17.17,10.39,27.28.31,10.12-3.43,19.94-10.39,27.28-14.67,14.57-38.34,14.57-53.01,0-6.96-7.35-10.7-17.17-10.39-27.28-.31-10.12,3.43-19.94,10.39-27.28Zm10,46.12c8.61,9.09,22.95,9.49,32.05.89.3-.29.6-.58.89-.89,4.75-5.09,7.25-11.88,6.95-18.84.3-6.96-2.2-13.74-6.95-18.84-8.61-9.09-22.95-9.49-32.05-.89-.3.29-.6.58-.89.89-4.75,5.09-7.25,11.88-6.95,18.84-.27,6.94,2.26,13.71,7.02,18.77l-.07.06Z"/>
      <path class="cls-5" d="m1065.43,142.95h-12.99v-9.94h-.39c-2.31,3.77-5.59,6.87-9.48,8.96-4.05,2.34-8.64,3.58-13.32,3.57-7.69.53-15.2-2.49-20.4-8.18-4.92-6.22-7.39-14.03-6.95-21.96v-44.17h13.45v41.7c0,13.38,5.91,20.07,17.73,20.07,5.33.17,10.41-2.25,13.64-6.5,3.49-4.42,5.34-9.9,5.26-15.53v-39.76h13.45v71.72Z"/>
      <path class="cls-5" d="m1111.1,145.29c-9.23.03-18.01-3.98-24.03-10.98-6.73-7.44-10.34-17.19-10.07-27.22-.27-10.03,3.33-19.78,10.07-27.22,6.02-7,14.8-11.01,24.03-10.98,5.11-.08,10.16,1.13,14.68,3.51,3.97,2,7.34,5.03,9.74,8.77h.58l-.58-9.94v-33.19h13.45v104.91h-12.99v-9.94h-.58c-2.41,3.74-5.77,6.77-9.74,8.77-4.48,2.36-9.48,3.57-14.55,3.51Zm2.21-12.28c6.15.09,12.04-2.47,16.17-7.02,4.57-5.2,6.9-11.99,6.5-18.9.41-6.91-1.93-13.7-6.5-18.9-8.16-8.97-22.05-9.62-31.02-1.46-.51.46-1,.95-1.46,1.46-4.58,5.17-6.92,11.95-6.5,18.84-.42,6.89,1.91,13.67,6.5,18.84,4.14,4.63,10.09,7.24,16.3,7.15Z"/>
    </g>
  </g>
</svg>