<?xml version="1.0" encoding="UTF-8"?>
<svg id="Layer_2" data-name="Layer 2" xmlns="http://www.w3.org/2000/svg" viewBox="0 0 1200 1200">
  <defs>
    <style>
      .cls-1 {
        fill: none;
      }

      .cls-2 {
        fill: #333;
      }
    </style>
  </defs>
  <g id="Layer_1-2" data-name="Layer 1">
    <g>
      <rect class="cls-1" width="1200" height="1200"/>
      <g>
        <g>
          <rect class="cls-2" x="493.2" y="870.22" width="221.32" height="79.78"/>
          <path class="cls-2" d="m715.19,399.68l-94.6-149.68h-2.57c-4.54,0-8.22,3.68-8.22,8.22v249.1c0,7.54,4.65,14.13,11.54,17.17,18.52,8.17,31.47,26.65,31.54,48.18.09,27.85-22.16,51.49-49.97,52.98-30.52,1.63-55.79-22.63-55.79-52.8,0-21.61,12.97-40.16,31.54-48.36,6.91-3.05,11.55-9.67,11.55-17.22v-249.05c0-4.54-3.68-8.22-8.22-8.22h-2.57l-94.6,149.68-83.92,129.27c-16.33,25.16-19.29,56.72-7.91,84.47l98.93,241.35h216.18l98.93-241.35c11.38-27.75,8.42-59.32-7.91-84.47l-83.92-129.27Z"/>
        </g>
        <path class="cls-2" d="m723.88,878.91h-240.6c-3.02,0-5.47-2.45-5.47-5.47h0c0-3.02,2.45-5.47,5.47-5.47h240.6c3.02,0,5.47,2.45,5.47,5.47h0c0,3.02-2.45,5.47-5.47,5.47Z"/>
      </g>
    </g>
  </g>
</svg>