<?xml version="1.0" encoding="UTF-8"?>
<svg id="Layer_2" data-name="Layer 2" xmlns="http://www.w3.org/2000/svg" viewBox="0 0 3100.88 1705.53">
  <defs>
    <style>
      .cls-1 {
        fill: none;
      }

      .cls-2 {
        fill: #999;
      }

      .cls-3 {
        fill: #303030;
      }

      .cls-4 {
        fill: #333;
      }

      .cls-5 {
        fill: #0c53a8;
      }
    </style>
  </defs>
  <g id="Layer_1-2" data-name="Layer 1">
    <g>
      <g id="Circuit_Board" data-name="Circuit Board">
        <path class="cls-3" d="m630.68,1248.73c2.38,12.32,13.24,21.66,26.25,21.66,14.74,0,26.74-12,26.74-26.74s-12-26.75-26.74-26.75c-11.25,0-20.88,6.99-24.83,16.85h-302.28c-3.15-11.86-13.93-20.61-26.78-20.61-15.32,0-27.74,12.42-27.74,27.74s12.42,27.74,27.74,27.74c12.59,0,23.21-8.4,26.59-19.89h301.04Zm-327.64,4.13c-6.6,0-11.97-5.37-11.97-11.97s5.37-11.97,11.97-11.97,11.97,5.37,11.97,11.97-5.37,11.97-11.97,11.97Z"/>
        <path class="cls-3" d="m1323.36,473.22c14.74,0,26.74-12,26.74-26.74,0-12.15-8.15-22.41-19.25-25.66v-197.23l105.9-93.87V54.63c12.08-3,21.04-13.88,21.04-26.89,0-15.32-12.42-27.74-27.74-27.74s-27.74,12.42-27.74,27.74c0,12.43,8.18,22.96,19.46,26.48v68.77l-105.91,93.87v203.97c-11.11,3.25-19.26,13.51-19.26,25.66,0,14.74,12,26.74,26.75,26.74Zm94.72-445.49c0-6.6,5.37-11.97,11.97-11.97s11.97,5.37,11.97,11.97-5.37,11.97-11.97,11.97-11.97-5.37-11.97-11.97Zm-94.72,406.97c6.49,0,11.77,5.28,11.77,11.77s-5.28,11.77-11.77,11.77-11.77-5.28-11.77-11.77,5.28-11.77,11.77-11.77Z"/>
        <polygon class="cls-3" points="341.35 1182.13 341.35 1199.21 391.86 1199.21 391.86 1148.69 341.35 1148.69 341.35 1167.16 157.19 1167.16 157.19 1150.03 106.68 1150.03 106.68 1168.5 106.68 1183.47 106.68 1200.55 157.19 1200.55 157.19 1182.13 341.35 1182.13"/>
        <polygon class="cls-3" points="1528.52 241.26 1508.96 241.26 1508.96 51.25 1493.99 51.25 1493.99 241.26 1478.01 241.26 1478.01 291.78 1528.52 291.78 1528.52 241.26"/>
        <path class="cls-3" d="m2948.58,242.21c-13.24,0-24.3,9.29-27.06,21.71h-287.96v-80.76h-761.15v86.6h-285.24v234.22c-8.6-1.44-17.31-2.55-26.12-3.31V54.84c11.79-3.2,20.47-13.94,20.47-26.74,0-15.32-12.42-27.74-27.74-27.74s-27.74,12.42-27.74,27.74c0,12.64,8.47,23.29,20.03,26.63v445c-4.42-.18-8.85-.29-13.31-.29-26.56,0-52.37,3.2-77.11,9.2v-106.3c11.11-3.25,19.26-13.51,19.26-25.66,0-14.75-12-26.74-26.74-26.74s-26.74,12-26.74,26.74c0,12.14,8.15,22.41,19.25,25.66v110.31c-16.74,4.92-32.93,11.13-48.45,18.54v-266.34l84.9-70.75-9.59-11.5-90.29,75.24v280.88h.17c-5.77,3.12-11.43,6.43-16.99,9.89h-163.67l-27.74-34.14c9.95-22.63,15.51-47.62,15.51-73.89,0-82.12-54.01-151.84-128.37-175.57v-53.44h-14.98v49.38c-9.36-2.13-18.98-3.55-28.82-4.19v-115.08h18.8v-50.51h-50.51v50.51h16.73v114.72c-89,1.38-162.85,66.15-178.33,151.07h-157.05l-93.57-33.52c12.1-21.12,19.06-45.55,19.06-71.59,0-79.69-64.83-144.53-144.53-144.53s-144.53,64.83-144.53,144.53,64.83,144.53,144.53,144.53c47.31,0,89.38-22.85,115.76-58.08l100.24,36.19h157.77c-.43,5.15-.71,10.34-.71,15.59,0,2.43.09,4.85.18,7.26h-141.12v14.97h142.33c11.02,91.15,88.8,162.02,182.87,162.02,19.07,0,37.48-2.91,54.79-8.32l63.68,67.77,119.71-.69c-9.94,20.36-17.83,41.89-23.4,64.33v-.83h-223.16l-128.77-128.77h-446.57v14.97h440.36l128.77,128.77h226.17c-1.72,8.53-3.09,17.19-4.13,25.94h-234.96l-120.35-127.57h-231.81c-3.12-11.31-13.47-19.66-25.76-19.66-14.74,0-26.74,12-26.74,26.74s12,26.75,26.74,26.75c12,0,22.18-7.95,25.55-18.86h225.56l120.35,127.57h239.99c-.57,7.86-.87,15.8-.87,23.8s.32,16.48.92,24.61h-171.02v14.97h172.49c.9,7.39,2.04,14.7,3.42,21.93h-292.17c-3.12-11.31-13.47-19.66-25.76-19.66-14.75,0-26.74,12-26.74,26.74s12,26.74,26.74,26.74c12,0,22.18-7.95,25.55-18.86h295.6c4.12,17.13,9.57,33.74,16.27,49.71h-413.41l-67.4-68.64h-173.56c-3.95-97.01-84.06-174.72-182.01-174.72s-178.07,77.71-182.02,174.71H54.54c-3.12-11.91-13.92-20.7-26.8-20.7-15.32,0-27.74,12.42-27.74,27.74s12.42,27.74,27.74,27.74c12.56,0,23.15-8.35,26.57-19.8h158.03c.4,9.82,1.55,19.44,3.45,28.8h-55.45v14.97h59.2c22.2,75.59,92.14,130.95,174.82,130.95s152.61-55.37,174.81-130.95h154.46l71.41,71.41h124.05v17.08h50.51v-50.51h-50.51v18.46h-117.84l-71.41-71.41h-156.91c1.9-9.36,3.05-18.98,3.45-28.79h167.28l67.4,68.64h426.41c10.4,21.67,23.11,42.03,37.83,60.75h-245.26l-128.17,140.21h-423.04v14.97h429.63l128.17-140.21h251.2c6.64,7.49,13.61,14.67,20.89,21.52h-260.68l-231.13,245.78c-19.27-10.16-41.19-15.94-64.45-15.94-76.47,0-138.69,62.22-138.69,138.69s62.22,138.69,138.69,138.69,138.69-62.22,138.69-138.69c0-29.75-9.44-57.31-25.45-79.92l96.68-104.11v145.37h175.15v129.3h14.97v-129.3h20.33v179.12c-11.87,3.14-20.63,13.93-20.63,26.78,0,15.32,12.42,27.74,27.74,27.74s27.74-12.42,27.74-27.74c0-12.59-8.39-23.2-19.87-26.59v-179.31h210.04v-189.21h-210.6v-35.79l65.42-65.42h107.28c23.83,14.88,49.7,26.78,77.1,35.18v85.72c-11.11,3.25-19.25,13.51-19.25,25.66,0,14.74,12,26.74,26.74,26.74s26.74-12,26.74-26.74c0-12.15-8.15-22.41-19.26-25.66v-81.52c11.62,2.96,23.5,5.28,35.57,6.96v207.03l-90.67,90.67v160.97c-11.51,2.98-20.06,13.43-20.06,25.86,0,14.75,12,26.74,26.74,26.74s26.74-12,26.74-26.74c0-11.85-7.76-21.91-18.45-25.41v-155.22l90.66-90.67v-211.51c7.77.72,15.62,1.16,23.54,1.32v226.55l-85.85,89.86v70.06h14.98v-64.05l85.85-89.86v-232.57c7.65-.19,15.23-.67,22.74-1.37v150.71h14.97v-152.48c5.21-.74,10.38-1.59,15.51-2.57v329.87c-58.19,5.03-104.01,53.98-104.01,113.45,0,62.8,51.1,113.9,113.9,113.9s113.9-51.1,113.9-113.9-48.37-111.11-108.82-113.78v-332.76c12.39-2.98,24.51-6.64,36.3-10.99v249.99h-16.25v50.51h50.51v-50.51h-19.29v-255.94c12.63-5.37,24.84-11.53,36.6-18.38v124.62l192.48,170.54h452.94c.58,8.72,2.01,17.22,4.2,25.41h-351.83c-3.43-11.43-14.02-19.76-26.56-19.76-15.32,0-27.74,12.42-27.74,27.74s12.42,27.74,27.74,27.74c12.89,0,23.7-8.81,26.81-20.73h356.6c19.62,48.73,67.35,83.24,123.02,83.24s107.95-37.88,125.64-90.32l-8.54,7.03h107.51c3.54,11.24,14.04,19.4,26.46,19.4,15.32,0,27.74-12.42,27.74-27.74s-12.42-27.74-27.74-27.74c-13.03,0-23.92,8.99-26.9,21.1h-96.1c2.94-10.95,4.53-22.44,4.53-34.31,0-1.1-.06-2.18-.08-3.27h174.2c3.73,10.92,14.05,18.79,26.23,18.79,15.32,0,27.74-12.42,27.74-27.74s-12.42-27.74-27.74-27.74c-13.25,0-24.31,9.29-27.06,21.71h-174.4v1.41c-8.3-65.18-64.08-115.75-131.48-115.75-56.96,0-105.65,36.12-124.37,86.65h-434.71l-164.68-144.8v-134.75c27.07-24.27,50.08-52.97,67.89-84.95h178.64l96.64,60.13c-5.18,13.56-8.76,27.9-10.56,42.78l-92.67-56.51h-83.55c-3.25-11.11-13.51-19.25-25.66-19.25-14.75,0-26.74,12-26.74,26.74s12,26.74,26.74,26.74c12.14,0,22.41-8.15,25.66-19.26h79.35l95.63,58.31c-.05,1.73-.13,3.46-.13,5.21,0,18.34,2.75,36.04,7.81,52.74h-181.56v-18.03h-50.51v50.51h50.51v-17.5h186.85c26.94,67.02,92.56,114.48,169.1,114.48s142.16-47.46,169.1-114.48h182.97v-14.98h-177.67c3.51-11.6,5.89-23.68,7.02-36.11h352.52c3.23,11.74,13.95,20.37,26.72,20.37,15.32,0,27.74-12.42,27.74-27.74s-12.42-27.74-27.74-27.74c-12.68,0-23.34,8.51-26.65,20.12h-351.83c0-.55.04-1.09.04-1.65,0-100.47-81.74-182.2-182.21-182.2-72.3,0-134.89,42.33-164.31,103.51l-98.32-61.18h-175.07c7.97-16.23,14.63-33.21,19.85-50.8h369.41l99.27-140.15h625.87v16.05h50.51v-50.51h-50.51v19.49h-633.62l-99.27,140.15h-357.6c2.65-10.81,4.77-21.84,6.32-33.04h341.53l101.1-142.01h436.57c3.65,11.06,14.05,19.04,26.33,19.04,15.32,0,27.74-12.42,27.74-27.74s-12.42-27.74-27.74-27.74c-13.16,0-24.15,9.17-27,21.46h-443.62l-101.09,142.01h-332.1c.9-9.88,1.39-19.89,1.39-30,0-7.46-.27-14.86-.77-22.2h151.21c3.36,10.93,13.55,18.9,25.57,18.9,14.75,0,26.74-12,26.74-26.74s-12-26.74-26.74-26.74c-12.27,0-22.61,8.32-25.75,19.61h-152.39c-1.53-13.46-3.87-26.67-6.99-39.58h320.02c3.36,10.93,13.55,18.91,25.57,18.91,14.74,0,26.74-12,26.74-26.74s-12-26.74-26.74-26.74c-12.27,0-22.61,8.32-25.75,19.61h-323.83c-3.81-13.01-8.4-25.69-13.72-37.98h230.31l139.6-182.93h516.51v-14.97h-523.92l-139.61,182.93h-229.85c-26.83-54.22-68.25-100-119.09-132.16v-155.38c10.86-3.76,18.66-14.05,18.66-26.19,0-15.32-12.42-27.74-27.74-27.74s-27.74,12.42-27.74,27.74c0,13.29,9.35,24.38,21.83,27.09v145.56c-13.88-7.78-28.38-14.57-43.41-20.3v-195.11h223.55v25.9h-94.79v14.98h94.79v90.24h270l-91.01,113.76h-98.58v-17.06h-50.51v50.51h50.51v-18.48h105.77l102.99-128.74h471.97v-88.29h51.29v-14.98h-51.29v-33.2h172.59v240.01h-279.93c-2.94-12.17-13.87-21.22-26.94-21.22-15.32,0-27.74,12.42-27.74,27.74s12.42,27.74,27.74,27.74c12.37,0,22.83-8.1,26.41-19.27h295.43v-269.97h-187.57v-26.38h288.79c3.73,10.92,14.05,18.79,26.23,18.79,15.32,0,27.74-12.42,27.74-27.74s-12.42-27.74-27.74-27.74ZM442.96,430.81c-70.84,0-128.47-57.63-128.47-128.47s57.63-128.47,128.47-128.47,128.47,57.63,128.47,128.47-57.63,128.47-128.47,128.47Zm450.35,476.34c-6.49,0-11.77-5.28-11.77-11.77s5.28-11.77,11.77-11.77,11.77,5.28,11.77,11.77-5.28,11.77-11.77,11.77Zm-498.95,144.26c-88,0-159.59-71.59-159.59-159.59s71.59-159.59,159.59-159.59,159.59,71.59,159.59,159.59-71.59,159.59-159.59,159.59Zm797.55,549.56c0,6.6-5.37,11.97-11.97,11.97s-11.97-5.37-11.97-11.97,5.37-11.97,11.97-11.97,11.97,5.37,11.97,11.97Zm223.46,34.55c0,6.49-5.28,11.77-11.77,11.77s-11.77-5.28-11.77-11.77c0-5.33,3.58-9.79,8.45-11.23h6.64c4.87,1.44,8.45,5.9,8.45,11.23Zm283.73-43.9c0,52.34-42.58,94.92-94.92,94.92s-94.92-42.58-94.92-94.92,42.58-94.92,94.92-94.92,94.92,42.58,94.92,94.92Zm1026.78-166.66c6.6,0,11.97,5.37,11.97,11.97s-5.37,11.97-11.97,11.97-11.97-5.37-11.97-11.97,5.37-11.97,11.97-11.97Zm-844.09-373.75c-6.49,0-11.77-5.28-11.77-11.77s5.28-11.77,11.77-11.77,11.77,5.28,11.77,11.77-5.28,11.77-11.77,11.77Zm943.36,56.52c6.6,0,11.97,5.37,11.97,11.97s-5.37,11.97-11.97,11.97-11.97-5.37-11.97-11.97,5.37-11.97,11.97-11.97Zm-560.65-156.88c88,0,159.59,71.59,159.59,159.59s-71.59,159.59-159.59,159.59-159.59-71.59-159.59-159.59,71.59-159.59,159.59-159.59Zm-67.89-220.44c6.49,0,11.77,5.28,11.77,11.77s-5.28,11.77-11.77,11.77-11.77-5.28-11.77-11.77,5.28-11.77,11.77-11.77Zm-510.38-362.05c0-6.6,5.37-11.97,11.97-11.97s11.97,5.37,11.97,11.97-5.37,11.97-11.97,11.97-11.97-5.37-11.97-11.97Zm-496.58,195.2h148.74c-8.92,6.6-17.5,13.64-25.69,21.09h-131.03v14.97h115.63c-10.51,10.89-20.27,22.51-29.2,34.77h-124.07l-40.03-41.64c23.87-16.32,43.72-38.1,57.75-63.53l27.9,34.34Zm-350.74-123.01c0-88.99,72.4-161.39,161.38-161.39s161.39,72.4,161.39,161.39-72.4,161.38-161.39,161.38-161.38-72.39-161.38-161.38Zm286.35,228.7l-54.86-58.34c7.1-2.93,13.96-6.31,20.58-10.07l46.47,48.53h120.34c-4.05,6.25-7.88,12.65-11.5,19.18l-121.04.7Zm-372.79,881.91c-64.76,0-117.44-52.68-117.44-117.44s52.68-117.44,117.44-117.44,117.44,52.68,117.44,117.44-52.68,117.44-117.44,117.44Zm630.33-171.16h-405.35v-159.09h405.35v159.09Zm-136.33-290.33l-74.19,74.19v42h-209.89v21.82l-106.08,114.24c-7.11-8.04-15.14-15.23-23.92-21.45l222.26-240.31,271.01-.11c4.03,3.3,8.13,6.5,12.31,9.61h-91.5Zm1228.36,191.14c63.5,0,115.16,51.66,115.16,115.16s-51.66,115.16-115.16,115.16-115.16-51.66-115.16-115.16,51.66-115.16,115.16-115.16Zm-566.85,82.34l2.12,1.87h435.83c-1.93,8.05-3.15,16.38-3.53,24.92h-447.07l-183.18-162.3v-127.17c8.25-5.42,16.24-11.2,23.95-17.33v128.87l171.89,151.14Zm-76.73-536.39c0,164.58-133.89,298.47-298.47,298.47s-298.47-133.89-298.47-298.47,133.89-298.46,298.47-298.46,298.47,133.89,298.47,298.46Zm-197.35-516.15v204.8c-10.36-3.37-20.95-6.24-31.73-8.58v-222.12h270.26v25.89h-238.53Zm979.24,125.66h-720.27v-232.69h720.27v232.69Zm335.46-154.37c-6.6,0-11.97-5.37-11.97-11.97s5.37-11.97,11.97-11.97,11.97,5.37,11.97,11.97-5.37,11.97-11.97,11.97Z"/>
        <path class="cls-3" d="m2878.95,627.41h-270.02c-3.25-11.11-13.51-19.25-25.66-19.25-14.74,0-26.74,12-26.74,26.74s12,26.75,26.74,26.75c12.15,0,22.41-8.15,25.66-19.26h270.76c3.68,11,14.05,18.93,26.29,18.93,15.32,0,27.74-12.42,27.74-27.74s-12.42-27.74-27.74-27.74c-13.2,0-24.22,9.22-27.02,21.57Zm-295.68,19.26c-6.49,0-11.77-5.28-11.77-11.77s5.28-11.77,11.77-11.77,11.77,5.28,11.77,11.77-5.28,11.77-11.77,11.77Zm334.68-13.09c0,6.6-5.37,11.97-11.97,11.97s-11.97-5.37-11.97-11.97,5.37-11.97,11.97-11.97,11.97,5.37,11.97,11.97Z"/>
        <path class="cls-3" d="m3073.15,918.74c-12.08,0-22.32,7.73-26.13,18.5h-490.58c-2.98-11.52-13.43-20.06-25.86-20.06-14.74,0-26.74,12-26.74,26.74s12,26.74,26.74,26.74c11.85,0,21.91-7.76,25.41-18.45h490.03c2.64,12.56,13.78,22,27.13,22,15.32,0,27.74-12.42,27.74-27.74s-12.42-27.74-27.74-27.74Zm-531.34,28.51c-1.44,4.86-5.9,8.45-11.23,8.45-6.49,0-11.77-5.28-11.77-11.77s5.28-11.77,11.77-11.77c5.33,0,9.79,3.58,11.23,8.45v6.64Zm531.34,11.2c-6.6,0-11.97-5.37-11.97-11.97s5.37-11.97,11.97-11.97,11.97,5.37,11.97,11.97-5.37,11.97-11.97,11.97Z"/>
      </g>
      <g>
        <path class="cls-4" d="m1991.72,378.23h-17.82v-119.19h17.82v119.19Z"/>
        <path class="cls-4" d="m2074.54,378.23h-15.61l-28.56-75.02c.76,3.66,1.14,6.53,1.14,8.61v66.41h-17.36v-119.19h15.61l28.56,73.5c-.76-3.66-1.14-6.52-1.14-8.61v-64.89h17.36v119.19Z"/>
        <path class="cls-4" d="m2157.05,378.23h-15.61l-28.56-75.02c.76,3.66,1.14,6.53,1.14,8.61v66.41h-17.36v-119.19h15.61l28.56,73.5c-.76-3.66-1.14-6.52-1.14-8.61v-64.89h17.36v119.19Z"/>
        <path class="cls-4" d="m2239.26,367.34c0,7.26-3.61,10.89-10.81,10.89h-38.69c-7.06,0-10.59-3.63-10.59-10.89v-97.34c0-7.31,3.53-10.97,10.59-10.97h38.69c7.21,0,10.81,3.66,10.81,10.97v97.34Zm-17.82-4.42v-88.58h-24.45v88.58h24.45Z"/>
        <path class="cls-4" d="m2320.71,259.04l-22.85,119.35h-17.75l-22.77-119.35h17.9l13.33,81.72c.1,2.34.25,5.74.46,10.21-.05-2.34.1-5.74.46-10.21l13.4-81.72h17.82Z"/>
        <path class="cls-4" d="m2398.96,378.23h-17.67l-3.58-22.62h-22.32l-3.58,22.62h-17.59v-.3l23.08-119.04h18.74l22.92,119.35Zm-23.76-37.93l-8.68-53.77-8.76,53.77h17.44Z"/>
        <path class="cls-4" d="m2468.52,274.8h-19.65v103.43h-17.75v-103.43h-19.65v-15.77h57.04v15.77Z"/>
        <path class="cls-4" d="m2534.81,378.23h-49.43v-119.19h48.97v15.77h-31.15v34.81h26.81v15.46h-26.81v37.4h31.61v15.77Z"/>
      </g>
      <g>
        <path class="cls-4" d="m1040.92,1331.59c0,4.99-2.48,7.48-7.43,7.48h-24.65c-4.92,0-7.38-2.49-7.38-7.48v-19.52h12.25v16.7h14.97v-16.07l-24.55-23.24c-1.78-1.71-2.67-3.89-2.67-6.54v-18.21c0-5.03,2.46-7.54,7.38-7.54h24.65c4.95,0,7.43,2.48,7.43,7.43v18.32h-12.25v-15.44h-14.97v14.81l24.55,23.13c1.78,1.68,2.67,3.89,2.67,6.65v19.52Z"/>
        <path class="cls-4" d="m1068.48,1339.08h-12.25v-81.91h12.25v81.91Z"/>
        <path class="cls-4" d="m1133.4,1339.08h-11.78v-40.41c0-2.13.24-5.09.73-8.9l-10.57,41.82h-6.23l-10.62-41.82c.49,3.87.73,6.84.73,8.9v40.41h-11.78v-81.91h11.57l12.88,45.27c.14.49.24,1.73.31,3.71,0-.87.1-2.11.31-3.71l12.88-45.27h11.57v81.91Z"/>
        <path class="cls-4" d="m1188.11,1301.76c0,5.1-2.5,7.64-7.48,7.64h-19.84v29.68h-12.25v-81.91h32.08c4.99,0,7.48,2.51,7.48,7.54v37.05Zm-12.35-2.88v-31.2h-14.97v31.2h14.97Z"/>
        <path class="cls-4" d="m1234.35,1339.08h-32.19v-81.91h12.25v70.97h19.94v10.94Z"/>
        <path class="cls-4" d="m1259.44,1339.08h-12.25v-81.91h12.25v81.91Z"/>
        <path class="cls-4" d="m1308.29,1268h-21.2v24.23h18.11v10.62h-18.11v36.22h-12.25v-81.91h33.45v10.83Z"/>
        <path class="cls-4" d="m1361.81,1257.64l-10.83,34.23c-1.33,3.38-3.12,9.09-5.39,17.11v30.1h-12.3v-30.1c-.56-2.72-1.36-5.6-2.41-8.63-1.85-5.2-2.84-8.03-2.98-8.48l-10.78-34.23s-.04-.19,0-.47h12.61l9.79,35.59,9.74-35.59h12.56v.47Z"/>
      </g>
      <g>
        <g>
          <path d="m1602.1,1617.55c7.69,0,13.92,5.35,13.92,11.95v4.44c0,6.6-6.23,11.95-13.92,11.96h0c-7.68,0-13.91-5.35-13.91-11.96v-4.44c0-6.6,6.23-11.95,13.91-11.95h0Z"/>
          <path class="cls-4" d="m1632.26,1585.55c0-16.67-13.51-30.18-30.17-30.18s-30.18,13.51-30.18,30.18c0,5.68,1.6,10.98,4.34,15.52h-.02s11.93,19.65,11.93,27.81h27.87c0-8.16,11.93-27.83,11.93-27.83h-.02c2.73-4.53,4.33-9.83,4.33-15.51Z"/>
          <g>
            <rect x="1589.02" y="1588.68" width="2.62" height="43.77" transform="translate(-357.8 458.24) rotate(-14.76)"/>
            <path d="m1588.19,1589.4c0,1.89-1.54,3.43-3.43,3.43s-3.43-1.54-3.43-3.43,1.54-3.43,3.43-3.43,3.43,1.54,3.43,3.43Z"/>
          </g>
          <g>
            <rect x="1589.74" y="1609.25" width="43.77" height="2.62" transform="translate(-356.29 2758.85) rotate(-75.24)"/>
            <path d="m1613.77,1589.4c0,1.89,1.54,3.43,3.43,3.43s3.43-1.54,3.43-3.43-1.54-3.43-3.43-3.43-3.43,1.54-3.43,3.43Z"/>
          </g>
        </g>
        <path class="cls-4" d="m1602.1,1543.75c-4.71-6.04-4.74-14.81,0-20.84,4.74,6.03,4.71,14.81,0,20.84h0Z"/>
        <path class="cls-4" d="m1625.04,1550.17c-1.08-7.54,3.33-15.24,10.42-18.05,1.11,7.55-3.35,15.21-10.42,18.05h0Z"/>
        <path class="cls-4" d="m1641.7,1567.2c2.83-7.07,10.5-11.53,18.05-10.42-2.81,7.09-10.51,11.5-18.05,10.42h0Z"/>
        <path class="cls-4" d="m1647.6,1590.28c6.03-4.71,14.81-4.74,20.84,0-6.03,4.74-14.8,4.71-20.84,0h0Z"/>
        <path class="cls-4" d="m1625.04,1550.17c-1.08-7.54,3.33-15.24,10.42-18.05,1.11,7.55-3.35,15.21-10.42,18.05h0Z"/>
        <path class="cls-4" d="m1641.7,1567.2c2.83-7.07,10.5-11.53,18.05-10.42-2.81,7.09-10.51,11.5-18.05,10.42h0Z"/>
        <path class="cls-4" d="m1647.6,1590.28c6.03-4.71,14.81-4.74,20.84,0-6.03,4.74-14.8,4.71-20.84,0h0Z"/>
        <path class="cls-4" d="m1579.17,1550.17c-7.07-2.83-11.53-10.5-10.42-18.05,7.09,2.81,11.5,10.51,10.42,18.05h0Z"/>
        <path class="cls-4" d="m1562.51,1567.2c-7.54,1.08-15.23-3.33-18.05-10.42,7.55-1.11,15.21,3.35,18.05,10.42h0Z"/>
        <path class="cls-4" d="m1556.6,1590.28c-6.03,4.71-14.81,4.74-20.84,0,6.03-4.74,14.8-4.71,20.84,0h0Z"/>
      </g>
      <g>
        <rect class="cls-1" x="1234.95" y="528.49" width="607" height="607"/>
        <g>
          <path class="cls-4" d="m1683.69,687.02v225.81h-290.48v-225.81h290.48m31.8-31.8h-354.08v289.42h354.08v-289.42h0Z"/>
          <g>
            <g>
              <rect class="cls-4" x="1594.52" y="721.59" width="31.8" height="104.95" transform="translate(-75.66 1365.46) rotate(-45)"/>
              <rect class="cls-4" x="1557.95" y="809.88" width="104.95" height="31.8" transform="translate(-112.24 1380.61) rotate(-45)"/>
            </g>
            <g>
              <rect class="cls-4" x="1450.57" y="773.31" width="31.8" height="104.95" transform="translate(-154.4 1278.82) rotate(-45)"/>
              <rect class="cls-4" x="1414" y="758.16" width="104.95" height="31.8" transform="translate(-117.82 1263.67) rotate(-45)"/>
            </g>
          </g>
          <rect class="cls-4" x="1490.21" y="945.16" width="96.47" height="31.8"/>
          <polygon class="cls-4" points="1659.3 976.97 1417.6 976.97 1387.26 1008.77 1689.64 1008.77 1659.3 976.97"/>
        </g>
      </g>
      <g>
        <path class="cls-4" d="m934.77,504.03c0,5.1,30.45,9.24,68.02,9.24s68.02-4.13,68.02-9.24-30.45-9.24-68.02-9.24-68.02,4.14-68.02,9.24Z"/>
        <path class="cls-4" d="m896.11,424.27c0,13.44,12.07,24.38,26.9,24.38,2.8,0,5.46-.5,8-1.23,7.79,32.46,36.92,56.61,71.78,56.61,40.81,0,73.89-33.08,73.89-73.89v-43.66h-147.78v14.03c-1.9-.39-3.85-.63-5.88-.63-14.83,0-26.9,10.93-26.9,24.38Zm6.78,0c0-9.71,9.02-17.6,20.12-17.6,2.06,0,4.01.35,5.88.86v22.62c0,3.62.35,7.15.85,10.64-2.12.66-4.36,1.09-6.73,1.09-11.1,0-20.12-7.9-20.12-17.6Z"/>
      </g>
      <g>
        <path class="cls-2" d="m442.51,850.41v-74.31h-104.36v74.31c0,10.5,5.85,20.24,14.85,25.66l26.52,15.86-26.61,15.86c-9,5.42-14.76,15.15-14.76,25.65v66.72h104.36v-66.72c0-10.5-7.06-20.24-16.06-25.65l-27.12-15.86,27.51-15.86c9-5.42,15.67-15.15,15.67-25.66Z"/>
        <path class="cls-4" d="m336.98,966.21v32.63h105.53v-32.63l-21.99-7.49c-19.91-6.78-41.63-6.78-61.54,0l-21.99,7.49Z"/>
        <path class="cls-4" d="m352.94,876.06l27.71,15.86,9.1,6.66,10.79-6.66,27.11-15.86c9.3-5.42,14.87-15.15,14.87-25.66v-8.57h-105.53v8.57c0,10.5,6.66,20.24,15.96,25.66Z"/>
        <g>
          <rect class="cls-4" x="336.98" y="995.57" width="105.53" height="13.06"/>
          <rect class="cls-4" x="336.98" y="769.63" width="105.53" height="13.06"/>
        </g>
      </g>
      <path class="cls-4" d="m796.43,1417.41h-3.37v-10.77c0-22.62-18.4-41.02-41.01-41.02s-41.02,18.4-41.02,41.02v10.77h-3.37c-6.89,0-12.48,5.59-12.48,12.48v59.24c0,6.89,5.59,12.49,12.48,12.49h88.76c6.89,0,12.48-5.59,12.48-12.49v-59.24c0-6.89-5.59-12.48-12.48-12.48Zm-67.41-10.77c0-12.7,10.33-23.03,23.03-23.03s23.03,10.33,23.03,23.03v10.77h-46.06v-10.77Z"/>
      <g>
        <polygon class="cls-4" points="2168.72 1119.12 2227 1068.9 2239.61 1079.75 2193.94 1119.12 2231.46 1151.46 2226.05 1168.53 2168.72 1119.12"/>
        <polygon class="cls-4" points="2291.68 1158.49 2337.37 1119.12 2298.28 1085.43 2303.68 1068.35 2362.58 1119.12 2304.3 1169.36 2291.68 1158.49"/>
        <polygon class="cls-4" points="2233.75 1200.63 2278.25 1037.63 2295.54 1037.63 2251.03 1200.63 2233.75 1200.63"/>
      </g>
      <g>
        <path class="cls-4" d="m542.48,317.83c0,15.13-12.26,27.41-27.41,27.41h-49.46v-30.06h2.83c2.7,0,5.09-1.6,6.12-4.08,1.04-2.5.47-5.32-1.43-7.24l-20.91-20.88c-1.24-1.27-2.9-1.95-4.68-1.95s-3.44.69-4.69,1.95l-20.88,20.88c-1.91,1.92-2.48,4.74-1.44,7.24,1.04,2.48,3.44,4.08,6.12,4.08h2.83v30.06h-49.46c-15.13,0-27.41-12.28-27.41-27.41s12.28-27.41,27.41-27.41h.35c2.81-24.44,23.56-43.44,48.77-43.44,19.1,0,35.63,10.91,43.76,26.81,2.46-.52,5.01-.8,7.63-.8,1.91,0,3.78.16,5.62.44,10.82,1.68,20.03,8.18,25.43,17.22,1.15-.16,2.31-.24,3.5-.24,15.15,0,27.41,12.26,27.41,27.41Z"/>
        <path class="cls-4" d="m458.98,356.99c.74,0,1.34-.6,1.34-1.33v-42.31c0-1.91,1.55-3.46,3.46-3.46h4.66c.81,0,1.13-.58,1.23-.82.1-.25.28-.88-.29-1.45l-20.89-20.89c-.25-.25-.59-.39-.94-.39s-.69.14-.94.39l-20.89,20.89c-.57.57-.39,1.2-.29,1.45.1.25.43.82,1.23.82h4.67c1.91,0,3.46,1.55,3.46,3.46v42.31c0,.74.6,1.33,1.33,1.33h22.87Z"/>
      </g>
      <g>
        <g>
          <g>
            <path class="cls-5" d="m2516.12,1405.91c20.5,11.83,20.5,31.02,0,42.85-20.5,11.83-53.72,11.83-74.22,0-20.5-11.83-20.5-31.02,0-42.85,20.5-11.83,53.72-11.83,74.22,0Z"/>
            <rect class="cls-5" x="2426.52" y="1427.33" width="105.12" height="20.67"/>
          </g>
          <g>
            <ellipse class="cls-2" cx="2479" cy="1439.6" rx="54.62" ry="31.53"/>
            <rect class="cls-2" x="2424.38" y="1418.08" width="109.41" height="21.51"/>
            <ellipse class="cls-4" cx="2479" cy="1418.08" rx="54.62" ry="31.54"/>
          </g>
        </g>
        <g>
          <g>
            <path class="cls-5" d="m2516.12,1367.2c20.5,11.83,20.5,31.02,0,42.85-20.5,11.83-53.72,11.83-74.22,0-20.5-11.83-20.5-31.02,0-42.85,20.5-11.83,53.72-11.83,74.22,0Z"/>
            <ellipse class="cls-4" cx="2479.01" cy="1409.3" rx="52.48" ry="30.3"/>
            <rect class="cls-5" x="2426.52" y="1388.62" width="105.12" height="20.67"/>
          </g>
          <g>
            <path class="cls-2" d="m2517.63,1378.59c21.33,12.32,21.33,32.28,0,44.6-21.33,12.32-55.91,12.32-77.24,0-21.33-12.32-21.33-32.28,0-44.6,21.33-12.32,55.91-12.32,77.24,0Z"/>
            <rect class="cls-2" x="2424.38" y="1379.38" width="109.41" height="21.51"/>
            <path class="cls-4" d="m2517.63,1357.08c21.33,12.32,21.33,32.28,0,44.6-21.33,12.32-55.91,12.32-77.24,0-21.33-12.32-21.33-32.28,0-44.6,21.33-12.32,55.91-12.32,77.24,0Z"/>
          </g>
        </g>
        <g>
          <g>
            <ellipse class="cls-5" cx="2479.01" cy="1349.92" rx="52.48" ry="30.3"/>
            <path class="cls-4" d="m2516.12,1349.16c20.5,11.83,20.5,31.02,0,42.85-20.5,11.83-53.72,11.83-74.22,0-20.5-11.83-20.5-31.02,0-42.85,20.5-11.83,53.72-11.83,74.22,0Z"/>
            <rect class="cls-5" x="2426.52" y="1349.92" width="105.12" height="20.67"/>
          </g>
          <g>
            <path class="cls-2" d="m2517.63,1339.88c21.33,12.32,21.33,32.28,0,44.6-21.33,12.32-55.91,12.32-77.24,0-21.33-12.32-21.33-32.28,0-44.6,21.33-12.32,55.91-12.32,77.24,0Z"/>
            <rect class="cls-2" x="2424.38" y="1340.67" width="109.41" height="21.51"/>
            <path class="cls-4" d="m2517.63,1318.37c21.33,12.32,21.33,32.28,0,44.6-21.33,12.32-55.91,12.32-77.24,0-21.33-12.32-21.33-32.28,0-44.6,21.33-12.32,55.91-12.32,77.24,0Z"/>
          </g>
        </g>
      </g>
    </g>
  </g>
</svg>