<?xml version="1.0" encoding="UTF-8"?>
<svg id="Layer_2" data-name="Layer 2" xmlns="http://www.w3.org/2000/svg" viewBox="0 0 331.37 180">
  <defs>
    <style>
      .cls-1 {
        fill: #f58219;
      }

      .cls-2 {
        fill: #4e7896;
      }
    </style>
  </defs>
  <g id="Layer_1-2" data-name="Layer 1">
    <g>
      <path class="cls-2" d="m42.29,137.23s-6.82,4.15,4.74,5.34c13.93,1.78,21.34,1.48,36.75-1.48,3.1,1.9,6.37,3.48,9.78,4.74-34.68,14.82-78.55-.89-51.28-8.59h0Zm-4.44-19.27s-7.41,5.63,4.15,6.82c15.12,1.48,26.97,1.78,47.42-2.37,1.99,2.02,4.43,3.54,7.11,4.44-41.79,12.45-88.62,1.18-58.69-8.89h0Zm81.8,33.79s5.04,4.15-5.63,7.41c-19.86,5.93-83.29,7.71-101.07,0-6.22-2.66,5.63-6.52,9.49-7.11,3.85-.89,5.93-.89,5.93-.89-6.82-4.74-45.35,9.78-19.6,13.93,70.84,11.56,129.22-5.04,110.85-13.34h.04Zm-74.09-53.94s-32.31,7.71-11.56,10.37c8.89,1.18,26.38.89,42.67-.3,13.34-1.18,26.67-3.56,26.67-3.56,0,0-4.74,2.07-8,4.15-32.9,8.59-96.03,4.74-77.95-4.15,15.41-7.41,28.16-6.52,28.16-6.52h.01Zm57.8,32.31c33.19-17.2,17.79-33.79,7.11-31.71-2.66.59-3.85,1.18-3.85,1.18,0,0,.89-1.78,2.96-2.37,21.04-7.41,37.65,22.22-6.82,33.79,0,0,.3-.3.59-.89h0Zm-54.54,46.83c32.01,2.07,80.91-1.18,82.1-16.3,0,0-2.37,5.93-26.38,10.37-27.27,5.04-61.02,4.44-80.91,1.18,0,0,4.15,3.56,25.19,4.74h0Z"/>
      <path class="cls-1" d="m83.19,0s18.38,18.67-17.49,46.83c-28.75,22.82-6.52,35.86,0,50.68-16.89-15.11-29.04-28.45-20.71-40.9C57.11,38.24,90.6,29.34,83.19,0Zm-9.49,85.06c8.59,9.78-2.37,18.67-2.37,18.67,0,0,21.93-11.26,11.86-25.19-9.19-13.34-16.3-19.86,22.22-42.08,0,0-60.76,15.12-31.71,48.61h0Z"/>
      <path class="cls-2" d="m236,161.75v-36.51c0-9.31-5.22-15.65-18.25-15.65-7.45,0-13.78,1.86-19.37,4.1l1.86,6.71c4.1-1.49,9.31-2.98,14.9-2.98,7.08,0,10.43,2.98,10.43,8.94v4.84h-3.73c-17.88,0-26.1,6.71-26.1,17.51,0,8.94,5.59,14.16,15.65,14.16,6.33,0,11.18-2.98,15.65-6.71l.74,5.59h8.22Zm-10.43-11.92c-3.73,3.35-7.82,5.22-11.55,5.22-4.84,0-7.82-2.98-7.82-8.2s2.98-8.94,14.9-8.94h4.47v11.92h0Zm45.45,11.92h-13.04l-15.65-51.04h11.18l9.69,31.29,2.23,9.31c4.84-13.41,8.57-27.2,10.06-40.61h11.18c-2.98,16.76-8.19,35.02-15.65,51.04h0Zm60.35,0v-36.51c0-9.31-5.22-15.65-18.25-15.65-7.45,0-13.78,1.86-19.37,4.1l1.49,6.71c4.47-1.49,9.69-2.98,15.27-2.98,7.08,0,10.43,2.98,10.43,8.94v4.84h-3.73c-17.88,0-26.1,6.71-26.1,17.51,0,8.94,5.22,14.16,15.27,14.16,6.71,0,11.55-2.98,16.02-6.71l.74,5.59h8.22Zm-10.43-11.92c-3.73,3.35-7.82,5.22-11.55,5.22-4.84,0-7.82-2.98-7.82-8.2s2.98-8.94,14.9-8.94h4.47v11.92h0Zm-136.72,20.49c-2.98,4.47-7.45,7.82-13.04,9.69l-4.84-5.96c3.73-2.23,7.45-5.59,8.94-8.57,1.49-2.61,1.86-6.33,1.86-14.9v-58.12h11.18v57.37c0,11.55-1.12,16.02-4.1,20.49h0Z"/>
    </g>
  </g>
</svg>