<?xml version="1.0" encoding="UTF-8"?>
<svg id="Layer_2" data-name="Layer 2" xmlns="http://www.w3.org/2000/svg" viewBox="0 0 3100.88 1705.53">
  <defs>
    <style>
      .cls-1 {
        fill: none;
      }

      .cls-2 {
        fill: #fbfbfb;
      }

      .cls-3 {
        fill: #303030;
      }

      .cls-4, .cls-5, .cls-6 {
        fill: #333;
      }

      .cls-5 {
        opacity: .2;
      }

      .cls-6 {
        opacity: .5;
      }
    </style>
  </defs>
  <g id="Layer_1-2" data-name="Layer 1">
    <g>
      <g id="Circuit_Board" data-name="Circuit Board">
        <path class="cls-3" d="m630.68,1248.73c2.38,12.32,13.24,21.66,26.25,21.66,14.74,0,26.74-12,26.74-26.74s-12-26.75-26.74-26.75c-11.25,0-20.88,6.99-24.83,16.85h-302.28c-3.15-11.86-13.93-20.61-26.78-20.61-15.32,0-27.74,12.42-27.74,27.74s12.42,27.74,27.74,27.74c12.59,0,23.21-8.4,26.59-19.89h301.04Zm-327.64,4.13c-6.6,0-11.97-5.37-11.97-11.97s5.37-11.97,11.97-11.97,11.97,5.37,11.97,11.97-5.37,11.97-11.97,11.97Z"/>
        <path class="cls-3" d="m1323.36,473.22c14.74,0,26.74-12,26.74-26.74,0-12.15-8.15-22.41-19.25-25.66v-197.23l105.9-93.87V54.63c12.08-3,21.04-13.88,21.04-26.89,0-15.32-12.42-27.74-27.74-27.74s-27.74,12.42-27.74,27.74c0,12.43,8.18,22.96,19.46,26.48v68.77l-105.91,93.87v203.97c-11.11,3.25-19.26,13.51-19.26,25.66,0,14.74,12,26.74,26.75,26.74Zm94.72-445.49c0-6.6,5.37-11.97,11.97-11.97s11.97,5.37,11.97,11.97-5.37,11.97-11.97,11.97-11.97-5.37-11.97-11.97Zm-94.72,406.97c6.49,0,11.77,5.28,11.77,11.77s-5.28,11.77-11.77,11.77-11.77-5.28-11.77-11.77,5.28-11.77,11.77-11.77Z"/>
        <polygon class="cls-3" points="341.35 1182.13 341.35 1199.21 391.86 1199.21 391.86 1148.69 341.35 1148.69 341.35 1167.16 157.19 1167.16 157.19 1150.03 106.68 1150.03 106.68 1168.5 106.68 1183.47 106.68 1200.55 157.19 1200.55 157.19 1182.13 341.35 1182.13"/>
        <polygon class="cls-3" points="1528.52 241.26 1508.96 241.26 1508.96 51.25 1493.99 51.25 1493.99 241.26 1478.01 241.26 1478.01 291.78 1528.52 291.78 1528.52 241.26"/>
        <path class="cls-3" d="m2948.58,242.21c-13.24,0-24.3,9.29-27.06,21.71h-287.96v-80.76h-761.15v86.6h-285.24v234.22c-8.6-1.44-17.31-2.55-26.12-3.31V54.84c11.79-3.2,20.47-13.94,20.47-26.74,0-15.32-12.42-27.74-27.74-27.74s-27.74,12.42-27.74,27.74c0,12.64,8.47,23.29,20.03,26.63v445c-4.42-.18-8.85-.29-13.31-.29-26.56,0-52.37,3.2-77.11,9.2v-106.3c11.11-3.25,19.26-13.51,19.26-25.66,0-14.75-12-26.74-26.74-26.74s-26.74,12-26.74,26.74c0,12.14,8.15,22.41,19.25,25.66v110.31c-16.74,4.92-32.93,11.13-48.45,18.54v-266.34l84.9-70.75-9.59-11.5-90.29,75.24v280.88h.17c-5.77,3.12-11.43,6.43-16.99,9.89h-163.67l-27.74-34.14c9.95-22.63,15.51-47.62,15.51-73.89,0-82.12-54.01-151.84-128.37-175.57v-53.44h-14.98v49.38c-9.36-2.13-18.98-3.55-28.82-4.19v-115.08h18.8v-50.51h-50.51v50.51h16.73v114.72c-89,1.38-162.85,66.15-178.33,151.07h-157.05l-93.57-33.52c12.1-21.12,19.06-45.55,19.06-71.59,0-79.69-64.83-144.53-144.53-144.53s-144.53,64.83-144.53,144.53,64.83,144.53,144.53,144.53c47.31,0,89.38-22.85,115.76-58.08l100.24,36.19h157.77c-.43,5.15-.71,10.34-.71,15.59,0,2.43.09,4.85.18,7.26h-141.12v14.97h142.33c11.02,91.15,88.8,162.02,182.87,162.02,19.07,0,37.48-2.91,54.79-8.32l63.68,67.77,119.71-.69c-9.94,20.36-17.83,41.89-23.4,64.33v-.83h-223.16l-128.77-128.77h-446.57v14.97h440.36l128.77,128.77h226.17c-1.72,8.53-3.09,17.19-4.13,25.94h-234.96l-120.35-127.57h-231.81c-3.12-11.31-13.47-19.66-25.76-19.66-14.74,0-26.74,12-26.74,26.74s12,26.75,26.74,26.75c12,0,22.18-7.95,25.55-18.86h225.56l120.35,127.57h239.99c-.57,7.86-.87,15.8-.87,23.8s.32,16.48.92,24.61h-171.02v14.97h172.49c.9,7.39,2.04,14.7,3.42,21.93h-292.17c-3.12-11.31-13.47-19.66-25.76-19.66-14.75,0-26.74,12-26.74,26.74s12,26.74,26.74,26.74c12,0,22.18-7.95,25.55-18.86h295.6c4.12,17.13,9.57,33.74,16.27,49.71h-413.41l-67.4-68.64h-173.56c-3.95-97.01-84.06-174.72-182.01-174.72s-178.07,77.71-182.02,174.71H54.54c-3.12-11.91-13.92-20.7-26.8-20.7-15.32,0-27.74,12.42-27.74,27.74s12.42,27.74,27.74,27.74c12.56,0,23.15-8.35,26.57-19.8h158.03c.4,9.82,1.55,19.44,3.45,28.8h-55.45v14.97h59.2c22.2,75.59,92.14,130.95,174.82,130.95s152.61-55.37,174.81-130.95h154.46l71.41,71.41h124.05v17.08h50.51v-50.51h-50.51v18.46h-117.84l-71.41-71.41h-156.91c1.9-9.36,3.05-18.98,3.45-28.79h167.28l67.4,68.64h426.41c10.4,21.67,23.11,42.03,37.83,60.75h-245.26l-128.17,140.21h-423.04v14.97h429.63l128.17-140.21h251.2c6.64,7.49,13.61,14.67,20.89,21.52h-260.68l-231.13,245.78c-19.27-10.16-41.19-15.94-64.45-15.94-76.47,0-138.69,62.22-138.69,138.69s62.22,138.69,138.69,138.69,138.69-62.22,138.69-138.69c0-29.75-9.44-57.31-25.45-79.92l96.68-104.11v145.37h175.15v129.3h14.97v-129.3h20.33v179.12c-11.87,3.14-20.63,13.93-20.63,26.78,0,15.32,12.42,27.74,27.74,27.74s27.74-12.42,27.74-27.74c0-12.59-8.39-23.2-19.87-26.59v-179.31h210.04v-189.21h-210.6v-35.79l65.42-65.42h107.28c23.83,14.88,49.7,26.78,77.1,35.18v85.72c-11.11,3.25-19.25,13.51-19.25,25.66,0,14.74,12,26.74,26.74,26.74s26.74-12,26.74-26.74c0-12.15-8.15-22.41-19.26-25.66v-81.52c11.62,2.96,23.5,5.28,35.57,6.96v207.03l-90.67,90.67v160.97c-11.51,2.98-20.06,13.43-20.06,25.86,0,14.75,12,26.74,26.74,26.74s26.74-12,26.74-26.74c0-11.85-7.76-21.91-18.45-25.41v-155.22l90.66-90.67v-211.51c7.77.72,15.62,1.16,23.54,1.32v226.55l-85.85,89.86v70.06h14.98v-64.05l85.85-89.86v-232.57c7.65-.19,15.23-.67,22.74-1.37v150.71h14.97v-152.48c5.21-.74,10.38-1.59,15.51-2.57v329.87c-58.19,5.03-104.01,53.98-104.01,113.45,0,62.8,51.1,113.9,113.9,113.9s113.9-51.1,113.9-113.9-48.37-111.11-108.82-113.78v-332.76c12.39-2.98,24.51-6.64,36.3-10.99v249.99h-16.25v50.51h50.51v-50.51h-19.29v-255.94c12.63-5.37,24.84-11.53,36.6-18.38v124.62l192.48,170.54h452.94c.58,8.72,2.01,17.22,4.2,25.41h-351.83c-3.43-11.43-14.02-19.76-26.56-19.76-15.32,0-27.74,12.42-27.74,27.74s12.42,27.74,27.74,27.74c12.89,0,23.7-8.81,26.81-20.73h356.6c19.62,48.73,67.35,83.24,123.02,83.24s107.95-37.88,125.64-90.32l-8.54,7.03h107.51c3.54,11.24,14.04,19.4,26.46,19.4,15.32,0,27.74-12.42,27.74-27.74s-12.42-27.74-27.74-27.74c-13.03,0-23.92,8.99-26.9,21.1h-96.1c2.94-10.95,4.53-22.44,4.53-34.31,0-1.1-.06-2.18-.08-3.27h174.2c3.73,10.92,14.05,18.79,26.23,18.79,15.32,0,27.74-12.42,27.74-27.74s-12.42-27.74-27.74-27.74c-13.25,0-24.31,9.29-27.06,21.71h-174.4v1.41c-8.3-65.18-64.08-115.75-131.48-115.75-56.96,0-105.65,36.12-124.37,86.65h-434.71l-164.68-144.8v-134.75c27.07-24.27,50.08-52.97,67.89-84.95h178.64l96.64,60.13c-5.18,13.56-8.76,27.9-10.56,42.78l-92.67-56.51h-83.55c-3.25-11.11-13.51-19.25-25.66-19.25-14.75,0-26.74,12-26.74,26.74s12,26.74,26.74,26.74c12.14,0,22.41-8.15,25.66-19.26h79.35l95.63,58.31c-.05,1.73-.13,3.46-.13,5.21,0,18.34,2.75,36.04,7.81,52.74h-181.56v-18.03h-50.51v50.51h50.51v-17.5h186.85c26.94,67.02,92.56,114.48,169.1,114.48s142.16-47.46,169.1-114.48h182.97v-14.98h-177.67c3.51-11.6,5.89-23.68,7.02-36.11h352.52c3.23,11.74,13.95,20.37,26.72,20.37,15.32,0,27.74-12.42,27.74-27.74s-12.42-27.74-27.74-27.74c-12.68,0-23.34,8.51-26.65,20.12h-351.83c0-.55.04-1.09.04-1.65,0-100.47-81.74-182.2-182.21-182.2-72.3,0-134.89,42.33-164.31,103.51l-98.32-61.18h-175.07c7.97-16.23,14.63-33.21,19.85-50.8h369.41l99.27-140.15h625.87v16.05h50.51v-50.51h-50.51v19.49h-633.62l-99.27,140.15h-357.6c2.65-10.81,4.77-21.84,6.32-33.04h341.53l101.1-142.01h436.57c3.65,11.06,14.05,19.04,26.33,19.04,15.32,0,27.74-12.42,27.74-27.74s-12.42-27.74-27.74-27.74c-13.16,0-24.15,9.17-27,21.46h-443.62l-101.09,142.01h-332.1c.9-9.88,1.39-19.89,1.39-30,0-7.46-.27-14.86-.77-22.2h151.21c3.36,10.93,13.55,18.9,25.57,18.9,14.75,0,26.74-12,26.74-26.74s-12-26.74-26.74-26.74c-12.27,0-22.61,8.32-25.75,19.61h-152.39c-1.53-13.46-3.87-26.67-6.99-39.58h320.02c3.36,10.93,13.55,18.91,25.57,18.91,14.74,0,26.74-12,26.74-26.74s-12-26.74-26.74-26.74c-12.27,0-22.61,8.32-25.75,19.61h-323.83c-3.81-13.01-8.4-25.69-13.72-37.98h230.31l139.6-182.93h516.51v-14.97h-523.92l-139.61,182.93h-229.85c-26.83-54.22-68.25-100-119.09-132.16v-155.38c10.86-3.76,18.66-14.05,18.66-26.19,0-15.32-12.42-27.74-27.74-27.74s-27.74,12.42-27.74,27.74c0,13.29,9.35,24.38,21.83,27.09v145.56c-13.88-7.78-28.38-14.57-43.41-20.3v-195.11h223.55v25.9h-94.79v14.98h94.79v90.24h270l-91.01,113.76h-98.58v-17.06h-50.51v50.51h50.51v-18.48h105.77l102.99-128.74h471.97v-88.29h51.29v-14.98h-51.29v-33.2h172.59v240.01h-279.93c-2.94-12.17-13.87-21.22-26.94-21.22-15.32,0-27.74,12.42-27.74,27.74s12.42,27.74,27.74,27.74c12.37,0,22.83-8.1,26.41-19.27h295.43v-269.97h-187.57v-26.38h288.79c3.73,10.92,14.05,18.79,26.23,18.79,15.32,0,27.74-12.42,27.74-27.74s-12.42-27.74-27.74-27.74ZM442.96,430.81c-70.84,0-128.47-57.63-128.47-128.47s57.63-128.47,128.47-128.47,128.47,57.63,128.47,128.47-57.63,128.47-128.47,128.47Zm450.35,476.34c-6.49,0-11.77-5.28-11.77-11.77s5.28-11.77,11.77-11.77,11.77,5.28,11.77,11.77-5.28,11.77-11.77,11.77Zm-498.95,144.26c-88,0-159.59-71.59-159.59-159.59s71.59-159.59,159.59-159.59,159.59,71.59,159.59,159.59-71.59,159.59-159.59,159.59Zm797.55,549.56c0,6.6-5.37,11.97-11.97,11.97s-11.97-5.37-11.97-11.97,5.37-11.97,11.97-11.97,11.97,5.37,11.97,11.97Zm223.46,34.55c0,6.49-5.28,11.77-11.77,11.77s-11.77-5.28-11.77-11.77c0-5.33,3.58-9.79,8.45-11.23h6.64c4.87,1.44,8.45,5.9,8.45,11.23Zm283.73-43.9c0,52.34-42.58,94.92-94.92,94.92s-94.92-42.58-94.92-94.92,42.58-94.92,94.92-94.92,94.92,42.58,94.92,94.92Zm1026.78-166.66c6.6,0,11.97,5.37,11.97,11.97s-5.37,11.97-11.97,11.97-11.97-5.37-11.97-11.97,5.37-11.97,11.97-11.97Zm-844.09-373.75c-6.49,0-11.77-5.28-11.77-11.77s5.28-11.77,11.77-11.77,11.77,5.28,11.77,11.77-5.28,11.77-11.77,11.77Zm943.36,56.52c6.6,0,11.97,5.37,11.97,11.97s-5.37,11.97-11.97,11.97-11.97-5.37-11.97-11.97,5.37-11.97,11.97-11.97Zm-560.65-156.88c88,0,159.59,71.59,159.59,159.59s-71.59,159.59-159.59,159.59-159.59-71.59-159.59-159.59,71.59-159.59,159.59-159.59Zm-67.89-220.44c6.49,0,11.77,5.28,11.77,11.77s-5.28,11.77-11.77,11.77-11.77-5.28-11.77-11.77,5.28-11.77,11.77-11.77Zm-510.38-362.05c0-6.6,5.37-11.97,11.97-11.97s11.97,5.37,11.97,11.97-5.37,11.97-11.97,11.97-11.97-5.37-11.97-11.97Zm-496.58,195.2h148.74c-8.92,6.6-17.5,13.64-25.69,21.09h-131.03v14.97h115.63c-10.51,10.89-20.27,22.51-29.2,34.77h-124.07l-40.03-41.64c23.87-16.32,43.72-38.1,57.75-63.53l27.9,34.34Zm-350.74-123.01c0-88.99,72.4-161.39,161.38-161.39s161.39,72.4,161.39,161.39-72.4,161.38-161.39,161.38-161.38-72.39-161.38-161.38Zm286.35,228.7l-54.86-58.34c7.1-2.93,13.96-6.31,20.58-10.07l46.47,48.53h120.34c-4.05,6.25-7.88,12.65-11.5,19.18l-121.04.7Zm-372.79,881.91c-64.76,0-117.44-52.68-117.44-117.44s52.68-117.44,117.44-117.44,117.44,52.68,117.44,117.44-52.68,117.44-117.44,117.44Zm630.33-171.16h-405.35v-159.09h405.35v159.09Zm-136.33-290.33l-74.19,74.19v42h-209.89v21.82l-106.08,114.24c-7.11-8.04-15.14-15.23-23.92-21.45l222.26-240.31,271.01-.11c4.03,3.3,8.13,6.5,12.31,9.61h-91.5Zm1228.36,191.14c63.5,0,115.16,51.66,115.16,115.16s-51.66,115.16-115.16,115.16-115.16-51.66-115.16-115.16,51.66-115.16,115.16-115.16Zm-566.85,82.34l2.12,1.87h435.83c-1.93,8.05-3.15,16.38-3.53,24.92h-447.07l-183.18-162.3v-127.17c8.25-5.42,16.24-11.2,23.95-17.33v128.87l171.89,151.14Zm-76.73-536.39c0,164.58-133.89,298.47-298.47,298.47s-298.47-133.89-298.47-298.47,133.89-298.46,298.47-298.46,298.47,133.89,298.47,298.46Zm-197.35-516.15v204.8c-10.36-3.37-20.95-6.24-31.73-8.58v-222.12h270.26v25.89h-238.53Zm979.24,125.66h-720.27v-232.69h720.27v232.69Zm335.46-154.37c-6.6,0-11.97-5.37-11.97-11.97s5.37-11.97,11.97-11.97,11.97,5.37,11.97,11.97-5.37,11.97-11.97,11.97Z"/>
        <path class="cls-3" d="m2878.95,627.41h-270.02c-3.25-11.11-13.51-19.25-25.66-19.25-14.74,0-26.74,12-26.74,26.74s12,26.75,26.74,26.75c12.15,0,22.41-8.15,25.66-19.26h270.76c3.68,11,14.05,18.93,26.29,18.93,15.32,0,27.74-12.42,27.74-27.74s-12.42-27.74-27.74-27.74c-13.2,0-24.22,9.22-27.02,21.57Zm-295.68,19.26c-6.49,0-11.77-5.28-11.77-11.77s5.28-11.77,11.77-11.77,11.77,5.28,11.77,11.77-5.28,11.77-11.77,11.77Zm334.68-13.09c0,6.6-5.37,11.97-11.97,11.97s-11.97-5.37-11.97-11.97,5.37-11.97,11.97-11.97,11.97,5.37,11.97,11.97Z"/>
        <path class="cls-3" d="m3073.15,918.74c-12.08,0-22.32,7.73-26.13,18.5h-490.58c-2.98-11.52-13.43-20.06-25.86-20.06-14.74,0-26.74,12-26.74,26.74s12,26.74,26.74,26.74c11.85,0,21.91-7.76,25.41-18.45h490.03c2.64,12.56,13.78,22,27.13,22,15.32,0,27.74-12.42,27.74-27.74s-12.42-27.74-27.74-27.74Zm-531.34,28.51c-1.44,4.86-5.9,8.45-11.23,8.45-6.49,0-11.77-5.28-11.77-11.77s5.28-11.77,11.77-11.77c5.33,0,9.79,3.58,11.23,8.45v6.64Zm531.34,11.2c-6.6,0-11.97-5.37-11.97-11.97s5.37-11.97,11.97-11.97,11.97,5.37,11.97,11.97-5.37,11.97-11.97,11.97Z"/>
      </g>
      <g>
        <path class="cls-4" d="m2543.7,1336.74c-15.12-16.54-41.15-17.43-58.04-1.99l-21.33,19.5c-4.23,3.87-7.49,8.41-9.77,13.29,3.81-1.08,11.7-2.48,22.6-.28l20.82-19.04c9.29-8.5,23.63-8.01,31.95,1.1,8.32,9.1,7.54,23.42-1.76,31.92l-18.48,16.9h0c-1.13,1.17-2.26,2.17-3.39,3.06-.16.13-.32.26-.48.38-5.1,4.16-11.49,5.83-17.56,5.02-4.99-.67-9.75-3-13.38-6.96-3.36-3.67-5.21-8.19-5.64-12.84-7.97-1.88-16.64,4.7-17.91,5.71,1.32,7.15,4.56,14,9.79,19.71,4.85,5.3,10.82,8.99,17.26,11.05l.02-.07s1.08.36,3.02.71c3.99.71,11.76,1.38,22.22-.96.66-.15,1.32-.29,2-.46v.03c4.85-1.83,9.45-4.59,13.51-8.31l21.33-19.5c16.88-15.44,18.31-41.45,3.19-57.98Z"/>
        <path class="cls-4" d="m2480.41,1424.93l-20.95,19.16c-9.29,8.5-23.63,8.01-31.95-1.1-8.32-9.1-7.54-23.42,1.76-31.92l21.33-19.5c.17-.16.36-.29.54-.44,2.89-2.49,6.22-4.15,9.7-4.98,2.61-.78,5.49-1.15,8.33-.55.45.09.89.21,1.34.36,4.5.88,8.74,3.11,12.04,6.72,3.33,3.65,5.18,8.13,5.63,12.74,4.47.68,11.04.19,17.93-5.51-1.31-7.18-4.56-14.07-9.8-19.81-5.42-5.93-12.25-9.84-19.56-11.71-.2-.04-.4-.09-.6-.12-8.28-1.55-14.77-.95-18.84-.13-1.14.26-2.27.56-3.38.91-5.63,1.79-10.99,4.8-15.65,9.06l-21.33,19.5c-16.88,15.44-18.31,41.45-3.19,57.98,15.12,16.54,41.15,17.43,58.04,1.99l21.33-19.5c4.37-3.99,7.69-8.7,9.97-13.76-11.09,2.35-18.97,1.4-22.67.63Z"/>
      </g>
      <path class="cls-4" d="m304.87,941.5c11.2,0,20.29-9.08,20.29-20.29,0-3.73-1.02-7.21-2.78-10.21l24.84-23.71c3.17,2.06,6.95,3.27,11.02,3.27,2.83,0,5.52-.58,7.97-1.63l30.1,40.61c-2.97,3.53-4.77,8.08-4.77,13.06,0,11.2,9.08,20.29,20.29,20.29s20.29-9.08,20.29-20.29c0-3.96-1.15-7.63-3.11-10.76l42.89-54.42c2.59,1.2,5.47,1.89,8.51,1.89,11.2,0,20.29-9.08,20.29-20.29s-9.08-20.29-20.29-20.29-20.29,9.08-20.29,20.29c0,4.75,1.65,9.12,4.39,12.58l-42.26,53.62c-3.05-1.83-6.61-2.91-10.42-2.91-2.83,0-5.52.58-7.96,1.62l-30.1-40.62c2.97-3.53,4.76-8.08,4.76-13.05,0-11.2-9.08-20.29-20.29-20.29s-20.29,9.08-20.29,20.29c0,3.73,1.02,7.21,2.78,10.21l-24.84,23.71c-3.17-2.06-6.95-3.27-11.02-3.27-11.2,0-20.29,9.08-20.29,20.29s9.08,20.29,20.29,20.29Z"/>
      <g>
        <path class="cls-4" d="m2020.55,369.34c0,7.26-3.61,10.89-10.82,10.89h-35.87c-7.16,0-10.74-3.63-10.74-10.89v-28.41h17.82v24.3h21.78v-23.38l-35.72-33.82c-2.59-2.49-3.88-5.66-3.88-9.52v-26.5c0-7.31,3.58-10.97,10.74-10.97h35.87c7.21,0,10.82,3.61,10.82,10.81v26.66h-17.82v-22.47h-21.78v21.55l35.72,33.66c2.59,2.44,3.88,5.66,3.88,9.67v28.41Z"/>
        <path class="cls-4" d="m2094.3,276.8h-19.65v103.43h-17.75v-103.43h-19.65v-15.76h57.04v15.76Z"/>
        <path class="cls-4" d="m2172.17,380.23h-18.58l-19.65-55.37v-10.74h17.52v-37.78h-22.47v103.88h-17.82v-119.19h47.3c7.16,0,10.74,3.66,10.74,10.97v43.34c0,5.03-1.7,8.28-5.1,9.75-1.83.76-5.69,1.14-11.58,1.14l19.65,54Z"/>
        <path class="cls-4" d="m2251.26,380.23h-17.67l-3.58-22.62h-22.32l-3.58,22.62h-17.59v-.3l23.08-119.04h18.74l22.92,119.34Zm-23.76-37.93l-8.68-53.77-8.76,53.77h17.44Z"/>
        <path class="cls-4" d="m2320.82,276.8h-19.65v103.43h-17.75v-103.43h-19.65v-15.76h57.04v15.76Z"/>
        <path class="cls-4" d="m2387.11,380.23h-49.43v-119.19h48.97v15.76h-31.15v34.81h26.81v15.46h-26.81v37.4h31.61v15.77Z"/>
        <path class="cls-4" d="m2466.05,369.34c0,7.26-3.63,10.89-10.89,10.89h-37.47c-7.06,0-10.59-3.63-10.59-10.89v-97.33c0-7.31,3.61-10.97,10.82-10.97h37.24c7.26,0,10.89,3.66,10.89,10.97v25.44h-17.9v-21.1h-23.23v88.58h23.23v-33.36h-13.25v-15.16h31.15v52.93Z"/>
        <path class="cls-4" d="m2548.03,261.73l-15.76,49.81c-1.93,4.92-4.54,13.23-7.84,24.9v43.79h-17.9v-43.79c-.81-3.96-1.98-8.15-3.5-12.57-2.69-7.57-4.14-11.68-4.34-12.34l-15.69-49.81c-.05-.05-.05-.28,0-.69h18.35l14.24,51.79,14.17-51.79h18.28v.69Z"/>
      </g>
      <g>
        <path class="cls-4" d="m1059.37,1268.73h-14.79v77.82h-13.35v-77.82h-14.78v-11.86h42.92v11.86Z"/>
        <path class="cls-4" d="m1117.5,1346.54h-13.29l-2.69-17.02h-16.79l-2.69,17.02h-13.24v-.23l17.36-89.56h14.1l17.25,89.79Zm-17.88-28.54l-6.53-40.46-6.59,40.46h13.12Z"/>
        <path class="cls-4" d="m1176.77,1346.54h-13.98l-14.78-41.66v-8.08h13.18v-28.42h-16.9v78.16h-13.41v-89.68h35.58c5.39,0,8.08,2.75,8.08,8.25v32.6c0,3.78-1.28,6.23-3.84,7.33-1.38.57-4.28.86-8.71.86l14.78,40.63Z"/>
        <path class="cls-4" d="m1235.18,1338.35c0,5.46-2.73,8.19-8.19,8.19h-28.19c-5.31,0-7.97-2.73-7.97-8.19v-73.23c0-5.5,2.71-8.25,8.14-8.25h28.02c5.46,0,8.19,2.75,8.19,8.25v19.14h-13.47v-15.87h-17.48v66.64h17.48v-25.1h-9.97v-11.4h23.44v39.83Z"/>
        <path class="cls-4" d="m1288.96,1346.54h-37.19v-89.68h36.85v11.86h-23.44v26.19h20.17v11.63h-20.17v28.14h23.78v11.86Z"/>
        <path class="cls-4" d="m1342.96,1268.73h-14.78v77.82h-13.35v-77.82h-14.78v-11.86h42.92v11.86Z"/>
      </g>
      <g>
        <rect class="cls-1" x="1183.94" y="491.86" width="650" height="650"/>
        <g>
          <rect class="cls-5" x="1349.69" y="816.86" width="94.79" height="189.58"/>
          <rect class="cls-6" x="1461.54" y="722.07" width="94.79" height="284.38"/>
          <rect class="cls-4" x="1573.4" y="627.27" width="94.79" height="379.17"/>
        </g>
      </g>
      <g>
        <path class="cls-4" d="m821.39,1485.95l3.93,2.34c3.22,1.91,7.95-.11,10.59-4.54,2.63-4.42,2.16-9.55-1.06-11.47l-4.11-2.45c-1.24,3.61-2.71,6.68-4.25,9.28-1.67,2.79-3.42,5.03-5.1,6.83Z"/>
        <path class="cls-4" d="m685.79,1394.35c-14.66,24.62-6.59,56.46,18.03,71.12,21.89,13.04,49.47,8.09,65.63-10.46l46.07,27.43c3.2-3.34,6.82-8.47,9.39-16.08l-45.93-27.35c8.61-23.05-.18-49.65-22.07-62.69-24.62-14.66-56.46-6.59-71.12,18.03Zm75.89,45.19c-10.3,17.29-32.67,22.96-49.96,12.67-17.29-10.3-22.96-32.67-12.66-49.96,10.3-17.29,32.66-22.97,49.96-12.67,17.29,10.3,22.96,32.67,12.67,49.96Z"/>
      </g>
      <g>
        <path class="cls-4" d="m420.4,338.9l33.29,37.45c3.24,3.64,2.91,9.22-.73,12.46-3.64,3.24-9.22,2.91-12.46-.73l-33.29-37.45,13.19-11.73Z"/>
        <path class="cls-4" d="m380.46,337.12c-5.13,4.56-5.59,12.42-1.03,17.55l2.4,2.7c4.56,5.13,12.42,5.59,17.55,1.03l1.5-1.33-18.91-21.28-1.5,1.33Z"/>
        <path class="cls-4" d="m377.57,325.74c-2.71,2.41-2.95,6.55-.54,9.26l24.05,27.05c2.41,2.71,6.55,2.95,9.26.54l24.12-21.44-32.76-36.85-24.12,21.44Z"/>
        <polygon class="cls-4" points="508.46 325.44 434.52 341.23 401.63 304.22 425.98 232.65 508.46 325.44"/>
        <path class="cls-4" d="m420.44,223.54h0c-2.45,2.18-2.68,5.97-.5,8.42l88.49,99.55c2.18,2.45,5.97,2.68,8.42.5h0c2.45-2.18,2.68-5.97.5-8.42l-88.49-99.55c-2.18-2.45-5.97-2.68-8.42-.5Z"/>
        <path class="cls-4" d="m380.46,337.12c-5.13,4.56-5.59,12.42-1.03,17.55l2.4,2.7c4.56,5.13,12.42,5.59,17.55,1.03l1.5-1.33-18.91-21.28-1.5,1.33Z"/>
        <path class="cls-4" d="m377.57,325.74c-2.71,2.41-2.95,6.55-.54,9.26l24.05,27.05c2.41,2.71,6.55,2.95,9.26.54l24.12-21.44-32.76-36.85-24.12,21.44Z"/>
        <polygon class="cls-4" points="508.46 325.44 434.52 341.23 401.63 304.22 425.98 232.65 508.46 325.44"/>
        <path class="cls-4" d="m420.44,223.54h0c-2.45,2.18-2.68,5.97-.5,8.42l88.49,99.55c2.18,2.45,5.97,2.68,8.42.5h0c2.45-2.18,2.68-5.97.5-8.42l-88.49-99.55c-2.18-2.45-5.97-2.68-8.42-.5Z"/>
      </g>
      <g>
        <circle class="cls-4" cx="997.31" cy="441.04" r="119.59"/>
        <circle class="cls-2" cx="997.31" cy="441.04" r="95.5"/>
        <circle class="cls-4" cx="997.31" cy="441.04" r="79.3"/>
        <circle class="cls-2" cx="997.31" cy="441.04" r="56.07"/>
        <circle class="cls-4" cx="997.31" cy="441.04" r="35.41" transform="translate(339.85 1311.03) rotate(-76.78)"/>
      </g>
      <g>
        <g>
          <path d="m2268.09,1180.39c16,0,28.97,11.14,28.97,24.88v9.25c0,13.74-12.97,24.88-28.97,24.89h0c-15.99,0-28.95-11.14-28.95-24.89v-9.25c0-13.74,12.97-24.88,28.95-24.88h0Z"/>
          <path class="cls-4" d="m2330.87,1113.78c0-34.69-28.11-62.8-62.8-62.8s-62.8,28.11-62.8,62.8c0,11.83,3.33,22.86,9.02,32.31l-.05-.03s24.83,40.94,24.83,57.92h58c0-16.98,24.82-57.92,24.82-57.92l-.04.02c5.69-9.45,9.02-20.47,9.02-32.3Z"/>
          <g>
            <polygon points="2252.56 1210.59 2229.36 1122.5 2234.63 1121.1 2257.84 1209.2 2252.56 1210.59"/>
            <path d="m2239.14,1121.8c0,3.94-3.2,7.15-7.15,7.15s-7.14-3.21-7.14-7.15,3.2-7.15,7.14-7.15,7.15,3.21,7.15,7.15Z"/>
          </g>
          <g>
            <polygon points="2278.95 1210.59 2302.16 1122.5 2296.88 1121.1 2273.68 1209.2 2278.95 1210.59"/>
            <path d="m2292.38,1121.8c0,3.94,3.2,7.15,7.14,7.15s7.14-3.21,7.14-7.15-3.2-7.15-7.14-7.15-7.14,3.21-7.14,7.15Z"/>
          </g>
        </g>
        <path class="cls-4" d="m2268.1,1026.79c-7.53-9.42-8.81-21.41-5.73-32.53,1.15-3.62,2.67-7.23,5.73-10.84,3.06,3.61,4.58,7.23,5.73,10.84,3.08,11.13,1.8,23.1-5.73,32.53h0Z"/>
        <path class="cls-4" d="m2315.84,1040.15c-1.82-11.89,3.08-22.98,11.3-31.04,2.8-2.56,5.93-4.93,10.38-6.53.84,4.66.35,8.55-.46,12.26-2.85,11.12-10.05,20.96-21.23,25.31h0Z"/>
        <path class="cls-4" d="m2350.51,1075.59c4.34-11.17,14.19-18.38,25.31-21.23,3.71-.81,7.59-1.3,12.25-.46-1.6,4.46-3.97,7.58-6.53,10.38-8.06,8.22-19.14,13.12-31.03,11.3h0Z"/>
        <path class="cls-4" d="m2362.8,1123.63c9.42-7.53,21.4-8.81,32.53-5.73,3.61,1.15,7.23,2.67,10.84,5.73-3.61,3.06-7.23,4.58-10.84,5.73-11.13,3.08-23.1,1.8-32.53-5.73h0Z"/>
        <path class="cls-4" d="m2315.84,1040.15c-1.82-11.89,3.08-22.98,11.3-31.04,2.8-2.56,5.93-4.93,10.38-6.53.84,4.66.35,8.55-.46,12.26-2.85,11.12-10.05,20.96-21.23,25.31h0Z"/>
        <path class="cls-4" d="m2350.51,1075.59c4.34-11.17,14.19-18.38,25.31-21.23,3.71-.81,7.59-1.3,12.25-.46-1.6,4.46-3.97,7.58-6.53,10.38-8.06,8.22-19.14,13.12-31.03,11.3h0Z"/>
        <path class="cls-4" d="m2362.8,1123.63c9.42-7.53,21.4-8.81,32.53-5.73,3.61,1.15,7.23,2.67,10.84,5.73-3.61,3.06-7.23,4.58-10.84,5.73-11.13,3.08-23.1,1.8-32.53-5.73h0Z"/>
        <path class="cls-4" d="m2220.36,1040.15c-11.18-4.34-18.38-14.19-21.23-25.31-.81-3.71-1.3-7.6-.46-12.26,4.46,1.6,7.58,3.97,10.38,6.53,8.22,8.06,13.12,19.15,11.3,31.04h0Z"/>
        <path class="cls-4" d="m2185.7,1075.59c-11.89,1.82-22.98-3.08-31.04-11.3-2.56-2.8-4.93-5.93-6.53-10.38,4.66-.84,8.55-.35,12.26.46,11.12,2.85,20.96,10.05,25.31,21.23h0Z"/>
        <path class="cls-4" d="m2173.4,1123.63c-9.42,7.53-21.4,8.81-32.52,5.73-3.61-1.15-7.23-2.67-10.84-5.73,3.61-3.06,7.23-4.58,10.84-5.73,11.13-3.08,23.1-1.8,32.52,5.73h0Z"/>
      </g>
    </g>
  </g>
</svg>