<?xml version="1.0" encoding="UTF-8"?>
<svg id="Layer_2" data-name="Layer 2" xmlns="http://www.w3.org/2000/svg" viewBox="0 0 265.04 180">
  <defs>
    <style>
      .cls-1 {
        fill: #f8981d;
      }

      .cls-2 {
        fill: #5d87a1;
      }
    </style>
  </defs>
  <g id="Layer_1-2" data-name="Layer 1">
    <g>
      <path class="cls-2" d="m63.72,163.98h-10.23c-.36-17.26-1.36-33.49-2.99-48.7h-.09l-15.57,48.7h-7.79l-15.48-48.7h-.09c-1.15,14.6-1.87,30.83-2.17,48.7H0c.6-21.72,2.11-42.09,4.52-61.1h12.68l14.75,44.9h.09l14.84-44.9h12.13c2.66,22.27,4.23,42.64,4.71,61.1m44.35-45.08c-4.16,22.6-9.66,39.01-16.48,49.26-5.31,7.89-11.13,11.84-17.47,11.84-1.69,0-3.77-.51-6.24-1.52v-5.45c1.21.17,2.62.27,4.25.27,2.96,0,5.34-.81,7.15-2.45,2.17-1.99,3.25-4.22,3.25-6.7,0-1.7-.85-5.16-2.53-10.41l-11.22-34.85h10.05l8.06,26.07c1.81,5.92,2.57,10.05,2.26,12.4,4.4-11.76,7.48-24.59,9.23-38.47h9.69Z"/>
      <path class="cls-1" d="m244.21,163.98h-29.05v-61.1h9.77v53.58h19.28v7.52Zm-36.65,1.48l-11.23-5.54c1-.82,1.95-1.7,2.81-2.73,4.77-5.61,7.16-13.9,7.16-24.89,0-20.21-7.93-30.33-23.8-30.33-7.78,0-13.85,2.57-18.2,7.7-4.77,5.61-7.15,13.88-7.15,24.8s2.11,18.62,6.33,23.62c3.86,4.53,9.69,6.79,17.48,6.79,2.91,0,5.57-.36,8-1.07l14.62,8.51,3.99-6.87Zm-36.39-13.7c-2.47-3.98-3.71-10.37-3.71-19.18,0-15.38,4.67-23.09,14.03-23.09,4.89,0,8.48,1.84,10.77,5.52,2.47,3.99,3.71,10.32,3.71,19.01,0,15.51-4.68,23.27-14.03,23.27-4.89,0-8.48-1.83-10.77-5.53m-18.29-4.71c0,5.18-1.9,9.43-5.7,12.76-3.8,3.32-8.9,4.98-15.29,4.98-5.98,0-11.77-1.91-17.38-5.71l2.63-5.25c4.83,2.42,9.2,3.62,13.12,3.62,3.68,0,6.56-.82,8.65-2.43,2.08-1.62,3.33-3.9,3.33-6.78,0-3.63-2.53-6.73-7.18-9.33-4.28-2.35-12.85-7.27-12.85-7.27-4.64-3.38-6.97-7.02-6.97-13,0-4.95,1.73-8.95,5.2-11.99,3.47-3.05,7.95-4.57,13.44-4.57s10.83,1.52,15.47,4.53l-2.36,5.25c-3.97-1.69-7.89-2.53-11.76-2.53-3.13,0-5.55.75-7.23,2.26-1.7,1.51-2.74,3.43-2.74,5.8,0,3.61,2.58,6.75,7.36,9.4,4.34,2.36,13.12,7.36,13.12,7.36,4.76,3.38,7.14,6.98,7.14,12.91"/>
      <path class="cls-2" d="m256.47,82.41c-5.91-.15-10.48.44-14.32,2.07-1.11.44-2.87.44-3.03,1.84.6.59.67,1.55,1.19,2.37.89,1.48,2.43,3.46,3.84,4.5,1.55,1.19,3.1,2.36,4.73,3.39,2.87,1.78,6.13,2.81,8.92,4.58,1.63,1.03,3.25,2.36,4.88,3.47.8.59,1.32,1.55,2.36,1.92v-.23c-.52-.66-.67-1.62-1.18-2.36l-2.22-2.14c-2.14-2.88-4.8-5.39-7.68-7.45-2.36-1.63-7.53-3.84-8.49-6.56l-.15-.15c1.62-.15,3.55-.74,5.09-1.19,2.51-.66,4.8-.51,7.38-1.17,1.19-.3,2.36-.67,3.55-1.03v-.67c-1.34-1.33-2.29-3.1-3.69-4.35-3.76-3.25-7.9-6.42-12.18-9.08-2.29-1.48-5.24-2.43-7.68-3.69-.88-.44-2.36-.66-2.88-1.4-1.32-1.62-2.07-3.76-3.03-5.69-2.13-4.06-4.21-8.56-6.05-12.85-1.33-2.88-2.14-5.75-3.77-8.41-7.61-12.55-15.87-20.15-28.57-27.61-2.73-1.55-5.98-2.22-9.44-3.03l-5.54-.29c-1.18-.52-2.37-1.92-3.4-2.59-4.21-2.66-15.06-8.41-18.16-.81-2,4.8,2.95,9.53,4.65,11.96,1.25,1.69,2.88,3.62,3.76,5.54.52,1.25.67,2.59,1.19,3.91,1.18,3.25,2.29,6.86,3.84,9.89.81,1.55,1.69,3.17,2.73,4.57.59.82,1.62,1.18,1.85,2.51-1.03,1.47-1.11,3.69-1.7,5.54-2.66,8.34-1.62,18.68,2.15,24.81,1.18,1.85,3.99,5.91,7.75,4.35,3.33-1.33,2.59-5.54,3.55-9.22.22-.89.08-1.48.52-2.06v.14c1.03,2.07,2.07,4.06,3.02,6.13,2.29,3.61,6.28,7.38,9.6,9.89,1.77,1.34,3.17,3.62,5.39,4.44v-.22h-.15c-.45-.66-1.1-.96-1.69-1.47-1.33-1.33-2.81-2.95-3.84-4.43-3.09-4.14-5.83-8.72-8.26-13.44-1.19-2.29-2.22-4.8-3.17-7.09-.45-.88-.45-2.22-1.19-2.66-1.11,1.62-2.73,3.03-3.54,5.02-1.41,3.18-1.55,7.09-2.07,11.16l-.29.14c-2.35-.59-3.17-3.02-4.06-5.09-2.21-5.24-2.58-13.66-.66-19.71.51-1.55,2.74-6.42,1.85-7.89-.44-1.41-1.92-2.22-2.73-3.33-.95-1.4-2-3.17-2.66-4.72-1.77-4.13-2.66-8.71-4.57-12.84-.89-1.92-2.44-3.92-3.69-5.69-1.41-1.99-2.95-3.4-4.07-5.76-.37-.81-.88-2.14-.29-3.02.14-.59.44-.81,1.03-.96.96-.81,3.69.22,4.65.66,2.74,1.11,5.03,2.14,7.31,3.69,1.03.74,2.14,2.14,3.47,2.51h1.55c2.36.51,5.02.14,7.23.81,3.91,1.26,7.45,3.1,10.63,5.09,9.67,6.13,17.64,14.85,23.03,25.25.88,1.7,1.26,3.25,2.07,5.02,1.56,3.62,3.48,7.31,5.02,10.86,1.55,3.47,3.03,7.01,5.24,9.89,1.1,1.55,5.54,2.36,7.53,3.17,1.47.66,3.76,1.25,5.09,2.06,2.51,1.55,5.01,3.32,7.38,5.03,1.18.89,4.87,2.73,5.09,4.21M181.17,18.26c-1.02-.01-2.04.11-3.02.37v.15h.14c.59,1.18,1.63,2,2.37,3.03.59,1.18,1.11,2.36,1.69,3.54l.14-.15c1.04-.74,1.56-1.92,1.56-3.69-.45-.52-.52-1.03-.89-1.55-.43-.74-1.39-1.11-1.99-1.7"/>
      <path class="cls-1" d="m263.51,163.97h1.53v-7.49h-2.29l-1.87,5.11-2.03-5.11h-2.21v7.49h1.44v-5.7h.08l2.13,5.7h1.1l2.12-5.7v5.7h0Zm-12.32,0h1.62v-6.22h2.12v-1.27h-5.94v1.27h2.2v6.22s0,0,0,0Z"/>
    </g>
  </g>
</svg>