<?xml version="1.0" encoding="UTF-8"?>
<svg id="Layer_2" data-name="Layer 2" xmlns="http://www.w3.org/2000/svg" viewBox="0 0 1251.74 188.31">
  <defs>
    <style>
      .cls-1 {
        stroke: #231f20;
        stroke-width: 17.13px;
      }

      .cls-1, .cls-2 {
        fill: #231f20;
      }

      .cls-3 {
        fill: #417ba2;
      }

      .cls-4 {
        fill: #367faf;
      }

      .cls-5, .cls-6 {
        stroke-linecap: round;
      }

      .cls-5, .cls-6, .cls-7 {
        fill: none;
        stroke-width: 5.71px;
      }

      .cls-5, .cls-6, .cls-7, .cls-8, .cls-9 {
        stroke: #fff;
      }

      .cls-5, .cls-7 {
        stroke-linejoin: round;
      }

      .cls-6 {
        stroke-linejoin: bevel;
      }

      .cls-8 {
        stroke-width: .95px;
      }

      .cls-8, .cls-9 {
        fill: #fff;
      }

      .cls-9 {
        stroke-width: 1.9px;
      }
    </style>
  </defs>
  <g id="Layer_1-2" data-name="Layer 1">
    <g>
      <path class="cls-2" d="m316.72,97.47h-48.4v-48.67h51.03c18.68,0,28.02,8.24,28.02,24.72s-10.22,23.97-30.64,23.97m34.79-49.25c-6.67-5.94-15.91-8.91-27.84-8.91l-69.31.38v116.45h13.96l-.13-49.57h51.58c12.93,0,23.11-2.97,30.54-8.91s11.14-14.18,11.14-24.72-3.32-18.78-9.95-24.72h0Zm90.39,83.47c-1.34,3.81-3.62,7.22-6.63,9.91-6.26,6.11-15.8,9.16-28.64,9.16-11.59,0-20.49-2.92-26.69-8.9-6.21-5.98-9.31-13.88-9.31-23.83,0-5.18.81-9.78,2.44-13.79s3.98-7.4,7.07-10.16c6.42-5.85,15.26-8.78,26.51-8.78,24.93,0,37.39,10.91,37.39,32.73,0,5.18-.71,9.74-2.09,13.67m2.53-42.96c-8.51-7.76-21.1-11.68-37.8-11.68-15.77,0-27.95,3.96-36.55,11.89-7.76,7.17-11.68,16.85-11.68,29.04s4,21.86,12.01,29.28c4.42,4,9.57,6.91,15.46,8.7,5.89,1.79,12.79,2.69,20.71,2.69,16.6,0,29.2-3.84,37.92-11.51,7.76-7.01,11.68-16.68,11.68-29.16s-3.92-22.27-11.76-29.29v.05Zm105.6,46.33c0,15.67-14.04,23.51-42.13,23.51-8.58,0-15.82-.54-21.69-1.63-5.87-1.09-10.65-2.9-14.31-5.41-2.83-1.91-5.15-4.49-6.75-7.51-1.67-3.09-2.75-6.97-3.25-11.68l13.07-.13c0,6.17,2.29,10.71,6.86,13.63,4.91,3.5,13.6,5.26,26.08,5.26,19.63,0,29.45-4.92,29.45-14.76,0-5.76-3.34-9.71-9.88-11.89-1.33-.42-9.27-1.52-23.77-3.31-14.5-1.79-23.61-3.4-27.19-4.82-7.75-3.09-11.62-8.63-11.62-16.63s3.46-13.68,10.43-17.51c3.42-1.58,7.7-2.81,12.83-3.69,5.13-.88,11.08-1.31,17.83-1.31,27.04,0,40.55,8.48,40.55,25.44h-12.43c0-11.93-9.51-17.93-28.51-17.93-9.67,0-16.88,1.25-21.63,3.63s-7.12,6.13-7.12,11.14c0,4.67,3.21,8.05,9.63,10.14,3.75,1.08,12.38,2.34,25.88,3.75,12.09,1.08,20.38,2.63,24.88,4.59,8.59,3.34,12.88,9.01,12.88,17l-.09.13Zm51.33,21.24l-5.32.75-3.32.25c-8.51,0-14.6-1.23-18.41-3.7s-5.64-6.79-5.64-12.93v-53.2h-15.46v-7.82h15.38l.13-25.11h11.91v25.11h20.75v7.94l-20.75-.13v51.71c0,3.85,1.02,6.51,3.07,7.92,2.04,1.42,5.69,2.19,10.94,2.19.75.08,1.58.06,2.5-.08,1.39-.25,2.77-.56,4.13-.94l.13,7.92-.04.1Zm82.4-17.64c-3.25,2.67-6.96,4.7-11.12,6.13-4.17,1.43-8.96,2.09-14.37,2.09-24.92,0-37.37-10.29-37.37-30.86,0-9.58,3.19-17.08,9.56-22.5,6.38-5.42,15.35-8.12,26.94-8.12s20.52,2.73,26.56,8.19c6.04,5.46,9.06,12.77,9.06,21.94,0,10-3.09,17.71-9.25,23.12m21.17-58.96h-11.91l-.13,13.14c-5.26-5.34-9.01-8.7-11.26-10.12-6.67-3.67-15.3-5.5-25.89-5.5-15.51,0-27.35,3.55-35.52,10.63-7.76,6.51-11.63,15.92-11.63,28.25,0,6.09.98,11.52,2.94,16.27s4.82,8.85,8.58,12.19c8.18,6.83,19.75,10.25,34.7,10.25,17.95,0,30.69-4.91,38.21-14.73v13.6c0,8.68-2.73,15.38-8.19,20.14s-14.44,7.09-26.95,7.09c-11.76,0-20.14-1.67-25.14-4.85-3.75-2.49-6.34-6.81-7.76-12.95h-12.26c1.33,8.58,5.01,14.79,10.84,18.61,6.84,4.41,18.35,6.62,34.62,6.62,31.11,0,46.71-11.57,46.71-34.7v-73.89l.03-.03Zm64.44,7.73c-3.59-.58-6.92-.83-9.99-.83-19.58,0-29.37,10.74-29.37,32.21v37.35h-11.79l-.13-76.42,11.92.12v13.64h.63c2-5.37,5.17-9.45,9.5-12.22,4.75-2.69,11.83-4.03,21.25-4.03h8v10.26-.07Zm11.08,25.68c1.5-8.68,4.88-15.41,10.12-20.17,3.42-2.75,7.3-4.83,11.63-6.2s9.18-2.07,14.63-2.07c10.59,0,19.19,2.9,25.94,8.71,6.76,5.81,10.06,12.39,10.06,19.73h-72.39m73.54-23.57c-4.17-4.18-9.34-7.27-15.52-9.28-6.17-2.01-13.35-3.01-21.69-3.01-15.43,0-27.4,3.59-35.92,10.76s-12.76,16.93-12.76,29.29,4.09,22.11,12.26,29.4c8.84,8.01,21.27,12.01,37.4,12.01,6.42,0,12.36-.73,17.82-2.18,5.46-1.45,10.24-3.51,14.32-6.17,7.17-5.15,11.71-11.51,13.64-19.06h-12.88c-4.42,13.07-15.42,19.6-33.01,19.6-12.42,0-21.97-3.19-28.63-9.58-5.76-5.48-8.63-12.57-8.63-21.29h84.93c0-12.96-3.75-23.13-11.39-30.45l.04-.04Z"/>
      <path class="cls-4" d="m991.29,124.92c0,22.69-18.3,34.03-54.9,34.03-21.93,0-37.93-3.91-48.02-11.68-8.26-6.42-12.38-16.22-12.38-29.4h14.73c0,21.18,15.22,31.77,45.66,31.77,14.6,0,25.15-2.17,31.7-6.5,5.51-3.83,8.26-9.83,8.26-17.99s-3.75-13.75-11.26-17c-4.25-1.75-14.6-3.96-31.16-6.62-20.77-3.17-34.23-6.33-40.41-9.5-8.93-4.67-13.35-12.58-13.35-23.75,0-10.41,3.75-18.16,11.39-23.25,8.17-5.58,22.19-8.38,42.03-8.38,35.87,0,53.8,11.91,53.8,35.74h-14.86c0-17.85-13.32-26.77-39.95-26.77-13.36,0-23.13,1.79-29.3,5.42-5.85,3.84-8.76,9.47-8.76,16.89s3.75,13.22,11.26,16.39c4,1.84,15.77,4.38,35.29,7.63,18.35,2.75,30.74,5.96,37.12,9.59,8.76,4.5,13.14,12.3,13.14,23.36h-.04Zm119.7,11.58c-5.51,4.41-11.73,7.72-18.66,9.93-6.93,2.21-14.69,3.31-23.29,3.31-17.53,0-31.7-4.73-42.52-14.17s-16.21-22.04-16.21-37.78,5.36-29.18,16.09-38.34c10.73-9.16,24.94-13.73,42.64-13.73s32.06,4.79,42.33,14.36c5.42,4.67,9.43,10.12,12.02,16.36s3.88,13.36,3.88,21.35c0,16.32-5.43,29.22-16.28,38.71m7.83,7.72c7.67-5.41,13.36-11.97,17.03-19.68,3.67-7.71,5.51-16.6,5.51-26.69,0-18.08-6.01-32.53-18.02-43.49-6.42-6-14.18-10.46-23.27-13.37-9.09-2.92-19.48-4.38-31.16-4.38-22.69,0-40.46,5.51-53.39,16.5s-19.39,25.91-19.39,44.74,6.52,33.12,19.57,44.36c13.05,11.24,30.88,16.87,53.47,16.87,8.84,0,16.55-.6,23.14-1.79,6.59-1.2,12.18-3.03,16.77-5.51l21.76,15.09,9.09-8.35-21.08-14.29h-.04Zm132.84,11.92h-100.71V39.52l13.84-.25v107.1h86.95l-.13,9.73.04.04Z"/>
      <path class="cls-1" d="m158.85,136.56c1.4-9.88.98-11.34,9.67-9.73l2.21.17c6.68.26,15.42-.91,20.55-2.93,11.05-4.35,17.6-11.6,6.71-9.7-24.86,4.35-26.57-2.79-26.57-2.79,26.25-33.01,37.22-74.92,27.75-85.18-25.88-27.97-70.55-14.74-71.34-14.4l-.24.04c-4.91-.86-10.41-1.38-16.58-1.46-11.25-.16-19.78,2.5-26.26,6.66,0,0-79.77-27.86-76.06,35.04.79,13.38,22.63,101.24,48.67,74.7,9.52-9.71,18.72-17.91,18.72-17.91,4.8,2.69,10.29,3.88,15.77,3.41l.44-.32c-.14,1.21-.08,2.38.18,3.78-6.71,6.35-4.74,7.47-18.15,9.81-13.57,2.37-5.6,6.59-.39,7.7,6.31,1.33,20.91,3.23,30.77-8.47l-.39,1.33c2.63,1.79,2.45,12.83,2.83,20.72s1,15.25,2.89,19.59,4.14,15.52,21.76,12.32c14.73-2.68,26-6.53,27.03-42.36"/>
      <path class="cls-3" d="m197.99,114.36c-24.86,4.35-26.57-2.79-26.57-2.79,26.25-33.02,37.22-74.93,27.75-85.18-25.83-27.97-70.55-14.74-71.34-14.39l-.24.04c-4.91-.86-10.41-1.38-16.59-1.46-11.25-.15-19.78,2.5-26.26,6.66,0,0-79.78-27.86-76.06,35.04.79,13.38,22.62,101.24,48.67,74.7,9.52-9.71,18.71-17.91,18.71-17.91,4.8,2.69,10.29,3.88,15.77,3.41l.45-.32c-.14,1.21-.08,2.38.18,3.78-6.71,6.35-4.74,7.47-18.14,9.81-13.57,2.37-5.6,6.59-.39,7.7,6.31,1.33,20.91,3.23,30.77-8.47l-.39,1.33c2.63,1.79,4.48,11.61,4.17,20.52-.3,8.91-.52,15.02,1.56,19.79,2.07,4.78,4.14,15.52,21.77,12.32,14.73-2.68,22.37-9.61,23.43-21.18.75-8.22,2.46-7.01,2.57-14.36l1.37-3.48c1.58-11.15.25-14.74,9.33-13.07l2.21.17c6.68.26,15.42-.91,20.55-2.93,11.05-4.35,17.6-11.6,6.71-9.7l.03-.03Z"/>
      <g>
        <g>
          <path class="cls-5" d="m105.8,120.76c-.68,20.74.17,41.63,2.57,46.71s7.52,14.95,25.16,11.75c14.73-2.68,20.09-7.86,22.41-19.29,1.67-8.41,5.02-31.78,5.44-36.57M84.66,16.76S4.79-10.89,8.55,52.03c.83,13.38,22.62,101.24,48.67,74.66,9.52-9.71,18.12-17.32,18.12-17.32M127.83,11.71c-2.77.73,44.41-14.61,71.21,14.42,9.47,10.26-1.5,52.17-27.75,85.19"/>
          <path class="cls-6" d="m171.25,111.31s1.67,7.13,26.57,2.79c10.89-1.91,4.34,5.35-6.72,9.7-9.07,3.57-29.4,4.48-29.73-.45-.86-12.72,10.7-8.85,9.86-12.04-.75-2.87-5.92-5.68-9.34-12.71-2.98-6.13-40.92-53.15,10.52-46.16,1.89-.33-13.42-41.48-61.56-42.14-48.14-.67-46.55,50.18-46.55,50.18"/>
        </g>
        <g>
          <path class="cls-7" d="m92.33,115.66c-6.72,6.35-4.74,7.47-18.15,9.81-13.57,2.38-5.6,6.59-.39,7.7,6.31,1.33,20.91,3.23,30.77-8.48,3-3.57-.02-9.26-4.14-10.7-1.99-.7-4.66-1.58-8.09,1.67h0Z"/>
          <path class="cls-5" d="m91.89,115.56c-.68-3.74,1.45-8.17,3.72-13.38,3.42-7.8,11.31-15.61,5.01-40.36-4.7-18.45-36.27-3.84-36.29-1.33s1.43,12.68-.53,24.52c-2.55,15.47,11.61,28.54,27.91,27.21"/>
        </g>
      </g>
      <g>
        <path class="cls-9" d="m84.38,60.1c-.14.86,1.85,3.13,4.44,3.44s4.8-1.48,4.94-2.33-1.84-1.79-4.44-2.1-4.8.14-4.94.99Z"/>
        <path class="cls-8" d="m163.17,58.36c.14.86-1.84,3.13-4.44,3.44s-4.8-1.48-4.95-2.34,1.85-1.79,4.44-2.1,4.8.14,4.94.99h0Z"/>
      </g>
      <path class="cls-5" d="m172.43,52.44c.43,6.7-1.7,11.26-1.97,18.4-.4,10.37,5.83,22.23-3.55,34.12"/>
    </g>
  </g>
</svg>