<?xml version="1.0" encoding="UTF-8"?>
<svg xmlns="http://www.w3.org/2000/svg" viewBox="0 0 3100.88 1705.53">
  <defs>
    <style>
      .cls-1 {
        fill: none;
      }

      .cls-2 {
        fill: #e7e7e7;
      }

      .cls-3 {
        fill: #fff;
      }

      .cls-4 {
        fill: #f1f1f1;
      }

      .cls-5 {
        fill: #929292;
      }

      .cls-6, .cls-7 {
        fill: #333;
      }

      .cls-8 {
        fill: #cecece;
      }

      .cls-9 {
        fill: #aeaeae;
      }

      .cls-10 {
        fill: #c9c9c9;
      }

      .cls-11 {
        fill: #d0d0d0;
      }

      .cls-12 {
        fill: #6e6e6e;
      }

      .cls-13 {
        fill: #3b3b3b;
      }

      .cls-14 {
        fill: #3d3d3d;
      }

      .cls-15 {
        fill: #757575;
      }

      .cls-7 {
        opacity: .88;
      }

      .cls-7, .cls-16 {
        mix-blend-mode: multiply;
      }

      .cls-16 {
        fill: #7e7e7e;
        opacity: .7;
      }

      .cls-17 {
        isolation: isolate;
      }
    </style>
  </defs>
  <g class="cls-17">
    <g id="Layer_2" data-name="Layer 2">
      <g id="Layer_1-2" data-name="Layer 1">
        <g>
          <g id="Circuit_Board" data-name="Circuit Board">
            <path class="cls-13" d="m630.68,1248.73c2.38,12.32,13.24,21.66,26.25,21.66,14.74,0,26.74-12,26.74-26.74s-12-26.75-26.74-26.75c-11.25,0-20.88,6.99-24.83,16.85h-302.28c-3.15-11.86-13.93-20.61-26.78-20.61-15.32,0-27.74,12.42-27.74,27.74s12.42,27.74,27.74,27.74c12.59,0,23.21-8.4,26.59-19.89h301.04Zm-327.64,4.13c-6.6,0-11.97-5.37-11.97-11.97s5.37-11.97,11.97-11.97,11.97,5.37,11.97,11.97-5.37,11.97-11.97,11.97Z"/>
            <path class="cls-13" d="m1323.36,473.22c14.74,0,26.74-12,26.74-26.74,0-12.15-8.15-22.41-19.25-25.66v-197.23l105.9-93.87V54.63c12.08-3,21.04-13.88,21.04-26.89,0-15.32-12.42-27.74-27.74-27.74s-27.74,12.42-27.74,27.74c0,12.43,8.18,22.96,19.46,26.48v68.77l-105.91,93.87v203.97c-11.11,3.25-19.26,13.51-19.26,25.66,0,14.74,12,26.74,26.75,26.74Zm94.72-445.49c0-6.6,5.37-11.97,11.97-11.97s11.97,5.37,11.97,11.97-5.37,11.97-11.97,11.97-11.97-5.37-11.97-11.97Zm-94.72,406.97c6.49,0,11.77,5.28,11.77,11.77s-5.28,11.77-11.77,11.77-11.77-5.28-11.77-11.77,5.28-11.77,11.77-11.77Z"/>
            <polygon class="cls-13" points="341.35 1182.13 341.35 1199.21 391.86 1199.21 391.86 1148.69 341.35 1148.69 341.35 1167.16 157.19 1167.16 157.19 1150.03 106.68 1150.03 106.68 1168.5 106.68 1183.47 106.68 1200.55 157.19 1200.55 157.19 1182.13 341.35 1182.13"/>
            <polygon class="cls-13" points="1528.52 241.26 1508.96 241.26 1508.96 51.25 1493.99 51.25 1493.99 241.26 1478.01 241.26 1478.01 291.78 1528.52 291.78 1528.52 241.26"/>
            <path class="cls-13" d="m2948.58,242.21c-13.24,0-24.3,9.29-27.06,21.71h-287.96v-80.76h-761.15v86.6h-285.24v234.22c-8.6-1.44-17.31-2.55-26.12-3.31V54.84c11.79-3.2,20.47-13.94,20.47-26.74,0-15.32-12.42-27.74-27.74-27.74s-27.74,12.42-27.74,27.74c0,12.64,8.47,23.29,20.03,26.63v445c-4.42-.18-8.85-.29-13.31-.29-26.56,0-52.37,3.2-77.11,9.2v-106.3c11.11-3.25,19.26-13.51,19.26-25.66,0-14.75-12-26.74-26.74-26.74s-26.74,12-26.74,26.74c0,12.14,8.15,22.41,19.25,25.66v110.31c-16.74,4.92-32.93,11.13-48.45,18.54v-266.34l84.9-70.75-9.59-11.5-90.29,75.24v280.88h.17c-5.77,3.12-11.43,6.43-16.99,9.89h-163.67l-27.74-34.14c9.95-22.63,15.51-47.62,15.51-73.89,0-82.12-54.01-151.84-128.37-175.57v-53.44h-14.98v49.38c-9.36-2.13-18.98-3.55-28.82-4.19v-115.08h18.8v-50.51h-50.51v50.51h16.73v114.72c-89,1.38-162.85,66.15-178.33,151.07h-157.05l-93.57-33.52c12.1-21.12,19.06-45.55,19.06-71.59,0-79.69-64.83-144.53-144.53-144.53s-144.53,64.83-144.53,144.53,64.83,144.53,144.53,144.53c47.31,0,89.38-22.85,115.76-58.08l100.24,36.19h157.77c-.43,5.15-.71,10.34-.71,15.59,0,2.43.09,4.85.18,7.26h-141.12v14.97h142.33c11.02,91.15,88.8,162.02,182.87,162.02,19.07,0,37.48-2.91,54.79-8.32l63.68,67.77,119.71-.69c-9.94,20.36-17.83,41.89-23.4,64.33v-.83h-223.16l-128.77-128.77h-446.57v14.97h440.36l128.77,128.77h226.17c-1.72,8.53-3.09,17.19-4.13,25.94h-234.96l-120.35-127.57h-231.81c-3.12-11.31-13.47-19.66-25.76-19.66-14.74,0-26.74,12-26.74,26.74s12,26.75,26.74,26.75c12,0,22.18-7.95,25.55-18.86h225.56l120.35,127.57h239.99c-.57,7.86-.87,15.8-.87,23.8s.32,16.48.92,24.61h-171.02v14.97h172.49c.9,7.39,2.04,14.7,3.42,21.93h-292.17c-3.12-11.31-13.47-19.66-25.76-19.66-14.75,0-26.74,12-26.74,26.74s12,26.74,26.74,26.74c12,0,22.18-7.95,25.55-18.86h295.6c4.12,17.13,9.57,33.74,16.27,49.71h-413.41l-67.4-68.64h-173.56c-3.95-97.01-84.06-174.72-182.01-174.72s-178.07,77.71-182.02,174.71H54.54c-3.12-11.91-13.92-20.7-26.8-20.7-15.32,0-27.74,12.42-27.74,27.74s12.42,27.74,27.74,27.74c12.56,0,23.15-8.35,26.57-19.8h158.03c.4,9.82,1.55,19.44,3.45,28.8h-55.45v14.97h59.2c22.2,75.59,92.14,130.95,174.82,130.95s152.61-55.37,174.81-130.95h154.46l71.41,71.41h124.05v17.08h50.51v-50.51h-50.51v18.46h-117.84l-71.41-71.41h-156.91c1.9-9.36,3.05-18.98,3.45-28.79h167.28l67.4,68.64h426.41c10.4,21.67,23.11,42.03,37.83,60.75h-245.26l-128.17,140.21h-423.04v14.97h429.63l128.17-140.21h251.2c6.64,7.49,13.61,14.67,20.89,21.52h-260.68l-231.13,245.78c-19.27-10.16-41.19-15.94-64.45-15.94-76.47,0-138.69,62.22-138.69,138.69s62.22,138.69,138.69,138.69,138.69-62.22,138.69-138.69c0-29.75-9.44-57.31-25.45-79.92l96.68-104.11v145.37h175.15v129.3h14.97v-129.3h20.33v179.12c-11.87,3.14-20.63,13.93-20.63,26.78,0,15.32,12.42,27.74,27.74,27.74s27.74-12.42,27.74-27.74c0-12.59-8.39-23.2-19.87-26.59v-179.31h210.04v-189.21h-210.6v-35.79l65.42-65.42h107.28c23.83,14.88,49.7,26.78,77.1,35.18v85.72c-11.11,3.25-19.25,13.51-19.25,25.66,0,14.74,12,26.74,26.74,26.74s26.74-12,26.74-26.74c0-12.15-8.15-22.41-19.26-25.66v-81.52c11.62,2.96,23.5,5.28,35.57,6.96v207.03l-90.67,90.67v160.97c-11.51,2.98-20.06,13.43-20.06,25.86,0,14.75,12,26.74,26.74,26.74s26.74-12,26.74-26.74c0-11.85-7.76-21.91-18.45-25.41v-155.22l90.66-90.67v-211.51c7.77.72,15.62,1.16,23.54,1.32v226.55l-85.85,89.86v70.06h14.98v-64.05l85.85-89.86v-232.57c7.65-.19,15.23-.67,22.74-1.37v150.71h14.97v-152.48c5.21-.74,10.38-1.59,15.51-2.57v329.87c-58.19,5.03-104.01,53.98-104.01,113.45,0,62.8,51.1,113.9,113.9,113.9s113.9-51.1,113.9-113.9-48.37-111.11-108.82-113.78v-332.76c12.39-2.98,24.51-6.64,36.3-10.99v249.99h-16.25v50.51h50.51v-50.51h-19.29v-255.94c12.63-5.37,24.84-11.53,36.6-18.38v124.62l192.48,170.54h452.94c.58,8.72,2.01,17.22,4.2,25.41h-351.83c-3.43-11.43-14.02-19.76-26.56-19.76-15.32,0-27.74,12.42-27.74,27.74s12.42,27.74,27.74,27.74c12.89,0,23.7-8.81,26.81-20.73h356.6c19.62,48.73,67.35,83.24,123.02,83.24s107.95-37.88,125.64-90.32l-8.54,7.03h107.51c3.54,11.24,14.04,19.4,26.46,19.4,15.32,0,27.74-12.42,27.74-27.74s-12.42-27.74-27.74-27.74c-13.03,0-23.92,8.99-26.9,21.1h-96.1c2.94-10.95,4.53-22.44,4.53-34.31,0-1.1-.06-2.18-.08-3.27h174.2c3.73,10.92,14.05,18.79,26.23,18.79,15.32,0,27.74-12.42,27.74-27.74s-12.42-27.74-27.74-27.74c-13.25,0-24.31,9.29-27.06,21.71h-174.4v1.41c-8.3-65.18-64.08-115.75-131.48-115.75-56.96,0-105.65,36.12-124.37,86.65h-434.71l-164.68-144.8v-134.75c27.07-24.27,50.08-52.97,67.89-84.95h178.64l96.64,60.13c-5.18,13.56-8.76,27.9-10.56,42.78l-92.67-56.51h-83.55c-3.25-11.11-13.51-19.25-25.66-19.25-14.75,0-26.74,12-26.74,26.74s12,26.74,26.74,26.74c12.14,0,22.41-8.15,25.66-19.26h79.35l95.63,58.31c-.05,1.73-.13,3.46-.13,5.21,0,18.34,2.75,36.04,7.81,52.74h-181.56v-18.03h-50.51v50.51h50.51v-17.5h186.85c26.94,67.02,92.56,114.48,169.1,114.48s142.16-47.46,169.1-114.48h182.97v-14.98h-177.67c3.51-11.6,5.89-23.68,7.02-36.11h352.52c3.23,11.74,13.95,20.37,26.72,20.37,15.32,0,27.74-12.42,27.74-27.74s-12.42-27.74-27.74-27.74c-12.68,0-23.34,8.51-26.65,20.12h-351.83c0-.55.04-1.09.04-1.65,0-100.47-81.74-182.2-182.21-182.2-72.3,0-134.89,42.33-164.31,103.51l-98.32-61.18h-175.07c7.97-16.23,14.63-33.21,19.85-50.8h369.41l99.27-140.15h625.87v16.05h50.51v-50.51h-50.51v19.49h-633.62l-99.27,140.15h-357.6c2.65-10.81,4.77-21.84,6.32-33.04h341.53l101.1-142.01h436.57c3.65,11.06,14.05,19.04,26.33,19.04,15.32,0,27.74-12.42,27.74-27.74s-12.42-27.74-27.74-27.74c-13.16,0-24.15,9.17-27,21.46h-443.62l-101.09,142.01h-332.1c.9-9.88,1.39-19.89,1.39-30,0-7.46-.27-14.86-.77-22.2h151.21c3.36,10.93,13.55,18.9,25.57,18.9,14.75,0,26.74-12,26.74-26.74s-12-26.74-26.74-26.74c-12.27,0-22.61,8.32-25.75,19.61h-152.39c-1.53-13.46-3.87-26.67-6.99-39.58h320.02c3.36,10.93,13.55,18.91,25.57,18.91,14.74,0,26.74-12,26.74-26.74s-12-26.74-26.74-26.74c-12.27,0-22.61,8.32-25.75,19.61h-323.83c-3.81-13.01-8.4-25.69-13.72-37.98h230.31l139.6-182.93h516.51v-14.97h-523.92l-139.61,182.93h-229.85c-26.83-54.22-68.25-100-119.09-132.16v-155.38c10.86-3.76,18.66-14.05,18.66-26.19,0-15.32-12.42-27.74-27.74-27.74s-27.74,12.42-27.74,27.74c0,13.29,9.35,24.38,21.83,27.09v145.56c-13.88-7.78-28.38-14.57-43.41-20.3v-195.11h223.55v25.9h-94.79v14.98h94.79v90.24h270l-91.01,113.76h-98.58v-17.06h-50.51v50.51h50.51v-18.48h105.77l102.99-128.74h471.97v-88.29h51.29v-14.98h-51.29v-33.2h172.59v240.01h-279.93c-2.94-12.17-13.87-21.22-26.94-21.22-15.32,0-27.74,12.42-27.74,27.74s12.42,27.74,27.74,27.74c12.37,0,22.83-8.1,26.41-19.27h295.43v-269.97h-187.57v-26.38h288.79c3.73,10.92,14.05,18.79,26.23,18.79,15.32,0,27.74-12.42,27.74-27.74s-12.42-27.74-27.74-27.74ZM442.96,430.81c-70.84,0-128.47-57.63-128.47-128.47s57.63-128.47,128.47-128.47,128.47,57.63,128.47,128.47-57.63,128.47-128.47,128.47Zm450.35,476.34c-6.49,0-11.77-5.28-11.77-11.77s5.28-11.77,11.77-11.77,11.77,5.28,11.77,11.77-5.28,11.77-11.77,11.77Zm-498.95,144.26c-88,0-159.59-71.59-159.59-159.59s71.59-159.59,159.59-159.59,159.59,71.59,159.59,159.59-71.59,159.59-159.59,159.59Zm797.55,549.56c0,6.6-5.37,11.97-11.97,11.97s-11.97-5.37-11.97-11.97,5.37-11.97,11.97-11.97,11.97,5.37,11.97,11.97Zm223.46,34.55c0,6.49-5.28,11.77-11.77,11.77s-11.77-5.28-11.77-11.77c0-5.33,3.58-9.79,8.45-11.23h6.64c4.87,1.44,8.45,5.9,8.45,11.23Zm283.73-43.9c0,52.34-42.58,94.92-94.92,94.92s-94.92-42.58-94.92-94.92,42.58-94.92,94.92-94.92,94.92,42.58,94.92,94.92Zm1026.78-166.66c6.6,0,11.97,5.37,11.97,11.97s-5.37,11.97-11.97,11.97-11.97-5.37-11.97-11.97,5.37-11.97,11.97-11.97Zm-844.09-373.75c-6.49,0-11.77-5.28-11.77-11.77s5.28-11.77,11.77-11.77,11.77,5.28,11.77,11.77-5.28,11.77-11.77,11.77Zm943.36,56.52c6.6,0,11.97,5.37,11.97,11.97s-5.37,11.97-11.97,11.97-11.97-5.37-11.97-11.97,5.37-11.97,11.97-11.97Zm-560.65-156.88c88,0,159.59,71.59,159.59,159.59s-71.59,159.59-159.59,159.59-159.59-71.59-159.59-159.59,71.59-159.59,159.59-159.59Zm-67.89-220.44c6.49,0,11.77,5.28,11.77,11.77s-5.28,11.77-11.77,11.77-11.77-5.28-11.77-11.77,5.28-11.77,11.77-11.77Zm-510.38-362.05c0-6.6,5.37-11.97,11.97-11.97s11.97,5.37,11.97,11.97-5.37,11.97-11.97,11.97-11.97-5.37-11.97-11.97Zm-496.58,195.2h148.74c-8.92,6.6-17.5,13.64-25.69,21.09h-131.03v14.97h115.63c-10.51,10.89-20.27,22.51-29.2,34.77h-124.07l-40.03-41.64c23.87-16.32,43.72-38.1,57.75-63.53l27.9,34.34Zm-350.74-123.01c0-88.99,72.4-161.39,161.38-161.39s161.39,72.4,161.39,161.39-72.4,161.38-161.39,161.38-161.38-72.39-161.38-161.38Zm286.35,228.7l-54.86-58.34c7.1-2.93,13.96-6.31,20.58-10.07l46.47,48.53h120.34c-4.05,6.25-7.88,12.65-11.5,19.18l-121.04.7Zm-372.79,881.91c-64.76,0-117.44-52.68-117.44-117.44s52.68-117.44,117.44-117.44,117.44,52.68,117.44,117.44-52.68,117.44-117.44,117.44Zm630.33-171.16h-405.35v-159.09h405.35v159.09Zm-136.33-290.33l-74.19,74.19v42h-209.89v21.82l-106.08,114.24c-7.11-8.04-15.14-15.23-23.92-21.45l222.26-240.31,271.01-.11c4.03,3.3,8.13,6.5,12.31,9.61h-91.5Zm1228.36,191.14c63.5,0,115.16,51.66,115.16,115.16s-51.66,115.16-115.16,115.16-115.16-51.66-115.16-115.16,51.66-115.16,115.16-115.16Zm-566.85,82.34l2.12,1.87h435.83c-1.93,8.05-3.15,16.38-3.53,24.92h-447.07l-183.18-162.3v-127.17c8.25-5.42,16.24-11.2,23.95-17.33v128.87l171.89,151.14Zm-76.73-536.39c0,164.58-133.89,298.47-298.47,298.47s-298.47-133.89-298.47-298.47,133.89-298.46,298.47-298.46,298.47,133.89,298.47,298.46Zm-197.35-516.15v204.8c-10.36-3.37-20.95-6.24-31.73-8.58v-222.12h270.26v25.89h-238.53Zm979.24,125.66h-720.27v-232.69h720.27v232.69Zm335.46-154.37c-6.6,0-11.97-5.37-11.97-11.97s5.37-11.97,11.97-11.97,11.97,5.37,11.97,11.97-5.37,11.97-11.97,11.97Z"/>
            <path class="cls-13" d="m2878.95,627.41h-270.02c-3.25-11.11-13.51-19.25-25.66-19.25-14.74,0-26.74,12-26.74,26.74s12,26.75,26.74,26.75c12.15,0,22.41-8.15,25.66-19.26h270.76c3.68,11,14.05,18.93,26.29,18.93,15.32,0,27.74-12.42,27.74-27.74s-12.42-27.74-27.74-27.74c-13.2,0-24.22,9.22-27.02,21.57Zm-295.68,19.26c-6.49,0-11.77-5.28-11.77-11.77s5.28-11.77,11.77-11.77,11.77,5.28,11.77,11.77-5.28,11.77-11.77,11.77Zm334.68-13.09c0,6.6-5.37,11.97-11.97,11.97s-11.97-5.37-11.97-11.97,5.37-11.97,11.97-11.97,11.97,5.37,11.97,11.97Z"/>
            <path class="cls-13" d="m3073.15,918.74c-12.08,0-22.32,7.73-26.13,18.5h-490.58c-2.98-11.52-13.43-20.06-25.86-20.06-14.74,0-26.74,12-26.74,26.74s12,26.74,26.74,26.74c11.85,0,21.91-7.76,25.41-18.45h490.03c2.64,12.56,13.78,22,27.13,22,15.32,0,27.74-12.42,27.74-27.74s-12.42-27.74-27.74-27.74Zm-531.34,28.51c-1.44,4.86-5.9,8.45-11.23,8.45-6.49,0-11.77-5.28-11.77-11.77s5.28-11.77,11.77-11.77c5.33,0,9.79,3.58,11.23,8.45v6.64Zm531.34,11.2c-6.6,0-11.97-5.37-11.97-11.97s5.37-11.97,11.97-11.97,11.97,5.37,11.97,11.97-5.37,11.97-11.97,11.97Z"/>
          </g>
          <g>
            <g>
              <path class="cls-12" d="m544.35,271.16l-14.86-15.88-132.88,124.3,14.86,15.88,132.88-124.3Zm-16.44-6.35c1.15-1.07,2.94-1.01,4.02.13,1.07,1.15,1.01,2.95-.13,4.02-1.15,1.07-2.94,1.01-4.02-.13-1.07-1.15-1.01-2.94.13-4.02Z"/>
              <g>
                <rect class="cls-2" x="532.42" y="270.76" width="11.77" height="5.1" transform="translate(-41.52 441.46) rotate(-43.09)"/>
                <rect class="cls-4" x="532.95" y="275.2" width="1.23" height="5.1" transform="translate(-45.76 439.66) rotate(-43.11)"/>
              </g>
              <g>
                <rect class="cls-2" x="522.93" y="279.64" width="11.77" height="5.1" transform="translate(-50.15 437.36) rotate(-43.09)"/>
                <rect class="cls-4" x="523.45" y="284.08" width="1.23" height="5.1" transform="translate(-54.57 434.87) rotate(-43.05)"/>
              </g>
              <g>
                <rect class="cls-2" x="513.44" y="288.52" width="11.76" height="5.1" transform="translate(-58.76 433.33) rotate(-43.1)"/>
                <rect class="cls-4" x="513.96" y="292.96" width="1.23" height="5.1" transform="translate(-63.26 430.47) rotate(-43.01)"/>
              </g>
              <g>
                <rect class="cls-2" x="503.95" y="297.4" width="11.76" height="5.1" transform="translate(-67.39 429.22) rotate(-43.09)"/>
                <rect class="cls-4" x="504.47" y="301.84" width="1.23" height="5.1" transform="translate(-71.81 426.7) rotate(-43.05)"/>
              </g>
              <g>
                <rect class="cls-2" x="494.46" y="306.28" width="11.76" height="5.1" transform="translate(-76.02 425.13) rotate(-43.09)"/>
                <rect class="cls-4" x="494.98" y="310.71" width="1.23" height="5.1" transform="translate(-80.36 422.93) rotate(-43.08)"/>
              </g>
              <g>
                <rect class="cls-2" x="484.97" y="315.15" width="11.77" height="5.1" transform="translate(-84.65 420.99) rotate(-43.09)"/>
                <rect class="cls-4" x="485.49" y="319.59" width="1.23" height="5.1" transform="translate(-88.98 418.84) rotate(-43.08)"/>
              </g>
              <g>
                <rect class="cls-2" x="475.48" y="324.03" width="11.76" height="5.1" transform="translate(-93.27 416.93) rotate(-43.09)"/>
                <rect class="cls-4" x="476" y="328.47" width="1.23" height="5.1" transform="translate(-97.6 414.75) rotate(-43.08)"/>
              </g>
              <g>
                <rect class="cls-2" x="465.98" y="332.91" width="11.77" height="5.1" transform="translate(-101.9 412.85) rotate(-43.09)"/>
                <rect class="cls-4" x="466.51" y="337.35" width="1.23" height="5.1" transform="translate(-106.2 410.85) rotate(-43.1)"/>
              </g>
              <g>
                <rect class="cls-2" x="456.49" y="341.79" width="11.76" height="5.1" transform="translate(-110.53 408.71) rotate(-43.09)"/>
                <rect class="cls-4" x="457.01" y="346.23" width="1.23" height="5.1" transform="translate(-114.9 406.06) rotate(-43.03)"/>
              </g>
              <g>
                <rect class="cls-2" x="447" y="350.67" width="11.76" height="5.1" transform="translate(-119.14 404.71) rotate(-43.1)"/>
                <rect class="cls-4" x="447.52" y="355.11" width="1.23" height="5.1" transform="translate(-123.44 402.85) rotate(-43.11)"/>
              </g>
              <g>
                <rect class="cls-2" x="437.51" y="359.55" width="11.77" height="5.1" transform="translate(-127.77 400.55) rotate(-43.09)"/>
                <rect class="cls-4" x="438.03" y="363.99" width="1.23" height="5.1" transform="translate(-132.11 398.08) rotate(-43.05)"/>
              </g>
              <g>
                <rect class="cls-2" x="428.02" y="368.42" width="11.76" height="5.1" transform="translate(-136.4 396.44) rotate(-43.09)"/>
                <rect class="cls-4" x="428.54" y="372.86" width="1.23" height="5.1" transform="translate(-140.7 394.93) rotate(-43.14)"/>
              </g>
              <g>
                <rect class="cls-2" x="418.53" y="377.3" width="11.76" height="5.1" transform="translate(-145.03 392.34) rotate(-43.09)"/>
                <rect class="cls-4" x="419.05" y="381.74" width="1.23" height="5.1" transform="translate(-149.33 390.6) rotate(-43.12)"/>
              </g>
              <g>
                <rect class="cls-2" x="409.04" y="386.18" width="11.77" height="5.1" transform="translate(-153.65 388.28) rotate(-43.09)"/>
                <rect class="cls-4" x="409.55" y="390.62" width="1.23" height="5.1" transform="translate(-157.96 385.95) rotate(-43.06)"/>
              </g>
            </g>
            <g>
              <path class="cls-8" d="m404.2,259.09l22.66,22.66,1.15,1.55c2.28-1.46,5.34-1.2,7.33.79,2.3,2.3,2.3,6.02,0,8.32-2.3,2.3-6.02,2.3-8.32,0-1.97-1.97-2.24-4.99-.82-7.26l-1.58-1.16-22.66-22.66s10.32,35.88,15.04,40.6c4.73,4.73,23.01,8.77,23.01,8.77l6.81-6.81,6.81-6.81s-4.05-18.28-8.77-23.01c-4.73-4.73-40.66-14.99-40.66-14.99Z"/>
              <path class="cls-14" d="m443.56,312.78l55.82,60.44c4.68,4.68,12.27,4.68,16.95,0,4.68-4.68,4.68-12.27,0-16.96l-60.44-55.82-12.33,12.33Z"/>
            </g>
            <g>
              <g>
                <path class="cls-5" d="m391.73,255.81c-15.94,15.1-23.75,36.91-21.04,58.71.9-.73,1.84-1.01,2.74-.98-2.39-20.82,5.2-41.59,20.52-55.94-.9-.34-1.67-1-2.22-1.79Z"/>
                <path class="cls-5" d="m461.1,240.41c-21.36-7.09-44.81-3.36-62.88,9.99.69.69,1.19,1.57,1.36,2.51,17.38-13,40.02-16.67,60.63-9.82-.05-.91.21-1.84.88-2.68Z"/>
              </g>
              <path class="cls-5" d="m380.71,319.62l-8.17,6.81-6.81-8.17,8.17-6.81,6.81,8.17Zm-7.81,2.84l3.84-3.2-3.2-3.84-3.84,3.2,3.2,3.84Z"/>
              <path class="cls-5" d="m471.78,243.77l-8.17,6.81-6.81-8.17,8.17-6.81,6.81,8.17Zm-7.81,2.84l3.84-3.2-3.2-3.84-3.84,3.2,3.2,3.84Z"/>
              <path class="cls-5" d="m402.86,254.58l-8.17,6.81-6.81-8.17,8.17-6.81,6.81,8.17Zm-7.81,2.84l3.84-3.2-3.2-3.84-3.84,3.2,3.2,3.84Z"/>
              <rect class="cls-5" x="343.98" y="272.54" width="54.63" height="2.82" transform="translate(-89.33 301.07) rotate(-39.79)"/>
              <circle class="cls-5" cx="350.3" cy="291.43" r="3.91"/>
              <rect class="cls-5" x="392.12" y="232.44" width="54.63" height="2.82" transform="translate(-52.51 322.59) rotate(-39.79)"/>
              <path class="cls-5" d="m437.43,218.87c1.38,1.66,3.85,1.88,5.51.5,1.66-1.38,1.88-3.85.5-5.51-1.38-1.66-3.85-1.88-5.51-.5-1.66,1.38-1.88,3.85-.5,5.51Z"/>
            </g>
          </g>
          <g>
            <g>
              <path d="m397.1,956.53c13.25,0,23.99,9.23,23.99,20.6v7.66c0,11.38-10.74,20.6-23.99,20.61h0c-13.24,0-23.98-9.23-23.98-20.61v-7.66c0-11.38,10.74-20.6,23.98-20.6h0Z"/>
              <path class="cls-5" d="m449.08,901.37c0-28.73-23.28-52.01-52.01-52.01s-52.01,23.28-52.01,52.01c0,9.8,2.76,18.93,7.47,26.76l-.04-.02s20.56,33.9,20.56,47.96h48.03c0-14.06,20.55-47.96,20.55-47.96l-.03.02c4.71-7.83,7.47-16.95,7.47-26.75Z"/>
              <g>
                <rect x="374.55" y="906.77" width="4.52" height="75.44" transform="translate(-228.16 127.14) rotate(-14.76)"/>
                <path d="m373.12,908.01c0,3.26-2.65,5.92-5.92,5.92s-5.91-2.65-5.91-5.92,2.65-5.92,5.91-5.92,5.92,2.65,5.92,5.92Z"/>
              </g>
              <g>
                <rect x="375.79" y="942.23" width="75.44" height="4.52" transform="translate(-605.15 1103.82) rotate(-75.24)"/>
                <path d="m417.21,908.01c0,3.26,2.65,5.92,5.91,5.92s5.91-2.65,5.91-5.92-2.65-5.92-5.91-5.92-5.91,2.65-5.91,5.92Z"/>
              </g>
            </g>
            <path class="cls-5" d="m397.1,829.33c-8.07-9.98-8.12-25.95,0-35.92,8.12,9.97,8.07,25.94,0,35.92h0Z"/>
            <path class="cls-5" d="m436.64,840.4c-2-12.68,5.94-26.53,17.96-31.11,2.05,12.69-5.98,26.49-17.96,31.11h0Z"/>
            <path class="cls-5" d="m465.34,869.75c4.61-11.98,18.41-20.01,31.1-17.96-4.57,12.01-18.42,19.95-31.1,17.96h0Z"/>
            <path class="cls-5" d="m475.53,909.53c9.98-8.07,25.94-8.12,35.92,0-9.97,8.12-25.93,8.07-35.92,0h0Z"/>
            <path class="cls-5" d="m436.64,840.4c-2-12.68,5.94-26.53,17.96-31.11,2.05,12.69-5.98,26.49-17.96,31.11h0Z"/>
            <path class="cls-5" d="m465.34,869.75c4.61-11.98,18.41-20.01,31.1-17.96-4.57,12.01-18.42,19.95-31.1,17.96h0Z"/>
            <path class="cls-5" d="m475.53,909.53c9.98-8.07,25.94-8.12,35.92,0-9.97,8.12-25.93,8.07-35.92,0h0Z"/>
            <path class="cls-5" d="m357.57,840.4c-11.98-4.61-20-18.41-17.96-31.11,12.01,4.57,19.95,18.43,17.96,31.11h0Z"/>
            <path class="cls-5" d="m328.86,869.75c-12.68,2-26.53-5.94-31.11-17.96,12.69-2.05,26.49,5.98,31.11,17.96h0Z"/>
            <path class="cls-5" d="m318.67,909.53c-9.98,8.07-25.94,8.12-35.91,0,9.97-8.12,25.93-8.07,35.91,0h0Z"/>
          </g>
          <path class="cls-14" d="m2533.98,1395.46h-31.19l-10.11-37.74c2.63-3.58,4.21-8,4.21-12.79,0-10.03-6.84-18.44-16.11-20.88v-16.22h-11v16.22c-9.27,2.45-16.12,10.86-16.12,20.88,0,4.79,1.58,9.19,4.21,12.78l-10.12,37.75h-31.18v2.2h30.58l-16.18,60.39,4.45,10.31,9.02-6.7,17.15-64h27.35l17.16,64.05,2.84-.76,1.04,3.9,2.85-.76,2.07,7.74,2.12-.57-2.07-7.74,2.83-.76-1.04-3.9,2.85-.76-16.2-60.44h30.59v-2.2Zm-58.69-62.58c6.66,0,12.05,5.4,12.05,12.05s-5.39,12.05-12.05,12.05-12.05-5.4-12.05-12.05,5.4-12.05,12.05-12.05Zm-13.09,62.58l7.93-29.56c1.65.41,3.38.65,5.17.65s3.5-.25,5.16-.65l7.92,29.56h-26.17Z"/>
          <g>
            <path class="cls-16" d="m806.59,1349.74h-103.31c-6.1,0-11.04,5.33-11.04,11.89v144.43c0,6.57,4.94,11.89,11.04,11.89h103.31c6.1,0,11.04-5.33,11.04-11.89v-144.43c0-6.57-4.94-11.89-11.04-11.89Z"/>
            <g>
              <path class="cls-9" d="m795.93,1356.16c0,3.04-2.46,5.5-5.5,5.5s-5.5-2.46-5.5-5.5,2.46-5.5,5.5-5.5,5.5,2.46,5.5,5.5Z"/>
              <path class="cls-6" d="m815.84,1504.27c0,6.57-4.94,11.89-11.04,11.89h-103.31c-6.1,0-11.04-5.33-11.04-11.89v-144.43c0-6.57,4.94-11.89,11.04-11.89h103.31c6.1,0,11.04,5.33,11.04,11.89v144.43Z"/>
              <rect class="cls-11" x="701.75" y="1360.15" width="102.52" height="134.48"/>
              <path class="cls-7" d="m760.57,1506.05c0,3.99-3.23,7.22-7.22,7.22s-7.22-3.23-7.22-7.22,3.23-7.22,7.22-7.22,7.22,3.23,7.22,7.22Z"/>
              <path class="cls-10" d="m732.81,1407.74c0,5,2.05,9.53,5.37,12.77l-8.4,8.59c-5.54-5.42-8.99-12.99-8.99-21.36,0-16.49,13.38-29.87,29.88-29.87v12.01c-9.87,0-17.87,8-17.87,17.86Z"/>
              <path class="cls-15" d="m780.55,1407.74c0,16.5-13.37,29.87-29.87,29.87-8.14,0-15.51-3.24-20.89-8.51l8.4-8.59c3.21,3.15,7.62,5.1,12.49,5.1,9.86,0,17.86-8,17.86-17.87,0-2.35-.46-4.6-1.29-6.66l11.14-4.49c1.4,3.44,2.16,7.21,2.16,11.14Z"/>
              <path class="cls-6" d="m778.39,1396.59l-11.14,4.49c-2.63-6.56-9.07-11.2-16.57-11.2v-12.01c12.56,0,23.3,7.75,27.71,18.72Z"/>
              <path class="cls-6" d="m798.2,1441.78h-24.32c-.41,0-.81-.18-1.07-.5l-9.35-11.29c-.49-.59-.41-1.47.18-1.95.59-.49,1.47-.41,1.95.18l8.93,10.79h23.67c.77,0,1.39.62,1.39,1.39s-.62,1.39-1.39,1.39Z"/>
              <path class="cls-6" d="m764.53,1387.93c-.31,0-.63-.1-.89-.32-.59-.49-.67-1.36-.18-1.95l9.35-11.29c.26-.32.65-.5,1.07-.5h24.32c.77,0,1.39.62,1.39,1.39s-.62,1.39-1.39,1.39h-23.67l-8.93,10.79c-.27.33-.67.5-1.07.5Z"/>
              <path class="cls-6" d="m742.13,1387.93c-.4,0-.8-.17-1.07-.5l-8.93-10.79h-23.67c-.77,0-1.39-.62-1.39-1.39s.62-1.39,1.39-1.39h24.33c.41,0,.81.18,1.07.5l9.35,11.29c.49.59.41,1.47-.18,1.96-.26.21-.57.32-.89.32Z"/>
              <rect class="cls-6" x="708.45" y="1368.61" width="23.49" height="3.53"/>
              <rect class="cls-6" x="774.71" y="1368.61" width="23.49" height="3.53"/>
              <rect class="cls-6" x="774.71" y="1434.09" width="23.49" height="3.52"/>
              <rect class="cls-6" x="708.45" y="1444.83" width="33.67" height="8.16"/>
              <rect class="cls-6" x="750.68" y="1444.83" width="23.13" height="8.16"/>
              <rect class="cls-6" x="708.45" y="1456.95" width="86.95" height="3.19"/>
              <rect class="cls-6" x="708.45" y="1463.45" width="74.8" height="3.19"/>
              <rect class="cls-6" x="708.45" y="1469.95" width="81.29" height="3.19"/>
              <rect class="cls-6" x="708.45" y="1476.44" width="86.95" height="3.2"/>
              <rect class="cls-6" x="708.45" y="1482.95" width="78.01" height="3.2"/>
            </g>
          </g>
          <g>
            <g>
              <rect class="cls-6" x="1026.81" y="428.22" width="11.28" height="52.36"/>
              <rect class="cls-6" x="1046.37" y="404.31" width="11.28" height="76.26"/>
              <rect class="cls-6" x="1070.95" y="443.36" width="11.28" height="37.22"/>
              <rect class="cls-6" x="1093.03" y="428.22" width="11.28" height="52.36"/>
              <g>
                <polygon class="cls-6" points="1075.86 439.22 1052.42 386.24 1030.35 424.31 1027.87 422.65 1052.76 379.7 1076.29 432.88 1093.67 404.96 1096.1 406.71 1075.86 439.22"/>
                <polygon class="cls-6" points="1098.76 410.82 1099.53 398.32 1089.07 403.85 1098.76 410.82"/>
              </g>
            </g>
            <g>
              <g>
                <rect class="cls-6" x="972.47" y="437.29" width="43.22" height="16.75" transform="translate(41.29 973.88) rotate(-53.15)"/>
                <path class="cls-6" d="m1067.98,347.12c-24.24-18.17-58.61-13.25-76.77,10.98-18.17,24.23-13.25,58.6,10.98,76.77,24.24,18.16,58.6,13.25,76.77-10.99,18.15-24.23,13.25-58.6-10.98-76.76Zm-57.05,76.07c-17.78-13.34-21.39-38.56-8.06-56.35,13.33-17.78,38.56-21.39,56.35-8.06,17.79,13.34,21.39,38.56,8.06,56.35-13.33,17.79-38.56,21.39-56.35,8.06Z"/>
                <path class="cls-6" d="m950.12,533.13c-2.51,3.34-7.25,4.01-10.59,1.51l-15.56-11.67c-3.34-2.51-4.02-7.25-1.52-10.59l48.83-65.13c2.51-3.34,7.25-4.02,10.6-1.51l15.55,11.66c3.35,2.51,4.02,7.25,1.52,10.59l-48.83,65.13Z"/>
              </g>
              <path class="cls-6" d="m991.88,462.56l21.86-29.16-6.75-5.06-17.62,23.02s1.47,6.83,2.51,11.21Z"/>
              <path class="cls-6" d="m997.43,457.4l-8.06-6.05-57.3,77.69h0l7.46,5.59c3.34,2.5,8.08,1.83,10.59-1.51l48.83-65.13c2.51-3.34,1.83-8.08-1.52-10.59Z"/>
              <path class="cls-6" d="m1078.96,423.88c18.15-24.23,13.25-58.6-10.98-76.76l-8.76,11.67c17.79,13.34,21.39,38.56,8.06,56.35-13.33,17.79-38.56,21.39-56.35,8.06h0l-8.75,11.67c24.24,18.16,58.6,13.25,76.77-10.99Z"/>
            </g>
          </g>
          <polygon class="cls-6" points="1649.16 1551.26 1649.16 1625.81 1600.84 1625.81 1579.63 1651.26 1579.63 1625.81 1554.72 1625.81 1554.72 1551.26 1649.16 1551.26"/>
          <path class="cls-6" d="m2241.29,1211.98c-6.53-3.08-8.99-8.37-8.07-15.32.59-4.44-.63-7.21-5.21-8.92-3.73-1.39-7.09-3.93-10.41-6.26-1.71-1.2-2.92-1.24-4.58-.12-2.15,1.43-4.42,2.69-6.71,3.89-5.74,2.99-11.85,1.52-15.11-4-7.57-12.84-15.01-25.76-22.31-38.76-3.03-5.4-1.5-12.22,4.1-14.65,4.46-1.94,6.4-3.04,8.1-6.83,1.4-3.14-.42-4.26.46-12.25.33-3,.7-3.9.13-5.46-.88-2.42-2.42-3.64-6.34-5.69-8.69-4.54-9.95-10.1-5.09-18.56,6.57-11.43,13.16-22.85,19.74-34.27,4.63-8.02,10.52-9.99,18.03-4.88,5.12,3.48,6.07,2.78,7.9,2.73,2.75-.08,2.56-1.4,9.04-4.44,4.27-2,6.58-2.47,7.68-4.87.33-.72.71-1.56.58-3.24-.18-2.45-.14-4.94,0-7.4.35-5.91,4.86-10.55,10.76-10.6,15.03-.14,30.05-.15,45.08,0,5.92.06,11.09,4.86,10.45,10.68-.5,4.48.05,8.03,1.95,10.72,1.39,1.97,2.18,1.22,7.61,4.9,4.92,3.34,5.49,4.74,7.78,4.72,1.87-.01,3.96-.49,6.47-2.42.97-.75,2.09-1.3,3.18-1.87,5.88-3.12,11.97-1.64,15.35,4.1,7.43,12.64,14.75,25.34,21.98,38.1,3.29,5.81,1.96,12.61-4.06,15.23-3.86,1.68-6.4,3.76-7.73,6.44-1.02,2.06-.11,2.28-.64,9.11-.47,6.15-1.41,7.55-.15,9.6.79,1.29,1.84,2.66,4.74,3.91,1.46.63,2.82,1.52,4.15,2.4,5.11,3.39,6.97,9.23,4.01,14.54-7.39,13.23-14.95,26.37-22.69,39.4-3.07,5.17-9.66,7.11-14.48,3.54-4.12-3.05-5.87-4.02-10.1-3.65-4.23.37-4.27,3.44-11.97,6.34-1.63.62-3.1,1.04-4.19,2.51-1.17,1.59-1.37,3.74-1.03,6.33.93,6.95-1.44,12.29-8.12,15.25h-50.27Zm58.41-100.15c-.06-18.25-14.97-33.14-33.21-33.15-18.35-.01-33.37,15.1-33.29,33.48.08,18.22,15.06,33.15,33.25,33.15,18.39,0,33.31-15.03,33.25-33.49Z"/>
          <g>
            <rect class="cls-1" x="1219.2" y="515.37" width="650" height="650"/>
            <g>
              <path class="cls-6" d="m1597.28,785.53c-7.64,13.68-15.46,27.27-23.46,40.74-3.17,5.34-10,7.36-14.98,3.67-4.26-3.15-6.07-4.15-10.45-3.78-4.38.38-4.41,3.56-12.38,6.56-1.69.64-3.21,1.07-4.33,2.6-1.21,1.64-1.42,3.87-1.07,6.54.96,7.19-1.48,12.72-8.4,15.77h-51.99c-6.75-3.18-9.3-8.65-8.35-15.84.56-4.2-.45-6.95-4.24-8.74-.36-.17-.74-.33-1.14-.48-3.86-1.44-7.33-4.06-10.76-6.48-1.76-1.24-3.02-1.28-4.74-.13-2.22,1.48-4.57,2.79-6.94,4.02-4.45,2.32-9.13,2.05-12.61-.65v-88.64h43.21c-1.82,4.21-2.82,8.85-2.8,13.71.08,18.84,15.57,34.29,34.39,34.29,19.02,0,34.46-15.54,34.39-34.63-.02-4.74-1-9.26-2.76-13.37h60.15c-1.45,1.15-2.54,2.45-3.27,3.93-1.05,2.12-.12,2.36-.66,9.42-.31,4.09-.82,6.14-.8,7.65,0,.85.19,1.52.65,2.28.81,1.33,1.9,2.75,4.9,4.04,1.51.65,2.91,1.57,4.29,2.48,5.29,3.5,7.21,9.54,4.14,15.03Z"/>
              <path class="cls-6" d="m1694.62,740.69v215.63h-139.77l-61.33,73.63v-73.63h-72.07v-102.72c1.28-.18,2.52.25,4.02,1.31,4.8,3.38,9.67,7.05,15.07,9.07,6.63,2.48,8.4,6.49,7.54,12.93-1.33,10.07,2.23,17.74,11.69,22.19h72.83c9.69-4.28,13.11-12.02,11.77-22.09-.5-3.75-.21-6.86,1.49-9.17,1.57-2.13,3.7-2.75,6.07-3.64,11.15-4.21,11.21-8.66,17.34-9.19,6.14-.53,8.67.87,14.64,5.29,6.99,5.17,16.54,2.35,20.98-5.14,11.21-18.88,22.17-37.91,32.87-57.08,4.3-7.69,1.61-16.15-5.8-21.06-1.93-1.28-3.9-2.57-6.02-3.48-4.2-1.81-5.72-3.79-6.86-5.66-1.82-2.98-.47-5,.22-13.92.76-9.89-.55-10.22.92-13.2.01-.02.02-.05.04-.08h74.35Z"/>
              <path class="cls-3" d="m1593.13,770.5c-1.38-.91-2.79-1.83-4.29-2.48-3-1.29-4.08-2.71-4.9-4.04-.46-.76-.64-1.43-.65-2.28l-125.66,71.36c3.79,1.79,4.79,4.55,4.24,8.74-.95,7.19,1.6,12.66,8.35,15.84h51.99c6.92-3.05,9.36-8.58,8.4-15.77-.36-2.67-.14-4.9,1.07-6.54,1.12-1.52,2.64-1.96,4.33-2.6,7.96-3,8-6.18,12.38-6.56,4.38-.38,6.19.62,10.45,3.78,4.98,3.69,11.81,1.68,14.98-3.67,8-13.48,15.82-27.06,23.46-40.74,3.06-5.49,1.14-11.53-4.14-15.03Zm-50.65-29.81c-5.85-20.01-24.38-34.71-46.2-34.72-21.81-.01-40.38,14.72-46.27,34.72-1.29,4.38-1.98,9.01-1.96,13.79.12,26.39,21.81,48.03,48.18,48.03,26.64,0,48.27-21.77,48.17-48.52-.02-4.61-.69-9.08-1.93-13.31Zm-46.24,48c-18.82,0-34.31-15.45-34.39-34.29-.02-4.86.98-9.5,2.8-13.71,5.29-12.27,17.51-20.93,31.63-20.92,14.13,0,26.33,8.65,31.59,20.92,1.76,4.11,2.74,8.63,2.76,13.37.07,19.09-15.37,34.64-34.39,34.63Z"/>
              <path class="cls-6" d="m1593.13,770.5c-1.38-.91-2.79-1.83-4.29-2.48-3-1.29-4.08-2.71-4.9-4.04-.46-.76-.64-1.43-.65-2.28-.02-1.51.49-3.57.8-7.65.55-7.06-.39-7.3.66-9.42.73-1.48,1.81-2.78,3.27-3.93,1.29-1.02,2.86-1.92,4.72-2.74,6.23-2.71,7.6-9.74,4.2-15.75-7.48-13.19-15.05-26.34-22.73-39.41-3.49-5.93-9.79-7.47-15.87-4.24-1.12.6-2.29,1.17-3.29,1.94-2.6,2-4.76,2.49-6.69,2.5-2.38.01-2.96-1.43-8.05-4.88-5.62-3.81-6.43-3.04-7.87-5.07-1.97-2.78-2.53-6.45-2.02-11.08.67-6.02-4.68-10.99-10.81-11.05-15.54-.16-31.08-.15-46.62,0-6.1.05-10.76,4.85-11.12,10.96-.15,2.55-.19,5.12,0,7.65.13,1.74-.26,2.6-.6,3.35-1.14,2.48-3.52,2.96-7.94,5.03-6.7,3.14-6.5,4.51-9.35,4.59-1.89.06-2.87.78-8.17-2.82-7.76-5.29-13.85-3.26-18.64,5.04-6.82,11.81-13.62,23.62-20.42,35.44-5.03,8.75-3.72,14.5,5.26,19.19,4.05,2.12,5.64,3.38,6.56,5.88.59,1.62.21,2.55-.13,5.65-.91,8.26.98,9.42-.48,12.67-1.75,3.92-3.76,5.06-8.37,7.06-5.79,2.52-7.38,9.57-4.24,15.16,7.55,13.44,15.25,26.8,23.08,40.09.83,1.42,1.86,2.58,3.01,3.48,3.48,2.7,8.15,2.98,12.61.65,2.37-1.24,4.72-2.54,6.94-4.02,1.72-1.15,2.97-1.11,4.74.13,3.43,2.41,6.9,5.03,10.76,6.48.41.15.79.31,1.14.48,3.79,1.79,4.79,4.55,4.24,8.74-.95,7.19,1.6,12.66,8.35,15.84h51.99c6.92-3.05,9.36-8.58,8.4-15.77-.36-2.67-.14-4.9,1.07-6.54,1.12-1.52,2.64-1.96,4.33-2.6,7.96-3,8-6.18,12.38-6.56,4.38-.38,6.19.62,10.45,3.78,4.98,3.69,11.81,1.68,14.98-3.67,8-13.48,15.82-27.06,23.46-40.74,3.06-5.49,1.14-11.53-4.14-15.03Zm-128.48-29.81c5.29-12.27,17.51-20.93,31.63-20.92,14.13,0,26.33,8.65,31.59,20.92,1.76,4.11,2.74,8.63,2.76,13.37.07,19.09-15.37,34.64-34.39,34.63-18.82,0-34.31-15.45-34.39-34.29-.02-4.86.98-9.5,2.8-13.71Z"/>
            </g>
          </g>
        </g>
      </g>
    </g>
  </g>
</svg>