<?xml version="1.0" encoding="UTF-8"?>
<svg id="Layer_2" data-name="Layer 2" xmlns="http://www.w3.org/2000/svg" viewBox="0 0 667.49 180">
  <defs>
    <style>
      .cls-1 {
        fill: #fff;
      }

      .cls-2 {
        fill: #6db33f;
      }
    </style>
  </defs>
  <g id="Layer_1-2" data-name="Layer 1">
    <g>
      <path class="cls-2" d="m353.49,45.13c20.41,0,40.46,16.15,40.46,45.28v.37c0,28.95-19.86,45.28-40.46,45.28-14.47,0-23.57-7.24-29.69-15.4v30.81c0,5.46-4.28,9.85-9.7,10.02h-.32c-5.38,0-9.84-4.45-9.84-9.83V55.52c-.19-5.38,4.27-9.84,9.65-10.02h.19c5.46,0,9.85,4.28,10.02,9.7v.32s0,5.94,0,5.94c6.5-9.09,15.59-16.33,29.69-16.33Zm264.26-.19c13.88,0,22.91,7.01,29.38,15.9l.31.43v-6.26c.17-5.31,4.39-9.53,9.69-9.7h.33s.19,0,.19,0c5.46.18,9.85,4.47,9.84,9.89v.32s0,60.87,0,60.87c0,14.66-3.9,25.61-11.13,32.85-7.79,7.98-20.04,11.69-35.82,11.69-11.69,0-23.2-2.6-33.77-7.79-3.34-1.11-5.57-4.45-5.57-7.98.19-4.64,3.9-8.17,8.54-8.17,1.3,0,2.41.19,3.53.74,8.17,4.64,17.44,6.87,26.72,6.87,16.89,0,26.54-8.17,27.47-23.94-6.12,7.98-15.22,15.22-29.69,15.22-20.39,0-40.06-16.01-40.45-44.42v-.86s0-.37,0-.37c0-29.14,20.04-45.28,40.46-45.28Zm-79.24.56c19.67,0,30.99,13.18,30.99,33.4v46.95c.19,5.38-4.08,9.65-9.46,9.84h-.37c-5.38.19-9.84-4.27-10.02-9.65v-41.01c0-13.55-6.68-21.34-18.74-21.34s-19.67,8.17-19.67,21.71v40.64c0,5.57-4.45,10.02-10.02,10.02s-10.02-4.45-10.02-10.02l.19-70.33c-.19-5.38,4.27-9.84,9.65-10.02h.19c5.46,0,9.85,4.28,10.02,9.7v.32s0,4.08,0,4.08c5.94-9.28,16.33-14.66,27.28-14.29Zm-276.14-.19c9.65.19,18.93,2.6,27.47,7.05,2.97,1.48,4.82,4.27,4.82,7.61,0,4.45-3.71,8.17-8.17,8.17h-.19c-1.3,0-2.6-.37-3.9-.93-6.31-3.53-13.18-5.57-20.41-5.94-7.79,0-12.25,3.71-12.25,8.54v.37c0,6.5,9.46,9.09,19.67,12.43.28.08.56.17.84.26l.84.26c.98.31,1.97.64,2.95.98l.84.3c11.09,3.97,21.62,10.24,21.62,23.63v.37c0,18.37-14.29,27.47-32.29,27.47-11.88-.19-23.57-3.71-33.4-10.39-2.41-1.48-3.9-4.08-3.71-6.87,0-4.45,3.53-8.17,7.98-8.17h.19c1.48,0,2.97.37,4.27,1.11,7.42,5.2,16.15,7.98,25.05,8.35,8.54,0,13.55-3.71,13.55-9.46v-.37c0-6.87-9.28-9.09-19.49-12.25-1.07-.31-2.15-.63-3.23-.96l-.81-.25c-11.63-3.7-23.24-9.43-23.24-24.39v-.37c0-16.52,13.73-26.54,30.99-26.54Zm208.77.37c5.46,0,9.85,4.28,10.02,9.7v.32s0,70.33,0,70.33c0,5.57-4.45,9.84-10.02,9.84s-9.84-4.45-9.84-9.84V55.71c-.19-5.38,4.27-9.84,9.65-10.02h.19Zm-17.82,8.17v1.48c0,4.82-3.34,8.91-7.98,9.65-14.29,2.41-23.94,14.85-23.94,32.1v28.76c0,5.57-4.45,9.84-10.02,9.84-5.28,0-9.66-4.1-9.83-9.33v-.32s0-.18,0-.18l.19-70.33c-.19-5.38,4.27-9.84,9.65-10.02h.19c5.46,0,9.85,4.28,10.02,9.7v.32s0,4.82,0,4.82c.93-7.42,13.18-14.85,21.9-14.85,5.01-.37,9.46,3.34,9.84,8.35Zm-104.29,8.72c-13.55,0-25.42,11.32-25.42,27.84v.37c0,16.7,11.88,27.84,25.42,27.84s24.87-10.58,24.87-27.84v-.37c0-16.89-11.32-27.84-24.87-27.84Zm273.35-.19c-13.41,0-24.63,10.72-24.86,27.32v.52s0,.37,0,.37c0,17.26,11.13,28.02,24.87,28.02s25.37-11.09,25.43-27.51v-.51s0-.37,0-.37c0-16.52-11.88-27.84-25.42-27.84Zm-141.04-41.2v.37h0c0,5.57-4.45,10.02-10.02,10.02s-10.02-4.45-10.02-10.02,4.28-9.85,9.7-10.02h.32c5.38-.19,9.84,4.26,10.02,9.65Z"/>
      <g>
        <path class="cls-2" d="m27.43,25.27c35.63-34.52,92.6-33.59,127.12,2.23,3.9-5.2,7.24-10.95,9.65-16.89,11.32,34.52,18.19,63.47,15.59,85.92-1.3,18.93-8.72,37.12-20.97,51.59-31.92,37.86-88.71,42.68-126.56,10.76h0l-.73-.65-.13-.09c-.09-.06-.17-.13-.26-.19-.34-.27-.65-.56-.93-.87l-.1-.12-1.19-1.06c-1.11-.95-2.23-1.91-3.22-2.98l-.49-.55C-9.31,116.76-8.2,59.79,27.43,25.27Zm13.36,120.81c-3.34-2.6-8.17-2.23-10.76,1.11-2.26,2.91-2.27,6.95-.02,9.66l.1.12,1.42,1.26.14.1c3.21,2.12,7.53,1.7,10.03-1.24l.2-.25c2.6-3.34,2.04-8.17-1.11-10.76ZM163.28,19.89c-9.28,19.49-32.29,34.33-52.15,38.97-7.65,1.82-14.9,2.28-21.97,2.63l-2.12.11c-9.51.48-18.73,1-28.24,4.68-39.34,15.03-38.6,61.8-17.07,72.37h0l1.3.74s14.25-2.83,28.95-6.66l1.32-.34c.22-.06.44-.12.66-.17l1.32-.35c6.14-1.66,12.18-3.46,17.12-5.28,25.61-9.46,53.82-32.85,63.1-59.94-4.82,28.21-29.14,55.49-53.45,67.92-12.99,6.68-23.01,8.17-44.35,15.59-2.6.93-4.64,1.86-4.64,1.86.12-.02.24-.03.37-.05l.73-.1h0l.73-.09c4.71-.58,8.94-.87,8.94-.87,30.25-1.48,77.76,8.54,99.84-20.97,22.64-30.06,10.02-78.68-.37-110.05Z"/>
        <path class="cls-1" d="m40.8,146.08c3.15,2.6,3.71,7.42,1.11,10.76-2.6,3.34-7.42,3.71-10.76,1.11-3.34-2.6-3.71-7.42-1.11-10.76s7.42-3.71,10.76-1.11ZM163.28,19.89c10.39,31.36,23.01,79.98.37,110.05-22.08,29.51-69.59,19.49-99.84,20.97,0,0-5.38.37-10.76,1.11,0,0,2.04-.93,4.64-1.86,21.34-7.42,31.36-8.91,44.35-15.59,24.31-12.43,48.62-39.71,53.45-67.92-9.28,27.09-37.49,50.48-63.1,59.94-4.58,1.69-10.12,3.36-15.81,4.92l-1.31.36c-15.79,4.26-32.24,7.53-32.24,7.53l-1.3-.74c-21.53-10.58-22.27-57.34,17.07-72.37,17.26-6.68,33.59-2.97,52.33-7.42,19.86-4.64,42.87-19.49,52.15-38.97Z"/>
      </g>
    </g>
  </g>
</svg>