<?xml version="1.0" encoding="UTF-8"?>
<svg id="Layer_2" data-name="Layer 2" xmlns="http://www.w3.org/2000/svg" viewBox="0 0 579.44 180">
  <defs>
    <style>
      .cls-1 {
        fill: #f05138;
      }

      .cls-2 {
        fill: #fff;
      }
    </style>
  </defs>
  <g id="Layer_1-2" data-name="Layer 1">
    <g>
      <g>
        <path class="cls-1" d="m179.99,49.86c-.01-1.81-.03-3.62-.08-5.43-.11-3.94-.34-7.92-1.04-11.82-.71-3.96-1.87-7.64-3.71-11.24-1.8-3.53-4.15-6.77-6.95-9.57-2.8-2.8-6.04-5.15-9.57-6.95-3.6-1.83-7.28-2.99-11.24-3.7-3.9-.7-7.88-.93-11.83-1.04-1.81-.05-3.62-.07-5.43-.08-2.15-.01-4.3-.01-6.45-.01H56.31c-2.15,0-4.3,0-6.45.01-1.81.01-3.62.03-5.43.08-.99.03-1.97.06-2.96.11-2.97.14-5.94.41-8.86.93-2.97.53-5.78,1.32-8.52,2.45-.91.38-1.82.79-2.72,1.25-2.65,1.35-5.13,3.01-7.39,4.94-.75.64-1.48,1.32-2.18,2.02-2.8,2.8-5.16,6.04-6.95,9.57-1.83,3.6-2.99,7.28-3.7,11.24-.7,3.9-.93,7.88-1.04,11.82-.05,1.81-.07,3.62-.08,5.43C0,52.01,0,54.16,0,56.31v67.39c0,2.15,0,4.3.01,6.45.01,1.81.03,3.62.08,5.43.11,3.94.34,7.92,1.04,11.82.71,3.96,1.87,7.65,3.7,11.24,1.8,3.53,4.15,6.77,6.95,9.57,2.8,2.81,6.04,5.16,9.57,6.96,3.6,1.83,7.28,2.99,11.24,3.7,3.9.7,7.88.94,11.83,1.04,1.81.05,3.62.07,5.43.08,2.15.02,4.3.01,6.45.01h67.39c2.15,0,4.3,0,6.45-.01,1.81-.01,3.62-.03,5.43-.08,3.95-.11,7.92-.34,11.83-1.04,3.96-.71,7.64-1.87,11.24-3.7,3.54-1.8,6.77-4.15,9.57-6.96,2.8-2.8,5.16-6.04,6.95-9.57,1.83-3.6,2.99-7.28,3.71-11.24.7-3.9.93-7.88,1.04-11.82.05-1.81.07-3.62.08-5.43.01-2.15.01-4.3.01-6.45V56.31c0-2.15,0-4.3-.01-6.45Z"/>
        <path class="cls-2" d="m142.63,111.11s0,0-.01-.01c.2-.68.4-1.35.58-2.05,7.47-29.76-10.76-64.96-41.62-83.48,13.52,18.33,19.5,40.53,14.19,59.95-.47,1.73-1.04,3.39-1.67,5.01-.68-.45-1.54-.96-2.7-1.6,0,0-30.69-18.95-63.96-52.47-.87-.88,17.74,26.6,38.86,48.92-9.95-5.58-37.68-25.76-55.24-41.83,2.16,3.6,4.72,7.06,7.54,10.4,14.66,18.59,33.78,41.53,56.69,59.15-16.09,9.85-38.84,10.62-61.48.01-5.6-2.62-10.87-5.79-15.74-9.39,9.58,15.33,24.35,28.56,42.31,36.28,21.43,9.21,42.73,8.58,58.6.15v.02c.06-.05.15-.1.23-.14.65-.35,1.3-.71,1.93-1.08,7.62-3.96,22.68-7.97,30.77,7.76,1.98,3.85,6.19-16.55-9.28-35.58Z"/>
      </g>
      <g>
        <path d="m248.31,116.81c1.41,12.49,13.32,20.67,29.86,20.67s27.05-8.19,27.05-19.52c0-9.76-6.86-15.72-22.66-19.69l-15.3-3.89c-22-5.46-31.93-15.39-31.93-31.76,0-20.18,17.62-34.16,42.68-34.16s41.6,14.06,42.18,34.33h-16.13c-1.24-12.41-11.33-20.02-26.47-20.02s-25.39,7.69-25.39,18.94c0,8.77,6.45,13.98,22.33,18.03l12.74,3.31c24.65,6.04,34.74,15.63,34.74,32.92,0,22-17.45,35.81-45.24,35.81-25.8,0-43.42-13.73-44.74-34.99h16.29Z"/>
        <path d="m424.46,149.81h-16.21l-18.94-66h-.33l-18.86,66h-16.21l-23.99-86.43h15.71l16.71,69.39h.33l18.86-69.39h15.22l19.02,69.39h.33l16.71-69.39h15.55l-23.9,86.43Z"/>
        <path d="m458.83,40.14c0-5.21,4.3-9.43,9.51-9.43s9.59,4.22,9.59,9.43-4.3,9.51-9.59,9.51-9.51-4.3-9.51-9.51Zm1.66,23.24h15.8v86.43h-15.8V63.38Z"/>
        <path d="m579.44,76.12v-12.74h-16.71v-20.67h-15.72v20.67h-30.2v-7.61c.08-7.69,3.06-10.92,10.17-10.92,2.31,0,4.63.25,6.53.58v-12.41c-2.81-.41-5.38-.66-8.35-.66-16.87,0-23.99,7.03-23.99,23.16v7.86h-12.07v12.74h12.07v73.69h15.71v-73.69h30.12v51.03c0,16.71,6.37,23.16,22.91,23.16,3.56,0,7.61-.25,9.43-.66v-12.9c-1.08.17-4.22.41-5.96.41-7.36,0-10.67-3.47-10.67-11.25v-49.79h16.71Z"/>
      </g>
    </g>
  </g>
</svg>