<?xml version="1.0" encoding="UTF-8"?>
<svg id="Layer_2" data-name="Layer 2" xmlns="http://www.w3.org/2000/svg" viewBox="0 0 351.81 180">
  <defs>
    <style>
      .cls-1 {
        fill: #00749a;
      }
    </style>
  </defs>
  <g id="Layer_1-2" data-name="Layer 1">
    <g>
      <path class="cls-1" d="m158.2,144.62h-18.16v1.89c5.68,0,6.62,1.18,6.62,8.33v12.87c0,7.19-.94,8.52-6.62,8.52-4.35-.57-7.38-3.03-11.35-7.38l-4.73-5.11c6.24-1.18,9.65-5.11,9.65-9.46,0-5.49-4.73-9.84-13.62-9.84h-17.79v1.89c5.68,0,6.62,1.18,6.62,8.33v12.87c0,7.19-.94,8.52-6.62,8.52v1.89h20.06v-1.89c-5.68,0-6.62-1.32-6.62-8.52v-3.59h1.7l11.17,14h29.52c14.57,0,20.81-7.76,20.81-16.84.19-8.89-6.05-16.46-20.62-16.46h0Zm-42.38,16.46v-13.39h4.17c4.54,0,6.62,3.22,6.62,6.81s-2.08,6.62-6.62,6.62l-4.17-.04Zm42.76,14h-.76c-3.59,0-4.17-.94-4.17-5.49v-21.94h4.91c10.6,0,12.49,7.76,12.49,13.62,0,6.24-2.08,13.81-12.49,13.81h.01Zm-112.78-10.17l7-20.62c2.08-6.05,1.18-7.76-5.3-7.76v-2.08h19.11v2.08c-6.43,0-7.94,1.51-10.41,8.89l-11.55,34.59h-1.51l-10.41-31.6-10.41,31.6h-1.32l-11.17-34.62c-2.46-7.38-3.93-8.89-9.84-8.89v-2.08h22.33v2.08c-6.05,0-7.57,1.32-5.49,7.76l6.81,20.62,10.22-30.47h1.89l10.04,30.51Zm34.43,14.76c-11.17,0-20.25-8.14-20.25-18.16s9.04-18.16,20.25-18.16,20.25,8.14,20.25,18.16-9.04,18.16-20.25,18.16Zm0-33.3c-9.27,0-12.49,8.33-12.49,14.95s3.22,14.95,12.49,14.95,12.68-8.33,12.68-14.95-3.22-14.95-12.68-14.95Zm123.75,29.89v2.08h-23.27v-2.08c6.81,0,7.94-1.7,7.94-11.92v-16.28c0-10.22-1.18-11.73-7.94-11.73v-2.08h21c10.41,0,16.28,5.3,16.28,12.49s-5.87,12.49-16.28,12.49h-5.68v5.3c0,10.03,1.18,11.73,7.94,11.73h0Zm-2.27-38.22h-5.68v17.6h5.68c5.68,0,8.33-3.93,8.33-8.7s-2.65-8.89-8.33-8.89Zm85.72,30.84l-.57,1.89c-.94,3.4-2.08,4.54-9.27,4.54h-1.32c-5.3,0-6.24-1.18-6.24-8.33v-4.73c7.94,0,8.52.76,8.52,6.05h1.89v-15.14h-1.89c0,5.3-.57,6.05-8.52,6.05v-11.34h5.49c7.19,0,8.33,1.18,9.27,4.54l.57,1.89h1.7l-.76-9.46h-29.71v1.89c5.68,0,6.62,1.18,6.62,8.33v12.87c0,6.62-.76,8.33-5.3,8.52-4.17-.57-7.19-3.03-11.17-7.38l-4.73-5.11c6.24-1.18,9.65-5.11,9.65-9.46,0-5.49-4.73-9.84-13.62-9.84h-17.79v1.89c5.68,0,6.62,1.18,6.62,8.33v12.87c0,7.19-.94,8.52-6.62,8.52v1.89h20.06v-1.89c-5.68,0-6.62-1.32-6.62-8.52v-3.59h1.7l11.17,14h41.63l.57-9.46h-1.32v.19Zm-53.55-7.76v-13.43h4.17c4.54,0,6.62,3.22,6.62,6.81s-2.08,6.62-6.62,6.62h-4.17Z"/>
      <path id="B" class="cls-1" d="m308.06,179.67c-3.97,0-7.57-2.08-9.04-3.4-.57.57-1.32,2.08-1.7,3.4h-1.89v-14h2.08c.76,6.62,5.49,10.6,11.35,10.6,3.22,0,5.87-1.89,5.87-4.91,0-2.65-2.27-4.73-6.43-6.62l-5.68-2.65c-3.97-1.89-7-5.3-7-9.65,0-4.91,4.54-9.04,10.78-9.04,3.4,0,6.24,1.14,7.94,2.65.57-.38.94-1.51,1.32-2.65h1.89v11.92h-2.08c-.76-4.73-3.4-8.7-8.7-8.7-2.84,0-5.49,1.7-5.49,4.17,0,2.65,2.08,3.97,7,6.24l5.49,2.65c4.91,2.27,6.81,6.05,6.81,9.04-.19,6.43-5.68,10.97-12.49,10.97h-.04Z"/>
      <path id="B-2" data-name="B" class="cls-1" d="m339.29,179.67c-3.97,0-7.57-2.08-9.04-3.4-.57.57-1.32,2.08-1.7,3.4h-1.89v-14h2.08c.76,6.62,5.49,10.6,11.35,10.6,3.22,0,5.87-1.89,5.87-4.91,0-2.65-2.27-4.73-6.43-6.62l-5.68-2.65c-3.97-1.89-7-5.3-7-9.65,0-4.91,4.54-9.04,10.78-9.04,3.4,0,6.24,1.14,7.94,2.65.57-.38.94-1.51,1.32-2.65h1.89v11.92h-2.08c-.76-4.73-3.4-8.7-8.7-8.7-2.84,0-5.49,1.7-5.49,4.17,0,2.65,2.08,3.97,7,6.24l5.49,2.65c4.91,2.27,6.81,6.05,6.81,9.04-.19,6.43-5.68,10.97-12.49,10.97h-.04Z"/>
      <path class="cls-1" d="m124.01,60.42c0,20.58,11.82,38.31,29.12,46.63l-24.52-67.64c-2.85,6.57-4.6,13.57-4.6,21.02h0Zm86.91-2.63c0-6.35-2.41-10.95-4.38-14.23-2.63-4.38-5.03-7.88-5.03-12.26,0-4.82,3.72-9.2,8.76-9.2h.66c-9.2-8.52-21.46-13.56-34.99-13.56-18.17.22-33.93,9.41-43.34,23.42h3.28c5.47,0,13.79-.66,13.79-.66,2.85-.22,3.07,3.94.39,4.38,0,0-2.85.39-5.91.39l18.87,56.04,11.38-33.93-8.1-22.11-5.47-.39c-2.85-.22-2.41-4.38.22-4.38,0,0,8.54.66,13.57.66,5.47,0,13.79-.66,13.79-.66,2.85-.22,3.07,3.94.39,4.38,0,0-2.85.39-5.91.39l18.87,55.83,5.25-17.3c2.19-7.23,3.94-12.26,3.94-16.86l-.04.04Zm-34.15,7.23l-15.54,45.09c4.6,1.31,9.63,2.19,14.66,2.19,6.13,0,11.82-1.09,17.3-2.85-.22-.22-.22-.39-.39-.66l-16.03-43.78Zm44.66-29.33l.39,5.25c0,5.25-.88,11.17-3.94,18.61l-15.73,45.75c15.33-8.98,25.83-25.61,25.83-44.88-.22-8.98-2.63-17.3-6.57-24.74h0ZM175.9,0c-33.28,0-60.42,27.15-60.42,60.42s27.14,60.42,60.42,60.42,60.42-27.15,60.42-60.42S209.17,0,175.9,0Zm0,118.21c-31.74,0-57.57-25.83-57.57-57.79S144.15,2.85,175.9,2.85s57.57,25.83,57.57,57.57-25.83,57.79-57.57,57.79Z"/>
    </g>
  </g>
</svg>