<?xml version="1.0" encoding="UTF-8"?>
<svg xmlns="http://www.w3.org/2000/svg" xmlns:xlink="http://www.w3.org/1999/xlink" viewBox="0 0 2000 900">
  <defs>
    <style>
      .cls-1, .cls-2, .cls-3, .cls-4, .cls-5, .cls-6, .cls-7 {
        fill: none;
      }

      .cls-8 {
        letter-spacing: 0em;
      }

      .cls-8, .cls-9, .cls-10, .cls-11, .cls-12, .cls-13, .cls-14, .cls-15, .cls-16, .cls-17, .cls-18, .cls-19 {
        font-size: 5.45px;
      }

      .cls-20 {
        letter-spacing: 0em;
      }

      .cls-21 {
        letter-spacing: 0em;
      }

      .cls-22 {
        letter-spacing: -.01em;
      }

      .cls-23 {
        letter-spacing: .02em;
      }

      .cls-24 {
        letter-spacing: .02em;
      }

      .cls-25 {
        fill: url(#radial-gradient-2);
      }

      .cls-25, .cls-26, .cls-27 {
        mix-blend-mode: multiply;
      }

      .cls-26 {
        fill: url(#radial-gradient-3);
      }

      .cls-9 {
        letter-spacing: -.01em;
      }

      .cls-28 {
        letter-spacing: .03em;
      }

      .cls-29 {
        letter-spacing: 0em;
      }

      .cls-30 {
        letter-spacing: -.01em;
      }

      .cls-31 {
        letter-spacing: 0em;
      }

      .cls-32 {
        letter-spacing: 0em;
      }

      .cls-32, .cls-33, .cls-34, .cls-35, .cls-36, .cls-37, .cls-38, .cls-39, .cls-40, .cls-41, .cls-42, .cls-43, .cls-44 {
        font-size: 9.27px;
      }

      .cls-45 {
        fill: url(#linear-gradient);
      }

      .cls-33 {
        letter-spacing: -.01em;
      }

      .cls-46 {
        letter-spacing: .03em;
      }

      .cls-47 {
        clip-path: url(#clippath);
      }

      .cls-34 {
        letter-spacing: -.02em;
      }

      .cls-48 {
        letter-spacing: .01em;
      }

      .cls-35 {
        letter-spacing: 0em;
      }

      .cls-10 {
        letter-spacing: -.03em;
      }

      .cls-49 {
        letter-spacing: 0em;
      }

      .cls-50 {
        letter-spacing: 0em;
      }

      .cls-51 {
        letter-spacing: 0em;
      }

      .cls-52 {
        letter-spacing: 0em;
      }

      .cls-2 {
        stroke-width: .32px;
      }

      .cls-2, .cls-3, .cls-4, .cls-5, .cls-6, .cls-7 {
        stroke-linecap: round;
      }

      .cls-2, .cls-3, .cls-4, .cls-6 {
        stroke-linejoin: round;
      }

      .cls-2, .cls-4, .cls-7 {
        stroke: #fff;
      }

      .cls-53 {
        fill: #f7eedd;
      }

      .cls-54 {
        fill: #f0e1bb;
      }

      .cls-55 {
        fill: #f4f4f6;
      }

      .cls-56 {
        fill: #ffa114;
      }

      .cls-57, .cls-58, .cls-59, .cls-60, .cls-61, .cls-62 {
        fill: #fff;
      }

      .cls-63 {
        fill: #ffcc14;
      }

      .cls-64 {
        fill: #999;
      }

      .cls-65 {
        fill: #333;
      }

      .cls-66, .cls-67, .cls-68, .cls-69 {
        fill: #1a273d;
      }

      .cls-70 {
        letter-spacing: -.01em;
      }

      .cls-71 {
        letter-spacing: 0em;
      }

      .cls-72 {
        letter-spacing: 0em;
      }

      .cls-67 {
        font-size: 9.11px;
      }

      .cls-67, .cls-68, .cls-69 {
        font-family: Bitter-BoldItalic, 'Bitter BoldItalic';
        font-style: italic;
        font-weight: 700;
      }

      .cls-68 {
        font-size: 25.23px;
      }

      .cls-73 {
        letter-spacing: 0em;
      }

      .cls-74, .cls-58 {
        font-size: 5.96px;
      }

      .cls-74, .cls-75, .cls-76, .cls-77 {
        fill: #17253b;
      }

      .cls-74, .cls-76, .cls-77 {
        font-family: Bitter-Light, 'Bitter Light';
        font-weight: 300;
      }

      .cls-78 {
        letter-spacing: 0em;
      }

      .cls-36 {
        letter-spacing: -.03em;
      }

      .cls-58, .cls-59, .cls-75, .cls-60, .cls-62 {
        font-family: Bitter-Regular, 'Bitter Regular';
      }

      .cls-11 {
        letter-spacing: -.01em;
      }

      .cls-12 {
        letter-spacing: 0em;
      }

      .cls-79 {
        letter-spacing: 0em;
      }

      .cls-3, .cls-5, .cls-6 {
        stroke: #17253b;
      }

      .cls-3, .cls-7 {
        stroke-width: 1.03px;
      }

      .cls-80 {
        letter-spacing: 0em;
      }

      .cls-81 {
        letter-spacing: 0em;
      }

      .cls-82 {
        letter-spacing: 0em;
      }

      .cls-83 {
        letter-spacing: 0em;
      }

      .cls-84 {
        letter-spacing: 0em;
      }

      .cls-85 {
        letter-spacing: 0em;
      }

      .cls-86 {
        letter-spacing: 0em;
      }

      .cls-4 {
        stroke-width: .52px;
      }

      .cls-87 {
        letter-spacing: 0em;
      }

      .cls-88 {
        letter-spacing: .02em;
      }

      .cls-37 {
        letter-spacing: .02em;
      }

      .cls-89 {
        letter-spacing: .02em;
      }

      .cls-5, .cls-6 {
        stroke-width: .45px;
      }

      .cls-5, .cls-7 {
        stroke-miterlimit: 10;
      }

      .cls-38 {
        letter-spacing: -.01em;
      }

      .cls-90 {
        letter-spacing: 0em;
      }

      .cls-91 {
        font-size: 7.27px;
        letter-spacing: 0em;
      }

      .cls-92 {
        letter-spacing: 0em;
      }

      .cls-13 {
        letter-spacing: .01em;
      }

      .cls-93 {
        letter-spacing: -.01em;
      }

      .cls-94 {
        letter-spacing: -.01em;
      }

      .cls-59, .cls-77 {
        font-size: 3.5px;
      }

      .cls-95 {
        letter-spacing: 0em;
      }

      .cls-96 {
        letter-spacing: 0em;
      }

      .cls-40 {
        letter-spacing: 0em;
      }

      .cls-97 {
        letter-spacing: 0em;
      }

      .cls-41 {
        letter-spacing: -.01em;
      }

      .cls-98 {
        letter-spacing: 0em;
      }

      .cls-42 {
        letter-spacing: 0em;
      }

      .cls-99 {
        fill: url(#linear-gradient-3);
      }

      .cls-100 {
        fill: url(#linear-gradient-4);
      }

      .cls-101 {
        fill: url(#linear-gradient-2);
      }

      .cls-102 {
        fill: url(#linear-gradient-6);
      }

      .cls-103 {
        fill: url(#linear-gradient-7);
      }

      .cls-104 {
        fill: url(#linear-gradient-5);
      }

      .cls-105 {
        letter-spacing: 0em;
      }

      .cls-43 {
        letter-spacing: .01em;
      }

      .cls-106 {
        letter-spacing: 0em;
      }

      .cls-107 {
        letter-spacing: 0em;
      }

      .cls-108 {
        letter-spacing: -.01em;
      }

      .cls-109 {
        letter-spacing: -.01em;
      }

      .cls-27 {
        fill: url(#radial-gradient);
      }

      .cls-60 {
        font-size: 4.24px;
      }

      .cls-110 {
        letter-spacing: 0em;
      }

      .cls-111 {
        letter-spacing: -.01em;
      }

      .cls-15 {
        letter-spacing: -.02em;
      }

      .cls-76, .cls-62 {
        font-size: 2.15px;
      }

      .cls-112 {
        letter-spacing: -.02em;
      }

      .cls-113 {
        letter-spacing: -.02em;
      }

      .cls-114 {
        letter-spacing: 0em;
      }

      .cls-115 {
        letter-spacing: 0em;
      }

      .cls-116 {
        letter-spacing: 0em;
      }

      .cls-117 {
        letter-spacing: 0em;
      }

      .cls-16 {
        letter-spacing: .02em;
      }

      .cls-118 {
        isolation: isolate;
      }

      .cls-119 {
        letter-spacing: 0em;
      }

      .cls-120 {
        letter-spacing: 0em;
      }

      .cls-121 {
        letter-spacing: 0em;
      }

      .cls-122 {
        letter-spacing: 0em;
      }

      .cls-123 {
        letter-spacing: -.03em;
      }

      .cls-124 {
        letter-spacing: -.03em;
      }

      .cls-125 {
        letter-spacing: 0em;
      }

      .cls-126 {
        letter-spacing: -.03em;
      }

      .cls-127 {
        letter-spacing: 0em;
      }

      .cls-128 {
        letter-spacing: 0em;
      }

      .cls-17 {
        letter-spacing: -.01em;
      }

      .cls-129 {
        font-size: 12.36px;
      }

      .cls-130 {
        letter-spacing: 0em;
      }

      .cls-131 {
        letter-spacing: .01em;
      }

      .cls-132 {
        letter-spacing: 0em;
      }

      .cls-133 {
        letter-spacing: .01em;
      }

      .cls-134 {
        letter-spacing: 0em;
      }

      .cls-44 {
        letter-spacing: 0em;
      }

      .cls-18 {
        letter-spacing: 0em;
      }

      .cls-135 {
        letter-spacing: 0em;
      }

      .cls-61 {
        mix-blend-mode: overlay;
        opacity: .3;
      }

      .cls-136 {
        letter-spacing: 0em;
      }

      .cls-137 {
        letter-spacing: -.01em;
      }

      .cls-19 {
        letter-spacing: 0em;
      }

      .cls-138 {
        letter-spacing: 0em;
      }

      .cls-69 {
        font-size: 14.83px;
      }

      .cls-139 {
        letter-spacing: 0em;
      }
    </style>
    <clipPath id="clippath">
      <path class="cls-1" d="m1107.81,567.24l-17.59-61.47h14.2l10.17,42.71h.51l11.22-42.71h12.16l11.19,42.8h.54l10.17-42.8h14.2l-17.59,61.47h-12.67l-11.71-40.19h-.48l-11.67,40.19h-12.67Zm89.5.9c-4.74,0-8.82-.97-12.23-2.9-3.41-1.93-6.04-4.67-7.88-8.22-1.84-3.55-2.76-7.76-2.76-12.62s.92-8.9,2.76-12.49c1.84-3.58,4.44-6.37,7.79-8.37,3.35-2,7.29-3,11.81-3,3.04,0,5.88.49,8.51,1.46,2.63.97,4.93,2.43,6.9,4.37s3.51,4.38,4.61,7.31c1.1,2.93,1.65,6.36,1.65,10.28v3.51h-38.93v-7.92h26.89c0-1.84-.4-3.47-1.2-4.89-.8-1.42-1.91-2.54-3.32-3.35-1.41-.81-3.05-1.21-4.91-1.21s-3.66.45-5.15,1.33c-1.49.89-2.66,2.08-3.5,3.57-.84,1.49-1.27,3.15-1.29,4.97v7.53c0,2.28.42,4.25,1.28,5.91.85,1.66,2.06,2.94,3.62,3.84s3.41,1.35,5.55,1.35c1.42,0,2.72-.2,3.9-.6,1.18-.4,2.19-1,3.03-1.8.84-.8,1.48-1.78,1.92-2.94l11.82.78c-.6,2.84-1.83,5.32-3.68,7.43-1.85,2.11-4.23,3.75-7.14,4.92-2.91,1.17-6.27,1.76-10.07,1.76Zm29.74-.9v-61.47h12.79v23.11h.39c.56-1.24,1.38-2.51,2.45-3.8,1.07-1.29,2.47-2.37,4.2-3.24,1.73-.87,3.89-1.31,6.47-1.31,3.36,0,6.46.88,9.3,2.63s5.11,4.38,6.81,7.89c1.7,3.51,2.55,7.91,2.55,13.19s-.83,9.48-2.48,13.01c-1.65,3.53-3.89,6.2-6.72,8.01s-6,2.72-9.5,2.72c-2.48,0-4.59-.41-6.32-1.23s-3.15-1.86-4.25-3.11c-1.1-1.25-1.94-2.52-2.52-3.8h-.57v7.38h-12.61Zm12.52-23.05c0,2.74.38,5.13,1.14,7.17.76,2.04,1.86,3.63,3.3,4.76,1.44,1.13,3.19,1.7,5.25,1.7s3.84-.58,5.28-1.73c1.44-1.15,2.54-2.75,3.29-4.8.75-2.05,1.12-4.42,1.12-7.1s-.37-5-1.11-7.02c-.74-2.02-1.83-3.6-3.27-4.74s-3.21-1.71-5.31-1.71-3.84.55-5.27,1.65c-1.43,1.1-2.53,2.66-3.29,4.68-.76,2.02-1.14,4.4-1.14,7.14Zm79.29-9.9l-11.71.72c-.2-1-.63-1.91-1.29-2.72-.66-.81-1.53-1.46-2.6-1.95s-2.35-.74-3.83-.74c-1.98,0-3.65.42-5.01,1.25-1.36.83-2.04,1.94-2.04,3.32,0,1.1.44,2.03,1.32,2.79.88.76,2.39,1.37,4.53,1.83l8.34,1.68c4.48.92,7.82,2.4,10.02,4.44,2.2,2.04,3.3,4.72,3.3,8.04,0,3.02-.88,5.67-2.66,7.95-1.77,2.28-4.19,4.06-7.26,5.33s-6.61,1.91-10.61,1.91c-6.1,0-10.96-1.28-14.57-3.83-3.61-2.55-5.73-6.03-6.35-10.43l12.58-.66c.38,1.86,1.3,3.28,2.76,4.25,1.46.97,3.33,1.46,5.61,1.46s4.05-.44,5.42-1.31,2.07-2,2.09-3.38c-.02-1.16-.51-2.12-1.47-2.87-.96-.75-2.44-1.33-4.44-1.73l-7.98-1.59c-4.5-.9-7.85-2.46-10.04-4.68-2.19-2.22-3.29-5.05-3.29-8.49,0-2.96.8-5.51,2.42-7.65,1.61-2.14,3.88-3.79,6.81-4.95,2.93-1.16,6.37-1.74,10.31-1.74,5.82,0,10.41,1.23,13.76,3.69,3.35,2.46,5.31,5.81,5.87,10.05Zm15.54-19.09c-1.9,0-3.53-.63-4.88-1.91s-2.03-2.8-2.03-4.58.67-3.28,2.03-4.55,2.98-1.91,4.88-1.91,3.53.63,4.88,1.91,2.03,2.79,2.03,4.55-.68,3.31-2.03,4.58-2.98,1.91-4.88,1.91Zm-6.42,52.04v-46.1h12.79v46.1h-12.79Zm47.51-46.1v9.6h-27.76v-9.6h27.76Zm-21.46-11.04h12.79v42.98c0,1.18.18,2.1.54,2.75.36.65.87,1.11,1.52,1.37.65.26,1.41.39,2.27.39.6,0,1.2-.05,1.8-.17.6-.11,1.06-.2,1.38-.25l2.01,9.51c-.64.2-1.54.43-2.7.71-1.16.27-2.57.44-4.23.5-3.08.12-5.78-.29-8.09-1.23s-4.11-2.4-5.39-4.38-1.91-4.48-1.89-7.5v-44.66Zm50.3,58.04c-4.74,0-8.82-.97-12.23-2.9-3.41-1.93-6.04-4.67-7.88-8.22-1.84-3.55-2.76-7.76-2.76-12.62s.92-8.9,2.76-12.49c1.84-3.58,4.44-6.37,7.79-8.37,3.35-2,7.29-3,11.81-3,3.04,0,5.88.49,8.51,1.46,2.63.97,4.93,2.43,6.9,4.37s3.51,4.38,4.61,7.31c1.1,2.93,1.65,6.36,1.65,10.28v3.51h-38.93v-7.92h26.89c0-1.84-.4-3.47-1.2-4.89-.8-1.42-1.91-2.54-3.32-3.35-1.41-.81-3.05-1.21-4.91-1.21s-3.66.45-5.15,1.33c-1.49.89-2.66,2.08-3.5,3.57-.84,1.49-1.27,3.15-1.29,4.97v7.53c0,2.28.42,4.25,1.28,5.91.85,1.66,2.06,2.94,3.62,3.84s3.41,1.35,5.55,1.35c1.42,0,2.72-.2,3.9-.6,1.18-.4,2.19-1,3.03-1.8.84-.8,1.48-1.78,1.92-2.94l11.82.78c-.6,2.84-1.83,5.32-3.68,7.43-1.85,2.11-4.23,3.75-7.14,4.92-2.91,1.17-6.27,1.76-10.07,1.76Zm67.95,0c-4.24,0-7.9-.76-10.99-2.28s-5.45-3.59-7.1-6.2c-1.65-2.61-2.48-5.53-2.48-8.75,0-2.4.48-4.53,1.44-6.39.96-1.86,2.3-3.58,4.02-5.15,1.72-1.57,3.72-3.14,6-4.7l11.92-7.83c1.54-.98,2.67-2.02,3.39-3.11.72-1.09,1.08-2.28,1.08-3.56s-.49-2.35-1.47-3.39c-.98-1.04-2.37-1.55-4.17-1.53-1.2,0-2.24.27-3.12.79-.88.53-1.57,1.22-2.06,2.07-.49.85-.74,1.8-.74,2.84,0,1.28.36,2.58,1.08,3.9.72,1.32,1.68,2.72,2.88,4.19,1.2,1.47,2.51,3.06,3.93,4.76l29.14,33.43h-13.33l-24.31-27.07c-1.6-1.82-3.2-3.73-4.79-5.72-1.59-1.99-2.92-4.11-3.98-6.36s-1.59-4.7-1.59-7.34c0-2.98.7-5.66,2.09-8.04s3.35-4.27,5.87-5.66c2.52-1.39,5.46-2.08,8.82-2.08s6.12.67,8.51,2c2.39,1.33,4.23,3.09,5.52,5.28,1.29,2.19,1.94,4.6,1.94,7.22,0,2.9-.71,5.53-2.15,7.88-1.43,2.35-3.44,4.46-6.02,6.32l-12.54,9.03c-1.7,1.24-2.96,2.51-3.77,3.8-.81,1.29-1.22,2.53-1.22,3.71,0,1.46.36,2.77,1.08,3.93.72,1.16,1.74,2.08,3.06,2.75,1.32.67,2.87,1,4.65,1,2.16,0,4.3-.5,6.41-1.49,2.11-.99,4.03-2.4,5.76-4.23,1.73-1.83,3.12-4.01,4.16-6.53,1.04-2.52,1.56-5.31,1.56-8.37h10.59c0,3.76-.41,7.15-1.23,10.16-.82,3.01-1.96,5.63-3.42,7.86-1.46,2.23-3.13,4.06-5.01,5.48-.6.38-1.18.74-1.74,1.08-.56.34-1.14.7-1.74,1.08-2.28,1.84-4.83,3.17-7.64,3.99-2.81.82-5.59,1.23-8.33,1.23Zm71.79-.9l-17.59-61.47h14.2l10.17,42.71h.51l11.22-42.71h12.16l11.19,42.8h.54l10.17-42.8h14.2l-17.59,61.47h-12.67l-11.71-40.19h-.48l-11.67,40.19h-12.67Zm89.5.9c-4.74,0-8.82-.97-12.23-2.9-3.41-1.93-6.04-4.67-7.88-8.22-1.84-3.55-2.76-7.76-2.76-12.62s.92-8.9,2.76-12.49c1.84-3.58,4.44-6.37,7.79-8.37,3.35-2,7.29-3,11.81-3,3.04,0,5.88.49,8.51,1.46,2.63.97,4.93,2.43,6.9,4.37s3.51,4.38,4.61,7.31c1.1,2.93,1.65,6.36,1.65,10.28v3.51h-38.93v-7.92h26.89c0-1.84-.4-3.47-1.2-4.89-.8-1.42-1.91-2.54-3.32-3.35-1.41-.81-3.05-1.21-4.91-1.21s-3.66.45-5.15,1.33c-1.49.89-2.66,2.08-3.5,3.57-.84,1.49-1.27,3.15-1.29,4.97v7.53c0,2.28.42,4.25,1.28,5.91.85,1.66,2.06,2.94,3.62,3.84s3.41,1.35,5.55,1.35c1.42,0,2.72-.2,3.9-.6,1.18-.4,2.19-1,3.03-1.8.84-.8,1.48-1.78,1.92-2.94l11.82.78c-.6,2.84-1.83,5.32-3.68,7.43-1.85,2.11-4.23,3.75-7.14,4.92-2.91,1.17-6.27,1.76-10.07,1.76Zm29.74-.9v-61.47h12.79v23.11h.39c.56-1.24,1.38-2.51,2.45-3.8,1.07-1.29,2.47-2.37,4.2-3.24,1.73-.87,3.89-1.31,6.47-1.31,3.36,0,6.46.88,9.3,2.63s5.11,4.38,6.81,7.89c1.7,3.51,2.55,7.91,2.55,13.19s-.83,9.48-2.48,13.01c-1.65,3.53-3.89,6.2-6.72,8.01s-6,2.72-9.5,2.72c-2.48,0-4.59-.41-6.32-1.23s-3.15-1.86-4.25-3.11c-1.1-1.25-1.94-2.52-2.52-3.8h-.57v7.38h-12.61Zm12.52-23.05c0,2.74.38,5.13,1.14,7.17.76,2.04,1.86,3.63,3.3,4.76,1.44,1.13,3.19,1.7,5.25,1.7s3.84-.58,5.28-1.73c1.44-1.15,2.54-2.75,3.29-4.8.75-2.05,1.12-4.42,1.12-7.1s-.37-5-1.11-7.02c-.74-2.02-1.83-3.6-3.27-4.74s-3.21-1.71-5.31-1.71-3.84.55-5.27,1.65c-1.43,1.1-2.53,2.66-3.29,4.68-.76,2.02-1.14,4.4-1.14,7.14Zm71.37,23.05h-13.93l21.22-61.47h16.75l21.19,61.47h-13.93l-15.4-47.42h-.48l-15.43,47.42Zm-.87-24.16h32.89v10.14h-32.89v-10.14Zm53.24,41.45v-63.39h12.6v7.74h.57c.56-1.24,1.38-2.51,2.45-3.8,1.07-1.29,2.47-2.37,4.2-3.24,1.73-.87,3.89-1.31,6.47-1.31,3.36,0,6.46.88,9.3,2.63s5.11,4.38,6.81,7.89c1.7,3.51,2.55,7.91,2.55,13.19s-.83,9.48-2.48,13.01c-1.65,3.53-3.89,6.2-6.72,8.01s-6,2.72-9.5,2.72c-2.48,0-4.59-.41-6.32-1.23s-3.15-1.86-4.25-3.11c-1.1-1.25-1.94-2.52-2.52-3.8h-.39v24.67h-12.79Zm12.51-40.34c0,2.74.38,5.13,1.14,7.17.76,2.04,1.86,3.63,3.3,4.76,1.44,1.13,3.19,1.7,5.25,1.7s3.84-.58,5.28-1.73c1.44-1.15,2.54-2.75,3.29-4.8.75-2.05,1.12-4.42,1.12-7.1s-.37-5-1.11-7.02c-.74-2.02-1.83-3.6-3.27-4.74-1.44-1.14-3.21-1.71-5.31-1.71s-3.84.55-5.27,1.65c-1.43,1.1-2.53,2.66-3.29,4.68-.76,2.02-1.14,4.4-1.14,7.14Zm40.94,40.34v-63.39h12.6v7.74h.57c.56-1.24,1.38-2.51,2.45-3.8,1.07-1.29,2.47-2.37,4.2-3.24,1.73-.87,3.89-1.31,6.47-1.31,3.36,0,6.46.88,9.3,2.63s5.11,4.38,6.81,7.89c1.7,3.51,2.55,7.91,2.55,13.19s-.83,9.48-2.48,13.01c-1.65,3.53-3.89,6.2-6.72,8.01s-6,2.72-9.5,2.72c-2.48,0-4.59-.41-6.32-1.23s-3.15-1.86-4.25-3.11c-1.1-1.25-1.94-2.52-2.52-3.8h-.39v24.67h-12.79Zm12.51-40.34c0,2.74.38,5.13,1.14,7.17.76,2.04,1.86,3.63,3.3,4.76,1.44,1.13,3.19,1.7,5.25,1.7s3.84-.58,5.28-1.73c1.44-1.15,2.54-2.75,3.29-4.8.75-2.05,1.12-4.42,1.12-7.1s-.37-5-1.11-7.02c-.74-2.02-1.83-3.6-3.27-4.74-1.44-1.14-3.21-1.71-5.31-1.71s-3.84.55-5.27,1.65c-1.43,1.1-2.53,2.66-3.29,4.68-.76,2.02-1.14,4.4-1.14,7.14Z"/>
    </clipPath>
    <linearGradient id="linear-gradient" x1="1073.68" y1="652.58" x2="1945.99" y2="418.84" gradientUnits="userSpaceOnUse">
      <stop offset="0" stop-color="#858585"/>
      <stop offset="1" stop-color="#232323"/>
    </linearGradient>
    <radialGradient id="radial-gradient" cx="-385.98" cy="-1503.42" fx="-385.98" fy="-1503.42" r="469.39" gradientTransform="translate(638.13 710) rotate(.03) scale(.51 .01)" gradientUnits="userSpaceOnUse">
      <stop offset="0" stop-color="#a5a9b3"/>
      <stop offset="0" stop-color="#a5a9b3"/>
      <stop offset=".46" stop-color="#d5d7dc"/>
      <stop offset=".8" stop-color="#f3f4f5"/>
      <stop offset=".99" stop-color="#fff"/>
    </radialGradient>
    <radialGradient id="radial-gradient-2" cx="46.83" cy="-1472.83" fx="46.83" fy="-1472.83" r="469.39" gradientTransform="translate(638.12 721.91) rotate(.03) scale(.51 .01)" xlink:href="#radial-gradient"/>
    <radialGradient id="radial-gradient-3" cx="777.25" cy="-1454.37" fx="777.25" fy="-1454.37" r="469.35" gradientTransform="translate(675.12 729.35) rotate(.04) scale(.32 .01)" xlink:href="#radial-gradient"/>
    <linearGradient id="linear-gradient-2" x1="496.23" y1="580.36" x2="496.23" y2="736.98" gradientUnits="userSpaceOnUse">
      <stop offset="0" stop-color="#1e2226"/>
      <stop offset="1" stop-color="#373d47"/>
    </linearGradient>
    <linearGradient id="linear-gradient-3" x1="370.15" y1="685.58" x2="623.28" y2="685.58" gradientUnits="userSpaceOnUse">
      <stop offset="0" stop-color="#dce5ed"/>
      <stop offset=".16" stop-color="#e1e9f1"/>
      <stop offset=".34" stop-color="#f0f7fd"/>
      <stop offset=".36" stop-color="#f2f9ff"/>
      <stop offset=".73" stop-color="#f2f9ff"/>
      <stop offset=".84" stop-color="#ecf4fa"/>
      <stop offset=".99" stop-color="#dde6ee"/>
      <stop offset="1" stop-color="#dce5ed"/>
    </linearGradient>
    <linearGradient id="linear-gradient-4" x1="496.23" y1="609.47" x2="496.23" y2="242.03" gradientUnits="userSpaceOnUse">
      <stop offset="0" stop-color="#293445"/>
      <stop offset="1" stop-color="#454f61"/>
    </linearGradient>
    <linearGradient id="linear-gradient-5" y1="599.01" y2="367.93" xlink:href="#linear-gradient-4"/>
    <linearGradient id="linear-gradient-6" x1="725.82" y1="691.41" x2="799.03" y2="402.69" xlink:href="#linear-gradient-4"/>
    <linearGradient id="linear-gradient-7" x1="895.81" y1="608.91" x2="998.68" y2="608.91" xlink:href="#linear-gradient-4"/>
  </defs>
  <g class="cls-118">
    <g id="Layer_2" data-name="Layer 2">
      <g id="Layer_1-2" data-name="Layer 1">
        <g>
          <rect class="cls-55" width="2000" height="900"/>
          <g>
            <g class="cls-47">
              <rect class="cls-45" x="1065.43" y="449.65" width="888.82" height="172.12"/>
            </g>
            <g>
              <path class="cls-64" d="m1115.21,474.85v-26.18h9.33c2.04,0,3.72.37,5.06,1.11,1.34.74,2.34,1.75,3,3.04.67,1.28,1,2.72,1,4.33s-.33,3.06-1,4.34c-.67,1.28-1.67,2.3-3.02,3.04-1.34.75-3.03,1.12-5.06,1.12h-6.42v-3.35h6.06c1.29,0,2.33-.22,3.13-.67.8-.45,1.39-1.06,1.76-1.83s.56-1.66.56-2.65-.19-1.87-.56-2.63c-.38-.77-.97-1.37-1.77-1.8-.81-.44-1.87-.65-3.18-.65h-4.96v22.79h-3.95Z"/>
              <path class="cls-64" d="m1145.94,475.24c-1.84,0-3.45-.42-4.82-1.27-1.37-.84-2.44-2.02-3.2-3.54-.76-1.52-1.14-3.29-1.14-5.32s.38-3.82,1.14-5.34c.76-1.53,1.82-2.71,3.2-3.55,1.37-.84,2.98-1.27,4.82-1.27s3.45.42,4.82,1.27c1.37.84,2.44,2.03,3.2,3.55.76,1.53,1.14,3.31,1.14,5.34s-.38,3.8-1.14,5.32c-.76,1.52-1.82,2.7-3.2,3.54-1.37.84-2.98,1.27-4.82,1.27Zm.01-3.21c1.19,0,2.18-.32,2.97-.95.78-.63,1.37-1.47,1.75-2.52.38-1.05.57-2.2.57-3.46s-.19-2.41-.57-3.46-.96-1.9-1.75-2.54c-.78-.64-1.77-.96-2.97-.96s-2.2.32-2.99.96c-.79.64-1.37,1.49-1.75,2.54-.38,1.05-.57,2.21-.57,3.46s.19,2.42.57,3.46c.38,1.05.96,1.89,1.75,2.52.79.63,1.78.95,2.99.95Z"/>
              <path class="cls-64" d="m1163.01,474.85l-5.78-19.64h3.95l3.85,14.42h.19l3.86-14.42h3.95l3.84,14.36h.19l3.82-14.36h3.95l-5.77,19.64h-3.9l-3.99-14.18h-.29l-3.99,14.18h-3.89Z"/>
              <path class="cls-64" d="m1196.31,475.24c-1.94,0-3.6-.42-4.99-1.25-1.39-.83-2.47-2-3.22-3.52-.75-1.51-1.13-3.29-1.13-5.32s.38-3.78,1.13-5.32c.75-1.53,1.81-2.73,3.17-3.59,1.36-.86,2.95-1.29,4.77-1.29,1.11,0,2.18.18,3.22.55,1.04.37,1.97.94,2.8,1.73.83.78,1.48,1.8,1.96,3.05.48,1.25.71,2.76.71,4.54v1.35h-15.61v-2.86h11.86c0-1.01-.2-1.9-.61-2.68-.41-.78-.98-1.4-1.72-1.85-.74-.45-1.6-.68-2.59-.68-1.07,0-2.01.26-2.8.79-.8.52-1.41,1.21-1.84,2.05-.43.84-.65,1.75-.65,2.73v2.24c0,1.31.23,2.43.7,3.35.46.92,1.12,1.62,1.95,2.1s1.81.72,2.93.72c.72,0,1.39-.1,1.98-.31.6-.21,1.11-.52,1.55-.94.43-.42.77-.93,1-1.55l3.62.65c-.29,1.07-.81,2-1.55,2.79-.75.8-1.68,1.42-2.8,1.85-1.12.44-2.4.66-3.83.66Z"/>
              <path class="cls-64" d="m1208.99,474.85v-19.64h3.69v3.12h.21c.36-1.06.99-1.89,1.9-2.5s1.94-.91,3.09-.91c.24,0,.52,0,.85.03.33.02.59.04.77.06v3.66c-.15-.04-.43-.09-.82-.15-.39-.05-.78-.08-1.18-.08-.9,0-1.71.19-2.41.57s-1.26.9-1.67,1.57c-.41.67-.61,1.43-.61,2.28v11.99h-3.82Z"/>
              <path class="cls-64" d="m1224.75,452.18c-.67,0-1.23-.22-1.71-.67-.47-.45-.71-.98-.71-1.6s.24-1.17.71-1.62c.47-.45,1.04-.67,1.71-.67s1.23.22,1.71.67c.47.45.71.99.71,1.62s-.24,1.16-.71,1.6c-.47.45-1.04.67-1.71.67Zm-1.93,22.67v-19.64h3.82v19.64h-3.82Z"/>
              <path class="cls-64" d="m1235.61,463.19v11.66h-3.82v-19.64h3.67v3.2h.24c.45-1.04,1.16-1.88,2.13-2.51.97-.63,2.19-.95,3.66-.95,1.34,0,2.51.28,3.52.84s1.79,1.39,2.34,2.49c.55,1.1.83,2.46.83,4.08v12.49h-3.82v-12.03c0-1.42-.37-2.54-1.11-3.34-.74-.81-1.76-1.21-3.06-1.21-.89,0-1.67.19-2.36.58-.69.38-1.23.94-1.62,1.68-.4.74-.59,1.62-.59,2.67Z"/>
              <path class="cls-64" d="m1261.52,482.62c-1.56,0-2.9-.2-4.02-.61-1.12-.41-2.03-.95-2.74-1.62-.71-.67-1.24-1.41-1.58-2.21l3.29-1.36c.23.38.54.77.93,1.2s.92.78,1.58,1.08c.67.3,1.53.45,2.59.45,1.45,0,2.65-.35,3.59-1.05.95-.7,1.42-1.82,1.42-3.36v-3.86h-.24c-.23.42-.56.88-.99,1.39-.43.51-1.02.96-1.77,1.33s-1.73.56-2.93.56c-1.55,0-2.95-.36-4.19-1.09-1.24-.73-2.22-1.81-2.94-3.23-.72-1.43-1.08-3.19-1.08-5.27s.36-3.88,1.07-5.37c.71-1.49,1.69-2.63,2.93-3.43s2.65-1.2,4.23-1.2c1.22,0,2.2.2,2.95.61.75.41,1.34.88,1.76,1.41s.75,1.01.98,1.42h.28v-3.18h3.75v20.07c0,1.69-.39,3.07-1.18,4.16-.79,1.08-1.84,1.88-3.18,2.4-1.33.52-2.84.78-4.51.78Zm-.04-11.24c1.1,0,2.03-.26,2.79-.77s1.34-1.26,1.74-2.22c.4-.97.59-2.13.59-3.48s-.2-2.48-.59-3.49c-.39-1-.97-1.79-1.73-2.36-.76-.57-1.7-.85-2.81-.85s-2.11.3-2.88.89c-.77.59-1.34,1.4-1.73,2.41-.39,1.01-.58,2.15-.58,3.4s.2,2.42.59,3.39c.39.97.97,1.73,1.74,2.28.77.54,1.72.82,2.86.82Z"/>
              <path class="cls-64" d="m1285.35,474.85v-26.18h3.95v22.78h11.86v3.4h-15.81Z"/>
              <path class="cls-64" d="m1307.29,452.18c-.67,0-1.23-.22-1.71-.67-.47-.45-.71-.98-.71-1.6s.24-1.17.71-1.62c.47-.45,1.04-.67,1.71-.67s1.23.22,1.71.67c.47.45.71.99.71,1.62s-.24,1.16-.71,1.6c-.47.45-1.04.67-1.71.67Zm-1.93,22.67v-19.64h3.82v19.64h-3.82Z"/>
              <path class="cls-64" d="m1322.55,482.62c-1.56,0-2.9-.2-4.02-.61-1.12-.41-2.04-.95-2.74-1.62-.71-.67-1.24-1.41-1.59-2.21l3.29-1.36c.23.38.54.77.93,1.2.39.42.92.78,1.58,1.08.67.3,1.53.45,2.59.45,1.45,0,2.65-.35,3.59-1.05.95-.7,1.42-1.82,1.42-3.36v-3.86h-.24c-.23.42-.56.88-.99,1.39-.43.51-1.02.96-1.77,1.33-.75.38-1.73.56-2.93.56-1.55,0-2.95-.36-4.19-1.09-1.24-.73-2.22-1.81-2.94-3.23-.72-1.43-1.08-3.19-1.08-5.27s.36-3.88,1.07-5.37c.71-1.49,1.69-2.63,2.93-3.43,1.25-.8,2.66-1.2,4.23-1.2,1.22,0,2.2.2,2.95.61.75.41,1.34.88,1.76,1.41s.75,1.01.98,1.42h.28v-3.18h3.75v20.07c0,1.69-.39,3.07-1.18,4.16-.78,1.08-1.84,1.88-3.18,2.4-1.33.52-2.84.78-4.51.78Zm-.04-11.24c1.1,0,2.03-.26,2.79-.77s1.34-1.26,1.74-2.22c.4-.97.59-2.13.59-3.48s-.2-2.48-.59-3.49c-.39-1-.97-1.79-1.73-2.36-.76-.57-1.7-.85-2.81-.85s-2.11.3-2.88.89c-.77.59-1.34,1.4-1.73,2.41-.39,1.01-.58,2.15-.58,3.4s.2,2.42.59,3.39.97,1.73,1.75,2.28c.77.54,1.72.82,2.86.82Z"/>
              <path class="cls-64" d="m1340.36,463.19v11.66h-3.82v-26.18h3.77v9.74h.24c.46-1.06,1.16-1.9,2.11-2.52s2.18-.93,3.71-.93c1.35,0,2.52.28,3.54.83,1.01.55,1.79,1.38,2.35,2.47.56,1.09.84,2.46.84,4.1v12.49h-3.82v-12.03c0-1.44-.37-2.56-1.11-3.36-.74-.8-1.77-1.2-3.09-1.2-.9,0-1.71.19-2.42.58s-1.27.94-1.67,1.68-.61,1.62-.61,2.67Z"/>
              <path class="cls-64" d="m1367.37,455.21v3.07h-10.73v-3.07h10.73Zm-7.85-4.7h3.82v18.58c0,.74.11,1.3.33,1.67.22.37.51.62.86.75s.74.2,1.16.2c.31,0,.58-.02.81-.06.23-.04.41-.08.54-.1l.69,3.16c-.22.08-.54.17-.95.26-.41.09-.92.14-1.54.15-1.01.02-1.94-.16-2.81-.54s-1.57-.95-2.11-1.74-.8-1.77-.8-2.95v-19.37Z"/>
              <path class="cls-64" d="m1375.41,463.19v11.66h-3.82v-19.64h3.67v3.2h.24c.45-1.04,1.16-1.88,2.13-2.51.97-.63,2.19-.95,3.66-.95,1.34,0,2.51.28,3.52.84,1,.56,1.79,1.39,2.34,2.49s.83,2.46.83,4.08v12.49h-3.82v-12.03c0-1.42-.37-2.54-1.11-3.34-.74-.81-1.76-1.21-3.05-1.21-.89,0-1.67.19-2.36.58-.69.38-1.23.94-1.62,1.68s-.59,1.62-.59,2.67Z"/>
              <path class="cls-64" d="m1395.02,452.18c-.67,0-1.23-.22-1.71-.67-.47-.45-.71-.98-.71-1.6s.24-1.17.71-1.62c.47-.45,1.04-.67,1.71-.67s1.23.22,1.71.67c.47.45.71.99.71,1.62s-.24,1.16-.71,1.6c-.47.45-1.04.67-1.71.67Zm-1.93,22.67v-19.64h3.82v19.64h-3.82Z"/>
              <path class="cls-64" d="m1405.88,463.19v11.66h-3.82v-19.64h3.67v3.2h.24c.45-1.04,1.16-1.88,2.13-2.51.97-.63,2.19-.95,3.66-.95,1.34,0,2.51.28,3.52.84s1.79,1.39,2.34,2.49c.55,1.1.83,2.46.83,4.08v12.49h-3.82v-12.03c0-1.42-.37-2.54-1.11-3.34-.74-.81-1.76-1.21-3.06-1.21-.89,0-1.67.19-2.36.58-.69.38-1.23.94-1.62,1.68-.4.74-.59,1.62-.59,2.67Z"/>
              <path class="cls-64" d="m1431.79,482.62c-1.56,0-2.9-.2-4.02-.61-1.12-.41-2.03-.95-2.74-1.62-.71-.67-1.24-1.41-1.58-2.21l3.29-1.36c.23.38.54.77.93,1.2s.92.78,1.58,1.08c.67.3,1.53.45,2.59.45,1.45,0,2.65-.35,3.59-1.05.95-.7,1.42-1.82,1.42-3.36v-3.86h-.24c-.23.42-.56.88-.99,1.39-.43.51-1.02.96-1.77,1.33s-1.73.56-2.93.56c-1.55,0-2.95-.36-4.19-1.09-1.24-.73-2.22-1.81-2.94-3.23-.72-1.43-1.08-3.19-1.08-5.27s.36-3.88,1.07-5.37c.71-1.49,1.69-2.63,2.93-3.43s2.65-1.2,4.23-1.2c1.22,0,2.2.2,2.95.61.75.41,1.34.88,1.76,1.41s.75,1.01.98,1.42h.28v-3.18h3.75v20.07c0,1.69-.39,3.07-1.18,4.16-.79,1.08-1.84,1.88-3.18,2.4-1.33.52-2.84.78-4.51.78Zm-.04-11.24c1.1,0,2.03-.26,2.79-.77s1.34-1.26,1.74-2.22c.4-.97.59-2.13.59-3.48s-.2-2.48-.59-3.49c-.39-1-.97-1.79-1.73-2.36-.76-.57-1.7-.85-2.81-.85s-2.11.3-2.88.89c-.77.59-1.34,1.4-1.73,2.41-.39,1.01-.58,2.15-.58,3.4s.2,2.42.59,3.39c.39.97.97,1.73,1.74,2.28.77.54,1.72.82,2.86.82Z"/>
              <path class="cls-64" d="m1457.35,462.13v3.31h-11.61v-3.31h11.61Z"/>
              <path class="cls-64" d="m1462.75,474.85v-26.18h16.24v3.4h-12.29v7.98h11.12v3.39h-11.12v11.42h-3.95Z"/>
              <path class="cls-64" d="m1489.18,475.28c-1.24,0-2.37-.23-3.38-.7-1.01-.46-1.8-1.14-2.38-2.03-.58-.89-.88-1.97-.88-3.26,0-1.11.21-2.02.64-2.74.43-.72,1-1.28,1.73-1.7s1.53-.73,2.43-.95c.89-.21,1.81-.38,2.74-.49,1.18-.14,2.13-.25,2.86-.34s1.27-.24,1.6-.44c.33-.2.5-.54.5-1v-.09c0-1.12-.31-1.98-.94-2.6s-1.56-.92-2.79-.92-2.3.28-3.04.85c-.74.57-1.25,1.2-1.53,1.89l-3.59-.82c.43-1.19,1.05-2.16,1.87-2.9.82-.74,1.77-1.27,2.84-1.61,1.07-.34,2.2-.5,3.39-.5.78,0,1.62.09,2.5.27.88.18,1.71.52,2.48,1,.77.49,1.4,1.18,1.9,2.08s.74,2.06.74,3.5v13.04h-3.73v-2.68h-.15c-.25.49-.62.98-1.11,1.46-.5.48-1.13.87-1.91,1.19s-1.71.47-2.79.47Zm.83-3.07c1.06,0,1.96-.21,2.72-.63.75-.42,1.33-.97,1.73-1.64.4-.68.59-1.4.59-2.18v-2.53c-.14.14-.4.26-.79.38s-.83.21-1.32.29-.98.15-1.44.22c-.47.06-.86.12-1.18.16-.74.09-1.42.25-2.03.47-.61.22-1.09.54-1.46.95s-.54.96-.54,1.64c0,.95.35,1.66,1.05,2.14.7.48,1.59.72,2.67.72Z"/>
              <path class="cls-64" d="m1518.67,460l-3.46.61c-.15-.44-.37-.87-.68-1.27s-.73-.73-1.26-.98c-.53-.26-1.19-.38-1.98-.38-1.08,0-1.99.24-2.71.72s-1.09,1.1-1.09,1.86c0,.66.24,1.19.73,1.59.49.4,1.27.73,2.35.98l3.12.72c1.81.42,3.15,1.06,4.04,1.93.89.87,1.33,2,1.33,3.39,0,1.18-.34,2.22-1.02,3.14-.68.92-1.62,1.63-2.83,2.15-1.21.52-2.6.78-4.19.78-2.2,0-3.99-.47-5.38-1.41-1.39-.94-2.24-2.28-2.56-4.02l3.69-.56c.23.96.7,1.69,1.42,2.18.71.49,1.65.74,2.8.74,1.25,0,2.25-.26,3-.79s1.12-1.17,1.12-1.92c0-.61-.23-1.13-.68-1.55-.46-.42-1.15-.73-2.09-.95l-3.32-.73c-1.83-.42-3.19-1.08-4.06-1.99-.87-.91-1.31-2.07-1.31-3.46,0-1.16.32-2.17.97-3.04s1.54-1.55,2.68-2.04c1.14-.49,2.45-.73,3.92-.73,2.12,0,3.79.46,5.01,1.37,1.22.92,2.02,2.14,2.42,3.67Z"/>
              <path class="cls-64" d="m1532.41,455.21v3.07h-10.73v-3.07h10.73Zm-7.85-4.7h3.82v18.58c0,.74.11,1.3.33,1.67.22.37.51.62.86.75s.74.2,1.16.2c.31,0,.58-.02.8-.06.23-.04.41-.08.54-.1l.69,3.16c-.22.08-.54.17-.95.26-.41.09-.92.14-1.53.15-1.01.02-1.94-.16-2.81-.54-.87-.38-1.57-.95-2.11-1.74-.54-.78-.8-1.77-.8-2.95v-19.37Z"/>
              <path class="cls-64" d="m1554.95,474.85h-8.48v-26.18h8.75c2.56,0,4.77.52,6.61,1.57,1.84,1.04,3.25,2.54,4.24,4.49.98,1.95,1.48,4.28,1.48,7s-.5,5.07-1.49,7.03c-.99,1.96-2.43,3.47-4.3,4.52-1.88,1.05-4.14,1.58-6.8,1.58Zm-4.53-3.45h4.31c1.99,0,3.65-.38,4.97-1.13,1.32-.75,2.31-1.85,2.97-3.29.66-1.44.98-3.19.98-5.26s-.33-3.8-.98-5.23c-.65-1.43-1.62-2.52-2.91-3.26-1.29-.74-2.88-1.11-4.79-1.11h-4.55v19.28Z"/>
              <path class="cls-64" d="m1574.08,452.18c-.67,0-1.23-.22-1.71-.67-.47-.45-.71-.98-.71-1.6s.24-1.17.71-1.62c.47-.45,1.04-.67,1.71-.67s1.23.22,1.71.67c.47.45.71.99.71,1.62s-.24,1.16-.71,1.6c-.47.45-1.04.67-1.71.67Zm-1.93,22.67v-19.64h3.82v19.64h-3.82Z"/>
              <path class="cls-64" d="m1589.34,482.62c-1.56,0-2.9-.2-4.02-.61-1.12-.41-2.04-.95-2.74-1.62-.71-.67-1.24-1.41-1.59-2.21l3.29-1.36c.23.38.54.77.93,1.2s.92.78,1.58,1.08c.67.3,1.53.45,2.59.45,1.45,0,2.65-.35,3.59-1.05.95-.7,1.42-1.82,1.42-3.36v-3.86h-.24c-.23.42-.56.88-.99,1.39-.43.51-1.02.96-1.77,1.33s-1.73.56-2.93.56c-1.55,0-2.95-.36-4.19-1.09-1.24-.73-2.22-1.81-2.94-3.23-.72-1.43-1.08-3.19-1.08-5.27s.36-3.88,1.07-5.37c.71-1.49,1.69-2.63,2.93-3.43,1.24-.8,2.65-1.2,4.23-1.2,1.22,0,2.2.2,2.95.61.75.41,1.34.88,1.76,1.41s.75,1.01.98,1.42h.28v-3.18h3.75v20.07c0,1.69-.39,3.07-1.18,4.16-.78,1.08-1.84,1.88-3.18,2.4-1.33.52-2.84.78-4.51.78Zm-.04-11.24c1.1,0,2.03-.26,2.79-.77s1.34-1.26,1.74-2.22c.4-.97.59-2.13.59-3.48s-.2-2.48-.59-3.49c-.39-1-.97-1.79-1.73-2.36-.76-.57-1.7-.85-2.81-.85s-2.11.3-2.88.89c-.77.59-1.34,1.4-1.73,2.41-.39,1.01-.58,2.15-.58,3.4s.2,2.42.59,3.39c.39.97.97,1.73,1.75,2.28.77.54,1.72.82,2.86.82Z"/>
              <path class="cls-64" d="m1605.26,452.18c-.67,0-1.23-.22-1.71-.67-.47-.45-.71-.98-.71-1.6s.24-1.17.71-1.62c.47-.45,1.04-.67,1.71-.67s1.23.22,1.71.67c.47.45.71.99.71,1.62s-.24,1.16-.71,1.6c-.47.45-1.04.67-1.71.67Zm-1.93,22.67v-19.64h3.82v19.64h-3.82Z"/>
              <path class="cls-64" d="m1621.46,455.21v3.07h-10.73v-3.07h10.73Zm-7.85-4.7h3.82v18.58c0,.74.11,1.3.33,1.67.22.37.51.62.86.75s.74.2,1.16.2c.31,0,.58-.02.8-.06.23-.04.41-.08.54-.1l.69,3.16c-.22.08-.54.17-.95.26-.41.09-.92.14-1.53.15-1.01.02-1.94-.16-2.81-.54-.87-.38-1.57-.95-2.11-1.74-.54-.78-.8-1.77-.8-2.95v-19.37Z"/>
              <path class="cls-64" d="m1631.39,475.28c-1.24,0-2.37-.23-3.38-.7-1.01-.46-1.8-1.14-2.38-2.03-.58-.89-.88-1.97-.88-3.26,0-1.11.21-2.02.64-2.74.43-.72,1-1.28,1.73-1.7.72-.42,1.53-.73,2.43-.95.89-.21,1.81-.38,2.74-.49,1.18-.14,2.13-.25,2.86-.34.73-.09,1.27-.24,1.6-.44.33-.2.5-.54.5-1v-.09c0-1.12-.31-1.98-.94-2.6-.63-.61-1.56-.92-2.79-.92s-2.3.28-3.04.85c-.74.57-1.25,1.2-1.53,1.89l-3.59-.82c.43-1.19,1.05-2.16,1.87-2.9s1.77-1.27,2.84-1.61c1.07-.34,2.2-.5,3.39-.5.78,0,1.62.09,2.5.27s1.71.52,2.48,1c.77.49,1.4,1.18,1.9,2.08.49.9.74,2.06.74,3.5v13.04h-3.73v-2.68h-.15c-.25.49-.62.98-1.11,1.46-.49.48-1.13.87-1.9,1.19-.78.32-1.71.47-2.79.47Zm.83-3.07c1.06,0,1.96-.21,2.72-.63.75-.42,1.33-.97,1.73-1.64.4-.68.59-1.4.59-2.18v-2.53c-.14.14-.4.26-.79.38-.39.12-.83.21-1.32.29-.5.08-.98.15-1.45.22-.47.06-.86.12-1.18.16-.74.09-1.42.25-2.03.47-.61.22-1.09.54-1.46.95s-.54.96-.54,1.64c0,.95.35,1.66,1.05,2.14.7.48,1.59.72,2.67.72Z"/>
              <path class="cls-64" d="m1649.99,448.67v26.18h-3.82v-26.18h3.82Z"/>
              <path class="cls-64" d="m1673.45,474.85h-8.48v-26.18h8.75c2.56,0,4.77.52,6.61,1.57,1.84,1.04,3.25,2.54,4.24,4.49.98,1.95,1.48,4.28,1.48,7s-.5,5.07-1.49,7.03c-.99,1.96-2.43,3.47-4.3,4.52-1.88,1.05-4.14,1.58-6.8,1.58Zm-4.53-3.45h4.31c1.99,0,3.65-.38,4.97-1.13,1.32-.75,2.31-1.85,2.97-3.29.66-1.44.98-3.19.98-5.26s-.33-3.8-.98-5.23c-.65-1.43-1.62-2.52-2.91-3.26-1.29-.74-2.88-1.11-4.79-1.11h-4.55v19.28Z"/>
              <path class="cls-64" d="m1699.11,475.24c-1.93,0-3.6-.42-4.99-1.25-1.39-.83-2.47-2-3.22-3.52-.75-1.51-1.13-3.29-1.13-5.32s.38-3.78,1.13-5.32c.75-1.53,1.81-2.73,3.17-3.59,1.36-.86,2.95-1.29,4.78-1.29,1.11,0,2.18.18,3.22.55,1.04.37,1.97.94,2.8,1.73.83.78,1.48,1.8,1.96,3.05s.72,2.76.72,4.54v1.35h-15.61v-2.86h11.86c0-1.01-.21-1.9-.61-2.68-.41-.78-.98-1.4-1.72-1.85-.74-.45-1.6-.68-2.59-.68-1.07,0-2.01.26-2.81.79s-1.41,1.21-1.84,2.05c-.43.84-.65,1.75-.65,2.73v2.24c0,1.31.23,2.43.7,3.35.46.92,1.11,1.62,1.95,2.1s1.81.72,2.93.72c.72,0,1.38-.1,1.98-.31s1.11-.52,1.55-.94c.43-.42.77-.93,1-1.55l3.62.65c-.29,1.07-.81,2-1.55,2.79-.75.8-1.68,1.42-2.8,1.85-1.12.44-2.4.66-3.83.66Z"/>
              <path class="cls-64" d="m1726.5,460l-3.46.61c-.14-.44-.37-.87-.68-1.27-.31-.4-.73-.73-1.26-.98s-1.19-.38-1.98-.38c-1.08,0-1.99.24-2.71.72s-1.09,1.1-1.09,1.86c0,.66.24,1.19.73,1.59.49.4,1.27.73,2.35.98l3.12.72c1.81.42,3.15,1.06,4.04,1.93.89.87,1.33,2,1.33,3.39,0,1.18-.34,2.22-1.02,3.14-.68.92-1.62,1.63-2.83,2.15-1.21.52-2.6.78-4.19.78-2.2,0-3.99-.47-5.38-1.41-1.39-.94-2.24-2.28-2.56-4.02l3.69-.56c.23.96.7,1.69,1.42,2.18.72.49,1.65.74,2.8.74,1.25,0,2.25-.26,3-.79s1.12-1.17,1.12-1.92c0-.61-.23-1.13-.68-1.55-.46-.42-1.15-.73-2.09-.95l-3.32-.73c-1.83-.42-3.19-1.08-4.06-1.99-.87-.91-1.31-2.07-1.31-3.46,0-1.16.32-2.17.97-3.04s1.54-1.55,2.68-2.04c1.14-.49,2.45-.73,3.92-.73,2.12,0,3.79.46,5.01,1.37s2.02,2.14,2.42,3.67Z"/>
              <path class="cls-64" d="m1740.25,455.21v3.07h-10.73v-3.07h10.73Zm-7.85-4.7h3.82v18.58c0,.74.11,1.3.33,1.67.22.37.51.62.86.75s.74.2,1.16.2c.31,0,.58-.02.8-.06.23-.04.41-.08.54-.1l.69,3.16c-.22.08-.54.17-.95.26-.41.09-.92.14-1.53.15-1.01.02-1.94-.16-2.81-.54-.87-.38-1.57-.95-2.11-1.74-.54-.78-.8-1.77-.8-2.95v-19.37Z"/>
              <path class="cls-64" d="m1746.39,452.18c-.67,0-1.23-.22-1.71-.67-.47-.45-.71-.98-.71-1.6s.24-1.17.71-1.62c.47-.45,1.04-.67,1.71-.67s1.23.22,1.71.67c.47.45.71.99.71,1.62s-.24,1.16-.71,1.6c-.47.45-1.04.67-1.71.67Zm-1.93,22.67v-19.64h3.82v19.64h-3.82Z"/>
              <path class="cls-64" d="m1757.25,463.19v11.66h-3.82v-19.64h3.67v3.2h.24c.45-1.04,1.16-1.88,2.13-2.51.97-.63,2.19-.95,3.66-.95,1.34,0,2.51.28,3.52.84s1.79,1.39,2.34,2.49.83,2.46.83,4.08v12.49h-3.82v-12.03c0-1.42-.37-2.54-1.11-3.34-.74-.81-1.76-1.21-3.06-1.21-.89,0-1.67.19-2.36.58-.69.38-1.23.94-1.62,1.68s-.59,1.62-.59,2.67Z"/>
              <path class="cls-64" d="m1780.64,475.28c-1.24,0-2.37-.23-3.38-.7-1.01-.46-1.8-1.14-2.38-2.03-.58-.89-.88-1.97-.88-3.26,0-1.11.21-2.02.64-2.74.43-.72,1-1.28,1.73-1.7.72-.42,1.53-.73,2.43-.95.89-.21,1.81-.38,2.74-.49,1.18-.14,2.13-.25,2.86-.34.73-.09,1.27-.24,1.6-.44.33-.2.5-.54.5-1v-.09c0-1.12-.31-1.98-.94-2.6-.63-.61-1.56-.92-2.79-.92s-2.3.28-3.04.85c-.74.57-1.25,1.2-1.53,1.89l-3.59-.82c.43-1.19,1.05-2.16,1.87-2.9s1.77-1.27,2.84-1.61c1.07-.34,2.2-.5,3.39-.5.78,0,1.62.09,2.5.27s1.71.52,2.48,1c.77.49,1.4,1.18,1.9,2.08.49.9.74,2.06.74,3.5v13.04h-3.73v-2.68h-.15c-.25.49-.62.98-1.11,1.46-.49.48-1.13.87-1.9,1.19-.78.32-1.71.47-2.79.47Zm.83-3.07c1.06,0,1.96-.21,2.72-.63.75-.42,1.33-.97,1.73-1.64.4-.68.59-1.4.59-2.18v-2.53c-.14.14-.4.26-.79.38-.39.12-.83.21-1.32.29-.5.08-.98.15-1.45.22-.47.06-.86.12-1.18.16-.74.09-1.42.25-2.03.47-.61.22-1.09.54-1.46.95s-.54.96-.54,1.64c0,.95.35,1.66,1.05,2.14.7.48,1.59.72,2.67.72Z"/>
              <path class="cls-64" d="m1804.59,455.21v3.07h-10.73v-3.07h10.73Zm-7.85-4.7h3.82v18.58c0,.74.11,1.3.33,1.67.22.37.51.62.86.75s.74.2,1.16.2c.31,0,.58-.02.8-.06.23-.04.41-.08.54-.1l.69,3.16c-.22.08-.54.17-.95.26-.41.09-.92.14-1.53.15-1.01.02-1.94-.16-2.81-.54-.87-.38-1.57-.95-2.11-1.74-.54-.78-.8-1.77-.8-2.95v-19.37Z"/>
              <path class="cls-64" d="m1810.74,452.18c-.67,0-1.23-.22-1.71-.67-.47-.45-.71-.98-.71-1.6s.24-1.17.71-1.62c.47-.45,1.04-.67,1.71-.67s1.23.22,1.71.67c.47.45.71.99.71,1.62s-.24,1.16-.71,1.6c-.47.45-1.04.67-1.71.67Zm-1.93,22.67v-19.64h3.82v19.64h-3.82Z"/>
              <path class="cls-64" d="m1826.04,475.24c-1.84,0-3.45-.42-4.82-1.27s-2.44-2.02-3.2-3.54c-.76-1.52-1.14-3.29-1.14-5.32s.38-3.82,1.14-5.34,1.82-2.71,3.2-3.55,2.98-1.27,4.82-1.27,3.45.42,4.82,1.27,2.44,2.03,3.2,3.55,1.14,3.31,1.14,5.34-.38,3.8-1.14,5.32c-.76,1.52-1.82,2.7-3.2,3.54s-2.98,1.27-4.82,1.27Zm.01-3.21c1.19,0,2.18-.32,2.97-.95.78-.63,1.37-1.47,1.75-2.52.38-1.05.57-2.2.57-3.46s-.19-2.41-.57-3.46-.96-1.9-1.75-2.54c-.78-.64-1.77-.96-2.97-.96s-2.2.32-2.99.96c-.79.64-1.37,1.49-1.75,2.54s-.57,2.21-.57,3.46.19,2.42.57,3.46c.38,1.05.96,1.89,1.75,2.52.79.63,1.78.95,2.99.95Z"/>
              <path class="cls-64" d="m1843.27,463.19v11.66h-3.82v-19.64h3.67v3.2h.24c.45-1.04,1.16-1.88,2.13-2.51.97-.63,2.19-.95,3.66-.95,1.34,0,2.51.28,3.52.84s1.79,1.39,2.34,2.49.83,2.46.83,4.08v12.49h-3.82v-12.03c0-1.42-.37-2.54-1.11-3.34-.74-.81-1.76-1.21-3.06-1.21-.89,0-1.67.19-2.36.58-.69.38-1.23.94-1.62,1.68s-.59,1.62-.59,2.67Z"/>
              <path class="cls-64" d="m1875.67,460l-3.46.61c-.14-.44-.37-.87-.68-1.27-.31-.4-.73-.73-1.26-.98s-1.19-.38-1.98-.38c-1.08,0-1.99.24-2.71.72s-1.09,1.1-1.09,1.86c0,.66.24,1.19.73,1.59.49.4,1.27.73,2.35.98l3.12.72c1.81.42,3.15,1.06,4.04,1.93.89.87,1.33,2,1.33,3.39,0,1.18-.34,2.22-1.02,3.14-.68.92-1.62,1.63-2.83,2.15-1.21.52-2.6.78-4.19.78-2.2,0-3.99-.47-5.38-1.41-1.39-.94-2.24-2.28-2.56-4.02l3.69-.56c.23.96.7,1.69,1.42,2.18.72.49,1.65.74,2.8.74,1.25,0,2.25-.26,3-.79s1.12-1.17,1.12-1.92c0-.61-.23-1.13-.68-1.55-.46-.42-1.15-.73-2.09-.95l-3.32-.73c-1.83-.42-3.19-1.08-4.06-1.99-.87-.91-1.31-2.07-1.31-3.46,0-1.16.32-2.17.97-3.04s1.54-1.55,2.68-2.04c1.14-.49,2.45-.73,3.92-.73,2.12,0,3.79.46,5.01,1.37s2.02,2.14,2.42,3.67Z"/>
            </g>
            <g>
              <rect class="cls-65" x="1445" y="305.75" width="100" height="100"/>
              <g>
                <path class="cls-55" d="m1518.93,331.87v37.2h-47.85v-37.2h47.85m5.24-5.24h-58.33v47.68h58.33v-47.68h0Z"/>
                <g>
                  <g>
                    <rect class="cls-55" x="1504.24" y="337.56" width="5.24" height="17.29" transform="translate(196.54 1166.91) rotate(-45)"/>
                    <rect class="cls-55" x="1498.21" y="352.11" width="17.29" height="5.24" transform="translate(190.52 1169.41) rotate(-45)"/>
                  </g>
                  <g>
                    <rect class="cls-55" x="1480.52" y="346.08" width="5.24" height="17.29" transform="translate(183.57 1152.64) rotate(-45)"/>
                    <rect class="cls-55" x="1474.5" y="343.59" width="17.29" height="5.24" transform="translate(189.6 1150.14) rotate(-45)"/>
                  </g>
                </g>
                <rect class="cls-55" x="1487.05" y="374.4" width="15.89" height="5.24"/>
                <polygon class="cls-55" points="1514.91 379.64 1475.09 379.64 1470.09 384.88 1519.91 384.88 1514.91 379.64"/>
              </g>
            </g>
          </g>
          <g>
            <g>
              <path class="cls-27" d="m685.7,689.21c0,5.64-110.12,10.15-245.95,10.06-135.83-.09-245.94-4.73-245.94-10.38,0-5.64,110.12-10.15,245.95-10.06,135.83.09,245.94,4.73,245.94,10.38Z"/>
              <path class="cls-25" d="m908.15,701.68c0,5.64-110.12,10.15-245.95,10.06-135.83-.09-245.94-4.73-245.94-10.38,0-5.64,110.12-10.14,245.95-10.06,135.83.09,245.94,4.73,245.94,10.38Z"/>
              <path class="cls-26" d="m1080.6,709.46c0,5.64-69.18,10.17-154.5,10.12-85.32-.06-154.49-4.68-154.49-10.32,0-5.64,69.18-10.17,154.5-10.12,85.32.06,154.49,4.67,154.49,10.32Z"/>
            </g>
            <g>
              <g>
                <path class="cls-101" d="m443.02,557.82v127.76h106.41v-127.76h-106.41Zm78.1,57.82c0,11.78-9.55,21.34-21.34,21.34h-7.11c-11.79,0-21.34-9.56-21.34-21.34v-23.11c0-11.78,9.55-21.34,21.34-21.34h7.11c11.79,0,21.34,9.56,21.34,21.34v23.11Z"/>
                <polygon class="cls-99" points="635.03 691.06 357.42 691.06 368.82 680.1 623.63 680.1 635.03 691.06"/>
                <g>
                  <path class="cls-100" d="m810.45,230.01c0-10.42-8.45-18.87-18.87-18.87H200.87c-10.42,0-18.87,8.45-18.87,18.87v324.91h628.45V230.01Z"/>
                  <path class="cls-104" d="m182,554.93v30.53c0,10.42,8.45,18.87,18.87,18.87h590.71c10.42,0,18.87-8.45,18.87-18.87v-30.53H182Z"/>
                </g>
                <path class="cls-57" d="m200.15,554.93V229.16c0-.4.33-.73.72-.73h590.71c.4,0,.73.33.73.73v325.77H200.15Z"/>
                <path class="cls-63" d="m791.58,228.43h-259.35l-92.48,326.5h352.56V229.16c0-.4-.32-.73-.73-.73Z"/>
              </g>
              <g>
                <g>
                  <text class="cls-75" transform="translate(364.61 256.64)"><tspan class="cls-39" x="0" y="0" xml:space="preserve">Home       </tspan><tspan class="cls-36" x="37.27" y="0">F</tspan><tspan class="cls-40" x="41.5" y="0">e</tspan><tspan class="cls-44" x="46.15" y="0">a</tspan><tspan class="cls-40" x="50.58" y="0">tu</tspan><tspan class="cls-38" x="58.76" y="0">r</tspan><tspan class="cls-39" x="61.7" y="0" xml:space="preserve">es       </tspan><tspan class="cls-34" x="83.77" y="0">P</tspan><tspan class="cls-40" x="88.47" y="0">o</tspan><tspan class="cls-37" x="93.56" y="0">r</tspan><tspan class="cls-35" x="96.82" y="0">t</tspan><tspan class="cls-40" x="99.83" y="0">o</tspan><tspan class="cls-41" x="104.92" y="0">f</tspan><tspan class="cls-39" x="107.51" y="0">olio</tspan><tspan class="cls-129" x="122.05" y="0" xml:space="preserve">       </tspan><tspan class="cls-32" x="140.39" y="0">A</tspan><tspan class="cls-39" x="146.04" y="0">bout </tspan><tspan class="cls-35" x="166.55" y="0">U</tspan><tspan class="cls-39" x="172.49" y="0" xml:space="preserve">s       </tspan><tspan class="cls-33" x="189.92" y="0">C</tspan><tspan class="cls-39" x="195.2" y="0">o</tspan><tspan class="cls-42" x="200.29" y="0">n</tspan><tspan class="cls-39" x="205.4" y="0">ta</tspan><tspan class="cls-43" x="212.94" y="0">c</tspan><tspan class="cls-39" x="217.21" y="0">t </tspan><tspan class="cls-35" x="222.25" y="0">U</tspan><tspan class="cls-40" x="228.19" y="0">s</tspan></text>
                  <g>
                    <line class="cls-3" x1="217.95" y1="248.11" x2="235.96" y2="248.11"/>
                    <line class="cls-3" x1="217.95" y1="253.08" x2="235.96" y2="253.08"/>
                    <line class="cls-3" x1="217.95" y1="258.05" x2="235.96" y2="258.05"/>
                  </g>
                  <g>
                    <g>
                      <path class="cls-7" d="m773.29,252.75c0,1.46-1.18,2.64-2.64,2.64s-2.64-1.18-2.64-2.64,1.18-2.64,2.64-2.64,2.64,1.18,2.64,2.64Z"/>
                      <line class="cls-7" x1="772.58" y1="254.67" x2="774.5" y2="256.59"/>
                    </g>
                    <line class="cls-7" x1="768.02" y1="261.02" x2="682.27" y2="261.02"/>
                  </g>
                </g>
                <g>
                  <path class="cls-66" d="m589.5,509.06c4.55,0,8.23-3.68,8.23-8.23s-3.68-8.24-8.23-8.24h-60.63c-4.55,0-8.24,3.69-8.24,8.24s3.69,8.23,8.24,8.23h60.63Z"/>
                  <path class="cls-57" d="m586.05,500.83c0,2.11,1.72,3.83,3.84,3.83s3.83-1.72,3.83-3.83-1.72-3.84-3.83-3.84-3.84,1.72-3.84,3.84Zm5.5,0l-2.06,2.06-.58-.58,1.48-1.48-1.48-1.48.58-.58,2.06,2.06Z"/>
                  <text class="cls-58" transform="translate(528.19 502.77)"><tspan x="0" y="0">b</tspan><tspan class="cls-119" x="3.39" y="0">r</tspan><tspan class="cls-78" x="5.28" y="0">o</tspan><tspan class="cls-20" x="8.51" y="0">w</tspan><tspan x="12.86" y="0">se </tspan><tspan class="cls-106" x="19.47" y="0">b</tspan><tspan x="22.82" y="0">y c</tspan><tspan class="cls-96" x="29.56" y="0">a</tspan><tspan class="cls-85" x="32.41" y="0">t</tspan><tspan x="34.34" y="0">ego</tspan><tspan class="cls-46" x="43.93" y="0">r</tspan><tspan x="46.03" y="0">y</tspan></text>
                </g>
                <g>
                  <text class="cls-68" transform="translate(520.64 364.35)"><tspan class="cls-49" x="0" y="0">R</tspan><tspan x="13.67" y="0">esponsi</tspan><tspan class="cls-117" x="94.39" y="0">v</tspan><tspan x="106.27" y="0">e</tspan><tspan class="cls-123" x="0" y="29.81">W</tspan><tspan x="20.51" y="29.81">ebsi</tspan><tspan class="cls-81" x="63.39" y="29.81">t</tspan><tspan x="71.59" y="29.81">e </tspan><tspan class="cls-49" x="89.57" y="29.81">D</tspan><tspan x="106.47" y="29.81">esi</tspan><tspan class="cls-52" x="135" y="29.81">g</tspan><tspan x="148.95" y="29.81">n</tspan></text>
                  <text class="cls-74" transform="translate(520.64 412.98)"><tspan class="cls-93" x="0" y="0">L</tspan><tspan x="2.73" y="0">o</tspan><tspan class="cls-119" x="6" y="0">r</tspan><tspan x="7.89" y="0">em ipsum dolor sit ame</tspan><tspan class="cls-86" x="66.11" y="0">t</tspan><tspan x="68.06" y="0">, </tspan><tspan class="cls-20" x="70.56" y="0">c</tspan><tspan x="73.2" y="0">onse</tspan><tspan class="cls-133" x="85.12" y="0">c</tspan><tspan class="cls-85" x="87.87" y="0">t</tspan><tspan x="89.8" y="0">etuer adipiscing eli</tspan><tspan class="cls-31" x="136.77" y="0">t</tspan><tspan x="138.72" y="0">, sed diam nonum</tspan><tspan class="cls-137" x="183.19" y="0">m</tspan><tspan x="188.08" y="0">y nibh euismod </tspan><tspan x="0" y="9.93">tincidu</tspan><tspan class="cls-96" x="17.38" y="9.93">n</tspan><tspan x="20.67" y="9.93">t ut lao</tspan><tspan class="cls-119" x="37.97" y="9.93">r</tspan><tspan x="39.86" y="9.93">eet dolo</tspan><tspan class="cls-119" x="60.38" y="9.93">r</tspan><tspan x="62.27" y="9.93">e ma</tspan><tspan class="cls-85" x="74.36" y="9.93">g</tspan><tspan x="77.65" y="9.93">na aliquam e</tspan><tspan class="cls-115" x="109.5" y="9.93">ra</tspan><tspan x="114.27" y="9.93">t </tspan><tspan class="cls-119" x="117.5" y="9.93">v</tspan><tspan x="120.31" y="9.93">olutp</tspan><tspan class="cls-96" x="133.63" y="9.93">a</tspan><tspan class="cls-31" x="136.48" y="9.93">t</tspan><tspan x="138.44" y="9.93">. </tspan><tspan class="cls-71" x="140.93" y="9.93">U</tspan><tspan x="144.81" y="9.93">t wisi enim ad minim </tspan><tspan class="cls-119" x="197.56" y="9.93">v</tspan><tspan x="200.37" y="9.93">eniam, quis </tspan><tspan x="0" y="19.86">nostrud </tspan><tspan class="cls-31" x="20.77" y="19.86">e</tspan><tspan class="cls-113" x="23.74" y="19.86">x</tspan><tspan x="26.4" y="19.86">e</tspan><tspan class="cls-119" x="29.39" y="19.86">r</tspan><tspan x="31.28" y="19.86">ci t</tspan><tspan class="cls-96" x="38.58" y="19.86">a</tspan><tspan x="41.43" y="19.86">tion ullam</tspan><tspan class="cls-85" x="66.58" y="19.86">c</tspan><tspan x="69.21" y="19.86">o</tspan><tspan class="cls-139" x="72.48" y="19.86">r</tspan><tspan x="74.45" y="19.86">per suscipit lobo</tspan><tspan class="cls-89" x="115.47" y="19.86">r</tspan><tspan x="117.56" y="19.86">tis nisl ut </tspan></text>
                </g>
                <g>
                  <rect class="cls-4" x="520.63" y="457.13" width="152.27" height="13.6"/>
                  <text class="cls-58" transform="translate(527.7 466.09)"><tspan x="0" y="0">wh</tspan><tspan class="cls-96" x="7.69" y="0">a</tspan><tspan x="10.54" y="0">t do </tspan><tspan class="cls-119" x="21.67" y="0">y</tspan><tspan x="24.42" y="0">ou need?</tspan></text>
                  <path class="cls-57" d="m660.74,463.93c0,2.24,1.82,4.05,4.06,4.05s4.06-1.81,4.06-4.05-1.82-4.06-4.06-4.06-4.06,1.81-4.06,4.06Zm5.82,0l-2.18,2.18-.62-.62,1.57-1.56-1.57-1.57.62-.62,2.18,2.18Z"/>
                </g>
                <g>
                  <path class="cls-54" d="m407.77,426.06c-1.95,0-3.81.39-5.52,1.07.07-.67.11-1.35.11-2.04,0-10.72-8.69-19.41-19.41-19.41s-19.41,8.69-19.41,19.41c0,.34.03.68.05,1.02-.3-.02-.6-.05-.91-.05-8.2,0-14.85,6.65-14.85,14.85s6.65,14.85,14.85,14.85h45.09c8.2,0,14.85-6.65,14.85-14.85s-6.65-14.85-14.85-14.85Z"/>
                  <g>
                    <g>
                      <polygon class="cls-63" points="286.55 418.71 256.81 424.7 242.65 474.57 247.73 477.62 271.54 452.45 286.55 418.71"/>
                      <polygon class="cls-56" points="271.54 452.45 286.55 418.71 259.93 464.73 271.54 452.45"/>
                      <polygon class="cls-63" points="326.92 459.08 320.93 488.82 271.06 502.97 268.01 497.89 293.18 474.08 326.92 459.08"/>
                      <polygon class="cls-56" points="293.18 474.08 326.92 459.08 280.9 485.69 293.18 474.08"/>
                    </g>
                    <g>
                      <path class="cls-63" d="m271.52,452.43l10.84,10.84,10.84,10.84s8.37-2.36,21.71-8.77l-34.62-34.62c-6.42,13.35-8.77,21.71-8.77,21.71Z"/>
                      <path class="cls-53" d="m357.87,338.86c-13.37,8.01-27.62,20.08-42.32,37.69-17.48,20.94-28.58,40.25-35.26,54.16l34.62,34.62c13.91-6.69,33.22-17.78,54.16-35.26,17.61-14.7,29.68-28.95,37.69-42.32-8.7-6.69-17.46-14.36-26-22.9-8.54-8.54-16.2-17.3-22.9-25.99Z"/>
                      <path class="cls-63" d="m418.71,326.92c-15.72-3.67-36.85-2.42-60.84,11.95,6.69,8.7,14.36,17.45,22.9,25.99,8.54,8.54,17.3,16.2,26,22.9,14.37-23.98,15.61-45.12,11.95-60.84Z"/>
                    </g>
                    <path class="cls-66" d="m373.54,405.28c-9.17,9.17-24.03,9.17-33.2,0-9.17-9.16-9.17-24.03,0-33.2,9.17-9.17,24.03-9.17,33.2,0,9.17,9.17,9.17,24.03,0,33.2Z"/>
                    <path class="cls-63" d="m370.32,402.06c-7.39,7.39-19.37,7.39-26.76,0-7.39-7.39-7.39-19.37,0-26.76,7.39-7.39,19.37-7.39,26.76,0,7.39,7.39,7.39,19.37,0,26.76Z"/>
                  </g>
                  <path class="cls-56" d="m316.89,359.81c-1.95,0-3.81.39-5.52,1.07.07-.68.11-1.35.11-2.04,0-10.72-8.69-19.41-19.41-19.41s-19.41,8.69-19.41,19.41c0,.34.03.68.05,1.02-.3-.02-.6-.05-.91-.05-8.2,0-14.85,6.65-14.85,14.85s6.65,14.85,14.85,14.85h45.09c8.2,0,14.85-6.65,14.85-14.85s-6.65-14.85-14.85-14.85Z"/>
                  <path class="cls-63" d="m329.26,308.58l1.09,2.82-1.72,2.48c-.95,1.36-.37,2.4,1.29,2.31h0l3.01-.16,1.82,2.4h0c1,1.32,2.17,1.09,2.6-.51l.77-2.92,2.85-.99c1.56-.54,1.71-1.73.31-2.63l-2.54-1.64-.06-3.02c-.04-1.66-1.11-2.15-2.4-1.11l-2.34,1.91-2.89-.87c-1.59-.48-2.4.39-1.8,1.94Z"/>
                  <path class="cls-66" d="m429.48,390.96l3.69-1.28,1.29-3.69c.39-1.12,1.03-1.12,1.42,0l1.29,3.69,3.69,1.28c1.12.39,1.12,1.03,0,1.42l-3.69,1.28-1.29,3.69c-.39,1.12-1.03,1.12-1.42,0l-1.29-3.69-3.69-1.28c-1.12-.39-1.12-1.03,0-1.42Z"/>
                  <path class="cls-66" d="m229.62,400.11l4.98-1.73,1.74-4.98c.53-1.51,1.39-1.51,1.92,0l1.74,4.98,4.98,1.73c1.51.53,1.51,1.4,0,1.92l-4.98,1.74-1.74,4.98c-.52,1.51-1.39,1.51-1.92,0l-1.74-4.98-4.98-1.74c-1.51-.52-1.51-1.39,0-1.92Z"/>
                  <g>
                    <path class="cls-63" d="m361.13,488.26l2.07-8.73c.43-1.84-.7-3.68-2.54-4.11-1.84-.43-3.67.7-4.11,2.54-.13.53-.12,1.08,0,1.57l2.06,8.73c.16.7.86,1.13,1.56.96.49-.12.85-.5.96-.96Z"/>
                    <path class="cls-63" d="m364.02,491.39l8.59-2.58c1.81-.54,2.83-2.45,2.29-4.25-.54-1.81-2.45-2.83-4.25-2.29-.52.16-.99.44-1.36.79l-6.52,6.15c-.52.49-.55,1.31-.05,1.83.35.37.86.49,1.32.35Z"/>
                    <path class="cls-63" d="m362.76,495.45l6.53,6.15c1.37,1.29,3.54,1.23,4.83-.14,1.29-1.37,1.23-3.54-.14-4.83-.4-.38-.87-.64-1.36-.79l-8.59-2.57c-.68-.2-1.41.18-1.61.87-.14.49,0,.99.35,1.31Z"/>
                    <path class="cls-63" d="m358.61,496.4l-2.06,8.73c-.43,1.84.7,3.68,2.54,4.11,1.83.43,3.68-.7,4.11-2.54.12-.53.11-1.08,0-1.57l-2.07-8.73c-.16-.7-.86-1.13-1.56-.96-.49.12-.85.5-.96.96Z"/>
                    <path class="cls-63" d="m355.71,493.27l-8.58,2.58c-1.81.54-2.83,2.44-2.29,4.25.54,1.81,2.45,2.83,4.25,2.29.52-.16.99-.44,1.36-.79l6.52-6.15c.52-.49.55-1.31.05-1.83-.35-.37-.86-.49-1.32-.35Z"/>
                    <path class="cls-63" d="m356.97,489.2l-6.52-6.15c-1.37-1.29-3.54-1.23-4.83.14-1.29,1.37-1.23,3.54.14,4.83.4.38.87.64,1.36.79l8.59,2.58c.68.2,1.41-.19,1.61-.87.14-.48,0-.99-.35-1.32Z"/>
                  </g>
                </g>
              </g>
            </g>
            <g>
              <g>
                <path class="cls-102" d="m585.26,703.63c-10.49,0-19.08-8.59-19.08-19.08v-233.28c0-10.49,8.59-19.08,19.08-19.08h343.76c10.49,0,19.08,8.59,19.08,19.08v233.28c0,10.49-8.59,19.08-19.08,19.08h-343.76Z"/>
                <path class="cls-57" d="m585.25,446.63h343.76c2.56,0,4.63,2.08,4.63,4.63v233.28c0,2.56-2.08,4.64-4.64,4.64h-343.76c-2.56,0-4.64-2.08-4.64-4.64v-233.28c0-2.56,2.08-4.63,4.63-4.63Z"/>
              </g>
              <g>
                <path class="cls-54" d="m710.57,588.58c-1.17,0-2.28.23-3.3.64.04-.4.07-.81.07-1.22,0-6.41-5.2-11.61-11.61-11.61s-11.61,5.2-11.61,11.61c0,.2.02.41.03.61-.18-.01-.36-.03-.54-.03-4.91,0-8.88,3.97-8.88,8.88s3.98,8.88,8.88,8.88h26.97c4.91,0,8.88-3.98,8.88-8.88s-3.97-8.88-8.88-8.88Z"/>
                <g>
                  <g>
                    <polygon class="cls-63" points="638.06 584.19 620.27 587.77 611.81 617.6 614.84 619.43 629.09 604.37 638.06 584.19"/>
                    <polygon class="cls-56" points="629.09 604.37 638.06 584.19 622.14 611.71 629.09 604.37"/>
                    <polygon class="cls-63" points="662.21 608.34 658.63 626.12 628.8 634.59 626.97 631.55 642.03 617.31 662.21 608.34"/>
                    <polygon class="cls-56" points="642.03 617.31 662.21 608.34 634.68 624.26 642.03 617.31"/>
                  </g>
                  <g>
                    <path class="cls-63" d="m629.07,604.36l6.49,6.48,6.48,6.49s5-1.41,12.99-5.25l-20.71-20.71c-3.84,7.98-5.25,12.99-5.25,12.99Z"/>
                    <path class="cls-53" d="m680.72,536.43c-8,4.79-16.52,12.01-25.31,22.54-10.45,12.53-17.09,24.08-21.09,32.4l20.71,20.71c8.32-4,19.87-10.64,32.4-21.09,10.53-8.79,17.75-17.32,22.54-25.31-5.2-4-10.44-8.59-15.55-13.7-5.11-5.11-9.69-10.35-13.7-15.55Z"/>
                    <path class="cls-63" d="m717.11,529.28c-9.4-2.19-22.04-1.45-36.39,7.15,4,5.2,8.59,10.44,13.7,15.55,5.11,5.11,10.35,9.69,15.55,13.7,8.59-14.35,9.34-26.99,7.14-36.39Z"/>
                  </g>
                  <path class="cls-66" d="m690.1,576.15c-5.48,5.49-14.37,5.49-19.86,0-5.48-5.48-5.48-14.37,0-19.85,5.49-5.48,14.37-5.48,19.86,0,5.48,5.48,5.48,14.37,0,19.85Z"/>
                  <path class="cls-63" d="m688.17,574.23c-4.42,4.42-11.59,4.42-16,0-4.42-4.42-4.42-11.59,0-16.01,4.42-4.42,11.59-4.42,16,0,4.42,4.42,4.42,11.59,0,16.01Z"/>
                </g>
                <path class="cls-56" d="m656.21,548.96c-1.17,0-2.28.23-3.3.64.04-.4.07-.81.07-1.22,0-6.41-5.2-11.61-11.61-11.61s-11.61,5.2-11.61,11.61c0,.21.02.4.03.61-.18-.01-.36-.03-.54-.03-4.91,0-8.88,3.98-8.88,8.88s3.98,8.88,8.88,8.88h26.97c4.91,0,8.88-3.98,8.88-8.88s-3.98-8.88-8.88-8.88Z"/>
                <path class="cls-63" d="m663.61,518.32l.65,1.68-1.03,1.48c-.57.82-.22,1.44.77,1.38h0l1.8-.1,1.09,1.44h0c.6.79,1.3.65,1.55-.31l.46-1.74,1.71-.59c.94-.33,1.02-1.03.19-1.57l-1.52-.98-.04-1.81c-.02-.99-.66-1.29-1.43-.66l-1.4,1.14-1.73-.52c-.95-.29-1.44.23-1.08,1.16Z"/>
                <path class="cls-66" d="m723.55,567.59l2.21-.77.77-2.21c.23-.67.62-.67.85,0l.77,2.21,2.21.77c.67.23.67.62,0,.85l-2.21.77-.77,2.21c-.23.67-.62.67-.85,0l-.77-2.21-2.21-.77c-.67-.23-.67-.62,0-.85Z"/>
                <path class="cls-66" d="m604.01,573.07l2.98-1.04,1.04-2.98c.32-.9.83-.9,1.15,0l1.04,2.98,2.98,1.04c.9.32.9.83,0,1.15l-2.98,1.04-1.04,2.98c-.31.9-.83.9-1.15,0l-1.04-2.98-2.98-1.04c-.9-.31-.9-.83,0-1.15Z"/>
                <g>
                  <path class="cls-63" d="m682.67,625.79l1.23-5.22c.26-1.1-.42-2.2-1.52-2.46-1.1-.26-2.2.42-2.46,1.52-.08.32-.07.64,0,.94l1.23,5.22c.1.42.52.67.93.57.29-.07.51-.3.58-.57Z"/>
                  <path class="cls-63" d="m684.4,627.66l5.14-1.54c1.08-.33,1.69-1.47,1.37-2.55-.33-1.08-1.47-1.69-2.55-1.37-.31.09-.59.26-.81.47l-3.9,3.68c-.31.29-.33.79-.03,1.1.21.22.52.29.79.21Z"/>
                  <path class="cls-63" d="m683.65,630.09l3.9,3.68c.82.77,2.12.74,2.89-.09.78-.82.73-2.11-.09-2.89-.24-.22-.52-.38-.82-.47l-5.14-1.54c-.41-.12-.84.11-.96.52-.09.29,0,.59.21.79Z"/>
                  <path class="cls-63" d="m681.16,630.66l-1.23,5.22c-.26,1.1.42,2.2,1.52,2.46,1.1.26,2.2-.42,2.46-1.52.08-.32.07-.64,0-.94l-1.24-5.22c-.1-.42-.52-.68-.93-.58-.29.07-.51.3-.58.58Z"/>
                  <path class="cls-63" d="m679.43,628.79l-5.14,1.54c-1.08.33-1.69,1.46-1.37,2.54.32,1.08,1.46,1.7,2.55,1.37.31-.1.59-.26.81-.47l3.9-3.68c.31-.29.33-.78.03-1.1-.21-.22-.52-.29-.79-.21Z"/>
                  <path class="cls-63" d="m680.18,626.35l-3.9-3.68c-.82-.77-2.11-.74-2.89.09-.77.82-.73,2.12.09,2.89.24.22.52.38.81.47l5.14,1.54c.41.12.84-.11.96-.52.09-.29,0-.59-.21-.79Z"/>
                </g>
              </g>
              <path class="cls-63" d="m929.02,446.63h-140.55l-68.7,242.55h209.26c2.51,0,4.63-2.12,4.63-4.64v-233.28c0-2.51-2.12-4.63-4.63-4.63Z"/>
              <g>
                <g>
                  <text class="cls-75" transform="translate(679.77 470.86)"><tspan class="cls-14" x="0" y="0" xml:space="preserve">Home       </tspan><tspan class="cls-10" x="21.91" y="0">F</tspan><tspan class="cls-14" x="24.39" y="0">e</tspan><tspan class="cls-12" x="27.12" y="0">a</tspan><tspan class="cls-14" x="29.73" y="0">tu</tspan><tspan class="cls-17" x="34.54" y="0">r</tspan><tspan class="cls-14" x="36.26" y="0" xml:space="preserve">es       </tspan><tspan class="cls-15" x="49.24" y="0">P</tspan><tspan class="cls-14" x="52" y="0">o</tspan><tspan class="cls-16" x="55" y="0">r</tspan><tspan class="cls-8" x="56.91" y="0">t</tspan><tspan class="cls-14" x="58.68" y="0">o</tspan><tspan class="cls-11" x="61.67" y="0">f</tspan><tspan class="cls-14" x="63.19" y="0">olio</tspan><tspan class="cls-91" x="71.74" y="0" xml:space="preserve">       </tspan><tspan class="cls-19" x="82.52" y="0">A</tspan><tspan class="cls-14" x="85.84" y="0">bout </tspan><tspan class="cls-18" x="97.9" y="0">U</tspan><tspan class="cls-14" x="101.39" y="0" xml:space="preserve">s       </tspan><tspan class="cls-9" x="111.64" y="0">C</tspan><tspan class="cls-14" x="114.74" y="0">o</tspan><tspan class="cls-12" x="117.73" y="0">n</tspan><tspan class="cls-14" x="120.73" y="0">ta</tspan><tspan class="cls-13" x="125.16" y="0">c</tspan><tspan class="cls-14" x="127.68" y="0">t </tspan><tspan class="cls-8" x="130.64" y="0">U</tspan><tspan class="cls-14" x="134.13" y="0">s</tspan></text>
                  <g>
                    <line class="cls-3" x1="593.57" y1="465.85" x2="604.15" y2="465.85"/>
                    <line class="cls-3" x1="593.57" y1="468.77" x2="604.15" y2="468.77"/>
                    <line class="cls-3" x1="593.57" y1="471.69" x2="604.15" y2="471.69"/>
                  </g>
                  <g>
                    <g>
                      <path class="cls-7" d="m920,468.57c0,.86-.69,1.55-1.55,1.55s-1.55-.69-1.55-1.55.69-1.55,1.55-1.55,1.55.7,1.55,1.55Z"/>
                      <line class="cls-7" x1="919.57" y1="469.7" x2="920.71" y2="470.83"/>
                    </g>
                    <line class="cls-7" x1="916.9" y1="473.44" x2="866.49" y2="473.44"/>
                  </g>
                </g>
                <g>
                  <path class="cls-66" d="m818.09,639.44c2.67,0,4.84-2.17,4.84-4.84s-2.17-4.84-4.84-4.84h-35.64c-2.67,0-4.84,2.17-4.84,4.84s2.17,4.84,4.84,4.84h35.64Z"/>
                  <path class="cls-57" d="m816.07,634.6c0,1.24,1.01,2.25,2.25,2.25s2.26-1.01,2.26-2.25-1.01-2.25-2.26-2.25-2.25,1.01-2.25,2.25Zm3.23,0l-1.21,1.21-.34-.34.87-.87-.87-.87.34-.34,1.21,1.21Z"/>
                  <text class="cls-59" transform="translate(782.06 635.74)"><tspan x="0" y="0">b</tspan><tspan class="cls-30" x="1.99" y="0">r</tspan><tspan class="cls-105" x="3.1" y="0">ow</tspan><tspan class="cls-107" x="7.56" y="0">se </tspan><tspan class="cls-105" x="11.44" y="0">b</tspan><tspan x="13.41" y="0">y c</tspan><tspan class="cls-128" x="17.37" y="0">a</tspan><tspan class="cls-29" x="19.05" y="0">t</tspan><tspan x="20.19" y="0">ego</tspan><tspan class="cls-28" x="25.82" y="0">r</tspan><tspan x="27.06" y="0">y</tspan></text>
                </g>
                <g>
                  <text class="cls-69" transform="translate(777.62 554.38)"><tspan class="cls-72" x="0" y="0">R</tspan><tspan x="8.04" y="0">esponsi</tspan><tspan class="cls-22" x="55.48" y="0">v</tspan><tspan x="62.47" y="0">e</tspan><tspan class="cls-124" x="0" y="17.53">W</tspan><tspan x="12.05" y="17.53">ebsi</tspan><tspan class="cls-82" x="37.26" y="17.53">t</tspan><tspan class="cls-114" x="42.08" y="17.53">e </tspan><tspan class="cls-51" x="52.65" y="17.53">D</tspan><tspan class="cls-114" x="62.59" y="17.53">esi</tspan><tspan class="cls-82" x="79.36" y="17.53">g</tspan><tspan x="87.55" y="17.53">n</tspan></text>
                  <text class="cls-77" transform="translate(777.62 582.96)"><tspan class="cls-94" x="0" y="0">L</tspan><tspan x="1.6" y="0">o</tspan><tspan class="cls-30" x="3.53" y="0">r</tspan><tspan x="4.64" y="0">em ipsum dolor sit ame</tspan><tspan class="cls-83" x="38.85" y="0">t</tspan><tspan x="40" y="0">, </tspan><tspan class="cls-29" x="41.47" y="0">c</tspan><tspan x="43.02" y="0">onse</tspan><tspan class="cls-48" x="50.03" y="0">c</tspan><tspan class="cls-29" x="51.64" y="0">t</tspan><tspan x="52.78" y="0">etuer adipiscing eli</tspan><tspan class="cls-83" x="80.38" y="0">t</tspan><tspan x="81.53" y="0">, sed diam nonum</tspan><tspan class="cls-108" x="107.67" y="0">m</tspan><tspan x="110.54" y="0">y nibh euismod </tspan><tspan x="0" y="5.84">tincidu</tspan><tspan class="cls-97" x="10.22" y="5.84">n</tspan><tspan x="12.15" y="5.84">t ut lao</tspan><tspan class="cls-30" x="22.32" y="5.84">r</tspan><tspan x="23.43" y="5.84">eet dolo</tspan><tspan class="cls-30" x="35.49" y="5.84">r</tspan><tspan x="36.6" y="5.84">e ma</tspan><tspan class="cls-84" x="43.7" y="5.84">g</tspan><tspan x="45.64" y="5.84">na aliquam e</tspan><tspan class="cls-127" x="64.36" y="5.84">ra</tspan><tspan x="67.16" y="5.84">t </tspan><tspan class="cls-30" x="69.06" y="5.84">v</tspan><tspan x="70.71" y="5.84">olutp</tspan><tspan class="cls-97" x="78.54" y="5.84">at</tspan><tspan x="81.36" y="5.84">. </tspan><tspan class="cls-92" x="82.83" y="5.84">U</tspan><tspan x="85.11" y="5.84">t wisi enim ad minim </tspan><tspan class="cls-30" x="116.11" y="5.84">v</tspan><tspan x="117.76" y="5.84">eniam, quis </tspan><tspan x="0" y="11.67">nostrud </tspan><tspan class="cls-83" x="12.21" y="11.67">e</tspan><tspan class="cls-112" x="13.95" y="11.67">x</tspan><tspan x="15.52" y="11.67">e</tspan><tspan class="cls-125" x="17.27" y="11.67">r</tspan><tspan x="18.39" y="11.67">ci t</tspan><tspan class="cls-128" x="22.68" y="11.67">a</tspan><tspan x="24.35" y="11.67">tion ullam</tspan><tspan class="cls-29" x="39.13" y="11.67">c</tspan><tspan x="40.68" y="11.67">o</tspan><tspan class="cls-130" x="42.6" y="11.67">r</tspan><tspan x="43.76" y="11.67">per suscipit lobo</tspan><tspan class="cls-23" x="67.87" y="11.67">r</tspan><tspan x="69.1" y="11.67">tis nisl ut </tspan></text>
                </g>
                <g>
                  <rect class="cls-4" x="777.61" y="608.91" width="89.5" height="7.99"/>
                  <text class="cls-59" transform="translate(781.77 614.18)"><tspan x="0" y="0">wh</tspan><tspan class="cls-128" x="4.52" y="0">a</tspan><tspan x="6.2" y="0">t do </tspan><tspan class="cls-125" x="12.74" y="0">y</tspan><tspan x="14.35" y="0">ou need?</tspan></text>
                  <path class="cls-57" d="m859.97,612.91c0,1.32,1.07,2.38,2.38,2.38s2.39-1.07,2.39-2.38-1.07-2.38-2.39-2.38-2.38,1.07-2.38,2.38Zm3.42,0l-1.28,1.28-.36-.36.92-.92-.92-.92.36-.37,1.28,1.28Z"/>
                </g>
              </g>
              <g>
                <polygon class="cls-61" points="566.17 628.29 641.51 703.63 801.57 703.63 566.17 468.23 566.17 628.29"/>
                <polygon class="cls-61" points="810.45 432.19 948.09 569.83 948.09 455.1 925.18 432.19 810.45 432.19"/>
              </g>
            </g>
            <g>
              <g>
                <path class="cls-103" d="m906.93,505.18h80.62c6.14,0,11.12,4.98,11.12,11.12v185.22c0,6.14-4.98,11.12-11.12,11.12h-80.63c-6.14,0-11.12-4.98-11.12-11.12v-185.22c0-6.14,4.98-11.12,11.12-11.12Z"/>
                <g>
                  <path class="cls-57" d="m995.2,516.3c0-4.21-3.43-7.65-7.64-7.65h-80.63c-4.21,0-7.64,3.43-7.64,7.65v98.78l95.91-12.4v-86.38Z"/>
                  <path class="cls-63" d="m899.29,615.08v86.44c0,4.22,3.43,7.65,7.64,7.65h80.63c4.21,0,7.64-3.43,7.64-7.65v-98.84l-95.91,12.4Z"/>
                </g>
              </g>
              <g>
                <path class="cls-54" d="m970.64,572.91c-.63,0-1.23.12-1.78.34.02-.22.04-.43.04-.66,0-3.45-2.8-6.25-6.25-6.25s-6.25,2.8-6.25,6.25c0,.11.01.22.02.33-.1,0-.19-.01-.29-.01-2.64,0-4.78,2.14-4.78,4.78s2.14,4.78,4.78,4.78h14.52c2.64,0,4.78-2.14,4.78-4.78s-2.14-4.78-4.78-4.78Z"/>
                <g>
                  <g>
                    <polygon class="cls-63" points="931.62 570.54 922.04 572.46 917.49 588.52 919.12 589.5 926.79 581.4 931.62 570.54"/>
                    <polygon class="cls-56" points="926.79 581.4 931.62 570.54 923.05 585.35 926.79 581.4"/>
                    <polygon class="cls-63" points="944.61 583.53 942.68 593.11 926.63 597.67 925.65 596.03 933.75 588.36 944.61 583.53"/>
                    <polygon class="cls-56" points="933.75 588.36 944.61 583.53 929.8 592.1 933.75 588.36"/>
                  </g>
                  <g>
                    <path class="cls-63" d="m926.78,581.39l3.49,3.49,3.49,3.49s2.7-.76,6.99-2.83l-11.15-11.14c-2.07,4.3-2.83,6.99-2.83,6.99Z"/>
                    <path class="cls-53" d="m954.58,544.83c-4.3,2.58-8.89,6.46-13.62,12.13-5.63,6.74-9.2,12.96-11.35,17.44l11.15,11.14c4.47-2.15,10.69-5.72,17.44-11.35,5.67-4.73,9.55-9.32,12.13-13.62-2.8-2.16-5.62-4.62-8.37-7.37-2.75-2.75-5.22-5.57-7.37-8.37Z"/>
                    <path class="cls-63" d="m974.16,540.99c-5.06-1.18-11.87-.78-19.59,3.85,2.16,2.8,4.62,5.62,7.37,8.37,2.75,2.75,5.57,5.22,8.37,7.37,4.63-7.72,5.03-14.53,3.85-19.59Z"/>
                  </g>
                  <path class="cls-66" d="m959.62,566.22c-2.95,2.95-7.74,2.95-10.69,0-2.95-2.95-2.95-7.74,0-10.69,2.95-2.95,7.73-2.95,10.69,0,2.95,2.95,2.95,7.73,0,10.69Z"/>
                  <path class="cls-63" d="m958.59,565.18c-2.38,2.38-6.24,2.38-8.61,0-2.38-2.38-2.38-6.23,0-8.61,2.38-2.38,6.24-2.38,8.61,0,2.38,2.38,2.38,6.24,0,8.61Z"/>
                </g>
                <path class="cls-56" d="m941.39,551.58c-.63,0-1.23.13-1.78.35.02-.22.04-.43.04-.66,0-3.45-2.8-6.25-6.25-6.25s-6.25,2.8-6.25,6.25c0,.11.01.22.02.33-.1,0-.19-.01-.29-.01-2.64,0-4.78,2.14-4.78,4.78s2.14,4.78,4.78,4.78h14.52c2.64,0,4.78-2.14,4.78-4.78s-2.14-4.78-4.78-4.78Z"/>
                <path class="cls-63" d="m945.37,535.08l.35.91-.55.8c-.31.44-.12.77.42.74h0l.97-.05.59.77h0c.32.42.7.35.84-.17l.25-.94.92-.32c.5-.18.55-.55.1-.84l-.82-.53-.02-.97c-.01-.53-.36-.69-.77-.36l-.75.61-.93-.28c-.51-.15-.77.13-.58.63Z"/>
                <path class="cls-66" d="m977.63,561.61l1.19-.42.41-1.19c.13-.36.33-.36.46,0l.42,1.19,1.19.42c.36.13.36.33,0,.46l-1.19.41-.42,1.19c-.12.36-.33.36-.46,0l-.41-1.19-1.19-.41c-.36-.13-.36-.33,0-.46Z"/>
                <path class="cls-66" d="m913.29,564.55l1.6-.56.56-1.61c.17-.48.45-.48.61,0l.56,1.61,1.6.56c.49.17.49.45,0,.62l-1.6.56-.56,1.6c-.17.49-.45.49-.61,0l-.56-1.6-1.6-.56c-.49-.17-.49-.45,0-.62Z"/>
                <g>
                  <path class="cls-63" d="m955.63,592.93l.66-2.81c.14-.59-.22-1.19-.81-1.32-.59-.14-1.18.23-1.32.82-.04.17-.04.35,0,.51l.66,2.81c.06.23.28.36.5.31.16-.04.28-.16.31-.31Z"/>
                  <path class="cls-63" d="m956.56,593.93l2.77-.83c.58-.18.91-.79.74-1.37-.18-.58-.79-.91-1.37-.74-.17.05-.32.14-.44.25l-2.1,1.98c-.17.16-.17.42-.02.59.11.12.28.16.42.11Z"/>
                  <path class="cls-63" d="m956.15,595.24l2.1,1.98c.44.42,1.14.4,1.56-.05.41-.44.39-1.14-.05-1.55-.13-.12-.28-.21-.44-.25l-2.77-.83c-.22-.07-.45.06-.52.28-.05.16,0,.32.11.42Z"/>
                  <path class="cls-63" d="m954.81,595.55l-.66,2.81c-.14.59.23,1.18.82,1.32.59.14,1.18-.23,1.32-.82.04-.17.04-.35,0-.5l-.66-2.81c-.05-.22-.28-.36-.5-.31-.16.04-.28.16-.31.31Z"/>
                  <path class="cls-63" d="m953.88,594.54l-2.76.83c-.58.17-.91.79-.74,1.37.17.58.79.91,1.37.74.17-.05.32-.14.44-.25l2.1-1.98c.17-.16.18-.42.02-.59-.11-.12-.28-.15-.42-.11Z"/>
                  <path class="cls-63" d="m954.29,593.23l-2.1-1.98c-.44-.42-1.14-.39-1.56.05-.42.44-.39,1.14.05,1.56.13.12.28.2.44.25l2.77.83c.22.06.45-.06.52-.28.05-.15,0-.32-.11-.42Z"/>
                </g>
              </g>
              <g>
                <g>
                  <g>
                    <line class="cls-6" x1="904.09" y1="518.93" x2="911.13" y2="518.93"/>
                    <line class="cls-6" x1="904.09" y1="520.87" x2="911.13" y2="520.87"/>
                    <line class="cls-6" x1="904.09" y1="522.81" x2="911.13" y2="522.81"/>
                  </g>
                  <g>
                    <g>
                      <path class="cls-5" d="m989.93,520.74c0,.57-.46,1.03-1.03,1.03s-1.03-.46-1.03-1.03.46-1.03,1.03-1.03,1.03.46,1.03,1.03Z"/>
                      <line class="cls-5" x1="989.65" y1="521.5" x2="990.4" y2="522.25"/>
                    </g>
                    <line class="cls-5" x1="987.86" y1="523.98" x2="954.34" y2="523.98"/>
                  </g>
                </g>
                <g>
                  <path class="cls-66" d="m968.8,685.96c3.24,0,5.85-2.62,5.85-5.86s-2.62-5.86-5.85-5.86h-43.11c-3.24,0-5.86,2.63-5.86,5.86s2.62,5.86,5.86,5.86h43.11Z"/>
                  <path class="cls-57" d="m966.36,680.11c0,1.51,1.22,2.73,2.72,2.73s2.73-1.22,2.73-2.73-1.22-2.73-2.73-2.73-2.72,1.22-2.72,2.73Zm3.91,0l-1.47,1.47-.41-.42,1.05-1.05-1.05-1.05.41-.41,1.47,1.46Z"/>
                  <text class="cls-60" transform="translate(925.21 681.49)"><tspan x="0" y="0">b</tspan><tspan class="cls-121" x="2.41" y="0">r</tspan><tspan class="cls-98" x="3.75" y="0">ow</tspan><tspan x="9.15" y="0">se </tspan><tspan class="cls-73" x="13.85" y="0">b</tspan><tspan x="16.23" y="0">y c</tspan><tspan class="cls-95" x="21.02" y="0">a</tspan><tspan class="cls-79" x="23.05" y="0">t</tspan><tspan x="24.42" y="0">ego</tspan><tspan class="cls-24" x="31.24" y="0">r</tspan><tspan x="32.73" y="0">y</tspan></text>
                </g>
                <g>
                  <text class="cls-67" transform="translate(904.09 629.02)"><tspan class="cls-134" x="0" y="0">R</tspan><tspan x="4.94" y="0">esponsi</tspan><tspan class="cls-122" x="34.09" y="0">v</tspan><tspan x="38.38" y="0">e</tspan><tspan class="cls-126" x="0" y="10.77">W</tspan><tspan x="7.41" y="10.77">ebsi</tspan><tspan class="cls-80" x="22.9" y="10.77">t</tspan><tspan class="cls-87" x="25.86" y="10.77">e </tspan><tspan class="cls-134" x="32.35" y="10.77">D</tspan><tspan x="38.46" y="10.77">esi</tspan><tspan class="cls-80" x="48.76" y="10.77">g</tspan><tspan x="53.8" y="10.77">n</tspan></text>
                  <text class="cls-76" transform="translate(904.09 646.59)"><tspan class="cls-109" x="0" y="0">L</tspan><tspan x=".99" y="0">o</tspan><tspan class="cls-120" x="2.17" y="0">r</tspan><tspan x="2.85" y="0">em ipsum dolor sit ame</tspan><tspan class="cls-110" x="23.88" y="0">t</tspan><tspan x="24.58" y="0">, </tspan><tspan class="cls-135" x="25.49" y="0">c</tspan><tspan x="26.44" y="0">onse</tspan><tspan class="cls-131" x="30.74" y="0">c</tspan><tspan class="cls-21" x="31.73" y="0">t</tspan><tspan x="32.43" y="0">etuer adipiscing eli</tspan><tspan class="cls-138" x="49.4" y="0">t</tspan><tspan x="50.1" y="0">, sed diam nonum</tspan><tspan class="cls-111" x="66.16" y="0">m</tspan><tspan x="67.93" y="0">y nibh euismod </tspan><tspan x="0" y="3.59">tincidu</tspan><tspan class="cls-132" x="6.28" y="3.59">n</tspan><tspan x="7.46" y="3.59">t ut lao</tspan><tspan class="cls-120" x="13.71" y="3.59">r</tspan><tspan x="14.4" y="3.59">eet dolo</tspan><tspan class="cls-120" x="21.81" y="3.59">r</tspan><tspan x="22.49" y="3.59">e ma</tspan><tspan class="cls-21" x="26.86" y="3.59">g</tspan><tspan x="28.05" y="3.59">na aliquam e</tspan><tspan class="cls-116" x="39.55" y="3.59">ra</tspan><tspan x="41.27" y="3.59">t </tspan><tspan class="cls-120" x="42.44" y="3.59">v</tspan><tspan x="43.45" y="3.59">olutp</tspan><tspan class="cls-132" x="48.26" y="3.59">at</tspan><tspan x="50" y="3.59">. </tspan><tspan class="cls-136" x="50.9" y="3.59">U</tspan><tspan x="52.3" y="3.59">t wisi enim ad minim </tspan><tspan class="cls-120" x="71.35" y="3.59">v</tspan><tspan x="72.37" y="3.59">eniam, quis </tspan><tspan x="0" y="7.17">nostrud </tspan><tspan class="cls-138" x="7.5" y="7.17">e</tspan><tspan class="cls-70" x="8.57" y="7.17">x</tspan><tspan x="9.54" y="7.17">e</tspan><tspan class="cls-120" x="10.61" y="7.17">r</tspan><tspan x="11.3" y="7.17">ci t</tspan><tspan class="cls-50" x="13.93" y="7.17">a</tspan><tspan x="14.96" y="7.17">tion ullam</tspan><tspan class="cls-135" x="24.04" y="7.17">c</tspan><tspan x="25" y="7.17">o</tspan><tspan class="cls-136" x="26.18" y="7.17">r</tspan><tspan x="26.89" y="7.17">per suscipit lobo</tspan><tspan class="cls-88" x="41.7" y="7.17">r</tspan><tspan x="42.46" y="7.17">tis nisl ut </tspan></text>
                </g>
                <g>
                  <rect class="cls-2" x="904.06" y="662.54" width="86.36" height="4.91"/>
                  <text class="cls-62" transform="translate(906.62 665.77)"><tspan x="0" y="0">wh</tspan><tspan class="cls-50" x="2.78" y="0">a</tspan><tspan class="cls-90" x="3.81" y="0">t do </tspan><tspan class="cls-120" x="7.83" y="0">y</tspan><tspan x="8.82" y="0">ou need?</tspan></text>
                  <path class="cls-57" d="m986.03,664.99c0,.81.66,1.47,1.47,1.47s1.47-.66,1.47-1.47-.66-1.47-1.47-1.47-1.47.66-1.47,1.47Zm2.1,0l-.79.79-.22-.22.57-.56-.57-.56.22-.22.79.79Z"/>
                </g>
                <polygon class="cls-66" points="950.63 696.88 947.24 700.26 943.86 696.88 942.62 696.88 947.24 701.5 951.87 696.88 950.63 696.88"/>
              </g>
              <g>
                <path class="cls-61" d="m917.5,712.64h70.06c4.91,0,9.09-3.23,10.56-7.66l-102.3-102.3v88.28l21.68,21.68Z"/>
                <polygon class="cls-61" points="915.12 505.18 998.68 588.74 998.68 525.45 978.41 505.18 915.12 505.18"/>
              </g>
            </g>
          </g>
        </g>
      </g>
    </g>
  </g>
</svg>