<?xml version="1.0" encoding="UTF-8"?>
<svg xmlns="http://www.w3.org/2000/svg" xmlns:xlink="http://www.w3.org/1999/xlink" viewBox="0 0 2000 1072">
  <defs>
    <style>
      .cls-1, .cls-2, .cls-3 {
        fill: none;
      }

      .cls-4 {
        fill: url(#linear-gradient);
      }

      .cls-5 {
        clip-path: url(#clippath);
      }

      .cls-6 {
        fill: #f8a13b;
      }

      .cls-7 {
        fill: #f8a442;
      }

      .cls-8 {
        fill: #f8a039;
      }

      .cls-9 {
        fill: #faa61a;
      }

      .cls-10 {
        fill: #fab96d;
      }

      .cls-11 {
        fill: #f9af59;
      }

      .cls-12 {
        fill: #f9ae56;
      }

      .cls-13 {
        fill: #f9aa4d;
      }

      .cls-14 {
        fill: #03191b;
      }

      .cls-15 {
        fill: #000200;
      }

      .cls-16 {
        fill: #f4f4f6;
      }

      .cls-17 {
        fill: #f79829;
      }

      .cls-18 {
        fill: #f5f5f7;
      }

      .cls-19 {
        fill: #fff;
      }

      .cls-20 {
        fill: #fcd4a5;
      }

      .cls-21 {
        fill: #fcd5a7;
      }

      .cls-22 {
        fill: #feeedb;
      }

      .cls-23 {
        fill: red;
      }

      .cls-24 {
        fill: #fbc483;
      }

      .cls-25 {
        fill: #fbc586;
      }

      .cls-26 {
        fill: #ff1c1c;
      }

      .cls-27, .cls-28 {
        fill: #fdc00f;
      }

      .cls-29 {
        fill: #ff2e2e;
      }

      .cls-30 {
        fill: #fde7ce;
      }

      .cls-31 {
        fill: #fbcb93;
      }

      .cls-32 {
        fill: #fde1c0;
      }

      .cls-33 {
        fill: #999;
      }

      .cls-34 {
        fill: #666;
      }

      .cls-35 {
        fill: #babb41;
      }

      .cls-36 {
        fill: #333;
      }

      .cls-37 {
        fill: #a6dae8;
      }

      .cls-38 {
        fill: #dcbe28;
      }

      .cls-39, .cls-40 {
        fill: #14b0bf;
      }

      .cls-41 {
        fill: #1f2b31;
      }

      .cls-42 {
        fill: #1197a4;
      }

      .cls-43 {
        fill: #231f20;
      }

      .cls-44 {
        fill: #063237;
      }

      .cls-45 {
        fill: #0e7e88;
      }

      .cls-46 {
        fill: #35b2a6;
      }

      .cls-47 {
        fill: #094b52;
      }

      .cls-48 {
        fill: #0b656d;
      }

      .cls-49 {
        fill: #99b95a;
      }

      .cls-50 {
        fill: #2a363b;
      }

      .cls-51 {
        fill: #58595b;
      }

      .cls-52 {
        fill: #57b58d;
      }

      .cls-53 {
        fill: #78b774;
      }

      .cls-54 {
        fill: #63b583;
      }

      .cls-54, .cls-55, .cls-56, .cls-57, .cls-58, .cls-59, .cls-60, .cls-61, .cls-28, .cls-62, .cls-63, .cls-64 {
        stroke: #333;
        stroke-linecap: round;
        stroke-linejoin: round;
        stroke-width: 2.47px;
      }

      .cls-55 {
        fill: #24768c;
      }

      .cls-56 {
        fill: #1c93a5;
      }

      .cls-57 {
        fill: #1e597e;
      }

      .cls-58 {
        fill: #736b4b;
      }

      .cls-59 {
        fill: #b77e26;
      }

      .cls-60 {
        fill: #fcb10a;
      }

      .cls-61 {
        fill: #fca106;
      }

      .cls-62 {
        fill: #b0bb49;
      }

      .cls-63 {
        fill: #00b1cd;
      }

      .cls-40 {
        mix-blend-mode: multiply;
        opacity: .5;
      }

      .cls-2 {
        stroke-width: 5.26px;
      }

      .cls-2, .cls-3 {
        stroke: #000;
        stroke-miterlimit: 10;
      }

      .cls-65 {
        fill: url(#linear-gradient-3);
      }

      .cls-66 {
        fill: url(#linear-gradient-4);
      }

      .cls-67 {
        fill: url(#linear-gradient-2);
      }

      .cls-3 {
        stroke-width: 1.23px;
      }

      .cls-68 {
        isolation: isolate;
      }

      .cls-64 {
        fill: #fb9101;
      }
    </style>
    <linearGradient id="linear-gradient" x1="1684.17" y1="432.61" x2="1747.32" y2="432.61" gradientUnits="userSpaceOnUse">
      <stop offset="0" stop-color="#000"/>
      <stop offset="1" stop-color="#ff1c1c"/>
    </linearGradient>
    <linearGradient id="linear-gradient-2" x1="1684.17" y1="445.76" x2="1747.32" y2="445.76" gradientUnits="userSpaceOnUse">
      <stop offset="0" stop-color="#000"/>
      <stop offset="1" stop-color="#fbcd98"/>
    </linearGradient>
    <linearGradient id="linear-gradient-3" x1="1684.17" y1="458.92" x2="1747.32" y2="458.92" gradientUnits="userSpaceOnUse">
      <stop offset="0" stop-color="#000"/>
      <stop offset="1" stop-color="#f7931e"/>
    </linearGradient>
    <clipPath id="clippath">
      <path class="cls-1" d="m195.69,485.32h20.01v61.47c0,6.9-1.64,12.94-4.92,18.12-3.28,5.18-7.87,9.21-13.75,12.09-5.88,2.88-12.74,4.32-20.57,4.32s-14.73-1.44-20.61-4.32c-5.88-2.88-10.46-6.91-13.73-12.09-3.27-5.18-4.9-11.21-4.9-18.12v-61.47h20.01v59.76c0,3.6.79,6.81,2.38,9.61,1.59,2.8,3.83,5.01,6.72,6.61,2.9,1.6,6.27,2.4,10.12,2.4s7.26-.8,10.14-2.4c2.88-1.6,5.11-3.81,6.7-6.61,1.59-2.8,2.38-6.01,2.38-9.61v-59.76Zm56.48,0v94.66h-20.01v-94.66h20.01Zm75.34,96.04c-6.53,0-12.17-1.17-16.92-3.51-4.75-2.34-8.39-5.52-10.93-9.54-2.54-4.02-3.81-8.51-3.81-13.47,0-3.7.74-6.98,2.22-9.84,1.48-2.87,3.54-5.51,6.19-7.93,2.65-2.42,5.73-4.83,9.24-7.23l18.35-12.06c2.37-1.51,4.11-3.1,5.22-4.78,1.11-1.68,1.66-3.5,1.66-5.48s-.75-3.62-2.26-5.22c-1.51-1.6-3.65-2.39-6.42-2.36-1.85,0-3.45.41-4.81,1.22-1.36.82-2.41,1.88-3.17,3.19-.76,1.31-1.13,2.77-1.13,4.37,0,1.97.55,3.97,1.66,6.01,1.11,2.03,2.59,4.18,4.44,6.45s3.87,4.71,6.05,7.33l44.88,51.49h-20.52l-37.44-41.69c-2.46-2.8-4.92-5.74-7.37-8.8-2.45-3.07-4.49-6.33-6.12-9.8-1.63-3.47-2.45-7.23-2.45-11.3,0-4.59,1.07-8.72,3.21-12.39,2.14-3.67,5.15-6.57,9.04-8.71,3.88-2.14,8.41-3.21,13.59-3.21s9.42,1.02,13.1,3.07c3.68,2.05,6.52,4.76,8.5,8.13s2.98,7.08,2.98,11.12c0,4.47-1.1,8.51-3.3,12.13-2.2,3.62-5.29,6.86-9.27,9.73l-19.32,13.91c-2.62,1.91-4.55,3.86-5.8,5.85s-1.87,3.89-1.87,5.71c0,2.25.55,4.27,1.66,6.05s2.68,3.2,4.71,4.23c2.03,1.03,4.42,1.55,7.16,1.55,3.33,0,6.62-.76,9.87-2.29,3.25-1.53,6.21-3.7,8.87-6.52,2.67-2.82,4.8-6.17,6.4-10.05,1.6-3.88,2.4-8.18,2.4-12.89h16.32c0,5.79-.63,11.01-1.9,15.64-1.26,4.64-3.02,8.67-5.27,12.11-2.25,3.44-4.82,6.25-7.72,8.43-.92.59-1.82,1.14-2.68,1.66-.86.52-1.76,1.08-2.68,1.66-3.51,2.83-7.43,4.88-11.76,6.15-4.33,1.26-8.6,1.9-12.83,1.9Zm147.71-96.04h20.01v61.47c0,6.9-1.64,12.94-4.92,18.12-3.28,5.18-7.87,9.21-13.75,12.09-5.88,2.88-12.74,4.32-20.57,4.32s-14.73-1.44-20.61-4.32c-5.88-2.88-10.46-6.91-13.73-12.09-3.27-5.18-4.9-11.21-4.9-18.12v-61.47h20.01v59.76c0,3.6.79,6.81,2.38,9.61,1.59,2.8,3.83,5.01,6.72,6.61,2.9,1.6,6.27,2.4,10.12,2.4s7.26-.8,10.14-2.4c2.88-1.6,5.11-3.81,6.7-6.61,1.59-2.8,2.38-6.01,2.38-9.61v-59.76Zm55.23,0l19.09,32.26h.74l19.18-32.26h22.6l-28.89,47.33,29.53,47.33h-23.02l-19.41-32.31h-.74l-19.41,32.31h-22.92l29.63-47.33-29.07-47.33h22.69Z"/>
    </clipPath>
    <linearGradient id="linear-gradient-4" x1="80.75" y1="617.27" x2="721.5" y2="445.58" gradientUnits="userSpaceOnUse">
      <stop offset="0" stop-color="#858585"/>
      <stop offset="1" stop-color="#232323"/>
    </linearGradient>
  </defs>
  <g class="cls-68">
    <g id="Layer_2" data-name="Layer 2">
      <g id="Layer_1-2" data-name="Layer 1">
        <g>
          <rect class="cls-16" width="2000" height="900"/>
          <g>
            <rect class="cls-36" x="1168.45" y="966.75" width="421" height="105.25" rx="21.05" ry="21.05"/>
            <rect class="cls-34" x="1168.45" y="945.7" width="421" height="105.25" rx="21.05" ry="21.05"/>
            <path class="cls-17" d="m1884.15,777.81h-1010.4V248.47c0-9.92,8.04-17.96,17.96-17.96h974.47c9.92,0,17.96,8.04,17.96,17.96v529.34Z"/>
            <path d="m1842.05,230.51c7.68,0,14.85,2.09,21.05,5.68v99.57h-21.05v-105.25Z"/>
            <rect x="1821" y="230.51" width="10.52" height="42.1"/>
            <path class="cls-13" d="m915.85,230.51c-7.68,0-14.85,2.09-21.05,5.68v99.57h21.05v-105.25Z"/>
            <path d="m1884.15,777.3h-1010.4V247.96c0-9.92,8.04-17.96,17.96-17.96h974.47c9.92,0,17.96,8.04,17.96,17.96v529.34Z"/>
            <path class="cls-36" d="m1866.19,861.5h-974.47c-9.92,0-17.96-8.04-17.96-17.96v-66.24h1010.4v66.24c0,9.92-8.04,17.96-17.96,17.96Z"/>
            <rect class="cls-13" x="915.85" y="272.1" width="926.2" height="463.1"/>
            <rect class="cls-8" x="968.48" y="324.73" width="421" height="273.65"/>
            <rect class="cls-8" x="1526.3" y="682.58" width="42.1" height="42.1"/>
            <rect class="cls-8" x="1210.55" y="682.58" width="42.1" height="42.1"/>
            <rect class="cls-8" x="1263.17" y="682.58" width="42.1" height="42.1"/>
            <rect class="cls-8" x="1315.8" y="682.58" width="42.1" height="42.1"/>
            <rect class="cls-8" x="1368.42" y="682.58" width="42.1" height="42.1"/>
            <rect class="cls-8" x="1421.05" y="682.58" width="42.1" height="42.1"/>
            <rect class="cls-8" x="1473.67" y="682.58" width="42.1" height="42.1"/>
            <rect class="cls-8" x="1642.07" y="324.73" width="126.3" height="336.8"/>
            <rect class="cls-36" x="1252.65" y="861.5" width="252.6" height="147.35"/>
            <rect class="cls-36" x="1252.65" y="861.5" width="252.6" height="42.1"/>
            <polygon class="cls-36" points="1505.25 1008.85 1505.25 945.7 1568.4 945.7 1505.25 1008.85"/>
            <circle class="cls-36" cx="1378.95" cy="819.4" r="10.53" transform="translate(-87.13 1470.2) rotate(-54.66)"/>
            <polygon class="cls-8" points="1799.95 398.4 1842.05 440.5 1842.05 356.3 1799.95 314.2 1799.95 398.4"/>
            <rect class="cls-32" x="1799.95" y="314.2" width="126.3" height="84.2"/>
            <rect class="cls-50" x="1515.77" y="672.05" width="42.1" height="42.1"/>
            <rect class="cls-50" x="1200.02" y="672.05" width="42.1" height="42.1"/>
            <rect class="cls-50" x="1252.65" y="672.05" width="42.1" height="42.1"/>
            <rect class="cls-50" x="1305.27" y="672.05" width="42.1" height="42.1"/>
            <rect class="cls-50" x="1357.9" y="672.05" width="42.1" height="42.1"/>
            <rect class="cls-50" x="1410.52" y="672.05" width="42.1" height="42.1"/>
            <rect class="cls-50" x="1463.15" y="672.05" width="42.1" height="42.1"/>
            <rect class="cls-50" x="957.95" y="314.2" width="421" height="273.65"/>
            <rect x="957.95" y="314.2" width="421" height="21.05"/>
            <circle class="cls-26" cx="1368.42" cy="324.73" r="7.89"/>
            <circle class="cls-32" cx="1347.37" cy="324.73" r="7.89"/>
            <circle class="cls-21" cx="1326.32" cy="324.73" r="7.89"/>
            <rect class="cls-24" x="979" y="356.3" width="115.77" height="115.78"/>
            <rect class="cls-30" x="979" y="482.6" width="31.58" height="31.58"/>
            <rect class="cls-30" x="1021.1" y="482.6" width="31.57" height="31.58"/>
            <rect class="cls-30" x="1063.2" y="482.6" width="31.57" height="31.58"/>
            <rect class="cls-30" x="1105.3" y="482.6" width="31.57" height="31.58"/>
            <rect class="cls-30" x="1147.4" y="482.6" width="31.57" height="31.58"/>
            <rect class="cls-30" x="1189.5" y="482.6" width="31.57" height="31.58"/>
            <rect class="cls-30" x="1105.3" y="356.3" width="115.77" height="10.53"/>
            <rect class="cls-30" x="1105.3" y="377.35" width="115.77" height="10.53"/>
            <rect class="cls-30" x="1105.3" y="398.4" width="115.77" height="10.53"/>
            <rect class="cls-30" x="1105.3" y="419.45" width="115.77" height="10.53"/>
            <rect class="cls-30" x="1105.3" y="440.5" width="115.77" height="10.53"/>
            <rect class="cls-30" x="1147.4" y="461.55" width="73.67" height="10.53"/>
            <rect class="cls-32" x="1105.3" y="461.55" width="31.57" height="10.53"/>
            <rect class="cls-7" x="1631.55" y="314.2" width="126.3" height="84.2"/>
            <rect class="cls-7" x="1631.55" y="398.4" width="126.3" height="84.2"/>
            <rect class="cls-7" x="1631.55" y="482.6" width="126.3" height="84.2"/>
            <rect class="cls-7" x="1631.55" y="566.8" width="126.3" height="84.2"/>
            <rect class="cls-41" x="1673.65" y="314.2" width="84.2" height="21.05"/>
            <rect class="cls-41" x="1673.65" y="398.4" width="84.2" height="21.05"/>
            <rect class="cls-41" x="1673.65" y="482.6" width="84.2" height="21.05"/>
            <rect class="cls-41" x="1673.65" y="566.8" width="84.2" height="21.05"/>
            <line class="cls-2" x1="1631.55" y1="398.4" x2="1757.85" y2="398.4"/>
            <line class="cls-2" x1="1631.55" y1="482.6" x2="1757.85" y2="482.6"/>
            <line class="cls-2" x1="1631.55" y1="566.8" x2="1757.85" y2="566.8"/>
            <rect class="cls-11" x="1726.27" y="345.78" width="21.05" height="21.05"/>
            <rect class="cls-25" x="1705.22" y="345.78" width="21.05" height="21.05"/>
            <rect class="cls-22" x="1684.17" y="345.78" width="21.05" height="21.05"/>
            <rect class="cls-20" x="1663.12" y="345.78" width="21.05" height="21.05"/>
            <rect class="cls-29" x="1642.07" y="345.78" width="21.05" height="21.05"/>
            <rect class="cls-29" x="1642.07" y="429.98" width="21.05" height="21.05"/>
            <rect class="cls-23" x="1642.07" y="366.83" width="21.05" height="21.05"/>
            <rect class="cls-50" x="1652.6" y="440.5" width="21.05" height="21.05"/>
            <rect class="cls-10" x="1663.12" y="366.83" width="21.05" height="21.05"/>
            <rect class="cls-31" x="1684.17" y="366.83" width="21.05" height="21.05"/>
            <rect class="cls-12" x="1705.22" y="366.83" width="21.05" height="21.05"/>
            <rect class="cls-6" x="1726.27" y="366.83" width="21.05" height="21.05"/>
            <rect class="cls-4" x="1684.17" y="429.98" width="63.15" height="5.26"/>
            <rect class="cls-67" x="1684.17" y="443.13" width="63.15" height="5.26"/>
            <rect class="cls-65" x="1684.17" y="456.29" width="63.15" height="5.26"/>
            <rect class="cls-41" x="1642.07" y="514.18" width="10.53" height="10.52"/>
            <rect class="cls-41" x="1642.07" y="598.38" width="105.25" height="10.52"/>
            <rect class="cls-41" x="1642.07" y="619.43" width="105.25" height="10.52"/>
            <rect class="cls-41" x="1642.07" y="535.23" width="10.53" height="10.52"/>
            <rect class="cls-41" x="1665.76" y="535.23" width="10.52" height="10.52"/>
            <rect class="cls-41" x="1665.76" y="514.18" width="10.52" height="10.52"/>
            <rect class="cls-41" x="1689.44" y="514.18" width="10.52" height="10.52"/>
            <rect class="cls-41" x="1689.44" y="535.23" width="10.52" height="10.52"/>
            <rect class="cls-41" x="1713.12" y="535.23" width="10.52" height="10.52"/>
            <rect class="cls-41" x="1713.12" y="514.18" width="10.52" height="10.52"/>
            <rect class="cls-41" x="1736.8" y="514.18" width="10.52" height="10.52"/>
            <rect class="cls-41" x="1736.8" y="535.23" width="10.52" height="10.52"/>
            <rect x="1821" y="335.25" width="84.2" height="10.53"/>
          </g>
          <g>
            <g>
              <g>
                <path class="cls-51" d="m1294.36,111.73l-16.26-28.16v-.22l-.19-.11-16.26-28.16h-32.53s-.18-.11-.18-.11l-.2.11h-32.51l-16.25,28.15h-.02s-.18.12-.18.12v.23l-16.25,28.15,16.25,28.15v.23l.2.11,16.25,28.16h32.52s.18.11.18.11l.2-.11h32.52l16.25-28.16h.01s.18-.11.18-.11v-.23l16.26-28.16Zm-64.05-.36l47.06-27.17v27.17h-47.06Zm47.06.73v27.17l-47.07-27.17h47.07Zm-47.43-1.36l23.53-40.76,23.53,13.59-47.06,27.17Zm-.64-.36v-54.35l23.54,13.59-23.54,40.76Zm-.73,0l-23.53-40.76,23.53-13.59v54.34Zm-.63.37l-47.07-27.17,23.53-13.59,23.53,40.76Zm-.37.63h-47.06s0-27.17,0-27.17l47.06,27.17Zm0,.73l-47.07,27.17v-27.17h47.07Zm.37.63l-23.53,40.76-23.53-13.59,47.07-27.17Zm.63.37v54.34l-23.53-13.59,23.53-40.76Zm.73,0l23.54,40.76-23.54,13.59v-54.35Zm.64-.36l47.06,27.17-23.53,13.59-23.53-40.76Zm48.16-.64h15.2l-15.2,26.33v-26.33Zm15.2-.73h-15.2v-26.33l15.2,26.33Zm-39.46-42.02l7.6-13.17,15.2,26.33-22.8-13.17Zm6.97-13.53l-7.6,13.17-22.8-13.17h30.41Zm-56.13,13.16l-7.6-13.16h30.4l-22.8,13.16Zm-8.23-12.8l7.6,13.16-22.8,13.16,15.2-26.33Zm-16.66,55.19h-15.2l15.2-26.33v26.33Zm-15.2.73h15.2v26.33l-15.2-26.33Zm39.46,42.03l-7.6,13.16-15.2-26.33,22.8,13.16Zm-6.97,13.53l7.6-13.16,22.8,13.16h-30.4Zm56.13-13.17l7.6,13.17h-30.41l22.8-13.17Zm8.23,12.8l-7.6-13.17,22.8-13.16-15.2,26.33Z"/>
                <path class="cls-43" d="m1264.96,174.12h-72.04l-36.02-62.39,36.02-62.39h72.04l36.02,62.38-36.02,62.39Zm-70.33-2.96h68.61l34.31-59.43-34.31-59.42h-68.61l-34.31,59.42,34.31,59.42Z"/>
                <polygon class="cls-43" points="1204.45 154.15 1179.95 111.73 1204.45 69.31 1253.44 69.31 1277.93 111.73 1253.44 154.15 1204.45 154.15"/>
              </g>
              <path class="cls-19" d="m1252.48,114.65h-12.6l-4.08-15.25c1.06-1.45,1.7-3.23,1.7-5.17,0-4.05-2.76-7.45-6.51-8.44v-6.56h-4.44v6.56c-3.75.99-6.51,4.39-6.51,8.44,0,1.93.64,3.71,1.7,5.16l-4.09,15.26h-12.6v.89h12.36l-6.54,24.4,1.8,4.16,3.64-2.71,6.93-25.86h11.05l6.93,25.89,1.15-.31.42,1.57,1.15-.31.84,3.13.86-.23-.84-3.13,1.14-.31-.42-1.57,1.15-.31-6.55-24.43h12.36v-.89Zm-23.72-25.29c2.69,0,4.87,2.18,4.87,4.87s-2.18,4.87-4.87,4.87-4.87-2.18-4.87-4.87,2.18-4.87,4.87-4.87Zm-5.29,25.29l3.2-11.95c.67.16,1.36.26,2.09.26s1.42-.1,2.08-.26l3.2,11.95h-10.58Z"/>
            </g>
            <g>
              <g>
                <path d="m1426.21,144.68c-.54-11.58,2.18-15,5.95-19.74,1.83-2.3,3.9-4.9,6.1-9.07,6.82-12.93,12.2-23.14,1.35-43.91-10.43-19.97-32.61-19.09-32.84-19.08h-.08s-.09,0-.09,0c-.92-.04-22.44-.83-32.84,19.08-10.85,20.77-5.47,30.99,1.35,43.91l1.43,2.31,10.21-11.17,1.24,1.77s2.22,3.17,4.93,5.87c2.71,2.71,5.84,4.9,5.87,4.93l1.68,1.17-20.95,21.42-2.48-2.42,18.13-18.54c-1.25-.97-3.03-2.43-4.7-4.1-1.63-1.63-3.07-3.37-4.03-4.61l-10.43,11.41-3.9-6.31c-6.77-12.83-13.11-24.85-1.42-47.24,11.1-21.25,34.38-20.98,35.99-20.94,1.61-.04,24.89-.32,36,20.94,11.69,22.38,5.35,34.41-1.36,47.14-2.35,4.45-4.62,7.31-6.45,9.61-3.54,4.45-5.68,7.14-5.2,17.42l-3.46.16Z"/>
                <polygon points="1428.41 151.12 1383.24 151.12 1383.24 140.71 1386.7 140.71 1386.7 147.66 1428.41 147.66 1428.41 151.12"/>
                <g>
                  <path class="cls-15" d="m1429.75,84.14c-1.52,1.52-3.99,1.52-5.51,0-1.52-1.52-1.52-3.98,0-5.5,1.53-1.52,3.99-1.52,5.51,0,1.52,1.52,1.52,3.98,0,5.5Z"/>
                  <path class="cls-9" d="m1422.21,86.87l-8.96,8.96c.39.91.22,2-.51,2.74-.97.97-2.54.97-3.5,0-.97-.97-.97-2.53,0-3.5.74-.74,1.83-.91,2.74-.51l8.95-8.96c-4.97,2.67-15.2,7.31-24.51,6.1,0,0-1.58,8.47-6.5,14.97,0,0,2.26,3.25,5.12,6.1,2.86,2.86,6.1,5.12,6.1,5.12,6.5-4.92,14.97-6.5,14.97-6.5-1.21-9.31,3.43-19.55,6.1-24.52Z"/>
                </g>
              </g>
              <polygon class="cls-15" points="1412.92 174.05 1401.99 174.05 1394.58 165.2 1420.32 165.2 1412.92 174.05"/>
              <rect class="cls-15" x="1385.73" y="154.94" width="43.44" height="6.02"/>
            </g>
            <g>
              <path class="cls-40" d="m1623.37,53.78v118.37h19.73V53.78h-19.73Zm9.86,12.33c-1.36,0-2.47-1.11-2.47-2.47s1.11-2.47,2.47-2.47,2.47,1.11,2.47,2.47-1.11,2.47-2.47,2.47Z"/>
              <polygon class="cls-40" points="1613.5 172.15 1514.86 172.15 1514.86 63.64 1524.73 53.78 1613.5 53.78 1613.5 172.15"/>
              <polygon class="cls-36" points="1611.04 169.68 1512.39 169.68 1512.39 61.18 1522.26 51.31 1611.04 51.31 1611.04 169.68"/>
              <polygon class="cls-37" points="1512.39 61.18 1522.26 51.31 1522.26 61.18 1512.39 61.18"/>
              <path class="cls-37" d="m1625.83,58.71v9.86h9.86v-9.86h-9.86Zm4.93,7.4c-1.36,0-2.47-1.11-2.47-2.47s1.11-2.47,2.47-2.47,2.47,1.11,2.47,2.47-1.11,2.47-2.47,2.47Z"/>
              <path class="cls-36" d="m1620.9,51.31v115.91h19.73V51.31h-19.73Zm9.86,12.33c-1.36,0-2.47-1.11-2.47-2.47s1.11-2.47,2.47-2.47,2.47,1.11,2.47,2.47-1.11,2.47-2.47,2.47Z"/>
              <g>
                <rect class="cls-37" x="1620.9" y="159.2" width="4.93" height="1.23"/>
                <rect class="cls-37" x="1620.9" y="146.87" width="4.93" height="1.23"/>
                <rect class="cls-37" x="1620.9" y="156.74" width="2.47" height="1.23"/>
                <rect class="cls-37" x="1620.9" y="154.27" width="2.47" height="1.23"/>
                <rect class="cls-37" x="1620.9" y="151.8" width="2.47" height="1.23"/>
                <rect class="cls-37" x="1620.9" y="149.34" width="2.47" height="1.23"/>
                <rect class="cls-37" x="1620.9" y="134.54" width="4.93" height="1.23"/>
                <rect class="cls-37" x="1620.9" y="144.41" width="2.47" height="1.23"/>
                <rect class="cls-37" x="1620.9" y="141.94" width="2.47" height="1.23"/>
                <rect class="cls-37" x="1620.9" y="139.47" width="2.47" height="1.23"/>
                <rect class="cls-37" x="1620.9" y="137.01" width="2.47" height="1.23"/>
                <rect class="cls-37" x="1620.9" y="122.21" width="4.93" height="1.23"/>
                <rect class="cls-37" x="1620.9" y="132.08" width="2.47" height="1.23"/>
                <rect class="cls-37" x="1620.9" y="129.61" width="2.47" height="1.23"/>
                <rect class="cls-37" x="1620.9" y="127.14" width="2.47" height="1.23"/>
                <rect class="cls-37" x="1620.9" y="124.68" width="2.47" height="1.23"/>
                <rect class="cls-37" x="1620.9" y="109.88" width="4.93" height="1.23"/>
                <rect class="cls-37" x="1620.9" y="119.75" width="2.47" height="1.23"/>
                <rect class="cls-37" x="1620.9" y="117.28" width="2.47" height="1.23"/>
                <rect class="cls-37" x="1620.9" y="114.81" width="2.47" height="1.23"/>
                <rect class="cls-37" x="1620.9" y="112.35" width="2.47" height="1.23"/>
                <rect class="cls-37" x="1620.9" y="97.55" width="4.93" height="1.23"/>
                <rect class="cls-37" x="1620.9" y="107.42" width="2.47" height="1.23"/>
                <rect class="cls-37" x="1620.9" y="104.95" width="2.47" height="1.23"/>
                <rect class="cls-37" x="1620.9" y="102.48" width="2.47" height="1.23"/>
                <rect class="cls-37" x="1620.9" y="100.02" width="2.47" height="1.23"/>
                <rect class="cls-37" x="1620.9" y="85.22" width="4.93" height="1.23"/>
                <rect class="cls-37" x="1620.9" y="95.09" width="2.47" height="1.23"/>
                <rect class="cls-37" x="1620.9" y="92.62" width="2.47" height="1.23"/>
                <rect class="cls-37" x="1620.9" y="90.15" width="2.47" height="1.23"/>
                <rect class="cls-37" x="1620.9" y="87.69" width="2.47" height="1.23"/>
                <rect class="cls-37" x="1620.9" y="72.89" width="4.93" height="1.23"/>
                <rect class="cls-37" x="1620.9" y="82.75" width="2.47" height="1.23"/>
                <rect class="cls-37" x="1620.9" y="80.29" width="2.47" height="1.23"/>
                <rect class="cls-37" x="1620.9" y="77.82" width="2.47" height="1.23"/>
                <rect class="cls-37" x="1620.9" y="75.36" width="2.47" height="1.23"/>
                <rect class="cls-37" x="1620.9" y="60.56" width="4.93" height="1.23"/>
                <rect class="cls-37" x="1620.9" y="70.42" width="2.47" height="1.23"/>
                <rect class="cls-37" x="1620.9" y="67.96" width="2.47" height="1.23"/>
                <rect class="cls-37" x="1620.9" y="65.49" width="2.47" height="1.23"/>
                <rect class="cls-37" x="1620.9" y="63.03" width="2.47" height="1.23"/>
              </g>
              <rect class="cls-27" x="1630.15" y="134.54" width="6.17" height="25.89"/>
              <path class="cls-58" d="m1547.78,114.57l-13.96,13.96c4.9,4.89,11.01,8.41,17.69,10.21l5.11-19.06c-3.34-.9-6.39-2.66-8.84-5.1Z"/>
              <path class="cls-55" d="m1566.82,119.69l5.11,19.06c6.94-1.86,12.95-5.47,17.68-10.22l-13.96-13.96c-2.37,2.37-5.36,4.19-8.83,5.12Z"/>
              <path class="cls-56" d="m1575.66,114.57l13.96,13.96c4.89-4.9,8.41-11.01,10.21-17.69l-19.06-5.11c-.9,3.34-2.66,6.39-5.1,8.84Z"/>
              <path class="cls-54" d="m1575.66,86.69c2.37,2.37,4.19,5.36,5.12,8.83l19.06-5.11c-1.86-6.94-5.47-12.95-10.22-17.68l-13.96,13.96Z"/>
              <path class="cls-57" d="m1556.61,119.68l-5.11,19.06c6.48,1.74,13.48,1.87,20.42,0l-5.11-19.06c-3.47.93-6.97.86-10.21-.01Z"/>
              <path class="cls-63" d="m1580.76,105.74l19.06,5.11c1.74-6.48,1.87-13.48,0-20.42l-19.06,5.11c.93,3.47.86,6.97-.01,10.21Z"/>
              <path class="cls-61" d="m1547.78,86.69l-13.96-13.96c-4.89,4.9-8.41,11.01-10.21,17.69l19.06,5.11c.9-3.34,2.66-6.39,5.1-8.84Z"/>
              <path class="cls-60" d="m1556.61,81.58l-5.11-19.06c-6.94,1.86-12.95,5.47-17.68,10.22l13.96,13.96c2.37-2.37,5.36-4.19,8.83-5.12Z"/>
              <path class="cls-28" d="m1566.82,81.59l5.11-19.06c-6.48-1.74-13.48-1.87-20.42,0l5.11,19.06c3.47-.93,6.97-.86,10.21.01Z"/>
              <path class="cls-64" d="m1542.67,95.53l-19.06-5.11c-1.74,6.48-1.87,13.48,0,20.42l19.06-5.11c-.93-3.47-.86-6.97.01-10.21Z"/>
              <path class="cls-59" d="m1542.66,105.74l-19.06,5.11c1.86,6.94,5.47,12.95,10.22,17.68l13.96-13.96c-2.37-2.37-4.19-5.36-5.12-8.83Z"/>
              <path class="cls-62" d="m1575.66,86.69l13.96-13.96c-4.9-4.89-11.01-8.41-17.69-10.21l-5.11,19.06c3.34.9,6.39,2.66,8.84,5.1Z"/>
              <path d="m1606.11,55.01c0,.68.55,1.23,1.23,1.23s1.23-.55,1.23-1.23-.55-1.23-1.23-1.23-1.23.55-1.23,1.23Z"/>
              <path d="m1606.11,165.98c0,.68.55,1.23,1.23,1.23s1.23-.55,1.23-1.23-.55-1.23-1.23-1.23-1.23.55-1.23,1.23Z"/>
              <path d="m1514.86,165.98c0,.68.55,1.23,1.23,1.23s1.23-.55,1.23-1.23-.55-1.23-1.23-1.23-1.23.55-1.23,1.23Z"/>
              <polygon class="cls-3" points="1536.09 115.43 1561.72 71.04 1587.34 115.43 1536.09 115.43"/>
              <circle cx="1561.74" cy="71.04" r="2.47" transform="translate(1102.91 1565.55) rotate(-75.54)"/>
              <path class="cls-36" d="m1561.74,72.27c-.68,0-1.23-.55-1.23-1.23s.55-1.23,1.23-1.23,1.23.55,1.23,1.23-.55,1.23-1.23,1.23Z"/>
              <circle cx="1536.09" cy="115.43" r="2.47"/>
              <path class="cls-36" d="m1536.09,116.66c-.68,0-1.23-.55-1.23-1.23s.55-1.23,1.23-1.23,1.23.55,1.23,1.23-.55,1.23-1.23,1.23Z"/>
              <circle cx="1587.3" cy="115.43" r="2.47" transform="translate(1109.23 1633.42) rotate(-76.68)"/>
              <path class="cls-36" d="m1587.3,116.66c-.68,0-1.23-.55-1.23-1.23s.55-1.23,1.23-1.23,1.23.55,1.23,1.23-.55,1.23-1.23,1.23Z"/>
              <g>
                <g>
                  <rect class="cls-39" x="1522.26" y="149.96" width="9.86" height="4.93"/>
                  <path class="cls-36" d="m1532.12,149.03h-9.86c-.5,0-.92.42-.92.92v4.93c0,.5.42.92.92.92h9.86c.5,0,.92-.42.92-.92v-4.93c0-1.19-1.85-1.19-1.85,0v4.93l.92-.92h-9.86l.92.92v-4.93l-.92.92h9.86c1.19,0,1.19-1.85,0-1.85Z"/>
                </g>
                <g>
                  <rect class="cls-42" x="1532.12" y="149.96" width="9.86" height="4.93"/>
                  <path class="cls-36" d="m1541.99,149.03h-9.86c-.5,0-.92.42-.92.92v4.93c0,.5.42.92.92.92h9.86c.5,0,.92-.42.92-.92v-4.93c0-1.19-1.85-1.19-1.85,0v4.93l.92-.92h-9.86l.92.92v-4.93l-.92.92h9.86c1.19,0,1.19-1.85,0-1.85Z"/>
                </g>
                <g>
                  <rect class="cls-45" x="1541.99" y="149.96" width="9.86" height="4.93"/>
                  <path class="cls-36" d="m1551.85,149.03h-9.86c-.5,0-.92.42-.92.92v4.93c0,.5.42.92.92.92h9.86c.5,0,.92-.42.92-.92v-4.93c0-1.19-1.85-1.19-1.85,0v4.93l.92-.92h-9.86l.92.92v-4.93l-.92.92h9.86c1.19,0,1.19-1.85,0-1.85Z"/>
                </g>
                <g>
                  <rect class="cls-48" x="1551.85" y="149.96" width="9.86" height="4.93"/>
                  <path class="cls-36" d="m1561.72,149.03h-9.86c-.5,0-.92.42-.92.92v4.93c0,.5.42.92.92.92h9.86c.5,0,.92-.42.92-.92v-4.93c0-1.19-1.85-1.19-1.85,0v4.93l.92-.92h-9.86l.92.92v-4.93l-.92.92h9.86c1.19,0,1.19-1.85,0-1.85Z"/>
                </g>
                <g>
                  <rect class="cls-47" x="1561.72" y="149.96" width="9.86" height="4.93"/>
                  <path class="cls-36" d="m1571.58,149.03h-9.86c-.5,0-.92.42-.92.92v4.93c0,.5.42.92.92.92h9.86c.5,0,.92-.42.92-.92v-4.93c0-1.19-1.85-1.19-1.85,0v4.93l.92-.92h-9.86l.92.92v-4.93l-.92.92h9.86c1.19,0,1.19-1.85,0-1.85Z"/>
                </g>
                <g>
                  <rect class="cls-44" x="1571.58" y="149.96" width="9.86" height="4.93"/>
                  <path class="cls-36" d="m1581.44,149.03h-9.86c-.5,0-.92.42-.92.92v4.93c0,.5.42.92.92.92h9.86c.5,0,.92-.42.92-.92v-4.93c0-1.19-1.85-1.19-1.85,0v4.93l.92-.92h-9.86l.92.92v-4.93l-.92.92h9.86c1.19,0,1.19-1.85,0-1.85Z"/>
                </g>
                <g>
                  <rect class="cls-14" x="1581.44" y="149.96" width="9.86" height="4.93"/>
                  <path class="cls-36" d="m1591.31,149.03h-9.86c-.5,0-.92.42-.92.92v4.93c0,.5.42.92.92.92h9.86c.5,0,.92-.42.92-.92v-4.93c0-1.19-1.85-1.19-1.85,0v4.93l.92-.92h-9.86l.92.92v-4.93l-.92.92h9.86c1.19,0,1.19-1.85,0-1.85Z"/>
                </g>
                <g>
                  <rect x="1591.31" y="149.96" width="9.86" height="4.93"/>
                  <path class="cls-36" d="m1601.17,149.03h-9.86c-.5,0-.92.42-.92.92v4.93c0,.5.42.92.92.92h9.86c.5,0,.92-.42.92-.92v-4.93c0-1.19-1.85-1.19-1.85,0v4.93l.92-.92h-9.86l.92.92v-4.93l-.92.92h9.86c1.19,0,1.19-1.85,0-1.85Z"/>
                </g>
              </g>
              <g>
                <g>
                  <rect class="cls-39" x="1522.26" y="154.89" width="9.86" height="4.93"/>
                  <path class="cls-36" d="m1532.12,153.96h-9.86c-.5,0-.92.42-.92.92v4.93c0,.5.42.92.92.92h9.86c.5,0,.92-.42.92-.92v-4.93c0-1.19-1.85-1.19-1.85,0v4.93l.92-.92h-9.86l.92.92v-4.93l-.92.92h9.86c1.19,0,1.19-1.85,0-1.85Z"/>
                </g>
                <g>
                  <rect class="cls-46" x="1532.12" y="154.89" width="9.86" height="4.93"/>
                  <path class="cls-36" d="m1541.99,153.96h-9.86c-.5,0-.92.42-.92.92v4.93c0,.5.42.92.92.92h9.86c.5,0,.92-.42.92-.92v-4.93c0-1.19-1.85-1.19-1.85,0v4.93l.92-.92h-9.86l.92.92v-4.93l-.92.92h9.86c1.19,0,1.19-1.85,0-1.85Z"/>
                </g>
                <g>
                  <rect class="cls-52" x="1541.99" y="154.89" width="9.86" height="4.93"/>
                  <path class="cls-36" d="m1551.85,153.96h-9.86c-.5,0-.92.42-.92.92v4.93c0,.5.42.92.92.92h9.86c.5,0,.92-.42.92-.92v-4.93c0-1.19-1.85-1.19-1.85,0v4.93l.92-.92h-9.86l.92.92v-4.93l-.92.92h9.86c1.19,0,1.19-1.85,0-1.85Z"/>
                </g>
                <g>
                  <rect class="cls-53" x="1551.85" y="154.89" width="9.86" height="4.93"/>
                  <path class="cls-36" d="m1561.72,153.96h-9.86c-.5,0-.92.42-.92.92v4.93c0,.5.42.92.92.92h9.86c.5,0,.92-.42.92-.92v-4.93c0-1.19-1.85-1.19-1.85,0v4.93l.92-.92h-9.86l.92.92v-4.93l-.92.92h9.86c1.19,0,1.19-1.85,0-1.85Z"/>
                </g>
                <g>
                  <rect class="cls-49" x="1561.72" y="154.89" width="9.86" height="4.93"/>
                  <path class="cls-36" d="m1571.58,153.96h-9.86c-.5,0-.92.42-.92.92v4.93c0,.5.42.92.92.92h9.86c.5,0,.92-.42.92-.92v-4.93c0-1.19-1.85-1.19-1.85,0v4.93l.92-.92h-9.86l.92.92v-4.93l-.92.92h9.86c1.19,0,1.19-1.85,0-1.85Z"/>
                </g>
                <g>
                  <rect class="cls-35" x="1571.58" y="154.89" width="9.86" height="4.93"/>
                  <path class="cls-36" d="m1581.44,153.96h-9.86c-.5,0-.92.42-.92.92v4.93c0,.5.42.92.92.92h9.86c.5,0,.92-.42.92-.92v-4.93c0-1.19-1.85-1.19-1.85,0v4.93l.92-.92h-9.86l.92.92v-4.93l-.92.92h9.86c1.19,0,1.19-1.85,0-1.85Z"/>
                </g>
                <g>
                  <rect class="cls-38" x="1581.44" y="154.89" width="9.86" height="4.93"/>
                  <path class="cls-36" d="m1591.31,153.96h-9.86c-.5,0-.92.42-.92.92v4.93c0,.5.42.92.92.92h9.86c.5,0,.92-.42.92-.92v-4.93c0-1.19-1.85-1.19-1.85,0v4.93l.92-.92h-9.86l.92.92v-4.93l-.92.92h9.86c1.19,0,1.19-1.85,0-1.85Z"/>
                </g>
                <g>
                  <rect class="cls-27" x="1591.31" y="154.89" width="9.86" height="4.93"/>
                  <path class="cls-36" d="m1601.17,153.96h-9.86c-.5,0-.92.42-.92.92v4.93c0,.5.42.92.92.92h9.86c.5,0,.92-.42.92-.92v-4.93c0-1.19-1.85-1.19-1.85,0v4.93l.92-.92h-9.86l.92.92v-4.93l-.92.92h9.86c1.19,0,1.19-1.85,0-1.85Z"/>
                </g>
              </g>
            </g>
          </g>
          <g>
            <g class="cls-5">
              <rect class="cls-66" x="93.26" y="398.9" width="615.74" height="265.06"/>
            </g>
            <g>
              <path class="cls-33" d="m185.19,428.22c-.14-1.21-.7-2.15-1.69-2.82s-2.23-1-3.73-1c-1.07,0-2,.17-2.79.5-.78.34-1.39.8-1.82,1.38-.43.58-.65,1.25-.65,1.99,0,.62.15,1.16.44,1.61.29.45.68.83,1.16,1.13s1,.55,1.55.75c.55.2,1.09.37,1.6.49l2.56.67c.84.21,1.69.48,2.57.83.88.35,1.69.81,2.44,1.38s1.36,1.28,1.82,2.12c.46.84.7,1.85.7,3.03,0,1.48-.38,2.8-1.14,3.95-.76,1.15-1.87,2.06-3.31,2.72-1.44.67-3.19,1-5.23,1s-3.66-.31-5.09-.93-2.55-1.51-3.36-2.65c-.81-1.15-1.26-2.51-1.34-4.08h3.96c.08.95.39,1.73.93,2.36.54.63,1.23,1.09,2.08,1.39s1.78.45,2.79.45c1.12,0,2.11-.18,2.98-.53.87-.35,1.56-.85,2.06-1.48.5-.63.75-1.38.75-2.23,0-.78-.22-1.41-.66-1.9-.44-.49-1.03-.9-1.78-1.23-.75-.32-1.59-.61-2.52-.86l-3.09-.84c-2.1-.57-3.76-1.41-4.98-2.52-1.22-1.11-1.83-2.57-1.83-4.4,0-1.51.41-2.83,1.23-3.95.82-1.12,1.93-2,3.32-2.63,1.4-.63,2.97-.94,4.73-.94s3.34.31,4.7.93,2.43,1.48,3.22,2.56c.78,1.09,1.19,2.33,1.23,3.74h-3.81Z"/>
              <path class="cls-33" d="m195.7,424.86c-.67,0-1.23-.22-1.71-.67-.47-.45-.71-.98-.71-1.6s.24-1.17.71-1.62c.47-.45,1.04-.67,1.71-.67s1.23.22,1.71.67c.47.45.71.99.71,1.62s-.24,1.16-.71,1.6c-.47.45-1.04.67-1.71.67Zm-1.93,22.67v-19.64h3.82v19.64h-3.82Z"/>
              <path class="cls-33" d="m202.73,447.52v-19.64h3.67v3.2h.24c.41-1.08,1.08-1.93,2.01-2.54.93-.61,2.04-.91,3.34-.91s2.41.31,3.3.92,1.55,1.46,1.98,2.53h.2c.47-1.05,1.21-1.89,2.24-2.51,1.02-.63,2.24-.94,3.66-.94,1.78,0,3.24.56,4.37,1.67,1.13,1.12,1.69,2.8,1.69,5.05v13.17h-3.82v-12.81c0-1.33-.36-2.29-1.09-2.89-.72-.6-1.59-.89-2.6-.89-1.24,0-2.21.38-2.9,1.14s-1.04,1.74-1.04,2.93v12.52h-3.81v-13.05c0-1.07-.33-1.92-1-2.57-.66-.65-1.53-.97-2.59-.97-.72,0-1.39.19-2,.57-.61.38-1.1.91-1.47,1.58-.37.67-.56,1.45-.56,2.34v12.11h-3.82Z"/>
              <path class="cls-33" d="m234.54,454.89v-27h3.73v3.18h.32c.22-.41.54-.88.96-1.42.42-.54,1-1.01,1.74-1.41.74-.4,1.72-.61,2.94-.61,1.59,0,3,.4,4.24,1.2,1.24.8,2.22,1.96,2.93,3.46.71,1.51,1.07,3.32,1.07,5.45s-.35,3.94-1.06,5.45c-.71,1.51-1.68,2.68-2.92,3.49-1.24.81-2.65,1.22-4.23,1.22-1.19,0-2.17-.2-2.92-.6-.75-.4-1.34-.87-1.77-1.41-.43-.54-.75-1.01-.98-1.43h-.23v10.42h-3.82Zm3.75-17.18c0,1.38.2,2.59.6,3.63s.98,1.85,1.74,2.44c.76.58,1.69.88,2.79.88s2.1-.3,2.86-.91c.77-.61,1.35-1.44,1.75-2.49.4-1.05.59-2.23.59-3.54s-.19-2.46-.58-3.49c-.39-1.03-.97-1.84-1.74-2.44s-1.73-.89-2.88-.89-2.04.29-2.81.86-1.34,1.37-1.73,2.39c-.39,1.02-.59,2.22-.59,3.58Z"/>
              <path class="cls-33" d="m260.58,421.34v26.18h-3.82v-26.18h3.82Z"/>
              <path class="cls-33" d="m274.18,447.92c-1.93,0-3.6-.42-4.99-1.25-1.39-.83-2.47-2-3.22-3.52-.75-1.51-1.13-3.29-1.13-5.32s.38-3.78,1.13-5.32c.75-1.53,1.81-2.73,3.17-3.59,1.36-.86,2.95-1.29,4.78-1.29,1.11,0,2.18.18,3.22.55,1.04.37,1.97.94,2.8,1.73.83.78,1.48,1.8,1.96,3.05.48,1.25.72,2.76.72,4.54v1.35h-15.61v-2.86h11.86c0-1.01-.21-1.9-.61-2.68-.41-.78-.98-1.4-1.72-1.85-.74-.45-1.6-.68-2.59-.68-1.07,0-2.01.26-2.81.79s-1.41,1.21-1.84,2.05c-.43.84-.65,1.75-.65,2.73v2.24c0,1.31.23,2.43.7,3.35.46.92,1.11,1.62,1.95,2.1.83.48,1.81.72,2.93.72.72,0,1.38-.1,1.98-.31s1.11-.52,1.55-.94c.43-.42.77-.93,1-1.55l3.62.65c-.29,1.07-.81,2-1.55,2.79-.75.8-1.68,1.42-2.8,1.85-1.12.44-2.4.66-3.83.66Z"/>
              <path class="cls-33" d="m304.02,447.89c-1.76,0-3.27-.32-4.53-.96-1.27-.64-2.24-1.51-2.92-2.61s-1.02-2.35-1.02-3.75c0-1.07.22-2.01.67-2.84.44-.83,1.06-1.6,1.85-2.31.79-.71,1.71-1.42,2.75-2.13l4.22-2.98c.72-.47,1.27-.97,1.67-1.49.4-.52.6-1.17.6-1.95,0-.61-.26-1.2-.79-1.76-.53-.56-1.24-.84-2.12-.84-.61,0-1.15.15-1.62.45-.46.3-.83.68-1.09,1.14-.26.46-.39.95-.39,1.46,0,.6.16,1.2.49,1.8.33.61.75,1.23,1.27,1.87s1.07,1.31,1.64,2l12.16,14.54h-4.32l-10.06-11.83c-.84-1-1.63-1.94-2.35-2.82-.72-.88-1.31-1.78-1.76-2.68-.45-.91-.67-1.89-.67-2.95,0-1.2.28-2.27.82-3.2.55-.93,1.32-1.66,2.31-2.19.99-.53,2.15-.79,3.48-.79s2.5.26,3.47.79,1.71,1.22,2.24,2.08.79,1.81.79,2.83c0,1.25-.31,2.34-.93,3.29s-1.47,1.82-2.55,2.61l-5.25,3.87c-1.02.75-1.73,1.49-2.13,2.22-.4.73-.6,1.3-.6,1.71,0,.75.19,1.44.58,2.08.39.64.93,1.15,1.64,1.53.7.38,1.53.58,2.47.58s1.92-.21,2.84-.63c.92-.42,1.76-1.03,2.52-1.82.75-.79,1.35-1.74,1.8-2.85s.66-2.35.66-3.72h3.45c0,1.69-.19,3.11-.58,4.28-.38,1.16-.85,2.11-1.39,2.84-.54.73-1.05,1.3-1.53,1.71-.15.14-.3.27-.44.41-.14.14-.28.27-.43.41-.89.89-1.96,1.56-3.21,1.98s-2.5.64-3.71.64Z"/>
              <path class="cls-33" d="m329.68,447.52v-26.18h16.42v3.4h-12.46v7.98h11.61v3.39h-11.61v8.02h12.62v3.4h-16.57Z"/>
              <path class="cls-33" d="m354.9,421.34v26.18h-3.82v-26.18h3.82Z"/>
              <path class="cls-33" d="m368.5,447.92c-1.94,0-3.6-.42-4.99-1.25-1.39-.83-2.47-2-3.22-3.52-.75-1.51-1.13-3.29-1.13-5.32s.38-3.78,1.13-5.32c.75-1.53,1.81-2.73,3.17-3.59,1.36-.86,2.95-1.29,4.77-1.29,1.11,0,2.18.18,3.22.55,1.04.37,1.97.94,2.8,1.73.83.78,1.48,1.8,1.96,3.05.48,1.25.71,2.76.71,4.54v1.35h-15.61v-2.86h11.86c0-1.01-.2-1.9-.61-2.68-.41-.78-.98-1.4-1.72-1.85-.74-.45-1.6-.68-2.59-.68-1.07,0-2.01.26-2.8.79-.8.52-1.41,1.21-1.84,2.05-.43.84-.65,1.75-.65,2.73v2.24c0,1.31.23,2.43.7,3.35.46.92,1.12,1.62,1.95,2.1s1.81.72,2.93.72c.72,0,1.39-.1,1.98-.31.6-.21,1.11-.52,1.55-.94.43-.42.77-.93,1-1.55l3.62.65c-.29,1.07-.81,2-1.55,2.79-.75.8-1.68,1.42-2.8,1.85-1.12.44-2.4.66-3.83.66Z"/>
              <path class="cls-33" d="m389.42,455.29c-1.56,0-2.9-.2-4.02-.61s-2.03-.95-2.74-1.62c-.71-.67-1.24-1.41-1.58-2.21l3.29-1.36c.23.38.54.77.93,1.2.39.42.92.78,1.58,1.08.67.3,1.53.45,2.59.45,1.45,0,2.65-.35,3.59-1.05.95-.7,1.42-1.82,1.42-3.36v-3.86h-.24c-.23.42-.56.88-.99,1.39-.43.51-1.02.96-1.77,1.33-.75.38-1.73.56-2.93.56-1.55,0-2.95-.36-4.19-1.09-1.24-.73-2.22-1.81-2.94-3.23s-1.08-3.19-1.08-5.27.36-3.88,1.07-5.37c.71-1.49,1.69-2.63,2.93-3.43s2.65-1.2,4.23-1.2c1.22,0,2.2.2,2.95.61.75.41,1.34.88,1.76,1.41s.75,1.01.98,1.42h.28v-3.18h3.75v20.07c0,1.69-.39,3.07-1.18,4.16-.78,1.08-1.84,1.88-3.18,2.4-1.33.52-2.84.78-4.51.78Zm-.04-11.24c1.1,0,2.03-.26,2.79-.77.76-.52,1.34-1.26,1.74-2.22.4-.97.59-2.13.59-3.48s-.2-2.48-.59-3.49c-.39-1-.97-1.79-1.73-2.36-.76-.57-1.7-.85-2.81-.85s-2.11.3-2.88.89c-.77.59-1.34,1.4-1.73,2.41-.39,1.01-.58,2.15-.58,3.4s.2,2.42.59,3.39c.39.97.97,1.73,1.75,2.28.77.54,1.72.82,2.86.82Z"/>
              <path class="cls-33" d="m409.12,447.96c-1.25,0-2.37-.23-3.38-.7-1.01-.46-1.8-1.14-2.38-2.03-.58-.89-.88-1.97-.88-3.26,0-1.11.21-2.02.64-2.74s1-1.28,1.73-1.7c.72-.42,1.53-.73,2.43-.95.89-.21,1.81-.38,2.74-.49,1.18-.14,2.13-.25,2.86-.34s1.27-.24,1.6-.44c.33-.2.5-.54.5-1v-.09c0-1.12-.31-1.98-.94-2.6s-1.56-.92-2.79-.92-2.3.28-3.04.85c-.74.57-1.25,1.2-1.53,1.89l-3.59-.82c.43-1.19,1.05-2.16,1.87-2.9s1.77-1.27,2.84-1.61c1.07-.34,2.2-.5,3.39-.5.78,0,1.62.09,2.5.27.88.18,1.71.52,2.48,1,.77.49,1.4,1.18,1.9,2.08s.74,2.06.74,3.5v13.04h-3.73v-2.68h-.15c-.25.49-.62.98-1.11,1.46-.49.48-1.13.87-1.91,1.19-.78.32-1.7.47-2.79.47Zm.83-3.07c1.06,0,1.96-.21,2.72-.63s1.33-.97,1.73-1.64c.4-.68.59-1.4.59-2.18v-2.53c-.14.14-.4.26-.79.38s-.83.21-1.32.29-.98.15-1.44.22c-.47.06-.86.12-1.18.16-.74.09-1.42.25-2.03.47-.61.22-1.1.54-1.46.95s-.54.96-.54,1.64c0,.95.35,1.66,1.05,2.14s1.59.72,2.67.72Z"/>
              <path class="cls-33" d="m427.72,435.86v11.66h-3.82v-19.64h3.67v3.2h.24c.45-1.04,1.16-1.88,2.13-2.51.97-.63,2.19-.95,3.66-.95,1.34,0,2.51.28,3.52.84s1.79,1.39,2.34,2.49c.55,1.1.83,2.46.83,4.08v12.49h-3.82v-12.03c0-1.42-.37-2.54-1.11-3.34-.74-.81-1.76-1.21-3.06-1.21-.89,0-1.67.19-2.36.58-.69.38-1.23.94-1.62,1.68-.4.74-.59,1.62-.59,2.67Z"/>
              <path class="cls-33" d="m454.57,427.89v3.07h-10.73v-3.07h10.73Zm-7.85-4.7h3.82v18.58c0,.74.11,1.3.33,1.67.22.37.51.62.86.75.35.13.74.2,1.16.2.31,0,.58-.02.81-.06.23-.04.41-.08.54-.1l.69,3.16c-.22.08-.54.17-.95.26-.41.09-.92.14-1.53.15-1.01.02-1.94-.16-2.81-.54s-1.57-.95-2.11-1.74-.81-1.77-.81-2.95v-19.37Z"/>
              <path class="cls-33" d="m472.14,421.34v26.18h-3.82v-26.18h3.82Z"/>
              <path class="cls-33" d="m485.55,447.92c-1.84,0-3.45-.42-4.82-1.27-1.37-.84-2.44-2.02-3.2-3.54-.76-1.52-1.14-3.29-1.14-5.32s.38-3.82,1.14-5.34,1.82-2.71,3.2-3.55c1.37-.84,2.98-1.27,4.82-1.27s3.45.42,4.82,1.27c1.37.84,2.44,2.03,3.2,3.55s1.14,3.31,1.14,5.34-.38,3.8-1.14,5.32c-.76,1.52-1.82,2.7-3.2,3.54-1.37.84-2.98,1.27-4.82,1.27Zm.01-3.21c1.19,0,2.18-.32,2.97-.95.78-.63,1.37-1.47,1.74-2.52.38-1.05.57-2.2.57-3.46s-.19-2.41-.57-3.46-.96-1.9-1.74-2.54c-.79-.64-1.77-.96-2.97-.96s-2.2.32-2.98.96c-.79.64-1.37,1.49-1.75,2.54s-.57,2.21-.57,3.46.19,2.42.57,3.46c.38,1.05.96,1.89,1.75,2.52.79.63,1.78.95,2.98.95Z"/>
              <path class="cls-33" d="m507.23,447.92c-1.84,0-3.45-.42-4.82-1.27-1.37-.84-2.44-2.02-3.2-3.54-.76-1.52-1.14-3.29-1.14-5.32s.38-3.82,1.14-5.34c.76-1.53,1.82-2.71,3.2-3.55,1.37-.84,2.98-1.27,4.82-1.27s3.45.42,4.82,1.27c1.37.84,2.44,2.03,3.2,3.55.76,1.53,1.14,3.31,1.14,5.34s-.38,3.8-1.14,5.32c-.76,1.52-1.82,2.7-3.2,3.54-1.37.84-2.98,1.27-4.82,1.27Zm.01-3.21c1.19,0,2.18-.32,2.97-.95.78-.63,1.37-1.47,1.75-2.52.38-1.05.57-2.2.57-3.46s-.19-2.41-.57-3.46-.96-1.9-1.75-2.54c-.78-.64-1.77-.96-2.97-.96s-2.2.32-2.99.96c-.79.64-1.37,1.49-1.75,2.54-.38,1.05-.57,2.21-.57,3.46s.19,2.42.57,3.46c.38,1.05.96,1.89,1.75,2.52.79.63,1.78.95,2.99.95Z"/>
              <path class="cls-33" d="m520.65,447.52v-26.18h3.82v26.18h-3.82Zm3.52-6.66l-.03-4.67h.67l7.82-8.31h4.58l-8.92,9.46h-.6l-3.52,3.52Zm8.88,6.66l-7.03-9.33,2.63-2.67,9.09,12h-4.69Z"/>
              <path class="cls-33" d="m555.39,432.68l-3.46.61c-.14-.44-.37-.87-.68-1.27-.31-.4-.73-.73-1.26-.98-.53-.26-1.19-.38-1.98-.38-1.08,0-1.99.24-2.71.72s-1.09,1.1-1.09,1.86c0,.66.24,1.19.73,1.59.49.4,1.27.73,2.35.98l3.12.72c1.81.42,3.15,1.06,4.04,1.93.89.87,1.33,2,1.33,3.39,0,1.18-.34,2.22-1.02,3.14-.68.92-1.62,1.63-2.83,2.15-1.21.52-2.6.78-4.19.78-2.2,0-3.99-.47-5.38-1.41-1.39-.94-2.24-2.28-2.56-4.02l3.7-.56c.23.96.7,1.69,1.42,2.18.72.49,1.65.74,2.8.74,1.25,0,2.25-.26,3-.79s1.12-1.17,1.12-1.92c0-.61-.23-1.13-.68-1.55-.46-.42-1.15-.73-2.09-.95l-3.32-.73c-1.83-.42-3.19-1.08-4.06-1.99-.87-.91-1.31-2.07-1.31-3.46,0-1.16.32-2.17.97-3.04s1.54-1.55,2.68-2.04c1.14-.49,2.45-.73,3.92-.73,2.12,0,3.79.46,5.01,1.37s2.02,2.14,2.42,3.67Z"/>
            </g>
            <g>
              <rect class="cls-36" x="312.72" y="278.43" width="100" height="100"/>
              <g>
                <g>
                  <rect class="cls-18" x="353.82" y="350.95" width="18.44" height="6.65"/>
                  <path class="cls-18" d="m372.32,311.73l-7.88-12.47h-.21c-.38,0-.69.31-.69.69v20.76c0,.63.39,1.18.96,1.43,1.54.68,2.62,2.22,2.63,4.02,0,2.32-1.85,4.29-4.16,4.41-2.54.14-4.65-1.89-4.65-4.4,0-1.8,1.08-3.35,2.63-4.03.58-.25.96-.81.96-1.44v-20.75c0-.38-.31-.69-.69-.69h-.21l-7.88,12.47-6.99,10.77c-1.36,2.1-1.61,4.73-.66,7.04l8.24,20.11h18.01l8.24-20.11c.95-2.31.7-4.94-.66-7.04l-6.99-10.77Z"/>
                </g>
                <path class="cls-18" d="m373.04,351.67h-20.05c-.25,0-.46-.2-.46-.46h0c0-.25.2-.46.46-.46h20.05c.25,0,.46.2.46.46h0c0,.25-.2.46-.46.46Z"/>
              </g>
            </g>
          </g>
        </g>
      </g>
    </g>
  </g>
</svg>