<?xml version="1.0" encoding="UTF-8"?>
<svg id="Layer_2" data-name="Layer 2" xmlns="http://www.w3.org/2000/svg" viewBox="0 0 800 800">
  <defs>
    <style>
      .cls-1 {
        fill: #f7f7f5;
      }

      .cls-2 {
        fill: #333;
      }
    </style>
  </defs>
  <g id="Layer_1-2" data-name="Layer 1">
    <g>
      <circle class="cls-2" cx="400" cy="400" r="400"/>
      <g id="assets">
        <path class="cls-1" d="m572.09,315.37c.09,2.54-.52,5.04-1.76,7.25l-18.84,33.66c-.15.27-.31.54-.5.8l-58.73,83.51c-.37.55-.81,1.04-1.3,1.49l-16.39,14.97c-1.06.97-1.89,2.19-2.4,3.55l-26.52,71.33c-.1.27-.2.56-.27.85l-36.62,138.45c-1.05,3.97-4.67,6.76-8.79,6.76s-7.74-2.79-8.79-6.76l-36.62-138.45c-.07-.29-.16-.57-.27-.85l-26.52-71.33c-.5-1.35-1.32-2.57-2.4-3.55l-16.39-14.97c-.49-.45-.92-.94-1.3-1.49l-58.73-83.51c-.19-.26-.35-.52-.5-.8l-18.76-33.52c-1.29-2.29-1.89-4.9-1.75-7.52l1.75-33.21c.09-1.6.44-3.17,1.04-4.66l38.24-94.53c.11-.29.26-.57.44-.84,5.2-7.72,17.51-3.44,16.56,6.04l-6.11,99.97c-.35,3.52,1.37,6.95,4.44,8.74l17.35,10.21c.59.34,1.14.75,1.62,1.22l36.14,34.12c3.61,3.42,9.31,3.3,12.77-.29l15.02-15.51c1.52-1.57,2.42-3.65,2.54-5.82v-.2c.09-1.39.49-2.74,1.16-3.95l21.15-37.76c3.47-6.2,12.4-6.2,15.86,0l21.15,37.76c.67,1.21,1.06,2.56,1.15,3.95v.2c.14,2.19,1.04,4.26,2.55,5.82l15.02,15.51c3.46,3.59,9.16,3.71,12.77.29l36.14-34.12c.5-.47,1.04-.89,1.62-1.22l17.35-10.21c3.06-1.8,4.8-5.21,4.44-8.74l-6.11-99.97c-.42-4.21,2.15-8.19,6.15-9.52,3.86-1.3,8.12.16,10.4,3.5.17.26.31.54.44.84,12.81,31.67,25.62,63.35,38.45,95.02.5,1.24.81,2.52.95,3.85.85,8.41,1.47,25.89,1.74,33.66h0Z"/>
      </g>
    </g>
  </g>
</svg>