<?xml version="1.0" encoding="UTF-8"?>
<svg id="Layer_2" data-name="Layer 2" xmlns="http://www.w3.org/2000/svg" viewBox="0 0 1000 600">
  <defs>
    <style>
      .cls-1, .cls-2, .cls-3 {
        fill: #f4f4f6;
      }

      .cls-4 {
        fill: #989898;
      }

      .cls-5 {
        fill: #666;
      }

      .cls-6, .cls-7 {
        fill: #333;
      }

      .cls-8 {
        fill: #c3c3c3;
      }

      .cls-7, .cls-2 {
        opacity: .2;
      }

      .cls-3 {
        opacity: .4;
      }
    </style>
  </defs>
  <g id="Layer_1-2" data-name="Layer 1">
    <g>
      <rect class="cls-5" width="1000" height="600"/>
      <g>
        <rect class="cls-1" x="100.06" y="101.8" width="100" height="100"/>
        <g>
          <path class="cls-6" d="m173.98,127.92v37.2h-47.85v-37.2h47.85m5.24-5.24h-58.33v47.68h58.33v-47.68h0Z"/>
          <g>
            <g>
              <rect class="cls-6" x="159.29" y="133.61" width="5.24" height="17.29" transform="translate(-53.17 156.16) rotate(-45)"/>
              <rect class="cls-6" x="153.27" y="148.16" width="17.29" height="5.24" transform="translate(-59.19 158.65) rotate(-45)"/>
            </g>
            <g>
              <rect class="cls-6" x="135.58" y="142.13" width="5.24" height="17.29" transform="translate(-66.14 141.88) rotate(-45)"/>
              <rect class="cls-6" x="129.55" y="139.64" width="17.29" height="5.24" transform="translate(-60.11 139.39) rotate(-45)"/>
            </g>
          </g>
          <rect class="cls-6" x="142.11" y="170.44" width="15.89" height="5.24"/>
          <polygon class="cls-6" points="169.97 175.68 130.15 175.68 125.15 180.92 174.96 180.92 169.97 175.68"/>
        </g>
      </g>
      <g>
        <g>
          <g>
            <g>
              <path class="cls-1" d="m677.88,313.91h218.62c1.93,0,3.49,1.57,3.49,3.49v158.81c0,1.93-1.56,3.49-3.49,3.49h-218.63c-1.93,0-3.49-1.57-3.49-3.49v-158.81c0-1.93,1.57-3.49,3.49-3.49Z"/>
              <path class="cls-4" d="m686.47,320.41h201.46c1.78,0,3.22,1.44,3.22,3.22v134.12c0,1.78-1.44,3.22-3.22,3.22h-201.46c-1.78,0-3.22-1.44-3.22-3.22v-134.11c0-1.78,1.44-3.22,3.22-3.22Z"/>
              <g>
                <g>
                  <path class="cls-4" d="m891.14,469.65c0,.68-.55,1.23-1.23,1.23h-205.44c-.68,0-1.23-.55-1.23-1.23h0c0-.68.55-1.23,1.23-1.23h205.44c.68,0,1.23.55,1.23,1.23h0Z"/>
                  <path class="cls-6" d="m821.28,469.65c0,.68-.55,1.23-1.23,1.23h-135.58c-.68,0-1.23-.55-1.23-1.23h0c0-.68.55-1.23,1.23-1.23h135.58c.68,0,1.23.55,1.23,1.23h0Z"/>
                </g>
                <path class="cls-6" d="m824.42,469.79c0,2.65-2.15,4.8-4.8,4.8s-4.8-2.15-4.8-4.8,2.15-4.8,4.8-4.8,4.8,2.15,4.8,4.8Z"/>
              </g>
            </g>
            <g>
              <path class="cls-7" d="m842.5,392.66c0,30.55-24.76,55.31-55.31,55.31s-55.31-24.77-55.31-55.31,24.76-55.31,55.31-55.31,55.31,24.76,55.31,55.31Z"/>
              <path class="cls-6" d="m830.42,392.66c0,23.87-19.35,43.23-43.23,43.23s-43.23-19.35-43.23-43.23,19.35-43.22,43.23-43.22,43.23,19.35,43.23,43.22Z"/>
              <polygon class="cls-4" points="778.65 374.54 778.65 410.78 802.27 393.04 778.65 374.54"/>
            </g>
          </g>
          <path class="cls-2" d="m896.51,479.7c1.92,0,3.49-1.57,3.49-3.49v-158.81c0-1.92-1.57-3.49-3.49-3.49h-20.48c.02,109.97-56.69,151.45-87.18,165.79h107.67Z"/>
        </g>
        <g>
          <g>
            <g>
              <path class="cls-1" d="m651.94,390.45h148.07c1.07,0,1.94.87,1.94,1.94v105.67c0,1.07-.87,1.94-1.94,1.94h-148.07c-1.07,0-1.94-.87-1.94-1.94v-105.67c0-1.07.87-1.94,1.94-1.94Z"/>
              <path class="cls-4" d="m801.94,403.76v-11.37c0-1.07-.87-1.94-1.94-1.94h-148.07c-1.07,0-1.94.87-1.94,1.94v11.37h151.94Z"/>
            </g>
            <g>
              <path class="cls-5" d="m672.94,397.11c0,1.54-1.25,2.79-2.79,2.79s-2.79-1.25-2.79-2.79,1.25-2.79,2.79-2.79,2.79,1.25,2.79,2.79Z"/>
              <path class="cls-5" d="m661.32,397.11c0,1.54-1.25,2.79-2.79,2.79s-2.79-1.25-2.79-2.79,1.25-2.79,2.79-2.79,2.79,1.25,2.79,2.79Z"/>
              <path class="cls-5" d="m684.56,397.11c0,1.54-1.25,2.79-2.79,2.79s-2.79-1.25-2.79-2.79,1.25-2.79,2.79-2.79,2.79,1.25,2.79,2.79Z"/>
            </g>
          </g>
          <g>
            <rect class="cls-5" x="693.05" y="430.32" width="98.04" height="3.94"/>
            <g>
              <rect class="cls-8" x="660.86" y="417.59" width="29.07" height="3.94"/>
              <rect class="cls-8" x="660.86" y="443.05" width="15.38" height="3.94"/>
              <rect class="cls-8" x="660.86" y="455.77" width="29.07" height="3.94"/>
              <rect class="cls-8" x="660.86" y="468.5" width="22.61" height="3.94"/>
              <g>
                <rect class="cls-5" x="706.54" y="417.59" width="56.45" height="3.94"/>
                <rect class="cls-6" x="660.86" y="430.32" width="22.61" height="3.94"/>
                <rect class="cls-6" x="682.76" y="443.05" width="66.7" height="3.94"/>
                <rect class="cls-6" x="706.54" y="455.77" width="56.45" height="3.94"/>
                <rect class="cls-6" x="693.05" y="468.5" width="98.04" height="3.94"/>
                <rect class="cls-8" x="660.86" y="481.22" width="15.38" height="3.94"/>
                <rect class="cls-6" x="682.76" y="481.22" width="66.7" height="3.94"/>
              </g>
            </g>
          </g>
          <path class="cls-3" d="m801.94,392.39c0-1.07-.87-1.94-1.94-1.94h-36.34c-.88,67.75-47.28,98.83-68.6,109.55h104.94c1.07,0,1.94-.87,1.94-1.94v-105.67Z"/>
        </g>
        <g>
          <g>
            <g>
              <path class="cls-1" d="m751.29,288.09h129.89c1.07,0,1.94.87,1.94,1.94v69.31c0,1.07-.87,1.94-1.94,1.94h-129.89c-1.07,0-1.94-.87-1.94-1.94v-69.31c0-1.07.87-1.94,1.94-1.94Z"/>
              <path class="cls-4" d="m883.12,301.39v-11.37c0-1.07-.87-1.94-1.94-1.94h-129.89c-1.07,0-1.94.87-1.94,1.94v11.37h133.76Z"/>
            </g>
            <g>
              <path class="cls-5" d="m772.29,294.74c0,1.54-1.25,2.79-2.79,2.79s-2.79-1.25-2.79-2.79,1.25-2.79,2.79-2.79,2.79,1.25,2.79,2.79Z"/>
              <path class="cls-5" d="m760.68,294.74c0,1.54-1.25,2.79-2.79,2.79s-2.79-1.25-2.79-2.79,1.25-2.79,2.79-2.79,2.79,1.25,2.79,2.79Z"/>
              <path class="cls-5" d="m783.91,294.74c0,1.54-1.25,2.79-2.79,2.79s-2.79-1.25-2.79-2.79,1.25-2.79,2.79-2.79,2.79,1.25,2.79,2.79Z"/>
            </g>
          </g>
          <g>
            <path class="cls-8" d="m819.37,315.76c-3.04,9.22-6.09,18.44-9.13,27.66-.61,1.83,2.27,2.61,2.87.79,3.05-9.22,6.09-18.43,9.14-27.65.6-1.83-2.27-2.6-2.87-.79h0Z"/>
            <g>
              <path class="cls-8" d="m808.36,335.18c-2.52-1.73-5.04-3.47-7.56-5.2,2.52-1.73,5.04-3.46,7.56-5.2,1.57-1.08.09-3.66-1.5-2.57-3.14,2.16-6.29,4.32-9.43,6.48-.95.66-.95,1.92,0,2.57,3.14,2.16,6.29,4.32,9.43,6.48,1.59,1.09,3.08-1.49,1.5-2.57Z"/>
              <path class="cls-8" d="m824.12,335.18c2.51-1.73,5.03-3.47,7.55-5.2-2.52-1.73-5.04-3.46-7.55-5.2-1.57-1.08-.08-3.66,1.5-2.57,3.14,2.16,6.28,4.32,9.43,6.48.96.66.96,1.92,0,2.57-3.14,2.16-6.28,4.32-9.43,6.48-1.58,1.09-3.07-1.49-1.5-2.57Z"/>
            </g>
          </g>
          <path class="cls-3" d="m881.18,361.27c1.07,0,1.94-.87,1.94-1.94v-69.31c0-1.07-.87-1.94-1.94-1.94h-29.08c-2.2,43.01-26.75,63.54-46.95,73.19h76.02Z"/>
        </g>
      </g>
      <g>
        <path class="cls-1" d="m140.71,298.98h-7.97c-.23-1.31-.65-2.47-1.26-3.48-.61-1.01-1.37-1.88-2.28-2.59-.91-.71-1.94-1.25-3.1-1.61-1.16-.36-2.4-.54-3.74-.54-2.37,0-4.47.59-6.31,1.78-1.83,1.19-3.27,2.92-4.3,5.2-1.04,2.28-1.56,5.06-1.56,8.34s.52,6.15,1.57,8.43c1.04,2.28,2.48,4,4.3,5.16,1.83,1.16,3.92,1.74,6.28,1.74,1.31,0,2.53-.17,3.67-.52,1.14-.35,2.17-.86,3.09-1.54s1.69-1.52,2.32-2.51,1.07-2.13,1.31-3.41l7.97.04c-.3,2.07-.94,4.02-1.93,5.84-.99,1.82-2.28,3.42-3.87,4.8-1.59,1.39-3.45,2.46-5.58,3.24-2.13.77-4.5,1.16-7.1,1.16-3.83,0-7.26-.89-10.27-2.66s-5.38-4.34-7.12-7.69c-1.73-3.35-2.6-7.37-2.6-12.06s.87-8.72,2.62-12.07c1.75-3.34,4.13-5.91,7.14-7.68,3.01-1.78,6.42-2.66,10.23-2.66,2.43,0,4.69.34,6.78,1.02,2.09.68,3.95,1.68,5.58,2.99,1.63,1.31,2.98,2.92,4.04,4.82,1.06,1.9,1.75,4.06,2.08,6.49Z"/>
        <path class="cls-1" d="m161.91,328.54c-3.2,0-5.97-.7-8.31-2.11s-4.16-3.37-5.44-5.9c-1.29-2.53-1.93-5.48-1.93-8.86s.64-6.34,1.93-8.89c1.29-2.54,3.1-4.52,5.44-5.92s5.11-2.11,8.31-2.11,5.97.7,8.31,2.11,4.16,3.38,5.44,5.92c1.29,2.54,1.93,5.5,1.93,8.89s-.64,6.33-1.93,8.86-3.1,4.5-5.44,5.9-5.11,2.11-8.31,2.11Zm.04-6.18c1.73,0,3.18-.48,4.35-1.44,1.17-.96,2.04-2.25,2.61-3.87.58-1.62.86-3.42.86-5.41s-.29-3.82-.86-5.44c-.58-1.63-1.45-2.92-2.61-3.89-1.17-.97-2.61-1.45-4.35-1.45s-3.25.48-4.42,1.45c-1.17.97-2.05,2.26-2.62,3.89-.58,1.63-.86,3.44-.86,5.44s.29,3.79.86,5.41c.58,1.62,1.45,2.91,2.62,3.87,1.17.96,2.65,1.44,4.42,1.44Z"/>
        <path class="cls-1" d="m184.11,327.9v-32.73h7.37v5.56h.38c.68-1.88,1.81-3.34,3.39-4.4,1.58-1.06,3.46-1.59,5.65-1.59s4.09.54,5.61,1.61c1.53,1.07,2.6,2.53,3.23,4.38h.34c.72-1.82,1.95-3.27,3.67-4.36,1.73-1.09,3.78-1.63,6.15-1.63,3.01,0,5.47.95,7.37,2.86s2.86,4.68,2.86,8.33v21.97h-7.73v-20.77c0-2.03-.54-3.52-1.62-4.46-1.08-.94-2.4-1.42-3.96-1.42-1.86,0-3.31.58-4.36,1.74-1.04,1.16-1.57,2.66-1.57,4.51v20.41h-7.56v-21.09c0-1.69-.51-3.04-1.52-4.05s-2.34-1.51-3.97-1.51c-1.11,0-2.12.28-3.03.84-.91.56-1.63,1.35-2.17,2.37-.54,1.02-.81,2.2-.81,3.55v19.9h-7.71Z"/>
        <path class="cls-1" d="m237.97,340.17v-45h7.59v5.41h.45c.4-.79.96-1.64,1.68-2.55.72-.9,1.7-1.68,2.94-2.32,1.24-.65,2.81-.97,4.73-.97,2.53,0,4.81.64,6.85,1.93,2.04,1.29,3.66,3.18,4.86,5.69s1.8,5.58,1.8,9.21-.59,6.65-1.77,9.16c-1.18,2.51-2.78,4.43-4.82,5.75s-4.33,1.98-6.9,1.98c-1.88,0-3.43-.31-4.67-.94-1.24-.62-2.23-1.38-2.97-2.27-.75-.89-1.32-1.73-1.74-2.52h-.32v17.43h-7.71Zm7.56-28.64c0,2.12.3,3.97.91,5.56s1.48,2.83,2.62,3.72c1.14.89,2.53,1.33,4.17,1.33s3.13-.46,4.28-1.37,2.02-2.17,2.61-3.77c.59-1.6.88-3.42.88-5.46s-.29-3.84-.87-5.41c-.58-1.58-1.45-2.81-2.6-3.71-1.15-.89-2.59-1.34-4.3-1.34s-3.05.43-4.2,1.3-2.02,2.08-2.61,3.64c-.59,1.56-.88,3.4-.88,5.52Z"/>
        <path class="cls-1" d="m283.17,284.26v43.64h-7.71v-43.64h7.71Z"/>
        <path class="cls-1" d="m305.58,328.54c-3.28,0-6.11-.69-8.49-2.06-2.38-1.37-4.21-3.32-5.49-5.84s-1.92-5.49-1.92-8.92.64-6.32,1.93-8.87c1.29-2.55,3.09-4.54,5.4-5.97,2.32-1.43,5.04-2.14,8.16-2.14,2.02,0,3.92.32,5.72.97s3.39,1.64,4.77,2.99,2.47,3.07,3.27,5.15c.79,2.08,1.19,4.56,1.19,7.43v2.37h-26.83v-5.2h19.43c-.01-1.48-.33-2.79-.96-3.95-.62-1.16-1.5-2.07-2.61-2.74-1.12-.67-2.41-1-3.89-1-1.58,0-2.96.38-4.15,1.14s-2.12,1.75-2.78,2.98c-.66,1.23-1,2.58-1.01,4.04v4.54c0,1.9.35,3.53,1.04,4.89s1.67,2.39,2.92,3.11c1.25.72,2.71,1.08,4.39,1.08,1.12,0,2.14-.16,3.05-.48s1.7-.79,2.37-1.42c.67-.62,1.17-1.4,1.51-2.32l7.2.81c-.45,1.9-1.32,3.56-2.59,4.97-1.27,1.41-2.89,2.51-4.87,3.28-1.97.77-4.23,1.16-6.78,1.16Z"/>
        <path class="cls-1" d="m342.99,295.17v5.97h-18.81v-5.97h18.81Zm-14.17-7.84h7.71v30.72c0,1.04.16,1.83.48,2.38.32.55.74.92,1.27,1.12.53.2,1.11.3,1.75.3.48,0,.93-.04,1.33-.11.41-.07.71-.14.93-.19l1.3,6.03c-.41.14-1,.3-1.76.47-.76.17-1.69.27-2.78.3-1.93.06-3.67-.24-5.22-.88-1.55-.65-2.77-1.65-3.68-3.02-.9-1.36-1.35-3.07-1.33-5.11v-32Z"/>
        <path class="cls-1" d="m363.6,328.54c-3.28,0-6.11-.69-8.49-2.06-2.38-1.37-4.21-3.32-5.49-5.84s-1.92-5.49-1.92-8.92.64-6.32,1.93-8.87c1.29-2.55,3.09-4.54,5.4-5.97,2.32-1.43,5.04-2.14,8.16-2.14,2.02,0,3.92.32,5.72.97s3.39,1.64,4.77,2.99,2.47,3.07,3.27,5.15c.79,2.08,1.19,4.56,1.19,7.43v2.37h-26.83v-5.2h19.43c-.01-1.48-.33-2.79-.96-3.95-.62-1.16-1.5-2.07-2.61-2.74-1.12-.67-2.41-1-3.89-1-1.58,0-2.96.38-4.15,1.14s-2.12,1.75-2.78,2.98c-.66,1.23-1,2.58-1.01,4.04v4.54c0,1.9.35,3.53,1.04,4.89s1.67,2.39,2.92,3.11c1.25.72,2.71,1.08,4.39,1.08,1.12,0,2.14-.16,3.05-.48s1.7-.79,2.37-1.42c.67-.62,1.17-1.4,1.51-2.32l7.2.81c-.45,1.9-1.32,3.56-2.59,4.97-1.27,1.41-2.89,2.51-4.87,3.28-1.97.77-4.23,1.16-6.78,1.16Z"/>
        <path class="cls-1" d="m423.62,296.25c-.2-1.86-1.03-3.31-2.5-4.35-1.47-1.04-3.38-1.56-5.72-1.56-1.65,0-3.06.25-4.24.75-1.18.5-2.08,1.17-2.71,2.02-.63.85-.95,1.83-.96,2.92,0,.91.21,1.7.63,2.37s.99,1.23,1.72,1.69c.72.46,1.53.85,2.41,1.16.88.31,1.77.58,2.66.79l4.09,1.02c1.65.38,3.23.9,4.76,1.56,1.53.65,2.9,1.48,4.11,2.47,1.21,1,2.18,2.2,2.89,3.6s1.07,3.05,1.07,4.94c0,2.56-.65,4.8-1.96,6.74-1.31,1.94-3.19,3.45-5.66,4.54-2.46,1.09-5.44,1.63-8.94,1.63s-6.34-.53-8.83-1.58-4.44-2.58-5.84-4.6c-1.4-2.02-2.16-4.47-2.27-7.37h7.78c.11,1.52.58,2.78,1.41,3.79.82,1.01,1.9,1.76,3.23,2.26,1.33.5,2.82.75,4.46.75s3.23-.26,4.53-.78,2.32-1.24,3.06-2.17c.74-.93,1.12-2.02,1.13-3.27-.01-1.14-.35-2.08-1-2.82-.65-.75-1.57-1.37-2.74-1.88-1.17-.5-2.54-.96-4.1-1.35l-4.96-1.28c-3.59-.92-6.43-2.33-8.51-4.21-2.08-1.88-3.12-4.39-3.12-7.51,0-2.57.7-4.82,2.1-6.75,1.4-1.93,3.31-3.43,5.72-4.51s5.15-1.61,8.2-1.61,5.81.54,8.15,1.61c2.34,1.07,4.17,2.56,5.51,4.45,1.33,1.9,2.02,4.07,2.07,6.53h-7.61Z"/>
        <path class="cls-1" d="m452.79,328.54c-3.2,0-5.97-.7-8.31-2.11s-4.16-3.37-5.44-5.9c-1.29-2.53-1.93-5.48-1.93-8.86s.64-6.34,1.93-8.89c1.29-2.54,3.1-4.52,5.44-5.92s5.11-2.11,8.31-2.11,5.97.7,8.31,2.11,4.16,3.38,5.44,5.92c1.29,2.54,1.93,5.5,1.93,8.89s-.64,6.33-1.93,8.86-3.1,4.5-5.44,5.9-5.11,2.11-8.31,2.11Zm.04-6.18c1.73,0,3.18-.48,4.35-1.44,1.17-.96,2.04-2.25,2.61-3.87.58-1.62.86-3.42.86-5.41s-.29-3.82-.86-5.44c-.58-1.63-1.45-2.92-2.61-3.89-1.17-.97-2.61-1.45-4.35-1.45s-3.25.48-4.42,1.45c-1.17.97-2.05,2.26-2.62,3.89-.58,1.63-.86,3.44-.86,5.44s.29,3.79.86,5.41c.58,1.62,1.45,2.91,2.62,3.87,1.17.96,2.65,1.44,4.42,1.44Z"/>
        <path class="cls-1" d="m482.7,284.26v43.64h-7.71v-43.64h7.71Z"/>
        <path class="cls-1" d="m511.49,314.13v-18.96h7.71v32.73h-7.48v-5.82h-.34c-.74,1.83-1.95,3.33-3.63,4.5-1.68,1.17-3.75,1.75-6.21,1.75-2.14,0-4.04-.48-5.68-1.44-1.64-.96-2.92-2.36-3.85-4.2-.92-1.84-1.39-4.07-1.39-6.68v-20.84h7.71v19.65c0,2.07.57,3.72,1.7,4.94,1.14,1.22,2.63,1.83,4.47,1.83,1.14,0,2.24-.28,3.3-.83,1.07-.55,1.94-1.38,2.63-2.48.69-1.1,1.03-2.48,1.03-4.14Z"/>
        <path class="cls-1" d="m543.47,295.17v5.97h-18.81v-5.97h18.81Zm-14.17-7.84h7.71v30.72c0,1.04.16,1.83.48,2.38.32.55.74.92,1.27,1.12.53.2,1.11.3,1.75.3.48,0,.93-.04,1.33-.11.4-.07.71-.14.93-.19l1.3,6.03c-.41.14-1,.3-1.76.47-.76.17-1.69.27-2.78.3-1.93.06-3.67-.24-5.22-.88-1.55-.65-2.77-1.65-3.68-3.02-.9-1.36-1.35-3.07-1.33-5.11v-32Z"/>
        <path class="cls-1" d="m553.8,290.52c-1.22,0-2.27-.41-3.15-1.23-.88-.82-1.32-1.8-1.32-2.95s.44-2.16,1.32-2.97c.88-.82,1.93-1.23,3.15-1.23s2.29.41,3.16,1.23c.87.82,1.31,1.81,1.31,2.97s-.44,2.13-1.31,2.95c-.87.82-1.93,1.23-3.16,1.23Zm-3.88,37.37v-32.73h7.71v32.73h-7.71Z"/>
        <path class="cls-1" d="m579.84,328.54c-3.2,0-5.97-.7-8.31-2.11s-4.16-3.37-5.44-5.9c-1.29-2.53-1.93-5.48-1.93-8.86s.64-6.34,1.93-8.89c1.29-2.54,3.1-4.52,5.44-5.92s5.11-2.11,8.31-2.11,5.97.7,8.31,2.11,4.16,3.38,5.44,5.92c1.29,2.54,1.93,5.5,1.93,8.89s-.64,6.33-1.93,8.86c-1.29,2.53-3.1,4.5-5.44,5.9s-5.11,2.11-8.31,2.11Zm.04-6.18c1.73,0,3.18-.48,4.35-1.44,1.16-.96,2.04-2.25,2.61-3.87.58-1.62.86-3.42.86-5.41s-.29-3.82-.86-5.44c-.58-1.63-1.45-2.92-2.61-3.89-1.17-.97-2.61-1.45-4.35-1.45s-3.25.48-4.42,1.45c-1.17.97-2.05,2.26-2.62,3.89-.58,1.63-.86,3.44-.86,5.44s.29,3.79.86,5.41c.58,1.62,1.45,2.91,2.62,3.87,1.17.96,2.65,1.44,4.42,1.44Z"/>
        <path class="cls-1" d="m609.75,308.72v19.18h-7.71v-32.73h7.37v5.56h.38c.75-1.83,1.96-3.29,3.61-4.37,1.65-1.08,3.7-1.62,6.15-1.62,2.26,0,4.23.48,5.91,1.45,1.68.97,2.99,2.36,3.92,4.2.93,1.83,1.39,4.06,1.37,6.67v20.84h-7.71v-19.64c0-2.19-.56-3.9-1.69-5.14-1.13-1.24-2.69-1.85-4.68-1.85-1.35,0-2.55.29-3.59.88-1.04.59-1.86,1.44-2.45,2.55-.59,1.11-.88,2.45-.88,4.03Z"/>
        <path class="cls-1" d="m664.49,303.82l-7.03.77c-.2-.71-.54-1.38-1.03-2s-1.15-1.13-1.97-1.51c-.82-.38-1.83-.58-3.03-.58-1.61,0-2.95.35-4.04,1.04-1.09.7-1.62,1.6-1.61,2.71-.01.95.34,1.73,1.05,2.32.72.6,1.91,1.09,3.57,1.47l5.58,1.19c3.1.67,5.4,1.73,6.91,3.17,1.51,1.45,2.28,3.35,2.29,5.69-.01,2.06-.61,3.87-1.8,5.44-1.19,1.57-2.83,2.79-4.93,3.68-2.1.88-4.52,1.32-7.24,1.32-4.01,0-7.23-.84-9.67-2.53s-3.9-4.03-4.37-7.04l7.52-.72c.34,1.48,1.07,2.59,2.17,3.35,1.11.75,2.55,1.13,4.33,1.13s3.31-.38,4.42-1.13,1.67-1.68,1.67-2.79c0-.94-.36-1.71-1.08-2.32-.72-.61-1.83-1.08-3.33-1.41l-5.58-1.17c-3.14-.65-5.46-1.76-6.97-3.31-1.51-1.56-2.25-3.53-2.24-5.91-.01-2.02.54-3.77,1.65-5.25,1.11-1.48,2.67-2.63,4.67-3.45,2-.82,4.3-1.22,6.91-1.22,3.83,0,6.86.82,9.07,2.45,2.21,1.63,3.58,3.84,4.1,6.63Z"/>
      </g>
      <g>
        <path class="cls-1" d="m101.79,234.19v-2.81h19.64v2.81h-8.23v23.37h-3.17v-23.37h-8.23Z"/>
        <path class="cls-1" d="m131.3,257.97c-1.89,0-3.52-.42-4.89-1.26-1.37-.84-2.42-2.01-3.16-3.53-.74-1.51-1.11-3.27-1.11-5.29s.37-3.79,1.11-5.32c.74-1.54,1.77-2.74,3.09-3.61,1.33-.86,2.87-1.3,4.65-1.3,1.02,0,2.03.17,3.03.51s1.9.89,2.72,1.66c.82.76,1.47,1.77,1.96,3.02.49,1.25.73,2.8.73,4.63v1.28h-15.14v-2.61h12.07c0-1.11-.22-2.1-.66-2.97-.44-.87-1.06-1.56-1.87-2.06s-1.75-.75-2.84-.75c-1.2,0-2.24.3-3.11.89-.87.59-1.54,1.36-2.01,2.31-.47.95-.7,1.96-.7,3.04v1.74c0,1.48.26,2.74.77,3.76s1.23,1.81,2.15,2.34c.92.53,1.99.8,3.21.8.79,0,1.51-.11,2.15-.34s1.2-.57,1.67-1.02c.47-.46.83-1.02,1.09-1.71l2.92.82c-.31.99-.82,1.86-1.55,2.6-.72.75-1.62,1.33-2.68,1.74s-2.26.62-3.59.62Z"/>
        <path class="cls-1" d="m152.01,257.97c-1.84,0-3.43-.43-4.76-1.3-1.33-.87-2.35-2.07-3.07-3.59s-1.07-3.27-1.07-5.23.37-3.76,1.11-5.29c.74-1.53,1.77-2.73,3.09-3.59,1.33-.86,2.87-1.3,4.65-1.3,1.38,0,2.62.25,3.73.77,1.11.51,2.02,1.23,2.72,2.15.71.92,1.15,1.99,1.32,3.22h-3.02c-.23-.89-.74-1.69-1.53-2.38-.79-.69-1.85-1.04-3.18-1.04-1.18,0-2.21.3-3.09.91s-1.57,1.47-2.06,2.57c-.49,1.1-.74,2.4-.74,3.88s.24,2.84.72,3.96,1.16,2,2.05,2.62,1.92.93,3.11.93c.78,0,1.5-.14,2.13-.41.64-.27,1.18-.67,1.62-1.18.44-.51.76-1.12.95-1.84h3.02c-.17,1.16-.59,2.2-1.26,3.13s-1.55,1.66-2.65,2.2c-1.09.54-2.37.81-3.82.81Z"/>
        <path class="cls-1" d="m167.15,245.75v11.81h-3.02v-26.18h3.02v9.61h.26c.46-1.01,1.15-1.82,2.08-2.42.92-.6,2.16-.9,3.7-.9,1.34,0,2.51.27,3.52.8,1,.53,1.79,1.35,2.35,2.44.56,1.1.84,2.49.84,4.17v12.48h-3.02v-12.27c0-1.56-.4-2.77-1.21-3.62-.81-.86-1.92-1.28-3.34-1.28-.99,0-1.87.21-2.65.63-.78.42-1.39,1.03-1.84,1.83-.45.8-.67,1.77-.67,2.92Z"/>
        <path class="cls-1" d="m210.25,237.92c-.15-1.29-.78-2.3-1.87-3.02s-2.43-1.07-4.01-1.07c-1.16,0-2.17.19-3.04.56s-1.54.89-2.02,1.55-.72,1.4-.72,2.24c0,.7.17,1.3.5,1.8.34.5.77.91,1.3,1.24s1.08.6,1.66.81c.58.21,1.11.38,1.6.5l2.66.72c.68.18,1.44.43,2.28.74.84.32,1.64.74,2.42,1.29s1.41,1.23,1.91,2.08.75,1.88.75,3.11c0,1.42-.37,2.69-1.11,3.84-.74,1.14-1.81,2.05-3.22,2.72-1.41.67-3.12,1.01-5.13,1.01-1.88,0-3.5-.3-4.86-.91-1.37-.61-2.44-1.45-3.22-2.53-.78-1.08-1.22-2.34-1.32-3.77h3.27c.08.99.42,1.8,1,2.45s1.33,1.12,2.22,1.43c.9.31,1.87.47,2.91.47,1.21,0,2.3-.2,3.26-.59.96-.4,1.73-.95,2.29-1.66.56-.71.84-1.54.84-2.5,0-.87-.24-1.58-.73-2.12-.49-.54-1.12-.99-1.92-1.33-.79-.34-1.65-.64-2.57-.9l-3.22-.92c-2.05-.59-3.67-1.43-4.86-2.52s-1.79-2.52-1.79-4.28c0-1.47.4-2.75,1.2-3.84.8-1.09,1.87-1.95,3.22-2.56s2.86-.91,4.53-.91,3.19.3,4.5.9,2.35,1.42,3.13,2.46c.77,1.04,1.18,2.22,1.22,3.54h-3.07Z"/>
        <path class="cls-1" d="m226.46,257.97c-1.77,0-3.33-.42-4.66-1.27-1.33-.84-2.37-2.02-3.12-3.54-.75-1.52-1.12-3.29-1.12-5.32s.37-3.83,1.12-5.36c.75-1.53,1.79-2.71,3.12-3.55,1.33-.84,2.89-1.27,4.66-1.27s3.33.42,4.66,1.27,2.37,2.03,3.12,3.55,1.12,3.31,1.12,5.36-.37,3.8-1.12,5.32c-.75,1.52-1.79,2.7-3.12,3.54s-2.89,1.27-4.66,1.27Zm0-2.71c1.35,0,2.46-.35,3.32-1.04s1.51-1.6,1.93-2.72c.42-1.12.63-2.34.63-3.66s-.21-2.54-.63-3.67c-.42-1.13-1.06-2.05-1.93-2.75-.87-.7-1.98-1.05-3.32-1.05s-2.45.35-3.32,1.05c-.87.7-1.51,1.62-1.93,2.75-.42,1.13-.63,2.36-.63,3.67s.21,2.53.63,3.66c.42,1.12,1.06,2.03,1.93,2.72.87.69,1.98,1.04,3.32,1.04Z"/>
        <path class="cls-1" d="m242.98,231.38v26.18h-3.02v-26.18h3.02Z"/>
        <path class="cls-1" d="m260.88,249.53v-11.61h3.02v19.64h-3.02v-3.32h-.2c-.46,1-1.18,1.84-2.15,2.54s-2.2,1.04-3.68,1.04c-1.23,0-2.32-.27-3.27-.81-.95-.54-1.7-1.36-2.25-2.46-.54-1.09-.82-2.48-.82-4.15v-12.48h3.02v12.27c0,1.43.4,2.57,1.21,3.43s1.83,1.28,3.09,1.28c.75,0,1.52-.19,2.29-.58.78-.38,1.44-.97,1.97-1.76.53-.79.8-1.8.8-3.03Z"/>
        <path class="cls-1" d="m277.96,237.92v2.56h-10.18v-2.56h10.18Zm-7.21-4.7h3.02v18.72c0,.85.12,1.49.38,1.91.25.42.58.7.97.84s.82.21,1.26.21c.33,0,.61-.02.82-.06s.38-.07.51-.1l.61,2.71c-.2.08-.49.16-.86.24s-.83.12-1.39.12c-.85,0-1.69-.18-2.5-.55-.81-.37-1.49-.92-2.02-1.67-.53-.75-.8-1.7-.8-2.84v-19.53Z"/>
        <path class="cls-1" d="m284.04,234.65c-.59,0-1.09-.2-1.51-.6s-.63-.88-.63-1.44.21-1.04.63-1.45c.42-.4.93-.6,1.51-.6s1.09.2,1.51.6c.42.4.63.88.63,1.45s-.21,1.04-.63,1.44-.93.6-1.51.6Zm-1.53,22.91v-19.64h3.02v19.64h-3.02Z"/>
        <path class="cls-1" d="m299.03,257.97c-1.77,0-3.33-.42-4.66-1.27-1.33-.84-2.37-2.02-3.12-3.54-.75-1.52-1.12-3.29-1.12-5.32s.37-3.83,1.12-5.36c.75-1.53,1.79-2.71,3.12-3.55,1.33-.84,2.89-1.27,4.66-1.27s3.33.42,4.66,1.27,2.37,2.03,3.12,3.55,1.12,3.31,1.12,5.36-.37,3.8-1.12,5.32c-.75,1.52-1.79,2.7-3.12,3.54s-2.89,1.27-4.66,1.27Zm0-2.71c1.35,0,2.46-.35,3.32-1.04s1.51-1.6,1.93-2.72c.42-1.12.63-2.34.63-3.66s-.21-2.54-.63-3.67c-.42-1.13-1.06-2.05-1.93-2.75-.87-.7-1.98-1.05-3.32-1.05s-2.45.35-3.32,1.05c-.87.7-1.51,1.62-1.93,2.75-.42,1.13-.63,2.36-.63,3.67s.21,2.53.63,3.66c.42,1.12,1.06,2.03,1.93,2.72.87.69,1.98,1.04,3.32,1.04Z"/>
        <path class="cls-1" d="m315.54,245.75v11.81h-3.02v-19.64h2.92v3.07h.25c.46-1,1.16-1.8,2.1-2.41s2.15-.91,3.63-.91c1.33,0,2.49.27,3.49.81s1.77,1.36,2.33,2.45c.55,1.1.83,2.48.83,4.15v12.48h-3.02v-12.27c0-1.54-.4-2.75-1.2-3.61-.8-.87-1.9-1.3-3.3-1.3-.96,0-1.82.21-2.58.63-.75.42-1.35,1.03-1.78,1.83-.43.8-.65,1.77-.65,2.92Z"/>
        <path class="cls-1" d="m347.5,242.32l-2.71.77c-.17-.45-.42-.89-.75-1.32-.33-.43-.77-.79-1.34-1.07s-1.28-.42-2.16-.42c-1.2,0-2.2.28-3,.82-.8.55-1.2,1.25-1.2,2.09,0,.75.27,1.34.82,1.78.54.44,1.4.8,2.56,1.09l2.92.72c1.76.43,3.06,1.08,3.92,1.95.86.87,1.29,2,1.29,3.37,0,1.12-.32,2.13-.97,3.02-.64.89-1.54,1.58-2.69,2.1-1.15.51-2.49.77-4.01.77-2,0-3.66-.43-4.97-1.3-1.31-.87-2.14-2.14-2.49-3.81l2.86-.72c.27,1.06.79,1.85,1.55,2.38.76.53,1.76.79,3,.79,1.41,0,2.52-.3,3.36-.9s1.25-1.32,1.25-2.17c0-.68-.24-1.25-.72-1.72-.48-.46-1.21-.81-2.2-1.04l-3.27-.77c-1.8-.43-3.12-1.09-3.96-1.99-.84-.9-1.26-2.03-1.26-3.38,0-1.11.31-2.09.94-2.94.63-.85,1.48-1.52,2.57-2.01,1.09-.49,2.32-.73,3.7-.73,1.94,0,3.47.43,4.58,1.28,1.11.85,1.9,1.98,2.37,3.38Z"/>
      </g>
    </g>
  </g>
</svg>