<?xml version="1.0" encoding="UTF-8"?>
<svg id="Layer_2" data-name="Layer 2" xmlns="http://www.w3.org/2000/svg" viewBox="0 0 1000 600">
  <defs>
    <style>
      .cls-1 {
        fill: #f4f4f6;
      }

      .cls-2 {
        fill: #666;
      }

      .cls-3 {
        fill: #333;
      }
    </style>
  </defs>
  <g id="Layer_1-2" data-name="Layer 1">
    <g>
      <rect class="cls-2" width="1000" height="600"/>
      <g>
        <rect class="cls-1" x="100.06" y="101.8" width="100" height="100"/>
        <g>
          <path class="cls-3" d="m173.98,127.92v37.2h-47.85v-37.2h47.85m5.24-5.24h-58.33v47.68h58.33v-47.68h0Z"/>
          <g>
            <g>
              <rect class="cls-3" x="159.29" y="133.61" width="5.24" height="17.29" transform="translate(-53.17 156.16) rotate(-45)"/>
              <rect class="cls-3" x="153.27" y="148.16" width="17.29" height="5.24" transform="translate(-59.19 158.65) rotate(-45)"/>
            </g>
            <g>
              <rect class="cls-3" x="135.58" y="142.13" width="5.24" height="17.29" transform="translate(-66.14 141.88) rotate(-45)"/>
              <rect class="cls-3" x="129.55" y="139.64" width="17.29" height="5.24" transform="translate(-60.11 139.39) rotate(-45)"/>
            </g>
          </g>
          <rect class="cls-3" x="142.11" y="170.44" width="15.89" height="5.24"/>
          <polygon class="cls-3" points="169.97 175.68 130.15 175.68 125.15 180.92 174.96 180.92 169.97 175.68"/>
        </g>
      </g>
      <g>
        <path class="cls-1" d="m887.42,429.67c0,22.88-16.14,41.44-36.09,41.44h-65.12v-45.45h3.72c3.55,0,6.7-2.42,8.06-6.17,1.36-3.77.62-8.05-1.88-10.94l-27.53-31.56c-1.63-1.92-3.82-2.94-6.16-2.94s-4.53,1.04-6.18,2.94l-27.49,31.56c-2.52,2.9-3.27,7.17-1.9,10.94,1.36,3.75,4.53,6.17,8.06,6.17h3.72v45.45h-65.12c-19.92,0-36.09-18.56-36.09-41.44s16.16-41.44,36.09-41.44h.45c3.7-36.95,31.02-65.67,64.22-65.67,25.15,0,46.92,16.49,57.62,40.53,3.24-.78,6.59-1.21,10.05-1.21,2.52,0,4.98.24,7.4.66,14.24,2.54,26.37,12.36,33.48,26.03,1.51-.24,3.04-.36,4.61-.36,19.94,0,36.09,18.53,36.09,41.44Z"/>
        <path class="cls-1" d="m777.47,488.87c.97,0,1.76-.9,1.76-2.02v-63.96c0-2.88,2.04-5.23,4.55-5.23h6.14c1.06,0,1.49-.87,1.62-1.24.14-.37.37-1.34-.38-2.2l-27.51-31.59c-.33-.38-.77-.59-1.24-.59s-.91.21-1.24.59l-27.5,31.59c-.75.86-.52,1.82-.38,2.2.14.38.56,1.25,1.62,1.25h6.14c2.51,0,4.55,2.34,4.55,5.23v63.96c0,1.11.79,2.02,1.75,2.02h30.11Z"/>
      </g>
      <g>
        <path class="cls-1" d="m108.96,327.9h-8.44l15.36-43.64h9.76l15.38,43.64h-8.44l-11.65-34.69h-.34l-11.63,34.69Zm.28-17.11h23.01v6.35h-23.01v-6.35Z"/>
        <path class="cls-1" d="m157.56,328.47c-2.57,0-4.87-.66-6.9-1.98s-3.64-3.24-4.82-5.75c-1.18-2.51-1.77-5.57-1.77-9.16s.6-6.71,1.8-9.21,2.82-4.4,4.87-5.69c2.05-1.29,4.33-1.93,6.84-1.93,1.92,0,3.49.32,4.73.97,1.24.65,2.22,1.42,2.94,2.32.72.9,1.29,1.75,1.68,2.55h.32v-16.32h7.73v43.64h-7.59v-5.16h-.47c-.4.8-.97,1.64-1.73,2.52-.75.89-1.75,1.64-2.98,2.27-1.24.62-2.79.94-4.67.94Zm2.15-6.33c1.63,0,3.03-.44,4.18-1.33,1.15-.89,2.02-2.13,2.62-3.72s.89-3.44.89-5.56-.29-3.96-.88-5.52c-.59-1.56-1.46-2.78-2.6-3.64s-2.55-1.3-4.21-1.3-3.15.45-4.3,1.34c-1.15.9-2.02,2.13-2.6,3.71-.58,1.58-.87,3.38-.87,5.41s.29,3.87.88,5.46c.59,1.6,1.46,2.86,2.62,3.77,1.16.92,2.58,1.37,4.27,1.37Z"/>
        <path class="cls-1" d="m212.47,295.17l-11.65,32.73h-8.52l-11.66-32.73h8.22l7.52,24.31h.34l7.54-24.31h8.2Z"/>
        <path class="cls-1" d="m226.25,328.56c-2.07,0-3.94-.37-5.59-1.12-1.66-.75-2.96-1.85-3.92-3.31s-1.44-3.27-1.44-5.41c0-1.85.34-3.37,1.02-4.58.68-1.21,1.61-2.17,2.79-2.9,1.18-.72,2.51-1.27,4-1.65,1.48-.38,3.02-.65,4.61-.82,1.92-.2,3.47-.38,4.67-.54s2.06-.42,2.61-.77c.55-.35.82-.89.82-1.63v-.13c0-1.6-.48-2.85-1.43-3.73-.95-.88-2.32-1.32-4.11-1.32-1.89,0-3.38.41-4.49,1.24-1.1.82-1.84,1.8-2.23,2.92l-7.2-1.02c.57-1.99,1.51-3.65,2.81-5,1.31-1.34,2.91-2.35,4.79-3.03,1.89-.67,3.98-1.01,6.26-1.01,1.58,0,3.15.18,4.71.55,1.56.37,2.99.98,4.28,1.82,1.29.84,2.33,1.99,3.12,3.44.79,1.45,1.18,3.26,1.18,5.43v21.9h-7.42v-4.5h-.26c-.47.91-1.13,1.76-1.97,2.55-.85.79-1.9,1.42-3.17,1.9-1.27.48-2.76.71-4.46.71Zm2-5.67c1.55,0,2.89-.31,4.03-.93,1.14-.62,2.01-1.44,2.63-2.46.62-1.02.93-2.14.93-3.35v-3.86c-.24.2-.65.38-1.22.55-.58.17-1.22.32-1.93.45-.71.13-1.41.24-2.11.34s-1.3.18-1.81.25c-1.15.16-2.18.41-3.09.77-.91.36-1.63.85-2.15,1.48-.53.63-.79,1.45-.79,2.44,0,1.42.52,2.49,1.56,3.22,1.04.72,2.36,1.09,3.96,1.09Z"/>
        <path class="cls-1" d="m259.03,308.72v19.18h-7.71v-32.73h7.37v5.56h.38c.75-1.83,1.96-3.29,3.61-4.37,1.66-1.08,3.7-1.62,6.15-1.62,2.26,0,4.23.48,5.91,1.45,1.68.97,2.99,2.36,3.92,4.2.93,1.83,1.39,4.06,1.37,6.67v20.84h-7.71v-19.64c0-2.19-.56-3.9-1.69-5.14-1.13-1.24-2.69-1.85-4.68-1.85-1.35,0-2.55.29-3.59.88-1.04.59-1.86,1.44-2.45,2.55-.59,1.11-.88,2.45-.88,4.03Z"/>
        <path class="cls-1" d="m302.17,328.53c-3.27,0-6.07-.72-8.41-2.15s-4.13-3.42-5.39-5.96c-1.26-2.54-1.89-5.46-1.89-8.77s.64-6.26,1.92-8.81,3.09-4.54,5.42-5.97c2.34-1.43,5.1-2.14,8.3-2.14,2.66,0,5.01.49,7.06,1.46,2.05.97,3.69,2.34,4.91,4.11s1.92,3.83,2.09,6.19h-7.37c-.3-1.58-1-2.89-2.12-3.95-1.12-1.06-2.6-1.59-4.46-1.59-1.58,0-2.96.42-4.15,1.27-1.19.85-2.12,2.06-2.78,3.63-.66,1.58-.99,3.47-.99,5.67s.33,4.14.98,5.74c.65,1.6,1.57,2.83,2.76,3.69,1.19.86,2.58,1.29,4.19,1.29,1.14,0,2.16-.22,3.06-.65.9-.43,1.66-1.06,2.27-1.89.61-.82,1.03-1.83,1.26-3h7.37c-.18,2.32-.87,4.37-2.05,6.15-1.18,1.78-2.78,3.17-4.81,4.18-2.03,1-4.42,1.5-7.16,1.5Z"/>
        <path class="cls-1" d="m337.03,328.53c-3.28,0-6.11-.69-8.49-2.06-2.38-1.37-4.21-3.32-5.49-5.84s-1.92-5.49-1.92-8.92.64-6.32,1.93-8.87c1.29-2.55,3.09-4.54,5.4-5.97,2.32-1.43,5.04-2.14,8.16-2.14,2.02,0,3.92.32,5.72.97s3.39,1.64,4.77,2.99,2.47,3.07,3.27,5.15c.79,2.08,1.19,4.56,1.19,7.43v2.37h-26.83v-5.2h19.43c-.01-1.48-.33-2.79-.96-3.95-.62-1.16-1.5-2.07-2.61-2.74-1.12-.67-2.41-1-3.89-1-1.58,0-2.96.38-4.15,1.14s-2.12,1.75-2.78,2.98c-.66,1.23-1,2.58-1.01,4.04v4.54c0,1.9.35,3.53,1.04,4.89s1.67,2.39,2.92,3.11c1.25.72,2.71,1.08,4.39,1.08,1.12,0,2.14-.16,3.05-.48s1.7-.79,2.37-1.42c.67-.62,1.17-1.4,1.51-2.32l7.2.81c-.45,1.9-1.32,3.56-2.59,4.97-1.27,1.41-2.89,2.51-4.87,3.28-1.97.77-4.23,1.16-6.78,1.16Z"/>
        <path class="cls-1" d="m370.25,328.47c-2.57,0-4.87-.66-6.9-1.98-2.03-1.32-3.64-3.24-4.82-5.75-1.18-2.51-1.77-5.57-1.77-9.16s.6-6.71,1.8-9.21c1.2-2.51,2.82-4.4,4.87-5.69,2.05-1.29,4.33-1.93,6.84-1.93,1.92,0,3.49.32,4.73.97,1.24.65,2.22,1.42,2.94,2.32s1.29,1.75,1.68,2.55h.32v-16.32h7.73v43.64h-7.58v-5.16h-.47c-.4.8-.97,1.64-1.73,2.52-.75.89-1.75,1.64-2.98,2.27s-2.79.94-4.67.94Zm2.15-6.33c1.63,0,3.03-.44,4.18-1.33,1.15-.89,2.02-2.13,2.62-3.72.6-1.59.9-3.44.9-5.56s-.29-3.96-.88-5.52c-.59-1.56-1.46-2.78-2.6-3.64-1.14-.87-2.55-1.3-4.21-1.3s-3.15.45-4.3,1.34c-1.15.9-2.02,2.13-2.6,3.71-.58,1.58-.87,3.38-.87,5.41s.29,3.87.88,5.46,1.46,2.86,2.62,3.77c1.16.92,2.58,1.37,4.27,1.37Z"/>
        <path class="cls-1" d="m409.24,290.89v-6.63h34.82v6.63h-13.49v37.01h-7.84v-37.01h-13.49Z"/>
        <path class="cls-1" d="m460.12,328.53c-3.28,0-6.11-.69-8.49-2.06-2.38-1.37-4.21-3.32-5.49-5.84-1.28-2.52-1.92-5.49-1.92-8.92s.64-6.32,1.93-8.87c1.29-2.55,3.09-4.54,5.4-5.97,2.32-1.43,5.04-2.14,8.16-2.14,2.02,0,3.92.32,5.72.97s3.39,1.64,4.77,2.99,2.48,3.07,3.27,5.15c.8,2.08,1.19,4.56,1.19,7.43v2.37h-26.83v-5.2h19.43c-.01-1.48-.33-2.79-.96-3.95-.62-1.16-1.5-2.07-2.61-2.74-1.12-.67-2.41-1-3.89-1-1.58,0-2.96.38-4.16,1.14s-2.12,1.75-2.78,2.98c-.66,1.23-1,2.58-1.01,4.04v4.54c0,1.9.35,3.53,1.04,4.89.7,1.36,1.67,2.39,2.92,3.11,1.25.72,2.71,1.08,4.39,1.08,1.12,0,2.14-.16,3.05-.48s1.7-.79,2.37-1.42,1.17-1.4,1.51-2.32l7.2.81c-.46,1.9-1.32,3.56-2.59,4.97-1.27,1.41-2.89,2.51-4.87,3.28-1.97.77-4.23,1.16-6.78,1.16Z"/>
        <path class="cls-1" d="m495.46,328.53c-3.27,0-6.07-.72-8.41-2.15s-4.13-3.42-5.39-5.96c-1.26-2.54-1.89-5.46-1.89-8.77s.64-6.26,1.92-8.81,3.09-4.54,5.42-5.97c2.34-1.43,5.1-2.14,8.3-2.14,2.66,0,5.01.49,7.06,1.46,2.05.97,3.69,2.34,4.91,4.11,1.22,1.77,1.92,3.83,2.09,6.19h-7.37c-.3-1.58-1-2.89-2.12-3.95-1.12-1.06-2.6-1.59-4.46-1.59-1.58,0-2.96.42-4.15,1.27-1.19.85-2.12,2.06-2.78,3.63-.66,1.58-.99,3.47-.99,5.67s.33,4.14.98,5.74c.65,1.6,1.57,2.83,2.76,3.69,1.19.86,2.58,1.29,4.19,1.29,1.14,0,2.16-.22,3.06-.65.9-.43,1.66-1.06,2.27-1.89.61-.82,1.03-1.83,1.26-3h7.37c-.18,2.32-.87,4.37-2.05,6.15-1.18,1.78-2.78,3.17-4.82,4.18-2.03,1-4.42,1.5-7.16,1.5Z"/>
        <path class="cls-1" d="m523.55,308.72v19.18h-7.71v-43.64h7.54v16.47h.38c.77-1.85,1.96-3.31,3.57-4.38,1.61-1.07,3.67-1.61,6.17-1.61,2.27,0,4.25.48,5.95,1.43,1.69.95,3,2.34,3.93,4.18s1.4,4.07,1.4,6.71v20.84h-7.71v-19.64c0-2.2-.56-3.92-1.69-5.15-1.13-1.23-2.71-1.84-4.74-1.84-1.36,0-2.58.29-3.65.88-1.07.59-1.91,1.44-2.51,2.55-.6,1.11-.91,2.45-.91,4.03Z"/>
      </g>
      <g>
        <path class="cls-1" d="m101.79,234.19v-2.81h19.64v2.81h-8.23v23.37h-3.17v-23.37h-8.23Z"/>
        <path class="cls-1" d="m131.3,257.97c-1.89,0-3.52-.42-4.89-1.26-1.37-.84-2.42-2.01-3.16-3.53-.74-1.51-1.11-3.27-1.11-5.29s.37-3.79,1.11-5.32c.74-1.54,1.77-2.74,3.09-3.61,1.33-.86,2.87-1.3,4.65-1.3,1.02,0,2.03.17,3.03.51s1.9.89,2.72,1.66c.82.76,1.47,1.77,1.96,3.02.49,1.25.73,2.8.73,4.63v1.28h-15.14v-2.61h12.07c0-1.11-.22-2.1-.66-2.97-.44-.87-1.06-1.56-1.87-2.06s-1.75-.75-2.84-.75c-1.2,0-2.24.3-3.11.89-.87.59-1.54,1.36-2.01,2.31-.47.95-.7,1.96-.7,3.04v1.74c0,1.48.26,2.74.77,3.76s1.23,1.81,2.15,2.34c.92.53,1.99.8,3.21.8.79,0,1.51-.11,2.15-.34s1.2-.57,1.67-1.02c.47-.46.83-1.02,1.09-1.71l2.92.82c-.31.99-.82,1.86-1.55,2.6-.72.75-1.62,1.33-2.68,1.74s-2.26.62-3.59.62Z"/>
        <path class="cls-1" d="m152.01,257.97c-1.84,0-3.43-.43-4.76-1.3-1.33-.87-2.35-2.07-3.07-3.59s-1.07-3.27-1.07-5.23.37-3.76,1.11-5.29c.74-1.53,1.77-2.73,3.09-3.59,1.33-.86,2.87-1.3,4.65-1.3,1.38,0,2.62.25,3.73.77,1.11.51,2.02,1.23,2.72,2.15.71.92,1.15,1.99,1.32,3.22h-3.02c-.23-.89-.74-1.69-1.53-2.38-.79-.69-1.85-1.04-3.18-1.04-1.18,0-2.21.3-3.09.91s-1.57,1.47-2.06,2.57c-.49,1.1-.74,2.4-.74,3.88s.24,2.84.72,3.96,1.16,2,2.05,2.62,1.92.93,3.11.93c.78,0,1.5-.14,2.13-.41.64-.27,1.18-.67,1.62-1.18.44-.51.76-1.12.95-1.84h3.02c-.17,1.16-.59,2.2-1.26,3.13s-1.55,1.66-2.65,2.2c-1.09.54-2.37.81-3.82.81Z"/>
        <path class="cls-1" d="m167.15,245.75v11.81h-3.02v-26.18h3.02v9.61h.26c.46-1.01,1.15-1.82,2.08-2.42.92-.6,2.16-.9,3.7-.9,1.34,0,2.51.27,3.52.8,1,.53,1.79,1.35,2.35,2.44.56,1.1.84,2.49.84,4.17v12.48h-3.02v-12.27c0-1.56-.4-2.77-1.21-3.62-.81-.86-1.92-1.28-3.34-1.28-.99,0-1.87.21-2.65.63-.78.42-1.39,1.03-1.84,1.83-.45.8-.67,1.77-.67,2.92Z"/>
        <path class="cls-1" d="m210.25,237.92c-.15-1.29-.78-2.3-1.87-3.02s-2.43-1.07-4.01-1.07c-1.16,0-2.17.19-3.04.56s-1.54.89-2.02,1.55-.72,1.4-.72,2.24c0,.7.17,1.3.5,1.8.34.5.77.91,1.3,1.24s1.08.6,1.66.81c.58.21,1.11.38,1.6.5l2.66.72c.68.18,1.44.43,2.28.74.84.32,1.64.74,2.42,1.29s1.41,1.23,1.91,2.08.75,1.88.75,3.11c0,1.42-.37,2.69-1.11,3.84-.74,1.14-1.81,2.05-3.22,2.72-1.41.67-3.12,1.01-5.13,1.01-1.88,0-3.5-.3-4.86-.91-1.37-.61-2.44-1.45-3.22-2.53-.78-1.08-1.22-2.34-1.32-3.77h3.27c.08.99.42,1.8,1,2.45s1.33,1.12,2.22,1.43c.9.31,1.87.47,2.91.47,1.21,0,2.3-.2,3.26-.59.96-.4,1.73-.95,2.29-1.66.56-.71.84-1.54.84-2.5,0-.87-.24-1.58-.73-2.12-.49-.54-1.12-.99-1.92-1.33-.79-.34-1.65-.64-2.57-.9l-3.22-.92c-2.05-.59-3.67-1.43-4.86-2.52s-1.79-2.52-1.79-4.28c0-1.47.4-2.75,1.2-3.84.8-1.09,1.87-1.95,3.22-2.56s2.86-.91,4.53-.91,3.19.3,4.5.9,2.35,1.42,3.13,2.46c.77,1.04,1.18,2.22,1.22,3.54h-3.07Z"/>
        <path class="cls-1" d="m226.46,257.97c-1.77,0-3.33-.42-4.66-1.27-1.33-.84-2.37-2.02-3.12-3.54-.75-1.52-1.12-3.29-1.12-5.32s.37-3.83,1.12-5.36c.75-1.53,1.79-2.71,3.12-3.55,1.33-.84,2.89-1.27,4.66-1.27s3.33.42,4.66,1.27,2.37,2.03,3.12,3.55,1.12,3.31,1.12,5.36-.37,3.8-1.12,5.32c-.75,1.52-1.79,2.7-3.12,3.54s-2.89,1.27-4.66,1.27Zm0-2.71c1.35,0,2.46-.35,3.32-1.04s1.51-1.6,1.93-2.72c.42-1.12.63-2.34.63-3.66s-.21-2.54-.63-3.67c-.42-1.13-1.06-2.05-1.93-2.75-.87-.7-1.98-1.05-3.32-1.05s-2.45.35-3.32,1.05c-.87.7-1.51,1.62-1.93,2.75-.42,1.13-.63,2.36-.63,3.67s.21,2.53.63,3.66c.42,1.12,1.06,2.03,1.93,2.72.87.69,1.98,1.04,3.32,1.04Z"/>
        <path class="cls-1" d="m242.98,231.38v26.18h-3.02v-26.18h3.02Z"/>
        <path class="cls-1" d="m260.88,249.53v-11.61h3.02v19.64h-3.02v-3.32h-.2c-.46,1-1.18,1.84-2.15,2.54s-2.2,1.04-3.68,1.04c-1.23,0-2.32-.27-3.27-.81-.95-.54-1.7-1.36-2.25-2.46-.54-1.09-.82-2.48-.82-4.15v-12.48h3.02v12.27c0,1.43.4,2.57,1.21,3.43s1.83,1.28,3.09,1.28c.75,0,1.52-.19,2.29-.58.78-.38,1.44-.97,1.97-1.76.53-.79.8-1.8.8-3.03Z"/>
        <path class="cls-1" d="m277.96,237.92v2.56h-10.18v-2.56h10.18Zm-7.21-4.7h3.02v18.72c0,.85.12,1.49.38,1.91.25.42.58.7.97.84s.82.21,1.26.21c.33,0,.61-.02.82-.06s.38-.07.51-.1l.61,2.71c-.2.08-.49.16-.86.24s-.83.12-1.39.12c-.85,0-1.69-.18-2.5-.55-.81-.37-1.49-.92-2.02-1.67-.53-.75-.8-1.7-.8-2.84v-19.53Z"/>
        <path class="cls-1" d="m284.04,234.65c-.59,0-1.09-.2-1.51-.6s-.63-.88-.63-1.44.21-1.04.63-1.45c.42-.4.93-.6,1.51-.6s1.09.2,1.51.6c.42.4.63.88.63,1.45s-.21,1.04-.63,1.44-.93.6-1.51.6Zm-1.53,22.91v-19.64h3.02v19.64h-3.02Z"/>
        <path class="cls-1" d="m299.03,257.97c-1.77,0-3.33-.42-4.66-1.27-1.33-.84-2.37-2.02-3.12-3.54-.75-1.52-1.12-3.29-1.12-5.32s.37-3.83,1.12-5.36c.75-1.53,1.79-2.71,3.12-3.55,1.33-.84,2.89-1.27,4.66-1.27s3.33.42,4.66,1.27,2.37,2.03,3.12,3.55,1.12,3.31,1.12,5.36-.37,3.8-1.12,5.32c-.75,1.52-1.79,2.7-3.12,3.54s-2.89,1.27-4.66,1.27Zm0-2.71c1.35,0,2.46-.35,3.32-1.04s1.51-1.6,1.93-2.72c.42-1.12.63-2.34.63-3.66s-.21-2.54-.63-3.67c-.42-1.13-1.06-2.05-1.93-2.75-.87-.7-1.98-1.05-3.32-1.05s-2.45.35-3.32,1.05c-.87.7-1.51,1.62-1.93,2.75-.42,1.13-.63,2.36-.63,3.67s.21,2.53.63,3.66c.42,1.12,1.06,2.03,1.93,2.72.87.69,1.98,1.04,3.32,1.04Z"/>
        <path class="cls-1" d="m315.54,245.75v11.81h-3.02v-19.64h2.92v3.07h.25c.46-1,1.16-1.8,2.1-2.41s2.15-.91,3.63-.91c1.33,0,2.49.27,3.49.81s1.77,1.36,2.33,2.45c.55,1.1.83,2.48.83,4.15v12.48h-3.02v-12.27c0-1.54-.4-2.75-1.2-3.61-.8-.87-1.9-1.3-3.3-1.3-.96,0-1.82.21-2.58.63-.75.42-1.35,1.03-1.78,1.83-.43.8-.65,1.77-.65,2.92Z"/>
        <path class="cls-1" d="m347.5,242.32l-2.71.77c-.17-.45-.42-.89-.75-1.32-.33-.43-.77-.79-1.34-1.07s-1.28-.42-2.16-.42c-1.2,0-2.2.28-3,.82-.8.55-1.2,1.25-1.2,2.09,0,.75.27,1.34.82,1.78.54.44,1.4.8,2.56,1.09l2.92.72c1.76.43,3.06,1.08,3.92,1.95.86.87,1.29,2,1.29,3.37,0,1.12-.32,2.13-.97,3.02-.64.89-1.54,1.58-2.69,2.1-1.15.51-2.49.77-4.01.77-2,0-3.66-.43-4.97-1.3-1.31-.87-2.14-2.14-2.49-3.81l2.86-.72c.27,1.06.79,1.85,1.55,2.38.76.53,1.76.79,3,.79,1.41,0,2.52-.3,3.36-.9s1.25-1.32,1.25-2.17c0-.68-.24-1.25-.72-1.72-.48-.46-1.21-.81-2.2-1.04l-3.27-.77c-1.8-.43-3.12-1.09-3.96-1.99-.84-.9-1.26-2.03-1.26-3.38,0-1.11.31-2.09.94-2.94.63-.85,1.48-1.52,2.57-2.01,1.09-.49,2.32-.73,3.7-.73,1.94,0,3.47.43,4.58,1.28,1.11.85,1.9,1.98,2.37,3.38Z"/>
      </g>
    </g>
  </g>
</svg>