<?xml version="1.0" encoding="UTF-8"?>
<svg id="Layer_2" data-name="Layer 2" xmlns="http://www.w3.org/2000/svg" viewBox="0 0 1000 600">
  <defs>
    <style>
      .cls-1 {
        fill: #f4f4f6;
      }

      .cls-2 {
        fill: #666;
      }

      .cls-3, .cls-4, .cls-5 {
        fill: #333;
      }

      .cls-4 {
        opacity: .2;
      }

      .cls-5 {
        opacity: .5;
      }
    </style>
  </defs>
  <g id="Layer_1-2" data-name="Layer 1">
    <g>
      <rect class="cls-2" width="1000" height="600"/>
      <g>
        <rect class="cls-1" x="100.06" y="101.8" width="100" height="100"/>
        <g>
          <rect class="cls-4" x="125.56" y="151.8" width="14.58" height="29.17"/>
          <rect class="cls-5" x="142.76" y="137.22" width="14.58" height="43.75"/>
          <rect class="cls-3" x="159.97" y="122.63" width="14.58" height="58.33"/>
        </g>
      </g>
      <g>
        <g>
          <rect class="cls-1" x="803.12" y="365.09" width="14.1" height="65.45"/>
          <rect class="cls-1" x="827.58" y="335.21" width="14.1" height="95.33"/>
          <rect class="cls-1" x="858.31" y="384.01" width="14.1" height="46.52"/>
          <rect class="cls-1" x="885.9" y="365.09" width="14.1" height="65.45"/>
          <g>
            <polygon class="cls-1" points="864.44 378.84 835.14 312.62 807.55 360.2 804.45 358.12 835.57 304.45 864.97 370.91 886.71 336.01 889.74 338.2 864.44 378.84"/>
            <polygon class="cls-1" points="893.07 343.34 894.03 327.72 880.95 334.63 893.07 343.34"/>
          </g>
        </g>
        <g>
          <g>
            <polygon class="cls-1" points="754.39 414.79 737.64 402.23 770.04 359.01 786.79 371.57 754.39 414.79"/>
            <path class="cls-1" d="m854.59,263.71c-30.29-22.71-73.26-16.57-95.97,13.72-22.71,30.29-16.57,73.25,13.72,95.97,30.29,22.7,73.25,16.56,95.97-13.73,22.69-30.29,16.56-73.25-13.72-95.95Zm-71.31,95.09c-22.23-16.67-26.74-48.21-10.07-70.44,16.67-22.23,48.2-26.74,70.43-10.07,22.23,16.67,26.74,48.2,10.07,70.43-16.67,22.23-48.2,26.74-70.44,10.07Z"/>
            <path class="cls-1" d="m707.27,496.22c-3.13,4.17-9.06,5.02-13.24,1.89l-19.45-14.59c-4.17-3.13-5.02-9.06-1.89-13.24l61.03-81.41c3.14-4.18,9.07-5.03,13.24-1.89l19.44,14.57c4.19,3.14,5.03,9.06,1.89,13.24l-61.03,81.42Z"/>
          </g>
          <path class="cls-1" d="m759.47,408.02l27.32-36.45-8.44-6.33-22.02,28.77s1.84,8.54,3.13,14.01Z"/>
          <path class="cls-1" d="m766.4,401.56l-10.07-7.56-71.63,97.12h0l9.32,6.99c4.18,3.13,10.1,2.28,13.24-1.89l61.03-81.42c3.13-4.18,2.29-10.1-1.89-13.24Z"/>
          <path class="cls-1" d="m868.31,359.66c22.69-30.29,16.56-73.25-13.72-95.95l-10.95,14.59c22.23,16.67,26.74,48.2,10.07,70.43-16.67,22.23-48.2,26.74-70.44,10.07h0l-10.94,14.59c30.29,22.7,73.25,16.56,95.97-13.73Z"/>
        </g>
      </g>
      <g>
        <path class="cls-1" d="m103.36,327.9v-43.64h28.38v6.63h-20.48v11.85h19v6.63h-19v11.91h20.65v6.63h-28.55Z"/>
        <path class="cls-1" d="m156.05,295.17v5.97h-19.35v-5.97h19.35Zm-14.51,32.73v-35.82c0-2.2.46-4.03,1.38-5.5.92-1.46,2.15-2.56,3.7-3.28,1.55-.72,3.27-1.09,5.16-1.09,1.33,0,2.52.11,3.56.32s1.8.41,2.3.58l-1.53,5.97c-.33-.1-.74-.2-1.24-.31-.5-.11-1.05-.16-1.66-.16-1.43,0-2.45.34-3.04,1.03-.59.69-.88,1.67-.88,2.95v35.31h-7.73Z"/>
        <path class="cls-1" d="m178.68,295.17v5.97h-19.35v-5.97h19.35Zm-14.51,32.73v-35.82c0-2.2.46-4.03,1.38-5.5s2.15-2.56,3.7-3.28c1.55-.72,3.27-1.09,5.16-1.09,1.33,0,2.52.11,3.56.32,1.04.21,1.8.41,2.3.58l-1.54,5.97c-.33-.1-.74-.2-1.24-.31s-1.05-.16-1.66-.16c-1.43,0-2.45.34-3.04,1.03-.59.69-.88,1.67-.88,2.95v35.31h-7.73Z"/>
        <path class="cls-1" d="m197.98,328.54c-3.28,0-6.11-.69-8.49-2.06-2.38-1.37-4.21-3.32-5.49-5.84-1.28-2.52-1.92-5.49-1.92-8.92s.64-6.32,1.93-8.87c1.29-2.55,3.09-4.54,5.4-5.97,2.31-1.43,5.04-2.14,8.16-2.14,2.02,0,3.92.32,5.72.97s3.39,1.64,4.77,2.99,2.47,3.07,3.27,5.15c.8,2.08,1.19,4.56,1.19,7.43v2.37h-26.82v-5.2h19.43c-.01-1.48-.33-2.79-.96-3.95-.62-1.16-1.5-2.07-2.61-2.74-1.12-.67-2.41-1-3.89-1-1.58,0-2.96.38-4.16,1.14s-2.12,1.75-2.78,2.98c-.66,1.23-1,2.58-1.01,4.04v4.54c0,1.9.35,3.53,1.04,4.89.7,1.36,1.67,2.39,2.92,3.11,1.25.72,2.71,1.08,4.39,1.08,1.12,0,2.14-.16,3.05-.48.91-.32,1.7-.79,2.37-1.42.67-.62,1.17-1.4,1.51-2.32l7.2.81c-.45,1.9-1.32,3.56-2.59,4.97-1.27,1.41-2.89,2.51-4.87,3.28-1.97.77-4.23,1.16-6.78,1.16Z"/>
        <path class="cls-1" d="m233.33,328.54c-3.27,0-6.07-.72-8.41-2.15-2.34-1.43-4.13-3.42-5.39-5.96-1.26-2.54-1.89-5.46-1.89-8.77s.64-6.26,1.92-8.81c1.28-2.55,3.09-4.54,5.42-5.97,2.34-1.43,5.1-2.14,8.3-2.14,2.66,0,5.01.49,7.06,1.46,2.05.97,3.69,2.34,4.91,4.11s1.92,3.83,2.09,6.19h-7.37c-.3-1.58-1-2.89-2.12-3.95-1.12-1.06-2.6-1.59-4.46-1.59-1.58,0-2.96.42-4.15,1.27-1.19.85-2.12,2.06-2.78,3.63-.66,1.58-.99,3.47-.99,5.67s.33,4.14.98,5.74c.65,1.6,1.57,2.83,2.76,3.69s2.58,1.29,4.19,1.29c1.14,0,2.16-.22,3.06-.65s1.66-1.06,2.27-1.89,1.03-1.83,1.26-3h7.37c-.18,2.32-.87,4.37-2.05,6.15-1.18,1.78-2.78,3.17-4.81,4.18-2.03,1-4.42,1.5-7.16,1.5Z"/>
        <path class="cls-1" d="m270.04,295.17v5.97h-18.81v-5.97h18.81Zm-14.17-7.84h7.71v30.72c0,1.04.16,1.83.48,2.38s.74.92,1.27,1.12c.53.2,1.11.3,1.75.3.48,0,.93-.04,1.33-.11s.71-.14.93-.19l1.3,6.03c-.41.14-1,.3-1.76.47-.76.17-1.69.27-2.78.3-1.93.06-3.67-.24-5.22-.88-1.55-.65-2.77-1.65-3.68-3.02-.9-1.36-1.35-3.07-1.33-5.11v-32Z"/>
        <path class="cls-1" d="m280.37,290.52c-1.22,0-2.27-.41-3.15-1.23-.88-.82-1.32-1.8-1.32-2.95s.44-2.16,1.32-2.97c.88-.82,1.93-1.23,3.15-1.23s2.29.41,3.16,1.23c.87.82,1.31,1.81,1.31,2.97s-.44,2.13-1.31,2.95c-.87.82-1.93,1.23-3.16,1.23Zm-3.88,37.37v-32.73h7.71v32.73h-7.71Z"/>
        <path class="cls-1" d="m321.37,295.17l-11.65,32.73h-8.52l-11.65-32.73h8.22l7.52,24.31h.34l7.54-24.31h8.2Z"/>
        <path class="cls-1" d="m340.06,328.54c-3.28,0-6.11-.69-8.49-2.06-2.38-1.37-4.21-3.32-5.49-5.84-1.28-2.52-1.92-5.49-1.92-8.92s.64-6.32,1.93-8.87,3.09-4.54,5.4-5.97c2.32-1.43,5.04-2.14,8.16-2.14,2.02,0,3.92.32,5.72.97s3.39,1.64,4.77,2.99,2.47,3.07,3.27,5.15c.8,2.08,1.19,4.56,1.19,7.43v2.37h-26.83v-5.2h19.43c-.01-1.48-.33-2.79-.96-3.95-.62-1.16-1.5-2.07-2.61-2.74-1.12-.67-2.41-1-3.89-1-1.58,0-2.96.38-4.16,1.14s-2.12,1.75-2.78,2.98c-.66,1.23-1,2.58-1.01,4.04v4.54c0,1.9.35,3.53,1.04,4.89.7,1.36,1.67,2.39,2.92,3.11,1.25.72,2.71,1.08,4.39,1.08,1.12,0,2.14-.16,3.05-.48s1.7-.79,2.37-1.42,1.17-1.4,1.51-2.32l7.2.81c-.46,1.9-1.32,3.56-2.59,4.97-1.27,1.41-2.89,2.51-4.87,3.28-1.97.77-4.23,1.16-6.78,1.16Z"/>
        <path class="cls-1" d="m400.08,296.25c-.2-1.86-1.03-3.31-2.5-4.35-1.47-1.04-3.38-1.56-5.72-1.56-1.65,0-3.06.25-4.24.75s-2.08,1.17-2.71,2.02c-.62.85-.95,1.83-.96,2.92,0,.91.21,1.7.63,2.37.42.67.99,1.23,1.71,1.69.72.46,1.53.85,2.41,1.16.88.31,1.77.58,2.66.79l4.09,1.02c1.65.38,3.23.9,4.76,1.56s2.9,1.48,4.11,2.47c1.21,1,2.18,2.2,2.89,3.6.71,1.41,1.06,3.05,1.06,4.94,0,2.56-.65,4.8-1.96,6.74-1.31,1.94-3.19,3.45-5.66,4.54-2.46,1.09-5.44,1.63-8.94,1.63s-6.34-.53-8.83-1.58c-2.49-1.05-4.44-2.58-5.84-4.6-1.4-2.02-2.16-4.47-2.27-7.37h7.78c.11,1.52.58,2.78,1.41,3.79s1.9,1.76,3.23,2.26c1.33.5,2.81.75,4.46.75s3.23-.26,4.53-.78c1.3-.52,2.32-1.24,3.06-2.17.74-.93,1.11-2.02,1.13-3.27-.01-1.14-.35-2.08-1-2.82-.65-.75-1.57-1.37-2.74-1.88-1.17-.5-2.54-.96-4.1-1.35l-4.96-1.28c-3.59-.92-6.43-2.33-8.51-4.21-2.08-1.88-3.12-4.39-3.12-7.51,0-2.57.7-4.82,2.1-6.75,1.4-1.93,3.3-3.43,5.72-4.51,2.41-1.07,5.15-1.61,8.2-1.61s5.81.54,8.15,1.61,4.17,2.56,5.51,4.45,2.02,4.07,2.07,6.53h-7.61Z"/>
        <path class="cls-1" d="m431.31,295.17v5.97h-18.81v-5.97h18.81Zm-14.17-7.84h7.71v30.72c0,1.04.16,1.83.48,2.38s.74.92,1.27,1.12c.53.2,1.11.3,1.75.3.48,0,.93-.04,1.33-.11s.71-.14.93-.19l1.3,6.03c-.41.14-1,.3-1.76.47-.76.17-1.69.27-2.78.3-1.93.06-3.67-.24-5.22-.88-1.55-.65-2.77-1.65-3.68-3.02-.9-1.36-1.35-3.07-1.33-5.11v-32Z"/>
        <path class="cls-1" d="m437.77,327.9v-32.73h7.48v5.46h.34c.6-1.89,1.62-3.35,3.08-4.38,1.46-1.03,3.12-1.54,5-1.54.43,0,.91.02,1.44.05.53.04.98.09,1.33.16v7.1c-.33-.11-.84-.22-1.54-.31-.7-.09-1.38-.14-2.04-.14-1.41,0-2.67.3-3.78.91s-1.99,1.44-2.63,2.5-.96,2.29-.96,3.69v19.24h-7.71Z"/>
        <path class="cls-1" d="m470.37,328.56c-2.07,0-3.94-.37-5.59-1.12s-2.96-1.85-3.92-3.31-1.44-3.27-1.44-5.41c0-1.85.34-3.37,1.02-4.58.68-1.21,1.61-2.17,2.79-2.9s2.51-1.27,4-1.65c1.48-.38,3.02-.65,4.61-.82,1.92-.2,3.47-.38,4.67-.54s2.06-.42,2.61-.77c.55-.35.82-.89.82-1.63v-.13c0-1.6-.48-2.85-1.43-3.73-.95-.88-2.32-1.32-4.11-1.32-1.89,0-3.38.41-4.49,1.24-1.1.82-1.84,1.8-2.23,2.92l-7.2-1.02c.57-1.99,1.51-3.65,2.81-5,1.31-1.34,2.9-2.35,4.79-3.03,1.89-.67,3.98-1.01,6.26-1.01,1.58,0,3.15.18,4.71.55,1.56.37,2.99.98,4.28,1.82,1.29.84,2.33,1.99,3.12,3.44.79,1.45,1.18,3.26,1.18,5.43v21.9h-7.42v-4.5h-.25c-.47.91-1.13,1.76-1.97,2.55-.84.79-1.9,1.42-3.17,1.9-1.27.48-2.76.71-4.46.71Zm2-5.67c1.55,0,2.89-.31,4.03-.93,1.14-.62,2.01-1.44,2.63-2.46.62-1.02.93-2.14.93-3.35v-3.86c-.24.2-.65.38-1.23.55-.58.17-1.22.32-1.93.45-.71.13-1.41.24-2.11.34-.7.1-1.3.18-1.81.25-1.15.16-2.18.41-3.09.77-.91.36-1.63.85-2.15,1.48-.53.63-.79,1.45-.79,2.44,0,1.42.52,2.49,1.55,3.22s2.36,1.09,3.96,1.09Z"/>
        <path class="cls-1" d="m511.77,295.17v5.97h-18.81v-5.97h18.81Zm-14.17-7.84h7.71v30.72c0,1.04.16,1.83.48,2.38.32.55.74.92,1.27,1.12.53.2,1.11.3,1.75.3.48,0,.93-.04,1.33-.11.4-.07.71-.14.93-.19l1.3,6.03c-.41.14-1,.3-1.76.47-.76.17-1.69.27-2.78.3-1.93.06-3.67-.24-5.22-.88-1.55-.65-2.77-1.65-3.68-3.02-.9-1.36-1.35-3.07-1.33-5.11v-32Z"/>
        <path class="cls-1" d="m532.37,328.54c-3.28,0-6.11-.69-8.49-2.06-2.38-1.37-4.21-3.32-5.49-5.84s-1.92-5.49-1.92-8.92.64-6.32,1.93-8.87c1.29-2.55,3.09-4.54,5.4-5.97,2.31-1.43,5.04-2.14,8.16-2.14,2.02,0,3.92.32,5.72.97s3.39,1.64,4.77,2.99c1.39,1.35,2.48,3.07,3.27,5.15.79,2.08,1.19,4.56,1.19,7.43v2.37h-26.83v-5.2h19.43c-.01-1.48-.33-2.79-.96-3.95-.63-1.16-1.5-2.07-2.61-2.74-1.12-.67-2.41-1-3.89-1-1.58,0-2.96.38-4.15,1.14-1.19.76-2.12,1.75-2.78,2.98-.66,1.23-1,2.58-1.01,4.04v4.54c0,1.9.35,3.53,1.04,4.89.7,1.36,1.67,2.39,2.92,3.11,1.25.72,2.71,1.08,4.39,1.08,1.12,0,2.14-.16,3.05-.48.91-.32,1.7-.79,2.36-1.42.67-.62,1.17-1.4,1.51-2.32l7.2.81c-.46,1.9-1.32,3.56-2.59,4.97-1.27,1.41-2.89,2.51-4.87,3.28-1.97.77-4.23,1.16-6.78,1.16Z"/>
        <path class="cls-1" d="m567.67,340.85c-2.77,0-5.15-.37-7.14-1.12-1.99-.75-3.59-1.74-4.79-2.99-1.21-1.25-2.05-2.64-2.51-4.16l6.95-1.68c.31.64.77,1.28,1.36,1.91s1.4,1.16,2.42,1.58c1.02.42,2.3.63,3.85.63,2.19,0,4-.53,5.43-1.59,1.43-1.06,2.15-2.79,2.15-5.21v-6.2h-.38c-.4.8-.98,1.61-1.74,2.45-.76.84-1.76,1.54-3,2.11-1.24.57-2.8.85-4.68.85-2.51,0-4.79-.59-6.83-1.78-2.04-1.19-3.66-2.96-4.86-5.33-1.2-2.37-1.8-5.33-1.8-8.9s.6-6.63,1.8-9.11c1.2-2.48,2.82-4.36,4.87-5.65,2.04-1.29,4.33-1.93,6.84-1.93,1.92,0,3.5.32,4.74.97s2.23,1.42,2.97,2.32c.74.9,1.3,1.75,1.68,2.55h.43v-5.41h7.61v33.26c0,2.8-.67,5.11-2,6.95-1.34,1.83-3.16,3.2-5.48,4.11s-4.94,1.36-7.88,1.36Zm.06-19.47c1.63,0,3.03-.4,4.18-1.19,1.15-.8,2.02-1.94,2.62-3.43s.9-3.28.9-5.37-.3-3.86-.88-5.41c-.59-1.55-1.46-2.75-2.6-3.61s-2.55-1.29-4.21-1.29-3.15.45-4.3,1.34c-1.15.9-2.02,2.12-2.6,3.68-.58,1.56-.87,3.32-.87,5.29s.29,3.75.88,5.25c.59,1.5,1.46,2.66,2.62,3.49,1.16.83,2.58,1.25,4.27,1.25Z"/>
        <path class="cls-1" d="m594.84,290.52c-1.22,0-2.27-.41-3.15-1.23-.88-.82-1.32-1.8-1.32-2.95s.44-2.16,1.32-2.97c.88-.82,1.93-1.23,3.15-1.23s2.29.41,3.16,1.23c.87.82,1.31,1.81,1.31,2.97s-.44,2.13-1.31,2.95c-.87.82-1.93,1.23-3.16,1.23Zm-3.88,37.37v-32.73h7.71v32.73h-7.71Z"/>
        <path class="cls-1" d="m621.09,328.54c-3.28,0-6.11-.69-8.49-2.06-2.38-1.37-4.21-3.32-5.49-5.84s-1.92-5.49-1.92-8.92.64-6.32,1.93-8.87c1.29-2.55,3.09-4.54,5.4-5.97,2.31-1.43,5.04-2.14,8.16-2.14,2.02,0,3.92.32,5.72.97s3.39,1.64,4.77,2.99c1.39,1.35,2.48,3.07,3.27,5.15.79,2.08,1.19,4.56,1.19,7.43v2.37h-26.83v-5.2h19.43c-.01-1.48-.33-2.79-.96-3.95-.63-1.16-1.5-2.07-2.61-2.74-1.12-.67-2.41-1-3.89-1-1.58,0-2.96.38-4.15,1.14-1.19.76-2.12,1.75-2.78,2.98-.66,1.23-1,2.58-1.01,4.04v4.54c0,1.9.35,3.53,1.04,4.89.7,1.36,1.67,2.39,2.92,3.11,1.25.72,2.71,1.08,4.39,1.08,1.12,0,2.14-.16,3.05-.48.91-.32,1.7-.79,2.36-1.42.67-.62,1.17-1.4,1.51-2.32l7.2.81c-.46,1.9-1.32,3.56-2.59,4.97-1.27,1.41-2.89,2.51-4.87,3.28-1.97.77-4.23,1.16-6.78,1.16Z"/>
        <path class="cls-1" d="m668.03,303.82l-7.03.77c-.2-.71-.54-1.38-1.03-2s-1.15-1.13-1.97-1.51c-.82-.38-1.83-.58-3.03-.58-1.61,0-2.95.35-4.04,1.04-1.09.7-1.62,1.6-1.61,2.71-.01.95.34,1.73,1.05,2.32.72.6,1.91,1.09,3.57,1.47l5.58,1.19c3.1.67,5.4,1.73,6.91,3.17,1.51,1.45,2.28,3.35,2.29,5.69-.01,2.06-.61,3.87-1.8,5.44-1.19,1.57-2.83,2.79-4.93,3.68-2.1.88-4.52,1.32-7.24,1.32-4.01,0-7.23-.84-9.67-2.53s-3.9-4.03-4.37-7.04l7.52-.72c.34,1.48,1.07,2.59,2.17,3.35,1.11.75,2.55,1.13,4.33,1.13s3.31-.38,4.42-1.13,1.67-1.68,1.67-2.79c0-.94-.36-1.71-1.08-2.32-.72-.61-1.83-1.08-3.33-1.41l-5.58-1.17c-3.14-.65-5.46-1.76-6.97-3.31-1.51-1.56-2.25-3.53-2.24-5.91-.01-2.02.54-3.77,1.65-5.25,1.11-1.48,2.67-2.63,4.67-3.45,2-.82,4.3-1.22,6.91-1.22,3.83,0,6.86.82,9.07,2.45,2.21,1.63,3.58,3.84,4.1,6.63Z"/>
      </g>
      <g>
        <path class="cls-1" d="m103.23,257.56v-26.18h9.15c1.82,0,3.33.31,4.51.94s2.07,1.47,2.65,2.52c.58,1.05.87,2.22.87,3.5,0,1.12-.2,2.05-.59,2.79-.4.73-.92,1.31-1.56,1.74-.64.43-1.34.74-2.09.95v.26c.8.05,1.61.33,2.42.84.81.51,1.49,1.24,2.03,2.2.54.95.82,2.12.82,3.5s-.3,2.49-.9,3.54c-.6,1.05-1.54,1.88-2.83,2.49-1.29.61-2.96.92-5.02.92h-9.46Zm3.17-14.68h5.88c.95,0,1.82-.19,2.59-.56.77-.38,1.38-.9,1.84-1.59.46-.68.68-1.48.68-2.4,0-1.15-.4-2.13-1.2-2.93-.8-.81-2.07-1.21-3.81-1.21h-5.98v8.69Zm0,11.86h6.29c2.07,0,3.54-.4,4.42-1.21.87-.81,1.31-1.78,1.31-2.93,0-.89-.23-1.71-.68-2.46-.45-.75-1.09-1.36-1.93-1.82-.84-.46-1.82-.68-2.97-.68h-6.44v9.1Z"/>
        <path class="cls-1" d="m126.24,257.56v-19.64h2.92v2.97h.21c.36-.97,1-1.76,1.94-2.36.94-.61,2-.91,3.17-.91.22,0,.5,0,.83.01.33,0,.58.02.75.04v3.07c-.1-.03-.33-.07-.7-.12s-.74-.08-1.14-.08c-.95,0-1.8.2-2.55.59-.75.4-1.33.94-1.76,1.64-.43.7-.65,1.49-.65,2.37v12.43h-3.02Z"/>
        <path class="cls-1" d="m145.41,258.02c-1.24,0-2.37-.24-3.39-.71-1.01-.47-1.82-1.16-2.42-2.06s-.89-1.99-.89-3.27c0-1.12.22-2.04.67-2.74.44-.7,1.04-1.25,1.78-1.66s1.56-.7,2.46-.9,1.8-.36,2.72-.48c1.19-.15,2.16-.27,2.91-.35s1.29-.22,1.64-.42c.34-.2.52-.54.52-1.02v-.1c0-1.26-.34-2.24-1.03-2.94-.69-.7-1.72-1.05-3.11-1.05s-2.57.32-3.39.95c-.82.63-1.39,1.3-1.73,2.02l-2.86-1.02c.51-1.19,1.2-2.12,2.05-2.79s1.79-1.14,2.81-1.41,2.02-.4,3.01-.4c.63,0,1.36.07,2.18.22.82.15,1.62.45,2.39.91.77.46,1.41,1.15,1.92,2.08.51.93.77,2.17.77,3.73v12.94h-3.02v-2.66h-.15c-.21.43-.55.88-1.02,1.37-.48.49-1.11.9-1.91,1.24s-1.76.51-2.9.51Zm.46-2.71c1.19,0,2.2-.23,3.02-.7.82-.47,1.44-1.07,1.87-1.82s.63-1.52.63-2.34v-2.76c-.13.15-.41.29-.84.42-.43.12-.92.23-1.48.32-.56.09-1.1.17-1.62.23-.52.06-.95.12-1.27.16-.78.1-1.51.27-2.19.49s-1.22.56-1.64,1.01-.62,1.05-.62,1.82c0,1.05.39,1.84,1.17,2.37.78.53,1.77.8,2.97.8Z"/>
        <path class="cls-1" d="m162.95,245.75v11.81h-3.02v-19.64h2.92v3.07h.25c.46-1,1.16-1.8,2.1-2.41s2.15-.91,3.63-.91c1.33,0,2.49.27,3.49.81s1.77,1.36,2.33,2.45c.55,1.1.83,2.48.83,4.15v12.48h-3.02v-12.27c0-1.54-.4-2.75-1.2-3.61-.8-.87-1.9-1.3-3.3-1.3-.96,0-1.82.21-2.58.63-.75.42-1.35,1.03-1.78,1.83-.43.8-.65,1.77-.65,2.92Z"/>
        <path class="cls-1" d="m188.42,257.97c-1.64,0-3.08-.42-4.33-1.25-1.25-.83-2.23-2.01-2.94-3.53-.71-1.52-1.06-3.32-1.06-5.4s.35-3.85,1.06-5.37c.71-1.52,1.69-2.69,2.95-3.52,1.26-.83,2.72-1.24,4.37-1.24,1.28,0,2.29.21,3.04.63.75.42,1.32.9,1.71,1.43.4.53.71.97.93,1.31h.26v-9.67h3.02v26.18h-2.92v-3.02h-.36c-.22.36-.54.81-.95,1.35s-.99,1.02-1.75,1.44c-.76.42-1.77.63-3.03.63Zm.41-2.71c1.21,0,2.23-.32,3.07-.95.83-.63,1.47-1.52,1.9-2.65.43-1.13.65-2.44.65-3.92s-.21-2.75-.64-3.85c-.43-1.1-1.06-1.96-1.89-2.58s-1.87-.93-3.09-.93-2.34.33-3.19.98c-.85.65-1.48,1.53-1.91,2.65s-.63,2.36-.63,3.74.22,2.67.65,3.8c.43,1.14,1.07,2.04,1.92,2.71s1.9,1,3.16,1Z"/>
        <path class="cls-1" d="m204.88,234.65c-.59,0-1.09-.2-1.51-.6s-.63-.88-.63-1.44.21-1.04.63-1.45c.42-.4.93-.6,1.51-.6s1.09.2,1.51.6c.42.4.63.88.63,1.45s-.21,1.04-.63,1.44-.93.6-1.51.6Zm-1.53,22.91v-19.64h3.02v19.64h-3.02Z"/>
        <path class="cls-1" d="m214.91,245.75v11.81h-3.02v-19.64h2.92v3.07h.26c.46-1,1.16-1.8,2.1-2.41s2.15-.91,3.63-.91c1.33,0,2.49.27,3.49.81,1,.54,1.77,1.36,2.33,2.45.55,1.1.83,2.48.83,4.15v12.48h-3.02v-12.27c0-1.54-.4-2.75-1.2-3.61-.8-.87-1.9-1.3-3.3-1.3-.96,0-1.82.21-2.58.63-.75.42-1.35,1.03-1.78,1.83-.43.8-.65,1.77-.65,2.92Z"/>
        <path class="cls-1" d="m240.88,265.33c-1.46,0-2.71-.19-3.76-.56-1.05-.37-1.92-.86-2.62-1.46-.69-.6-1.25-1.24-1.66-1.92l2.4-1.69c.27.36.62.77,1.04,1.23.42.46.99.87,1.72,1.21.73.35,1.69.52,2.87.52,1.59,0,2.89-.38,3.92-1.15,1.03-.77,1.55-1.97,1.55-3.6v-3.99h-.26c-.22.36-.53.8-.94,1.32-.4.52-.98.99-1.74,1.39-.75.41-1.77.61-3.05.61-1.59,0-3.01-.38-4.26-1.12-1.26-.75-2.25-1.84-2.98-3.27-.73-1.43-1.09-3.17-1.09-5.22s.35-3.76,1.06-5.26c.71-1.5,1.69-2.66,2.95-3.48,1.26-.82,2.72-1.23,4.37-1.23,1.28,0,2.29.21,3.05.63.75.42,1.33.9,1.74,1.43.4.53.72.97.94,1.31h.31v-3.12h2.92v20.2c0,1.69-.38,3.06-1.14,4.12-.76,1.06-1.79,1.84-3.07,2.34-1.28.5-2.71.75-4.28.75Zm-.1-10.79c1.21,0,2.23-.28,3.07-.83.84-.55,1.47-1.35,1.91-2.39.43-1.04.65-2.28.65-3.73s-.21-2.66-.64-3.75c-.43-1.08-1.06-1.93-1.89-2.54-.84-.61-1.87-.92-3.09-.92s-2.34.32-3.19.97c-.85.65-1.48,1.52-1.9,2.61s-.63,2.3-.63,3.63.21,2.57.65,3.61c.43,1.04,1.07,1.86,1.92,2.46.85.59,1.9.89,3.16.89Z"/>
        <path class="cls-1" d="m272.43,257.92c-1.72,0-3.21-.32-4.45-.95s-2.2-1.5-2.88-2.6c-.67-1.1-1.01-2.36-1.01-3.77,0-1.09.23-2.06.7-2.91.46-.85,1.11-1.64,1.93-2.36.82-.73,1.77-1.46,2.84-2.19l3.78-2.81c.74-.49,1.34-1,1.78-1.56.45-.55.67-1.28.67-2.17,0-.67-.29-1.31-.88-1.93s-1.35-.93-2.29-.93c-.67,0-1.25.17-1.76.5-.51.34-.9.76-1.19,1.28-.29.52-.43,1.05-.43,1.59,0,.61.17,1.23.5,1.86.34.63.77,1.27,1.29,1.92.52.65,1.07,1.32,1.63,2l12.02,14.68h-3.63l-9.92-11.97c-.92-1.11-1.76-2.11-2.51-3.02-.75-.9-1.35-1.79-1.79-2.67-.44-.88-.67-1.83-.67-2.85,0-1.18.26-2.21.79-3.1.52-.89,1.26-1.59,2.21-2.08.95-.5,2.06-.75,3.34-.75s2.44.25,3.39.76c.95.51,1.67,1.18,2.19,2.01s.77,1.73.77,2.7c0,1.25-.31,2.34-.93,3.26-.62.92-1.47,1.78-2.54,2.57l-5.22,3.89c-1.18.87-1.97,1.71-2.39,2.53-.42.82-.63,1.41-.63,1.76,0,.82.21,1.58.64,2.29.43.71,1.03,1.28,1.8,1.71.78.43,1.68.65,2.72.65s1.95-.21,2.89-.63,1.79-1.03,2.55-1.83c.76-.8,1.37-1.76,1.82-2.89s.67-2.39.67-3.8h2.92c0,1.74-.2,3.16-.6,4.26-.4,1.1-.85,1.96-1.36,2.58s-.91,1.09-1.21,1.39c-.1.13-.2.26-.28.38-.08.13-.18.26-.28.38-.84.95-1.91,1.65-3.2,2.12-1.29.46-2.56.7-3.81.7Z"/>
        <path class="cls-1" d="m298.56,231.38h3.78l8.9,21.73h.31l8.9-21.73h3.78v26.18h-2.97v-19.89h-.26l-8.18,19.89h-2.86l-8.18-19.89h-.26v19.89h-2.97v-26.18Z"/>
        <path class="cls-1" d="m335.94,258.02c-1.24,0-2.37-.24-3.39-.71-1.01-.47-1.82-1.16-2.42-2.06-.6-.9-.9-1.99-.9-3.27,0-1.12.22-2.04.67-2.74s1.04-1.25,1.78-1.66c.74-.4,1.56-.7,2.46-.9.9-.2,1.8-.36,2.72-.48,1.19-.15,2.16-.27,2.91-.35.75-.08,1.29-.22,1.64-.42.35-.2.52-.54.52-1.02v-.1c0-1.26-.34-2.24-1.03-2.94-.69-.7-1.72-1.05-3.11-1.05s-2.57.32-3.39.95-1.39,1.3-1.73,2.02l-2.86-1.02c.51-1.19,1.2-2.12,2.05-2.79.86-.67,1.79-1.14,2.81-1.41s2.02-.4,3.01-.4c.63,0,1.36.07,2.18.22.82.15,1.62.45,2.39.91.77.46,1.41,1.15,1.92,2.08.51.93.77,2.17.77,3.73v12.94h-3.02v-2.66h-.15c-.2.43-.54.88-1.02,1.37-.48.49-1.11.9-1.9,1.24-.79.34-1.76.51-2.9.51Zm.46-2.71c1.19,0,2.2-.23,3.02-.7s1.45-1.07,1.87-1.82.63-1.52.63-2.34v-2.76c-.13.15-.41.29-.84.42-.43.12-.92.23-1.48.32-.56.09-1.1.17-1.62.23-.52.06-.95.12-1.27.16-.78.1-1.51.27-2.19.49-.68.23-1.22.56-1.64,1.01-.41.45-.62,1.05-.62,1.82,0,1.05.39,1.84,1.17,2.37.78.53,1.77.8,2.97.8Z"/>
        <path class="cls-1" d="m350.47,257.56v-19.64h2.92v2.97h.21c.36-.97,1-1.76,1.94-2.36.94-.61,2-.91,3.17-.91.22,0,.5,0,.83.01.33,0,.58.02.75.04v3.07c-.1-.03-.33-.07-.7-.12s-.74-.08-1.14-.08c-.95,0-1.8.2-2.55.59-.75.4-1.33.94-1.76,1.64-.43.7-.65,1.49-.65,2.37v12.43h-3.02Z"/>
        <path class="cls-1" d="m363.86,257.56v-26.18h3.02v26.18h-3.02Zm2.81-7.16l-.05-3.73h.61l8.59-8.75h3.73l-9.15,9.26h-.26l-3.48,3.22Zm9.67,7.16l-7.67-9.72,2.15-2.1,9.36,11.81h-3.83Z"/>
        <path class="cls-1" d="m390.86,257.97c-1.89,0-3.52-.42-4.89-1.26-1.37-.84-2.42-2.01-3.16-3.53-.74-1.51-1.11-3.27-1.11-5.29s.37-3.79,1.11-5.32c.74-1.54,1.77-2.74,3.09-3.61,1.33-.86,2.87-1.3,4.65-1.3,1.02,0,2.03.17,3.03.51s1.9.89,2.72,1.66c.82.76,1.47,1.77,1.96,3.02.49,1.25.73,2.8.73,4.63v1.28h-15.14v-2.61h12.07c0-1.11-.22-2.1-.66-2.97-.44-.87-1.06-1.56-1.87-2.06s-1.75-.75-2.84-.75c-1.2,0-2.24.3-3.11.89-.87.59-1.54,1.36-2.01,2.31-.47.95-.7,1.96-.7,3.04v1.74c0,1.48.26,2.74.77,3.76s1.23,1.81,2.15,2.34c.92.53,1.99.8,3.21.8.79,0,1.51-.11,2.15-.34s1.2-.57,1.67-1.02c.47-.46.83-1.02,1.09-1.71l2.92.82c-.31.99-.82,1.86-1.55,2.6-.72.75-1.62,1.33-2.68,1.74s-2.26.62-3.59.62Z"/>
        <path class="cls-1" d="m412.14,237.92v2.56h-10.18v-2.56h10.18Zm-7.21-4.7h3.02v18.72c0,.85.12,1.49.38,1.91.25.42.58.7.97.84s.82.21,1.26.21c.33,0,.61-.02.82-.06s.38-.07.51-.1l.61,2.71c-.2.08-.49.16-.86.24s-.83.12-1.39.12c-.85,0-1.69-.18-2.5-.55-.81-.37-1.49-.92-2.02-1.67-.53-.75-.8-1.7-.8-2.84v-19.53Z"/>
        <path class="cls-1" d="m418.22,234.65c-.59,0-1.09-.2-1.51-.6s-.63-.88-.63-1.44.21-1.04.63-1.45c.42-.4.93-.6,1.51-.6s1.09.2,1.51.6c.42.4.63.88.63,1.45s-.21,1.04-.63,1.44-.93.6-1.51.6Zm-1.53,22.91v-19.64h3.02v19.64h-3.02Z"/>
        <path class="cls-1" d="m428.25,245.75v11.81h-3.02v-19.64h2.92v3.07h.26c.46-1,1.16-1.8,2.1-2.41s2.15-.91,3.63-.91c1.33,0,2.49.27,3.49.81,1,.54,1.77,1.36,2.33,2.45.55,1.1.83,2.48.83,4.15v12.48h-3.02v-12.27c0-1.54-.4-2.75-1.2-3.61-.8-.87-1.9-1.3-3.3-1.3-.96,0-1.82.21-2.58.63-.75.42-1.35,1.03-1.78,1.83-.43.8-.65,1.77-.65,2.92Z"/>
        <path class="cls-1" d="m454.22,265.33c-1.46,0-2.71-.19-3.76-.56-1.05-.37-1.92-.86-2.62-1.46-.69-.6-1.25-1.24-1.66-1.92l2.4-1.69c.27.36.62.77,1.04,1.23.42.46.99.87,1.72,1.21.73.35,1.69.52,2.87.52,1.59,0,2.89-.38,3.92-1.15,1.03-.77,1.55-1.97,1.55-3.6v-3.99h-.26c-.22.36-.53.8-.94,1.32-.4.52-.98.99-1.74,1.39-.75.41-1.77.61-3.05.61-1.59,0-3.01-.38-4.26-1.12-1.26-.75-2.25-1.84-2.98-3.27-.73-1.43-1.09-3.17-1.09-5.22s.35-3.76,1.06-5.26c.71-1.5,1.69-2.66,2.95-3.48,1.26-.82,2.72-1.23,4.37-1.23,1.28,0,2.29.21,3.05.63.75.42,1.33.9,1.74,1.43.4.53.72.97.94,1.31h.31v-3.12h2.92v20.2c0,1.69-.38,3.06-1.14,4.12-.76,1.06-1.79,1.84-3.07,2.34-1.28.5-2.71.75-4.28.75Zm-.1-10.79c1.21,0,2.23-.28,3.07-.83.84-.55,1.47-1.35,1.91-2.39.43-1.04.65-2.28.65-3.73s-.21-2.66-.64-3.75c-.43-1.08-1.06-1.93-1.89-2.54-.84-.61-1.87-.92-3.09-.92s-2.34.32-3.19.97c-.85.65-1.48,1.52-1.9,2.61s-.63,2.3-.63,3.63.21,2.57.65,3.61c.43,1.04,1.07,1.86,1.92,2.46.85.59,1.9.89,3.16.89Z"/>
      </g>
    </g>
  </g>
</svg>