<?xml version="1.0" encoding="UTF-8"?>
<svg id="Layer_2" data-name="Layer 2" xmlns="http://www.w3.org/2000/svg" viewBox="0 0 1000 600">
  <defs>
    <style>
      .cls-1 {
        fill: #f4f4f6;
      }

      .cls-2 {
        fill: #f5f5f7;
      }

      .cls-3 {
        fill: #666;
      }

      .cls-4 {
        fill: #333;
      }
    </style>
  </defs>
  <g id="Layer_1-2" data-name="Layer 1">
    <g>
      <rect class="cls-3" width="1000" height="600"/>
      <g>
        <g>
          <path class="cls-1" d="m853.44,441.08c-1.09-23.22,4.37-30.09,11.93-39.59,3.67-4.61,7.83-9.84,12.23-18.19,13.67-25.93,24.47-46.42,2.71-88.08-20.92-40.05-65.41-38.29-65.86-38.26h-.17s-.17,0-.17,0c-1.84-.08-45.01-1.66-65.86,38.26-21.77,41.67-10.97,62.15,2.71,88.08l2.87,4.63,20.48-22.41,2.49,3.56c.04.06,4.45,6.35,9.88,11.78,5.43,5.43,11.71,9.84,11.77,9.88l3.36,2.35-42.02,42.96-4.97-4.86,36.37-37.18c-2.51-1.94-6.08-4.88-9.44-8.23-3.27-3.27-6.15-6.76-8.09-9.25l-20.91,22.89-7.82-12.66c-13.58-25.73-26.3-49.84-2.84-94.75,22.27-42.63,68.96-42.08,72.19-41.99,3.23-.09,49.93-.64,72.2,41.99,23.45,44.9,10.74,69.01-2.73,94.54-4.71,8.93-9.27,14.67-12.94,19.28-7.11,8.93-11.4,14.32-10.43,34.93l-6.94.33Z"/>
          <polygon class="cls-1" points="857.84 454.01 767.24 454.01 767.24 433.12 774.19 433.12 774.19 447.06 857.84 447.06 857.84 454.01"/>
          <g>
            <path class="cls-1" d="m860.54,319.66c-3.05,3.04-8,3.04-11.05-.01-3.05-3.04-3.05-7.98,0-11.03,3.06-3.05,8-3.05,11.06,0,3.05,3.05,3.05,7.99,0,11.04Z"/>
            <path class="cls-1" d="m845.41,325.14l-17.97,17.97c.79,1.82.45,4-1.03,5.49-1.94,1.94-5.09,1.94-7.02,0-1.94-1.94-1.94-5.08,0-7.02,1.48-1.49,3.67-1.82,5.49-1.03l17.96-17.97c-9.96,5.36-30.49,14.67-49.17,12.24,0,0-3.16,16.99-13.04,30.02,0,0,4.54,6.52,10.27,12.24,5.73,5.73,12.24,10.27,12.24,10.27,13.04-9.87,30.02-13.04,30.02-13.04-2.43-18.68,6.88-39.21,12.24-49.17Z"/>
          </g>
        </g>
        <polygon class="cls-1" points="826.78 500 804.86 500 789.99 482.24 841.62 482.24 826.78 500"/>
        <rect class="cls-1" x="772.24" y="461.67" width="87.13" height="12.08"/>
      </g>
      <g>
        <path class="cls-1" d="m140.71,298.98h-7.97c-.23-1.31-.65-2.47-1.26-3.48-.61-1.01-1.37-1.88-2.28-2.59-.91-.71-1.94-1.25-3.1-1.61s-2.4-.54-3.74-.54c-2.37,0-4.47.59-6.31,1.78-1.83,1.19-3.27,2.92-4.3,5.2-1.04,2.28-1.56,5.06-1.56,8.34s.52,6.15,1.57,8.43c1.04,2.28,2.48,4,4.3,5.16,1.82,1.16,3.92,1.74,6.27,1.74,1.31,0,2.53-.17,3.68-.52,1.14-.35,2.17-.86,3.09-1.54s1.69-1.52,2.32-2.51c.63-.99,1.07-2.13,1.31-3.41l7.97.04c-.3,2.07-.94,4.02-1.93,5.84-.99,1.82-2.28,3.42-3.87,4.8-1.59,1.39-3.45,2.46-5.58,3.24-2.13.77-4.5,1.16-7.1,1.16-3.83,0-7.26-.89-10.27-2.66-3.01-1.78-5.38-4.34-7.12-7.69-1.73-3.35-2.6-7.37-2.6-12.06s.87-8.72,2.62-12.07c1.75-3.34,4.13-5.91,7.14-7.68,3.01-1.78,6.42-2.66,10.23-2.66,2.43,0,4.69.34,6.78,1.02,2.09.68,3.95,1.68,5.58,2.99,1.63,1.31,2.98,2.92,4.04,4.82,1.06,1.9,1.75,4.06,2.08,6.49Z"/>
        <path class="cls-1" d="m147.63,327.9v-32.73h7.48v5.46h.34c.6-1.89,1.62-3.35,3.08-4.38,1.46-1.03,3.12-1.54,5-1.54.43,0,.91.02,1.44.05.53.04.98.09,1.33.16v7.1c-.33-.11-.84-.22-1.54-.31-.7-.09-1.38-.14-2.03-.14-1.41,0-2.67.3-3.78.91s-1.99,1.44-2.63,2.5-.96,2.29-.96,3.69v19.24h-7.71Z"/>
        <path class="cls-1" d="m184.56,328.53c-3.28,0-6.11-.69-8.49-2.06-2.38-1.37-4.21-3.32-5.49-5.84-1.28-2.52-1.92-5.49-1.92-8.92s.64-6.32,1.93-8.87,3.09-4.54,5.4-5.97c2.32-1.43,5.04-2.14,8.16-2.14,2.02,0,3.92.32,5.72.97s3.39,1.64,4.77,2.99,2.48,3.07,3.27,5.15c.8,2.08,1.19,4.56,1.19,7.43v2.37h-26.83v-5.2h19.43c-.01-1.48-.33-2.79-.96-3.95-.62-1.16-1.5-2.07-2.61-2.74-1.12-.67-2.41-1-3.89-1-1.58,0-2.96.38-4.15,1.14s-2.12,1.75-2.78,2.98c-.66,1.23-1,2.58-1.01,4.04v4.54c0,1.9.35,3.53,1.04,4.89.7,1.36,1.67,2.39,2.92,3.11,1.25.72,2.71,1.08,4.39,1.08,1.12,0,2.14-.16,3.05-.48s1.7-.79,2.37-1.42c.67-.62,1.17-1.4,1.51-2.32l7.2.81c-.45,1.9-1.32,3.56-2.59,4.97-1.27,1.41-2.89,2.51-4.87,3.28-1.97.77-4.23,1.16-6.78,1.16Z"/>
        <path class="cls-1" d="m215.05,328.56c-2.07,0-3.94-.37-5.59-1.12s-2.96-1.85-3.92-3.31-1.44-3.27-1.44-5.41c0-1.85.34-3.37,1.02-4.58.68-1.21,1.61-2.17,2.79-2.9s2.51-1.27,4-1.65c1.48-.38,3.02-.65,4.61-.82,1.92-.2,3.47-.38,4.67-.54s2.06-.42,2.61-.77c.55-.35.82-.89.82-1.63v-.13c0-1.6-.48-2.85-1.43-3.73-.95-.88-2.32-1.32-4.11-1.32-1.89,0-3.38.41-4.49,1.24-1.1.82-1.84,1.8-2.23,2.92l-7.2-1.02c.57-1.99,1.51-3.65,2.81-5,1.31-1.34,2.9-2.35,4.79-3.03,1.89-.67,3.98-1.01,6.26-1.01,1.58,0,3.15.18,4.71.55,1.56.37,2.99.98,4.28,1.82,1.29.84,2.33,1.99,3.12,3.44.79,1.45,1.18,3.26,1.18,5.43v21.9h-7.42v-4.5h-.26c-.47.91-1.13,1.76-1.97,2.55-.85.79-1.9,1.42-3.17,1.9-1.27.48-2.76.71-4.46.71Zm2-5.67c1.55,0,2.89-.31,4.03-.93,1.14-.62,2.01-1.44,2.63-2.46.62-1.02.93-2.14.93-3.35v-3.86c-.24.2-.65.38-1.23.55-.58.17-1.22.32-1.93.45-.71.13-1.41.24-2.11.34-.7.1-1.3.18-1.81.25-1.15.16-2.18.41-3.09.77-.91.36-1.63.85-2.15,1.48-.53.63-.79,1.45-.79,2.44,0,1.42.52,2.49,1.56,3.22,1.04.72,2.36,1.09,3.96,1.09Z"/>
        <path class="cls-1" d="m256.45,295.17v5.97h-18.81v-5.97h18.81Zm-14.17-7.84h7.71v30.72c0,1.04.16,1.83.48,2.38.32.55.74.92,1.27,1.12.53.2,1.11.3,1.75.3.48,0,.93-.04,1.33-.11s.71-.14.93-.19l1.3,6.03c-.41.14-1,.3-1.76.47-.76.17-1.69.27-2.78.3-1.93.06-3.67-.24-5.22-.88-1.55-.65-2.77-1.65-3.68-3.02-.9-1.36-1.35-3.07-1.33-5.11v-32Z"/>
        <path class="cls-1" d="m266.78,290.52c-1.22,0-2.27-.41-3.15-1.23-.88-.82-1.32-1.8-1.32-2.95s.44-2.16,1.32-2.97c.88-.82,1.93-1.23,3.15-1.23s2.29.41,3.16,1.23c.87.82,1.31,1.81,1.31,2.97s-.44,2.13-1.31,2.95c-.87.82-1.93,1.23-3.16,1.23Zm-3.88,37.37v-32.73h7.71v32.73h-7.71Z"/>
        <path class="cls-1" d="m307.77,295.17l-11.65,32.73h-8.52l-11.65-32.73h8.22l7.52,24.31h.34l7.54-24.31h8.2Z"/>
        <path class="cls-1" d="m326.46,328.53c-3.28,0-6.11-.69-8.49-2.06-2.38-1.37-4.21-3.32-5.49-5.84-1.28-2.52-1.92-5.49-1.92-8.92s.64-6.32,1.93-8.87,3.09-4.54,5.4-5.97c2.32-1.43,5.04-2.14,8.16-2.14,2.02,0,3.92.32,5.72.97s3.39,1.64,4.77,2.99,2.48,3.07,3.27,5.15c.8,2.08,1.19,4.56,1.19,7.43v2.37h-26.83v-5.2h19.43c-.01-1.48-.33-2.79-.96-3.95-.62-1.16-1.5-2.07-2.61-2.74-1.12-.67-2.41-1-3.89-1-1.58,0-2.96.38-4.15,1.14s-2.12,1.75-2.78,2.98c-.66,1.23-1,2.58-1.01,4.04v4.54c0,1.9.35,3.53,1.04,4.89.7,1.36,1.67,2.39,2.92,3.11,1.25.72,2.71,1.08,4.39,1.08,1.12,0,2.14-.16,3.05-.48s1.7-.79,2.37-1.42c.67-.62,1.17-1.4,1.51-2.32l7.2.81c-.45,1.9-1.32,3.56-2.59,4.97-1.27,1.41-2.89,2.51-4.87,3.28-1.97.77-4.23,1.16-6.78,1.16Z"/>
        <path class="cls-1" d="m370.67,284.26v43.64h-7.9v-43.64h7.9Z"/>
        <path class="cls-1" d="m391.06,328.47c-2.57,0-4.87-.66-6.9-1.98-2.03-1.32-3.64-3.24-4.82-5.75-1.18-2.51-1.77-5.57-1.77-9.16s.6-6.71,1.8-9.21c1.2-2.51,2.82-4.4,4.87-5.69,2.05-1.29,4.33-1.93,6.84-1.93,1.92,0,3.49.32,4.73.97s2.22,1.42,2.94,2.32c.72.9,1.29,1.75,1.68,2.55h.32v-16.32h7.73v43.64h-7.59v-5.16h-.47c-.4.8-.97,1.64-1.73,2.52-.75.89-1.75,1.64-2.98,2.27-1.24.62-2.79.94-4.67.94Zm2.15-6.33c1.63,0,3.03-.44,4.18-1.33,1.15-.89,2.02-2.13,2.62-3.72.6-1.59.9-3.44.9-5.56s-.29-3.96-.88-5.52-1.46-2.78-2.6-3.64c-1.14-.87-2.55-1.3-4.21-1.3s-3.15.45-4.3,1.34c-1.15.9-2.02,2.13-2.6,3.71-.58,1.58-.87,3.38-.87,5.41s.29,3.87.88,5.46c.59,1.6,1.46,2.86,2.62,3.77s2.58,1.37,4.27,1.37Z"/>
        <path class="cls-1" d="m431.23,328.53c-3.28,0-6.11-.69-8.49-2.06-2.38-1.37-4.21-3.32-5.49-5.84-1.28-2.52-1.92-5.49-1.92-8.92s.64-6.32,1.93-8.87,3.09-4.54,5.4-5.97c2.32-1.43,5.04-2.14,8.16-2.14,2.02,0,3.92.32,5.72.97s3.39,1.64,4.77,2.99,2.48,3.07,3.27,5.15c.8,2.08,1.19,4.56,1.19,7.43v2.37h-26.83v-5.2h19.43c-.01-1.48-.33-2.79-.96-3.95-.62-1.16-1.5-2.07-2.61-2.74-1.12-.67-2.41-1-3.89-1-1.58,0-2.96.38-4.15,1.14s-2.12,1.75-2.78,2.98c-.66,1.23-1,2.58-1.01,4.04v4.54c0,1.9.35,3.53,1.04,4.89.7,1.36,1.67,2.39,2.92,3.11,1.25.72,2.71,1.08,4.39,1.08,1.12,0,2.14-.16,3.05-.48s1.7-.79,2.37-1.42c.67-.62,1.17-1.4,1.51-2.32l7.2.81c-.45,1.9-1.32,3.56-2.59,4.97-1.27,1.41-2.89,2.51-4.87,3.28-1.97.77-4.23,1.16-6.78,1.16Z"/>
        <path class="cls-1" d="m461.72,328.56c-2.07,0-3.94-.37-5.59-1.12s-2.96-1.85-3.92-3.31-1.44-3.27-1.44-5.41c0-1.85.34-3.37,1.02-4.58.68-1.21,1.61-2.17,2.79-2.9s2.51-1.27,4-1.65c1.48-.38,3.02-.65,4.61-.82,1.92-.2,3.47-.38,4.67-.54s2.06-.42,2.61-.77c.55-.35.82-.89.82-1.63v-.13c0-1.6-.48-2.85-1.43-3.73-.95-.88-2.32-1.32-4.11-1.32-1.89,0-3.38.41-4.49,1.24-1.1.82-1.84,1.8-2.23,2.92l-7.2-1.02c.57-1.99,1.51-3.65,2.81-5,1.31-1.34,2.9-2.35,4.79-3.03,1.89-.67,3.98-1.01,6.26-1.01,1.58,0,3.15.18,4.71.55,1.56.37,2.99.98,4.28,1.82,1.29.84,2.33,1.99,3.12,3.44.79,1.45,1.18,3.26,1.18,5.43v21.9h-7.42v-4.5h-.26c-.47.91-1.13,1.76-1.97,2.55-.85.79-1.9,1.42-3.17,1.9-1.27.48-2.76.71-4.46.71Zm2-5.67c1.55,0,2.89-.31,4.03-.93,1.14-.62,2.01-1.44,2.63-2.46.62-1.02.93-2.14.93-3.35v-3.86c-.24.2-.65.38-1.23.55-.58.17-1.22.32-1.93.45-.71.13-1.41.24-2.11.34-.7.1-1.3.18-1.81.25-1.15.16-2.18.41-3.09.77-.91.36-1.63.85-2.15,1.48-.53.63-.79,1.45-.79,2.44,0,1.42.52,2.49,1.56,3.22,1.04.72,2.36,1.09,3.96,1.09Z"/>
        <path class="cls-1" d="m512.64,303.82l-7.03.77c-.2-.71-.54-1.38-1.03-2s-1.15-1.13-1.97-1.51c-.82-.38-1.83-.58-3.03-.58-1.61,0-2.95.35-4.04,1.04-1.09.7-1.62,1.6-1.61,2.71-.01.95.34,1.73,1.05,2.32s1.91,1.09,3.57,1.47l5.58,1.19c3.1.67,5.4,1.73,6.91,3.17,1.51,1.45,2.28,3.35,2.29,5.69-.01,2.06-.61,3.87-1.8,5.44-1.19,1.57-2.83,2.79-4.93,3.68-2.1.88-4.52,1.32-7.24,1.32-4.01,0-7.23-.84-9.67-2.53-2.44-1.68-3.9-4.03-4.37-7.04l7.52-.72c.34,1.48,1.07,2.59,2.17,3.35s2.55,1.13,4.33,1.13,3.31-.38,4.42-1.13,1.67-1.68,1.67-2.79c0-.94-.36-1.71-1.08-2.32-.72-.61-1.83-1.08-3.33-1.41l-5.58-1.17c-3.14-.65-5.46-1.76-6.97-3.31-1.51-1.56-2.25-3.53-2.24-5.91-.01-2.02.54-3.77,1.65-5.25s2.67-2.63,4.67-3.45c2-.82,4.3-1.22,6.91-1.22,3.83,0,6.86.82,9.07,2.45,2.21,1.63,3.58,3.84,4.1,6.63Z"/>
      </g>
      <g>
        <path class="cls-1" d="m103.23,257.56v-26.18h9.15c1.82,0,3.33.31,4.51.94s2.07,1.47,2.65,2.52c.58,1.05.87,2.22.87,3.5,0,1.12-.2,2.05-.59,2.79-.4.73-.92,1.31-1.56,1.74-.64.43-1.34.74-2.09.95v.26c.8.05,1.61.33,2.42.84.81.51,1.49,1.24,2.03,2.2.54.95.82,2.12.82,3.5s-.3,2.49-.9,3.54c-.6,1.05-1.54,1.88-2.83,2.49-1.29.61-2.96.92-5.02.92h-9.46Zm3.17-14.68h5.88c.95,0,1.82-.19,2.59-.56.77-.38,1.38-.9,1.84-1.59.46-.68.68-1.48.68-2.4,0-1.15-.4-2.13-1.2-2.93-.8-.81-2.07-1.21-3.81-1.21h-5.98v8.69Zm0,11.86h6.29c2.07,0,3.54-.4,4.42-1.21.87-.81,1.31-1.78,1.31-2.93,0-.89-.23-1.71-.68-2.46-.45-.75-1.09-1.36-1.93-1.82-.84-.46-1.82-.68-2.97-.68h-6.44v9.1Z"/>
        <path class="cls-1" d="m138.61,249.53v-11.61h3.02v19.64h-3.02v-3.32h-.2c-.46,1-1.18,1.84-2.15,2.54s-2.2,1.04-3.68,1.04c-1.23,0-2.32-.27-3.27-.81-.95-.54-1.7-1.36-2.25-2.46-.54-1.09-.82-2.48-.82-4.15v-12.48h3.02v12.27c0,1.43.4,2.57,1.21,3.43s1.83,1.28,3.09,1.28c.75,0,1.52-.19,2.29-.58.78-.38,1.44-.97,1.97-1.76.53-.79.8-1.8.8-3.03Z"/>
        <path class="cls-1" d="m161.06,242.32l-2.71.77c-.17-.45-.42-.89-.75-1.32-.33-.43-.77-.79-1.34-1.07s-1.28-.42-2.16-.42c-1.2,0-2.2.28-3,.82-.8.55-1.2,1.25-1.2,2.09,0,.75.27,1.34.82,1.78.55.44,1.4.8,2.56,1.09l2.91.72c1.76.43,3.06,1.08,3.92,1.95.86.87,1.29,2,1.29,3.37,0,1.12-.32,2.13-.96,3.02-.64.89-1.54,1.58-2.69,2.1-1.15.51-2.49.77-4.01.77-2,0-3.66-.43-4.97-1.3-1.31-.87-2.14-2.14-2.49-3.81l2.86-.72c.27,1.06.79,1.85,1.55,2.38.76.53,1.76.79,3,.79,1.41,0,2.53-.3,3.36-.9s1.25-1.32,1.25-2.17c0-.68-.24-1.25-.72-1.72-.48-.46-1.21-.81-2.2-1.04l-3.27-.77c-1.8-.43-3.12-1.09-3.96-1.99-.84-.9-1.26-2.03-1.26-3.38,0-1.11.31-2.09.94-2.94.63-.85,1.48-1.52,2.57-2.01,1.09-.49,2.32-.73,3.7-.73,1.94,0,3.47.43,4.58,1.28,1.11.85,1.9,1.98,2.37,3.38Z"/>
        <path class="cls-1" d="m167.5,234.65c-.59,0-1.09-.2-1.51-.6s-.63-.88-.63-1.44.21-1.04.63-1.45c.42-.4.93-.6,1.51-.6s1.09.2,1.52.6c.42.4.63.88.63,1.45s-.21,1.04-.63,1.44-.93.6-1.52.6Zm-1.53,22.91v-19.64h3.02v19.64h-3.02Z"/>
        <path class="cls-1" d="m177.53,245.75v11.81h-3.02v-19.64h2.92v3.07h.25c.46-1,1.16-1.8,2.1-2.41s2.15-.91,3.63-.91c1.33,0,2.49.27,3.49.81s1.77,1.36,2.33,2.45c.55,1.1.83,2.48.83,4.15v12.48h-3.02v-12.27c0-1.54-.4-2.75-1.2-3.61-.8-.87-1.9-1.3-3.3-1.3-.96,0-1.82.21-2.58.63-.75.42-1.35,1.03-1.78,1.83-.43.8-.65,1.77-.65,2.92Z"/>
        <path class="cls-1" d="m203.81,257.97c-1.89,0-3.52-.42-4.89-1.26-1.37-.84-2.42-2.01-3.16-3.53-.74-1.51-1.11-3.27-1.11-5.29s.37-3.79,1.11-5.32,1.77-2.74,3.09-3.61c1.33-.86,2.87-1.3,4.65-1.3,1.02,0,2.03.17,3.03.51s1.91.89,2.72,1.66c.82.76,1.47,1.77,1.96,3.02.49,1.25.73,2.8.73,4.63v1.28h-15.14v-2.61h12.07c0-1.11-.22-2.1-.66-2.97-.44-.87-1.06-1.56-1.87-2.06-.8-.5-1.75-.75-2.84-.75-1.2,0-2.24.3-3.11.89-.87.59-1.54,1.36-2.01,2.31-.47.95-.7,1.96-.7,3.04v1.74c0,1.48.26,2.74.77,3.76s1.23,1.81,2.15,2.34c.92.53,1.99.8,3.21.8.79,0,1.51-.11,2.15-.34s1.2-.57,1.67-1.02c.47-.46.83-1.02,1.09-1.71l2.92.82c-.31.99-.82,1.86-1.55,2.6-.72.75-1.62,1.33-2.69,1.74s-2.26.62-3.59.62Z"/>
        <path class="cls-1" d="m230.45,242.32l-2.71.77c-.17-.45-.42-.89-.75-1.32-.33-.43-.77-.79-1.34-1.07s-1.28-.42-2.16-.42c-1.2,0-2.2.28-3,.82-.8.55-1.2,1.25-1.2,2.09,0,.75.27,1.34.82,1.78.54.44,1.4.8,2.56,1.09l2.92.72c1.76.43,3.06,1.08,3.92,1.95.86.87,1.29,2,1.29,3.37,0,1.12-.32,2.13-.97,3.02-.64.89-1.54,1.58-2.69,2.1-1.15.51-2.49.77-4.01.77-2,0-3.66-.43-4.97-1.3-1.31-.87-2.14-2.14-2.49-3.81l2.86-.72c.27,1.06.79,1.85,1.55,2.38.76.53,1.76.79,3,.79,1.41,0,2.52-.3,3.36-.9s1.25-1.32,1.25-2.17c0-.68-.24-1.25-.72-1.72-.48-.46-1.21-.81-2.2-1.04l-3.27-.77c-1.8-.43-3.12-1.09-3.96-1.99-.84-.9-1.26-2.03-1.26-3.38,0-1.11.31-2.09.94-2.94.63-.85,1.48-1.52,2.57-2.01,1.09-.49,2.32-.73,3.7-.73,1.94,0,3.47.43,4.58,1.28,1.11.85,1.9,1.98,2.37,3.38Z"/>
        <path class="cls-1" d="m249.27,242.32l-2.71.77c-.17-.45-.42-.89-.75-1.32-.33-.43-.77-.79-1.34-1.07s-1.28-.42-2.16-.42c-1.2,0-2.2.28-3,.82-.8.55-1.2,1.25-1.2,2.09,0,.75.27,1.34.82,1.78.55.44,1.4.8,2.56,1.09l2.91.72c1.76.43,3.06,1.08,3.92,1.95.86.87,1.29,2,1.29,3.37,0,1.12-.32,2.13-.96,3.02-.64.89-1.54,1.58-2.69,2.1-1.15.51-2.49.77-4.01.77-2,0-3.66-.43-4.97-1.3-1.31-.87-2.14-2.14-2.49-3.81l2.86-.72c.27,1.06.79,1.85,1.55,2.38.76.53,1.76.79,3,.79,1.41,0,2.53-.3,3.36-.9s1.25-1.32,1.25-2.17c0-.68-.24-1.25-.72-1.72-.48-.46-1.21-.81-2.2-1.04l-3.27-.77c-1.8-.43-3.12-1.09-3.96-1.99-.84-.9-1.26-2.03-1.26-3.38,0-1.11.31-2.09.94-2.94.63-.85,1.48-1.52,2.57-2.01,1.09-.49,2.32-.73,3.7-.73,1.94,0,3.47.43,4.58,1.28,1.11.85,1.9,1.98,2.37,3.38Z"/>
        <path class="cls-1" d="m285.78,239.56h-3.17c-.19-.91-.51-1.71-.98-2.4s-1.03-1.27-1.69-1.75-1.39-.83-2.19-1.07-1.64-.36-2.51-.36c-1.58,0-3.02.4-4.3,1.2-1.28.8-2.3,1.98-3.06,3.54-.75,1.56-1.13,3.47-1.13,5.74s.38,4.18,1.13,5.74c.75,1.56,1.77,2.74,3.06,3.54,1.28.8,2.72,1.2,4.3,1.2.87,0,1.71-.12,2.51-.36s1.53-.59,2.19-1.07c.66-.47,1.22-1.06,1.69-1.75.46-.69.79-1.49.98-2.4h3.17c-.24,1.34-.67,2.54-1.3,3.59-.63,1.06-1.42,1.95-2.35,2.69s-1.99,1.3-3.15,1.68c-1.16.38-2.41.58-3.73.58-2.23,0-4.22-.55-5.96-1.64-1.74-1.09-3.11-2.64-4.1-4.65s-1.5-4.4-1.5-7.16.5-5.15,1.5-7.16,2.36-3.56,4.1-4.65c1.74-1.09,3.72-1.64,5.96-1.64,1.32,0,2.56.19,3.73.58,1.16.38,2.21.94,3.15,1.68s1.72,1.63,2.35,2.68,1.07,2.25,1.3,3.6Z"/>
        <path class="cls-1" d="m298.46,257.97c-1.77,0-3.33-.42-4.66-1.27-1.33-.84-2.37-2.02-3.12-3.54-.75-1.52-1.12-3.29-1.12-5.32s.37-3.83,1.12-5.36c.75-1.53,1.79-2.71,3.12-3.55,1.33-.84,2.89-1.27,4.66-1.27s3.33.42,4.66,1.27,2.37,2.03,3.12,3.55,1.12,3.31,1.12,5.36-.37,3.8-1.12,5.32c-.75,1.52-1.79,2.7-3.12,3.54s-2.89,1.27-4.66,1.27Zm0-2.71c1.35,0,2.46-.35,3.32-1.04s1.51-1.6,1.93-2.72c.42-1.12.63-2.34.63-3.66s-.21-2.54-.63-3.67c-.42-1.13-1.06-2.05-1.93-2.75-.87-.7-1.98-1.05-3.32-1.05s-2.45.35-3.32,1.05c-.87.7-1.51,1.62-1.93,2.75-.42,1.13-.63,2.36-.63,3.67s.21,2.53.63,3.66c.42,1.12,1.06,2.03,1.93,2.72.87.69,1.98,1.04,3.32,1.04Z"/>
        <path class="cls-1" d="m314.98,245.75v11.81h-3.02v-19.64h2.92v3.07h.25c.46-1,1.16-1.8,2.1-2.41s2.15-.91,3.63-.91c1.33,0,2.49.27,3.49.81s1.77,1.36,2.33,2.45c.55,1.1.83,2.48.83,4.15v12.48h-3.02v-12.27c0-1.54-.4-2.75-1.2-3.61-.8-.87-1.9-1.3-3.3-1.3-.96,0-1.82.21-2.58.63-.75.42-1.35,1.03-1.78,1.83-.43.8-.65,1.77-.65,2.92Z"/>
        <path class="cls-1" d="m346.94,242.32l-2.71.77c-.17-.45-.42-.89-.75-1.32-.33-.43-.77-.79-1.34-1.07s-1.28-.42-2.16-.42c-1.2,0-2.2.28-3,.82-.8.55-1.2,1.25-1.2,2.09,0,.75.27,1.34.82,1.78.54.44,1.4.8,2.56,1.09l2.92.72c1.76.43,3.06,1.08,3.92,1.95.86.87,1.29,2,1.29,3.37,0,1.12-.32,2.13-.97,3.02-.64.89-1.54,1.58-2.69,2.1-1.15.51-2.49.77-4.01.77-2,0-3.66-.43-4.97-1.3-1.31-.87-2.14-2.14-2.49-3.81l2.86-.72c.27,1.06.79,1.85,1.55,2.38.76.53,1.76.79,3,.79,1.41,0,2.52-.3,3.36-.9s1.25-1.32,1.25-2.17c0-.68-.24-1.25-.72-1.72-.48-.46-1.21-.81-2.2-1.04l-3.27-.77c-1.8-.43-3.12-1.09-3.96-1.99-.84-.9-1.26-2.03-1.26-3.38,0-1.11.31-2.09.94-2.94.63-.85,1.48-1.52,2.57-2.01,1.09-.49,2.32-.73,3.7-.73,1.94,0,3.47.43,4.58,1.28,1.11.85,1.9,1.98,2.37,3.38Z"/>
        <path class="cls-1" d="m364.22,249.53v-11.61h3.02v19.64h-3.02v-3.32h-.21c-.46,1-1.18,1.84-2.15,2.54s-2.2,1.04-3.68,1.04c-1.23,0-2.32-.27-3.27-.81-.96-.54-1.71-1.36-2.25-2.46-.55-1.09-.82-2.48-.82-4.15v-12.48h3.02v12.27c0,1.43.4,2.57,1.21,3.43.81.85,1.83,1.28,3.09,1.28.75,0,1.51-.19,2.29-.58.78-.38,1.44-.97,1.97-1.76.53-.79.8-1.8.8-3.03Z"/>
        <path class="cls-1" d="m375.78,231.38v26.18h-3.02v-26.18h3.02Z"/>
        <path class="cls-1" d="m389.84,237.92v2.56h-10.18v-2.56h10.18Zm-7.21-4.7h3.02v18.72c0,.85.12,1.49.38,1.91.25.42.58.7.97.84s.82.21,1.26.21c.33,0,.61-.02.82-.06s.38-.07.51-.1l.61,2.71c-.2.08-.49.16-.86.24s-.83.12-1.39.12c-.85,0-1.69-.18-2.5-.55-.81-.37-1.49-.92-2.02-1.67-.53-.75-.8-1.7-.8-2.84v-19.53Z"/>
        <path class="cls-1" d="m395.93,234.65c-.59,0-1.09-.2-1.51-.6s-.63-.88-.63-1.44.21-1.04.63-1.45c.42-.4.93-.6,1.51-.6s1.09.2,1.51.6c.42.4.63.88.63,1.45s-.21,1.04-.63,1.44-.93.6-1.51.6Zm-1.53,22.91v-19.64h3.02v19.64h-3.02Z"/>
        <path class="cls-1" d="m405.95,245.75v11.81h-3.02v-19.64h2.92v3.07h.26c.46-1,1.16-1.8,2.1-2.41s2.15-.91,3.63-.91c1.33,0,2.49.27,3.49.81,1,.54,1.77,1.36,2.33,2.45.55,1.1.83,2.48.83,4.15v12.48h-3.02v-12.27c0-1.54-.4-2.75-1.2-3.61-.8-.87-1.9-1.3-3.3-1.3-.96,0-1.82.21-2.58.63-.75.42-1.35,1.03-1.78,1.83-.43.8-.65,1.77-.65,2.92Z"/>
        <path class="cls-1" d="m431.93,265.33c-1.46,0-2.71-.19-3.76-.56-1.05-.37-1.92-.86-2.62-1.46-.69-.6-1.25-1.24-1.66-1.92l2.4-1.69c.27.36.62.77,1.04,1.23.42.46.99.87,1.72,1.21.73.35,1.69.52,2.87.52,1.59,0,2.89-.38,3.92-1.15,1.03-.77,1.55-1.97,1.55-3.6v-3.99h-.26c-.22.36-.53.8-.94,1.32-.4.52-.98.99-1.74,1.39-.75.41-1.77.61-3.05.61-1.59,0-3.01-.38-4.26-1.12-1.26-.75-2.25-1.84-2.98-3.27-.73-1.43-1.09-3.17-1.09-5.22s.35-3.76,1.06-5.26c.71-1.5,1.69-2.66,2.95-3.48,1.26-.82,2.72-1.23,4.37-1.23,1.28,0,2.29.21,3.05.63.75.42,1.33.9,1.74,1.43.4.53.72.97.94,1.31h.31v-3.12h2.92v20.2c0,1.69-.38,3.06-1.14,4.12-.76,1.06-1.79,1.84-3.07,2.34-1.28.5-2.71.75-4.28.75Zm-.1-10.79c1.21,0,2.23-.28,3.07-.83.84-.55,1.47-1.35,1.91-2.39.43-1.04.65-2.28.65-3.73s-.21-2.66-.64-3.75c-.43-1.08-1.06-1.93-1.89-2.54-.84-.61-1.87-.92-3.09-.92s-2.34.32-3.19.97c-.85.65-1.48,1.52-1.9,2.61s-.63,2.3-.63,3.63.21,2.57.65,3.61c.43,1.04,1.07,1.86,1.92,2.46.85.59,1.9.89,3.16.89Z"/>
      </g>
      <g>
        <rect class="cls-2" x="100.06" y="101.8" width="100" height="100"/>
        <polygon class="cls-4" points="170.71 134.74 170.71 167.35 149.57 167.35 140.3 178.49 140.3 167.35 129.4 167.35 129.4 134.74 170.71 134.74"/>
      </g>
    </g>
  </g>
</svg>