<?xml version="1.0" encoding="UTF-8"?>
<svg xmlns="http://www.w3.org/2000/svg" xmlns:xlink="http://www.w3.org/1999/xlink" viewBox="0 0 2000 900">
  <defs>
    <style>
      .cls-1 {
        fill: none;
      }

      .cls-2 {
        fill: url(#linear-gradient);
      }

      .cls-3 {
        clip-path: url(#clippath);
      }

      .cls-4 {
        fill: #f2f2f2;
      }

      .cls-5 {
        fill: #f4f4f6;
      }

      .cls-6 {
        fill: #f5f5f7;
      }

      .cls-7 {
        fill: #ff5668;
      }

      .cls-8 {
        fill: #ff9f75;
      }

      .cls-9 {
        fill: #fff;
      }

      .cls-10 {
        fill: #f1f1f1;
      }

      .cls-11 {
        fill: #ff9a00;
      }

      .cls-12 {
        fill: #ff7c40;
      }

      .cls-13 {
        fill: #ff895f;
      }

      .cls-14 {
        fill: #ff6d2b;
      }

      .cls-15 {
        fill: #ff8654;
      }

      .cls-16 {
        fill: #6c2abb;
      }

      .cls-17 {
        fill: #7f5eff;
      }

      .cls-18 {
        fill: #999;
      }

      .cls-19 {
        fill: #998c00;
      }

      .cls-20, .cls-21, .cls-22, .cls-23 {
        fill: #9eadd3;
      }

      .cls-24 {
        fill: #b8a800;
      }

      .cls-25 {
        fill: #9e9000;
      }

      .cls-26 {
        fill: #666;
      }

      .cls-27 {
        fill: #333;
      }

      .cls-28 {
        fill: #a89a00;
      }

      .cls-29 {
        fill: #bf483e;
      }

      .cls-30 {
        fill: #ccc;
      }

      .cls-31 {
        fill: #e02d66;
      }

      .cls-32 {
        fill: #ce5e4a;
      }

      .cls-33 {
        fill: #dcdcdc;
      }

      .cls-34 {
        fill: #d4d9df;
      }

      .cls-35 {
        fill: #e16b40;
      }

      .cls-36 {
        fill: #ad9e00;
      }

      .cls-37 {
        fill: #e1e8f2;
      }

      .cls-38 {
        fill: #c8ccda;
      }

      .cls-39 {
        fill: #1e1e1e;
      }

      .cls-40 {
        fill: #0b83ce;
      }

      .cls-41 {
        fill: #1ae5ff;
      }

      .cls-42 {
        fill: #948700;
      }

      .cls-43 {
        fill: #a39500;
      }

      .cls-44 {
        fill: #392869;
      }

      .cls-45 {
        fill: #3d3b36;
      }

      .cls-46 {
        fill: #2f3b40;
      }

      .cls-47 {
        fill: #852200;
      }

      .cls-48 {
        fill: #494549;
      }

      .cls-49 {
        fill: #5d4270;
      }

      .cls-50 {
        fill: #514c51;
      }

      .cls-51 {
        fill: #4da5dc;
      }

      .cls-21, .cls-52, .cls-22, .cls-23, .cls-53 {
        mix-blend-mode: multiply;
      }

      .cls-52 {
        fill: #94a3c0;
        opacity: .32;
      }

      .cls-22, .cls-53 {
        opacity: .4;
      }

      .cls-23 {
        opacity: .6;
      }

      .cls-54 {
        fill: url(#linear-gradient-8);
      }

      .cls-55 {
        fill: url(#linear-gradient-9);
      }

      .cls-56 {
        fill: url(#linear-gradient-3);
      }

      .cls-57 {
        fill: url(#linear-gradient-4);
      }

      .cls-58 {
        fill: url(#linear-gradient-2);
      }

      .cls-59 {
        fill: url(#linear-gradient-6);
      }

      .cls-60 {
        fill: url(#linear-gradient-7);
      }

      .cls-61 {
        fill: url(#linear-gradient-5);
      }

      .cls-62 {
        opacity: .53;
      }

      .cls-63 {
        fill: url(#linear-gradient-13);
      }

      .cls-64 {
        fill: url(#linear-gradient-12);
      }

      .cls-65 {
        fill: url(#linear-gradient-10);
      }

      .cls-66 {
        fill: url(#linear-gradient-11);
      }

      .cls-67 {
        isolation: isolate;
      }
    </style>
    <clipPath id="clippath">
      <path class="cls-1" d="m930.34,567.24v-61.47h24.61c4.52,0,8.29.67,11.31,2.01,3.02,1.34,5.29,3.2,6.81,5.57,1.52,2.37,2.28,5.1,2.28,8.18,0,2.4-.48,4.51-1.44,6.32-.96,1.81-2.28,3.29-3.95,4.44s-3.58,1.97-5.72,2.45v.6c2.34.1,4.54.76,6.59,1.98,2.05,1.22,3.72,2.93,5,5.12,1.28,2.19,1.92,4.8,1.92,7.82,0,3.26-.81,6.17-2.42,8.72-1.61,2.55-3.99,4.57-7.13,6.05s-7.01,2.22-11.62,2.22h-26.26Zm13-35.75h9.63c1.78,0,3.37-.32,4.76-.95s2.49-1.53,3.3-2.69,1.21-2.55,1.21-4.17c0-2.22-.79-4.01-2.36-5.37s-3.8-2.04-6.68-2.04h-9.87v15.22Zm0,25.12h10.59c3.62,0,6.26-.69,7.92-2.09,1.66-1.39,2.49-3.25,2.49-5.57,0-1.7-.41-3.2-1.23-4.5s-1.99-2.32-3.5-3.06c-1.51-.74-3.31-1.11-5.39-1.11h-10.89v16.33Zm72.18-9v-26.47h12.79v46.1h-12.27v-8.37h-.48c-1.04,2.7-2.77,4.87-5.18,6.51-2.41,1.64-5.35,2.46-8.81,2.46-3.08,0-5.79-.7-8.13-2.1-2.34-1.4-4.17-3.39-5.48-5.97s-1.97-5.67-1.99-9.27v-29.35h12.79v27.07c.02,2.72.75,4.87,2.19,6.45,1.44,1.58,3.37,2.37,5.79,2.37,1.54,0,2.98-.36,4.32-1.07,1.34-.71,2.43-1.77,3.26-3.17.83-1.4,1.23-3.13,1.21-5.19Zm61.35-13.33l-11.71.72c-.2-1-.63-1.91-1.29-2.72-.66-.81-1.53-1.46-2.6-1.95s-2.35-.74-3.83-.74c-1.98,0-3.65.42-5.01,1.25-1.36.83-2.04,1.94-2.04,3.32,0,1.1.44,2.03,1.32,2.79.88.76,2.39,1.37,4.53,1.83l8.34,1.68c4.48.92,7.82,2.4,10.02,4.44,2.2,2.04,3.3,4.72,3.3,8.04,0,3.02-.88,5.67-2.65,7.95-1.77,2.28-4.19,4.06-7.26,5.33-3.07,1.27-6.61,1.91-10.61,1.91-6.1,0-10.96-1.28-14.57-3.83-3.61-2.55-5.73-6.03-6.35-10.43l12.57-.66c.38,1.86,1.3,3.28,2.76,4.25,1.46.97,3.33,1.46,5.61,1.46s4.05-.44,5.42-1.31c1.37-.87,2.07-2,2.09-3.38-.02-1.16-.51-2.12-1.47-2.87-.96-.75-2.44-1.33-4.44-1.73l-7.98-1.59c-4.5-.9-7.85-2.46-10.04-4.68-2.19-2.22-3.29-5.05-3.29-8.49,0-2.96.8-5.51,2.42-7.65,1.61-2.14,3.88-3.79,6.81-4.95,2.93-1.16,6.37-1.74,10.31-1.74,5.82,0,10.41,1.23,13.76,3.69,3.35,2.46,5.31,5.81,5.87,10.05Zm15.54-19.09c-1.9,0-3.53-.63-4.88-1.91-1.35-1.27-2.03-2.8-2.03-4.58s.67-3.28,2.03-4.55c1.35-1.27,2.98-1.91,4.88-1.91s3.53.63,4.88,1.91c1.35,1.27,2.03,2.79,2.03,4.55s-.68,3.31-2.03,4.58c-1.35,1.27-2.98,1.91-4.88,1.91Zm-6.42,52.04v-46.1h12.79v46.1h-12.79Zm35.77-26.65v26.65h-12.79v-46.1h12.18v8.13h.54c1.02-2.68,2.73-4.81,5.13-6.38,2.4-1.57,5.31-2.36,8.73-2.36,3.2,0,5.99.7,8.37,2.1s4.23,3.4,5.55,5.99c1.32,2.59,1.98,5.68,1.98,9.26v29.35h-12.79v-27.07c.02-2.82-.7-5.03-2.16-6.62-1.46-1.59-3.47-2.39-6.03-2.39-1.72,0-3.24.37-4.55,1.11s-2.33,1.82-3.06,3.23-1.11,3.11-1.12,5.09Zm60.77,27.55c-4.74,0-8.82-.97-12.23-2.9s-6.04-4.67-7.88-8.22c-1.84-3.55-2.76-7.76-2.76-12.62s.92-8.9,2.76-12.49c1.84-3.58,4.44-6.37,7.79-8.37,3.35-2,7.29-3,11.81-3,3.04,0,5.88.49,8.51,1.46,2.63.97,4.93,2.43,6.9,4.37s3.51,4.38,4.61,7.31c1.1,2.93,1.65,6.36,1.65,10.28v3.51h-38.93v-7.92h26.89c0-1.84-.4-3.47-1.2-4.89-.8-1.42-1.91-2.54-3.32-3.35-1.41-.81-3.05-1.21-4.91-1.21s-3.66.45-5.15,1.33c-1.49.89-2.66,2.08-3.5,3.57-.84,1.49-1.27,3.15-1.29,4.97v7.53c0,2.28.43,4.25,1.28,5.91.85,1.66,2.06,2.94,3.62,3.84s3.41,1.35,5.55,1.35c1.42,0,2.72-.2,3.9-.6s2.19-1,3.03-1.8c.84-.8,1.48-1.78,1.92-2.94l11.82.78c-.6,2.84-1.83,5.32-3.68,7.43-1.85,2.11-4.23,3.75-7.14,4.92-2.91,1.17-6.27,1.76-10.07,1.76Zm67.86-33.85l-11.71.72c-.2-1-.63-1.91-1.29-2.72-.66-.81-1.53-1.46-2.6-1.95s-2.35-.74-3.83-.74c-1.98,0-3.65.42-5.01,1.25-1.36.83-2.04,1.94-2.04,3.32,0,1.1.44,2.03,1.32,2.79.88.76,2.39,1.37,4.53,1.83l8.34,1.68c4.48.92,7.82,2.4,10.03,4.44,2.2,2.04,3.3,4.72,3.3,8.04,0,3.02-.88,5.67-2.66,7.95s-4.19,4.06-7.26,5.33c-3.07,1.27-6.61,1.91-10.61,1.91-6.1,0-10.96-1.28-14.57-3.83-3.61-2.55-5.73-6.03-6.35-10.43l12.58-.66c.38,1.86,1.3,3.28,2.76,4.25,1.46.97,3.33,1.46,5.61,1.46s4.05-.44,5.42-1.31c1.37-.87,2.07-2,2.09-3.38-.02-1.16-.51-2.12-1.47-2.87-.96-.75-2.44-1.33-4.44-1.73l-7.98-1.59c-4.5-.9-7.85-2.46-10.04-4.68-2.19-2.22-3.29-5.05-3.29-8.49,0-2.96.8-5.51,2.42-7.65,1.61-2.14,3.88-3.79,6.81-4.95,2.93-1.16,6.37-1.74,10.31-1.74,5.82,0,10.41,1.23,13.76,3.69s5.31,5.81,5.87,10.05Zm47.48,0l-11.71.72c-.2-1-.63-1.91-1.29-2.72-.66-.81-1.53-1.46-2.6-1.95s-2.35-.74-3.83-.74c-1.98,0-3.65.42-5.01,1.25-1.36.83-2.04,1.94-2.04,3.32,0,1.1.44,2.03,1.32,2.79.88.76,2.39,1.37,4.53,1.83l8.34,1.68c4.48.92,7.82,2.4,10.02,4.44,2.2,2.04,3.3,4.72,3.3,8.04,0,3.02-.88,5.67-2.65,7.95-1.77,2.28-4.19,4.06-7.26,5.33-3.07,1.27-6.61,1.91-10.61,1.91-6.1,0-10.96-1.28-14.57-3.83-3.61-2.55-5.73-6.03-6.35-10.43l12.57-.66c.38,1.86,1.3,3.28,2.76,4.25,1.46.97,3.33,1.46,5.61,1.46s4.05-.44,5.42-1.31c1.37-.87,2.07-2,2.09-3.38-.02-1.16-.51-2.12-1.47-2.87-.96-.75-2.44-1.33-4.44-1.73l-7.98-1.59c-4.5-.9-7.85-2.46-10.04-4.68-2.19-2.22-3.29-5.05-3.29-8.49,0-2.96.8-5.51,2.42-7.65,1.61-2.14,3.88-3.79,6.81-4.95,2.93-1.16,6.37-1.74,10.31-1.74,5.82,0,10.41,1.23,13.76,3.69,3.35,2.46,5.31,5.81,5.87,10.05Zm83.19-6.99h-13.14c-.24-1.7-.73-3.22-1.47-4.55-.74-1.33-1.69-2.47-2.85-3.41-1.16-.94-2.5-1.66-4.01-2.16-1.51-.5-3.15-.75-4.91-.75-3.18,0-5.95.79-8.31,2.36-2.36,1.57-4.19,3.85-5.49,6.84s-1.95,6.62-1.95,10.88.65,8.06,1.97,11.04c1.31,2.98,3.14,5.23,5.51,6.75s5.09,2.28,8.19,2.28c1.74,0,3.36-.23,4.85-.69s2.82-1.14,3.98-2.03c1.16-.89,2.12-1.98,2.9-3.26.77-1.28,1.3-2.74,1.61-4.38l13.14.06c-.34,2.82-1.19,5.54-2.54,8.15-1.35,2.61-3.16,4.94-5.43,6.99-2.27,2.05-4.97,3.67-8.1,4.86-3.13,1.19-6.67,1.79-10.61,1.79-5.48,0-10.38-1.24-14.69-3.72-4.31-2.48-7.71-6.07-10.21-10.77-2.49-4.7-3.74-10.39-3.74-17.08s1.26-12.41,3.78-17.11c2.52-4.7,5.94-8.29,10.27-10.76,4.32-2.47,9.18-3.71,14.59-3.71,3.56,0,6.87.5,9.92,1.5,3.05,1,5.76,2.46,8.12,4.37,2.36,1.91,4.29,4.25,5.78,7.01,1.49,2.76,2.45,5.92,2.87,9.48Zm29.92,40.85c-4.66,0-8.69-1-12.08-2.99-3.39-1.99-6.01-4.77-7.85-8.34-1.84-3.57-2.76-7.72-2.76-12.44s.92-8.93,2.76-12.5c1.84-3.57,4.46-6.35,7.85-8.34,3.39-1.99,7.42-2.99,12.08-2.99s8.69,1,12.08,2.99c3.39,1.99,6.01,4.77,7.85,8.34,1.84,3.57,2.76,7.74,2.76,12.5s-.92,8.87-2.76,12.44c-1.84,3.57-4.46,6.35-7.85,8.34-3.39,1.99-7.42,2.99-12.08,2.99Zm.06-9.9c2.12,0,3.89-.6,5.31-1.82,1.42-1.21,2.5-2.87,3.23-4.97.73-2.1,1.1-4.49,1.1-7.17s-.37-5.07-1.1-7.17-1.81-3.76-3.23-4.98c-1.42-1.22-3.19-1.83-5.31-1.83s-3.94.61-5.39,1.83c-1.45,1.22-2.54,2.88-3.27,4.98s-1.1,4.49-1.1,7.17.37,5.07,1.1,7.17c.73,2.1,1.82,3.76,3.27,4.97,1.45,1.21,3.25,1.82,5.39,1.82Zm43.76-17.65v26.65h-12.79v-46.1h12.19v8.13h.54c1.02-2.68,2.73-4.81,5.13-6.38,2.4-1.57,5.31-2.36,8.73-2.36,3.2,0,5.99.7,8.37,2.1s4.23,3.4,5.55,5.99c1.32,2.59,1.98,5.68,1.98,9.26v29.35h-12.79v-27.07c.02-2.82-.7-5.03-2.16-6.62-1.46-1.59-3.47-2.39-6.03-2.39-1.72,0-3.24.37-4.55,1.11s-2.33,1.82-3.06,3.23-1.11,3.11-1.12,5.09Zm78.12-6.3l-11.71.72c-.2-1-.63-1.91-1.29-2.72-.66-.81-1.53-1.46-2.6-1.95s-2.35-.74-3.83-.74c-1.98,0-3.65.42-5.01,1.25-1.36.83-2.04,1.94-2.04,3.32,0,1.1.44,2.03,1.32,2.79.88.76,2.39,1.37,4.53,1.83l8.34,1.68c4.48.92,7.82,2.4,10.03,4.44,2.2,2.04,3.3,4.72,3.3,8.04,0,3.02-.88,5.67-2.66,7.95s-4.19,4.06-7.26,5.33c-3.07,1.27-6.61,1.91-10.61,1.91-6.1,0-10.96-1.28-14.57-3.83-3.61-2.55-5.73-6.03-6.35-10.43l12.58-.66c.38,1.86,1.3,3.28,2.76,4.25,1.46.97,3.33,1.46,5.61,1.46s4.05-.44,5.42-1.31c1.37-.87,2.07-2,2.09-3.38-.02-1.16-.51-2.12-1.47-2.87-.96-.75-2.44-1.33-4.44-1.73l-7.98-1.59c-4.5-.9-7.85-2.46-10.04-4.68-2.19-2.22-3.29-5.05-3.29-8.49,0-2.96.8-5.51,2.42-7.65,1.61-2.14,3.88-3.79,6.81-4.95,2.93-1.16,6.37-1.74,10.31-1.74,5.82,0,10.41,1.23,13.76,3.69s5.31,5.81,5.87,10.05Zm38.69,13.33v-26.47h12.79v46.1h-12.28v-8.37h-.48c-1.04,2.7-2.77,4.87-5.18,6.51-2.41,1.64-5.35,2.46-8.81,2.46-3.08,0-5.79-.7-8.13-2.1-2.34-1.4-4.17-3.39-5.48-5.97s-1.98-5.67-2-9.27v-29.35h12.79v27.07c.02,2.72.75,4.87,2.19,6.45,1.44,1.58,3.37,2.37,5.79,2.37,1.54,0,2.98-.36,4.32-1.07s2.43-1.77,3.26-3.17c.83-1.4,1.23-3.13,1.21-5.19Zm35.78-41.84v61.47h-12.79v-61.47h12.79Zm34.72,15.37v9.6h-27.76v-9.6h27.76Zm-21.46-11.04h12.79v42.98c0,1.18.18,2.1.54,2.75.36.65.87,1.11,1.52,1.37.65.26,1.4.39,2.27.39.6,0,1.2-.05,1.8-.17.6-.11,1.06-.2,1.38-.25l2.01,9.51c-.64.2-1.54.43-2.7.71s-2.57.44-4.23.5c-3.08.12-5.78-.29-8.09-1.23s-4.11-2.4-5.39-4.38c-1.28-1.98-1.91-4.48-1.89-7.5v-44.66Zm36.19,5.1c-1.9,0-3.53-.63-4.88-1.91-1.35-1.27-2.03-2.8-2.03-4.58s.68-3.28,2.03-4.55c1.35-1.27,2.98-1.91,4.88-1.91s3.53.63,4.88,1.91c1.35,1.27,2.03,2.79,2.03,4.55s-.68,3.31-2.03,4.58c-1.35,1.27-2.97,1.91-4.88,1.91Zm-6.42,52.04v-46.1h12.79v46.1h-12.79Zm35.77-26.65v26.65h-12.79v-46.1h12.19v8.13h.54c1.02-2.68,2.73-4.81,5.13-6.38,2.4-1.57,5.31-2.36,8.73-2.36,3.2,0,5.99.7,8.37,2.1s4.23,3.4,5.55,5.99c1.32,2.59,1.98,5.68,1.98,9.26v29.35h-12.79v-27.07c.02-2.82-.7-5.03-2.16-6.62-1.46-1.59-3.47-2.39-6.03-2.39-1.72,0-3.24.37-4.55,1.11s-2.33,1.82-3.06,3.23-1.11,3.11-1.12,5.09Zm60.54,44.9c-4.14,0-7.69-.57-10.64-1.7-2.95-1.13-5.3-2.67-7.04-4.61s-2.87-4.12-3.39-6.54l11.83-1.59c.36.92.93,1.78,1.71,2.58.78.8,1.81,1.45,3.11,1.94s2.87.74,4.73.74c2.78,0,5.08-.67,6.89-2.03,1.81-1.35,2.71-3.61,2.71-6.77v-8.43h-.54c-.56,1.28-1.4,2.49-2.52,3.63s-2.56,2.07-4.32,2.79c-1.76.72-3.86,1.08-6.3,1.08-3.46,0-6.61-.81-9.44-2.42-2.83-1.61-5.08-4.08-6.75-7.41-1.67-3.33-2.51-7.55-2.51-12.65s.85-9.58,2.55-13.09c1.7-3.5,3.97-6.12,6.8-7.86,2.83-1.74,5.94-2.61,9.32-2.61,2.58,0,4.74.43,6.48,1.31,1.74.87,3.15,1.95,4.22,3.24,1.07,1.29,1.9,2.56,2.48,3.8h.48v-7.74h12.7v46.55c0,3.92-.96,7.2-2.88,9.84-1.92,2.64-4.58,4.63-7.97,5.96-3.39,1.33-7.29,2-11.69,2Zm.27-28.51c2.06,0,3.81-.51,5.24-1.55,1.43-1.03,2.53-2.51,3.3-4.44.77-1.93,1.15-4.25,1.15-6.95s-.38-5.05-1.14-7.04-1.86-3.54-3.3-4.64c-1.44-1.1-3.19-1.65-5.25-1.65s-3.87.57-5.31,1.7c-1.44,1.13-2.53,2.7-3.27,4.7-.74,2-1.11,4.31-1.11,6.93s.38,4.96,1.13,6.89,1.84,3.42,3.27,4.47c1.43,1.05,3.2,1.58,5.3,1.58Z"/>
    </clipPath>
    <linearGradient id="linear-gradient" x1="910.05" y1="652.58" x2="1782.36" y2="418.84" gradientUnits="userSpaceOnUse">
      <stop offset="0" stop-color="#858585"/>
      <stop offset="1" stop-color="#232323"/>
    </linearGradient>
    <linearGradient id="linear-gradient-2" x1="460.89" y1="579.45" x2="476.14" y2="558.53" gradientUnits="userSpaceOnUse">
      <stop offset="0" stop-color="#574baa"/>
      <stop offset="1" stop-color="#666"/>
    </linearGradient>
    <linearGradient id="linear-gradient-3" x1="-10597.34" y1="616.04" x2="-10582.09" y2="595.13" gradientTransform="translate(-9954.49) rotate(-180) scale(1 -1)" xlink:href="#linear-gradient-2"/>
    <linearGradient id="linear-gradient-4" x1="-10521" y1="525.28" x2="-10528.97" y2="553.52" gradientTransform="translate(-9843.98) rotate(-180) scale(1 -1)" gradientUnits="userSpaceOnUse">
      <stop offset="0" stop-color="#a7aaad"/>
      <stop offset="0" stop-color="#d0d3d4"/>
      <stop offset=".12" stop-color="#889299"/>
      <stop offset=".15" stop-color="#919aa0"/>
      <stop offset=".27" stop-color="#bcc0c3"/>
      <stop offset=".37" stop-color="#d6d7d8"/>
      <stop offset=".43" stop-color="#e0e0e0"/>
      <stop offset=".47" stop-color="#d4d6d6"/>
      <stop offset=".53" stop-color="#b7bbbc"/>
      <stop offset=".62" stop-color="#879091"/>
      <stop offset=".73" stop-color="#455457"/>
      <stop offset=".74" stop-color="#3f4f52"/>
      <stop offset=".8" stop-color="#6b7576"/>
      <stop offset=".89" stop-color="#aaaaa9"/>
      <stop offset=".96" stop-color="#d1ccc9"/>
      <stop offset="1" stop-color="#e0d9d6"/>
      <stop offset="1" stop-color="#e6e2df"/>
    </linearGradient>
    <linearGradient id="linear-gradient-5" x1="-10529.89" y1="541.4" x2="-10535.77" y2="547.28" xlink:href="#linear-gradient-4"/>
    <linearGradient id="linear-gradient-6" x1="-9667.98" y1="-2344.62" x2="-9626.17" y2="-2344.62" gradientTransform="translate(-8771.45 -2594.92) rotate(-147.87) scale(1 -1)" gradientUnits="userSpaceOnUse">
      <stop offset="0" stop-color="#555" stop-opacity="0"/>
      <stop offset=".14" stop-color="#535353" stop-opacity=".22"/>
      <stop offset=".42" stop-color="#4d4d4d" stop-opacity=".79"/>
      <stop offset=".51" stop-color="#4c4c4c"/>
      <stop offset="1" stop-color="#5c5c5c" stop-opacity="0"/>
    </linearGradient>
    <linearGradient id="linear-gradient-7" x1="-10461.24" y1="493.96" x2="-10459.44" y2="502.97" gradientTransform="translate(-9843.98) rotate(-180) scale(1 -1)" gradientUnits="userSpaceOnUse">
      <stop offset="0" stop-color="#555" stop-opacity="0"/>
      <stop offset=".11" stop-color="#575858" stop-opacity=".16"/>
      <stop offset=".32" stop-color="#5c6061" stop-opacity=".56"/>
      <stop offset=".51" stop-color="#63696b"/>
      <stop offset="1" stop-color="#5c5c5c" stop-opacity="0"/>
    </linearGradient>
    <linearGradient id="linear-gradient-8" x1="-10522.96" y1="502.17" x2="-10452" y2="502.17" xlink:href="#linear-gradient-4"/>
    <linearGradient id="linear-gradient-9" x1="321.69" y1="126.62" x2="199.38" y2="455.42" gradientUnits="userSpaceOnUse">
      <stop offset="0" stop-color="#333"/>
      <stop offset=".26" stop-color="#383838"/>
      <stop offset=".58" stop-color="#464646"/>
      <stop offset=".92" stop-color="#5f5f5f"/>
      <stop offset="1" stop-color="#666"/>
    </linearGradient>
    <linearGradient id="linear-gradient-10" x1="310.12" y1="122.32" x2="187.82" y2="451.11" xlink:href="#linear-gradient-9"/>
    <linearGradient id="linear-gradient-11" x1="298.56" y1="118.02" x2="176.26" y2="446.8" xlink:href="#linear-gradient-9"/>
    <linearGradient id="linear-gradient-12" x1="375.48" y1="146.63" x2="253.18" y2="475.42" xlink:href="#linear-gradient-9"/>
    <linearGradient id="linear-gradient-13" x1="275.96" y1="109.61" x2="153.66" y2="438.4" xlink:href="#linear-gradient-9"/>
  </defs>
  <g class="cls-67">
    <g id="Layer_2" data-name="Layer 2">
      <g id="Layer_1-2" data-name="Layer 1">
        <g>
          <rect class="cls-5" width="2000" height="900"/>
          <g>
            <g class="cls-3">
              <rect class="cls-2" x="901.79" y="449.65" width="888.82" height="172.12"/>
            </g>
            <g>
              <path class="cls-18" d="m1033.63,474.85h-8.48v-26.18h8.74c2.57,0,4.77.52,6.61,1.57,1.84,1.04,3.25,2.54,4.24,4.49.98,1.95,1.48,4.28,1.48,7s-.5,5.07-1.49,7.03c-.99,1.96-2.43,3.47-4.3,4.52-1.88,1.05-4.14,1.58-6.8,1.58Zm-4.53-3.45h4.31c2,0,3.65-.38,4.97-1.13,1.32-.75,2.31-1.85,2.96-3.29.66-1.44.98-3.19.98-5.26s-.33-3.8-.98-5.23c-.65-1.43-1.62-2.52-2.91-3.26-1.29-.74-2.88-1.11-4.79-1.11h-4.55v19.28Z"/>
              <path class="cls-18" d="m1053.24,482.21c-.57,0-1.09-.04-1.56-.13s-.82-.19-1.05-.29l.92-3.13c.7.19,1.32.27,1.87.24s1.03-.23,1.45-.61c.42-.38.79-1.01,1.12-1.88l.47-1.3-7.18-19.89h4.09l4.97,15.24h.21l4.97-15.24h4.1l-8.09,22.26c-.38,1.02-.85,1.89-1.43,2.6-.58.71-1.27,1.25-2.07,1.6-.8.36-1.73.54-2.79.54Z"/>
              <path class="cls-18" d="m1075.04,463.19v11.66h-3.82v-19.64h3.67v3.2h.24c.45-1.04,1.16-1.88,2.13-2.51.97-.63,2.19-.95,3.66-.95,1.34,0,2.51.28,3.52.84,1,.56,1.79,1.39,2.34,2.49.55,1.1.83,2.46.83,4.08v12.49h-3.82v-12.03c0-1.42-.37-2.54-1.11-3.34-.74-.81-1.76-1.21-3.05-1.21-.89,0-1.67.19-2.36.58s-1.23.94-1.62,1.68-.59,1.62-.59,2.67Z"/>
              <path class="cls-18" d="m1098.43,475.28c-1.25,0-2.37-.23-3.38-.7-1.01-.46-1.8-1.14-2.38-2.03-.58-.89-.88-1.97-.88-3.26,0-1.11.21-2.02.64-2.74.43-.72,1-1.28,1.72-1.7s1.54-.73,2.43-.95c.89-.21,1.81-.38,2.74-.49,1.18-.14,2.13-.25,2.86-.34.73-.09,1.27-.24,1.6-.44.33-.2.5-.54.5-1v-.09c0-1.12-.31-1.98-.94-2.6-.63-.61-1.56-.92-2.79-.92s-2.3.28-3.04.85c-.74.57-1.25,1.2-1.53,1.89l-3.59-.82c.43-1.19,1.05-2.16,1.87-2.9s1.77-1.27,2.84-1.61c1.07-.34,2.2-.5,3.39-.5.78,0,1.62.09,2.5.27s1.71.52,2.48,1c.77.49,1.4,1.18,1.9,2.08s.74,2.06.74,3.5v13.04h-3.73v-2.68h-.15c-.25.49-.62.98-1.11,1.46-.5.48-1.13.87-1.91,1.19-.78.32-1.7.47-2.79.47Zm.83-3.07c1.06,0,1.96-.21,2.72-.63s1.33-.97,1.73-1.64c.4-.68.59-1.4.59-2.18v-2.53c-.14.14-.4.26-.79.38-.39.12-.83.21-1.32.29s-.98.15-1.45.22c-.47.06-.86.12-1.18.16-.74.09-1.42.25-2.03.47-.61.22-1.09.54-1.46.95-.36.41-.54.96-.54,1.64,0,.95.35,1.66,1.05,2.14s1.59.72,2.67.72Z"/>
              <path class="cls-18" d="m1113.21,474.85v-19.64h3.67v3.2h.24c.41-1.08,1.08-1.93,2.01-2.54.93-.61,2.04-.91,3.34-.91s2.41.31,3.3.92,1.55,1.46,1.97,2.53h.21c.47-1.05,1.21-1.89,2.24-2.51,1.02-.63,2.24-.94,3.66-.94,1.78,0,3.24.56,4.37,1.67,1.13,1.12,1.69,2.8,1.69,5.05v13.17h-3.82v-12.81c0-1.33-.36-2.29-1.09-2.89-.72-.6-1.59-.89-2.59-.89-1.24,0-2.21.38-2.9,1.14s-1.04,1.74-1.04,2.93v12.52h-3.81v-13.05c0-1.07-.33-1.92-1-2.57-.67-.65-1.53-.97-2.6-.97-.72,0-1.39.19-2,.57-.61.38-1.1.91-1.47,1.58-.37.67-.56,1.45-.56,2.34v12.11h-3.82Z"/>
              <path class="cls-18" d="m1146.95,452.18c-.66,0-1.23-.22-1.71-.67-.47-.45-.71-.98-.71-1.6s.24-1.17.71-1.62c.47-.45,1.04-.67,1.71-.67s1.23.22,1.71.67c.47.45.71.99.71,1.62s-.24,1.16-.71,1.6c-.47.45-1.04.67-1.71.67Zm-1.93,22.67v-19.64h3.82v19.64h-3.82Z"/>
              <path class="cls-18" d="m1162.25,475.24c-1.9,0-3.54-.43-4.9-1.3-1.37-.87-2.42-2.06-3.15-3.59s-1.1-3.27-1.1-5.24.38-3.76,1.12-5.29c.75-1.53,1.81-2.73,3.17-3.59,1.36-.86,2.97-1.29,4.82-1.29,1.49,0,2.82.27,3.99.82,1.17.55,2.11,1.32,2.83,2.31.72.99,1.15,2.14,1.28,3.46h-3.72c-.2-.92-.67-1.71-1.4-2.38-.73-.67-1.7-1-2.92-1-1.07,0-2,.28-2.79.84s-1.42,1.35-1.86,2.38c-.44,1.03-.67,2.24-.67,3.64s.22,2.67.65,3.71c.43,1.04,1.05,1.84,1.85,2.42s1.74.86,2.82.86c.72,0,1.38-.13,1.98-.4.59-.27,1.09-.65,1.5-1.16.41-.5.69-1.11.85-1.82h3.72c-.14,1.27-.55,2.4-1.24,3.4-.69,1-1.61,1.78-2.77,2.35-1.15.57-2.51.86-4.06.86Z"/>
              <path class="cls-18" d="m1198.55,455.54c-.14-1.21-.7-2.15-1.69-2.82s-2.23-1-3.73-1c-1.07,0-2,.17-2.79.5-.78.34-1.39.8-1.82,1.38-.43.58-.65,1.25-.65,1.99,0,.62.15,1.16.44,1.61.29.45.68.83,1.16,1.13s1,.55,1.55.75c.55.2,1.09.37,1.6.49l2.56.67c.84.21,1.69.48,2.57.83.88.35,1.69.81,2.44,1.38s1.36,1.28,1.82,2.12c.46.84.7,1.85.7,3.03,0,1.48-.38,2.8-1.14,3.95-.76,1.15-1.87,2.06-3.31,2.72-1.44.67-3.19,1-5.23,1s-3.66-.31-5.09-.93-2.55-1.51-3.36-2.65c-.81-1.15-1.26-2.51-1.34-4.08h3.96c.08.95.39,1.73.93,2.36.54.63,1.23,1.09,2.08,1.39s1.78.45,2.79.45c1.12,0,2.11-.18,2.98-.53.87-.35,1.56-.85,2.06-1.48.5-.63.75-1.38.75-2.23,0-.78-.22-1.41-.66-1.9-.44-.49-1.03-.9-1.78-1.23-.75-.32-1.59-.61-2.52-.86l-3.09-.84c-2.1-.57-3.76-1.41-4.98-2.52-1.22-1.11-1.83-2.57-1.83-4.4,0-1.51.41-2.83,1.23-3.95.82-1.12,1.93-2,3.32-2.63,1.4-.63,2.97-.94,4.73-.94s3.34.31,4.7.93,2.43,1.48,3.22,2.56c.78,1.09,1.19,2.33,1.23,3.74h-3.81Z"/>
              <path class="cls-18" d="m1216.29,455.21v3.07h-10.73v-3.07h10.73Zm-7.85-4.7h3.82v18.58c0,.74.11,1.3.33,1.67.22.37.51.62.86.75s.74.2,1.16.2c.31,0,.58-.02.81-.06.23-.04.41-.08.54-.1l.69,3.16c-.22.08-.54.17-.95.26-.41.09-.92.14-1.54.15-1.01.02-1.94-.16-2.81-.54s-1.57-.95-2.11-1.74-.8-1.77-.8-2.95v-19.37Z"/>
              <path class="cls-18" d="m1220.51,474.85v-19.64h3.69v3.12h.21c.36-1.06.99-1.89,1.9-2.5.91-.61,1.94-.91,3.09-.91.24,0,.52,0,.85.03.33.02.59.04.77.06v3.66c-.15-.04-.43-.09-.82-.15-.39-.05-.79-.08-1.18-.08-.9,0-1.71.19-2.41.57s-1.26.9-1.67,1.57c-.41.67-.61,1.43-.61,2.28v11.99h-3.82Z"/>
              <path class="cls-18" d="m1239.88,475.28c-1.24,0-2.37-.23-3.38-.7-1.01-.46-1.8-1.14-2.38-2.03-.58-.89-.88-1.97-.88-3.26,0-1.11.21-2.02.64-2.74s1-1.28,1.73-1.7c.72-.42,1.53-.73,2.43-.95.89-.21,1.81-.38,2.74-.49,1.18-.14,2.13-.25,2.86-.34.73-.09,1.27-.24,1.6-.44.33-.2.5-.54.5-1v-.09c0-1.12-.31-1.98-.94-2.6-.63-.61-1.56-.92-2.79-.92s-2.3.28-3.04.85c-.74.57-1.25,1.2-1.53,1.89l-3.59-.82c.43-1.19,1.05-2.16,1.87-2.9.82-.74,1.77-1.27,2.84-1.61,1.07-.34,2.2-.5,3.39-.5.79,0,1.62.09,2.5.27.88.18,1.71.52,2.48,1,.77.49,1.4,1.18,1.9,2.08s.74,2.06.74,3.5v13.04h-3.73v-2.68h-.15c-.25.49-.62.98-1.11,1.46-.49.48-1.13.87-1.9,1.19s-1.71.47-2.79.47Zm.83-3.07c1.06,0,1.96-.21,2.72-.63.75-.42,1.33-.97,1.73-1.64.4-.68.59-1.4.59-2.18v-2.53c-.14.14-.4.26-.79.38-.39.12-.83.21-1.32.29s-.98.15-1.44.22c-.47.06-.86.12-1.18.16-.74.09-1.42.25-2.03.47-.61.22-1.1.54-1.46.95-.36.41-.54.96-.54,1.64,0,.95.35,1.66,1.05,2.14.7.48,1.59.72,2.67.72Z"/>
              <path class="cls-18" d="m1263.82,455.21v3.07h-10.73v-3.07h10.73Zm-7.85-4.7h3.82v18.58c0,.74.11,1.3.33,1.67.22.37.51.62.86.75s.74.2,1.16.2c.31,0,.58-.02.81-.06.23-.04.41-.08.54-.1l.69,3.16c-.22.08-.54.17-.95.26-.41.09-.92.14-1.54.15-1.01.02-1.94-.16-2.81-.54s-1.57-.95-2.11-1.74-.8-1.77-.8-2.95v-19.37Z"/>
              <path class="cls-18" d="m1276.3,475.24c-1.94,0-3.6-.42-4.99-1.25-1.39-.83-2.47-2-3.22-3.52-.75-1.51-1.13-3.29-1.13-5.32s.38-3.78,1.13-5.32,1.81-2.73,3.17-3.59c1.36-.86,2.95-1.29,4.77-1.29,1.11,0,2.18.18,3.22.55,1.04.37,1.97.94,2.8,1.73s1.48,1.8,1.96,3.05c.48,1.25.72,2.76.72,4.54v1.35h-15.61v-2.86h11.86c0-1.01-.2-1.9-.61-2.68-.41-.78-.98-1.4-1.72-1.85-.74-.45-1.6-.68-2.59-.68-1.07,0-2.01.26-2.81.79s-1.41,1.21-1.84,2.05c-.43.84-.64,1.75-.64,2.73v2.24c0,1.31.23,2.43.7,3.35.46.92,1.11,1.62,1.95,2.1.83.48,1.81.72,2.93.72.72,0,1.39-.1,1.98-.31.6-.21,1.11-.52,1.55-.94.44-.42.77-.93,1-1.55l3.62.65c-.29,1.07-.81,2-1.55,2.79-.75.8-1.68,1.42-2.8,1.85-1.12.44-2.4.66-3.83.66Z"/>
              <path class="cls-18" d="m1297.21,482.62c-1.56,0-2.9-.2-4.02-.61s-2.03-.95-2.74-1.62c-.71-.67-1.24-1.41-1.58-2.21l3.29-1.36c.23.38.54.77.93,1.2.39.42.92.78,1.58,1.08.67.3,1.53.45,2.59.45,1.45,0,2.65-.35,3.59-1.05.95-.7,1.42-1.82,1.42-3.36v-3.86h-.24c-.23.42-.56.88-.99,1.39-.43.51-1.02.96-1.77,1.33-.75.38-1.73.56-2.93.56-1.55,0-2.95-.36-4.19-1.09-1.24-.73-2.22-1.81-2.94-3.23s-1.08-3.19-1.08-5.27.36-3.88,1.07-5.37c.71-1.49,1.69-2.63,2.93-3.43s2.65-1.2,4.23-1.2c1.22,0,2.2.2,2.95.61.75.41,1.34.88,1.76,1.41s.75,1.01.98,1.42h.28v-3.18h3.75v20.07c0,1.69-.39,3.07-1.18,4.16-.78,1.08-1.84,1.88-3.18,2.4-1.33.52-2.84.78-4.51.78Zm-.04-11.24c1.1,0,2.03-.26,2.79-.77.76-.52,1.34-1.26,1.74-2.22.4-.97.59-2.13.59-3.48s-.2-2.48-.59-3.49c-.39-1-.97-1.79-1.73-2.36-.76-.57-1.7-.85-2.81-.85s-2.11.3-2.88.89c-.77.59-1.34,1.4-1.73,2.41-.39,1.01-.58,2.15-.58,3.4s.2,2.42.59,3.39c.39.97.97,1.73,1.75,2.28.77.54,1.72.82,2.86.82Z"/>
              <path class="cls-18" d="m1313.13,452.18c-.66,0-1.23-.22-1.71-.67-.47-.45-.71-.98-.71-1.6s.24-1.17.71-1.62c.47-.45,1.04-.67,1.71-.67s1.23.22,1.71.67c.47.45.71.99.71,1.62s-.24,1.16-.71,1.6c-.47.45-1.04.67-1.71.67Zm-1.93,22.67v-19.64h3.82v19.64h-3.82Z"/>
              <path class="cls-18" d="m1328.62,475.24c-1.93,0-3.6-.42-4.99-1.25-1.39-.83-2.47-2-3.22-3.52-.75-1.51-1.13-3.29-1.13-5.32s.38-3.78,1.13-5.32,1.81-2.73,3.17-3.59c1.36-.86,2.95-1.29,4.78-1.29,1.11,0,2.18.18,3.22.55,1.04.37,1.97.94,2.8,1.73s1.48,1.8,1.96,3.05.72,2.76.72,4.54v1.35h-15.61v-2.86h11.86c0-1.01-.2-1.9-.61-2.68-.41-.78-.98-1.4-1.72-1.85-.74-.45-1.6-.68-2.59-.68-1.07,0-2.01.26-2.81.79-.8.52-1.41,1.21-1.84,2.05-.43.84-.65,1.75-.65,2.73v2.24c0,1.31.23,2.43.7,3.35.46.92,1.11,1.62,1.95,2.1.84.48,1.81.72,2.93.72.72,0,1.38-.1,1.98-.31.6-.21,1.11-.52,1.55-.94.43-.42.77-.93,1-1.55l3.62.65c-.29,1.07-.81,2-1.55,2.79-.75.8-1.68,1.42-2.8,1.85-1.12.44-2.4.66-3.83.66Z"/>
              <path class="cls-18" d="m1356.02,460l-3.46.61c-.15-.44-.37-.87-.68-1.27-.31-.4-.73-.73-1.26-.98s-1.19-.38-1.98-.38c-1.08,0-1.99.24-2.71.72s-1.09,1.1-1.09,1.86c0,.66.24,1.19.73,1.59s1.27.73,2.35.98l3.12.72c1.81.42,3.15,1.06,4.04,1.93.89.87,1.33,2,1.33,3.39,0,1.18-.34,2.22-1.02,3.14-.68.92-1.62,1.63-2.82,2.15-1.21.52-2.6.78-4.19.78-2.2,0-3.99-.47-5.38-1.41-1.39-.94-2.24-2.28-2.56-4.02l3.7-.56c.23.96.7,1.69,1.42,2.18s1.65.74,2.8.74c1.25,0,2.25-.26,3-.79s1.12-1.17,1.12-1.92c0-.61-.23-1.13-.68-1.55-.46-.42-1.15-.73-2.09-.95l-3.32-.73c-1.83-.42-3.19-1.08-4.06-1.99-.87-.91-1.31-2.07-1.31-3.46,0-1.16.32-2.17.97-3.04.65-.87,1.54-1.55,2.69-2.04,1.14-.49,2.45-.73,3.92-.73,2.12,0,3.79.46,5.01,1.37s2.02,2.14,2.42,3.67Z"/>
              <path class="cls-18" d="m1370.44,474.85v-26.18h16.24v3.4h-12.29v7.98h11.12v3.39h-11.12v11.42h-3.95Z"/>
              <path class="cls-18" d="m1398.07,475.24c-1.84,0-3.45-.42-4.82-1.27s-2.44-2.02-3.2-3.54c-.76-1.52-1.14-3.29-1.14-5.32s.38-3.82,1.14-5.34,1.82-2.71,3.2-3.55,2.98-1.27,4.82-1.27,3.45.42,4.82,1.27c1.37.84,2.44,2.03,3.2,3.55s1.14,3.31,1.14,5.34-.38,3.8-1.14,5.32c-.76,1.52-1.82,2.7-3.2,3.54-1.37.84-2.98,1.27-4.82,1.27Zm.01-3.21c1.19,0,2.18-.32,2.97-.95.78-.63,1.37-1.47,1.75-2.52.38-1.05.57-2.2.57-3.46s-.19-2.41-.57-3.46c-.38-1.05-.96-1.9-1.75-2.54-.78-.64-1.77-.96-2.97-.96s-2.2.32-2.99.96c-.79.64-1.37,1.49-1.75,2.54-.38,1.05-.57,2.21-.57,3.46s.19,2.42.57,3.46c.38,1.05.96,1.89,1.75,2.52.79.63,1.78.95,2.99.95Z"/>
              <path class="cls-18" d="m1411.48,474.85v-19.64h3.7v3.12h.2c.36-1.06.99-1.89,1.9-2.5s1.94-.91,3.09-.91c.24,0,.52,0,.85.03.33.02.59.04.77.06v3.66c-.15-.04-.43-.09-.82-.15-.39-.05-.78-.08-1.18-.08-.9,0-1.71.19-2.41.57s-1.26.9-1.67,1.57-.61,1.43-.61,2.28v11.99h-3.82Z"/>
              <path class="cls-18" d="m1435.15,474.85v-26.18h16.24v3.4h-12.29v7.98h11.12v3.39h-11.12v11.42h-3.95Z"/>
              <path class="cls-18" d="m1461.58,475.28c-1.24,0-2.37-.23-3.38-.7-1.01-.46-1.8-1.14-2.38-2.03-.58-.89-.88-1.97-.88-3.26,0-1.11.21-2.02.64-2.74.43-.72,1-1.28,1.73-1.7.72-.42,1.53-.73,2.43-.95.89-.21,1.81-.38,2.74-.49,1.18-.14,2.13-.25,2.86-.34.73-.09,1.27-.24,1.6-.44.33-.2.5-.54.5-1v-.09c0-1.12-.31-1.98-.94-2.6-.63-.61-1.56-.92-2.79-.92s-2.3.28-3.04.85c-.74.57-1.25,1.2-1.53,1.89l-3.59-.82c.43-1.19,1.05-2.16,1.87-2.9s1.77-1.27,2.84-1.61c1.07-.34,2.2-.5,3.39-.5.78,0,1.62.09,2.5.27s1.71.52,2.48,1c.77.49,1.4,1.18,1.9,2.08.49.9.74,2.06.74,3.5v13.04h-3.73v-2.68h-.15c-.25.49-.62.98-1.11,1.46-.49.48-1.13.87-1.9,1.19-.78.32-1.71.47-2.79.47Zm.83-3.07c1.06,0,1.96-.21,2.72-.63.75-.42,1.33-.97,1.73-1.64.4-.68.59-1.4.59-2.18v-2.53c-.14.14-.4.26-.79.38-.39.12-.83.21-1.32.29-.5.08-.98.15-1.45.22-.47.06-.86.12-1.18.16-.74.09-1.42.25-2.03.47-.61.22-1.09.54-1.46.95s-.54.96-.54,1.64c0,.95.35,1.66,1.05,2.14.7.48,1.59.72,2.67.72Z"/>
              <path class="cls-18" d="m1491.07,460l-3.46.61c-.14-.44-.37-.87-.68-1.27-.31-.4-.73-.73-1.26-.98s-1.19-.38-1.98-.38c-1.08,0-1.99.24-2.71.72s-1.09,1.1-1.09,1.86c0,.66.24,1.19.73,1.59.49.4,1.27.73,2.35.98l3.12.72c1.81.42,3.15,1.06,4.04,1.93.89.87,1.33,2,1.33,3.39,0,1.18-.34,2.22-1.02,3.14-.68.92-1.62,1.63-2.83,2.15-1.21.52-2.6.78-4.19.78-2.2,0-3.99-.47-5.38-1.41-1.39-.94-2.24-2.28-2.56-4.02l3.69-.56c.23.96.7,1.69,1.42,2.18.72.49,1.65.74,2.8.74,1.25,0,2.25-.26,3-.79s1.12-1.17,1.12-1.92c0-.61-.23-1.13-.68-1.55-.46-.42-1.15-.73-2.09-.95l-3.32-.73c-1.83-.42-3.19-1.08-4.06-1.99-.87-.91-1.31-2.07-1.31-3.46,0-1.16.32-2.17.97-3.04s1.54-1.55,2.68-2.04c1.14-.49,2.45-.73,3.92-.73,2.12,0,3.79.46,5.01,1.37s2.02,2.14,2.42,3.67Z"/>
              <path class="cls-18" d="m1504.81,455.21v3.07h-10.73v-3.07h10.73Zm-7.85-4.7h3.82v18.58c0,.74.11,1.3.33,1.67.22.37.51.62.86.75s.74.2,1.16.2c.31,0,.58-.02.8-.06.23-.04.41-.08.54-.1l.69,3.16c-.22.08-.54.17-.95.26-.41.09-.92.14-1.53.15-1.01.02-1.94-.16-2.81-.54-.87-.38-1.57-.95-2.11-1.74-.54-.78-.8-1.77-.8-2.95v-19.37Z"/>
              <path class="cls-18" d="m1517.29,475.24c-1.93,0-3.6-.42-4.99-1.25-1.39-.83-2.47-2-3.22-3.52-.75-1.51-1.13-3.29-1.13-5.32s.38-3.78,1.13-5.32c.75-1.53,1.81-2.73,3.17-3.59,1.36-.86,2.95-1.29,4.78-1.29,1.11,0,2.18.18,3.22.55,1.04.37,1.97.94,2.8,1.73.83.78,1.48,1.8,1.96,3.05s.72,2.76.72,4.54v1.35h-15.61v-2.86h11.86c0-1.01-.21-1.9-.61-2.68-.41-.78-.98-1.4-1.72-1.85-.74-.45-1.6-.68-2.59-.68-1.07,0-2.01.26-2.81.79s-1.41,1.21-1.84,2.05c-.43.84-.65,1.75-.65,2.73v2.24c0,1.31.23,2.43.7,3.35.46.92,1.11,1.62,1.95,2.1s1.81.72,2.93.72c.72,0,1.38-.1,1.98-.31s1.11-.52,1.55-.94c.43-.42.77-.93,1-1.55l3.62.65c-.29,1.07-.81,2-1.55,2.79-.75.8-1.68,1.42-2.8,1.85-1.12.44-2.4.66-3.83.66Z"/>
              <path class="cls-18" d="m1529.97,474.85v-19.64h3.7v3.12h.2c.36-1.06.99-1.89,1.9-2.5s1.94-.91,3.09-.91c.24,0,.52,0,.85.03.33.02.59.04.77.06v3.66c-.15-.04-.43-.09-.82-.15-.39-.05-.78-.08-1.18-.08-.9,0-1.71.19-2.41.57s-1.26.9-1.67,1.57-.61,1.43-.61,2.28v11.99h-3.82Z"/>
              <path class="cls-18" d="m1571.37,456.94c-.25-.78-.58-1.47-.99-2.09-.41-.62-.91-1.15-1.48-1.58-.57-.44-1.22-.77-1.95-1-.73-.23-1.53-.34-2.4-.34-1.47,0-2.8.38-3.99,1.14-1.19.76-2.12,1.87-2.81,3.33-.69,1.46-1.03,3.25-1.03,5.36s.35,3.92,1.04,5.38,1.64,2.58,2.84,3.34c1.2.76,2.57,1.14,4.1,1.14,1.42,0,2.67-.29,3.73-.87,1.06-.58,1.88-1.4,2.47-2.46.58-1.06.88-2.31.88-3.75l1.02.19h-7.49v-3.26h10.29v2.98c0,2.2-.47,4.11-1.4,5.72s-2.22,2.86-3.86,3.74-3.52,1.32-5.63,1.32c-2.37,0-4.45-.55-6.23-1.64-1.79-1.09-3.18-2.64-4.17-4.65-1-2.01-1.5-4.39-1.5-7.15,0-2.09.29-3.96.87-5.62.58-1.66,1.4-3.07,2.45-4.24,1.05-1.16,2.29-2.05,3.72-2.67,1.43-.62,2.99-.93,4.69-.93,1.41,0,2.73.21,3.96.63,1.22.42,2.31,1.01,3.27,1.78.96.77,1.75,1.68,2.38,2.73.63,1.05,1.06,2.22,1.28,3.5h-4.05Z"/>
              <path class="cls-18" d="m1580.3,474.85v-19.64h3.7v3.12h.2c.36-1.06.99-1.89,1.9-2.5s1.94-.91,3.09-.91c.24,0,.52,0,.85.03.33.02.59.04.77.06v3.66c-.15-.04-.43-.09-.82-.15-.39-.05-.78-.08-1.18-.08-.9,0-1.71.19-2.41.57s-1.26.9-1.67,1.57-.61,1.43-.61,2.28v11.99h-3.82Z"/>
              <path class="cls-18" d="m1601.69,475.24c-1.84,0-3.45-.42-4.82-1.27s-2.44-2.02-3.2-3.54c-.76-1.52-1.14-3.29-1.14-5.32s.38-3.82,1.14-5.34,1.82-2.71,3.2-3.55,2.98-1.27,4.82-1.27,3.45.42,4.82,1.27,2.44,2.03,3.2,3.55,1.14,3.31,1.14,5.34-.38,3.8-1.14,5.32c-.76,1.52-1.82,2.7-3.2,3.54s-2.98,1.27-4.82,1.27Zm.01-3.21c1.19,0,2.18-.32,2.97-.95.78-.63,1.37-1.47,1.75-2.52.38-1.05.57-2.2.57-3.46s-.19-2.41-.57-3.46-.96-1.9-1.75-2.54c-.78-.64-1.77-.96-2.97-.96s-2.2.32-2.99.96c-.79.64-1.37,1.49-1.75,2.54s-.57,2.21-.57,3.46.19,2.42.57,3.46c.38,1.05.96,1.89,1.75,2.52.79.63,1.78.95,2.99.95Z"/>
              <path class="cls-18" d="m1618.76,474.85l-5.78-19.64h3.95l3.85,14.42h.19l3.86-14.42h3.95l3.83,14.36h.19l3.82-14.36h3.95l-5.77,19.64h-3.9l-3.99-14.18h-.29l-3.99,14.18h-3.89Z"/>
              <path class="cls-18" d="m1653.36,455.21v3.07h-10.73v-3.07h10.73Zm-7.85-4.7h3.82v18.58c0,.74.11,1.3.33,1.67.22.37.51.62.86.75s.74.2,1.16.2c.31,0,.58-.02.8-.06.23-.04.41-.08.54-.1l.69,3.16c-.22.08-.54.17-.95.26-.41.09-.92.14-1.53.15-1.01.02-1.94-.16-2.81-.54-.87-.38-1.57-.95-2.11-1.74-.54-.78-.8-1.77-.8-2.95v-19.37Z"/>
              <path class="cls-18" d="m1661.81,463.19v11.66h-3.82v-26.18h3.77v9.74h.24c.46-1.06,1.16-1.9,2.11-2.52s2.18-.93,3.71-.93c1.35,0,2.53.28,3.54.83,1.01.55,1.79,1.38,2.35,2.47.56,1.09.84,2.46.84,4.1v12.49h-3.82v-12.03c0-1.44-.37-2.56-1.11-3.36s-1.77-1.2-3.09-1.2c-.9,0-1.71.19-2.42.58s-1.27.94-1.67,1.68c-.4.74-.61,1.62-.61,2.67Z"/>
            </g>
            <g>
              <rect class="cls-27" x="1299.69" y="305.75" width="100" height="100"/>
              <polygon class="cls-6" points="1377.23 331.17 1377.23 374.65 1349.04 374.65 1336.67 389.5 1336.67 374.65 1322.14 374.65 1322.14 331.17 1377.23 331.17"/>
            </g>
          </g>
          <g>
            <g>
              <g>
                <path class="cls-27" d="m793.45,466.01c29.98,17.31,30.17,45.37.39,62.68-29.78,17.31-78.27,17.31-108.24,0-29.98-17.31-30.1-45.37-.32-62.68,29.78-17.31,78.2-17.31,108.17,0Z"/>
                <g>
                  <g>
                    <g class="cls-67">
                      <path class="cls-38" d="m784.9,493.86c-.88,9.82-10.13,16.49-18.46,20.08-9.08,3.91-19.06,5.49-28.92,5.36-10.05-.13-20.32-2.05-29.39-6.51-7.91-3.89-16.31-10.95-16.28-20.56-.02,6.99.47,12.77,5.51,18.23,6.49,7.03,16.26,10.82,25.45,12.71,17.93,3.7,42.34,1.91,55.96-11.89,5.48-5.55,6.23-11.41,6.25-18.79-.02.46-.06.91-.12,1.36Z"/>
                      <path class="cls-34" d="m771.25,473.28c18.25,10.54,18.37,27.62.24,38.16-18.13,10.54-47.65,10.54-65.9,0-18.25-10.54-18.32-27.62-.19-38.16,18.13-10.54,47.61-10.54,65.86,0Z"/>
                    </g>
                    <g class="cls-67">
                      <polygon class="cls-37" points="746.73 451.98 746.62 492.7 739.49 496.84 739.61 456.12 746.73 451.98"/>
                      <polygon class="cls-38" points="739.61 456.12 739.49 496.84 732.32 492.7 732.44 451.98 739.61 456.12"/>
                      <polygon class="cls-51" points="746.73 451.98 739.61 456.12 732.44 451.98 739.56 447.84 746.73 451.98"/>
                    </g>
                  </g>
                  <g class="cls-67">
                    <path class="cls-18" d="m802.77,423.96s-.02.08-.04.13c-.06.21-.15.41-.26.61-.01.02-.03.05-.05.07-.11.17-.24.34-.38.5-.05.06-.1.11-.15.17-.19.18-.39.36-.63.53l-69.88,48.61c-.2.14-.45.25-.68.37-.3.15-.6.3-.93.42-.22.08-.45.16-.68.22-.2.05-.4.11-.61.15-.41.09-.83.17-1.27.21,0,0,0,0,0,0-.52.05-1.06.07-1.6.06-.02,0-.04,0-.06,0-.53-.01-1.07-.06-1.6-.13-.03,0-.06,0-.09-.01-.49-.07-.98-.17-1.46-.29-.1-.02-.2-.05-.3-.07-.5-.13-1-.29-1.47-.48-.52-.21-1.02-.44-1.49-.71l-69.05-39.86c-1.96-1.13-2.95-2.57-2.95-3.92l-.02,8.14c0,1.35.99,2.79,2.95,3.92l69.05,39.86c.47.27.97.51,1.49.71,0,0,0,0,.01,0,.4.16.8.29,1.22.41.08.02.16.04.24.06.1.03.2.05.3.07.16.04.32.09.48.12.3.06.61.12.92.16.02,0,.04,0,.06,0,.03,0,.06,0,.09.01.24.03.48.06.72.08.28.02.56.04.84.05.01,0,.03,0,.04,0,.02,0,.04,0,.06,0,.25,0,.5,0,.74,0,.29,0,.57-.03.85-.06,0,0,.01,0,.02,0,0,0,0,0,0,0,.32-.03.64-.08.95-.13.11-.02.21-.06.31-.08.21-.04.41-.1.61-.15.14-.04.29-.06.43-.11.09-.03.17-.08.26-.12.33-.12.64-.26.93-.42.11-.06.25-.09.35-.16.11-.07.22-.14.33-.21l69.88-48.61c.19-.13.36-.27.52-.42.04-.04.07-.08.1-.11.06-.05.1-.11.15-.17.06-.06.12-.12.17-.18.08-.1.15-.21.21-.32.01-.02.03-.05.05-.07,0-.01.01-.02.02-.03.08-.14.14-.27.19-.42.02-.05.03-.11.05-.16.01-.04.03-.09.04-.13.01-.05.03-.09.04-.13.03-.15.05-.3.05-.45,0-.02,0-.05,0-.07l.02-8.14c0,.22-.04.44-.09.66Z"/>
                    <path class="cls-26" d="m799.91,419.36c3.34,1.93,3.92,4.81,1.35,6.6l-69.88,48.61c-2.91,2.01-8.54,1.89-12.26-.26l-69.05-39.86c-3.74-2.16-3.95-5.41-.48-7.1l83.69-40.64c3.08-1.5,8.06-1.17,11.4.76l55.24,31.89Z"/>
                  </g>
                  <g class="cls-67">
                    <polygon class="cls-30" points="816.88 298.59 746.53 257.7 750.38 257.85 820.73 298.73 816.88 298.59"/>
                    <path class="cls-18" d="m792.77,427.49c-.02-41.61,5.87-85.14,21.91-123.74.7-1.7,2.7-4.17,1.6-5.51-.58-.71-2.15-1.25-2.94-1.71-3.93-2.29-7.87-4.57-11.8-6.86-11.1-6.45-22.19-12.9-33.29-19.35-7.24-4.21-14.48-8.42-21.72-12.62-17.31,38.84-23.59,82.99-24.08,125.25-.03,2.41-.77,5.93,1.25,7.58.71.58,1.69.98,2.48,1.44,3.79,2.2,7.58,4.41,11.37,6.61,11.23,6.52,22.45,13.05,33.68,19.57,7.51,4.36,15.02,8.73,22.53,13.09-1.22-.71-.98-2.57-.98-3.76Z"/>
                    <path class="cls-30" d="m816.88,298.59l3.85.15c-1.24,3.28-24.88,65.57-14.57,121.84.41,2.16-1.16,5.31-3.28,6.54l-6.73,3.89c-1.85,1.07-3.36.23-3.37-1.89-.11-15.9,1.03-78.77,24.1-130.53Z"/>
                  </g>
                </g>
              </g>
              <g>
                <path class="cls-29" d="m661.54,227.87s-4.25-1.96-5.88.65c-1.63,2.61.65,5.88,1.63,10.78s3.92,11.76,3.92,11.76l12.09-18.3-11.76-4.9Z"/>
                <g>
                  <g>
                    <path class="cls-37" d="m648.35,345.21h0c-5.05-1.78-7.7-7.32-5.92-12.37l13.29-37.66c1.78-5.05,7.32-7.7,12.37-5.92h0c5.05,1.78,7.7,7.32,5.92,12.37l-13.29,37.66c-1.78,5.05-7.32,7.7-12.37,5.92Z"/>
                    <path class="cls-35" d="m675.08,277.76s.1.26.11.7c.03,1.62-.08,5.81.06,7.53.13,1.65,2.45,4.15,6.81,3.32,4.37-.83,11.49-3.91,13.08-9.55-.36-.89-1.67-10.61-1.87-15.54l-18.2,13.54Z"/>
                    <path class="cls-15" d="m658.83,248.26c.25-13.82,9.58-23.21,22.06-22.43,0,0,13.23-.89,20.94,9.56,7.71,10.45.84,21.5-3.58,28.48-1.87,2.88-3.28,5.09-4.17,6.5-.32.53-.63,1.06-.97,1.55-.06.1-.09.15-.09.15h-.02c-3.09,4.33-6.99,7.15-9.98,8.62-4.97,2.44-11.31,2.59-15.26-.41-3.94-3-9.18-18.2-8.94-32.02Z"/>
                  </g>
                  <path class="cls-37" d="m690.6,504.95s-1.79,4.58-6.59,8.24c-4.8,3.66-7.38,6.95-7,9.16.37,2.22,3.89,2.76,8.55,1.69,4.66-1.07,6.55-6.8,9.64-8.75,3.09-1.95,6.92-2.88,7.75-4.73.83-1.85-1.4-8.31-1.4-8.31l-10.94,2.7Z"/>
                  <path class="cls-37" d="m727.43,511.28s.24,3.95-1.7,5.99c-1.94,2.04-3.13,5.09-6.5,7.08-3.37,1.99-5.07,5.42-4.74,7.36.33,1.94,8.32,2.02,12.47-.39,4.15-2.41,7.84-9.3,9.64-10.46,1.8-1.16,2.81-3.61,2.85-5.04.04-1.43-1.95-6.51-1.95-6.51l-10.07,1.98Z"/>
                  <path class="cls-50" d="m728.04,374.1s1.91,19.79,1.78,33.1c-.13,13.31,10.88,99.15,8.59,103-2.29,3.85-6.52,4.19-10.93,1.15-4.42-3.05-25.71-107.58-25.71-107.58l-15.6-22,41.88-7.67Z"/>
                  <path class="cls-50" d="m672.14,373.54s12.13,105.69,16.8,129.98c1.22,7.21,12.49,6.44,14.04-1.23,1.56-7.67-4.1-112.17-7.45-125.29-3.35-13.12-23.31-13.17-23.39-3.47Z"/>
                  <path class="cls-15" d="m693.06,274.89s24.22,11.8,27.23,16.58c3,4.78,5.87,19,3.03,29.28-2.85,10.28,4.7,45.08,4.25,52.21-.45,7.13-18.58,12.42-30.41,12.13-11.82-.28-27.07-6.23-28.89-19.65-1.82-13.42-6.3-38.27-8.04-44.16-1.74-5.89-3.5-21.13-2.41-31.72.23-2.24,7.04-5.69,7.04-5.69,0,0,6.74-6.29,28.21-8.98Z"/>
                  <path class="cls-14" d="m665.14,348.28c1.18,6.81,2.57,14.93,3.27,20.1,1.82,13.42,18.24,19.05,30.06,19.33,11.82.28,29.96-5,30.41-12.13.45-7.13-7.1-41.93-4.25-52.21,1.4-5.07,1.41-11.1.71-16.48l-15.1-2.88s-9.53,45.09-45.09,44.28Z"/>
                  <g>
                    <path class="cls-37" d="m715.46,351.79h0c-5.35-.32-9.42-4.92-9.1-10.26l2.39-39.87c.32-5.35,4.92-9.42,10.26-9.1h0c5.35.32,9.42,4.92,9.1,10.26l-2.39,39.87c-.32,5.35-4.92,9.42-10.26,9.1Z"/>
                    <path class="cls-37" d="m722.29,338.76h0c3.03,4.42,1.9,10.46-2.52,13.48l-32.95,22.57c-4.42,3.03-10.46,1.9-13.48-2.52h0c-3.03-4.42-1.9-10.46,2.52-13.48l32.95-22.57c4.42-3.03,10.46-1.9,13.48,2.52Z"/>
                  </g>
                </g>
                <path class="cls-37" d="m694.37,277.5c-18.3,2.29-25.88,7.19-27.72,8.59.48,3.68,1.38,8.48,3.06,12.68,3.27,8.17,11.76,30.72,11.76,30.72,0,0,6.86-21.57,12.42-31.04,3.91-6.67,7.81-13,9.78-16.18-5.11-2.73-9.31-4.77-9.31-4.77Z"/>
                <path class="cls-15" d="m675.08,277.76s.1.26.11.7c.03,1.62-.08,5.81.06,7.53.13,1.65,2.45,4.15,6.81,3.32,4.37-.83,11.49-3.91,13.08-9.55-.36-.89-1.67-10.61-1.87-15.54l-18.2,13.54Z"/>
                <path class="cls-8" d="m658.83,248.26c.25-13.82,9.58-23.21,22.06-22.43,0,0,13.23-.89,20.94,9.56,7.71,10.45.84,21.5-3.58,28.48-1.87,2.88-3.28,5.09-4.17,6.5-.32.53-.63,1.06-.97,1.55-.06.1-.09.15-.09.15h-.02c-3.09,4.33-6.99,7.15-9.98,8.62-4.97,2.44-11.31,2.59-15.26-.41-3.94-3-9.18-18.2-8.94-32.02Z"/>
                <path class="cls-47" d="m679.52,293.77l-2.4,4.14.44,2.61-2.5,12.04c3.23,8.45,6.43,16.93,6.43,16.93,0,0,1.23-3.86,3.06-9.01l-3.28-19.52,1.31-2.4-3.05-4.79Z"/>
                <path class="cls-13" d="m693.24,250.74c-1.96,5.56-2.29,6.21-2.29,8.5s-.33,10.46-.33,10.46l3.27-1.96s.59-4.02,2.42-7.56c.97-1.88,3.54-2.58,5.74-2.82,2.81-5.54,4.74-12.18,1.64-18.78l-12.09-1.23s3.59,7.84,1.63,13.4Z"/>
              </g>
              <path class="cls-32" d="m707.29,242.9s.33-6.21-3.59-11.44-5.56-6.86-16.01-9.15c-10.46-2.29-18.3,1.96-23.2,1.63-4.9-.33-6.54-.33-6.54-.33,0,0,0,6.86,3.92,10.46,3.92,3.59,7.19,7.19,15.36,6.54,8.17-.65,15.36-.33,16.34.98.98,1.31.98,4.9,3.59,6.21,2.61,1.31,5.88,2.29,7.84,2.61,1.96.33,3.92-2.94,2.29-7.52Z"/>
            </g>
            <g>
              <g>
                <path class="cls-27" d="m808.8,647.22c6.05,3.5,6.09,9.15.07,12.64l-262.1,152.31c-6.02,3.5-15.77,3.5-21.83,0l-400.5-230.81c-6.05-3.5-6.09-9.15-.07-12.64l262.1-152.31c6.02-3.5,15.77-3.5,21.83,0l400.5,230.81Z"/>
                <path class="cls-27" d="m273.73,698.16c-28.81,16.63-29,43.61-.37,60.25,28.63,16.64,75.23,16.64,104.04,0,28.81-16.63,28.93-43.61.31-60.25-28.63-16.64-75.16-16.64-103.98,0Z"/>
                <path class="cls-27" d="m795.59,716.46c28.81,16.63,29,43.61.37,60.25-28.63,16.64-75.23,16.64-104.04,0-28.81-16.63-28.93-43.61-.31-60.25,28.63-16.64,75.16-16.64,103.98,0Z"/>
              </g>
              <g>
                <g class="cls-67">
                  <polygon class="cls-26" points="497.18 563.06 496.91 658.2 480.27 667.88 480.54 572.74 497.18 563.06"/>
                  <polygon class="cls-18" points="480.54 572.74 480.27 667.88 463.51 658.2 463.78 563.06 480.54 572.74"/>
                  <polygon class="cls-51" points="497.18 563.06 480.54 572.74 463.78 563.06 480.43 553.39 497.18 563.06"/>
                </g>
                <g class="cls-67">
                  <path class="cls-26" d="m849.82,506.46c-.02.06-.03.11-.05.17-.17.49-.42.97-.74,1.44-.06.08-.11.17-.17.25-.34.46-.75.92-1.23,1.35-.32.28-.72.54-1.09.81-.32.23-.59.47-.95.68l-262.1,152.31c-.93.54-1.97.97-3.04,1.34-.38.13-.77.25-1.16.36-.51.14-1.02.28-1.54.38-.62.13-1.24.24-1.87.32-.15.02-.3.05-.46.06-4.82.52-9.99-.3-13.74-2.46l-.04,13.24c3.7,2.14,8.78,2.95,13.55,2.48v.02c.07,0,.13-.02.2-.03.15-.02.3-.04.46-.06.44-.06.88-.11,1.31-.18.19-.03.37-.1.56-.14.53-.11,1.03-.24,1.54-.38.27-.08.56-.12.82-.2.12-.04.22-.11.35-.15,1.08-.37,2.12-.8,3.04-1.34l262.1-152.31c.06-.04.13-.07.19-.11.29-.17.49-.38.76-.56.38-.27.78-.53,1.1-.81.03-.03.07-.05.1-.08.36-.33.68-.68.96-1.03.06-.08.11-.16.16-.24.06-.08.11-.17.17-.25.09-.14.21-.28.29-.43.16-.29.3-.58.41-.88.02-.04.02-.09.04-.13.02-.06.03-.11.05-.17.06-.19.12-.38.16-.57.06-.29.09-.59.1-.88,0-.05,0-.09,0-.14l.04-13.24c0,.53-.1,1.06-.27,1.59Z"/>
                  <path class="cls-18" d="m845.52,498.51c6.05,3.5,6.09,9.15.07,12.64l-262.1,152.31c-6.02,3.5-15.77,3.5-21.83,0l-358.54-208.01c-6.06-3.5-6.09-9.15-.07-12.64l262.1-152.31c6.02-3.5,15.77-3.5,21.83,0l358.54,208.01Z"/>
                  <path class="cls-26" d="m573.51,666.07c-.53.02-1.05.02-1.58,0-.51-.01-1.01-.04-1.52-.08-.5-.04-1-.1-1.5-.17-.52-.07-1.03-.16-1.53-.27-.55-.11-1.08-.24-1.61-.39-.64-.18-1.27-.39-1.88-.63-.79-.31-1.53-.67-2.23-1.07l-358.54-208.01c-3.05-1.76-4.57-4.06-4.56-6.37l-.04,13.24c0,2.3,1.52,4.61,4.56,6.37l358.54,208.01c.7.4,1.45.76,2.23,1.07.6.24,1.23.45,1.88.63.53.15,1.06.28,1.61.39.5.1,1.01.19,1.53.27.5.07,1,.13,1.5.17.5.04,1.01.07,1.52.08.53.01,1.05.01,1.58,0,.57-.02,1.14-.06,1.71-.11l.04-13.24c-.57.06-1.14.09-1.71.11Z"/>
                </g>
              </g>
            </g>
            <g>
              <path class="cls-46" d="m690.06,696.34s2.32,7.24.58,11.29c-1.74,4.05-6.37,3.47-9.84,3.47s-7.24-.29-11,.29c-3.76.58,1.16,7.52,8.1,9.26,6.95,1.74,8.68.29,14.76,2.6,6.08,2.32,10.71.58,13.02-.87,2.32-1.45,4.92-6.66,3.76-8.97-1.16-2.32-4.63-8.39-4.92-10.71-.29-2.32-1.16-6.95-1.16-6.95l-13.31.58Z"/>
              <path class="cls-48" d="m750.19,624.42s-62.73-9.69-71.99-3.33c-9.26,6.37-2.32,54.41,1.16,64.25,3.47,9.84,3.47,18.52,8.68,20.26,5.21,1.74,12.16-.58,15.63-4.05,3.47-3.47-4.05-31.26-1.74-42.83,2.32-11.58,13.31,2.89,29.52-4.63,16.21-7.52,22.44-21.71,18.74-29.67Z"/>
              <g>
                <g>
                  <g class="cls-67">
                    <path class="cls-38" d="m788.43,743.24c-.85,9.44-9.73,15.85-17.75,19.3-8.73,3.76-18.32,5.28-27.79,5.16-9.67-.12-19.53-1.97-28.25-6.26-7.6-3.74-15.68-10.53-15.65-19.76-.02,6.72.45,12.28,5.3,17.53,6.24,6.76,15.63,10.4,24.46,12.22,17.23,3.56,40.7,1.84,53.79-11.43,5.27-5.34,5.99-10.96,6.01-18.06-.02.44-.06.87-.11,1.31Z"/>
                    <path class="cls-34" d="m775.32,723.45c17.54,10.13,17.65,26.55.23,36.68-17.43,10.13-45.8,10.13-63.34,0-17.54-10.13-17.61-26.55-.19-36.68,17.43-10.13,45.76-10.13,63.3,0Z"/>
                  </g>
                  <g class="cls-67">
                    <polygon class="cls-37" points="751.75 702.98 751.64 742.12 744.79 746.09 744.9 706.96 751.75 702.98"/>
                    <polygon class="cls-38" points="744.9 706.96 744.79 746.09 737.9 742.12 738.01 702.98 744.9 706.96"/>
                    <polygon class="cls-51" points="751.75 702.98 744.9 706.96 738.01 702.98 744.86 699 751.75 702.98"/>
                  </g>
                </g>
                <g class="cls-67">
                  <g class="cls-67">
                    <path class="cls-42" d="m813.37,679.36l-.03,9.35s0,.04,0,.07l.03-9.35s0-.04,0-.07"/>
                    <path class="cls-19" d="m813.37,679.43l-.03,9.35c0,.15-.02.3-.05.45l.03-9.35c.03-.15.05-.3.05-.45"/>
                    <path class="cls-25" d="m813.32,679.88l-.03,9.35c-.03.15-.07.31-.13.46l.03-9.35c.06-.15.1-.31.13-.46"/>
                    <path class="cls-43" d="m813.18,680.34l-.03,9.35c-.06.16-.14.32-.23.48l.03-9.35c.09-.16.17-.32.23-.48"/>
                    <path class="cls-28" d="m812.96,680.82l-.03,9.35c-.1.18-.22.36-.36.53l.03-9.35c.14-.17.26-.35.36-.53"/>
                    <path class="cls-36" d="m812.6,681.35l-.03,9.35c-.16.21-.35.41-.57.61l.03-9.35c.22-.2.41-.4.57-.61"/>
                    <path class="cls-26" d="m812.03,681.96l-.03,9.35c-.34.31-.73.61-1.19.88l.03-9.35c.46-.28.86-.57,1.19-.88"/>
                    <path class="cls-24" d="m810.84,682.84l-.03,9.35s-.08.05-.12.07l.03-9.35s.08-.05.12-.07"/>
                  </g>
                  <path class="cls-18" d="m672.77,675.59c-.15-.07-.29-.14-.42-.22-1.25-.72-1.86-1.7-1.86-2.72l-.03,9.35c0,1.03.61,2,1.86,2.72.13.08.27.15.42.22l77.17,37.28.03-9.35-77.17-37.28Z"/>
                  <path class="cls-18" d="m810.72,682.92l-50.34,29.25c-.72.42-1.53.74-2.37.99-.14.04-.28.07-.42.11-.79.2-1.6.36-2.42.41-.04,0-.09,0-.13,0-.9.06-1.8.02-2.65-.11-.02,0-.04,0-.06-.01-.86-.14-1.67-.37-2.38-.71l-.03,9.35c.15.07.31.14.47.2.24.1.49.18.76.25.22.06.45.12.68.17.15.03.31.06.47.08.02,0,.04,0,.06.01.04,0,.08.02.13.02.22.03.45.06.67.08.23.02.47.03.71.04.26,0,.52,0,.78,0,.12,0,.24-.02.36-.02.05,0,.09,0,.13,0,.13,0,.26-.01.39-.03.36-.04.72-.09,1.08-.15.32-.06.64-.16.95-.24.14-.04.28-.06.43-.11.09-.03.2-.04.29-.07.74-.24,1.45-.54,2.08-.92l50.34-29.25c1.74-1.01,2.65-2.32,2.65-3.55l.03-9.35c0,1.24-.91,2.54-2.65,3.55Z"/>
                  <path class="cls-26" d="m746.89,632.05c.13.08.26.16.38.24l64.6,44.58c2.37,1.65,1.87,4.29-1.16,6.05l-50.34,29.25c-3.03,1.76-7.58,2.06-10.44.69l-77.17-37.27c-.15-.07-.29-.14-.42-.22-2.73-1.58-2.44-4.4.8-6.28l62.91-36.56c3.24-1.88,8.1-2.06,10.84-.48Z"/>
                </g>
              </g>
              <path class="cls-46" d="m653.59,718.33s2.32,7.24.58,11.29-6.37,3.47-9.84,3.47-7.24-.29-11,.29c-3.76.58,1.16,7.52,8.1,9.26,6.95,1.74,8.68.29,14.76,2.6,6.08,2.32,10.71.58,13.02-.87s4.92-6.66,3.76-8.97c-1.16-2.32-4.63-8.39-4.92-10.71-.29-2.32-1.16-6.95-1.16-6.95l-13.31.58Z"/>
              <path class="cls-50" d="m694.98,626.3s-10.42,2.89-26.63,5.79c-16.21,2.89-31.26,15.05-29.52,31.83s9.84,56.14,11.58,58.46c1.74,2.32,2.89,4.63,12.15,2.89,9.26-1.74,9.26-5.21,9.26-7.52s-3.47-38.06-3.47-45c0,0-.84-7.54,2.6-8.25,3.45-.71,24.6,4.63,39.65,8.1,15.05,3.47,27.78-5.21,31.26-11,3.47-5.79,10.42-4.63,14.47-9.84,4.05-5.21,4.05-28.94-4.63-37.04-8.68-8.1-56.72,11.58-56.72,11.58Z"/>
              <g class="cls-67">
                <polygon class="cls-30" points="760.41 612.31 828.04 573.01 831.73 577.42 764.1 616.72 760.41 612.31"/>
                <path class="cls-30" d="m817.15,678.43c-.58-8.9-2.09-17.64-2.3-26.6-.22-9.65.25-19.29,1.57-28.85,2.15-15.52,6.31-32.47,15.3-45.56-16.26,9.45-32.52,18.9-48.77,28.34-4.26,2.48-8.52,4.95-12.78,7.43-1.85,1.08-4.34,2.03-5.95,3.46-1.06.93-1.79,2.71-2.47,3.92-1.99,3.57-3.68,7.31-5.17,11.11-3.22,8.24-5.5,16.85-7.01,25.56-1.8,10.44-2.52,21.04-2.39,31.62.07,5.69.35,11.39.91,17.06.27,2.76.59,5.52.94,8.27.2,1.51,1.36,4.89-.46,5.95,21.23-12.34,42.46-24.67,63.69-37.01,1.9-1.1,5.05-2.06,4.88-4.7Z"/>
                <path class="cls-18" d="m760.41,612.31l3.69,4.41c-1.21,1.76-24.19,35.25-14.62,100.59.36,2.51-1.14,3.79-3.18,2.61l-6.47-3.74c-1.78-1.03-3.22-3.48-3.24-5.54,0-15.37,1.44-74.33,23.82-98.33Z"/>
              </g>
            </g>
            <polygon class="cls-26" points="681.13 403.14 649.68 384.89 611.94 406.82 643.47 425.03 681.13 403.14"/>
            <g>
              <g>
                <polygon class="cls-26" points="490.27 534.91 445.45 560.96 413.92 542.76 458.74 516.71 490.27 534.91"/>
                <g class="cls-67">
                  <polygon class="cls-34" points="489.83 522.35 489.81 528.74 444.98 554.8 445 548.41 489.83 522.35"/>
                  <polygon class="cls-38" points="445 548.41 444.98 554.8 413.45 536.6 413.47 530.2 445 548.41"/>
                  <polygon class="cls-37" points="489.83 522.35 445 548.41 413.47 530.2 458.31 504.15 489.83 522.35"/>
                </g>
                <g class="cls-67">
                  <polygon class="cls-35" points="560.41 569.4 560.4 570.57 515.56 596.63 515.58 595.46 560.41 569.4"/>
                  <polygon class="cls-35" points="515.58 595.46 515.56 596.63 484.03 578.42 484.05 577.26 515.58 595.46"/>
                  <polygon class="cls-15" points="560.41 569.4 515.58 595.46 484.05 577.26 528.89 551.2 560.41 569.4"/>
                  <polygon class="cls-37" points="542.27 571.27 518.74 584.95 502.19 575.39 525.72 561.72 542.27 571.27"/>
                </g>
                <g>
                  <path class="cls-50" d="m488.03,561.67c.59.34.59.88,0,1.22l-19.43,11.29c-.58.34-1.52.34-2.11,0l-11.98-6.92c-.58-.34-.59-.88,0-1.22l19.43-11.29c.58-.34,1.52-.34,2.11,0l11.98,6.92Z"/>
                  <g>
                    <path class="cls-45" d="m488.46,562.32s0,.03,0,.05c0,.01,0,.03,0,.04,0,.01,0,.03-.01.04,0,.01-.01.02-.02.04,0,.02-.01.03-.02.05,0,.01-.01.02-.02.03-.01.02-.02.03-.04.05,0,.01-.02.02-.02.03-.02.02-.04.05-.06.07,0,0-.02.02-.03.02-.01.01-.03.03-.05.04-.01.01-.03.02-.04.03-.02.01-.04.02-.05.04-.02.01-.04.02-.06.04l-19.43,11.29c-.06.04-.14.07-.21.1-.02,0-.04.01-.06.02-.05.02-.09.03-.14.04-.05.01-.1.03-.15.04-.06.01-.12.02-.18.03-.01,0-.03,0-.04,0-.08,0-.17.01-.25.01-.01,0-.03,0-.04,0-.08,0-.17,0-.25-.01-.01,0-.02,0-.04,0-.08,0-.16-.02-.24-.04-.01,0-.03,0-.04-.01-.07-.02-.14-.04-.21-.06-.01,0-.02,0-.04-.01-.08-.03-.16-.07-.23-.11l-11.98-6.92c-.22-.13-.36-.28-.41-.45-.02-.05-.03-.11-.03-.17v.69s0,.06,0,.08c.03.19.18.38.43.53l11.98,6.92c.07.04.14.07.22.1,0,0,0,0,.01,0,.01,0,.02,0,.04.01.04.02.09.03.13.05.02,0,.05.01.07.02.01,0,.03,0,.04.01.01,0,.03,0,.04,0,.05.01.1.02.15.03.02,0,.04,0,.05,0,.01,0,.02,0,.04,0,.02,0,.04,0,.06,0,.05,0,.1,0,.15,0,.02,0,.03,0,.05,0,.01,0,.03,0,.04,0,.02,0,.04,0,.07,0,.06,0,.11,0,.16-.01,0,0,.01,0,.02,0,.01,0,.03,0,.04,0,.04,0,.09-.01.13-.02.02,0,.04,0,.05-.01.05-.01.1-.02.15-.04.03,0,.05-.01.08-.02.02,0,.04-.02.06-.02.02,0,.04-.01.06-.02.07-.03.14-.06.21-.1l19.43-11.29s.01,0,.02-.01c.01,0,.03-.02.04-.03.02-.01.04-.02.05-.04.01-.01.03-.02.04-.03.02-.01.03-.02.05-.04,0,0,0,0,0,0,0,0,0-.01.02-.02.02-.02.04-.04.06-.07,0,0,0,0,.01-.01,0,0,0-.01.01-.02.01-.02.02-.03.04-.05,0,0,.01-.01.01-.02,0,0,0,0,0-.01,0-.02.01-.03.02-.05,0,0,0-.02.01-.03,0,0,0,0,0,0,0-.01,0-.03.01-.04,0,0,0-.02,0-.03,0,0,0,0,0,0,0-.02,0-.03,0-.05,0-.01,0-.02,0-.03,0,0,0,0,0-.01v-.69s0,.03,0,.04Z"/>
                    <path class="cls-58" d="m486.26,561.88c.19.11.19.28,0,.39l-16.29,9.47c-.19.11-.49.11-.68,0l-10.79-6.23c-.19-.11-.19-.28,0-.39l16.29-9.47c.19-.11.49-.11.68,0l10.79,6.23Z"/>
                    <path class="cls-33" d="m463.39,569.76c.21.12.21.31,0,.43l-.27.16c-.21.12-.54.12-.75,0l-1.64-.95c-.21-.12-.21-.31,0-.43l.27-.16c.21-.12.54-.12.75,0l1.64.95Z"/>
                  </g>
                </g>
                <g>
                  <path class="cls-50" d="m615.71,598.26c-.59.34-.59.88,0,1.22l19.43,11.29c.58.34,1.52.34,2.11,0l11.98-6.92c.58-.34.59-.88,0-1.22l-19.43-11.29c-.58-.34-1.52-.34-2.11,0l-11.98,6.92Z"/>
                  <g>
                    <path class="cls-45" d="m615.28,598.92s0,.03,0,.05c0,.01,0,.03,0,.04,0,.01,0,.03.01.04,0,.01,0,.02.02.04,0,.02.01.03.02.05,0,.01.01.02.02.03.01.02.02.03.03.05,0,.01.02.02.02.03.02.02.04.05.06.07,0,0,.02.02.02.02.01.01.03.03.05.04.01.01.03.02.04.03.02.01.04.02.05.04.02.01.04.02.06.04l19.43,11.29c.06.04.14.07.21.1.02,0,.04.01.06.02.05.02.09.03.14.04.05.01.1.03.15.04.06.01.12.02.18.03.01,0,.03,0,.04,0,.08,0,.17.01.25.01.01,0,.03,0,.04,0,.08,0,.17,0,.25-.01.01,0,.02,0,.04,0,.08,0,.16-.02.24-.04.01,0,.03,0,.04-.01.07-.02.14-.04.21-.06.01,0,.02,0,.04-.01.08-.03.16-.07.23-.11l11.98-6.92c.22-.13.36-.28.41-.45.02-.05.03-.11.03-.17v.69s0,.06,0,.08c-.03.19-.18.38-.43.53l-11.98,6.92c-.07.04-.14.07-.22.1,0,0,0,0-.01,0-.01,0-.02,0-.04.01-.04.02-.09.03-.13.04-.02,0-.05.01-.07.02-.01,0-.03,0-.04.01-.01,0-.03,0-.04,0-.05.01-.1.02-.15.03-.02,0-.04,0-.05,0-.01,0-.02,0-.04,0-.02,0-.04,0-.06,0-.05,0-.1,0-.15,0-.02,0-.03,0-.05,0-.01,0-.03,0-.04,0-.02,0-.04,0-.07,0-.06,0-.11,0-.16-.01,0,0-.01,0-.02,0-.01,0-.03,0-.04,0-.04,0-.08-.01-.13-.02-.02,0-.04,0-.05-.01-.05-.01-.1-.02-.15-.04-.03,0-.05-.01-.08-.02-.02,0-.04-.02-.06-.02-.02,0-.04-.01-.06-.02-.07-.03-.14-.06-.21-.1l-19.43-11.29s-.01,0-.02-.01c-.01,0-.03-.02-.04-.03-.02-.01-.04-.02-.05-.04-.01-.01-.03-.02-.04-.03-.02-.01-.03-.02-.05-.04,0,0,0,0,0,0,0,0,0-.01-.02-.02-.02-.02-.04-.04-.06-.07,0,0,0,0-.01-.01,0,0,0-.01-.01-.01-.01-.02-.02-.03-.03-.05,0,0-.01-.01-.01-.02,0,0,0,0,0-.01,0-.02-.01-.03-.02-.05,0,0,0-.02-.01-.03,0,0,0,0,0,0,0-.01,0-.03-.01-.04,0-.01,0-.02,0-.03,0,0,0,0,0,0,0-.02,0-.03,0-.05,0-.01,0-.02,0-.03,0,0,0,0,0-.01v-.69s0,.03,0,.04Z"/>
                    <path class="cls-56" d="m617.48,598.48c-.19.11-.19.28,0,.39l16.29,9.47c.19.11.49.11.68,0l10.79-6.23c.19-.11.19-.28,0-.39l-16.29-9.47c-.19-.11-.49-.11-.68,0l-10.79,6.23Z"/>
                    <path class="cls-33" d="m640.35,606.36c-.21.12-.21.31,0,.43l.27.16c.21.12.54.12.75,0l1.64-.95c.21-.12.21-.31,0-.43l-.27-.16c-.21-.12-.54-.12-.75,0l-1.64.95Z"/>
                  </g>
                </g>
                <g>
                  <path class="cls-45" d="m626.01,539.85c0-.07,0-.13,0-.19l.05-1.93h0c.04.48.4.98,1.07,1.39l32.59,19.85c1.32.8,3.34.93,4.51.29l51.13-27.95c.5-.27.77-.65.8-1.04h0s-.05,2.07-.05,2.07h0c-.01.42-.28.82-.81,1.11l-51.13,27.95c-1.17.64-3.19.51-4.51-.29l-32.59-19.85c-.67-.41-1.03-.91-1.07-1.38h0,0Z"/>
                  <path class="cls-57" d="m701.81,520.6l13.3,8.1c1.32.8,1.44,1.97.26,2.61l-51.13,27.95c-1.17.64-3.19.51-4.51-.29l-13.3-8.1,55.39-30.27Z"/>
                  <path class="cls-10" d="m715.1,528.7c.64.39.99.87,1.06,1.33-.02.42-.27.81-.79,1.09l-51.13,27.95c-1.17.64-3.19.51-4.51-.29l-13.13-8,55.22-30.17,13.3,8.1Z"/>
                  <path class="cls-21" d="m646.42,550.87l-19.29-11.75c-1.32-.8-1.44-1.97-.26-2.61l51.13-27.95c1.17-.64,3.19-.51,4.51.29l19.3,11.75-55.39,30.27Z"/>
                  <path class="cls-61" d="m693.58,542.77l-8.34,4.56c-.22.12-.23.33-.01.46l9.15-5c-.22-.13-.57-.14-.8-.02Z"/>
                  <polygon class="cls-39" points="674.62 511.06 631.38 534.69 630.81 534.34 674.05 510.71 674.62 511.06"/>
                  <g>
                    <path class="cls-22" d="m692.52,536.18l-6.87-4.19c-.41-.25-1.08-.26-1.51-.03l-17.1,9.35c-.42.23-.43.62-.03.87l6.87,4.19,18.64-10.18Z"/>
                    <g class="cls-53">
                      <path class="cls-20" d="m683.34,541.52l-9.17,5.01,3.72,2.27c.41.25,1.09.26,1.51.03l8.4-4.59-4.46-2.72Z"/>
                      <path class="cls-20" d="m683.64,541.36l4.46,2.72,8.4-4.59c.42-.23.43-.62.03-.87l-3.72-2.27-9.17,5.01Z"/>
                    </g>
                  </g>
                  <g>
                    <path class="cls-23" d="m667.03,541.68l17.1-9.35c.42-.23,1.1-.22,1.51.03l6.55,3.99.33-.18-6.87-4.19c-.41-.25-1.09-.26-1.51-.03l-17.1,9.35c-.3.16-.39.4-.27.62.05-.09.14-.17.26-.24Z"/>
                    <g>
                      <polygon class="cls-23" points="683.33 541.9 687.47 544.42 687.81 544.24 683.34 541.52 674.17 546.54 674.49 546.73 683.33 541.9"/>
                      <path class="cls-23" d="m692.8,536.73l3.72,2.27c.12.07.2.16.25.25.12-.21.05-.45-.24-.63l-3.72-2.27-9.17,5.01.32.2,8.84-4.83Z"/>
                    </g>
                  </g>
                  <g>
                    <g>
                      <path class="cls-39" d="m638.31,539.37l-2.56,1.4c-.16.09-.43.07-.6-.04l-2.39-1.45c-.18-.11-.19-.26-.03-.35l2.56-1.4c.16-.09.43-.07.6.04l2.39,1.45c.18.11.19.26.04.35Z"/>
                      <path class="cls-39" d="m641.77,537.48l-2.56,1.4c-.16.09-.43.07-.6-.04l-2.39-1.45c-.18-.11-.19-.26-.04-.35l2.56-1.4c.16-.09.43-.07.6.04l2.39,1.45c.18.11.19.26.04.35Z"/>
                      <path class="cls-39" d="m645.24,535.59l-2.56,1.4c-.16.09-.43.07-.6-.04l-2.39-1.45c-.18-.11-.19-.26-.04-.35l2.56-1.4c.16-.09.43-.07.6.04l2.39,1.45c.18.11.19.26.04.35Z"/>
                      <path class="cls-39" d="m648.7,533.69l-2.56,1.4c-.16.09-.43.07-.6-.04l-2.39-1.45c-.18-.11-.19-.26-.04-.35l2.56-1.4c.16-.09.43-.07.6.04l2.39,1.45c.18.11.19.26.04.35Z"/>
                      <path class="cls-39" d="m652.16,531.8l-2.56,1.4c-.16.09-.43.07-.6-.04l-2.39-1.45c-.18-.11-.19-.26-.04-.35l2.56-1.4c.16-.09.43-.07.6.04l2.39,1.45c.18.11.19.26.04.35Z"/>
                      <path class="cls-39" d="m655.62,529.91l-2.56,1.4c-.16.09-.43.07-.6-.04l-2.39-1.45c-.18-.11-.19-.26-.04-.35l2.56-1.4c.16-.09.43-.07.6.04l2.39,1.45c.18.11.19.26.04.35Z"/>
                      <path class="cls-39" d="m659.08,528.02l-2.56,1.4c-.16.09-.43.07-.6-.04l-2.39-1.45c-.18-.11-.19-.26-.04-.35l2.56-1.4c.16-.09.43-.07.6.04l2.39,1.45c.18.11.19.26.03.35Z"/>
                      <path class="cls-39" d="m662.55,526.13l-2.56,1.4c-.16.09-.43.07-.6-.04l-2.39-1.45c-.18-.11-.19-.26-.03-.35l2.56-1.4c.16-.09.43-.07.6.04l2.39,1.45c.18.11.19.26.04.35Z"/>
                      <path class="cls-39" d="m666.01,524.23l-2.56,1.4c-.16.09-.43.07-.6-.04l-2.39-1.45c-.18-.11-.19-.26-.04-.35l2.56-1.4c.16-.09.43-.07.6.04l2.39,1.45c.18.11.19.26.03.35Z"/>
                      <path class="cls-39" d="m669.47,522.34l-2.56,1.4c-.16.09-.43.07-.6-.04l-2.39-1.45c-.18-.11-.19-.26-.04-.35l2.56-1.4c.16-.09.43-.07.6.04l2.39,1.45c.18.11.19.26.04.35Z"/>
                      <path class="cls-39" d="m672.93,520.45l-2.56,1.4c-.16.09-.43.07-.6-.04l-2.39-1.45c-.18-.11-.19-.26-.04-.35l2.56-1.4c.16-.09.43-.07.6.04l2.39,1.45c.18.11.19.26.03.35Z"/>
                      <path class="cls-39" d="m676.4,518.56l-2.56,1.4c-.16.09-.43.07-.6-.04l-2.39-1.45c-.18-.11-.19-.26-.04-.35l2.56-1.4c.16-.09.43-.07.6.04l2.39,1.45c.18.11.19.26.04.35Z"/>
                      <path class="cls-39" d="m679.86,516.67l-2.56,1.4c-.16.09-.43.07-.6-.04l-2.39-1.45c-.18-.11-.19-.26-.03-.35l2.56-1.4c.16-.09.43-.07.6.04l2.39,1.45c.18.11.19.26.04.35Z"/>
                      <path class="cls-39" d="m684.88,513.92l-4.12,2.25c-.16.09-.43.07-.6-.04l-2.39-1.45c-.18-.11-.19-.26-.03-.35l4.12-2.25c.16-.09.43-.07.6.04l2.39,1.45c.18.11.19.26.03.35Z"/>
                    </g>
                    <g>
                      <path class="cls-39" d="m682.65,515.52l2.56-1.4c.16-.09.43-.07.6.04l2.39,1.45c.18.11.19.26.03.35l-2.56,1.4c-.16.09-.43.07-.6-.04l-2.39-1.45c-.18-.11-.19-.26-.03-.35Z"/>
                      <path class="cls-39" d="m679.19,517.41l2.56-1.4c.16-.09.43-.07.6.04l2.39,1.45c.18.11.19.26.04.35l-2.56,1.4c-.16.09-.43.07-.6-.04l-2.39-1.45c-.18-.11-.19-.26-.03-.35Z"/>
                      <path class="cls-39" d="m675.73,519.3l2.56-1.4c.16-.09.43-.07.6.04l2.39,1.45c.18.11.19.26.03.35l-2.56,1.4c-.16.09-.43.07-.6-.04l-2.39-1.45c-.18-.11-.19-.26-.04-.35Z"/>
                      <path class="cls-39" d="m672.26,521.19l2.56-1.4c.16-.09.43-.07.6.04l2.39,1.45c.18.11.19.26.04.35l-2.56,1.4c-.16.09-.43.07-.6-.04l-2.39-1.45c-.18-.11-.19-.26-.04-.35Z"/>
                      <path class="cls-39" d="m668.8,523.08l2.56-1.4c.16-.09.43-.07.6.04l2.39,1.45c.18.11.19.26.04.35l-2.56,1.4c-.16.09-.43.07-.6-.04l-2.39-1.45c-.18-.11-.19-.26-.04-.35Z"/>
                      <path class="cls-39" d="m665.34,524.98l2.56-1.4c.16-.09.43-.07.6.04l2.39,1.45c.18.11.19.26.03.35l-2.56,1.4c-.16.09-.43.07-.6-.04l-2.39-1.45c-.18-.11-.19-.26-.03-.35Z"/>
                      <path class="cls-39" d="m661.88,526.87l2.56-1.4c.16-.09.43-.07.6.04l2.39,1.45c.18.11.19.26.04.35l-2.56,1.4c-.16.09-.43.07-.6-.04l-2.39-1.45c-.18-.11-.19-.26-.04-.35Z"/>
                      <path class="cls-39" d="m658.42,528.76l2.56-1.4c.16-.09.43-.07.6.04l2.39,1.45c.18.11.19.26.04.35l-2.56,1.4c-.16.09-.43.07-.6-.04l-2.39-1.45c-.18-.11-.19-.26-.04-.35Z"/>
                      <path class="cls-39" d="m654.95,530.65l2.56-1.4c.16-.09.43-.07.6.04l2.39,1.45c.18.11.19.26.04.35l-2.56,1.4c-.16.09-.43.07-.6-.04l-2.39-1.45c-.18-.11-.19-.26-.04-.35Z"/>
                      <path class="cls-39" d="m651.49,532.54l2.56-1.4c.16-.09.43-.07.6.04l2.39,1.45c.18.11.19.26.03.35l-2.56,1.4c-.16.09-.43.07-.6-.04l-2.39-1.45c-.18-.11-.19-.26-.03-.35Z"/>
                      <path class="cls-39" d="m648.03,534.44l2.56-1.4c.16-.09.43-.07.6.04l2.39,1.45c.18.11.19.26.04.35l-2.56,1.4c-.16.09-.43.07-.6-.04l-2.39-1.45c-.18-.11-.19-.26-.04-.35Z"/>
                      <path class="cls-39" d="m644.57,536.33l2.56-1.4c.16-.09.43-.07.6.04l2.39,1.45c.18.11.19.26.04.35l-2.56,1.4c-.16.09-.43.07-.6-.04l-2.39-1.45c-.18-.11-.19-.26-.03-.35Z"/>
                      <path class="cls-39" d="m641.11,538.22l2.56-1.4c.16-.09.43-.07.6.04l2.39,1.45c.18.11.19.26.03.35l-2.56,1.4c-.16.09-.43.07-.6-.04l-2.39-1.45c-.18-.11-.19-.26-.03-.35Z"/>
                      <path class="cls-39" d="m636.08,540.97l4.12-2.25c.16-.09.43-.07.6.04l2.39,1.45c.18.11.19.26.04.35l-4.12,2.25c-.16.09-.43.07-.6-.04l-2.39-1.45c-.18-.11-.19-.26-.04-.35Z"/>
                    </g>
                    <g>
                      <path class="cls-39" d="m683.5,518.92l5.06-2.76c.16-.09.43-.07.6.04l2.39,1.45c.18.11.19.26.04.35l-5.06,2.76c-.16.09-.43.07-.6-.04l-2.39-1.45c-.18-.11-.19-.26-.04-.35Z"/>
                      <path class="cls-39" d="m639.46,542.99l5.06-2.76c.16-.09.43-.07.6.04l2.39,1.45c.18.11.19.26.03.35l-5.06,2.76c-.16.09-.43.07-.6-.04l-2.39-1.45c-.18-.11-.19-.26-.04-.35Z"/>
                      <path class="cls-39" d="m680.04,520.81l2.56-1.4c.16-.09.43-.07.6.04l2.39,1.45c.18.11.19.26.04.35l-2.56,1.4c-.16.09-.43.07-.6-.04l-2.39-1.45c-.18-.11-.19-.26-.04-.35Z"/>
                      <path class="cls-39" d="m676.58,522.7l2.56-1.4c.16-.09.43-.07.6.04l2.39,1.45c.18.11.19.26.03.35l-2.56,1.4c-.16.09-.43.07-.6-.04l-2.39-1.45c-.18-.11-.19-.26-.04-.35Z"/>
                      <path class="cls-39" d="m673.11,524.6l2.56-1.4c.16-.09.43-.07.6.04l2.39,1.45c.18.11.19.26.04.35l-2.56,1.4c-.16.09-.43.07-.6-.04l-2.39-1.45c-.18-.11-.19-.26-.03-.35Z"/>
                      <path class="cls-39" d="m669.65,526.49l2.56-1.4c.16-.09.43-.07.6.04l2.39,1.45c.18.11.19.26.04.35l-2.56,1.4c-.16.09-.43.07-.6-.04l-2.39-1.45c-.18-.11-.19-.26-.04-.35Z"/>
                      <path class="cls-39" d="m666.19,528.38l2.56-1.4c.16-.09.43-.07.6.04l2.39,1.45c.18.11.19.26.03.35l-2.56,1.4c-.16.09-.43.07-.6-.04l-2.39-1.45c-.18-.11-.19-.26-.03-.35Z"/>
                      <path class="cls-39" d="m662.73,530.27l2.56-1.4c.16-.09.43-.07.6.04l2.39,1.45c.18.11.19.26.03.35l-2.56,1.4c-.16.09-.43.07-.6-.04l-2.39-1.45c-.18-.11-.19-.26-.04-.35Z"/>
                      <path class="cls-39" d="m659.27,532.17l2.56-1.4c.16-.09.43-.07.6.04l2.39,1.45c.18.11.19.26.03.35l-2.56,1.4c-.16.09-.43.07-.6-.04l-2.39-1.45c-.18-.11-.19-.26-.03-.35Z"/>
                      <path class="cls-39" d="m655.8,534.06l2.56-1.4c.16-.09.43-.07.6.04l2.39,1.45c.18.11.19.26.03.35l-2.56,1.4c-.16.09-.43.07-.6-.04l-2.39-1.45c-.18-.11-.19-.26-.04-.35Z"/>
                      <path class="cls-39" d="m652.34,535.95l2.56-1.4c.16-.09.43-.07.6.04l2.39,1.45c.18.11.19.26.04.35l-2.56,1.4c-.16.09-.43.07-.6-.04l-2.39-1.45c-.18-.11-.19-.26-.04-.35Z"/>
                      <path class="cls-39" d="m648.88,537.84l2.56-1.4c.16-.09.43-.07.6.04l2.39,1.45c.18.11.19.26.04.35l-2.56,1.4c-.16.09-.43.07-.6-.04l-2.39-1.45c-.18-.11-.19-.26-.04-.35Z"/>
                      <path class="cls-39" d="m645.42,539.73l2.56-1.4c.16-.09.43-.07.6.04l2.39,1.45c.18.11.19.26.04.35l-2.56,1.4c-.16.09-.43.07-.6-.04l-2.39-1.45c-.18-.11-.19-.26-.03-.35Z"/>
                    </g>
                    <g>
                      <path class="cls-39" d="m685.13,521.9l6.78-3.7c.16-.09.43-.07.6.04l2.39,1.45c.18.11.19.26.04.35l-6.78,3.7c-.16.09-.43.07-.6-.04l-2.39-1.45c-.18-.11-.19-.26-.03-.35Z"/>
                      <path class="cls-39" d="m681.67,523.79l2.56-1.4c.16-.09.43-.07.6.04l2.39,1.45c.18.11.19.26.04.35l-2.56,1.4c-.16.09-.43.07-.6-.04l-2.39-1.45c-.18-.11-.19-.26-.04-.35Z"/>
                      <path class="cls-39" d="m678.21,525.68l2.56-1.4c.16-.09.43-.07.6.04l2.39,1.45c.18.11.19.26.03.35l-2.56,1.4c-.16.09-.43.07-.6-.04l-2.39-1.45c-.18-.11-.19-.26-.03-.35Z"/>
                      <path class="cls-39" d="m674.74,527.58l2.56-1.4c.16-.09.43-.07.6.04l2.39,1.45c.18.11.19.26.04.35l-2.56,1.4c-.16.09-.43.07-.6-.04l-2.39-1.45c-.18-.11-.19-.26-.04-.35Z"/>
                      <path class="cls-39" d="m671.28,529.47l2.56-1.4c.16-.09.43-.07.6.04l2.39,1.45c.18.11.19.26.03.35l-2.56,1.4c-.16.09-.43.07-.6-.04l-2.39-1.45c-.18-.11-.19-.26-.04-.35Z"/>
                      <path class="cls-39" d="m667.82,531.36l2.56-1.4c.16-.09.43-.07.6.04l2.39,1.45c.18.11.19.26.03.35l-2.56,1.4c-.16.09-.43.07-.6-.04l-2.39-1.45c-.18-.11-.19-.26-.03-.35Z"/>
                      <path class="cls-39" d="m664.36,533.25l2.56-1.4c.16-.09.43-.07.6.04l2.39,1.45c.18.11.19.26.03.35l-2.56,1.4c-.16.09-.43.07-.6-.04l-2.39-1.45c-.18-.11-.19-.26-.04-.35Z"/>
                      <path class="cls-39" d="m660.9,535.14l2.56-1.4c.16-.09.43-.07.6.04l2.39,1.45c.18.11.19.26.04.35l-2.56,1.4c-.16.09-.43.07-.6-.04l-2.39-1.45c-.18-.11-.19-.26-.04-.35Z"/>
                      <path class="cls-39" d="m657.43,537.04l2.56-1.4c.16-.09.43-.07.6.04l2.39,1.45c.18.11.19.26.03.35l-2.56,1.4c-.16.09-.43.07-.6-.04l-2.39-1.45c-.18-.11-.19-.26-.03-.35Z"/>
                      <path class="cls-39" d="m653.97,538.93l2.56-1.4c.16-.09.43-.07.6.04l2.39,1.45c.18.11.19.26.04.35l-2.56,1.4c-.16.09-.43.07-.6-.04l-2.39-1.45c-.18-.11-.19-.26-.04-.35Z"/>
                      <path class="cls-39" d="m650.51,540.82l2.56-1.4c.16-.09.43-.07.6.04l2.39,1.45c.18.11.19.26.03.35l-2.56,1.4c-.16.09-.43.07-.6-.04l-2.39-1.45c-.18-.11-.19-.26-.04-.35Z"/>
                      <path class="cls-39" d="m642.8,545.03l6.8-3.72c.16-.09.43-.07.6.04l2.39,1.45c.18.11.19.26.03.35l-6.8,3.72c-.16.09-.43.07-.6-.04l-2.39-1.45c-.18-.11-.19-.26-.04-.35Z"/>
                    </g>
                    <g>
                      <path class="cls-39" d="m660.78,539.08l16.41-8.97c.16-.09.43-.07.6.04l2.39,1.45c.18.11.19.26.03.35l-16.41,8.97c-.16.09-.43.07-.6-.04l-2.39-1.45c-.18-.11-.19-.26-.04-.35Z"/>
                      <path class="cls-39" d="m682.31,527.31l2.56-1.4c.16-.09.43-.07.6.04l2.39,1.45c.18.11.19.26.04.35l-2.56,1.4c-.16.09-.43.07-.6-.04l-2.39-1.45c-.18-.11-.19-.26-.03-.35Z"/>
                      <path class="cls-39" d="m678.09,529.61l3.31-1.81c.16-.09.43-.07.6.04l2.39,1.45c.18.11.19.26.04.35l-3.31,1.81c-.16.09-.43.07-.6-.04l-2.39-1.45c-.18-.11-.19-.26-.04-.35Z"/>
                      <path class="cls-39" d="m655.66,541.87l-2.56,1.4c-.16.09-.14.24.03.35l2.39,1.45c.18.11.45.12.6.04l2.56-1.4c.16-.09.14-.24-.04-.35l-2.39-1.45c-.18-.11-.45-.12-.6-.04Z"/>
                      <path class="cls-39" d="m659.88,539.57l-3.31,1.81c-.16.09-.14.24.03.35l2.39,1.45c.18.11.44.12.6.04l3.31-1.81c.16-.09.14-.24-.03-.35l-2.39-1.45c-.18-.11-.45-.12-.6-.04Z"/>
                      <path class="cls-39" d="m692.7,521.63l2.56-1.4c.16-.09.43-.07.6.04l2.39,1.45c.18.11.19.26.03.35l-2.56,1.4c-.16.09-.43.07-.6-.04l-2.39-1.45c-.18-.11-.19-.26-.03-.35Z"/>
                      <path class="cls-39" d="m689.23,523.53l2.56-1.4c.16-.09.43-.07.6.04l2.39,1.45c.18.11.19.26.04.35l-2.56,1.4c-.16.09-.43.07-.6-.04l-2.39-1.45c-.18-.11-.19-.26-.04-.35Z"/>
                      <path class="cls-39" d="m685.77,525.42l2.56-1.4c.16-.09.43-.07.6.04l2.39,1.45c.18.11.19.26.03.35l-2.56,1.4c-.16.09-.43.07-.6-.04l-2.39-1.45c-.18-.11-.19-.26-.04-.35Z"/>
                      <path class="cls-39" d="m646.15,547.07l6.05-3.3c.16-.09.43-.07.6.04l2.39,1.45c.18.11.19.26.03.35l-6.05,3.3c-.16.09-.43.07-.6-.04l-2.39-1.45c-.18-.11-.19-.26-.04-.35Z"/>
                    </g>
                    <g>
                      <path class="cls-39" d="m634.96,537.33l-2.56,1.4c-.16.09-.43.07-.6-.04l-1.19-.72c-.18-.11-.19-.26-.03-.35l2.56-1.4c.16-.09.43-.07.6.04l1.19.72c.18.11.19.26.03.35Z"/>
                      <path class="cls-39" d="m638.43,535.44l-2.56,1.4c-.16.09-.43.07-.6-.04l-1.19-.72c-.18-.11-.19-.26-.03-.35l2.56-1.4c.16-.09.43-.07.6.04l1.19.72c.18.11.19.26.03.35Z"/>
                      <path class="cls-39" d="m641.89,533.55l-2.56,1.4c-.16.09-.43.07-.6-.04l-1.19-.72c-.18-.11-.19-.26-.03-.35l2.56-1.4c.16-.09.43-.07.6.04l1.19.72c.18.11.19.26.04.35Z"/>
                      <path class="cls-39" d="m645.35,531.65l-2.56,1.4c-.16.09-.43.07-.6-.04l-1.19-.72c-.18-.11-.19-.26-.04-.35l2.56-1.4c.16-.09.43-.07.6.04l1.19.72c.18.11.19.26.03.35Z"/>
                      <path class="cls-39" d="m648.81,529.76l-2.56,1.4c-.16.09-.43.07-.6-.04l-1.19-.72c-.18-.11-.19-.26-.04-.35l2.56-1.4c.16-.09.43-.07.6.04l1.19.72c.18.11.19.26.04.35Z"/>
                      <path class="cls-39" d="m652.27,527.87l-2.56,1.4c-.16.09-.43.07-.6-.04l-1.19-.72c-.18-.11-.19-.26-.04-.35l2.56-1.4c.16-.09.43-.07.6.04l1.19.72c.18.11.19.26.04.35Z"/>
                      <path class="cls-39" d="m655.74,525.98l-2.56,1.4c-.16.09-.43.07-.6-.04l-1.19-.72c-.18-.11-.19-.26-.03-.35l2.56-1.4c.16-.09.43-.07.6.04l1.19.72c.18.11.19.26.03.35Z"/>
                      <path class="cls-39" d="m659.2,524.09l-2.56,1.4c-.16.09-.43.07-.6-.04l-1.19-.72c-.18-.11-.19-.26-.04-.35l2.56-1.4c.16-.09.43-.07.6.04l1.19.72c.18.11.19.26.03.35Z"/>
                      <path class="cls-39" d="m662.66,522.19l-2.56,1.4c-.16.09-.43.07-.6-.04l-1.19-.72c-.18-.11-.19-.26-.03-.35l2.56-1.4c.16-.09.43-.07.6.04l1.19.72c.18.11.19.26.04.35Z"/>
                      <path class="cls-39" d="m666.12,520.3l-2.56,1.4c-.16.09-.43.07-.6-.04l-1.19-.72c-.18-.11-.19-.26-.04-.35l2.56-1.4c.16-.09.43-.07.6.04l1.19.72c.18.11.19.26.04.35Z"/>
                      <path class="cls-39" d="m669.58,518.41l-2.56,1.4c-.16.09-.43.07-.6-.04l-1.19-.72c-.18-.11-.19-.26-.04-.35l2.56-1.4c.16-.09.43-.07.6.04l1.19.72c.18.11.19.26.04.35Z"/>
                      <path class="cls-39" d="m673.05,516.52l-2.56,1.4c-.16.09-.43.07-.6-.04l-1.19-.72c-.18-.11-.19-.26-.04-.35l2.56-1.4c.16-.09.43-.07.6.04l1.19.72c.18.11.19.26.03.35Z"/>
                      <path class="cls-39" d="m676.51,514.63l-2.56,1.4c-.16.09-.43.07-.6-.04l-1.19-.72c-.18-.11-.19-.26-.03-.35l2.56-1.4c.16-.09.43-.07.6.04l1.19.72c.18.11.19.26.03.35Z"/>
                      <path class="cls-39" d="m681.54,511.88l-4.12,2.25c-.16.09-.43.07-.6-.04l-1.19-.72c-.18-.11-.19-.26-.04-.35l4.12-2.25c.16-.09.43-.07.6.04l1.19.72c.18.11.19.26.04.35Z"/>
                    </g>
                  </g>
                  <path class="cls-59" d="m626.91,540.11c-.19.3,11.45,7.67,14.8,9.77,3.35,2.1,20.93,11.97,21.11,11.67.19-.3-17.08-10.65-20.43-12.75-3.35-2.1-15.29-8.99-15.48-8.69Z"/>
                  <g>
                    <path class="cls-50" d="m607.23,492.65l49.56-25.58c.79-.41,1.64-.51,2.45-.35h0s.01,0,.03,0c.22.04.43.11.63.19.64.2,1.57.5,1.96.71.31.17.35.98.3,1.74l15.44,35.92c.36.85.03,1.83-.78,2.28l-51.12,27.81.68.59s-.62,1-1.31,1.08c-.69.08-2.06-.7-2.06-.7h0c-.54-.12-1.03-.49-1.27-1.04l-16.25-37.81c-.78-1.81-.03-3.92,1.72-4.83Z"/>
                    <path d="m622.96,536.5c-.61-.14-1.12-.57-1.37-1.14l-16.25-37.81c-.81-1.89-.02-4.11,1.8-5.06l49.56-25.58c.79-.41,1.67-.54,2.54-.37h0s.06.01.06.01c.23.05.45.11.65.19.69.21,1.6.51,2,.73.21.12.48.43.4,1.86l15.42,35.88c.4.94.03,2.01-.86,2.51l-50.89,27.69.6.52-.08.13s-.67,1.07-1.44,1.17c-.04,0-.08,0-.13,0-.71,0-1.84-.62-2.02-.72Zm2.43-1.17l51.35-27.94c.73-.4,1.03-1.28.7-2.05l-15.46-35.96v-.04c.08-1.34-.16-1.54-.21-1.57-.29-.16-.97-.41-1.94-.7-.19-.08-.4-.14-.6-.18h-.03c-.8-.16-1.61-.05-2.33.33l-49.56,25.58c-1.66.86-2.38,2.88-1.64,4.6l16.25,37.81c.2.48.63.83,1.14.94l.05.02c.36.21,1.42.75,1.95.68.43-.05.87-.57,1.09-.87l-.76-.65Z"/>
                  </g>
                  <path class="cls-60" d="m615.3,503.95s-.05,0-.08-.03c.09,0,.12,0,.08.03Z"/>
                  <g>
                    <path class="cls-39" d="m623.78,535.95c.42.97,1.58,1.37,2.51.86l52.57-28.6c.81-.44,1.15-1.43.78-2.28l-15.63-36.36c-.86-2.01-3.25-2.86-5.2-1.85l-49.56,25.58c-1.75.91-2.5,3.02-1.72,4.83"/>
                    <path class="cls-54" d="m626,536.28c.35,0,.7-.09,1.01-.26l50.89-27.68c.95-.52,1.34-1.67.92-2.66l-15.13-35.2c-.63-1.47-2.08-2.42-3.68-2.42-.65,0-1.27.15-1.84.45l-47.98,24.77c-1.85.96-2.66,3.22-1.83,5.14l15.73,36.61c.33.77,1.09,1.27,1.93,1.27Z"/>
                    <path class="cls-50" d="m678.48,505.82l-15.13-35.2c-.84-1.95-3.15-2.77-5.03-1.79l-47.98,24.77c-1.69.88-2.42,2.92-1.67,4.67l15.73,36.61c.4.94,1.53,1.33,2.43.83l50.89-27.69c.78-.43,1.11-1.38.76-2.2Z"/>
                    <path class="cls-41" d="m675.38,505.5l-13.79-32.08c-.76-1.77-2.87-2.53-4.58-1.64l-43.73,22.57c-1.54.8-2.21,2.66-1.52,4.26l14.34,33.36c.37.86,1.39,1.21,2.21.76l46.38-25.23c.71-.39,1.01-1.26.69-2.01Z"/>
                  </g>
                </g>
              </g>
              <g>
                <polygon class="cls-37" points="588.67 403.99 436.75 492.27 329.89 430.57 481.81 342.29 588.67 403.99"/>
                <g>
                  <ellipse class="cls-52" cx="432.6" cy="432.31" rx="49.76" ry="27.75"/>
                  <g>
                    <g>
                      <polygon class="cls-7" points="458.16 395.27 458.14 400.97 432.29 415.99 432.31 410.29 458.16 395.27"/>
                      <polygon class="cls-31" points="432.31 410.29 432.29 415.99 399.55 406.35 399.57 400.65 432.31 410.29"/>
                      <path class="cls-11" d="m458.16,395.27l-25.85,15.02-32.74-9.65c9.14-10.45,31.2-14.61,49.28-9.28,3.62,1.06,6.43,2.25,9.31,3.91Z"/>
                    </g>
                    <path class="cls-16" d="m477.14,421.91c-.41,7.42-6.07,13.04-12.03,16.76-6.49,4.05-14.15,6.25-21.68,7.3-7.45,1.04-15.08.95-22.51-.24-7.48-1.2-14.95-3.62-21.32-7.77-5.79-3.77-11.29-9.59-11.27-16.94,0,1.54,0,3.09-.01,4.63,0,1.73-.06,3.46.28,5.17,1.22,6.08,5.99,10.77,11,14.03,6.25,4.07,13.54,6.45,20.86,7.68,7.37,1.24,14.94,1.37,22.35.39,7.52-.99,15.07-3.12,21.64-6.99,5.89-3.46,11.56-8.81,12.55-15.9.22-1.58.16-3.19.16-4.78,0-1.38,0-2.76.01-4.14,0,.26-.02.52-.03.78Z"/>
                    <path class="cls-17" d="m464.08,402.84c17.38,10.03,17.46,26.3.2,36.33-17.26,10.03-45.34,10.03-62.72,0-13.9-8.03-17.16-19.71-8.32-29.83l39.58,11.66,31.26-18.17Z"/>
                  </g>
                </g>
                <g>
                  <g class="cls-67">
                    <path class="cls-18" d="m498.76,363l-6.59,3.83c-5.98-3.27-15.39-3.21-21.21.17-.12.07-.23.14-.35.21l-6.64-3.83c.12-.07.23-.14.35-.21,9.46-5.5,24.79-5.56,34.44-.17Z"/>
                    <path class="cls-18" d="m499.78,363.6c7.83,4.9,8.64,12.21,2.41,17.59l-6.84-3.95c2.74-3.14,2.02-7.05-2.17-9.8l6.6-3.84Z"/>
                    <path class="cls-26" d="m501.34,381.89c-.65.49-1.37.97-2.15,1.42-9.33,5.42-24.35,5.55-34.02.41l6.6-3.84c6,3.04,15.1,2.9,20.78-.4.79-.46,1.47-.96,2.05-1.48l6.73,3.89Z"/>
                  </g>
                  <path class="cls-26" d="m469.67,367.86c-4.5,3.39-4.15,8.26,1.06,11.43l-6.59,3.83c-8.86-5.3-9.25-13.59-1.13-19.12l6.67,3.85Z"/>
                </g>
                <g>
                  <path class="cls-34" d="m556.04,410.6c.81.47.82,1.22,0,1.69-.81.47-2.1.47-2.92,0l-41.49-23.96c-.81-.47-.82-1.22,0-1.69s2.1-.47,2.92,0l41.49,23.96Z"/>
                  <path class="cls-34" d="m527.37,399.59c.8.46.8,1.23,0,1.69-.81.47-2.13.47-2.93,0l-17.61-10.17c-.81-.47-.8-1.23,0-1.7.79-.46,2.1-.47,2.92,0l17.61,10.17Z"/>
                  <path class="cls-34" d="m532.83,407.93c.81.47.83,1.23.02,1.7-.81.47-2.12.46-2.93,0l-27.55-15.91c-.81-.47-.82-1.22,0-1.69.81-.47,2.1-.47,2.92,0l27.55,15.91Z"/>
                </g>
              </g>
            </g>
            <g>
              <g>
                <path class="cls-8" d="m625.27,376.55s-2.18,3.27-3.05,4.36c-.87,1.09-8.93,7.41-11.11,8.71-2.18,1.31,4.36,6.32,8.71,6.54,4.36.22,6.54-7.19,8.93-6.97,0,0-2.18,2.18-1.52,3.7.65,1.53,2.61,0,3.49-1.09s2.61-3.27,3.49-5.66.22-6.97.22-6.97l-9.15-2.61Z"/>
                <path class="cls-37" d="m654.98,328.74h0c4.76,2.45,6.64,8.3,4.19,13.06l-18.26,35.52c-2.45,4.76-8.3,6.64-13.06,4.19h0c-4.76-2.45-6.64-8.3-4.19-13.06l18.26-35.52c2.45-4.76,8.3-6.64,13.06-4.19Z"/>
              </g>
              <g>
                <polygon class="cls-37" points="686.98 384.6 642.16 410.65 610.63 392.45 655.45 366.4 686.98 384.6"/>
                <path class="cls-8" d="m676.59,378.5c.69-1.38,1.84-3.22,2.76-4.6.92-1.38.92-3.22-.92-5.29-1.84-2.07-3.68-1.84-4.83-1.15,0,0-2.07,1.61-3.45,1.61s-5.75,0-6.44.23c-.69.23-4.14,2.07-2.99,3.22s2.53.92,4.14.69c1.61-.23,3.62,1.26,4.31,1.49"/>
                <g>
                  <path class="cls-34" d="m649.38,400.32c.38.22.38.57,0,.79-.38.22-.98.22-1.37,0l-19.43-11.22c-.38-.22-.38-.57,0-.79.38-.22.98-.22,1.37,0l19.43,11.22Z"/>
                  <path class="cls-34" d="m635.96,395.16c.37.22.38.58,0,.79-.38.22-1,.22-1.37,0l-8.24-4.76c-.38-.22-.38-.58,0-.8.37-.22.98-.22,1.37,0l8.24,4.76Z"/>
                  <path class="cls-34" d="m638.52,399.07c.38.22.39.58.01.8-.38.22-.99.22-1.37,0l-12.9-7.45c-.38-.22-.38-.57,0-.79.38-.22.98-.22,1.37,0l12.9,7.45Z"/>
                </g>
              </g>
            </g>
            <g>
              <g>
                <g>
                  <path class="cls-18" d="m615.15,268.62c2.71,1.57,4.9,5.36,4.89,8.48l-.18,62.12c0,3.12-2.21,4.37-4.93,2.81l-90.92-52.5c-2.71-1.57-4.9-5.36-4.89-8.48l.18-62.12c0-3.12,2.21-4.37,4.93-2.81l90.92,52.5Z"/>
                  <g>
                    <path class="cls-10" d="m547.99,244.69c-8.38-4.84-16.3-3.6-19.58,4.02-4.1,9.53.56,25.58,10.43,36.68l2.29-5.33c-6.69-7.8-9.8-18.82-6.96-25.41,2.31-5.37,7.9-6.24,13.8-2.83,1.44.83,2.9,1.92,4.33,3.25l2.29-5.33c-2.18-2.1-4.41-3.78-6.6-5.05Z"/>
                    <path class="cls-26" d="m554.59,249.74l-2.29,5.33c.36.34.72.69,1.08,1.06,7.6,7.83,11.31,19.86,8.29,26.87-.11.25-.23.49-.35.73-.04.09-.09.17-.14.25-2.2,3.87-6.41,4.81-11.08,2.94-.73-.29-1.47-.65-2.22-1.08-.2-.12-.4-.24-.6-.36-.36-.23-.64-.42-.92-.6l-.12-.09c-.6-.42-1.19-.88-1.79-1.39-.07-.06-.15-.13-.23-.2-.22-.19-.44-.39-.66-.6-.08-.07-.16-.15-.24-.23-.29-.27-.58-.55-.86-.84-.46-.48-.9-.96-1.33-1.46l-2.29,5.33c.44.49.88.98,1.33,1.44.41.42.82.82,1.23,1.21.12.11.23.22.35.33.31.29.63.57.94.85.11.09.21.19.32.28.85.72,1.7,1.39,2.55,1.98.07.05.13.09.2.14.39.27.78.53,1.16.77l.13.08c.26.16.53.32.79.47.63.36,1.25.69,1.88.99.47.22.91.41,1.35.59,7.12,2.82,13.5,1.04,16.35-5.59,4.28-9.95-.99-27.02-11.76-38.12-.36-.37-.72-.72-1.08-1.06Z"/>
                  </g>
                  <g>
                    <path class="cls-9" d="m587.34,279.11v1.63c0,.96-1.05,1.56-1.88,1.08l-7.69-4.46c-.39-.22-.62-.64-.62-1.08v-1.63c0-.96,1.05-1.56,1.88-1.08l7.69,4.46c.39.22.62.64.62,1.08Z"/>
                    <path class="cls-9" d="m611.66,301.26v1.63c0,.96-1.05,1.56-1.88,1.08l-32.03-18.49c-.39-.22-.63-.64-.62-1.08v-1.63c0-.96,1.05-1.56,1.88-1.08l32.03,18.49c.39.22.63.64.62,1.08Z"/>
                    <g class="cls-62">
                      <path class="cls-26" d="m598.41,309.86v1.63c0,.96-1.05,1.56-1.88,1.08l-18.83-10.87c-.39-.22-.63-.64-.62-1.08v-1.63c0-.96,1.05-1.56,1.88-1.08l18.83,10.87c.39.22.63.64.62,1.08Z"/>
                    </g>
                    <path class="cls-26" d="m606.67,306.5v1.63c0,.96-1.05,1.56-1.88,1.08l-27.07-15.63c-.39-.22-.63-.64-.62-1.08v-1.63c0-.96,1.05-1.56,1.88-1.08l27.07,15.63c.39.22.63.64.62,1.08Z"/>
                  </g>
                </g>
                <g>
                  <path class="cls-26" d="m837.21,415.13v3.13c0,1.85-2,3-3.6,2.08l-14.81-8.53c-.74-.43-1.2-1.22-1.2-2.08v-3.13c0-1.85,2-3,3.6-2.08l14.81,8.53c.74.43,1.2,1.22,1.2,2.08Z"/>
                  <path class="cls-26" d="m884.11,457.57v3.14c0,1.84-1.99,3-3.59,2.08l-61.71-35.38c-.75-.43-1.21-1.22-1.21-2.08v-3.14c0-1.85,1.99-3,3.59-2.08l61.71,35.38c.75.43,1.21,1.22,1.21,2.08Z"/>
                  <g class="cls-62">
                    <path class="cls-26" d="m858.68,474.19v3.14c0,1.85-1.99,3-3.59,2.08l-36.27-20.79c-.75-.43-1.21-1.22-1.21-2.08v-3.14c0-1.85,1.99-3,3.59-2.08l36.27,20.79c.75.43,1.21,1.22,1.21,2.08Z"/>
                  </g>
                  <path class="cls-26" d="m874.55,467.69v3.14c0,1.85-1.99,3-3.59,2.08l-52.14-29.89c-.75-.43-1.21-1.22-1.21-2.08v-3.14c0-1.84,1.99-3,3.59-2.08l52.14,29.89c.75.43,1.21,1.22,1.21,2.08Z"/>
                </g>
              </g>
              <g>
                <g>
                  <path class="cls-18" d="m189.72,400.54c-1.73,1-3.14,3.43-3.13,5.42,0,2.01,1.42,2.81,3.15,1.81,1.75-1.01,3.15-3.44,3.15-5.45,0-1.99-1.42-2.79-3.17-1.79Z"/>
                  <path class="cls-18" d="m198.9,397.72c.04.35.06.72.06,1.1,0,.31-.01.63-.03.95-.4,5.64-4.35,12.2-9.16,14.97-5.08,2.93-9.22.56-9.24-5.28-.02-5.84,4.1-12.96,9.18-15.9,4.75-2.74,8.69-.87,9.2,4.15Zm-9.14,14.96c4.09-2.36,7.42-8.12,7.4-12.82-.01-4.69-3.36-6.59-7.45-4.23-4.08,2.35-7.4,8.11-7.39,12.8.01,4.71,3.36,6.61,7.44,4.26"/>
                  <path class="cls-18" d="m290.84,308.52v1.04s.06,20.66.06,20.66l-36.4,21.01-12.45,21.57-43.15,24.91c.04.35.06.72.06,1.1,0,.31-.01.63-.03.95l43.88-25.33,12.45-21.57,37.45-21.62-.06-22.72v-1.04s-1.8,1.04-1.8,1.04Z"/>
                  <polygon class="cls-55" points="267.08 249.8 273.23 260.75 282.6 255.34 276.45 244.39 267.08 249.8"/>
                  <polygon class="cls-65" points="250.32 259.48 256.46 270.43 265.83 265.02 259.69 254.07 250.32 259.48"/>
                  <polygon class="cls-66" points="233.55 269.16 239.69 280.1 249.06 274.7 242.92 263.75 233.55 269.16"/>
                  <polygon class="cls-64" points="302.35 276.01 295.54 285.08 295.56 294.42 363.56 255.15 363.52 240.69 302.35 276.01"/>
                  <g class="cls-67">
                    <path class="cls-18" d="m200.19,309.63c-1.73,1-3.14,3.43-3.13,5.44,0,1.99,1.42,2.79,3.15,1.8,1.75-1.01,3.15-3.44,3.15-5.43,0-2.01-1.42-2.81-3.17-1.8Z"/>
                    <path class="cls-63" d="m209.38,306.92c.03.33.05.66.05,1.02,0,.35-.01.69-.04,1.05-.43,5.62-4.37,12.1-9.15,14.86-5.08,2.93-9.22.57-9.24-5.26-.02-5.84,4.1-12.98,9.18-15.92,4.78-2.76,8.73-.83,9.21,4.26Zm-9.15,14.86c4.09-2.36,7.42-8.12,7.4-12.81-.01-4.7-3.36-6.61-7.45-4.25-4.08,2.35-7.4,8.11-7.39,12.81.01,4.69,3.36,6.59,7.44,4.24"/>
                  </g>
                  <path class="cls-18" d="m448.41,244.89c5.08-2.93,9.24-.58,9.25,5.26.02,5.84-4.11,12.99-9.19,15.93-4.78,2.76-8.72.82-9.19-4.27-.03-.33-.05-.66-.05-1.02,0-.35.01-.7.04-1.05.43-5.62,4.36-12.09,9.14-14.85Zm.05,19.12c4.09-2.36,7.42-8.12,7.4-12.82-.01-4.69-3.36-6.59-7.45-4.23-4.08,2.35-7.4,8.11-7.39,12.8.01,4.7,3.36,6.61,7.44,4.26"/>
                  <polygon class="cls-18" points="389.79 295.13 389.8 298.9 432.96 273.98 432.95 270.21 389.79 295.13"/>
                  <polygon class="cls-18" points="418.37 288.19 419.95 291.07 432.99 283.54 432.98 279.75 418.37 288.19"/>
                  <path class="cls-18" d="m209.38,306.92c.03.33.05.66.05,1.02,0,.34-.01.69-.04,1.05l72.56-41.89.13,47.53,8.76-5.05v-1.04s1.79-1.04,1.79-1.04v1.04s49.31-28.47,49.31-28.47l33.07,18.85,64.26-37.1c-.03-.33-.05-.66-.05-1.02,0-.35.01-.69.04-1.05l-63.51,36.67-33.07-18.85-58.81,33.95-.13-47.53-74.36,42.93Z"/>
                  <path class="cls-18" d="m448.43,251.87c-1.73,1-3.14,3.43-3.13,5.42,0,2.01,1.42,2.81,3.15,1.81,1.75-1.01,3.15-3.44,3.15-5.45,0-1.99-1.42-2.79-3.17-1.79Z"/>
                </g>
                <g>
                  <path class="cls-26" d="m401.03,222.24c2.41-1.39,4.37-.27,4.38,2.5l.05,17.43c0,2.78-1.94,6.15-4.35,7.54-2.41,1.39-4.37.29-4.38-2.5l-.05-17.43c0-2.77,1.94-6.15,4.35-7.54Z"/>
                  <path class="cls-26" d="m418.45,188.52c2.41-1.39,4.37-.27,4.38,2.5l.12,41.06c0,2.78-1.94,6.15-4.35,7.54-2.41,1.39-4.37.29-4.38-2.5l-.12-41.06c0-2.77,1.94-6.15,4.35-7.54Z"/>
                  <path class="cls-26" d="m435.97,193.48c2.41-1.39,4.37-.27,4.38,2.51l.07,25.99c0,2.78-1.94,6.15-4.35,7.54-2.41,1.39-4.37.29-4.38-2.5l-.07-25.99c0-2.78,1.94-6.16,4.35-7.55Z"/>
                  <path class="cls-26" d="m453.34,143.22c2.41-1.39,4.37-.27,4.38,2.5l.19,66.17c0,2.78-1.94,6.15-4.35,7.54-2.42,1.4-4.37.29-4.38-2.5l-.19-66.17c0-2.77,1.93-6.14,4.35-7.54Z"/>
                  <path class="cls-26" d="m470.78,115.4c2.41-1.39,4.37-.27,4.38,2.5l.24,83.9c0,2.78-1.94,6.15-4.35,7.54-2.42,1.4-4.39.29-4.39-2.49l-.24-83.9c0-2.77,1.94-6.15,4.37-7.55Z"/>
                </g>
              </g>
            </g>
            <g>
              <rect class="cls-37" x="583.45" y="505.73" width="44.44" height="63.61"/>
              <path class="cls-15" d="m629.94,556.19s-2.39-2.17-4.99-2.6c-2.6-.43-12.81.65-16.28-1.3-3.47-1.95-3.26-8.9-.43-10.64,2.82-1.74,9.55-.65,14.33-.87,4.78-.22,1.09-8.47,3.91-9.33,2.82-.87,3.47,1.3,4.12,3.69s.65,8.03,2.6,10.2c1.95,2.17,5.64,3.69,5.64,3.69l-8.9,7.16Z"/>
              <g>
                <path class="cls-44" d="m768.73,574.37h0c-5.09,2.7-11.41.76-14.11-4.33l-20.14-37.97c-2.7-5.09-.76-11.41,4.33-14.11h0c5.09-2.7,11.41-.76,14.11,4.33l20.14,37.97c2.7,5.09.76,11.41-4.33,14.11Z"/>
                <path class="cls-44" d="m689.37,623.64c1.55,7.77,24.96,13.78,37.91,11.71,12.95-2.07,29.58-9.92,29.12-24.94,0,0-.72-58.51-.72-70.31s-7.43-20.54-7.43-20.54c0,0-7.25-8.29-30.05-3.63,0,0-18.57,4.05-27.12,17.78,0,0-7.16,12.96-5.19,44.44,1.97,31.48,3.47,45.5,3.47,45.5Z"/>
                <path class="cls-12" d="m736.01,499.28s-1.97,11.48,0,16.72c.33,2.62-11.15,11.48-21.31,9.18-5.9-1.31-5.57-4.26-5.57-4.26,0,0,4.92-8.2,4.26-16.07-.66-7.87,15.74-7.21,22.63-5.57Z"/>
                <g>
                  <path class="cls-15" d="m697.65,476.16c0,14.94,12.11,27.05,27.05,27.05s27.05-12.11,27.05-27.05-12.11-27.05-27.05-27.05-27.05,12.11-27.05,27.05Z"/>
                  <path class="cls-15" d="m697.65,477.96s-.33,27.1,5.57,32.57c5.9,5.47,14.96-5.12,29.45-8.51,14.49-3.72-11.74-31.9-11.74-31.9l-23.28,7.85Z"/>
                </g>
                <path class="cls-49" d="m708.51,453.32s-9.73,2.12-12.7,16.93c1.27,6.35,10.16,1.27,13.54,9.73,3.39,8.46,5.5,11,5.5,11l2.12-.85s0-6.77,2.96-6.77,3.81,8.04,2.12,11.43c-1.69,3.39-5.5,5.08-5.5,5.08,0,0,4.23,7.2,6.35,8.04,2.12.85,9.73-.85,12.7-2.12,2.96-1.27,8.46-7.19,12.7-13.97,4.23-6.77,8.04-18.62,5.5-26.66-2.54-8.04-8.46-10.16-8.46-10.16,0,0-3.39-4.66-9.31-6.77-5.93-2.12-16.93-2.96-27.51,5.08Z"/>
                <path class="cls-37" d="m703.86,521.61l7.05-3.95s18.06-1.69,24.55-5.93l3.39,4.8s-4.51,8.75-16.08,9.88c-11.57,1.13-16.93-3.39-16.93-3.39l-1.97-1.41Z"/>
                <g>
                  <path class="cls-37" d="m668.25,576.33h0c-2.38,3.43-7.09,4.28-10.52,1.9l-25.56-17.75c-3.43-2.38-4.28-7.09-1.9-10.52h0c2.38-3.43,7.09-4.28,10.52-1.9l25.56,17.75c3.43,2.38,4.28,7.09,1.9,10.52Z"/>
                  <path class="cls-44" d="m674.59,591.5h0c-5.27-2.33-7.66-8.49-5.33-13.77l17.37-39.31c2.33-5.27,8.49-7.66,13.77-5.33h0c5.27,2.33,7.66,8.49,5.33,13.77l-17.37,39.31c-2.33,5.27-8.49,7.66-13.77,5.33Z"/>
                  <path class="cls-44" d="m685.26,588.96h0c-3.29,4.74-9.79,5.91-14.53,2.62l-35.31-24.51c-4.74-3.29-5.91-9.79-2.62-14.53h0c3.29-4.74,9.79-5.91,14.53-2.62l35.31,24.51c4.74,3.29,5.91,9.79,2.62,14.53Z"/>
                </g>
                <path class="cls-49" d="m712.56,484.3s2.15,7.98-.31,13.2c-2.46,5.22-6.45,5.22-7.67,4.3-1.23-.92-3.99-6.14-7.06-6.45-2.76-.31.92,19.03,6.75,19.34,5.83.31,8.29-3.38,10.13-6.45,1.84-3.07,2.76-21.8,2.76-21.8l-4.61-2.15Z"/>
              </g>
            </g>
            <g>
              <g>
                <path class="cls-8" d="m387.07,645.33s-13.95,47.38-16.66,58.92c0,0,2.08,2.57,7.31,4.46,5.23,1.89,10.13,3.29,11.3,6.11,1.17,2.82-9.69,5.42-14.43,3.19-4.74-2.23-13.19-.88-17.02-3.35-2.25-3.89,1.54-12.2,2.03-14.69.49-2.49.39-37.01,4.26-47.89,3.87-10.88,1.97-7.41,3.75-23.02,1.78-15.6,25.15-19.26,19.44,16.27Z"/>
                <path class="cls-37" d="m357.84,705.12s2.47.06,5.63,2.62c3.16,2.56,8.62,4.93,11.77,4.26,3.15-.67,3-1.56,2.42-2.97.14-.73,4.3.63,6.37,1.58,2.08.95,5.4,3.22,5.84,4.82.13,1.53-4.74,4.35-9.9,4.3-5.17-.05-11.31-2.77-13.03-2.78-1.72-.02-2.75,1.94-4.33,1.73-1.58-.2-4.44-.44-5.23-1.35-.79-.91-1.16-6.16-.56-8.63.59-2.47,1.03-3.57,1.03-3.57Z"/>
              </g>
              <g>
                <g>
                  <g class="cls-67">
                    <path class="cls-38" d="m280.88,724.94c.85,9.44,9.73,15.85,17.75,19.3,8.73,3.76,18.32,5.28,27.79,5.16,9.67-.12,19.53-1.97,28.25-6.26,7.6-3.74,15.68-10.53,15.65-19.76.02,6.72-.45,12.28-5.3,17.53-6.24,6.76-15.63,10.4-24.46,12.22-17.23,3.56-40.7,1.84-53.79-11.43-5.27-5.34-5.99-10.96-6.01-18.06.02.44.06.87.11,1.31Z"/>
                    <path class="cls-34" d="m294,705.15c-17.54,10.13-17.65,26.55-.23,36.68,17.43,10.13,45.8,10.13,63.34,0,17.54-10.13,17.61-26.55.19-36.68s-45.76-10.13-63.3,0Z"/>
                  </g>
                  <g class="cls-67">
                    <polygon class="cls-37" points="317.57 684.68 317.68 723.82 324.53 727.8 324.42 688.66 317.57 684.68"/>
                    <polygon class="cls-38" points="324.42 688.66 324.53 727.8 331.42 723.82 331.31 684.68 324.42 688.66"/>
                    <polygon class="cls-51" points="317.57 684.68 324.42 688.66 331.31 684.68 324.46 680.7 317.57 684.68"/>
                  </g>
                </g>
                <g class="cls-67">
                  <g class="cls-67">
                    <path class="cls-42" d="m255.95,661.06l.03,9.35s0,.04,0,.07l-.03-9.35s0-.04,0-.07"/>
                    <path class="cls-19" d="m255.95,661.13l.03,9.35c0,.15.02.3.05.45l-.03-9.35c-.03-.15-.05-.3-.05-.45"/>
                    <path class="cls-25" d="m256,661.58l.03,9.35c.03.15.07.31.13.46l-.03-9.35c-.06-.15-.1-.31-.13-.46"/>
                    <path class="cls-43" d="m256.13,662.04l.03,9.35c.06.16.14.32.23.48l-.03-9.35c-.09-.16-.17-.32-.23-.48"/>
                    <path class="cls-28" d="m256.36,662.52l.03,9.35c.1.18.22.36.36.53l-.03-9.35c-.14-.17-.26-.35-.36-.53"/>
                    <path class="cls-36" d="m256.72,663.05l.03,9.35c.16.21.35.41.57.61l-.03-9.35c-.22-.2-.41-.4-.57-.61"/>
                    <path class="cls-26" d="m257.29,663.66l.03,9.35c.34.31.73.61,1.19.88l-.03-9.35c-.46-.28-.86-.57-1.19-.88"/>
                    <path class="cls-24" d="m258.48,664.55l.03,9.35s.08.05.12.07l-.03-9.35s-.08-.05-.12-.07"/>
                  </g>
                  <path class="cls-18" d="m396.55,657.29c.15-.07.29-.14.42-.22,1.25-.72,1.86-1.7,1.86-2.72l.03,9.35c0,1.03-.61,2-1.86,2.72-.13.08-.27.15-.42.22l-77.17,37.27-.03-9.35,77.17-37.28Z"/>
                  <path class="cls-18" d="m258.6,664.62l50.34,29.25c.72.42,1.53.74,2.37.99.14.04.28.07.42.11.79.2,1.6.36,2.42.41.04,0,.09,0,.13,0,.9.06,1.8.02,2.65-.11.02,0,.04,0,.06-.01.86-.14,1.67-.37,2.38-.71l.03,9.35c-.15.07-.31.14-.47.2-.24.1-.49.18-.76.25-.22.06-.45.12-.68.17-.15.03-.31.06-.47.08-.02,0-.04,0-.06.01-.04,0-.08.02-.13.02-.22.03-.45.06-.67.08-.23.02-.47.03-.71.04-.26,0-.52,0-.78,0-.12,0-.24-.02-.36-.02-.05,0-.09,0-.13,0-.13,0-.26-.01-.39-.03-.36-.04-.72-.09-1.08-.15-.32-.06-.64-.16-.95-.24-.14-.04-.28-.06-.43-.11-.09-.03-.2-.04-.29-.07-.74-.24-1.45-.54-2.08-.92l-50.34-29.25c-1.74-1.01-2.65-2.32-2.65-3.55l-.03-9.35c0,1.24.91,2.54,2.65,3.55Z"/>
                  <path class="cls-26" d="m322.43,613.75c-.13.08-.26.16-.38.24l-64.6,44.58c-2.37,1.65-1.87,4.29,1.16,6.05l50.34,29.25c3.03,1.76,7.58,2.06,10.44.69l77.17-37.28c.15-.07.29-.14.42-.22,2.73-1.58,2.44-4.4-.8-6.28l-62.91-36.56c-3.24-1.88-8.1-2.06-10.84-.48Z"/>
                </g>
              </g>
              <g>
                <g>
                  <g>
                    <g>
                      <path class="cls-18" d="m362.16,528.24c-7.94-12.75-25.19-16.51-25.19-16.51-21.17-4.33-27.91,3.37-27.91,3.37,0,0-6.9,8.12-6.9,19.08,0,7.52,7.9,29.21,8.44,46.43-.22,11.93-3.75,31.89-4.05,34.92-.59,5.92,15.72,22.98,52.44,13.51,4.15-2.37,5.92-5.33,5.92-5.33l.4-44.38c.17-2.48.33-5.06.51-7.84,1.83-29.24-3.66-43.25-3.66-43.25Z"/>
                      <path class="cls-8" d="m320.43,496.26s1.83,10.66,0,15.53c-.31,2.44,10.35,10.66,19.79,8.53,5.48-1.22,5.18-3.96,5.18-3.96,0,0-4.57-7.61-3.96-14.92.61-7.31-14.62-6.7-21.01-5.18Z"/>
                      <g>
                        <path class="cls-15" d="m356.07,474.79c0,13.88-11.25,25.12-25.13,25.12s-25.12-11.25-25.12-25.12,11.25-25.12,25.12-25.12,25.13,11.25,25.13,25.12Z"/>
                        <path class="cls-8" d="m356.07,476.47s.79,23.72-4.69,28.8c-5.48,5.08-14.38-3.31-27.84-6.46-13.46-3.46,10.91-29.63,10.91-29.63l21.62,7.29Z"/>
                      </g>
                      <path class="cls-9" d="m350.3,517l-6.55-3.67s-16.77-1.57-22.8-5.5l-3.14,4.46s4.19,8.12,14.94,9.17c10.74,1.05,15.72-3.15,15.72-3.15l1.83-1.31Z"/>
                    </g>
                    <path class="cls-47" d="m337.67,446.18s20.38,3.57,21.4,21.91c-.51,14.27-12.23,17.32-13.76,18.85-1.53,1.53-5.1-5.1-8.66,1.53-3.57,6.62,1.53,8.15,3.57,10.7,1.02,2.55-3.06,5.6-7.13,6.11-4.08.51-5.41,5.1-12.13,2.55-6.72-2.55-7.74-9.68-12.83-16.82-5.1-7.13-7.13-21.91-1.53-32.61,5.6-10.7,24.46-13.25,31.08-12.23Z"/>
                  </g>
                  <path class="cls-8" d="m420.59,544.17s2.94-9.48,4.97-11.52c2.03-2.03,10.16-4.52,11.97-3.39s-1.35,3.16-1.35,3.16c0,0,4.29.9,4.29,3.39s-4.06,4.97-4.06,4.97c0,0-1.58,6.77-5.19,8.13s-5.87,2.71-5.87,2.71l-4.74-7.45Z"/>
                  <path class="cls-18" d="m353.09,519.49s11,5.08,16.92,14.81c5.92,9.73,16.08,29.61,18.19,31.31s27.08-21.15,30.46-22.85c3.38-1.27,9.31,3.38,8.04,9.73-1.27,6.35-30.04,30.46-38.08,33.42-8.04,2.96-30.88-21.58-37.65-32.58-6.77-11-7.62-31.73,2.12-33.85Z"/>
                </g>
                <path class="cls-47" d="m315.94,466.08c0,6.5-5.27,11.76-11.76,11.76s-11.76-5.27-11.76-11.76,5.27-11.76,11.76-11.76,11.76,5.27,11.76,11.76Z"/>
                <path class="cls-40" d="m364.91,623.7l.31-34.93c-7.99-.8-13.55-9.78-15.08-29.24-1.96-24.83-8.5-26.14-33.98-33.98-5.72-1.76-9.66-1.8-12.33-.81-.95,2.75-1.66,5.95-1.66,9.44,0,7.52,7.9,29.21,8.44,46.43-.22,11.93-3.75,31.89-4.05,34.92-.42,4.15,7.5,13.77,24.92,15.89l31.12-5.03c1.59-1.48,2.32-2.68,2.32-2.68Z"/>
              </g>
              <g>
                <g>
                  <path class="cls-8" d="m428.34,656.47s-4.53,49.18-4.95,61.03c0,0,2.54,2.12,8.04,2.96,5.5.85,10.58,1.27,12.27,3.81,1.69,2.54-8.46,7.19-13.54,5.92-5.08-1.27-13.12,1.69-17.35,0-2.96-3.38-.85-12.27-.85-14.81s-6.77-36.38-5.08-47.81c1.69-11.42.5-7.65-.77-23.31-1.27-15.65,20.95-23.76,22.22,12.2Z"/>
                  <path class="cls-37" d="m411.23,720.78s2.43-.42,6.03,1.48c3.6,1.9,9.41,3.17,12.37,1.9,2.96-1.27,2.64-2.12,1.8-3.38,0-.74,4.34-.21,6.56.32,2.22.53,5.92,2.12,6.66,3.6.42,1.48-3.81,5.18-8.88,6.13-5.08.95-11.63-.53-13.33-.21-1.69.32-2.33,2.43-3.91,2.54-1.59.11-4.44.42-5.39-.32-.95-.74-2.33-5.82-2.22-8.36.11-2.54.32-3.7.32-3.7Z"/>
                </g>
                <path class="cls-4" d="m307.22,600.71s19.61,18.3,58.82,7.41v7.84s0-.87,6.54,0c6.54.87,12.2-.44,17.43,0,5.23.44,14.81,5.23,20.91,10.02,6.1,4.79,10.02,13.51,10.02,16.56s-2.61,11.76-4.36,12.63c-1.74.87-17-.12-23.1,1.03-6.09,1.15-18.29,8.56-34.85,10.3-16.56,1.74-37.9-3.05-48.36-11.76-10.46-8.71-7.41-30.5-6.1-37.9,1.31-7.41,3.05-16.12,3.05-16.12Z"/>
              </g>
              <g class="cls-67">
                <polygon class="cls-30" points="308.91 594.01 241.28 554.71 237.59 559.12 305.22 598.42 308.91 594.01"/>
                <path class="cls-30" d="m252.17,660.13c.58-8.9,2.09-17.64,2.3-26.6.22-9.65-.25-19.29-1.57-28.85-2.15-15.52-6.31-32.47-15.3-45.56,16.26,9.45,32.52,18.9,48.77,28.34,4.26,2.48,8.52,4.95,12.78,7.43,1.85,1.08,4.34,2.03,5.95,3.46,1.06.93,1.79,2.71,2.47,3.92,1.99,3.57,3.68,7.31,5.17,11.11,3.22,8.24,5.5,16.85,7.01,25.56,1.8,10.44,2.52,21.04,2.39,31.62-.07,5.69-.35,11.39-.91,17.06-.27,2.76-.59,5.52-.94,8.27-.2,1.51-1.36,4.89.46,5.95-21.23-12.34-42.46-24.67-63.69-37.01-1.9-1.1-5.05-2.06-4.88-4.7Z"/>
                <path class="cls-18" d="m308.91,594.01l-3.69,4.41c1.21,1.76,24.19,35.25,14.62,100.59-.36,2.51,1.14,3.79,3.18,2.61l6.47-3.74c1.78-1.03,3.22-3.48,3.24-5.53,0-15.37-1.44-74.33-23.82-98.33Z"/>
              </g>
            </g>
          </g>
        </g>
      </g>
    </g>
  </g>
</svg>