<?xml version="1.0" encoding="UTF-8"?>
<svg id="Layer_2" data-name="Layer 2" xmlns="http://www.w3.org/2000/svg" viewBox="0 0 254.19 250">
  <defs>
    <style>
      .cls-1 {
        fill: #333;
      }
    </style>
  </defs>
  <g id="Layer_1-2" data-name="Layer 1">
    <g>
      <path class="cls-1" d="m170.93,159.98c1.79,1.72,3.62,3.41,5.37,5.16,25.48,25.46,50.95,50.94,76.42,76.41,1.94,1.94,1.94,3.08.04,5.01-.63.65-1.28,1.28-1.91,1.93-1.94,2-3.2,2.02-5.15.07-7.81-7.81-15.62-15.62-23.43-23.43-19.06-19.06-38.13-38.12-57.18-57.19-.35-.35-.64-.77-.96-1.16,1.49-1.34,3.02-2.63,4.45-4.03.86-.84,1.56-1.84,2.34-2.77Z"/>
      <path class="cls-1" d="m78.2,91.72c.26-1.45,1.15-1.71,2.34-1.85,18.48-2.25,36.65-5.79,53.88-13.16,6.78-2.9,13.27-6.35,18.78-11.38.79-.72,1.53-1.51,2.26-2.3,3.37-3.62,4.59-7.82,2.87-12.52-1.65-4.5-5.69-5.7-9.88-6.37-7.9-1.27-15.28.79-22.46,3.8-10.37,4.34-19.32,10.84-27.37,18.6-8.82,8.5-17.25,17.36-23.36,28.11-2.05,3.6-3.81,7.34-3.97,11.6-.15,4.22,1.54,7.46,5.17,9.64,4.36,2.63,9.25,3.48,14.18,3.5,5.82.02,11.64-.51,17.46-.8.5-.03.99-.08,1.51-.13-.34,2.04-1.4,2.77-3.42,2.98-8.26.85-16.51,1.42-24.65-.61-2.64-.66-5.33-1.75-7.55-3.29-5.32-3.7-6.25-9.14-4.87-15.12,1.58-6.89,5.29-12.72,9.57-18.18,9.97-12.72,21.02-24.34,34.81-33.04,7.33-4.63,15.18-8.04,23.83-9.4,4.63-.73,9.24-.71,13.84.26,11.44,2.42,12.65,13.45,8,20.42-2.83,4.24-6.75,7.28-11.04,9.89-11.54,7.02-24.11,11.46-37.26,14.13-10.13,2.06-20.4,3.44-30.62,5.1-.65.11-1.32.08-2.04.11Z"/>
      <path class="cls-1" d="m110.24,119.32c.6-1.11,1.17-2.23,1.81-3.31,7.03-11.77,15.88-21.73,28.32-28.02,5.1-2.58,10.46-4.32,16.27-4.18,1.35.03,2.72.2,4.03.5,5.69,1.31,8.07,5.53,6.31,11.14-1.43,4.55-4.69,7.65-8.41,10.35-6.34,4.58-13.52,7.36-21,9.24-8.16,2.06-16.43,3.67-24.66,5.46-.54.12-1.11.11-1.73.16.5-1.91,1.55-2.75,3.52-3.07,9.93-1.64,19.81-3.56,29.33-6.95,5.84-2.08,11.48-4.64,16.14-8.8,1.88-1.68,3.62-3.84,4.61-6.14,2.43-5.67-.38-9.69-6.52-10.14-7.42-.54-14.05,1.82-20.37,5.34-9.35,5.22-16.47,12.81-22.57,21.45-1.65,2.33-3.18,4.74-4.76,7.12-.1-.05-.2-.1-.3-.15Z"/>
      <path class="cls-1" d="m97.35,13.85c1.03,3.77,2.01,7.13,2.83,10.52.28,1.17.86,1.67,1.96,1.95,3.27.82,6.52,1.73,9.79,2.99-2.66.73-5.29,1.64-8,2.14-2.54.46-3.87,1.58-4.29,4.23-.45,2.82-1.43,5.56-2.29,8.73-1.04-3.81-2.03-7.19-2.85-10.62-.27-1.13-.83-1.57-1.86-1.83-3.28-.83-6.55-1.73-10.14-2.69.53-.27.81-.48,1.12-.57,3-.82,5.99-1.65,9.01-2.4,1.04-.26,1.6-.73,1.87-1.84.83-3.4,1.8-6.76,2.84-10.61Z"/>
      <path class="cls-1" d="m161.49,164.09c-3.29-3.23-6.63-6.41-9.85-9.71-.91-.93-.81-2.26.07-3.26,1.12-1.27,2.32-2.47,3.59-3.59,1-.88,2.35-.95,3.27-.05,3.3,3.22,6.47,6.57,9.68,9.87-2.25,2.24-4.51,4.49-6.76,6.73Z"/>
      <path class="cls-1" d="m166.67,72.39c2.17-.59,4.32-1.26,6.52-1.73,1.07-.23,1.5-.79,1.74-1.76.56-2.24,1.18-4.46,1.91-7.17.74,2.74,1.39,4.99,1.95,7.26.23.94.66,1.41,1.64,1.64,2.23.52,4.42,1.17,6.66,2.12-2.1.56-4.18,1.17-6.29,1.67-1.16.28-1.82.76-2.08,2.05-.44,2.18-1.16,4.31-1.88,6.92-.71-2.61-1.34-4.77-1.87-6.96-.27-1.1-.76-1.73-1.94-1.98-2.13-.46-4.23-1.1-6.34-1.67,0-.13-.01-.26-.02-.39Z"/>
      <path class="cls-1" d="m131.36,148.7c.42,1.57.93,3.12,1.24,4.71.28,1.46.95,2.23,2.47,2.49,1.7.3,3.34.89,5.44,1.48-2.37.63-4.3,1.06-6.15,1.7-.6.21-1.25.89-1.47,1.5-.62,1.75-1.03,3.57-1.87,5.45-.41-1.45-.96-2.87-1.2-4.34-.3-1.81-1.19-2.71-3.01-3-1.54-.24-3.03-.78-5.02-1.31,2.17-.6,3.88-1.16,5.64-1.51,1.36-.27,1.99-.97,2.26-2.29.33-1.64.84-3.25,1.28-4.87.13,0,.26,0,.39,0Z"/>
      <path class="cls-1" d="m35.68,127.71c2.45-.4,4.89-.83,7.34-1.19,1.09-.16,1.64-.55,1.77-1.78.26-2.4.75-4.78,1.43-7.21.35,2.09.81,4.17,1.01,6.27.17,1.86.86,2.76,2.85,2.89,2.18.14,4.34.68,6.52,1.27-2.45.4-4.9.83-7.36,1.18-1.07.15-1.67.49-1.81,1.73-.29,2.44-.8,4.85-1.5,7.23-.4-2.44-.86-4.88-1.17-7.33-.13-1.06-.61-1.44-1.58-1.59-2.51-.37-5.02-.8-7.52-1.21,0-.09.01-.18.02-.27Z"/>
      <path class="cls-1" d="m36.72,68.61c-.49,2.26-1.16,4.49-1.42,6.77-.62,5.34,1.69,9.45,6.52,11.97,4.88,2.54,10.18,3.4,15.59,3.54,5.18.14,10.37.03,16.07.03-.85.58-1.41,1.29-2,1.32-8.84.39-17.67.44-26.24-2.29-.81-.26-1.59-.59-2.37-.93-6.77-2.98-9.48-8.44-7.81-15.93.35-1.58.99-3.09,1.5-4.64.06.05.12.1.18.15Z"/>
      <path class="cls-1" d="m25.58,32.9c.42,1.79.33,3.55,1.17,4.39.84.83,2.6.73,4.37,1.13-1.13.2-1.86.46-2.59.44-1.77-.05-2.36.89-2.41,2.49-.02.72-.26,1.43-.41,2.19-.13-.1-.23-.14-.25-.19-.3-1.36-.18-3.14-1.01-3.97-.82-.81-2.6-.65-4.47-1.01,1.47-.26,2.45-.48,3.44-.58,1.07-.11,1.58-.6,1.63-1.72.04-.95.3-1.88.52-3.18Z"/>
      <path class="cls-1" d="m63.69,71.65c-.36-1.51-.28-3.31-1.14-4.21-.8-.84-2.6-.73-3.99-1.04.06-.08.1-.19.16-.2q3.98-.64,4.92-5.04c.07.08.16.14.18.22.31,1.36.2,3.15,1.04,3.96.84.82,2.63.67,4.06.96-1.47.37-3.29.31-4.16,1.19-.85.87-.74,2.69-1.07,4.17Z"/>
      <path class="cls-1" d="m121.59,10.62c-.44-1.82-.35-3.59-1.2-4.39-.86-.82-2.62-.7-4.03-1,.08-.1.11-.22.17-.22q4.15-.6,4.92-5c.17.46.32.74.38,1.03q.76,3.44,4.23,3.9c.22.03.43.07.67.33-.98.17-1.95.42-2.93.5-1.09.09-1.58.61-1.69,1.67-.1.94-.31,1.86-.53,3.19Z"/>
      <path class="cls-1" d="m74.1,7.57c1.29.15,2.06.95,1.75,2.04-.2.71-1.16,1.58-1.88,1.69-1.12.17-1.85-.72-1.8-1.93.05-1.24.81-1.77,1.93-1.8Z"/>
      <path class="cls-1" d="m97.38,166.33c.45-.32,1.07-1.1,1.82-1.25,1.18-.23,1.92.61,1.96,1.79.04,1.1-.63,1.83-1.76,1.87-1.19.04-1.88-.61-2.03-2.41Z"/>
      <path class="cls-1" d="m172.87,141.94c-.61.42-1.22,1.17-1.83,1.17-.51,0-1.38-.86-1.41-1.38-.03-.49.77-1.41,1.29-1.47.6-.07,1.28.59,1.93.93l.03.75Z"/>
      <path class="cls-1" d="m3.7,90.56c-.96.68-1.61,1.48-2.07,1.38-.62-.13-1.09-.96-1.63-1.48.56-.51,1.07-1.32,1.71-1.43.45-.08,1.07.78,1.99,1.53Z"/>
      <path class="cls-1" d="m27.8,66.3c-.94.74-1.54,1.56-2.01,1.49-.63-.09-1.16-.88-1.73-1.37.54-.54,1-1.38,1.63-1.53.45-.11,1.12.71,2.11,1.41Z"/>
      <path class="cls-1" d="m57.36,104.73c-1.08.72-1.71,1.46-2.33,1.45-.5,0-1.46-1.01-1.38-1.4.12-.61.9-1.4,1.5-1.5.49-.09,1.14.71,2.21,1.46Z"/>
      <path class="cls-1" d="m169.3,115.74c.77.93,1.44,1.41,1.6,2.02.24.97-.43,1.8-1.38,1.64-.62-.1-1.41-.89-1.57-1.51-.12-.45.68-1.14,1.36-2.14Z"/>
      <path class="cls-1" d="m141.97,103.45c-.89.58-1.43,1.19-1.79,1.1-.49-.12-1.08-.74-1.17-1.23-.06-.3.72-1.08,1.13-1.08.48,0,.97.6,1.84,1.21Z"/>
      <path class="cls-1" d="m36.54,68.46c1.23-2.82,2.47-5.64,3.7-8.47l.46.21c-1.33,2.8-2.66,5.61-3.99,8.41-.06-.05-.12-.1-.18-.15Z"/>
      <path class="cls-1" d="m96.27,137.75c.44.7.94,1.14.89,1.51-.05.39-.61.72-.95,1.08-.37-.38-.95-.73-1.04-1.16-.06-.31.55-.75,1.09-1.42Z"/>
    </g>
  </g>
</svg>