<?xml version="1.0" encoding="UTF-8"?>
<svg id="Layer_2" data-name="Layer 2" xmlns="http://www.w3.org/2000/svg" viewBox="0 0 366.45 181.66">
  <defs>
    <style>
      .cls-1 {
        fill: #999;
      }

      .cls-2 {
        fill: #333;
      }
    </style>
  </defs>
  <g id="Layer_1-2" data-name="Layer 1">
    <g>
      <g>
        <path class="cls-1" d="m96.71,9.92c-.11-1.13-.59-2.01-1.45-2.64-.85-.63-2.01-.94-3.47-.94-.99,0-1.83.14-2.52.42-.68.28-1.21.66-1.57,1.15-.36.49-.54,1.04-.54,1.66-.02.51.09.96.33,1.35.24.38.57.71.99.99s.91.52,1.46.72c.55.2,1.14.37,1.77.51l2.59.62c1.26.28,2.41.66,3.46,1.12,1.05.47,1.96,1.04,2.73,1.73.77.68,1.37,1.49,1.79,2.42.43.93.64,1.99.65,3.19,0,1.76-.46,3.29-1.34,4.58-.89,1.29-2.16,2.29-3.82,2.99-1.66.71-3.67,1.06-6.01,1.06s-4.35-.36-6.06-1.07c-1.72-.71-3.06-1.77-4.02-3.17-.96-1.4-1.46-3.14-1.51-5.21h5.89c.07.96.34,1.77.84,2.41.49.64,1.15,1.12,1.98,1.45.83.32,1.77.48,2.82.48s1.93-.15,2.69-.45c.76-.3,1.36-.72,1.78-1.25s.63-1.15.63-1.84c0-.65-.19-1.19-.57-1.63-.38-.44-.93-.82-1.66-1.12-.73-.31-1.61-.59-2.66-.84l-3.13-.79c-2.43-.59-4.34-1.51-5.75-2.77-1.41-1.25-2.1-2.95-2.09-5.07,0-1.74.46-3.27,1.4-4.57.94-1.3,2.24-2.32,3.89-3.05,1.65-.73,3.52-1.1,5.62-1.1s4,.37,5.6,1.1c1.6.73,2.84,1.75,3.73,3.05s1.35,2.81,1.38,4.53h-5.83Z"/>
        <path class="cls-1" d="m116.66,30.85c-2.18,0-4.07-.47-5.66-1.4-1.59-.93-2.81-2.24-3.68-3.91-.86-1.67-1.29-3.62-1.29-5.83s.43-4.18,1.29-5.86c.86-1.67,2.09-2.97,3.68-3.91,1.59-.93,3.47-1.4,5.66-1.4s4.07.47,5.66,1.4c1.59.93,2.81,2.24,3.68,3.91.86,1.67,1.29,3.62,1.29,5.86s-.43,4.15-1.29,5.83c-.86,1.67-2.09,2.98-3.68,3.91-1.59.93-3.47,1.4-5.66,1.4Zm.03-4.64c.99,0,1.82-.28,2.49-.85.67-.57,1.17-1.34,1.51-2.33.34-.98.51-2.1.51-3.36s-.17-2.38-.51-3.36c-.34-.98-.85-1.76-1.51-2.33-.67-.57-1.49-.86-2.49-.86s-1.84.29-2.52.86-1.19,1.35-1.53,2.33c-.34.98-.51,2.1-.51,3.36s.17,2.38.51,3.36c.34.98.85,1.76,1.53,2.33s1.52.85,2.52.85Z"/>
        <path class="cls-1" d="m131.19,30.43V8.84h5.71v3.81h.25c.45-1.26,1.2-2.26,2.25-2.99,1.05-.73,2.3-1.1,3.77-1.1s2.74.37,3.78,1.1c1.04.74,1.73,1.73,2.08,2.99h.22c.44-1.24,1.24-2.23,2.4-2.97,1.16-.75,2.53-1.12,4.11-1.12,2.02,0,3.65.64,4.91,1.92,1.26,1.28,1.89,3.09,1.89,5.43v14.52h-5.97v-13.34c0-1.2-.32-2.1-.96-2.7s-1.43-.9-2.39-.9c-1.09,0-1.94.34-2.54,1.03s-.91,1.6-.91,2.72v13.19h-5.81v-13.47c0-1.06-.3-1.9-.91-2.53-.6-.63-1.4-.94-2.38-.94-.67,0-1.26.17-1.79.5-.53.33-.95.8-1.26,1.39-.31.6-.46,1.29-.46,2.09v12.96h-5.99Z"/>
        <path class="cls-1" d="m177.13,30.85c-2.22,0-4.13-.45-5.73-1.36s-2.83-2.19-3.69-3.85c-.86-1.66-1.29-3.63-1.29-5.91s.43-4.17,1.29-5.85c.86-1.68,2.08-2.98,3.65-3.92,1.57-.94,3.41-1.41,5.53-1.41,1.43,0,2.75.23,3.99.68,1.23.45,2.31,1.14,3.23,2.04s1.64,2.05,2.16,3.42.77,2.98.77,4.81v1.64h-18.23v-3.71h12.6c0-.86-.19-1.63-.56-2.29-.38-.67-.89-1.19-1.55-1.57s-1.43-.57-2.3-.57-1.71.21-2.41.63-1.24.97-1.64,1.67c-.39.7-.6,1.47-.6,2.33v3.53c0,1.07.2,1.99.6,2.77.4.78.96,1.38,1.69,1.8.73.42,1.6.63,2.6.63.67,0,1.27-.09,1.83-.28.55-.19,1.03-.47,1.42-.84.39-.38.69-.83.9-1.38l5.54.37c-.28,1.33-.86,2.49-1.72,3.48-.87.99-1.98,1.76-3.35,2.31-1.36.55-2.94.82-4.71.82Z"/>
        <path class="cls-1" d="m202.43,8.84v4.5h-13v-4.5h13Zm-10.05-5.17h5.99v20.13c0,.55.08.98.25,1.29.17.3.41.52.71.64s.66.18,1.06.18c.28,0,.56-.03.84-.08s.5-.09.65-.12l.94,4.46c-.3.09-.72.2-1.27.33-.54.13-1.2.2-1.98.23-1.44.06-2.71-.14-3.79-.58s-1.92-1.12-2.52-2.05-.89-2.1-.89-3.51V3.67Z"/>
        <path class="cls-1" d="m212.76,17.95v12.48h-5.99V1.64h5.82v11.01h.25c.49-1.27,1.27-2.27,2.36-3,1.09-.73,2.45-1.09,4.09-1.09,1.5,0,2.81.33,3.93.98,1.12.65,1.99,1.58,2.62,2.8.62,1.21.93,2.66.92,4.35v13.75h-5.99v-12.68c0-1.33-.33-2.37-1-3.11-.68-.74-1.63-1.11-2.85-1.11-.81,0-1.53.17-2.16.52s-1.11.85-1.46,1.51c-.35.66-.53,1.46-.54,2.38Z"/>
        <path class="cls-1" d="m234.49,6.06c-.89,0-1.65-.3-2.28-.89-.63-.59-.95-1.31-.95-2.14s.32-1.53.95-2.13c.63-.6,1.39-.89,2.28-.89s1.65.3,2.28.89c.63.59.95,1.3.95,2.13s-.32,1.55-.95,2.14c-.63.6-1.39.89-2.28.89Zm-3.01,24.38V8.84h5.99v21.59h-5.99Z"/>
        <path class="cls-1" d="m248.24,17.95v12.48h-5.99V8.84h5.71v3.81h.25c.48-1.25,1.28-2.25,2.4-2.99,1.12-.74,2.49-1.1,4.09-1.1,1.5,0,2.81.33,3.92.98,1.12.66,1.98,1.59,2.6,2.8.62,1.21.93,2.66.93,4.34v13.75h-5.99v-12.68c0-1.32-.33-2.35-1.01-3.1-.68-.75-1.63-1.12-2.83-1.12-.81,0-1.52.17-2.13.52s-1.09.85-1.43,1.51c-.34.66-.52,1.46-.53,2.38Z"/>
        <path class="cls-1" d="m276.59,38.98c-1.94,0-3.6-.27-4.98-.79s-2.48-1.25-3.3-2.16c-.81-.91-1.34-1.93-1.59-3.06l5.54-.75c.17.43.44.83.8,1.21s.85.68,1.46.91c.6.23,1.34.34,2.21.34,1.3,0,2.38-.32,3.23-.95.85-.63,1.27-1.69,1.27-3.17v-3.95h-.25c-.26.6-.66,1.17-1.18,1.7-.52.53-1.2.97-2.02,1.31-.82.34-1.81.51-2.95.51-1.62,0-3.09-.38-4.42-1.13-1.33-.75-2.38-1.91-3.16-3.47-.78-1.56-1.17-3.54-1.17-5.92s.4-4.49,1.19-6.13c.8-1.64,1.86-2.87,3.18-3.68,1.33-.82,2.78-1.22,4.36-1.22,1.21,0,2.22.2,3.04.61.81.41,1.47.91,1.97,1.52.5.6.89,1.2,1.16,1.78h.22v-3.63h5.95v21.8c0,1.84-.45,3.37-1.35,4.61-.9,1.24-2.14,2.17-3.73,2.79-1.59.62-3.41.94-5.48.94Zm.13-13.35c.96,0,1.78-.24,2.45-.72s1.19-1.18,1.55-2.08c.36-.9.54-1.99.54-3.25s-.18-2.36-.54-3.3c-.36-.93-.87-1.66-1.54-2.17-.68-.52-1.5-.77-2.46-.77s-1.81.27-2.49.79c-.67.53-1.19,1.26-1.53,2.2-.35.94-.52,2.02-.52,3.25s.18,2.32.53,3.23c.35.9.86,1.6,1.53,2.09.67.49,1.5.74,2.48.74Z"/>
      </g>
      <g>
        <path class="cls-1" d="m172.96,156.86c-.89,0-1.65-.3-2.29-.89-.63-.59-.95-1.31-.95-2.14s.32-1.53.95-2.13c.63-.6,1.39-.89,2.29-.89s1.65.3,2.28.89c.63.59.95,1.3.95,2.13s-.32,1.55-.95,2.14c-.63.6-1.39.89-2.28.89Zm-3.01,24.38v-21.59h5.99v21.59h-5.99Z"/>
        <path class="cls-1" d="m198.68,165.8l-5.48.34c-.09-.47-.29-.89-.6-1.27-.31-.38-.71-.68-1.22-.91-.5-.23-1.1-.34-1.79-.34-.93,0-1.71.19-2.35.58-.64.39-.96.91-.96,1.55,0,.51.21.95.62,1.31.41.36,1.12.64,2.12.86l3.91.79c2.1.43,3.66,1.12,4.69,2.08,1.03.96,1.55,2.21,1.55,3.77,0,1.42-.41,2.66-1.24,3.73-.83,1.07-1.96,1.9-3.4,2.5s-3.09.89-4.97.89c-2.86,0-5.13-.6-6.82-1.79-1.69-1.2-2.68-2.82-2.97-4.88l5.89-.31c.18.87.61,1.53,1.29,1.99.68.45,1.56.68,2.63.68s1.9-.2,2.54-.61c.64-.41.97-.94.98-1.58,0-.54-.24-.99-.69-1.34s-1.14-.62-2.08-.81l-3.74-.75c-2.11-.42-3.68-1.15-4.7-2.19-1.03-1.04-1.54-2.37-1.54-3.98,0-1.39.38-2.58,1.13-3.58.75-1,1.82-1.78,3.19-2.32,1.37-.54,2.98-.82,4.83-.82,2.73,0,4.88.58,6.45,1.73,1.57,1.15,2.49,2.72,2.75,4.71Z"/>
      </g>
      <g>
        <path class="cls-2" d="m15.82,115.1H0l17.82-53.99h20.04l17.82,53.99h-15.82l-11.81-39.12h-.42l-11.81,39.12Zm-2.95-21.3h29.74v10.97H12.87v-10.97Z"/>
        <path class="cls-2" d="m60.85,61.11h18.24l12.55,30.58h.63l12.55-30.58h18.24v53.99h-14.34v-31.21h-.42l-12.02,30.79h-8.65l-12.02-31h-.42v31.42h-14.34v-53.99Z"/>
        <path class="cls-2" d="m144.05,115.1h-15.82l17.82-53.99h20.04l17.82,53.99h-15.82l-11.81-39.12h-.42l-11.81,39.12Zm-2.95-21.3h29.74v10.97h-29.74v-10.97Z"/>
        <path class="cls-2" d="m189.29,115.1v-8.12l25.52-34.06h-25.41v-11.81h44.08v8.12l-25.52,34.06h25.41v11.81h-44.08Z"/>
        <path class="cls-2" d="m255.3,61.11v53.99h-14.66v-53.99h14.66Z"/>
        <path class="cls-2" d="m308.98,61.11v53.99h-12.23l-19.51-28.37h-.32v28.37h-14.66v-53.99h12.44l19.19,28.26h.42v-28.26h14.66Z"/>
        <path class="cls-2" d="m351,78.93c-.23-.93-.59-1.75-1.08-2.46s-1.1-1.32-1.83-1.82c-.73-.5-1.57-.88-2.53-1.13-.96-.25-2.01-.38-3.15-.38-2.46,0-4.56.59-6.29,1.77-1.73,1.18-3.05,2.87-3.96,5.09s-1.36,4.89-1.36,8.01.43,5.87,1.29,8.12,2.14,3.97,3.85,5.17,3.82,1.79,6.35,1.79c2.23,0,4.09-.33,5.58-.98,1.48-.65,2.6-1.57,3.33-2.77.74-1.19,1.11-2.6,1.11-4.22l2.53.26h-12.34v-10.44h23.94v7.49c0,4.92-1.04,9.13-3.12,12.62-2.08,3.49-4.95,6.16-8.59,8.01s-7.83,2.78-12.54,2.78c-5.26,0-9.87-1.12-13.84-3.35-3.97-2.23-7.07-5.41-9.29-9.54s-3.33-9.04-3.33-14.74c0-4.46.68-8.42,2.04-11.86,1.36-3.45,3.26-6.36,5.68-8.74,2.43-2.38,5.23-4.18,8.41-5.4,3.18-1.22,6.59-1.83,10.23-1.83,3.2,0,6.17.45,8.92,1.36,2.75.91,5.19,2.19,7.3,3.85,2.12,1.66,3.83,3.62,5.13,5.89,1.3,2.27,2.09,4.75,2.37,7.46h-14.82Z"/>
      </g>
    </g>
  </g>
</svg>